0
SECTION
2
HEADER
9
$INSUNITS
70
4
0
ENDSEC
0
SECTION
2
TABLES
0
TABLE
2
LTYPE
0
LTYPE
72
65
70
64
2
CONTINUOUS
3
______
73
0
40
0
0
ENDTAB
0
TABLE
2
LAYER
0
ENDTAB
0
ENDSEC
0
SECTION
2
ENTITIES
0
LINE
8
0
10
251.3649552
20
-170.6688534
11
233.6350454
21
-180.9054545
0
LINE
8
0
10
228.3649549
20
-180.9054539
11
188.6349542
21
-157.9667936
0
LINE
8
0
10
186
20
-153.4028662
11
186
21
-143.6106322
0
LINE
8
0
10
183.3650481
20
-139.046706
11
145.6349519
21
-117.262694
0
LINE
8
0
10
143
20
-112.6987678
11
143
21
-66.8212354
0
LINE
8
0
10
145.6349562
20
-62.2573068
11
163.8649534
21
-51.7319787
0
LINE
8
0
10
169.1350453
20
-51.7319812
11
185.3649519
21
-61.1025505
0
LINE
8
0
10
190.6350481
20
-61.1025505
11
206.8649531
21
-51.7319821
0
LINE
8
0
10
212.1350476
20
-51.7319812
11
225.7771885
21
-59.6084604
0
LINE
8
0
10
282.2228115
20
-59.6084604
11
295.8649524
21
-51.7319812
0
LINE
8
0
10
301.1350469
20
-51.7319821
11
317.3649519
21
-61.1025505
0
LINE
8
0
10
322.6350481
20
-61.1025505
11
338.8649547
21
-51.7319812
0
LINE
8
0
10
344.1350466
20
-51.7319787
11
362.3650438
21
-62.2573068
0
LINE
8
0
10
365
20
-66.8212354
11
365
21
-112.6987678
0
LINE
8
0
10
362.3650481
20
-117.262694
11
324.6349519
21
-139.046706
0
LINE
8
0
10
322
20
-143.6106322
11
322
21
-153.4028662
0
LINE
8
0
10
319.3650458
20
-157.9667936
11
279.6350451
21
-180.9054539
0
LINE
8
0
10
274.3649546
20
-180.9054545
11
256.6350448
21
-170.6688534
0
LINE
8
0
10
279.587765
20
-60.3145333
11
228.412235
21
-60.3145333
0
ARC
8
0
10
231.0000007
20
-176.3415265
40
5.27
50
239.999425
51
300.0005622
0
ARC
8
0
10
191.27
20
-153.4028662
40
5.27
50
180
51
239.999425
0
ARC
8
0
10
180.73
20
-143.6106322
40
5.27
50
0
51
59.9993965
0
ARC
8
0
10
148.27
20
-112.6987678
40
5.27
50
180
51
239.9993965
0
ARC
8
0
10
148.27
20
-66.8212354
40
5.27
50
120.0005495
51
180
0
ARC
8
0
10
166.4999972
20
-56.2959073
40
5.27
50
59.9993965
51
120.0005495
0
ARC
8
0
10
188
20
-56.5386243
40
5.27
50
239.9993965
51
300.0006035
0
ARC
8
0
10
209.5000012
20
-56.2959083
40
5.27
50
59.9994171
51
120.0006035
0
ARC
8
0
10
228.412235
20
-55.0445333
40
5.27
50
239.9994171
51
270
0
ARC
8
0
10
279.587765
20
-55.0445333
40
5.27
50
270
51
300.0005829
0
ARC
8
0
10
298.4999988
20
-56.2959083
40
5.27
50
59.9993965
51
120.0005829
0
ARC
8
0
10
320
20
-56.5386243
40
5.27
50
239.9993965
51
300.0006035
0
ARC
8
0
10
341.5000028
20
-56.2959073
40
5.27
50
59.9994505
51
120.0006035
0
ARC
8
0
10
359.73
20
-66.8212354
40
5.27
50
0
51
59.9994505
0
ARC
8
0
10
359.73
20
-112.6987678
40
5.27
50
300.0006035
51
0
0
ARC
8
0
10
327.27
20
-143.6106322
40
5.27
50
120.0006035
51
180
0
ARC
8
0
10
316.73
20
-153.4028662
40
5.27
50
300.000575
51
0
0
ARC
8
0
10
276.9999993
20
-176.3415265
40
5.27
50
239.9994378
51
300.000575
0
ARC
8
0
10
254
20
-175.2327815
40
5.27
50
59.9994378
51
120.0005622
0
CIRCLE
8
0
10
147.6875
20
-85.105
40
1.1
0
CIRCLE
8
0
10
171.875
20
-127
40
1.1
0
CIRCLE
8
0
10
187
20
-65.9333333
40
1.1
0
CIRCLE
8
0
10
206.8125
20
-160.427931
40
1.1
0
CIRCLE
8
0
10
250
20
-139.4133333
40
1.1
0
CIRCLE
8
0
10
239.0625
20
-75.795
40
1.1
0
CIRCLE
8
0
10
360.3125
20
-85.105
40
1.1
0
CIRCLE
8
0
10
336.125
20
-127
40
1.1
0
CIRCLE
8
0
10
321
20
-65.9333333
40
1.1
0
CIRCLE
8
0
10
301.1875
20
-160.427931
40
1.1
0
CIRCLE
8
0
10
258
20
-139.4133333
40
1.1
0
CIRCLE
8
0
10
268.9375
20
-75.795
40
1.1
0
ENDSEC
0
EOF