0
SECTION
2
HEADER
9
$INSUNITS
70
4
0
ENDSEC
0
SECTION
2
TABLES
0
TABLE
2
LTYPE
0
LTYPE
72
65
70
64
2
CONTINUOUS
3
______
73
0
40
0
0
ENDTAB
0
TABLE
2
LAYER
0
ENDTAB
0
ENDSEC
0
SECTION
2
ENTITIES
0
LINE
8
0
10
251.3649552
20
-170.6688534
11
233.6350454
21
-180.9054545
0
LINE
8
0
10
228.3649549
20
-180.9054539
11
188.6349542
21
-157.9667936
0
LINE
8
0
10
186
20
-153.4028662
11
186
21
-143.6106322
0
LINE
8
0
10
183.3650481
20
-139.046706
11
145.6349519
21
-117.262694
0
LINE
8
0
10
143
20
-112.6987678
11
143
21
-66.8212354
0
LINE
8
0
10
145.6349562
20
-62.2573068
11
163.8649534
21
-51.7319787
0
LINE
8
0
10
169.1350453
20
-51.7319812
11
185.3649519
21
-61.1025505
0
LINE
8
0
10
190.6350481
20
-61.1025505
11
206.8649531
21
-51.7319821
0
LINE
8
0
10
212.1350476
20
-51.7319812
11
225.7771885
21
-59.6084604
0
LINE
8
0
10
282.2228115
20
-59.6084604
11
295.8649524
21
-51.7319812
0
LINE
8
0
10
301.1350469
20
-51.7319821
11
317.3649519
21
-61.1025505
0
LINE
8
0
10
322.6350481
20
-61.1025505
11
338.8649547
21
-51.7319812
0
LINE
8
0
10
344.1350466
20
-51.7319787
11
362.3650438
21
-62.2573068
0
LINE
8
0
10
365
20
-66.8212354
11
365
21
-112.6987678
0
LINE
8
0
10
362.3650481
20
-117.262694
11
324.6349519
21
-139.046706
0
LINE
8
0
10
322
20
-143.6106322
11
322
21
-153.4028662
0
LINE
8
0
10
319.3650458
20
-157.9667936
11
279.6350451
21
-180.9054539
0
LINE
8
0
10
274.3649546
20
-180.9054545
11
256.6350448
21
-170.6688534
0
LINE
8
0
10
279.587765
20
-60.3145333
11
263.39
21
-60.3145333
0
LINE
8
0
10
244.61
20
-60.3145333
11
228.412235
21
-60.3145333
0
ARC
8
0
10
231.0000007
20
-176.3415265
40
5.27
50
239.999425
51
300.0005622
0
ARC
8
0
10
191.27
20
-153.4028662
40
5.27
50
180
51
239.999425
0
ARC
8
0
10
180.73
20
-143.6106322
40
5.27
50
0
51
59.9993965
0
ARC
8
0
10
148.27
20
-112.6987678
40
5.27
50
180
51
239.9993965
0
ARC
8
0
10
148.27
20
-66.8212354
40
5.27
50
120.0005495
51
180
0
ARC
8
0
10
166.4999972
20
-56.2959073
40
5.27
50
59.9993965
51
120.0005495
0
ARC
8
0
10
188
20
-56.5386243
40
5.27
50
239.9993965
51
300.0006035
0
ARC
8
0
10
209.5000012
20
-56.2959083
40
5.27
50
59.9994171
51
120.0006035
0
ARC
8
0
10
228.412235
20
-55.0445333
40
5.27
50
239.9994171
51
270
0
ARC
8
0
10
279.587765
20
-55.0445333
40
5.27
50
270
51
300.0005829
0
ARC
8
0
10
298.4999988
20
-56.2959083
40
5.27
50
59.9993965
51
120.0005829
0
ARC
8
0
10
320
20
-56.5386243
40
5.27
50
239.9993965
51
300.0006035
0
ARC
8
0
10
341.5000028
20
-56.2959073
40
5.27
50
59.9994505
51
120.0006035
0
ARC
8
0
10
359.73
20
-66.8212354
40
5.27
50
0
51
59.9994505
0
ARC
8
0
10
359.73
20
-112.6987678
40
5.27
50
300.0006035
51
0
0
ARC
8
0
10
327.27
20
-143.6106322
40
5.27
50
120.0006035
51
180
0
ARC
8
0
10
316.73
20
-153.4028662
40
5.27
50
300.000575
51
0
0
ARC
8
0
10
276.9999993
20
-176.3415265
40
5.27
50
239.9994378
51
300.000575
0
ARC
8
0
10
254
20
-175.2327815
40
5.27
50
59.9994378
51
120.0005622
0
LINE
8
0
10
168.0244247
20
-68.9608349
11
174.5244247
21
-80.2191651
0
LINE
8
0
10
175.0708349
20
-80.3655753
11
186.3291651
21
-73.8655753
0
LINE
8
0
10
186.4755753
20
-73.3191651
11
179.9755753
21
-62.0608349
0
LINE
8
0
10
179.4291651
20
-61.9144247
11
168.1708349
21
-68.4144247
0
ARC
8
0
10
174.8708349
20
-80.0191651
40
0.4
50
210
51
300
0
ARC
8
0
10
186.1291651
20
-73.5191651
40
0.4
50
300
51
30
0
ARC
8
0
10
179.6291651
20
-62.2608349
40
0.4
50
30
51
120
0
ARC
8
0
10
168.3708349
20
-68.7608349
40
0.4
50
120
51
210
0
LINE
8
0
10
189.5244247
20
-68.9608349
11
196.0244247
21
-80.2191651
0
LINE
8
0
10
196.5708349
20
-80.3655753
11
207.8291651
21
-73.8655753
0
LINE
8
0
10
207.9755753
20
-73.3191651
11
201.4755753
21
-62.0608349
0
LINE
8
0
10
200.9291651
20
-61.9144247
11
189.6708349
21
-68.4144247
0
ARC
8
0
10
196.3708349
20
-80.0191651
40
0.4
50
210
51
300
0
ARC
8
0
10
207.6291651
20
-73.5191651
40
0.4
50
300
51
30
0
ARC
8
0
10
201.1291651
20
-62.2608349
40
0.4
50
30
51
120
0
ARC
8
0
10
189.8708349
20
-68.7608349
40
0.4
50
120
51
210
0
LINE
8
0
10
211.0244247
20
-68.9608349
11
217.5244247
21
-80.2191651
0
LINE
8
0
10
218.0708349
20
-80.3655753
11
229.3291651
21
-73.8655753
0
LINE
8
0
10
229.4755753
20
-73.3191651
11
222.9755753
21
-62.0608349
0
LINE
8
0
10
222.4291651
20
-61.9144247
11
211.1708349
21
-68.4144247
0
ARC
8
0
10
217.8708349
20
-80.0191651
40
0.4
50
210
51
300
0
ARC
8
0
10
229.1291651
20
-73.5191651
40
0.4
50
300
51
30
0
ARC
8
0
10
222.6291651
20
-62.2608349
40
0.4
50
30
51
120
0
ARC
8
0
10
211.3708349
20
-68.7608349
40
0.4
50
120
51
210
0
LINE
8
0
10
163.7744247
20
-80.6808349
11
157.2744247
21
-91.9391651
0
LINE
8
0
10
157.4208349
20
-92.4855753
11
168.6791651
21
-98.9855753
0
LINE
8
0
10
169.2255753
20
-98.8391651
11
175.7255753
21
-87.5808349
0
LINE
8
0
10
175.5791651
20
-87.0344247
11
164.3208349
21
-80.5344247
0
ARC
8
0
10
157.6208349
20
-92.1391651
40
0.4
50
150
51
240
0
ARC
8
0
10
168.8791651
20
-98.6391651
40
0.4
50
240
51
330
0
ARC
8
0
10
175.3791651
20
-87.3808349
40
0.4
50
330
51
60
0
ARC
8
0
10
164.1208349
20
-80.8808349
40
0.4
50
60
51
150
0
LINE
8
0
10
185.2744247
20
-80.6808349
11
178.7744247
21
-91.9391651
0
LINE
8
0
10
178.9208349
20
-92.4855753
11
190.1791651
21
-98.9855753
0
LINE
8
0
10
190.7255753
20
-98.8391651
11
197.2255753
21
-87.5808349
0
LINE
8
0
10
197.0791651
20
-87.0344247
11
185.8208349
21
-80.5344247
0
ARC
8
0
10
179.1208349
20
-92.1391651
40
0.4
50
150
51
240
0
ARC
8
0
10
190.3791651
20
-98.6391651
40
0.4
50
240
51
330
0
ARC
8
0
10
196.8791651
20
-87.3808349
40
0.4
50
330
51
60
0
ARC
8
0
10
185.6208349
20
-80.8808349
40
0.4
50
60
51
150
0
LINE
8
0
10
206.7744247
20
-80.6808349
11
200.2744247
21
-91.9391651
0
LINE
8
0
10
200.4208349
20
-92.4855753
11
211.6791651
21
-98.9855753
0
LINE
8
0
10
212.2255753
20
-98.8391651
11
218.7255753
21
-87.5808349
0
LINE
8
0
10
218.5791651
20
-87.0344247
11
207.3208349
21
-80.5344247
0
ARC
8
0
10
200.6208349
20
-92.1391651
40
0.4
50
150
51
240
0
ARC
8
0
10
211.8791651
20
-98.6391651
40
0.4
50
240
51
330
0
ARC
8
0
10
218.3791651
20
-87.3808349
40
0.4
50
330
51
60
0
ARC
8
0
10
207.1208349
20
-80.8808349
40
0.4
50
60
51
150
0
LINE
8
0
10
162.25
20
-101.48
11
149.25
21
-101.48
0
LINE
8
0
10
148.85
20
-101.88
11
148.85
21
-114.88
0
LINE
8
0
10
149.25
20
-115.28
11
162.25
21
-115.28
0
LINE
8
0
10
162.65
20
-114.88
11
162.65
21
-101.88
0
ARC
8
0
10
149.25
20
-101.88
40
0.4
50
90
51
180
0
ARC
8
0
10
149.25
20
-114.88
40
0.4
50
180
51
270
0
ARC
8
0
10
162.25
20
-114.88
40
0.4
50
270
51
0
0
ARC
8
0
10
162.25
20
-101.88
40
0.4
50
0
51
90
0
LINE
8
0
10
183.75
20
-101.48
11
170.75
21
-101.48
0
LINE
8
0
10
170.35
20
-101.88
11
170.35
21
-114.88
0
LINE
8
0
10
170.75
20
-115.28
11
183.75
21
-115.28
0
LINE
8
0
10
184.15
20
-114.88
11
184.15
21
-101.88
0
ARC
8
0
10
170.75
20
-101.88
40
0.4
50
90
51
180
0
ARC
8
0
10
170.75
20
-114.88
40
0.4
50
180
51
270
0
ARC
8
0
10
183.75
20
-114.88
40
0.4
50
270
51
0
0
ARC
8
0
10
183.75
20
-101.88
40
0.4
50
0
51
90
0
LINE
8
0
10
205.25
20
-101.48
11
192.25
21
-101.48
0
LINE
8
0
10
191.85
20
-101.88
11
191.85
21
-114.88
0
LINE
8
0
10
192.25
20
-115.28
11
205.25
21
-115.28
0
LINE
8
0
10
205.65
20
-114.88
11
205.65
21
-101.88
0
ARC
8
0
10
192.25
20
-101.88
40
0.4
50
90
51
180
0
ARC
8
0
10
192.25
20
-114.88
40
0.4
50
180
51
270
0
ARC
8
0
10
205.25
20
-114.88
40
0.4
50
270
51
0
0
ARC
8
0
10
205.25
20
-101.88
40
0.4
50
0
51
90
0
LINE
8
0
10
149.25
20
-78.04
11
162.25
21
-78.04
0
LINE
8
0
10
162.65
20
-77.64
11
162.65
21
-64.64
0
LINE
8
0
10
162.25
20
-64.24
11
149.25
21
-64.24
0
LINE
8
0
10
148.85
20
-64.64
11
148.85
21
-77.64
0
ARC
8
0
10
162.25
20
-77.64
40
0.4
50
270
51
0
0
ARC
8
0
10
162.25
20
-64.64
40
0.4
50
0
51
90
0
ARC
8
0
10
149.25
20
-64.64
40
0.4
50
90
51
180
0
ARC
8
0
10
149.25
20
-77.64
40
0.4
50
180
51
270
0
LINE
8
0
10
194.5
20
-120.1
11
181.5
21
-120.1
0
LINE
8
0
10
181.1
20
-120.5
11
181.1
21
-133.5
0
LINE
8
0
10
181.5
20
-133.9
11
194.5
21
-133.9
0
LINE
8
0
10
194.9
20
-133.5
11
194.9
21
-120.5
0
ARC
8
0
10
181.5
20
-120.5
40
0.4
50
90
51
180
0
ARC
8
0
10
181.5
20
-133.5
40
0.4
50
180
51
270
0
ARC
8
0
10
194.5
20
-133.5
40
0.4
50
270
51
0
0
ARC
8
0
10
194.5
20
-120.5
40
0.4
50
0
51
90
0
LINE
8
0
10
224.5
20
-174.6041
11
237.5
21
-174.6041
0
LINE
8
0
10
237.9
20
-174.2041
11
237.9
21
-161.2041
0
LINE
8
0
10
237.5
20
-160.8041
11
224.5
21
-160.8041
0
LINE
8
0
10
224.1
20
-161.2041
11
224.1
21
-174.2041
0
ARC
8
0
10
237.5
20
-174.2041
40
0.4
50
270
51
0
0
ARC
8
0
10
237.5
20
-161.2041
40
0.4
50
0
51
90
0
ARC
8
0
10
224.5
20
-161.2041
40
0.4
50
90
51
180
0
ARC
8
0
10
224.5
20
-174.2041
40
0.4
50
180
51
270
0
LINE
8
0
10
333.4755753
20
-80.2191651
11
339.9755753
21
-68.9608349
0
LINE
8
0
10
339.8291651
20
-68.4144247
11
328.5708349
21
-61.9144247
0
LINE
8
0
10
328.0244247
20
-62.0608349
11
321.5244247
21
-73.3191651
0
LINE
8
0
10
321.6708349
20
-73.8655753
11
332.9291651
21
-80.3655753
0
ARC
8
0
10
339.6291651
20
-68.7608349
40
0.4
50
330
51
60
0
ARC
8
0
10
328.3708349
20
-62.2608349
40
0.4
50
60
51
150
0
ARC
8
0
10
321.8708349
20
-73.5191651
40
0.4
50
150
51
240
0
ARC
8
0
10
333.1291651
20
-80.0191651
40
0.4
50
240
51
330
0
LINE
8
0
10
311.9755753
20
-80.2191651
11
318.4755753
21
-68.9608349
0
LINE
8
0
10
318.3291651
20
-68.4144247
11
307.0708349
21
-61.9144247
0
LINE
8
0
10
306.5244247
20
-62.0608349
11
300.0244247
21
-73.3191651
0
LINE
8
0
10
300.1708349
20
-73.8655753
11
311.4291651
21
-80.3655753
0
ARC
8
0
10
318.1291651
20
-68.7608349
40
0.4
50
330
51
60
0
ARC
8
0
10
306.8708349
20
-62.2608349
40
0.4
50
60
51
150
0
ARC
8
0
10
300.3708349
20
-73.5191651
40
0.4
50
150
51
240
0
ARC
8
0
10
311.6291651
20
-80.0191651
40
0.4
50
240
51
330
0
LINE
8
0
10
290.4755753
20
-80.2191651
11
296.9755753
21
-68.9608349
0
LINE
8
0
10
296.8291651
20
-68.4144247
11
285.5708349
21
-61.9144247
0
LINE
8
0
10
285.0244247
20
-62.0608349
11
278.5244247
21
-73.3191651
0
LINE
8
0
10
278.6708349
20
-73.8655753
11
289.9291651
21
-80.3655753
0
ARC
8
0
10
296.6291651
20
-68.7608349
40
0.4
50
330
51
60
0
ARC
8
0
10
285.3708349
20
-62.2608349
40
0.4
50
60
51
150
0
ARC
8
0
10
278.8708349
20
-73.5191651
40
0.4
50
150
51
240
0
ARC
8
0
10
290.1291651
20
-80.0191651
40
0.4
50
240
51
330
0
LINE
8
0
10
350.7255753
20
-91.9391651
11
344.2255753
21
-80.6808349
0
LINE
8
0
10
343.6791651
20
-80.5344247
11
332.4208349
21
-87.0344247
0
LINE
8
0
10
332.2744247
20
-87.5808349
11
338.7744247
21
-98.8391651
0
LINE
8
0
10
339.3208349
20
-98.9855753
11
350.5791651
21
-92.4855753
0
ARC
8
0
10
343.8791651
20
-80.8808349
40
0.4
50
30
51
120
0
ARC
8
0
10
332.6208349
20
-87.3808349
40
0.4
50
120
51
210
0
ARC
8
0
10
339.1208349
20
-98.6391651
40
0.4
50
210
51
300
0
ARC
8
0
10
350.3791651
20
-92.1391651
40
0.4
50
300
51
30
0
LINE
8
0
10
329.2255753
20
-91.9391651
11
322.7255753
21
-80.6808349
0
LINE
8
0
10
322.1791651
20
-80.5344247
11
310.9208349
21
-87.0344247
0
LINE
8
0
10
310.7744247
20
-87.5808349
11
317.2744247
21
-98.8391651
0
LINE
8
0
10
317.8208349
20
-98.9855753
11
329.0791651
21
-92.4855753
0
ARC
8
0
10
322.3791651
20
-80.8808349
40
0.4
50
30
51
120
0
ARC
8
0
10
311.1208349
20
-87.3808349
40
0.4
50
120
51
210
0
ARC
8
0
10
317.6208349
20
-98.6391651
40
0.4
50
210
51
300
0
ARC
8
0
10
328.8791651
20
-92.1391651
40
0.4
50
300
51
30
0
LINE
8
0
10
307.7255753
20
-91.9391651
11
301.2255753
21
-80.6808349
0
LINE
8
0
10
300.6791651
20
-80.5344247
11
289.4208349
21
-87.0344247
0
LINE
8
0
10
289.2744247
20
-87.5808349
11
295.7744247
21
-98.8391651
0
LINE
8
0
10
296.3208349
20
-98.9855753
11
307.5791651
21
-92.4855753
0
ARC
8
0
10
300.8791651
20
-80.8808349
40
0.4
50
30
51
120
0
ARC
8
0
10
289.6208349
20
-87.3808349
40
0.4
50
120
51
210
0
ARC
8
0
10
296.1208349
20
-98.6391651
40
0.4
50
210
51
300
0
ARC
8
0
10
307.3791651
20
-92.1391651
40
0.4
50
300
51
30
0
LINE
8
0
10
358.75
20
-101.48
11
345.75
21
-101.48
0
LINE
8
0
10
345.35
20
-101.88
11
345.35
21
-114.88
0
LINE
8
0
10
345.75
20
-115.28
11
358.75
21
-115.28
0
LINE
8
0
10
359.15
20
-114.88
11
359.15
21
-101.88
0
ARC
8
0
10
345.75
20
-101.88
40
0.4
50
90
51
180
0
ARC
8
0
10
345.75
20
-114.88
40
0.4
50
180
51
270
0
ARC
8
0
10
358.75
20
-114.88
40
0.4
50
270
51
0
0
ARC
8
0
10
358.75
20
-101.88
40
0.4
50
0
51
90
0
LINE
8
0
10
337.25
20
-101.48
11
324.25
21
-101.48
0
LINE
8
0
10
323.85
20
-101.88
11
323.85
21
-114.88
0
LINE
8
0
10
324.25
20
-115.28
11
337.25
21
-115.28
0
LINE
8
0
10
337.65
20
-114.88
11
337.65
21
-101.88
0
ARC
8
0
10
324.25
20
-101.88
40
0.4
50
90
51
180
0
ARC
8
0
10
324.25
20
-114.88
40
0.4
50
180
51
270
0
ARC
8
0
10
337.25
20
-114.88
40
0.4
50
270
51
0
0
ARC
8
0
10
337.25
20
-101.88
40
0.4
50
0
51
90
0
LINE
8
0
10
315.75
20
-101.48
11
302.75
21
-101.48
0
LINE
8
0
10
302.35
20
-101.88
11
302.35
21
-114.88
0
LINE
8
0
10
302.75
20
-115.28
11
315.75
21
-115.28
0
LINE
8
0
10
316.15
20
-114.88
11
316.15
21
-101.88
0
ARC
8
0
10
302.75
20
-101.88
40
0.4
50
90
51
180
0
ARC
8
0
10
302.75
20
-114.88
40
0.4
50
180
51
270
0
ARC
8
0
10
315.75
20
-114.88
40
0.4
50
270
51
0
0
ARC
8
0
10
315.75
20
-101.88
40
0.4
50
0
51
90
0
LINE
8
0
10
345.75
20
-78.04
11
358.75
21
-78.04
0
LINE
8
0
10
359.15
20
-77.64
11
359.15
21
-64.64
0
LINE
8
0
10
358.75
20
-64.24
11
345.75
21
-64.24
0
LINE
8
0
10
345.35
20
-64.64
11
345.35
21
-77.64
0
ARC
8
0
10
358.75
20
-77.64
40
0.4
50
270
51
0
0
ARC
8
0
10
358.75
20
-64.64
40
0.4
50
0
51
90
0
ARC
8
0
10
345.75
20
-64.64
40
0.4
50
90
51
180
0
ARC
8
0
10
345.75
20
-77.64
40
0.4
50
180
51
270
0
LINE
8
0
10
326.5
20
-120.1
11
313.5
21
-120.1
0
LINE
8
0
10
313.1
20
-120.5
11
313.1
21
-133.5
0
LINE
8
0
10
313.5
20
-133.9
11
326.5
21
-133.9
0
LINE
8
0
10
326.9
20
-133.5
11
326.9
21
-120.5
0
ARC
8
0
10
313.5
20
-120.5
40
0.4
50
90
51
180
0
ARC
8
0
10
313.5
20
-133.5
40
0.4
50
180
51
270
0
ARC
8
0
10
326.5
20
-133.5
40
0.4
50
270
51
0
0
ARC
8
0
10
326.5
20
-120.5
40
0.4
50
0
51
90
0
LINE
8
0
10
270.5
20
-174.6041
11
283.5
21
-174.6041
0
LINE
8
0
10
283.9
20
-174.2041
11
283.9
21
-161.2041
0
LINE
8
0
10
283.5
20
-160.8041
11
270.5
21
-160.8041
0
LINE
8
0
10
270.1
20
-161.2041
11
270.1
21
-174.2041
0
ARC
8
0
10
283.5
20
-174.2041
40
0.4
50
270
51
0
0
ARC
8
0
10
283.5
20
-161.2041
40
0.4
50
0
51
90
0
ARC
8
0
10
270.5
20
-161.2041
40
0.4
50
90
51
180
0
ARC
8
0
10
270.5
20
-174.2041
40
0.4
50
180
51
270
0
LINE
8
0
10
245.11
20
-93.8345333
11
262.89
21
-93.8345333
0
LINE
8
0
10
263.39
20
-93.3345333
11
263.39
21
-60.3145333
0
LINE
8
0
10
244.61
20
-60.3145333
11
244.61
21
-93.3345333
0
ARC
8
0
10
262.89
20
-93.3345333
40
0.5
50
270
51
0
0
ARC
8
0
10
245.11
20
-93.3345333
40
0.5
50
180
51
270
0
CIRCLE
8
0
10
231
20
-89.76
40
7.6
0
CIRCLE
8
0
10
220.25
20
-108.38
40
7.6
0
CIRCLE
8
0
10
209.5
20
-127
40
7.6
0
CIRCLE
8
0
10
241.75
20
-149.0841
40
7.6
0
CIRCLE
8
0
10
198.75
20
-149.0841
40
7.6
0
CIRCLE
8
0
10
220.25
20
-149.0841
40
7.6
0
CIRCLE
8
0
10
277
20
-89.76
40
7.6
0
CIRCLE
8
0
10
287.75
20
-108.38
40
7.6
0
CIRCLE
8
0
10
298.5
20
-127
40
7.6
0
CIRCLE
8
0
10
266.25
20
-149.0841
40
7.6
0
CIRCLE
8
0
10
309.25
20
-149.0841
40
7.6
0
CIRCLE
8
0
10
287.75
20
-149.0841
40
7.6
0
LINE
8
0
10
261.6895354
20
-134.7828322
11
246.3104646
21
-134.7828322
0
LINE
8
0
10
241.25
20
-126.7499012
11
241.25
21
-120.4492179
0
LINE
8
0
10
242.25
20
-119.4492179
11
265.75
21
-119.4492179
0
LINE
8
0
10
266.75
20
-120.4492179
11
266.75
21
-126.7499012
0
LINE
8
0
10
245.4444392
20
-134.2828322
11
241.3839746
21
-127.2499012
0
LINE
8
0
10
266.6160254
20
-127.2499012
11
262.5555608
21
-134.2828322
0
ARC
8
0
10
246.3104646
20
-133.7828322
40
1
50
210.0000001
51
270
0
ARC
8
0
10
242.25
20
-126.7499012
40
1
50
180
51
210.0000001
0
ARC
8
0
10
242.25
20
-120.4492179
40
1
50
90
51
180
0
ARC
8
0
10
265.75
20
-120.4492179
40
1
50
0
51
90
0
ARC
8
0
10
265.75
20
-126.7499012
40
1
50
329.9999999
51
0
0
ARC
8
0
10
261.6895354
20
-133.7828322
40
1
50
270
51
329.9999999
0
LINE
8
0
10
147.1867075
20
-87.2452558
11
146.0867075
21
-86.6088272
0
LINE
8
0
10
145.5875
20
-85.7432599
11
145.5875
21
-84.4667401
0
LINE
8
0
10
146.0867075
20
-83.6011728
11
147.1867075
21
-82.9647442
0
LINE
8
0
10
148.1882925
20
-82.9647442
11
149.2882925
21
-83.6011728
0
LINE
8
0
10
149.7875
20
-84.4667401
11
149.7875
21
-85.7432599
0
LINE
8
0
10
149.2882925
20
-86.6088272
11
148.1882925
21
-87.2452558
0
ARC
8
0
10
146.5875
20
-85.7432599
40
1
50
180
51
239.9475527
0
ARC
8
0
10
146.5875
20
-84.4667401
40
1
50
120.0524473
51
180
0
ARC
8
0
10
147.6875
20
-83.8303115
40
1
50
59.9475527
51
120.0524473
0
ARC
8
0
10
148.7875
20
-84.4667401
40
1
50
0
51
59.9475527
0
ARC
8
0
10
148.7875
20
-85.7432599
40
1
50
300.0524473
51
0
0
ARC
8
0
10
147.6875
20
-86.3796885
40
1
50
239.9475527
51
300.0524473
0
LINE
8
0
10
171.3742075
20
-129.1402558
11
170.2742075
21
-128.5038272
0
LINE
8
0
10
169.775
20
-127.6382599
11
169.775
21
-126.3617401
0
LINE
8
0
10
170.2742075
20
-125.4961728
11
171.3742075
21
-124.8597442
0
LINE
8
0
10
172.3757925
20
-124.8597442
11
173.4757925
21
-125.4961728
0
LINE
8
0
10
173.975
20
-126.3617401
11
173.975
21
-127.6382599
0
LINE
8
0
10
173.4757925
20
-128.5038272
11
172.3757925
21
-129.1402558
0
ARC
8
0
10
170.775
20
-127.6382599
40
1
50
180
51
239.9475527
0
ARC
8
0
10
170.775
20
-126.3617401
40
1
50
120.0524473
51
180
0
ARC
8
0
10
171.875
20
-125.7253115
40
1
50
59.9475527
51
120.0524473
0
ARC
8
0
10
172.975
20
-126.3617401
40
1
50
0
51
59.9475527
0
ARC
8
0
10
172.975
20
-127.6382599
40
1
50
300.0524473
51
0
0
ARC
8
0
10
171.875
20
-128.2746885
40
1
50
239.9475527
51
300.0524473
0
LINE
8
0
10
186.4992075
20
-68.0735891
11
185.3992075
21
-67.4371605
0
LINE
8
0
10
184.9
20
-66.5715932
11
184.9
21
-65.2950734
0
LINE
8
0
10
185.3992075
20
-64.4295061
11
186.4992075
21
-63.7930775
0
LINE
8
0
10
187.5007925
20
-63.7930775
11
188.6007925
21
-64.4295061
0
LINE
8
0
10
189.1
20
-65.2950734
11
189.1
21
-66.5715932
0
LINE
8
0
10
188.6007925
20
-67.4371605
11
187.5007925
21
-68.0735891
0
ARC
8
0
10
185.9
20
-66.5715932
40
1
50
180
51
239.9475527
0
ARC
8
0
10
185.9
20
-65.2950734
40
1
50
120.0524473
51
180
0
ARC
8
0
10
187
20
-64.6586448
40
1
50
59.9475527
51
120.0524473
0
ARC
8
0
10
188.1
20
-65.2950734
40
1
50
0
51
59.9475527
0
ARC
8
0
10
188.1
20
-66.5715932
40
1
50
300.0524473
51
0
0
ARC
8
0
10
187
20
-67.2080218
40
1
50
239.9475527
51
300.0524473
0
LINE
8
0
10
359.8117075
20
-87.2452558
11
358.7117075
21
-86.6088272
0
LINE
8
0
10
358.2125
20
-85.7432599
11
358.2125
21
-84.4667401
0
LINE
8
0
10
358.7117075
20
-83.6011728
11
359.8117075
21
-82.9647442
0
LINE
8
0
10
360.8132925
20
-82.9647442
11
361.9132925
21
-83.6011728
0
LINE
8
0
10
362.4125
20
-84.4667401
11
362.4125
21
-85.7432599
0
LINE
8
0
10
361.9132925
20
-86.6088272
11
360.8132925
21
-87.2452558
0
ARC
8
0
10
359.2125
20
-85.7432599
40
1
50
180
51
239.9475527
0
ARC
8
0
10
359.2125
20
-84.4667401
40
1
50
120.0524473
51
180
0
ARC
8
0
10
360.3125
20
-83.8303115
40
1
50
59.9475527
51
120.0524473
0
ARC
8
0
10
361.4125
20
-84.4667401
40
1
50
0
51
59.9475527
0
ARC
8
0
10
361.4125
20
-85.7432599
40
1
50
300.0524473
51
0
0
ARC
8
0
10
360.3125
20
-86.3796885
40
1
50
239.9475527
51
300.0524473
0
LINE
8
0
10
335.6242075
20
-129.1402558
11
334.5242075
21
-128.5038272
0
LINE
8
0
10
334.025
20
-127.6382599
11
334.025
21
-126.3617401
0
LINE
8
0
10
334.5242075
20
-125.4961728
11
335.6242075
21
-124.8597442
0
LINE
8
0
10
336.6257925
20
-124.8597442
11
337.7257925
21
-125.4961728
0
LINE
8
0
10
338.225
20
-126.3617401
11
338.225
21
-127.6382599
0
LINE
8
0
10
337.7257925
20
-128.5038272
11
336.6257925
21
-129.1402558
0
ARC
8
0
10
335.025
20
-127.6382599
40
1
50
180
51
239.9475527
0
ARC
8
0
10
335.025
20
-126.3617401
40
1
50
120.0524473
51
180
0
ARC
8
0
10
336.125
20
-125.7253115
40
1
50
59.9475527
51
120.0524473
0
ARC
8
0
10
337.225
20
-126.3617401
40
1
50
0
51
59.9475527
0
ARC
8
0
10
337.225
20
-127.6382599
40
1
50
300.0524473
51
0
0
ARC
8
0
10
336.125
20
-128.2746885
40
1
50
239.9475527
51
300.0524473
0
LINE
8
0
10
320.4992075
20
-68.0735891
11
319.3992075
21
-67.4371605
0
LINE
8
0
10
318.9
20
-66.5715932
11
318.9
21
-65.2950734
0
LINE
8
0
10
319.3992075
20
-64.4295061
11
320.4992075
21
-63.7930775
0
LINE
8
0
10
321.5007925
20
-63.7930775
11
322.6007925
21
-64.4295061
0
LINE
8
0
10
323.1
20
-65.2950734
11
323.1
21
-66.5715932
0
LINE
8
0
10
322.6007925
20
-67.4371605
11
321.5007925
21
-68.0735891
0
ARC
8
0
10
319.9
20
-66.5715932
40
1
50
180
51
239.9475527
0
ARC
8
0
10
319.9
20
-65.2950734
40
1
50
120.0524473
51
180
0
ARC
8
0
10
321
20
-64.6586448
40
1
50
59.9475527
51
120.0524473
0
ARC
8
0
10
322.1
20
-65.2950734
40
1
50
0
51
59.9475527
0
ARC
8
0
10
322.1
20
-66.5715932
40
1
50
300.0524473
51
0
0
ARC
8
0
10
321
20
-67.2080218
40
1
50
239.9475527
51
300.0524473
0
CIRCLE
8
0
10
206.8125
20
-160.427931
40
1.6
0
CIRCLE
8
0
10
250
20
-139.4133333
40
1.6
0
CIRCLE
8
0
10
239.0625
20
-75.795
40
1.6
0
CIRCLE
8
0
10
301.1875
20
-160.427931
40
1.6
0
CIRCLE
8
0
10
258
20
-139.4133333
40
1.6
0
CIRCLE
8
0
10
268.9375
20
-75.795
40
1.6
0
ENDSEC
0
EOF