0
SECTION
2
HEADER
9
$INSUNITS
70
4
0
ENDSEC
0
SECTION
2
TABLES
0
TABLE
2
LTYPE
0
LTYPE
72
65
70
64
2
CONTINUOUS
3
______
73
0
40
0
0
ENDTAB
0
TABLE
2
LAYER
0
ENDTAB
0
ENDSEC
0
SECTION
2
ENTITIES
0
LINE
8
0
10
120.4582534
20
-120.8417115
11
130.6948545
21
-138.5716213
0
LINE
8
0
10
130.6948539
20
-143.8417118
11
107.7561936
21
-183.5717125
0
LINE
8
0
10
103.1922662
20
-186.2066667
11
93.4000322
21
-186.2066667
0
LINE
8
0
10
88.836106
20
-188.8416186
11
67.052094
21
-226.5717148
0
LINE
8
0
10
62.4881678
20
-229.2066667
11
16.6106354
21
-229.2066667
0
LINE
8
0
10
12.0467068
20
-226.5717105
11
1.5213787
21
-208.3417133
0
LINE
8
0
10
1.5213812
20
-203.0716214
11
10.8919505
21
-186.8417148
0
LINE
8
0
10
10.8919505
20
-181.5716186
11
1.5213821
21
-165.3417136
0
LINE
8
0
10
1.5213812
20
-160.0716191
11
9.3978604
21
-146.4294782
0
LINE
8
0
10
9.3978604
20
-89.9838552
11
1.5213812
21
-76.3417143
0
LINE
8
0
10
1.5213821
20
-71.0716198
11
10.8919505
21
-54.8417148
0
LINE
8
0
10
10.8919505
20
-49.5716186
11
1.5213812
21
-33.341712
0
LINE
8
0
10
1.5213787
20
-28.0716201
11
12.0467068
21
-9.8416229
0
LINE
8
0
10
16.6106354
20
-7.2066667
11
62.4881678
21
-7.2066667
0
LINE
8
0
10
67.052094
20
-9.8416186
11
88.836106
21
-47.5717148
0
LINE
8
0
10
93.4000322
20
-50.2066667
11
103.1922662
21
-50.2066667
0
LINE
8
0
10
107.7561936
20
-52.8416209
11
130.6948539
21
-92.5716216
0
LINE
8
0
10
130.6948545
20
-97.8417121
11
120.4582534
21
-115.5716219
0
LINE
8
0
10
10.1039333
20
-92.6189017
11
10.1039333
21
-143.7944317
0
ARC
8
0
10
126.1309265
20
-141.206666
40
5.27
50
329.999425
51
30.0005622
0
ARC
8
0
10
103.1922662
20
-180.9366667
40
5.27
50
270
51
329.999425
0
ARC
8
0
10
93.4000322
20
-191.4766667
40
5.27
50
90
51
149.9993965
0
ARC
8
0
10
62.4881678
20
-223.9366667
40
5.27
50
270
51
329.9993965
0
ARC
8
0
10
16.6106354
20
-223.9366667
40
5.27
50
210.0005495
51
270
0
ARC
8
0
10
6.0853073
20
-205.7066695
40
5.27
50
149.9993965
51
210.0005495
0
ARC
8
0
10
6.3280243
20
-184.2066667
40
5.27
50
329.9993965
51
30.0006035
0
ARC
8
0
10
6.0853083
20
-162.7066655
40
5.27
50
149.9994171
51
210.0006035
0
ARC
8
0
10
4.8339333
20
-143.7944317
40
5.27
50
329.9994171
51
0
0
ARC
8
0
10
4.8339333
20
-92.6189017
40
5.27
50
0
51
30.0005829
0
ARC
8
0
10
6.0853083
20
-73.7066679
40
5.27
50
149.9993965
51
210.0005829
0
ARC
8
0
10
6.3280243
20
-52.2066667
40
5.27
50
329.9993965
51
30.0006035
0
ARC
8
0
10
6.0853073
20
-30.7066639
40
5.27
50
149.9994505
51
210.0006035
0
ARC
8
0
10
16.6106354
20
-12.4766667
40
5.27
50
90
51
149.9994505
0
ARC
8
0
10
62.4881678
20
-12.4766667
40
5.27
50
30.0006035
51
90
0
ARC
8
0
10
93.4000322
20
-44.9366667
40
5.27
50
210.0006035
51
270
0
ARC
8
0
10
103.1922662
20
-55.4766667
40
5.27
50
30.000575
51
90
0
ARC
8
0
10
126.1309265
20
-95.2066674
40
5.27
50
329.9994378
51
30.000575
0
ARC
8
0
10
125.0221815
20
-118.2066667
40
5.27
50
149.9994378
51
210.0005622
0
CIRCLE
8
0
10
34.8944
20
-224.5191667
40
1.1
0
CIRCLE
8
0
10
76.7894
20
-200.3316667
40
1.1
0
CIRCLE
8
0
10
15.7227333
20
-185.2066667
40
1.1
0
CIRCLE
8
0
10
110.217331
20
-165.3941667
40
1.1
0
CIRCLE
8
0
10
89.2027333
20
-122.2066667
40
1.1
0
CIRCLE
8
0
10
25.5844
20
-133.1441667
40
1.1
0
CIRCLE
8
0
10
34.8944
20
-11.8941667
40
1.1
0
CIRCLE
8
0
10
76.7894
20
-36.0816667
40
1.1
0
CIRCLE
8
0
10
15.7227333
20
-51.2066667
40
1.1
0
CIRCLE
8
0
10
110.217331
20
-71.0191667
40
1.1
0
CIRCLE
8
0
10
89.2027333
20
-114.2066667
40
1.1
0
CIRCLE
8
0
10
25.5844
20
-103.2691667
40
1.1
0
LINE
8
0
10
224.9611885
20
-120.4582534
11
207.2312787
21
-130.6948545
0
LINE
8
0
10
201.9611882
20
-130.6948539
11
162.2311875
21
-107.7561936
0
LINE
8
0
10
159.5962333
20
-103.1922662
11
159.5962333
21
-93.4000322
0
LINE
8
0
10
156.9612814
20
-88.836106
11
119.2311852
21
-67.052094
0
LINE
8
0
10
116.5962333
20
-62.4881678
11
116.5962333
21
-16.6106354
0
LINE
8
0
10
119.2311895
20
-12.0467068
11
137.4611867
21
-1.5213787
0
LINE
8
0
10
142.7312786
20
-1.5213812
11
158.9611852
21
-10.8919505
0
LINE
8
0
10
164.2312814
20
-10.8919505
11
180.4611864
21
-1.5213821
0
LINE
8
0
10
185.7312809
20
-1.5213812
11
199.3734218
21
-9.3978604
0
LINE
8
0
10
255.8190448
20
-9.3978604
11
269.4611857
21
-1.5213812
0
LINE
8
0
10
274.7312802
20
-1.5213821
11
290.9611852
21
-10.8919505
0
LINE
8
0
10
296.2312814
20
-10.8919505
11
312.461188
21
-1.5213812
0
LINE
8
0
10
317.7312799
20
-1.5213787
11
335.9612771
21
-12.0467068
0
LINE
8
0
10
338.5962333
20
-16.6106354
11
338.5962333
21
-62.4881678
0
LINE
8
0
10
335.9612814
20
-67.052094
11
298.2311852
21
-88.836106
0
LINE
8
0
10
295.5962333
20
-93.4000322
11
295.5962333
21
-103.1922662
0
LINE
8
0
10
292.9612791
20
-107.7561936
11
253.2312784
21
-130.6948539
0
LINE
8
0
10
247.9611879
20
-130.6948545
11
230.2312781
21
-120.4582534
0
LINE
8
0
10
253.1839983
20
-10.1039333
11
236.9862333
21
-10.1039333
0
LINE
8
0
10
218.2062333
20
-10.1039333
11
202.0084683
21
-10.1039333
0
ARC
8
0
10
204.596234
20
-126.1309265
40
5.27
50
239.999425
51
300.0005622
0
ARC
8
0
10
164.8662333
20
-103.1922662
40
5.27
50
180
51
239.999425
0
ARC
8
0
10
154.3262333
20
-93.4000322
40
5.27
50
0
51
59.9993965
0
ARC
8
0
10
121.8662333
20
-62.4881678
40
5.27
50
180
51
239.9993965
0
ARC
8
0
10
121.8662333
20
-16.6106354
40
5.27
50
120.0005495
51
180
0
ARC
8
0
10
140.0962305
20
-6.0853073
40
5.27
50
59.9993965
51
120.0005495
0
ARC
8
0
10
161.5962333
20
-6.3280243
40
5.27
50
239.9993965
51
300.0006035
0
ARC
8
0
10
183.0962345
20
-6.0853083
40
5.27
50
59.9994171
51
120.0006035
0
ARC
8
0
10
202.0084683
20
-4.8339333
40
5.27
50
239.9994171
51
270
0
ARC
8
0
10
253.1839983
20
-4.8339333
40
5.27
50
270
51
300.0005829
0
ARC
8
0
10
272.0962321
20
-6.0853083
40
5.27
50
59.9993965
51
120.0005829
0
ARC
8
0
10
293.5962333
20
-6.3280243
40
5.27
50
239.9993965
51
300.0006035
0
ARC
8
0
10
315.0962361
20
-6.0853073
40
5.27
50
59.9994505
51
120.0006035
0
ARC
8
0
10
333.3262333
20
-16.6106354
40
5.27
50
0
51
59.9994505
0
ARC
8
0
10
333.3262333
20
-62.4881678
40
5.27
50
300.0006035
51
0
0
ARC
8
0
10
300.8662333
20
-93.4000322
40
5.27
50
120.0006035
51
180
0
ARC
8
0
10
290.3262333
20
-103.1922662
40
5.27
50
300.000575
51
0
0
ARC
8
0
10
250.5962326
20
-126.1309265
40
5.27
50
239.9994378
51
300.000575
0
ARC
8
0
10
227.5962333
20
-125.0221815
40
5.27
50
59.9994378
51
120.0005622
0
LINE
8
0
10
141.720658
20
-18.92344
11
148.020658
21
-29.83536
0
LINE
8
0
10
148.8402733
20
-30.0549753
11
159.7521933
21
-23.7549753
0
LINE
8
0
10
159.9718086
20
-22.93536
11
153.6718086
21
-12.02344
0
LINE
8
0
10
152.8521933
20
-11.8038247
11
141.9402733
21
-18.1038247
0
ARC
8
0
10
148.5402733
20
-29.53536
40
0.6
50
210
51
300
0
ARC
8
0
10
159.4521933
20
-23.23536
40
0.6
50
300
51
30
0
ARC
8
0
10
153.1521933
20
-12.32344
40
0.6
50
30
51
120
0
ARC
8
0
10
142.2402733
20
-18.62344
40
0.6
50
120
51
210
0
LINE
8
0
10
163.220658
20
-18.92344
11
169.520658
21
-29.83536
0
LINE
8
0
10
170.3402733
20
-30.0549753
11
181.2521933
21
-23.7549753
0
LINE
8
0
10
181.4718086
20
-22.93536
11
175.1718086
21
-12.02344
0
LINE
8
0
10
174.3521933
20
-11.8038247
11
163.4402733
21
-18.1038247
0
ARC
8
0
10
170.0402733
20
-29.53536
40
0.6
50
210
51
300
0
ARC
8
0
10
180.9521933
20
-23.23536
40
0.6
50
300
51
30
0
ARC
8
0
10
174.6521933
20
-12.32344
40
0.6
50
30
51
120
0
ARC
8
0
10
163.7402733
20
-18.62344
40
0.6
50
120
51
210
0
LINE
8
0
10
184.720658
20
-18.92344
11
191.020658
21
-29.83536
0
LINE
8
0
10
191.8402733
20
-30.0549753
11
202.7521933
21
-23.7549753
0
LINE
8
0
10
202.9718086
20
-22.93536
11
196.6718086
21
-12.02344
0
LINE
8
0
10
195.8521933
20
-11.8038247
11
184.9402733
21
-18.1038247
0
ARC
8
0
10
191.5402733
20
-29.53536
40
0.6
50
210
51
300
0
ARC
8
0
10
202.4521933
20
-23.23536
40
0.6
50
300
51
30
0
ARC
8
0
10
196.1521933
20
-12.32344
40
0.6
50
30
51
120
0
ARC
8
0
10
185.2402733
20
-18.62344
40
0.6
50
120
51
210
0
LINE
8
0
10
137.270658
20
-30.64344
11
130.970658
21
-41.55536
0
LINE
8
0
10
131.1902733
20
-42.3749753
11
142.1021933
21
-48.6749753
0
LINE
8
0
10
142.9218086
20
-48.45536
11
149.2218086
21
-37.54344
0
LINE
8
0
10
149.0021933
20
-36.7238247
11
138.0902733
21
-30.4238247
0
ARC
8
0
10
131.4902733
20
-41.85536
40
0.6
50
150
51
240
0
ARC
8
0
10
142.4021933
20
-48.15536
40
0.6
50
240
51
330
0
ARC
8
0
10
148.7021933
20
-37.24344
40
0.6
50
330
51
60
0
ARC
8
0
10
137.7902733
20
-30.94344
40
0.6
50
60
51
150
0
LINE
8
0
10
158.770658
20
-30.64344
11
152.470658
21
-41.55536
0
LINE
8
0
10
152.6902733
20
-42.3749753
11
163.6021933
21
-48.6749753
0
LINE
8
0
10
164.4218086
20
-48.45536
11
170.7218086
21
-37.54344
0
LINE
8
0
10
170.5021933
20
-36.7238247
11
159.5902733
21
-30.4238247
0
ARC
8
0
10
152.9902733
20
-41.85536
40
0.6
50
150
51
240
0
ARC
8
0
10
163.9021933
20
-48.15536
40
0.6
50
240
51
330
0
ARC
8
0
10
170.2021933
20
-37.24344
40
0.6
50
330
51
60
0
ARC
8
0
10
159.2902733
20
-30.94344
40
0.6
50
60
51
150
0
LINE
8
0
10
180.270658
20
-30.64344
11
173.970658
21
-41.55536
0
LINE
8
0
10
174.1902733
20
-42.3749753
11
185.1021933
21
-48.6749753
0
LINE
8
0
10
185.9218086
20
-48.45536
11
192.2218086
21
-37.54344
0
LINE
8
0
10
192.0021933
20
-36.7238247
11
181.0902733
21
-30.4238247
0
ARC
8
0
10
174.4902733
20
-41.85536
40
0.6
50
150
51
240
0
ARC
8
0
10
185.4021933
20
-48.15536
40
0.6
50
240
51
330
0
ARC
8
0
10
191.7021933
20
-37.24344
40
0.6
50
330
51
60
0
ARC
8
0
10
180.7902733
20
-30.94344
40
0.6
50
60
51
150
0
LINE
8
0
10
135.6462333
20
-51.2694
11
123.0462333
21
-51.2694
0
LINE
8
0
10
122.4462333
20
-51.8694
11
122.4462333
21
-64.4694
0
LINE
8
0
10
123.0462333
20
-65.0694
11
135.6462333
21
-65.0694
0
LINE
8
0
10
136.2462333
20
-64.4694
11
136.2462333
21
-51.8694
0
ARC
8
0
10
123.0462333
20
-51.8694
40
0.6
50
90
51
180
0
ARC
8
0
10
123.0462333
20
-64.4694
40
0.6
50
180
51
270
0
ARC
8
0
10
135.6462333
20
-64.4694
40
0.6
50
270
51
0
0
ARC
8
0
10
135.6462333
20
-51.8694
40
0.6
50
0
51
90
0
LINE
8
0
10
157.1462333
20
-51.2694
11
144.5462333
21
-51.2694
0
LINE
8
0
10
143.9462333
20
-51.8694
11
143.9462333
21
-64.4694
0
LINE
8
0
10
144.5462333
20
-65.0694
11
157.1462333
21
-65.0694
0
LINE
8
0
10
157.7462333
20
-64.4694
11
157.7462333
21
-51.8694
0
ARC
8
0
10
144.5462333
20
-51.8694
40
0.6
50
90
51
180
0
ARC
8
0
10
144.5462333
20
-64.4694
40
0.6
50
180
51
270
0
ARC
8
0
10
157.1462333
20
-64.4694
40
0.6
50
270
51
0
0
ARC
8
0
10
157.1462333
20
-51.8694
40
0.6
50
0
51
90
0
LINE
8
0
10
178.6462333
20
-51.2694
11
166.0462333
21
-51.2694
0
LINE
8
0
10
165.4462333
20
-51.8694
11
165.4462333
21
-64.4694
0
LINE
8
0
10
166.0462333
20
-65.0694
11
178.6462333
21
-65.0694
0
LINE
8
0
10
179.2462333
20
-64.4694
11
179.2462333
21
-51.8694
0
ARC
8
0
10
166.0462333
20
-51.8694
40
0.6
50
90
51
180
0
ARC
8
0
10
166.0462333
20
-64.4694
40
0.6
50
180
51
270
0
ARC
8
0
10
178.6462333
20
-64.4694
40
0.6
50
270
51
0
0
ARC
8
0
10
178.6462333
20
-51.8694
40
0.6
50
0
51
90
0
LINE
8
0
10
123.0462333
20
-27.8294
11
135.6462333
21
-27.8294
0
LINE
8
0
10
136.2462333
20
-27.2294
11
136.2462333
21
-14.6294
0
LINE
8
0
10
135.6462333
20
-14.0294
11
123.0462333
21
-14.0294
0
LINE
8
0
10
122.4462333
20
-14.6294
11
122.4462333
21
-27.2294
0
ARC
8
0
10
135.6462333
20
-27.2294
40
0.6
50
270
51
0
0
ARC
8
0
10
135.6462333
20
-14.6294
40
0.6
50
0
51
90
0
ARC
8
0
10
123.0462333
20
-14.6294
40
0.6
50
90
51
180
0
ARC
8
0
10
123.0462333
20
-27.2294
40
0.6
50
180
51
270
0
LINE
8
0
10
167.8962333
20
-69.8894
11
155.2962333
21
-69.8894
0
LINE
8
0
10
154.6962333
20
-70.4894
11
154.6962333
21
-83.0894
0
LINE
8
0
10
155.2962333
20
-83.6894
11
167.8962333
21
-83.6894
0
LINE
8
0
10
168.4962333
20
-83.0894
11
168.4962333
21
-70.4894
0
ARC
8
0
10
155.2962333
20
-70.4894
40
0.6
50
90
51
180
0
ARC
8
0
10
155.2962333
20
-83.0894
40
0.6
50
180
51
270
0
ARC
8
0
10
167.8962333
20
-83.0894
40
0.6
50
270
51
0
0
ARC
8
0
10
167.8962333
20
-70.4894
40
0.6
50
0
51
90
0
LINE
8
0
10
198.2962333
20
-124.3935
11
210.8962333
21
-124.3935
0
LINE
8
0
10
211.4962333
20
-123.7935
11
211.4962333
21
-111.1935
0
LINE
8
0
10
210.8962333
20
-110.5935
11
198.2962333
21
-110.5935
0
LINE
8
0
10
197.6962333
20
-111.1935
11
197.6962333
21
-123.7935
0
ARC
8
0
10
210.8962333
20
-123.7935
40
0.6
50
270
51
0
0
ARC
8
0
10
210.8962333
20
-111.1935
40
0.6
50
0
51
90
0
ARC
8
0
10
198.2962333
20
-111.1935
40
0.6
50
90
51
180
0
ARC
8
0
10
198.2962333
20
-123.7935
40
0.6
50
180
51
270
0
LINE
8
0
10
307.1718086
20
-29.83536
11
313.4718086
21
-18.92344
0
LINE
8
0
10
313.2521933
20
-18.1038247
11
302.3402733
21
-11.8038247
0
LINE
8
0
10
301.520658
20
-12.02344
11
295.220658
21
-22.93536
0
LINE
8
0
10
295.4402733
20
-23.7549753
11
306.3521933
21
-30.0549753
0
ARC
8
0
10
312.9521933
20
-18.62344
40
0.6
50
330
51
60
0
ARC
8
0
10
302.0402733
20
-12.32344
40
0.6
50
60
51
150
0
ARC
8
0
10
295.7402733
20
-23.23536
40
0.6
50
150
51
240
0
ARC
8
0
10
306.6521933
20
-29.53536
40
0.6
50
240
51
330
0
LINE
8
0
10
285.6718086
20
-29.83536
11
291.9718086
21
-18.92344
0
LINE
8
0
10
291.7521933
20
-18.1038247
11
280.8402733
21
-11.8038247
0
LINE
8
0
10
280.020658
20
-12.02344
11
273.720658
21
-22.93536
0
LINE
8
0
10
273.9402733
20
-23.7549753
11
284.8521933
21
-30.0549753
0
ARC
8
0
10
291.4521933
20
-18.62344
40
0.6
50
330
51
60
0
ARC
8
0
10
280.5402733
20
-12.32344
40
0.6
50
60
51
150
0
ARC
8
0
10
274.2402733
20
-23.23536
40
0.6
50
150
51
240
0
ARC
8
0
10
285.1521933
20
-29.53536
40
0.6
50
240
51
330
0
LINE
8
0
10
264.1718086
20
-29.83536
11
270.4718086
21
-18.92344
0
LINE
8
0
10
270.2521933
20
-18.1038247
11
259.3402733
21
-11.8038247
0
LINE
8
0
10
258.520658
20
-12.02344
11
252.220658
21
-22.93536
0
LINE
8
0
10
252.4402733
20
-23.7549753
11
263.3521933
21
-30.0549753
0
ARC
8
0
10
269.9521933
20
-18.62344
40
0.6
50
330
51
60
0
ARC
8
0
10
259.0402733
20
-12.32344
40
0.6
50
60
51
150
0
ARC
8
0
10
252.7402733
20
-23.23536
40
0.6
50
150
51
240
0
ARC
8
0
10
263.6521933
20
-29.53536
40
0.6
50
240
51
330
0
LINE
8
0
10
324.2218086
20
-41.55536
11
317.9218086
21
-30.64344
0
LINE
8
0
10
317.1021933
20
-30.4238247
11
306.1902733
21
-36.7238247
0
LINE
8
0
10
305.970658
20
-37.54344
11
312.270658
21
-48.45536
0
LINE
8
0
10
313.0902733
20
-48.6749753
11
324.0021933
21
-42.3749753
0
ARC
8
0
10
317.4021933
20
-30.94344
40
0.6
50
30
51
120
0
ARC
8
0
10
306.4902733
20
-37.24344
40
0.6
50
120
51
210
0
ARC
8
0
10
312.7902733
20
-48.15536
40
0.6
50
210
51
300
0
ARC
8
0
10
323.7021933
20
-41.85536
40
0.6
50
300
51
30
0
LINE
8
0
10
302.7218086
20
-41.55536
11
296.4218086
21
-30.64344
0
LINE
8
0
10
295.6021933
20
-30.4238247
11
284.6902733
21
-36.7238247
0
LINE
8
0
10
284.470658
20
-37.54344
11
290.770658
21
-48.45536
0
LINE
8
0
10
291.5902733
20
-48.6749753
11
302.5021933
21
-42.3749753
0
ARC
8
0
10
295.9021933
20
-30.94344
40
0.6
50
30
51
120
0
ARC
8
0
10
284.9902733
20
-37.24344
40
0.6
50
120
51
210
0
ARC
8
0
10
291.2902733
20
-48.15536
40
0.6
50
210
51
300
0
ARC
8
0
10
302.2021933
20
-41.85536
40
0.6
50
300
51
30
0
LINE
8
0
10
281.2218086
20
-41.55536
11
274.9218086
21
-30.64344
0
LINE
8
0
10
274.1021933
20
-30.4238247
11
263.1902733
21
-36.7238247
0
LINE
8
0
10
262.970658
20
-37.54344
11
269.270658
21
-48.45536
0
LINE
8
0
10
270.0902733
20
-48.6749753
11
281.0021933
21
-42.3749753
0
ARC
8
0
10
274.4021933
20
-30.94344
40
0.6
50
30
51
120
0
ARC
8
0
10
263.4902733
20
-37.24344
40
0.6
50
120
51
210
0
ARC
8
0
10
269.7902733
20
-48.15536
40
0.6
50
210
51
300
0
ARC
8
0
10
280.7021933
20
-41.85536
40
0.6
50
300
51
30
0
LINE
8
0
10
332.1462333
20
-51.2694
11
319.5462333
21
-51.2694
0
LINE
8
0
10
318.9462333
20
-51.8694
11
318.9462333
21
-64.4694
0
LINE
8
0
10
319.5462333
20
-65.0694
11
332.1462333
21
-65.0694
0
LINE
8
0
10
332.7462333
20
-64.4694
11
332.7462333
21
-51.8694
0
ARC
8
0
10
319.5462333
20
-51.8694
40
0.6
50
90
51
180
0
ARC
8
0
10
319.5462333
20
-64.4694
40
0.6
50
180
51
270
0
ARC
8
0
10
332.1462333
20
-64.4694
40
0.6
50
270
51
0
0
ARC
8
0
10
332.1462333
20
-51.8694
40
0.6
50
0
51
90
0
LINE
8
0
10
310.6462333
20
-51.2694
11
298.0462333
21
-51.2694
0
LINE
8
0
10
297.4462333
20
-51.8694
11
297.4462333
21
-64.4694
0
LINE
8
0
10
298.0462333
20
-65.0694
11
310.6462333
21
-65.0694
0
LINE
8
0
10
311.2462333
20
-64.4694
11
311.2462333
21
-51.8694
0
ARC
8
0
10
298.0462333
20
-51.8694
40
0.6
50
90
51
180
0
ARC
8
0
10
298.0462333
20
-64.4694
40
0.6
50
180
51
270
0
ARC
8
0
10
310.6462333
20
-64.4694
40
0.6
50
270
51
0
0
ARC
8
0
10
310.6462333
20
-51.8694
40
0.6
50
0
51
90
0
LINE
8
0
10
289.1462333
20
-51.2694
11
276.5462333
21
-51.2694
0
LINE
8
0
10
275.9462333
20
-51.8694
11
275.9462333
21
-64.4694
0
LINE
8
0
10
276.5462333
20
-65.0694
11
289.1462333
21
-65.0694
0
LINE
8
0
10
289.7462333
20
-64.4694
11
289.7462333
21
-51.8694
0
ARC
8
0
10
276.5462333
20
-51.8694
40
0.6
50
90
51
180
0
ARC
8
0
10
276.5462333
20
-64.4694
40
0.6
50
180
51
270
0
ARC
8
0
10
289.1462333
20
-64.4694
40
0.6
50
270
51
0
0
ARC
8
0
10
289.1462333
20
-51.8694
40
0.6
50
0
51
90
0
LINE
8
0
10
319.5462333
20
-27.8294
11
332.1462333
21
-27.8294
0
LINE
8
0
10
332.7462333
20
-27.2294
11
332.7462333
21
-14.6294
0
LINE
8
0
10
332.1462333
20
-14.0294
11
319.5462333
21
-14.0294
0
LINE
8
0
10
318.9462333
20
-14.6294
11
318.9462333
21
-27.2294
0
ARC
8
0
10
332.1462333
20
-27.2294
40
0.6
50
270
51
0
0
ARC
8
0
10
332.1462333
20
-14.6294
40
0.6
50
0
51
90
0
ARC
8
0
10
319.5462333
20
-14.6294
40
0.6
50
90
51
180
0
ARC
8
0
10
319.5462333
20
-27.2294
40
0.6
50
180
51
270
0
LINE
8
0
10
299.8962333
20
-69.8894
11
287.2962333
21
-69.8894
0
LINE
8
0
10
286.6962333
20
-70.4894
11
286.6962333
21
-83.0894
0
LINE
8
0
10
287.2962333
20
-83.6894
11
299.8962333
21
-83.6894
0
LINE
8
0
10
300.4962333
20
-83.0894
11
300.4962333
21
-70.4894
0
ARC
8
0
10
287.2962333
20
-70.4894
40
0.6
50
90
51
180
0
ARC
8
0
10
287.2962333
20
-83.0894
40
0.6
50
180
51
270
0
ARC
8
0
10
299.8962333
20
-83.0894
40
0.6
50
270
51
0
0
ARC
8
0
10
299.8962333
20
-70.4894
40
0.6
50
0
51
90
0
LINE
8
0
10
244.2962333
20
-124.3935
11
256.8962333
21
-124.3935
0
LINE
8
0
10
257.4962333
20
-123.7935
11
257.4962333
21
-111.1935
0
LINE
8
0
10
256.8962333
20
-110.5935
11
244.2962333
21
-110.5935
0
LINE
8
0
10
243.6962333
20
-111.1935
11
243.6962333
21
-123.7935
0
ARC
8
0
10
256.8962333
20
-123.7935
40
0.6
50
270
51
0
0
ARC
8
0
10
256.8962333
20
-111.1935
40
0.6
50
0
51
90
0
ARC
8
0
10
244.2962333
20
-111.1935
40
0.6
50
90
51
180
0
ARC
8
0
10
244.2962333
20
-123.7935
40
0.6
50
180
51
270
0
LINE
8
0
10
218.7062333
20
-43.6239333
11
236.4862333
21
-43.6239333
0
LINE
8
0
10
236.9862333
20
-43.1239333
11
236.9862333
21
-10.1039333
0
LINE
8
0
10
218.2062333
20
-10.1039333
11
218.2062333
21
-43.1239333
0
ARC
8
0
10
236.4862333
20
-43.1239333
40
0.5
50
270
51
0
0
ARC
8
0
10
218.7062333
20
-43.1239333
40
0.5
50
180
51
270
0
CIRCLE
8
0
10
204.5962333
20
-39.5494
40
7.6
0
CIRCLE
8
0
10
193.8462333
20
-58.1694
40
7.6
0
CIRCLE
8
0
10
183.0962333
20
-76.7894
40
7.6
0
CIRCLE
8
0
10
215.3462333
20
-98.8735
40
7.6
0
CIRCLE
8
0
10
172.3462333
20
-98.8735
40
7.6
0
CIRCLE
8
0
10
193.8462333
20
-98.8735
40
7.6
0
CIRCLE
8
0
10
250.5962333
20
-39.5494
40
7.6
0
CIRCLE
8
0
10
261.3462333
20
-58.1694
40
7.6
0
CIRCLE
8
0
10
272.0962333
20
-76.7894
40
7.6
0
CIRCLE
8
0
10
239.8462333
20
-98.8735
40
7.6
0
CIRCLE
8
0
10
282.8462333
20
-98.8735
40
7.6
0
CIRCLE
8
0
10
261.3462333
20
-98.8735
40
7.6
0
LINE
8
0
10
235.2857687
20
-84.5722322
11
219.9066979
21
-84.5722322
0
LINE
8
0
10
215.0762333
20
-76.9376729
11
215.0762333
21
-70.2386179
0
LINE
8
0
10
216.0762333
20
-69.2386179
11
239.1162333
21
-69.2386179
0
LINE
8
0
10
240.1162333
20
-70.2386179
11
240.1162333
21
-76.9376729
0
LINE
8
0
10
219.0406725
20
-84.0722322
11
215.2102079
21
-77.4376729
0
LINE
8
0
10
239.9822587
20
-77.4376729
11
236.1517941
21
-84.0722322
0
ARC
8
0
10
219.9066979
20
-83.5722322
40
1
50
210.0000001
51
270
0
ARC
8
0
10
216.0762333
20
-76.9376729
40
1
50
180
51
210.0000001
0
ARC
8
0
10
216.0762333
20
-70.2386179
40
1
50
90
51
180
0
ARC
8
0
10
239.1162333
20
-70.2386179
40
1
50
0
51
90
0
ARC
8
0
10
239.1162333
20
-76.9376729
40
1
50
329.9999999
51
0
0
ARC
8
0
10
235.2857687
20
-83.5722322
40
1
50
270
51
329.9999999
0
LINE
8
0
10
120.983675
20
-37.0311163
11
119.583675
21
-36.2226163
0
LINE
8
0
10
119.2837333
20
-35.7030347
11
119.2837333
21
-34.0857653
0
LINE
8
0
10
119.583675
20
-33.5661837
11
120.983675
21
-32.7576837
0
LINE
8
0
10
121.5837916
20
-32.7576837
11
122.9837916
21
-33.5661837
0
LINE
8
0
10
123.2837333
20
-34.0857653
11
123.2837333
21
-35.7030347
0
LINE
8
0
10
122.9837916
20
-36.2226163
11
121.5837916
21
-37.0311163
0
ARC
8
0
10
119.8837333
20
-35.7030347
40
0.6
50
180
51
239.9935697
0
ARC
8
0
10
119.8837333
20
-34.0857653
40
0.6
50
120.0064303
51
180
0
ARC
8
0
10
121.2837333
20
-33.2772653
40
0.6
50
59.9935697
51
120.0064303
0
ARC
8
0
10
122.6837333
20
-34.0857653
40
0.6
50
0
51
59.9935697
0
ARC
8
0
10
122.6837333
20
-35.7030347
40
0.6
50
300.0064303
51
0
0
ARC
8
0
10
121.2837333
20
-36.5115347
40
0.6
50
239.9935697
51
300.0064303
0
LINE
8
0
10
145.171175
20
-78.9261163
11
143.771175
21
-78.1176163
0
LINE
8
0
10
143.4712333
20
-77.5980347
11
143.4712333
21
-75.9807653
0
LINE
8
0
10
143.771175
20
-75.4611837
11
145.171175
21
-74.6526837
0
LINE
8
0
10
145.7712916
20
-74.6526837
11
147.1712916
21
-75.4611837
0
LINE
8
0
10
147.4712333
20
-75.9807653
11
147.4712333
21
-77.5980347
0
LINE
8
0
10
147.1712916
20
-78.1176163
11
145.7712916
21
-78.9261163
0
ARC
8
0
10
144.0712333
20
-77.5980347
40
0.6
50
180
51
239.9935697
0
ARC
8
0
10
144.0712333
20
-75.9807653
40
0.6
50
120.0064303
51
180
0
ARC
8
0
10
145.4712333
20
-75.1722653
40
0.6
50
59.9935697
51
120.0064303
0
ARC
8
0
10
146.8712333
20
-75.9807653
40
0.6
50
0
51
59.9935697
0
ARC
8
0
10
146.8712333
20
-77.5980347
40
0.6
50
300.0064303
51
0
0
ARC
8
0
10
145.4712333
20
-78.4065347
40
0.6
50
239.9935697
51
300.0064303
0
LINE
8
0
10
160.296175
20
-17.8594496
11
158.896175
21
-17.0509496
0
LINE
8
0
10
158.5962333
20
-16.531368
11
158.5962333
21
-14.9140986
0
LINE
8
0
10
158.896175
20
-14.394517
11
160.296175
21
-13.586017
0
LINE
8
0
10
160.8962916
20
-13.586017
11
162.2962916
21
-14.394517
0
LINE
8
0
10
162.5962333
20
-14.9140986
11
162.5962333
21
-16.531368
0
LINE
8
0
10
162.2962916
20
-17.0509496
11
160.8962916
21
-17.8594496
0
ARC
8
0
10
159.1962333
20
-16.531368
40
0.6
50
180
51
239.9935697
0
ARC
8
0
10
159.1962333
20
-14.9140986
40
0.6
50
120.0064303
51
180
0
ARC
8
0
10
160.5962333
20
-14.1055986
40
0.6
50
59.9935697
51
120.0064303
0
ARC
8
0
10
161.9962333
20
-14.9140986
40
0.6
50
0
51
59.9935697
0
ARC
8
0
10
161.9962333
20
-16.531368
40
0.6
50
300.0064303
51
0
0
ARC
8
0
10
160.5962333
20
-17.339868
40
0.6
50
239.9935697
51
300.0064303
0
LINE
8
0
10
333.608675
20
-37.0311163
11
332.208675
21
-36.2226163
0
LINE
8
0
10
331.9087333
20
-35.7030347
11
331.9087333
21
-34.0857653
0
LINE
8
0
10
332.208675
20
-33.5661837
11
333.608675
21
-32.7576837
0
LINE
8
0
10
334.2087916
20
-32.7576837
11
335.6087916
21
-33.5661837
0
LINE
8
0
10
335.9087333
20
-34.0857653
11
335.9087333
21
-35.7030347
0
LINE
8
0
10
335.6087916
20
-36.2226163
11
334.2087916
21
-37.0311163
0
ARC
8
0
10
332.5087333
20
-35.7030347
40
0.6
50
180
51
239.9935697
0
ARC
8
0
10
332.5087333
20
-34.0857653
40
0.6
50
120.0064303
51
180
0
ARC
8
0
10
333.9087333
20
-33.2772653
40
0.6
50
59.9935697
51
120.0064303
0
ARC
8
0
10
335.3087333
20
-34.0857653
40
0.6
50
0
51
59.9935697
0
ARC
8
0
10
335.3087333
20
-35.7030347
40
0.6
50
300.0064303
51
0
0
ARC
8
0
10
333.9087333
20
-36.5115347
40
0.6
50
239.9935697
51
300.0064303
0
LINE
8
0
10
309.421175
20
-78.9261163
11
308.021175
21
-78.1176163
0
LINE
8
0
10
307.7212333
20
-77.5980347
11
307.7212333
21
-75.9807653
0
LINE
8
0
10
308.021175
20
-75.4611837
11
309.421175
21
-74.6526837
0
LINE
8
0
10
310.0212916
20
-74.6526837
11
311.4212916
21
-75.4611837
0
LINE
8
0
10
311.7212333
20
-75.9807653
11
311.7212333
21
-77.5980347
0
LINE
8
0
10
311.4212916
20
-78.1176163
11
310.0212916
21
-78.9261163
0
ARC
8
0
10
308.3212333
20
-77.5980347
40
0.6
50
180
51
239.9935697
0
ARC
8
0
10
308.3212333
20
-75.9807653
40
0.6
50
120.0064303
51
180
0
ARC
8
0
10
309.7212333
20
-75.1722653
40
0.6
50
59.9935697
51
120.0064303
0
ARC
8
0
10
311.1212333
20
-75.9807653
40
0.6
50
0
51
59.9935697
0
ARC
8
0
10
311.1212333
20
-77.5980347
40
0.6
50
300.0064303
51
0
0
ARC
8
0
10
309.7212333
20
-78.4065347
40
0.6
50
239.9935697
51
300.0064303
0
LINE
8
0
10
294.296175
20
-17.8594496
11
292.896175
21
-17.0509496
0
LINE
8
0
10
292.5962333
20
-16.531368
11
292.5962333
21
-14.9140986
0
LINE
8
0
10
292.896175
20
-14.394517
11
294.296175
21
-13.586017
0
LINE
8
0
10
294.8962916
20
-13.586017
11
296.2962916
21
-14.394517
0
LINE
8
0
10
296.5962333
20
-14.9140986
11
296.5962333
21
-16.531368
0
LINE
8
0
10
296.2962916
20
-17.0509496
11
294.8962916
21
-17.8594496
0
ARC
8
0
10
293.1962333
20
-16.531368
40
0.6
50
180
51
239.9935697
0
ARC
8
0
10
293.1962333
20
-14.9140986
40
0.6
50
120.0064303
51
180
0
ARC
8
0
10
294.5962333
20
-14.1055986
40
0.6
50
59.9935697
51
120.0064303
0
ARC
8
0
10
295.9962333
20
-14.9140986
40
0.6
50
0
51
59.9935697
0
ARC
8
0
10
295.9962333
20
-16.531368
40
0.6
50
300.0064303
51
0
0
ARC
8
0
10
294.5962333
20
-17.339868
40
0.6
50
239.9935697
51
300.0064303
0
CIRCLE
8
0
10
180.4087333
20
-110.217331
40
1.6
0
CIRCLE
8
0
10
223.5962333
20
-89.2027333
40
1.6
0
CIRCLE
8
0
10
212.6587333
20
-25.5844
40
1.6
0
CIRCLE
8
0
10
274.7837333
20
-110.217331
40
1.6
0
CIRCLE
8
0
10
231.5962333
20
-89.2027333
40
1.6
0
CIRCLE
8
0
10
242.5337333
20
-25.5844
40
1.6
0
LINE
8
0
10
206.09626
20
-132.8166762
11
226.0962078
21
-121.2694382
0
LINE
8
0
10
229.0962588
20
-121.2694382
11
249.0962066
21
-132.8166762
0
LINE
8
0
10
252.0962594
20
-132.8166751
11
270.5962057
21
-122.1354659
0
LINE
8
0
10
273.5962609
20
-122.1354661
11
291.8262611
21
-132.6608215
0
LINE
8
0
10
293.3262333
20
-135.2588817
11
293.3262333
21
-143.8963868
0
LINE
8
0
10
291.8262607
20
-146.4944472
11
284.0762059
21
-150.9690525
0
LINE
8
0
10
282.5762333
20
-153.5671129
11
282.5762333
21
-165.9804868
0
LINE
8
0
10
281.0762607
20
-168.5785472
11
273.3262059
21
-173.0531525
0
LINE
8
0
10
271.8262333
20
-175.6512129
11
271.8262333
21
-184.6004868
0
LINE
8
0
10
270.3262607
20
-187.1985472
11
262.5762059
21
-191.6731525
0
LINE
8
0
10
261.0762333
20
-194.2712129
11
261.0762333
21
-203.2204868
0
LINE
8
0
10
259.5762607
20
-205.8185472
11
251.8262059
21
-210.2931525
0
LINE
8
0
10
250.3262333
20
-212.8912129
11
250.3262333
21
-225.347201
0
LINE
8
0
10
247.3262333
20
-228.347201
11
236.9862333
21
-228.3472011
0
LINE
8
0
10
218.2062333
20
-228.3472011
11
207.8662333
21
-228.347201
0
LINE
8
0
10
204.8662333
20
-225.347201
11
204.8662333
21
-212.8912129
0
LINE
8
0
10
203.3662607
20
-210.2931525
11
195.6162059
21
-205.8185472
0
LINE
8
0
10
194.1162333
20
-203.2204868
11
194.1162333
21
-194.2712129
0
LINE
8
0
10
192.6162607
20
-191.6731525
11
184.8662059
21
-187.1985472
0
LINE
8
0
10
183.3662333
20
-184.6004868
11
183.3662333
21
-175.6512129
0
LINE
8
0
10
181.8662607
20
-173.0531525
11
174.1162059
21
-168.5785472
0
LINE
8
0
10
172.6162333
20
-165.9804868
11
172.6162333
21
-153.5671129
0
LINE
8
0
10
171.1162607
20
-150.9690525
11
163.3662059
21
-146.4944472
0
LINE
8
0
10
161.8662333
20
-143.8963868
11
161.8662333
21
-135.2588817
0
LINE
8
0
10
163.3662055
20
-132.6608215
11
181.5962057
21
-122.1354661
0
LINE
8
0
10
184.5962609
20
-122.1354659
11
203.0962072
21
-132.8166751
0
ARC
8
0
10
227.5962333
20
-123.8674997
40
3
50
59.9994378
51
120.0005622
0
ARC
8
0
10
250.5962321
20
-130.2186147
40
3
50
239.9994378
51
300.0006035
0
ARC
8
0
10
272.096233
20
-124.7335263
40
3
50
59.9993866
51
120.0006035
0
ARC
8
0
10
290.3262333
20
-135.2588817
40
3
50
0
51
59.9993866
0
ARC
8
0
10
290.3262333
20
-143.8963868
40
3
50
300.0006035
51
0
0
ARC
8
0
10
285.5762333
20
-153.5671129
40
3
50
120.0006035
51
180
0
ARC
8
0
10
279.5762333
20
-165.9804868
40
3
50
300.0006035
51
0
0
ARC
8
0
10
274.8262333
20
-175.6512129
40
3
50
120.0006035
51
180
0
ARC
8
0
10
268.8262333
20
-184.6004868
40
3
50
300.0006035
51
0
0
ARC
8
0
10
264.0762333
20
-194.2712129
40
3
50
120.0006035
51
180
0
ARC
8
0
10
258.0762333
20
-203.2204868
40
3
50
300.0006035
51
0
0
ARC
8
0
10
253.3262333
20
-212.8912129
40
3
50
120.0006035
51
180
0
ARC
8
0
10
247.3262333
20
-225.347201
40
3
50
270
51
0
0
ARC
8
0
10
207.8662333
20
-225.347201
40
3
50
180
51
270
0
ARC
8
0
10
201.8662333
20
-212.8912129
40
3
50
0
51
59.9993965
0
ARC
8
0
10
197.1162333
20
-203.2204868
40
3
50
180
51
239.9993965
0
ARC
8
0
10
191.1162333
20
-194.2712129
40
3
50
0
51
59.9993965
0
ARC
8
0
10
186.3662333
20
-184.6004868
40
3
50
180
51
239.9993965
0
ARC
8
0
10
180.3662333
20
-175.6512129
40
3
50
0
51
59.9993965
0
ARC
8
0
10
175.6162333
20
-165.9804868
40
3
50
180
51
239.9993965
0
ARC
8
0
10
169.6162333
20
-153.5671129
40
3
50
0
51
59.9993965
0
ARC
8
0
10
164.8662333
20
-143.8963868
40
3
50
180
51
239.9993965
0
ARC
8
0
10
164.8662333
20
-135.2588817
40
3
50
120.0006134
51
180
0
ARC
8
0
10
183.0962336
20
-124.7335263
40
3
50
59.9993965
51
120.0006134
0
ARC
8
0
10
204.5962345
20
-130.2186147
40
3
50
239.9993965
51
300.0005622
0
LINE
8
0
10
259.7218086
20
-200.9076944
11
253.4218086
21
-189.9957744
0
LINE
8
0
10
252.6021933
20
-189.7761591
11
241.6902733
21
-196.0761591
0
LINE
8
0
10
241.470658
20
-196.8957744
11
247.770658
21
-207.8076944
0
LINE
8
0
10
248.5902733
20
-208.0273097
11
259.5021933
21
-201.7273097
0
ARC
8
0
10
252.9021933
20
-190.2957744
40
0.6
50
30
51
120
0
ARC
8
0
10
241.9902733
20
-196.5957744
40
0.6
50
120
51
210
0
ARC
8
0
10
248.2902733
20
-207.5076944
40
0.6
50
210
51
300
0
ARC
8
0
10
259.2021933
20
-201.2076944
40
0.6
50
300
51
30
0
LINE
8
0
10
248.9718086
20
-182.2876944
11
242.6718086
21
-171.3757744
0
LINE
8
0
10
241.8521933
20
-171.1561591
11
230.9402733
21
-177.4561591
0
LINE
8
0
10
230.720658
20
-178.2757744
11
237.020658
21
-189.1876944
0
LINE
8
0
10
237.8402733
20
-189.4073097
11
248.7521933
21
-183.1073097
0
ARC
8
0
10
242.1521933
20
-171.6757744
40
0.6
50
30
51
120
0
ARC
8
0
10
231.2402733
20
-177.9757744
40
0.6
50
120
51
210
0
ARC
8
0
10
237.5402733
20
-188.8876944
40
0.6
50
210
51
300
0
ARC
8
0
10
248.4521933
20
-182.5876944
40
0.6
50
300
51
30
0
LINE
8
0
10
264.1718086
20
-189.1876944
11
270.4718086
21
-178.2757744
0
LINE
8
0
10
270.2521933
20
-177.4561591
11
259.3402733
21
-171.1561591
0
LINE
8
0
10
258.520658
20
-171.3757744
11
252.220658
21
-182.2876944
0
LINE
8
0
10
252.4402733
20
-183.1073097
11
263.3521933
21
-189.4073097
0
ARC
8
0
10
269.9521933
20
-177.9757744
40
0.6
50
330
51
60
0
ARC
8
0
10
259.0402733
20
-171.6757744
40
0.6
50
60
51
150
0
ARC
8
0
10
252.7402733
20
-182.5876944
40
0.6
50
150
51
240
0
ARC
8
0
10
263.6521933
20
-188.8876944
40
0.6
50
240
51
330
0
LINE
8
0
10
244.2962333
20
-168.5617344
11
256.8962333
21
-168.5617344
0
LINE
8
0
10
257.4962333
20
-167.9617344
11
257.4962333
21
-155.3617344
0
LINE
8
0
10
256.8962333
20
-154.7617344
11
244.2962333
21
-154.7617344
0
LINE
8
0
10
243.6962333
20
-155.3617344
11
243.6962333
21
-167.9617344
0
ARC
8
0
10
256.8962333
20
-167.9617344
40
0.6
50
270
51
0
0
ARC
8
0
10
256.8962333
20
-155.3617344
40
0.6
50
0
51
90
0
ARC
8
0
10
244.2962333
20
-155.3617344
40
0.6
50
90
51
180
0
ARC
8
0
10
244.2962333
20
-167.9617344
40
0.6
50
180
51
270
0
LINE
8
0
10
265.7962333
20
-168.5617344
11
278.3962333
21
-168.5617344
0
LINE
8
0
10
278.9962333
20
-167.9617344
11
278.9962333
21
-155.3617344
0
LINE
8
0
10
278.3962333
20
-154.7617344
11
265.7962333
21
-154.7617344
0
LINE
8
0
10
265.1962333
20
-155.3617344
11
265.1962333
21
-167.9617344
0
ARC
8
0
10
278.3962333
20
-167.9617344
40
0.6
50
270
51
0
0
ARC
8
0
10
278.3962333
20
-155.3617344
40
0.6
50
0
51
90
0
ARC
8
0
10
265.7962333
20
-155.3617344
40
0.6
50
90
51
180
0
ARC
8
0
10
265.7962333
20
-167.9617344
40
0.6
50
180
51
270
0
LINE
8
0
10
248.9718086
20
-141.5835944
11
242.6718086
21
-130.6716744
0
LINE
8
0
10
241.8521933
20
-130.4520591
11
230.9402733
21
-136.7520591
0
LINE
8
0
10
230.720658
20
-137.5716744
11
237.020658
21
-148.4835944
0
LINE
8
0
10
237.8402733
20
-148.7032097
11
248.7521933
21
-142.4032097
0
ARC
8
0
10
242.1521933
20
-130.9716744
40
0.6
50
30
51
120
0
ARC
8
0
10
231.2402733
20
-137.2716744
40
0.6
50
120
51
210
0
ARC
8
0
10
237.5402733
20
-148.1835944
40
0.6
50
210
51
300
0
ARC
8
0
10
248.4521933
20
-141.8835944
40
0.6
50
300
51
30
0
LINE
8
0
10
280.020658
20
-130.6716744
11
273.720658
21
-141.5835944
0
LINE
8
0
10
273.9402733
20
-142.4032097
11
284.8521933
21
-148.7032097
0
LINE
8
0
10
285.6718086
20
-148.4835944
11
291.9718086
21
-137.5716744
0
LINE
8
0
10
291.7521933
20
-136.7520591
11
280.8402733
21
-130.4520591
0
ARC
8
0
10
274.2402733
20
-141.8835944
40
0.6
50
150
51
240
0
ARC
8
0
10
285.1521933
20
-148.1835944
40
0.6
50
240
51
330
0
ARC
8
0
10
291.4521933
20
-137.2716744
40
0.6
50
330
51
60
0
ARC
8
0
10
280.5402733
20
-130.9716744
40
0.6
50
60
51
150
0
LINE
8
0
10
267.6462333
20
-132.6776344
11
255.0462333
21
-132.6776344
0
LINE
8
0
10
254.4462333
20
-133.2776344
11
254.4462333
21
-145.8776344
0
LINE
8
0
10
255.0462333
20
-146.4776344
11
267.6462333
21
-146.4776344
0
LINE
8
0
10
268.2462333
20
-145.8776344
11
268.2462333
21
-133.2776344
0
ARC
8
0
10
255.0462333
20
-133.2776344
40
0.6
50
90
51
180
0
ARC
8
0
10
255.0462333
20
-145.8776344
40
0.6
50
180
51
270
0
ARC
8
0
10
267.6462333
20
-145.8776344
40
0.6
50
270
51
0
0
ARC
8
0
10
267.6462333
20
-133.2776344
40
0.6
50
0
51
90
0
LINE
8
0
10
201.770658
20
-189.9957744
11
195.470658
21
-200.9076944
0
LINE
8
0
10
195.6902733
20
-201.7273097
11
206.6021933
21
-208.0273097
0
LINE
8
0
10
207.4218086
20
-207.8076944
11
213.7218086
21
-196.8957744
0
LINE
8
0
10
213.5021933
20
-196.0761591
11
202.5902733
21
-189.7761591
0
ARC
8
0
10
195.9902733
20
-201.2076944
40
0.6
50
150
51
240
0
ARC
8
0
10
206.9021933
20
-207.5076944
40
0.6
50
240
51
330
0
ARC
8
0
10
213.2021933
20
-196.5957744
40
0.6
50
330
51
60
0
ARC
8
0
10
202.2902733
20
-190.2957744
40
0.6
50
60
51
150
0
LINE
8
0
10
212.520658
20
-171.3757744
11
206.220658
21
-182.2876944
0
LINE
8
0
10
206.4402733
20
-183.1073097
11
217.3521933
21
-189.4073097
0
LINE
8
0
10
218.1718086
20
-189.1876944
11
224.4718086
21
-178.2757744
0
LINE
8
0
10
224.2521933
20
-177.4561591
11
213.3402733
21
-171.1561591
0
ARC
8
0
10
206.7402733
20
-182.5876944
40
0.6
50
150
51
240
0
ARC
8
0
10
217.6521933
20
-188.8876944
40
0.6
50
240
51
330
0
ARC
8
0
10
223.9521933
20
-177.9757744
40
0.6
50
330
51
60
0
ARC
8
0
10
213.0402733
20
-171.6757744
40
0.6
50
60
51
150
0
LINE
8
0
10
184.720658
20
-178.2757744
11
191.020658
21
-189.1876944
0
LINE
8
0
10
191.8402733
20
-189.4073097
11
202.7521933
21
-183.1073097
0
LINE
8
0
10
202.9718086
20
-182.2876944
11
196.6718086
21
-171.3757744
0
LINE
8
0
10
195.8521933
20
-171.1561591
11
184.9402733
21
-177.4561591
0
ARC
8
0
10
191.5402733
20
-188.8876944
40
0.6
50
210
51
300
0
ARC
8
0
10
202.4521933
20
-182.5876944
40
0.6
50
300
51
30
0
ARC
8
0
10
196.1521933
20
-171.6757744
40
0.6
50
30
51
120
0
ARC
8
0
10
185.2402733
20
-177.9757744
40
0.6
50
120
51
210
0
LINE
8
0
10
198.2962333
20
-168.5617344
11
210.8962333
21
-168.5617344
0
LINE
8
0
10
211.4962333
20
-167.9617344
11
211.4962333
21
-155.3617344
0
LINE
8
0
10
210.8962333
20
-154.7617344
11
198.2962333
21
-154.7617344
0
LINE
8
0
10
197.6962333
20
-155.3617344
11
197.6962333
21
-167.9617344
0
ARC
8
0
10
210.8962333
20
-167.9617344
40
0.6
50
270
51
0
0
ARC
8
0
10
210.8962333
20
-155.3617344
40
0.6
50
0
51
90
0
ARC
8
0
10
198.2962333
20
-155.3617344
40
0.6
50
90
51
180
0
ARC
8
0
10
198.2962333
20
-167.9617344
40
0.6
50
180
51
270
0
LINE
8
0
10
176.7962333
20
-168.5617344
11
189.3962333
21
-168.5617344
0
LINE
8
0
10
189.9962333
20
-167.9617344
11
189.9962333
21
-155.3617344
0
LINE
8
0
10
189.3962333
20
-154.7617344
11
176.7962333
21
-154.7617344
0
LINE
8
0
10
176.1962333
20
-155.3617344
11
176.1962333
21
-167.9617344
0
ARC
8
0
10
189.3962333
20
-167.9617344
40
0.6
50
270
51
0
0
ARC
8
0
10
189.3962333
20
-155.3617344
40
0.6
50
0
51
90
0
ARC
8
0
10
176.7962333
20
-155.3617344
40
0.6
50
90
51
180
0
ARC
8
0
10
176.7962333
20
-167.9617344
40
0.6
50
180
51
270
0
LINE
8
0
10
212.520658
20
-130.6716744
11
206.220658
21
-141.5835944
0
LINE
8
0
10
206.4402733
20
-142.4032097
11
217.3521933
21
-148.7032097
0
LINE
8
0
10
218.1718086
20
-148.4835944
11
224.4718086
21
-137.5716744
0
LINE
8
0
10
224.2521933
20
-136.7520591
11
213.3402733
21
-130.4520591
0
ARC
8
0
10
206.7402733
20
-141.8835944
40
0.6
50
150
51
240
0
ARC
8
0
10
217.6521933
20
-148.1835944
40
0.6
50
240
51
330
0
ARC
8
0
10
223.9521933
20
-137.2716744
40
0.6
50
330
51
60
0
ARC
8
0
10
213.0402733
20
-130.9716744
40
0.6
50
60
51
150
0
LINE
8
0
10
181.4718086
20
-141.5835944
11
175.1718086
21
-130.6716744
0
LINE
8
0
10
174.3521933
20
-130.4520591
11
163.4402733
21
-136.7520591
0
LINE
8
0
10
163.220658
20
-137.5716744
11
169.520658
21
-148.4835944
0
LINE
8
0
10
170.3402733
20
-148.7032097
11
181.2521933
21
-142.4032097
0
ARC
8
0
10
174.6521933
20
-130.9716744
40
0.6
50
30
51
120
0
ARC
8
0
10
163.7402733
20
-137.2716744
40
0.6
50
120
51
210
0
ARC
8
0
10
170.0402733
20
-148.1835944
40
0.6
50
210
51
300
0
ARC
8
0
10
180.9521933
20
-141.8835944
40
0.6
50
300
51
30
0
LINE
8
0
10
200.1462333
20
-132.6776344
11
187.5462333
21
-132.6776344
0
LINE
8
0
10
186.9462333
20
-133.2776344
11
186.9462333
21
-145.8776344
0
LINE
8
0
10
187.5462333
20
-146.4776344
11
200.1462333
21
-146.4776344
0
LINE
8
0
10
200.7462333
20
-145.8776344
11
200.7462333
21
-133.2776344
0
ARC
8
0
10
187.5462333
20
-133.2776344
40
0.6
50
90
51
180
0
ARC
8
0
10
187.5462333
20
-145.8776344
40
0.6
50
180
51
270
0
ARC
8
0
10
200.1462333
20
-145.8776344
40
0.6
50
270
51
0
0
ARC
8
0
10
200.1462333
20
-133.2776344
40
0.6
50
0
51
90
0
LINE
8
0
10
236.4862333
20
-194.8272011
11
218.7062333
21
-194.8272011
0
LINE
8
0
10
218.2062333
20
-195.3272011
11
218.2062333
21
-228.3472011
0
LINE
8
0
10
236.9862333
20
-228.3472011
11
236.9862333
21
-195.3272011
0
ARC
8
0
10
218.7062333
20
-195.3272011
40
0.5
50
90
51
180
0
ARC
8
0
10
236.4862333
20
-195.3272011
40
0.5
50
0
51
90
0
LINE
8
0
10
219.9066979
20
-153.8789022
11
235.2857687
21
-153.8789022
0
LINE
8
0
10
240.1162333
20
-161.5134615
11
240.1162333
21
-168.2125165
0
LINE
8
0
10
239.1162333
20
-169.2125165
11
216.0762333
21
-169.2125165
0
LINE
8
0
10
215.0762333
20
-168.2125165
11
215.0762333
21
-161.5134615
0
LINE
8
0
10
236.1517941
20
-154.3789022
11
239.9822587
21
-161.0134615
0
LINE
8
0
10
215.2102079
20
-161.0134615
11
219.0406725
21
-154.3789022
0
ARC
8
0
10
235.2857687
20
-154.8789022
40
1
50
30.0000001
51
90
0
ARC
8
0
10
239.1162333
20
-161.5134615
40
1
50
0
51
30.0000001
0
ARC
8
0
10
239.1162333
20
-168.2125165
40
1
50
270
51
0
0
ARC
8
0
10
216.0762333
20
-168.2125165
40
1
50
180
51
270
0
ARC
8
0
10
216.0762333
20
-161.5134615
40
1
50
149.9999999
51
180
0
ARC
8
0
10
219.9066979
20
-154.8789022
40
1
50
90
51
149.9999999
0
LINE
8
0
10
275.0837916
20
-126.0970871
11
276.4837916
21
-126.9055871
0
LINE
8
0
10
276.7837333
20
-127.4251687
11
276.7837333
21
-129.0424381
0
LINE
8
0
10
276.4837916
20
-129.5620197
11
275.0837916
21
-130.3705197
0
LINE
8
0
10
274.483675
20
-130.3705197
11
273.083675
21
-129.5620197
0
LINE
8
0
10
272.7837333
20
-129.0424381
11
272.7837333
21
-127.4251687
0
LINE
8
0
10
273.083675
20
-126.9055871
11
274.483675
21
-126.0970871
0
ARC
8
0
10
276.1837333
20
-127.4251687
40
0.6
50
0
51
59.9935697
0
ARC
8
0
10
276.1837333
20
-129.0424381
40
0.6
50
300.0064303
51
0
0
ARC
8
0
10
274.7837333
20
-129.8509381
40
0.6
50
239.9935697
51
300.0064303
0
ARC
8
0
10
273.3837333
20
-129.0424381
40
0.6
50
180
51
239.9935697
0
ARC
8
0
10
273.3837333
20
-127.4251687
40
0.6
50
120.0064303
51
180
0
ARC
8
0
10
274.7837333
20
-126.6166687
40
0.6
50
59.9935697
51
120.0064303
0
LINE
8
0
10
231.8962916
20
-147.1116848
11
233.2962916
21
-147.9201848
0
LINE
8
0
10
233.5962333
20
-148.4397664
11
233.5962333
21
-150.0570358
0
LINE
8
0
10
233.2962916
20
-150.5766174
11
231.8962916
21
-151.3851174
0
LINE
8
0
10
231.296175
20
-151.3851174
11
229.896175
21
-150.5766174
0
LINE
8
0
10
229.5962333
20
-150.0570358
11
229.5962333
21
-148.4397664
0
LINE
8
0
10
229.896175
20
-147.9201848
11
231.296175
21
-147.1116848
0
ARC
8
0
10
232.9962333
20
-148.4397664
40
0.6
50
0
51
59.9935697
0
ARC
8
0
10
232.9962333
20
-150.0570358
40
0.6
50
300.0064303
51
0
0
ARC
8
0
10
231.5962333
20
-150.8655358
40
0.6
50
239.9935697
51
300.0064303
0
ARC
8
0
10
230.1962333
20
-150.0570358
40
0.6
50
180
51
239.9935697
0
ARC
8
0
10
230.1962333
20
-148.4397664
40
0.6
50
120.0064303
51
180
0
ARC
8
0
10
231.5962333
20
-147.6312664
40
0.6
50
59.9935697
51
120.0064303
0
LINE
8
0
10
242.8337916
20
-210.7300181
11
244.2337916
21
-211.5385181
0
LINE
8
0
10
244.5337333
20
-212.0580997
11
244.5337333
21
-213.6753691
0
LINE
8
0
10
244.2337916
20
-214.1949507
11
242.8337916
21
-215.0034507
0
LINE
8
0
10
242.233675
20
-215.0034507
11
240.833675
21
-214.1949507
0
LINE
8
0
10
240.5337333
20
-213.6753691
11
240.5337333
21
-212.0580997
0
LINE
8
0
10
240.833675
20
-211.5385181
11
242.233675
21
-210.7300181
0
ARC
8
0
10
243.9337333
20
-212.0580997
40
0.6
50
0
51
59.9935697
0
ARC
8
0
10
243.9337333
20
-213.6753691
40
0.6
50
300.0064303
51
0
0
ARC
8
0
10
242.5337333
20
-214.4838691
40
0.6
50
239.9935697
51
300.0064303
0
ARC
8
0
10
241.1337333
20
-213.6753691
40
0.6
50
180
51
239.9935697
0
ARC
8
0
10
241.1337333
20
-212.0580997
40
0.6
50
120.0064303
51
180
0
ARC
8
0
10
242.5337333
20
-211.2495997
40
0.6
50
59.9935697
51
120.0064303
0
LINE
8
0
10
180.7087916
20
-126.0970871
11
182.1087916
21
-126.9055871
0
LINE
8
0
10
182.4087333
20
-127.4251687
11
182.4087333
21
-129.0424381
0
LINE
8
0
10
182.1087916
20
-129.5620197
11
180.7087916
21
-130.3705197
0
LINE
8
0
10
180.108675
20
-130.3705197
11
178.708675
21
-129.5620197
0
LINE
8
0
10
178.4087333
20
-129.0424381
11
178.4087333
21
-127.4251687
0
LINE
8
0
10
178.708675
20
-126.9055871
11
180.108675
21
-126.0970871
0
ARC
8
0
10
181.8087333
20
-127.4251687
40
0.6
50
0
51
59.9935697
0
ARC
8
0
10
181.8087333
20
-129.0424381
40
0.6
50
300.0064303
51
0
0
ARC
8
0
10
180.4087333
20
-129.8509381
40
0.6
50
239.9935697
51
300.0064303
0
ARC
8
0
10
179.0087333
20
-129.0424381
40
0.6
50
180
51
239.9935697
0
ARC
8
0
10
179.0087333
20
-127.4251687
40
0.6
50
120.0064303
51
180
0
ARC
8
0
10
180.4087333
20
-126.6166687
40
0.6
50
59.9935697
51
120.0064303
0
LINE
8
0
10
223.8962916
20
-147.1116848
11
225.2962916
21
-147.9201848
0
LINE
8
0
10
225.5962333
20
-148.4397664
11
225.5962333
21
-150.0570358
0
LINE
8
0
10
225.2962916
20
-150.5766174
11
223.8962916
21
-151.3851174
0
LINE
8
0
10
223.296175
20
-151.3851174
11
221.896175
21
-150.5766174
0
LINE
8
0
10
221.5962333
20
-150.0570358
11
221.5962333
21
-148.4397664
0
LINE
8
0
10
221.896175
20
-147.9201848
11
223.296175
21
-147.1116848
0
ARC
8
0
10
224.9962333
20
-148.4397664
40
0.6
50
0
51
59.9935697
0
ARC
8
0
10
224.9962333
20
-150.0570358
40
0.6
50
300.0064303
51
0
0
ARC
8
0
10
223.5962333
20
-150.8655358
40
0.6
50
239.9935697
51
300.0064303
0
ARC
8
0
10
222.1962333
20
-150.0570358
40
0.6
50
180
51
239.9935697
0
ARC
8
0
10
222.1962333
20
-148.4397664
40
0.6
50
120.0064303
51
180
0
ARC
8
0
10
223.5962333
20
-147.6312664
40
0.6
50
59.9935697
51
120.0064303
0
LINE
8
0
10
212.9587916
20
-210.7300181
11
214.3587916
21
-211.5385181
0
LINE
8
0
10
214.6587333
20
-212.0580997
11
214.6587333
21
-213.6753691
0
LINE
8
0
10
214.3587916
20
-214.1949507
11
212.9587916
21
-215.0034507
0
LINE
8
0
10
212.358675
20
-215.0034507
11
210.958675
21
-214.1949507
0
LINE
8
0
10
210.6587333
20
-213.6753691
11
210.6587333
21
-212.0580997
0
LINE
8
0
10
210.958675
20
-211.5385181
11
212.358675
21
-210.7300181
0
ARC
8
0
10
214.0587333
20
-212.0580997
40
0.6
50
0
51
59.9935697
0
ARC
8
0
10
214.0587333
20
-213.6753691
40
0.6
50
300.0064303
51
0
0
ARC
8
0
10
212.6587333
20
-214.4838691
40
0.6
50
239.9935697
51
300.0064303
0
ARC
8
0
10
211.2587333
20
-213.6753691
40
0.6
50
180
51
239.9935697
0
ARC
8
0
10
211.2587333
20
-212.0580997
40
0.6
50
120.0064303
51
180
0
ARC
8
0
10
212.6587333
20
-211.2495997
40
0.6
50
59.9935697
51
120.0064303
0
LINE
8
0
10
170.1162066
20
-248.145065
11
150.1162588
21
-259.692303
0
LINE
8
0
10
147.1162078
20
-259.692303
11
127.11626
21
-248.145065
0
LINE
8
0
10
124.1162072
20
-248.1450661
11
105.6162609
21
-258.8262753
0
LINE
8
0
10
102.6162057
20
-258.8262751
11
84.3862055
21
-248.3009197
0
LINE
8
0
10
82.8862333
20
-245.7028595
11
82.8862333
21
-245.4924401
0
LINE
8
0
10
82.8862333
20
-237.2757735
11
82.8862333
21
-237.0653544
0
LINE
8
0
10
84.3862059
20
-234.467294
11
92.1362607
21
-229.9926887
0
LINE
8
0
10
93.6362333
20
-227.3946283
11
93.6362333
21
-214.9812544
0
LINE
8
0
10
95.1362059
20
-212.383194
11
102.8862607
21
-207.9085887
0
LINE
8
0
10
104.3862333
20
-205.3105283
11
104.3862333
21
-196.3612544
0
LINE
8
0
10
105.8862059
20
-193.763194
11
113.6362607
21
-189.2885887
0
LINE
8
0
10
115.1362333
20
-186.6905283
11
115.1362333
21
-177.7412544
0
LINE
8
0
10
116.6362059
20
-175.143194
11
124.3862607
21
-170.6685887
0
LINE
8
0
10
125.8862333
20
-168.0705283
11
125.8862333
21
-155.6145402
0
LINE
8
0
10
128.8862333
20
-152.6145402
11
139.2262333
21
-152.6145401
0
LINE
8
0
10
158.0062333
20
-152.6145401
11
168.3462333
21
-152.6145402
0
LINE
8
0
10
171.3462333
20
-155.6145402
11
171.3462333
21
-168.0705283
0
LINE
8
0
10
172.8462059
20
-170.6685887
11
180.5962607
21
-175.143194
0
LINE
8
0
10
182.0962333
20
-177.7412544
11
182.0962333
21
-186.6905283
0
LINE
8
0
10
183.5962059
20
-189.2885887
11
191.3462607
21
-193.763194
0
LINE
8
0
10
192.8462333
20
-196.3612544
11
192.8462333
21
-205.3105283
0
LINE
8
0
10
194.3462059
20
-207.9085887
11
202.0962607
21
-212.383194
0
LINE
8
0
10
203.5962333
20
-214.9812544
11
203.5962333
21
-227.3946283
0
LINE
8
0
10
205.0962059
20
-229.9926887
11
212.8462607
21
-234.467294
0
LINE
8
0
10
214.3462333
20
-237.0653544
11
214.3462333
21
-237.2757735
0
LINE
8
0
10
214.3462333
20
-245.4924401
11
214.3462333
21
-245.7028595
0
LINE
8
0
10
212.8462611
20
-248.3009197
11
194.6162609
21
-258.8262751
0
LINE
8
0
10
191.6162057
20
-258.8262753
11
173.1162594
21
-248.1450661
0
ARC
8
0
10
148.6162333
20
-257.0942415
40
3
50
239.9994378
51
300.0005622
0
ARC
8
0
10
125.6162345
20
-250.7431265
40
3
50
59.9994378
51
120.0006035
0
ARC
8
0
10
104.1162336
20
-256.2282149
40
3
50
239.9993866
51
300.0006035
0
ARC
8
0
10
85.8862333
20
-245.7028595
40
3
50
180
51
239.9993866
0
ARC
8
0
10
85.8862333
20
-237.0653544
40
3
50
120.0006035
51
180
0
ARC
8
0
10
90.6362333
20
-227.3946283
40
3
50
300.0006035
51
0
0
ARC
8
0
10
96.6362333
20
-214.9812544
40
3
50
120.0006035
51
180
0
ARC
8
0
10
101.3862333
20
-205.3105283
40
3
50
300.0006035
51
0
0
ARC
8
0
10
107.3862333
20
-196.3612544
40
3
50
120.0006035
51
180
0
ARC
8
0
10
112.1362333
20
-186.6905283
40
3
50
300.0006035
51
0
0
ARC
8
0
10
118.1362333
20
-177.7412544
40
3
50
120.0006035
51
180
0
ARC
8
0
10
122.8862333
20
-168.0705283
40
3
50
300.0006035
51
0
0
ARC
8
0
10
128.8862333
20
-155.6145402
40
3
50
90
51
180
0
ARC
8
0
10
168.3462333
20
-155.6145402
40
3
50
0
51
90
0
ARC
8
0
10
174.3462333
20
-168.0705283
40
3
50
180
51
239.9993965
0
ARC
8
0
10
179.0962333
20
-177.7412544
40
3
50
0
51
59.9993965
0
ARC
8
0
10
185.0962333
20
-186.6905283
40
3
50
180
51
239.9993965
0
ARC
8
0
10
189.8462333
20
-196.3612544
40
3
50
0
51
59.9993965
0
ARC
8
0
10
195.8462333
20
-205.3105283
40
3
50
180
51
239.9993965
0
ARC
8
0
10
200.5962333
20
-214.9812544
40
3
50
0
51
59.9993965
0
ARC
8
0
10
206.5962333
20
-227.3946283
40
3
50
180
51
239.9993965
0
ARC
8
0
10
211.3462333
20
-237.0653544
40
3
50
0
51
59.9993965
0
ARC
8
0
10
211.3462333
20
-245.7028595
40
3
50
300.0006134
51
0
0
ARC
8
0
10
193.116233
20
-256.2282149
40
3
50
239.9993965
51
300.0006134
0
ARC
8
0
10
171.6162321
20
-250.7431265
40
3
50
59.9993965
51
120.0005622
0
LINE
8
0
10
139.7262333
20
-186.1345401
11
157.5062333
21
-186.1345401
0
LINE
8
0
10
158.0062333
20
-185.6345401
11
158.0062333
21
-152.6145401
0
LINE
8
0
10
139.2262333
20
-152.6145401
11
139.2262333
21
-185.6345401
0
ARC
8
0
10
157.5062333
20
-185.6345401
40
0.5
50
270
51
0
0
ARC
8
0
10
139.7262333
20
-185.6345401
40
0.5
50
180
51
270
0
LINE
8
0
10
156.3057687
20
-227.082839
11
140.9266979
21
-227.082839
0
LINE
8
0
10
136.0962333
20
-219.4482797
11
136.0962333
21
-212.7492247
0
LINE
8
0
10
137.0962333
20
-211.7492247
11
160.1362333
21
-211.7492247
0
LINE
8
0
10
161.1362333
20
-212.7492247
11
161.1362333
21
-219.4482797
0
LINE
8
0
10
140.0606725
20
-226.582839
11
136.2302079
21
-219.9482797
0
LINE
8
0
10
161.0022587
20
-219.9482797
11
157.1717941
21
-226.582839
0
ARC
8
0
10
140.9266979
20
-226.082839
40
1
50
210.0000001
51
270
0
ARC
8
0
10
137.0962333
20
-219.4482797
40
1
50
180
51
210.0000001
0
ARC
8
0
10
137.0962333
20
-212.7492247
40
1
50
90
51
180
0
ARC
8
0
10
160.1362333
20
-212.7492247
40
1
50
0
51
90
0
ARC
8
0
10
160.1362333
20
-219.4482797
40
1
50
329.9999999
51
0
0
ARC
8
0
10
156.3057687
20
-226.082839
40
1
50
270
51
329.9999999
0
LINE
8
0
10
119.0319402
20
-185.8559036
11
129.7869402
21
-204.48411
0
LINE
8
0
10
132.1955264
20
-178.2559036
11
140.4655513
21
-192.5800068
0
ARC
8
0
10
125.6162333
20
-182.0602337
40
7.6
50
30.0376946
51
209.9623054
0
ARC
8
0
10
136.3662333
20
-200.6797799
40
7.6
50
210.0376946
51
269.9623054
0
LINE
8
0
10
136.3612333
20
-208.2800068
11
160.8712333
21
-208.2800068
0
LINE
8
0
10
141.3315767
20
-193.0800068
11
160.8712333
21
-193.0800068
0
LINE
8
0
10
136.3612333
20
-208.2797783
11
136.3612333
21
-208.2800068
0
ARC
8
0
10
160.8662333
20
-200.6800068
40
7.6
50
270.0376946
51
449.9623054
0
ARC
8
0
10
141.3315767
20
-192.0800068
40
1
50
210.0000001
51
270
0
CIRCLE
8
0
10
171.6162333
20
-182.0600068
40
7.6
0
LINE
8
0
10
108.2819402
20
-204.4759036
11
117.8822587
21
-221.104143
0
LINE
8
0
10
121.4455264
20
-196.8759036
11
132.2005264
21
-215.50411
0
ARC
8
0
10
114.8662333
20
-200.6802337
40
7.6
50
30.0376946
51
209.9623054
0
ARC
8
0
10
125.6162333
20
-219.2997799
40
7.6
50
360.035984
51
29.9623054
0
LINE
8
0
10
97.5319402
20
-226.5600036
11
108.2869402
21
-245.18821
0
LINE
8
0
10
111.8502079
20
-220.9599706
11
121.4505264
21
-237.58821
0
ARC
8
0
10
104.1162333
20
-222.7643337
40
7.6
50
180.035984
51
209.9623054
0
ARC
8
0
10
114.8662333
20
-241.3838799
40
7.6
50
210.0376946
51
29.9623054
0
LINE
8
0
10
119.0319402
20
-226.5600036
11
129.7869402
21
-245.18821
0
LINE
8
0
10
133.3502079
20
-220.9599706
11
142.9505264
21
-237.58821
0
ARC
8
0
10
125.6162333
20
-222.7643337
40
7.6
50
180.035984
51
209.9623054
0
ARC
8
0
10
136.3662333
20
-241.3838799
40
7.6
50
210.0376946
51
29.9623054
0
LINE
8
0
10
179.3502079
20
-221.104143
11
188.9505264
21
-204.4759036
0
LINE
8
0
10
165.0319402
20
-215.50411
11
175.7869402
21
-196.8759036
0
ARC
8
0
10
171.6162333
20
-219.2997799
40
7.6
50
150.0376946
51
179.964016
0
ARC
8
0
10
182.3662333
20
-200.6802337
40
7.6
50
330.0376946
51
149.9623054
0
LINE
8
0
10
188.9455264
20
-245.18821
11
199.7005264
21
-226.5600036
0
LINE
8
0
10
175.7819402
20
-237.58821
11
185.3822587
21
-220.9599706
0
ARC
8
0
10
182.3662333
20
-241.3838799
40
7.6
50
150.0376946
51
329.9623054
0
ARC
8
0
10
193.1162333
20
-222.7643337
40
7.6
50
330.0376946
51
359.964016
0
LINE
8
0
10
167.4455264
20
-245.18821
11
178.2005264
21
-226.5600036
0
LINE
8
0
10
154.2819402
20
-237.58821
11
163.8822587
21
-220.9599706
0
ARC
8
0
10
160.8662333
20
-241.3838799
40
7.6
50
150.0376946
51
329.9623054
0
ARC
8
0
10
171.6162333
20
-222.7643337
40
7.6
50
330.0376946
51
359.964016
0
LINE
8
0
10
96.5162333
20
-222.7691068
11
96.5162333
21
-219.2950068
0
LINE
8
0
10
111.7162333
20
-219.2950068
11
111.7162333
21
-220.4599706
0
ARC
8
0
10
104.1162333
20
-219.3000068
40
7.6
50
0.0376946
51
179.9623054
0
LINE
8
0
10
118.0162333
20
-222.7691068
11
118.0162333
21
-221.604143
0
LINE
8
0
10
133.2162333
20
-220.4599706
11
133.2162333
21
-219.2950068
0
LINE
8
0
10
185.5162333
20
-219.2950068
11
185.5162333
21
-220.4599706
0
LINE
8
0
10
200.7162333
20
-222.7691068
11
200.7162333
21
-219.2950068
0
ARC
8
0
10
193.1162333
20
-219.3000068
40
7.6
50
0.0376946
51
179.9623054
0
LINE
8
0
10
164.0162333
20
-220.4599706
11
164.0162333
21
-219.2950068
0
LINE
8
0
10
179.2162333
20
-222.7691068
11
179.2162333
21
-221.604143
0
ARC
8
0
10
163.0162333
20
-220.4599706
40
1
50
329.9999999
51
0
0
ARC
8
0
10
180.2162333
20
-221.604143
40
1
50
149.9999999
51
180
0
ARC
8
0
10
117.0162333
20
-221.604143
40
1
50
0
51
30.0000001
0
ARC
8
0
10
134.2162333
20
-220.4599706
40
1
50
180
51
210.0000001
0
ARC
8
0
10
184.5162333
20
-220.4599706
40
1
50
329.9999999
51
0
0
ARC
8
0
10
112.7162333
20
-220.4599706
40
1
50
180
51
210.0000001
0
ARC
8
0
10
93.3662333
20
-241.3841068
40
7.6
50
206.6010033
51
153.3989967
0
ARC
8
0
10
203.8662333
20
-241.3841068
40
7.6
50
26.6010033
51
333.3989967
0
LINE
8
0
10
84.4612333
20
-243.9174401
11
85.1624401
21
-243.9174401
0
LINE
8
0
10
85.1624401
20
-238.8507735
11
84.4612333
21
-238.8507735
0
LINE
8
0
10
212.0700265
20
-243.9174401
11
212.7712333
21
-243.9174401
0
LINE
8
0
10
212.7712333
20
-238.8507735
11
212.0700265
21
-238.8507735
0
ARC
8
0
10
85.1624401
20
-237.2757735
40
1.575
50
270
51
333.3989967
0
ARC
8
0
10
84.4612333
20
-237.2757735
40
1.575
50
180
51
270
0
ARC
8
0
10
84.4612333
20
-245.4924401
40
1.575
50
90
51
180
0
ARC
8
0
10
85.1624401
20
-245.4924401
40
1.575
50
26.6010033
51
90
0
ARC
8
0
10
212.0700265
20
-245.4924401
40
1.575
50
90
51
153.3989967
0
ARC
8
0
10
212.7712333
20
-245.4924401
40
1.575
50
0
51
90
0
ARC
8
0
10
212.7712333
20
-237.2757735
40
1.575
50
270
51
0
0
ARC
8
0
10
212.0700265
20
-237.2757735
40
1.575
50
206.6010033
51
270
0
CIRCLE
8
0
10
101.4287333
20
-252.7279378
40
1.6
0
CIRCLE
8
0
10
144.6162333
20
-231.7133401
40
1.6
0
CIRCLE
8
0
10
133.6787333
20
-168.0950068
40
1.6
0
CIRCLE
8
0
10
195.8037333
20
-252.7279378
40
1.6
0
CIRCLE
8
0
10
152.6162333
20
-231.7133401
40
1.6
0
CIRCLE
8
0
10
163.5537333
20
-168.0950068
40
1.6
0
LINE
8
0
10
328.0762066
20
-248.145065
11
308.0762588
21
-259.692303
0
LINE
8
0
10
305.0762078
20
-259.692303
11
285.07626
21
-248.145065
0
LINE
8
0
10
282.0762072
20
-248.1450661
11
263.5762609
21
-258.8262753
0
LINE
8
0
10
260.5762057
20
-258.8262751
11
242.3462055
21
-248.3009197
0
LINE
8
0
10
240.8462333
20
-245.7028595
11
240.8462333
21
-245.4924401
0
LINE
8
0
10
240.8462333
20
-237.2757735
11
240.8462333
21
-237.0653544
0
LINE
8
0
10
242.3462059
20
-234.467294
11
250.0962607
21
-229.9926887
0
LINE
8
0
10
251.5962333
20
-227.3946283
11
251.5962333
21
-214.9812544
0
LINE
8
0
10
253.0962059
20
-212.383194
11
260.8462607
21
-207.9085887
0
LINE
8
0
10
262.3462333
20
-205.3105283
11
262.3462333
21
-196.3612544
0
LINE
8
0
10
263.8462059
20
-193.763194
11
271.5962607
21
-189.2885887
0
LINE
8
0
10
273.0962333
20
-186.6905283
11
273.0962333
21
-177.7412544
0
LINE
8
0
10
274.5962059
20
-175.143194
11
282.3462607
21
-170.6685887
0
LINE
8
0
10
283.8462333
20
-168.0705283
11
283.8462333
21
-155.6145402
0
LINE
8
0
10
286.8462333
20
-152.6145402
11
297.1862333
21
-152.6145401
0
LINE
8
0
10
315.9662333
20
-152.6145401
11
326.3062333
21
-152.6145402
0
LINE
8
0
10
329.3062333
20
-155.6145402
11
329.3062333
21
-168.0705283
0
LINE
8
0
10
330.8062059
20
-170.6685887
11
338.5562607
21
-175.143194
0
LINE
8
0
10
340.0562333
20
-177.7412544
11
340.0562333
21
-186.6905283
0
LINE
8
0
10
341.5562059
20
-189.2885887
11
349.3062607
21
-193.763194
0
LINE
8
0
10
350.8062333
20
-196.3612544
11
350.8062333
21
-205.3105283
0
LINE
8
0
10
352.3062059
20
-207.9085887
11
360.0562607
21
-212.383194
0
LINE
8
0
10
361.5562333
20
-214.9812544
11
361.5562333
21
-227.3946283
0
LINE
8
0
10
363.0562059
20
-229.9926887
11
370.8062607
21
-234.467294
0
LINE
8
0
10
372.3062333
20
-237.0653544
11
372.3062333
21
-237.2757735
0
LINE
8
0
10
372.3062333
20
-245.4924401
11
372.3062333
21
-245.7028595
0
LINE
8
0
10
370.8062611
20
-248.3009197
11
352.5762609
21
-258.8262751
0
LINE
8
0
10
349.5762057
20
-258.8262753
11
331.0762594
21
-248.1450661
0
ARC
8
0
10
306.5762333
20
-257.0942415
40
3
50
239.9994378
51
300.0005622
0
ARC
8
0
10
283.5762345
20
-250.7431265
40
3
50
59.9994378
51
120.0006035
0
ARC
8
0
10
262.0762336
20
-256.2282149
40
3
50
239.9993866
51
300.0006035
0
ARC
8
0
10
243.8462333
20
-245.7028595
40
3
50
180
51
239.9993866
0
ARC
8
0
10
243.8462333
20
-237.0653544
40
3
50
120.0006035
51
180
0
ARC
8
0
10
248.5962333
20
-227.3946283
40
3
50
300.0006035
51
0
0
ARC
8
0
10
254.5962333
20
-214.9812544
40
3
50
120.0006035
51
180
0
ARC
8
0
10
259.3462333
20
-205.3105283
40
3
50
300.0006035
51
0
0
ARC
8
0
10
265.3462333
20
-196.3612544
40
3
50
120.0006035
51
180
0
ARC
8
0
10
270.0962333
20
-186.6905283
40
3
50
300.0006035
51
0
0
ARC
8
0
10
276.0962333
20
-177.7412544
40
3
50
120.0006035
51
180
0
ARC
8
0
10
280.8462333
20
-168.0705283
40
3
50
300.0006035
51
0
0
ARC
8
0
10
286.8462333
20
-155.6145402
40
3
50
90
51
180
0
ARC
8
0
10
326.3062333
20
-155.6145402
40
3
50
0
51
90
0
ARC
8
0
10
332.3062333
20
-168.0705283
40
3
50
180
51
239.9993965
0
ARC
8
0
10
337.0562333
20
-177.7412544
40
3
50
0
51
59.9993965
0
ARC
8
0
10
343.0562333
20
-186.6905283
40
3
50
180
51
239.9993965
0
ARC
8
0
10
347.8062333
20
-196.3612544
40
3
50
0
51
59.9993965
0
ARC
8
0
10
353.8062333
20
-205.3105283
40
3
50
180
51
239.9993965
0
ARC
8
0
10
358.5562333
20
-214.9812544
40
3
50
0
51
59.9993965
0
ARC
8
0
10
364.5562333
20
-227.3946283
40
3
50
180
51
239.9993965
0
ARC
8
0
10
369.3062333
20
-237.0653544
40
3
50
0
51
59.9993965
0
ARC
8
0
10
369.3062333
20
-245.7028595
40
3
50
300.0006134
51
0
0
ARC
8
0
10
351.076233
20
-256.2282149
40
3
50
239.9993965
51
300.0006134
0
ARC
8
0
10
329.5762321
20
-250.7431265
40
3
50
59.9993965
51
120.0005622
0
LINE
8
0
10
297.6862333
20
-186.1345401
11
315.4662333
21
-186.1345401
0
LINE
8
0
10
315.9662333
20
-185.6345401
11
315.9662333
21
-152.6145401
0
LINE
8
0
10
297.1862333
20
-152.6145401
11
297.1862333
21
-185.6345401
0
ARC
8
0
10
315.4662333
20
-185.6345401
40
0.5
50
270
51
0
0
ARC
8
0
10
297.6862333
20
-185.6345401
40
0.5
50
180
51
270
0
LINE
8
0
10
314.2657687
20
-227.082839
11
298.8866979
21
-227.082839
0
LINE
8
0
10
294.0562333
20
-219.4482797
11
294.0562333
21
-212.7492247
0
LINE
8
0
10
295.0562333
20
-211.7492247
11
318.0962333
21
-211.7492247
0
LINE
8
0
10
319.0962333
20
-212.7492247
11
319.0962333
21
-219.4482797
0
LINE
8
0
10
298.0206725
20
-226.582839
11
294.1902079
21
-219.9482797
0
LINE
8
0
10
318.9622587
20
-219.9482797
11
315.1317941
21
-226.582839
0
ARC
8
0
10
298.8866979
20
-226.082839
40
1
50
210.0000001
51
270
0
ARC
8
0
10
295.0562333
20
-219.4482797
40
1
50
180
51
210.0000001
0
ARC
8
0
10
295.0562333
20
-212.7492247
40
1
50
90
51
180
0
ARC
8
0
10
318.0962333
20
-212.7492247
40
1
50
0
51
90
0
ARC
8
0
10
318.0962333
20
-219.4482797
40
1
50
329.9999999
51
0
0
ARC
8
0
10
314.2657687
20
-226.082839
40
1
50
270
51
329.9999999
0
LINE
8
0
10
276.9919402
20
-185.8559036
11
287.7469402
21
-204.48411
0
LINE
8
0
10
290.1555264
20
-178.2559036
11
298.4255513
21
-192.5800068
0
ARC
8
0
10
283.5762333
20
-182.0602337
40
7.6
50
30.0376946
51
209.9623054
0
ARC
8
0
10
294.3262333
20
-200.6797799
40
7.6
50
210.0376946
51
269.9623054
0
LINE
8
0
10
294.3212333
20
-208.2800068
11
318.8312333
21
-208.2800068
0
LINE
8
0
10
299.2915767
20
-193.0800068
11
318.8312333
21
-193.0800068
0
LINE
8
0
10
294.3212333
20
-208.2797783
11
294.3212333
21
-208.2800068
0
ARC
8
0
10
318.8262333
20
-200.6800068
40
7.6
50
270.0376946
51
449.9623054
0
ARC
8
0
10
299.2915767
20
-192.0800068
40
1
50
210.0000001
51
270
0
CIRCLE
8
0
10
329.5762333
20
-182.0600068
40
7.6
0
LINE
8
0
10
266.2419402
20
-204.4759036
11
275.8422587
21
-221.104143
0
LINE
8
0
10
279.4055264
20
-196.8759036
11
290.1605264
21
-215.50411
0
ARC
8
0
10
272.8262333
20
-200.6802337
40
7.6
50
30.0376946
51
209.9623054
0
ARC
8
0
10
283.5762333
20
-219.2997799
40
7.6
50
360.035984
51
29.9623054
0
LINE
8
0
10
255.4919402
20
-226.5600036
11
266.2469402
21
-245.18821
0
LINE
8
0
10
269.8102079
20
-220.9599706
11
279.4105264
21
-237.58821
0
ARC
8
0
10
262.0762333
20
-222.7643337
40
7.6
50
180.035984
51
209.9623054
0
ARC
8
0
10
272.8262333
20
-241.3838799
40
7.6
50
210.0376946
51
29.9623054
0
LINE
8
0
10
276.9919402
20
-226.5600036
11
287.7469402
21
-245.18821
0
LINE
8
0
10
291.3102079
20
-220.9599706
11
300.9105264
21
-237.58821
0
ARC
8
0
10
283.5762333
20
-222.7643337
40
7.6
50
180.035984
51
209.9623054
0
ARC
8
0
10
294.3262333
20
-241.3838799
40
7.6
50
210.0376946
51
29.9623054
0
LINE
8
0
10
337.3102079
20
-221.104143
11
346.9105264
21
-204.4759036
0
LINE
8
0
10
322.9919402
20
-215.50411
11
333.7469402
21
-196.8759036
0
ARC
8
0
10
329.5762333
20
-219.2997799
40
7.6
50
150.0376946
51
179.964016
0
ARC
8
0
10
340.3262333
20
-200.6802337
40
7.6
50
330.0376946
51
149.9623054
0
LINE
8
0
10
346.9055264
20
-245.18821
11
357.6605264
21
-226.5600036
0
LINE
8
0
10
333.7419402
20
-237.58821
11
343.3422587
21
-220.9599706
0
ARC
8
0
10
340.3262333
20
-241.3838799
40
7.6
50
150.0376946
51
329.9623054
0
ARC
8
0
10
351.0762333
20
-222.7643337
40
7.6
50
330.0376946
51
359.964016
0
LINE
8
0
10
325.4055264
20
-245.18821
11
336.1605264
21
-226.5600036
0
LINE
8
0
10
312.2419402
20
-237.58821
11
321.8422587
21
-220.9599706
0
ARC
8
0
10
318.8262333
20
-241.3838799
40
7.6
50
150.0376946
51
329.9623054
0
ARC
8
0
10
329.5762333
20
-222.7643337
40
7.6
50
330.0376946
51
359.964016
0
LINE
8
0
10
254.4762333
20
-222.7691068
11
254.4762333
21
-219.2950068
0
LINE
8
0
10
269.6762333
20
-219.2950068
11
269.6762333
21
-220.4599706
0
ARC
8
0
10
262.0762333
20
-219.3000068
40
7.6
50
0.0376946
51
179.9623054
0
LINE
8
0
10
275.9762333
20
-222.7691068
11
275.9762333
21
-221.604143
0
LINE
8
0
10
291.1762333
20
-220.4599706
11
291.1762333
21
-219.2950068
0
LINE
8
0
10
343.4762333
20
-219.2950068
11
343.4762333
21
-220.4599706
0
LINE
8
0
10
358.6762333
20
-222.7691068
11
358.6762333
21
-219.2950068
0
ARC
8
0
10
351.0762333
20
-219.3000068
40
7.6
50
0.0376946
51
179.9623054
0
LINE
8
0
10
321.9762333
20
-220.4599706
11
321.9762333
21
-219.2950068
0
LINE
8
0
10
337.1762333
20
-222.7691068
11
337.1762333
21
-221.604143
0
ARC
8
0
10
320.9762333
20
-220.4599706
40
1
50
329.9999999
51
0
0
ARC
8
0
10
338.1762333
20
-221.604143
40
1
50
149.9999999
51
180
0
ARC
8
0
10
274.9762333
20
-221.604143
40
1
50
0
51
30.0000001
0
ARC
8
0
10
292.1762333
20
-220.4599706
40
1
50
180
51
210.0000001
0
ARC
8
0
10
342.4762333
20
-220.4599706
40
1
50
329.9999999
51
0
0
ARC
8
0
10
270.6762333
20
-220.4599706
40
1
50
180
51
210.0000001
0
ARC
8
0
10
251.3262333
20
-241.3841068
40
7.6
50
206.6010033
51
153.3989967
0
ARC
8
0
10
361.8262333
20
-241.3841068
40
7.6
50
26.6010033
51
333.3989967
0
LINE
8
0
10
242.4212333
20
-243.9174401
11
243.1224401
21
-243.9174401
0
LINE
8
0
10
243.1224401
20
-238.8507735
11
242.4212333
21
-238.8507735
0
LINE
8
0
10
370.0300265
20
-243.9174401
11
370.7312333
21
-243.9174401
0
LINE
8
0
10
370.7312333
20
-238.8507735
11
370.0300265
21
-238.8507735
0
ARC
8
0
10
243.1224401
20
-237.2757735
40
1.575
50
270
51
333.3989967
0
ARC
8
0
10
242.4212333
20
-237.2757735
40
1.575
50
180
51
270
0
ARC
8
0
10
242.4212333
20
-245.4924401
40
1.575
50
90
51
180
0
ARC
8
0
10
243.1224401
20
-245.4924401
40
1.575
50
26.6010033
51
90
0
ARC
8
0
10
370.0300265
20
-245.4924401
40
1.575
50
90
51
153.3989967
0
ARC
8
0
10
370.7312333
20
-245.4924401
40
1.575
50
0
51
90
0
ARC
8
0
10
370.7312333
20
-237.2757735
40
1.575
50
270
51
0
0
ARC
8
0
10
370.0300265
20
-237.2757735
40
1.575
50
206.6010033
51
270
0
CIRCLE
8
0
10
259.3887333
20
-252.7279378
40
1.6
0
CIRCLE
8
0
10
302.5762333
20
-231.7133401
40
1.6
0
CIRCLE
8
0
10
291.6387333
20
-168.0950068
40
1.6
0
CIRCLE
8
0
10
353.7637333
20
-252.7279378
40
1.6
0
CIRCLE
8
0
10
310.5762333
20
-231.7133401
40
1.6
0
CIRCLE
8
0
10
321.5137333
20
-168.0950068
40
1.6
0
LINE
8
0
10
334.7342133
20
-115.5716219
11
324.4976122
21
-97.8417121
0
LINE
8
0
10
324.4976128
20
-92.5716216
11
347.4362731
21
-52.8416209
0
LINE
8
0
10
352.0002005
20
-50.2066667
11
361.7924345
21
-50.2066667
0
LINE
8
0
10
366.3563607
20
-47.5717148
11
388.1403727
21
-9.8416186
0
LINE
8
0
10
392.7042989
20
-7.2066667
11
438.5818313
21
-7.2066667
0
LINE
8
0
10
443.1457599
20
-9.8416229
11
453.671088
21
-28.0716201
0
LINE
8
0
10
453.6710855
20
-33.341712
11
444.3005162
21
-49.5716186
0
LINE
8
0
10
444.3005162
20
-54.8417148
11
453.6710846
21
-71.0716198
0
LINE
8
0
10
453.6710855
20
-76.3417143
11
445.7946063
21
-89.9838552
0
LINE
8
0
10
445.7946063
20
-146.4294782
11
453.6710855
21
-160.0716191
0
LINE
8
0
10
453.6710846
20
-165.3417136
11
444.3005162
21
-181.5716186
0
LINE
8
0
10
444.3005162
20
-186.8417148
11
453.6710855
21
-203.0716214
0
LINE
8
0
10
453.671088
20
-208.3417133
11
443.1457599
21
-226.5717105
0
LINE
8
0
10
438.5818313
20
-229.2066667
11
392.7042989
21
-229.2066667
0
LINE
8
0
10
388.1403727
20
-226.5717148
11
366.3563607
21
-188.8416186
0
LINE
8
0
10
361.7924345
20
-186.2066667
11
352.0002005
21
-186.2066667
0
LINE
8
0
10
347.4362731
20
-183.5717125
11
324.4976128
21
-143.8417118
0
LINE
8
0
10
324.4976122
20
-138.5716213
11
334.7342133
21
-120.8417115
0
LINE
8
0
10
445.0885334
20
-143.7944317
11
445.0885334
21
-127.5966667
0
LINE
8
0
10
445.0885334
20
-108.8166667
11
445.0885334
21
-92.6189017
0
ARC
8
0
10
329.0615402
20
-95.2066674
40
5.27
50
149.999425
51
210.0005622
0
ARC
8
0
10
352.0002005
20
-55.4766667
40
5.27
50
90
51
149.999425
0
ARC
8
0
10
361.7924345
20
-44.9366667
40
5.27
50
270
51
329.9993965
0
ARC
8
0
10
392.7042989
20
-12.4766667
40
5.27
50
90
51
149.9993965
0
ARC
8
0
10
438.5818313
20
-12.4766667
40
5.27
50
30.0005495
51
90
0
ARC
8
0
10
449.1071594
20
-30.7066639
40
5.27
50
329.9993965
51
30.0005495
0
ARC
8
0
10
448.8644424
20
-52.2066667
40
5.27
50
149.9993965
51
210.0006035
0
ARC
8
0
10
449.1071584
20
-73.7066679
40
5.27
50
329.9994171
51
30.0006035
0
ARC
8
0
10
450.3585334
20
-92.6189017
40
5.27
50
149.9994171
51
180
0
ARC
8
0
10
450.3585334
20
-143.7944317
40
5.27
50
180
51
210.0005829
0
ARC
8
0
10
449.1071584
20
-162.7066655
40
5.27
50
329.9993965
51
30.0005829
0
ARC
8
0
10
448.8644424
20
-184.2066667
40
5.27
50
149.9993965
51
210.0006035
0
ARC
8
0
10
449.1071594
20
-205.7066695
40
5.27
50
329.9994505
51
30.0006035
0
ARC
8
0
10
438.5818313
20
-223.9366667
40
5.27
50
270
51
329.9994505
0
ARC
8
0
10
392.7042989
20
-223.9366667
40
5.27
50
210.0006035
51
270
0
ARC
8
0
10
361.7924345
20
-191.4766667
40
5.27
50
30.0006035
51
90
0
ARC
8
0
10
352.0002005
20
-180.9366667
40
5.27
50
210.000575
51
270
0
ARC
8
0
10
329.0615402
20
-141.206666
40
5.27
50
149.9994378
51
210.000575
0
ARC
8
0
10
330.1702852
20
-118.2066667
40
5.27
50
329.9994378
51
30.0005622
0
LINE
8
0
10
411.5685334
20
-109.3166667
11
411.5685334
21
-127.0966667
0
LINE
8
0
10
412.0685334
20
-127.5966667
11
445.0885334
21
-127.5966667
0
LINE
8
0
10
445.0885334
20
-108.8166667
11
412.0685334
21
-108.8166667
0
ARC
8
0
10
412.0685334
20
-127.0966667
40
0.5
50
180
51
270
0
ARC
8
0
10
412.0685334
20
-109.3166667
40
0.5
50
90
51
180
0
LINE
8
0
10
370.6202345
20
-125.8962021
11
370.6202345
21
-110.5171313
0
LINE
8
0
10
378.2547938
20
-105.6866667
11
384.9538488
21
-105.6866667
0
LINE
8
0
10
385.9538488
20
-106.6866667
11
385.9538488
21
-129.7266667
0
LINE
8
0
10
384.9538488
20
-130.7266667
11
378.2547938
21
-130.7266667
0
LINE
8
0
10
371.1202345
20
-109.6511059
11
377.7547938
21
-105.8206413
0
LINE
8
0
10
377.7547938
20
-130.5926921
11
371.1202345
21
-126.7622275
0
ARC
8
0
10
371.6202345
20
-110.5171313
40
1
50
120.0000001
51
180
0
ARC
8
0
10
378.2547938
20
-106.6866667
40
1
50
90
51
120.0000001
0
ARC
8
0
10
384.9538488
20
-106.6866667
40
1
50
0
51
90
0
ARC
8
0
10
384.9538488
20
-129.7266667
40
1
50
270
51
0
0
ARC
8
0
10
378.2547938
20
-129.7266667
40
1
50
239.9999999
51
270
0
ARC
8
0
10
371.6202345
20
-125.8962021
40
1
50
180
51
239.9999999
0
ARC
8
0
10
428.0564
20
-30.7066667
40
20.0133333
50
299.9993952
51
60.0006048
0
ARC
8
0
10
428.0564
20
-30.7066667
40
4.8133333
50
300.6861594
51
351.1228874
0
LINE
8
0
10
438.0628837
20
-48.0388274
11
438.0626001
21
-48.0383362
0
LINE
8
0
10
438.0627136
20
-13.3748008
11
438.0628837
21
-13.374506
0
ARC
8
0
10
428.0564
20
-73.7066667
40
20.0133333
50
299.9993952
51
60.0006048
0
ARC
8
0
10
428.0564
20
-73.7066667
40
4.8133333
50
300.5328263
51
351.1250755
0
LINE
8
0
10
438.0628837
20
-91.0388274
11
438.0627135
21
-91.0385327
0
LINE
8
0
10
438.0626569
20
-56.374899
11
438.0628837
21
-56.374506
0
ARC
8
0
10
428.0564
20
-205.7066667
40
20.0133333
50
299.9993952
51
60.0006048
0
ARC
8
0
10
428.0564
20
-205.7066667
40
4.8133333
50
8.8771126
51
59.3138406
0
LINE
8
0
10
438.0628837
20
-223.0388274
11
438.0627136
21
-223.0385326
0
LINE
8
0
10
438.0626001
20
-188.3749972
11
438.0628837
21
-188.374506
0
ARC
8
0
10
428.0564
20
-162.7066667
40
20.0133333
50
299.9993952
51
60.0006048
0
ARC
8
0
10
428.0564
20
-162.7066667
40
4.8133333
50
8.8749245
51
59.4671737
0
LINE
8
0
10
438.0628837
20
-180.0388274
11
438.0626569
21
-180.0384344
0
LINE
8
0
10
438.0627135
20
-145.3748007
11
438.0628837
21
-145.374506
0
LINE
8
0
10
430.4671699
20
-13.3723736
11
420.6127946
21
-19.0617999
0
LINE
8
0
10
431.3240557
20
-30.4290986
11
419.4389635
21
-37.2909598
0
ARC
8
0
10
434.2628398
20
-19.9566667
40
7.6
50
60.0010985
51
119.9623054
0
ARC
8
0
10
415.6432936
20
-30.7066667
40
7.6
50
179.9996163
51
299.9623054
0
LINE
8
0
10
430.4671699
20
-77.8723736
11
411.8389635
21
-88.6273736
0
LINE
8
0
10
438.0627135
20
-91.0385327
11
419.4389635
21
-101.7909598
0
ARC
8
0
10
434.2628398
20
-84.4566667
40
7.6
50
119.6620527
51
119.9623054
0
ARC
8
0
10
415.6432936
20
-95.2066667
40
7.6
50
120.0376946
51
299.9623054
0
LINE
8
0
10
420.6127946
20
-217.3515335
11
430.4671699
21
-223.0409598
0
LINE
8
0
10
419.4389635
20
-199.1223736
11
431.3240557
21
-205.9842348
0
ARC
8
0
10
415.6432936
20
-205.7066667
40
7.6
50
60.0376946
51
180.0003837
0
ARC
8
0
10
434.2628398
20
-216.4566667
40
7.6
50
240.0376946
51
299.9989015
0
LINE
8
0
10
411.8389635
20
-147.7859598
11
430.4671699
21
-158.5409598
0
LINE
8
0
10
419.4389635
20
-134.6223736
11
438.0627135
21
-145.3748007
0
ARC
8
0
10
415.6432936
20
-141.2066667
40
7.6
50
60.0376946
51
239.9623054
0
ARC
8
0
10
434.2628398
20
-151.9566667
40
7.6
50
240.0376946
51
240.3379473
0
LINE
8
0
10
384.453225
20
-39.937882
11
357.9791574
21
-55.2226921
0
LINE
8
0
10
400.826943
20
-48.0359598
11
363.5791904
21
-69.5409598
0
ARC
8
0
10
397.0226129
20
-41.4566667
40
7.6
50
300.0376946
51
59.9964317
0
ARC
8
0
10
359.7835205
20
-62.9566667
40
7.6
50
270.0342734
51
299.9623054
0
LINE
8
0
10
430.466943
20
-56.3723736
11
393.2191904
21
-77.8773736
0
LINE
8
0
10
431.3240781
20
-73.4289547
11
400.8191904
21
-91.0409598
0
ARC
8
0
10
434.2626129
20
-62.9566667
40
7.6
50
59.9996171
51
119.9623054
0
ARC
8
0
10
397.0235205
20
-84.4566667
40
7.6
50
120.0376946
51
299.9623054
0
LINE
8
0
10
357.9791574
20
-181.1906413
11
384.453225
21
-196.4754514
0
LINE
8
0
10
363.5791904
20
-166.8723736
11
400.826943
21
-188.3773736
0
ARC
8
0
10
359.7835205
20
-173.4566667
40
7.6
50
60.0376946
51
89.9657266
0
ARC
8
0
10
397.0226129
20
-194.9566667
40
7.6
50
300.0035683
51
59.9623054
0
LINE
8
0
10
393.2191904
20
-158.5359598
11
430.466943
21
-180.0409598
0
LINE
8
0
10
400.8191904
20
-145.3723736
11
431.3240781
21
-162.9843787
0
ARC
8
0
10
397.0235205
20
-151.9566667
40
7.6
50
60.0376946
51
239.9623054
0
ARC
8
0
10
434.2626129
20
-173.4566667
40
7.6
50
240.0376946
51
300.0003829
0
LINE
8
0
10
430.4667161
20
-34.8723736
11
374.5994173
21
-67.1273736
0
LINE
8
0
10
438.0626001
20
-48.0383362
11
382.1994173
21
-80.2909598
0
ARC
8
0
10
434.262386
20
-41.4566667
40
7.6
50
119.5619821
51
119.9623054
0
ARC
8
0
10
378.4037474
20
-73.7066667
40
7.6
50
120.0376946
51
299.9623054
0
LINE
8
0
10
374.5994173
20
-169.2859598
11
430.4667161
21
-201.5409598
0
LINE
8
0
10
382.1994173
20
-156.1223736
11
438.0626001
21
-188.3749972
0
ARC
8
0
10
378.4037474
20
-162.7066667
40
7.6
50
60.0376946
51
239.9623054
0
ARC
8
0
10
434.262386
20
-194.9566667
40
7.6
50
240.0376946
51
240.4380179
0
ARC
8
0
10
403.2297334
20
-30.7066667
40
20.0133333
50
36.5396372
51
203.4588056
0
ARC
8
0
10
403.2297334
20
-30.7066667
40
4.8133333
50
0.0006042
51
239.9993958
0
ARC
8
0
10
403.2297334
20
-205.7066667
40
20.0133333
50
156.5411944
51
323.4603628
0
ARC
8
0
10
403.2297334
20
-205.7066667
40
4.8133333
50
120.0006042
51
359.9993958
0
LINE
8
0
10
356.3139667
20
-70.5566667
11
359.7880667
21
-70.5566667
0
LINE
8
0
10
356.3139667
20
-55.3566667
11
357.4791574
21
-55.3566667
0
ARC
8
0
10
356.3189667
20
-62.9566667
40
7.6
50
90.0376946
51
269.9623054
0
LINE
8
0
10
356.3139667
20
-181.0566667
11
357.4791574
21
-181.0566667
0
LINE
8
0
10
356.3139667
20
-165.8566667
11
359.7880667
21
-165.8566667
0
ARC
8
0
10
356.3189667
20
-173.4566667
40
7.6
50
90.0376946
51
269.9623054
0
ARC
8
0
10
350.1123
20
-95.2066667
40
20.0133333
50
60.0006048
51
299.9993952
0
ARC
8
0
10
350.1123
20
-95.2066667
40
4.8133333
50
60.434735
51
299.565265
0
LINE
8
0
10
360.1187837
20
-112.5388274
11
360.1186703
21
-112.5386309
0
LINE
8
0
10
360.1186703
20
-77.8747025
11
360.1187837
21
-77.874506
0
ARC
8
0
10
350.1123
20
-141.2066667
40
20.0133333
50
60.0006048
51
299.9993952
0
ARC
8
0
10
350.1123
20
-141.2066667
40
4.8133333
50
60.434735
51
299.565265
0
LINE
8
0
10
360.1187837
20
-158.5388274
11
360.1186703
21
-158.5386309
0
LINE
8
0
10
360.1186703
20
-123.8747025
11
360.1187837
21
-123.874506
0
ARC
8
0
10
356.3189667
20
-84.4566667
40
7.6
50
239.7236816
51
60.0025802
0
ARC
8
0
10
356.3189667
20
-105.9566667
40
7.6
50
299.9974198
51
120.2763184
0
ARC
8
0
10
356.3189667
20
-151.9566667
40
7.6
50
299.9974198
51
120.2763184
0
ARC
8
0
10
356.3189667
20
-130.4566667
40
7.6
50
239.7236816
51
60.0025802
0
ARC
8
0
10
431.8240557
20
-205.1182094
40
1
50
239.9999999
51
8.8771126
0
ARC
8
0
10
357.4791574
20
-182.0566667
40
1
50
59.9999999
51
90
0
ARC
8
0
10
383.953225
20
-197.3414768
40
1
50
336.5411944
51
59.9999999
0
ARC
8
0
10
420.1127946
20
-218.2175589
40
1
50
59.9999999
51
143.4603628
0
ARC
8
0
10
420.1127946
20
-18.1957745
40
1
50
216.5396372
51
300.0000001
0
ARC
8
0
10
383.953225
20
-39.0718566
40
1
50
300.0000001
51
23.4588056
0
ARC
8
0
10
357.4791574
20
-54.3566667
40
1
50
270
51
300.0000001
0
ARC
8
0
10
431.8240557
20
-31.295124
40
1
50
351.1228874
51
120.0000001
0
ARC
8
0
10
431.8240781
20
-162.1183533
40
1
50
239.9999999
51
8.8749245
0
ARC
8
0
10
431.8240781
20
-74.2949801
40
1
50
351.1250755
51
120.0000001
0
CIRCLE
8
0
10
420.2980667
20
-11.8941667
40
1.6
0
CIRCLE
8
0
10
378.4030667
20
-36.0816667
40
1.6
0
CIRCLE
8
0
10
439.4697334
20
-51.2066667
40
1.6
0
CIRCLE
8
0
10
344.9751357
20
-71.0191667
40
1.6
0
CIRCLE
8
0
10
365.9897334
20
-114.2066667
40
1.6
0
CIRCLE
8
0
10
429.6080667
20
-103.2691667
40
1.6
0
CIRCLE
8
0
10
420.2980667
20
-224.5191667
40
1.6
0
CIRCLE
8
0
10
378.4030667
20
-200.3316667
40
1.6
0
CIRCLE
8
0
10
439.4697334
20
-185.2066667
40
1.6
0
CIRCLE
8
0
10
344.9751357
20
-165.3941667
40
1.6
0
CIRCLE
8
0
10
365.9897334
20
-122.2066667
40
1.6
0
CIRCLE
8
0
10
429.6080667
20
-133.1441667
40
1.6
0
ENDSEC
0
EOF