  0
SECTION
  2
HEADER
  9
$ANGBASE
  50
0.0
  9
$ANGDIR
  70
1
  9
$MEASUREMENT
  70
1
  0
ENDSEC
  0
SECTION
  2
TABLES
  0
TABLE
  2
LTYPE
  70
4
  0
LTYPE
  5
40F
  2
CONTINUOUS
  70
0
  3
Solid line
  72
65
  73
0
  40
0.0
  0
LTYPE
  5
410
  2
DASHDOT
 70
0
  3
Dash Dot ____ _ ____ _
 72
65
 73
4
 40
2.0
 49
1.25
 49
-0.25
 49
0.25
 49
-0.25
  0
LTYPE
  5
411
  2
DASHED
 70
0
  3
Dashed __ __ __ __ __
 72
65
 73
2
 40
0.75
 49
0.5
 49
-0.25
  0
LTYPE
  5
43B
  2
DOTTED
 70
0
  3
Dotted .  .  .  .
 72
65
 73
2
 40
0.2
 49
0.0
 49
-0.2
  0
ENDTAB
  0
TABLE
  2
STYLE
  70
4
  0
STYLE
  2
KICAD
  70
0
  40
0
  41
1
  42
1
  50
0
  71
0
  3
isocp.shx
  0
STYLE
  2
KICADB
  70
0
  40
0
  41
1
  42
1
  50
0
  71
0
  3
isocp.shx
  0
STYLE
  2
KICADI
  70
0
  40
0
  41
1
  42
1
  50
15
  71
0
  3
isocp.shx
  0
STYLE
  2
KICADBI
  70
0
  40
0
  41
1
  42
1
  50
15
  71
0
  3
isocp.shx
  0
ENDTAB
  0
TABLE
  2
LAYER
  70
1
  0
LAYER
  2
BLACK
  70
0
  62
7
  6
CONTINUOUS
  0
ENDTAB
  0
ENDSEC
  0
SECTION
  2
ENTITIES
0
LINE
8
BLACK
6
CONTINUOUS
10
232.675
20
-170.162
11
232.693
21
-170.204
0
LINE
8
BLACK
6
CONTINUOUS
10
232.693
20
-170.204
11
232.675
21
-170.247
0
LINE
8
BLACK
6
CONTINUOUS
10
232.675
20
-170.247
11
232.633
21
-170.264
0
LINE
8
BLACK
6
CONTINUOUS
10
232.633
20
-170.264
11
228.793
21
-170.264
0
LINE
8
BLACK
6
CONTINUOUS
10
228.793
20
-170.264
11
228.793
21
-172.144
0
LINE
8
BLACK
6
CONTINUOUS
10
228.793
20
-172.144
11
232.633
21
-172.144
0
LINE
8
BLACK
6
CONTINUOUS
10
232.633
20
-172.144
11
232.675
21
-172.162
0
LINE
8
BLACK
6
CONTINUOUS
10
232.675
20
-172.162
11
232.693
21
-172.204
0
LINE
8
BLACK
6
CONTINUOUS
10
232.693
20
-172.204
11
232.675
21
-172.247
0
LINE
8
BLACK
6
CONTINUOUS
10
232.675
20
-172.247
11
232.633
21
-172.264
0
LINE
8
BLACK
6
CONTINUOUS
10
232.633
20
-172.264
11
228.733
21
-172.264
0
LINE
8
BLACK
6
CONTINUOUS
10
228.733
20
-172.264
11
228.69
21
-172.247
0
LINE
8
BLACK
6
CONTINUOUS
10
228.69
20
-172.247
11
228.673
21
-172.204
0
LINE
8
BLACK
6
CONTINUOUS
10
228.673
20
-172.204
11
228.673
21
-170.204
0
LINE
8
BLACK
6
CONTINUOUS
10
228.673
20
-170.204
11
228.69
21
-170.162
0
LINE
8
BLACK
6
CONTINUOUS
10
228.69
20
-170.162
11
228.733
21
-170.144
0
LINE
8
BLACK
6
CONTINUOUS
10
228.733
20
-170.144
11
232.633
21
-170.144
0
LINE
8
BLACK
6
CONTINUOUS
10
232.633
20
-170.144
11
232.675
21
-170.162
0
LINE
8
BLACK
6
CONTINUOUS
10
235.017
20
-163.336
11
235.034
21
-163.342
0
LINE
8
BLACK
6
CONTINUOUS
10
235.034
20
-163.342
11
236.034
21
-164.255
0
LINE
8
BLACK
6
CONTINUOUS
10
236.034
20
-164.255
11
236.035
21
-164.257
0
LINE
8
BLACK
6
CONTINUOUS
10
236.035
20
-164.257
11
236.037
21
-164.258
0
LINE
8
BLACK
6
CONTINUOUS
10
236.037
20
-164.258
11
236.043
21
-164.274
0
LINE
8
BLACK
6
CONTINUOUS
10
236.043
20
-164.274
11
236.05
21
-164.289
0
LINE
8
BLACK
6
CONTINUOUS
10
236.05
20
-164.289
11
236.049
21
-164.292
0
LINE
8
BLACK
6
CONTINUOUS
10
236.049
20
-164.292
11
236.05
21
-164.294
0
LINE
8
BLACK
6
CONTINUOUS
10
236.05
20
-164.294
11
236.043
21
-164.309
0
LINE
8
BLACK
6
CONTINUOUS
10
236.043
20
-164.309
11
236.037
21
-164.325
0
LINE
8
BLACK
6
CONTINUOUS
10
236.037
20
-164.325
11
236.035
21
-164.326
0
LINE
8
BLACK
6
CONTINUOUS
10
236.035
20
-164.326
11
236.034
21
-164.329
0
LINE
8
BLACK
6
CONTINUOUS
10
236.034
20
-164.329
11
235.034
21
-165.241
0
LINE
8
BLACK
6
CONTINUOUS
10
235.034
20
-165.241
11
235.017
21
-165.247
0
LINE
8
BLACK
6
CONTINUOUS
10
235.017
20
-165.247
11
235
21
-165.254
0
LINE
8
BLACK
6
CONTINUOUS
10
235
20
-165.254
11
234.999
21
-165.254
0
LINE
8
BLACK
6
CONTINUOUS
10
234.999
20
-165.254
11
234.998
21
-165.254
0
LINE
8
BLACK
6
CONTINUOUS
10
234.998
20
-165.254
11
234.981
21
-165.246
0
LINE
8
BLACK
6
CONTINUOUS
10
234.981
20
-165.246
11
234.965
21
-165.239
0
LINE
8
BLACK
6
CONTINUOUS
10
234.965
20
-165.239
11
234.964
21
-165.238
0
LINE
8
BLACK
6
CONTINUOUS
10
234.964
20
-165.238
11
234.963
21
-165.238
0
LINE
8
BLACK
6
CONTINUOUS
10
234.963
20
-165.238
11
234.957
21
-165.221
0
LINE
8
BLACK
6
CONTINUOUS
10
234.957
20
-165.221
11
234.95
21
-165.204
0
LINE
8
BLACK
6
CONTINUOUS
10
234.95
20
-165.204
11
234.95
21
-163.379
0
LINE
8
BLACK
6
CONTINUOUS
10
234.95
20
-163.379
11
234.957
21
-163.362
0
LINE
8
BLACK
6
CONTINUOUS
10
234.957
20
-163.362
11
234.963
21
-163.345
0
LINE
8
BLACK
6
CONTINUOUS
10
234.963
20
-163.345
11
234.964
21
-163.345
0
LINE
8
BLACK
6
CONTINUOUS
10
234.964
20
-163.345
11
234.965
21
-163.344
0
LINE
8
BLACK
6
CONTINUOUS
10
234.965
20
-163.344
11
234.981
21
-163.337
0
LINE
8
BLACK
6
CONTINUOUS
10
234.981
20
-163.337
11
234.998
21
-163.329
0
LINE
8
BLACK
6
CONTINUOUS
10
234.998
20
-163.329
11
234.999
21
-163.33
0
LINE
8
BLACK
6
CONTINUOUS
10
234.999
20
-163.33
11
235
21
-163.329
0
LINE
8
BLACK
6
CONTINUOUS
10
235
20
-163.329
11
235.017
21
-163.336
0
LINE
8
BLACK
6
CONTINUOUS
10
234.48
20
-164.684
11
234.519
21
-164.717
0
LINE
8
BLACK
6
CONTINUOUS
10
234.519
20
-164.717
11
234.528
21
-164.767
0
LINE
8
BLACK
6
CONTINUOUS
10
234.528
20
-164.767
11
234.503
21
-164.812
0
LINE
8
BLACK
6
CONTINUOUS
10
234.503
20
-164.812
11
234.454
21
-164.829
0
LINE
8
BLACK
6
CONTINUOUS
10
234.454
20
-164.829
11
227.546
21
-164.829
0
LINE
8
BLACK
6
CONTINUOUS
10
227.546
20
-164.829
11
227.52
21
-164.825
0
LINE
8
BLACK
6
CONTINUOUS
10
227.52
20
-164.825
11
227.481
21
-164.792
0
LINE
8
BLACK
6
CONTINUOUS
10
227.481
20
-164.792
11
227.472
21
-164.741
0
LINE
8
BLACK
6
CONTINUOUS
10
227.472
20
-164.741
11
227.497
21
-164.697
0
LINE
8
BLACK
6
CONTINUOUS
10
227.497
20
-164.697
11
227.546
21
-164.679
0
LINE
8
BLACK
6
CONTINUOUS
10
227.546
20
-164.679
11
234.454
21
-164.679
0
LINE
8
BLACK
6
CONTINUOUS
10
234.454
20
-164.679
11
234.48
21
-164.684
0
LINE
8
BLACK
6
CONTINUOUS
10
234.48
20
-161.184
11
234.519
21
-161.217
0
LINE
8
BLACK
6
CONTINUOUS
10
234.519
20
-161.217
11
234.528
21
-161.267
0
LINE
8
BLACK
6
CONTINUOUS
10
234.528
20
-161.267
11
234.503
21
-161.312
0
LINE
8
BLACK
6
CONTINUOUS
10
234.503
20
-161.312
11
234.454
21
-161.329
0
LINE
8
BLACK
6
CONTINUOUS
10
234.454
20
-161.329
11
227.546
21
-161.329
0
LINE
8
BLACK
6
CONTINUOUS
10
227.546
20
-161.329
11
227.52
21
-161.325
0
LINE
8
BLACK
6
CONTINUOUS
10
227.52
20
-161.325
11
227.481
21
-161.292
0
LINE
8
BLACK
6
CONTINUOUS
10
227.481
20
-161.292
11
227.472
21
-161.241
0
LINE
8
BLACK
6
CONTINUOUS
10
227.472
20
-161.241
11
227.497
21
-161.197
0
LINE
8
BLACK
6
CONTINUOUS
10
227.497
20
-161.197
11
227.546
21
-161.179
0
LINE
8
BLACK
6
CONTINUOUS
10
227.546
20
-161.179
11
234.454
21
-161.179
0
LINE
8
BLACK
6
CONTINUOUS
10
234.454
20
-161.179
11
234.48
21
-161.184
0
LINE
8
BLACK
6
CONTINUOUS
10
191.48
20
-133.38
11
191.519
21
-133.412
0
LINE
8
BLACK
6
CONTINUOUS
10
191.519
20
-133.412
11
191.528
21
-133.463
0
LINE
8
BLACK
6
CONTINUOUS
10
191.528
20
-133.463
11
191.503
21
-133.507
0
LINE
8
BLACK
6
CONTINUOUS
10
191.503
20
-133.507
11
191.454
21
-133.525
0
LINE
8
BLACK
6
CONTINUOUS
10
191.454
20
-133.525
11
184.546
21
-133.525
0
LINE
8
BLACK
6
CONTINUOUS
10
184.546
20
-133.525
11
184.52
21
-133.52
0
LINE
8
BLACK
6
CONTINUOUS
10
184.52
20
-133.52
11
184.481
21
-133.487
0
LINE
8
BLACK
6
CONTINUOUS
10
184.481
20
-133.487
11
184.472
21
-133.437
0
LINE
8
BLACK
6
CONTINUOUS
10
184.472
20
-133.437
11
184.497
21
-133.393
0
LINE
8
BLACK
6
CONTINUOUS
10
184.497
20
-133.393
11
184.546
21
-133.375
0
LINE
8
BLACK
6
CONTINUOUS
10
184.546
20
-133.375
11
191.454
21
-133.375
0
LINE
8
BLACK
6
CONTINUOUS
10
191.454
20
-133.375
11
191.48
21
-133.38
0
LINE
8
BLACK
6
CONTINUOUS
10
246.338
20
-132.183
11
246.32
21
-132.141
0
LINE
8
BLACK
6
CONTINUOUS
10
246.32
20
-132.141
11
246.32
21
-129.391
0
LINE
8
BLACK
6
CONTINUOUS
10
246.32
20
-129.391
11
246.338
21
-129.349
0
LINE
8
BLACK
6
CONTINUOUS
10
246.338
20
-129.349
11
246.38
21
-129.331
0
LINE
8
BLACK
6
CONTINUOUS
10
246.38
20
-129.331
11
253.841
21
-129.331
0
LINE
8
BLACK
6
CONTINUOUS
10
253.841
20
-129.331
11
253.884
21
-129.349
0
LINE
8
BLACK
6
CONTINUOUS
10
253.884
20
-129.349
11
253.901
21
-129.391
0
LINE
8
BLACK
6
CONTINUOUS
10
253.901
20
-129.391
11
253.901
21
-132.141
0
LINE
8
BLACK
6
CONTINUOUS
10
253.901
20
-132.141
11
253.884
21
-132.183
0
LINE
8
BLACK
6
CONTINUOUS
10
253.884
20
-132.183
11
253.841
21
-132.201
0
LINE
8
BLACK
6
CONTINUOUS
10
253.841
20
-132.201
11
246.38
21
-132.201
0
LINE
8
BLACK
6
CONTINUOUS
10
246.38
20
-132.201
11
246.338
21
-132.183
0
LINE
8
BLACK
6
CONTINUOUS
10
246.44
20
-129.451
11
246.44
21
-132.081
0
LINE
8
BLACK
6
CONTINUOUS
10
246.44
20
-132.081
11
253.781
21
-132.081
0
LINE
8
BLACK
6
CONTINUOUS
10
253.781
20
-132.081
11
253.781
21
-129.451
0
LINE
8
BLACK
6
CONTINUOUS
10
253.781
20
-129.451
11
246.44
21
-129.451
0
LINE
8
BLACK
6
CONTINUOUS
10
184.001
20
-129.45
11
184.002
21
-129.45
0
LINE
8
BLACK
6
CONTINUOUS
10
184.002
20
-129.45
11
184.019
21
-129.458
0
LINE
8
BLACK
6
CONTINUOUS
10
184.019
20
-129.458
11
184.035
21
-129.465
0
LINE
8
BLACK
6
CONTINUOUS
10
184.035
20
-129.465
11
184.036
21
-129.466
0
LINE
8
BLACK
6
CONTINUOUS
10
184.036
20
-129.466
11
184.037
21
-129.466
0
LINE
8
BLACK
6
CONTINUOUS
10
184.037
20
-129.466
11
184.043
21
-129.483
0
LINE
8
BLACK
6
CONTINUOUS
10
184.043
20
-129.483
11
184.05
21
-129.5
0
LINE
8
BLACK
6
CONTINUOUS
10
184.05
20
-129.5
11
184.05
21
-131.325
0
LINE
8
BLACK
6
CONTINUOUS
10
184.05
20
-131.325
11
184.043
21
-131.342
0
LINE
8
BLACK
6
CONTINUOUS
10
184.043
20
-131.342
11
184.037
21
-131.359
0
LINE
8
BLACK
6
CONTINUOUS
10
184.037
20
-131.359
11
184.036
21
-131.359
0
LINE
8
BLACK
6
CONTINUOUS
10
184.036
20
-131.359
11
184.035
21
-131.36
0
LINE
8
BLACK
6
CONTINUOUS
10
184.035
20
-131.36
11
184.019
21
-131.367
0
LINE
8
BLACK
6
CONTINUOUS
10
184.019
20
-131.367
11
184.002
21
-131.375
0
LINE
8
BLACK
6
CONTINUOUS
10
184.002
20
-131.375
11
184.001
21
-131.375
0
LINE
8
BLACK
6
CONTINUOUS
10
184.001
20
-131.375
11
184
21
-131.375
0
LINE
8
BLACK
6
CONTINUOUS
10
184
20
-131.375
11
183.983
21
-131.368
0
LINE
8
BLACK
6
CONTINUOUS
10
183.983
20
-131.368
11
183.966
21
-131.362
0
LINE
8
BLACK
6
CONTINUOUS
10
183.966
20
-131.362
11
182.966
21
-130.449
0
LINE
8
BLACK
6
CONTINUOUS
10
182.966
20
-130.449
11
182.965
21
-130.447
0
LINE
8
BLACK
6
CONTINUOUS
10
182.965
20
-130.447
11
182.963
21
-130.446
0
LINE
8
BLACK
6
CONTINUOUS
10
182.963
20
-130.446
11
182.957
21
-130.43
0
LINE
8
BLACK
6
CONTINUOUS
10
182.957
20
-130.43
11
182.95
21
-130.415
0
LINE
8
BLACK
6
CONTINUOUS
10
182.95
20
-130.415
11
182.951
21
-130.412
0
LINE
8
BLACK
6
CONTINUOUS
10
182.951
20
-130.412
11
182.95
21
-130.41
0
LINE
8
BLACK
6
CONTINUOUS
10
182.95
20
-130.41
11
182.957
21
-130.395
0
LINE
8
BLACK
6
CONTINUOUS
10
182.957
20
-130.395
11
182.963
21
-130.379
0
LINE
8
BLACK
6
CONTINUOUS
10
182.963
20
-130.379
11
182.965
21
-130.378
0
LINE
8
BLACK
6
CONTINUOUS
10
182.965
20
-130.378
11
182.966
21
-130.376
0
LINE
8
BLACK
6
CONTINUOUS
10
182.966
20
-130.376
11
183.966
21
-129.463
0
LINE
8
BLACK
6
CONTINUOUS
10
183.966
20
-129.463
11
183.983
21
-129.457
0
LINE
8
BLACK
6
CONTINUOUS
10
183.983
20
-129.457
11
184
21
-129.45
0
LINE
8
BLACK
6
CONTINUOUS
10
184
20
-129.45
11
184.001
21
-129.45
0
LINE
8
BLACK
6
CONTINUOUS
10
191.48
20
-129.88
11
191.519
21
-129.912
0
LINE
8
BLACK
6
CONTINUOUS
10
191.519
20
-129.912
11
191.528
21
-129.963
0
LINE
8
BLACK
6
CONTINUOUS
10
191.528
20
-129.963
11
191.503
21
-130.007
0
LINE
8
BLACK
6
CONTINUOUS
10
191.503
20
-130.007
11
191.454
21
-130.025
0
LINE
8
BLACK
6
CONTINUOUS
10
191.454
20
-130.025
11
184.546
21
-130.025
0
LINE
8
BLACK
6
CONTINUOUS
10
184.546
20
-130.025
11
184.52
21
-130.02
0
LINE
8
BLACK
6
CONTINUOUS
10
184.52
20
-130.02
11
184.481
21
-129.987
0
LINE
8
BLACK
6
CONTINUOUS
10
184.481
20
-129.987
11
184.472
21
-129.937
0
LINE
8
BLACK
6
CONTINUOUS
10
184.472
20
-129.937
11
184.497
21
-129.893
0
LINE
8
BLACK
6
CONTINUOUS
10
184.497
20
-129.893
11
184.546
21
-129.875
0
LINE
8
BLACK
6
CONTINUOUS
10
184.546
20
-129.875
11
191.454
21
-129.875
0
LINE
8
BLACK
6
CONTINUOUS
10
191.454
20
-129.875
11
191.48
21
-129.88
0
LINE
8
BLACK
6
CONTINUOUS
10
243.798
20
-127.783
11
243.78
21
-127.741
0
LINE
8
BLACK
6
CONTINUOUS
10
243.78
20
-127.741
11
243.78
21
-124.991
0
LINE
8
BLACK
6
CONTINUOUS
10
243.78
20
-124.991
11
243.798
21
-124.949
0
LINE
8
BLACK
6
CONTINUOUS
10
243.798
20
-124.949
11
243.84
21
-124.931
0
LINE
8
BLACK
6
CONTINUOUS
10
243.84
20
-124.931
11
253.841
21
-124.931
0
LINE
8
BLACK
6
CONTINUOUS
10
253.841
20
-124.931
11
253.884
21
-124.949
0
LINE
8
BLACK
6
CONTINUOUS
10
253.884
20
-124.949
11
253.901
21
-124.991
0
LINE
8
BLACK
6
CONTINUOUS
10
253.901
20
-124.991
11
253.901
21
-127.741
0
LINE
8
BLACK
6
CONTINUOUS
10
253.901
20
-127.741
11
253.884
21
-127.783
0
LINE
8
BLACK
6
CONTINUOUS
10
253.884
20
-127.783
11
253.841
21
-127.801
0
LINE
8
BLACK
6
CONTINUOUS
10
253.841
20
-127.801
11
243.84
21
-127.801
0
LINE
8
BLACK
6
CONTINUOUS
10
243.84
20
-127.801
11
243.798
21
-127.783
0
LINE
8
BLACK
6
CONTINUOUS
10
243.9
20
-125.051
11
243.9
21
-127.681
0
LINE
8
BLACK
6
CONTINUOUS
10
243.9
20
-127.681
11
253.781
21
-127.681
0
LINE
8
BLACK
6
CONTINUOUS
10
253.781
20
-127.681
11
253.781
21
-125.051
0
LINE
8
BLACK
6
CONTINUOUS
10
253.781
20
-125.051
11
243.9
21
-125.051
0
LINE
8
BLACK
6
CONTINUOUS
10
186.325
20
-124.542
11
186.307
21
-124.5
0
LINE
8
BLACK
6
CONTINUOUS
10
186.307
20
-124.5
11
186.325
21
-124.458
0
LINE
8
BLACK
6
CONTINUOUS
10
186.325
20
-124.458
11
186.367
21
-124.44
0
LINE
8
BLACK
6
CONTINUOUS
10
186.367
20
-124.44
11
190.207
21
-124.44
0
LINE
8
BLACK
6
CONTINUOUS
10
190.207
20
-124.44
11
190.207
21
-122.56
0
LINE
8
BLACK
6
CONTINUOUS
10
190.207
20
-122.56
11
186.367
21
-122.56
0
LINE
8
BLACK
6
CONTINUOUS
10
186.367
20
-122.56
11
186.325
21
-122.542
0
LINE
8
BLACK
6
CONTINUOUS
10
186.325
20
-122.542
11
186.307
21
-122.5
0
LINE
8
BLACK
6
CONTINUOUS
10
186.307
20
-122.5
11
186.325
21
-122.458
0
LINE
8
BLACK
6
CONTINUOUS
10
186.325
20
-122.458
11
186.367
21
-122.44
0
LINE
8
BLACK
6
CONTINUOUS
10
186.367
20
-122.44
11
190.267
21
-122.44
0
LINE
8
BLACK
6
CONTINUOUS
10
190.267
20
-122.44
11
190.31
21
-122.458
0
LINE
8
BLACK
6
CONTINUOUS
10
190.31
20
-122.458
11
190.327
21
-122.5
0
LINE
8
BLACK
6
CONTINUOUS
10
190.327
20
-122.5
11
190.327
21
-124.5
0
LINE
8
BLACK
6
CONTINUOUS
10
190.327
20
-124.5
11
190.31
21
-124.542
0
LINE
8
BLACK
6
CONTINUOUS
10
190.31
20
-124.542
11
190.267
21
-124.56
0
LINE
8
BLACK
6
CONTINUOUS
10
190.267
20
-124.56
11
186.367
21
-124.56
0
LINE
8
BLACK
6
CONTINUOUS
10
186.367
20
-124.56
11
186.325
21
-124.542
0
LINE
8
BLACK
6
CONTINUOUS
10
243.798
20
-123.383
11
243.78
21
-123.341
0
LINE
8
BLACK
6
CONTINUOUS
10
243.78
20
-123.341
11
243.78
21
-120.591
0
LINE
8
BLACK
6
CONTINUOUS
10
243.78
20
-120.591
11
243.798
21
-120.549
0
LINE
8
BLACK
6
CONTINUOUS
10
243.798
20
-120.549
11
243.84
21
-120.531
0
LINE
8
BLACK
6
CONTINUOUS
10
243.84
20
-120.531
11
251.46
21
-120.531
0
LINE
8
BLACK
6
CONTINUOUS
10
251.46
20
-120.531
11
251.502
21
-120.549
0
LINE
8
BLACK
6
CONTINUOUS
10
251.502
20
-120.549
11
251.52
21
-120.591
0
LINE
8
BLACK
6
CONTINUOUS
10
251.52
20
-120.591
11
251.52
21
-123.341
0
LINE
8
BLACK
6
CONTINUOUS
10
251.52
20
-123.341
11
251.502
21
-123.383
0
LINE
8
BLACK
6
CONTINUOUS
10
251.502
20
-123.383
11
251.46
21
-123.401
0
LINE
8
BLACK
6
CONTINUOUS
10
251.46
20
-123.401
11
243.84
21
-123.401
0
LINE
8
BLACK
6
CONTINUOUS
10
243.84
20
-123.401
11
243.798
21
-123.383
0
LINE
8
BLACK
6
CONTINUOUS
10
243.9
20
-120.651
11
243.9
21
-123.281
0
LINE
8
BLACK
6
CONTINUOUS
10
243.9
20
-123.281
11
251.4
21
-123.281
0
LINE
8
BLACK
6
CONTINUOUS
10
251.4
20
-123.281
11
251.4
21
-120.651
0
LINE
8
BLACK
6
CONTINUOUS
10
251.4
20
-120.651
11
243.9
21
-120.651
0
LINE
8
BLACK
6
CONTINUOUS
10
202.23
20
-114.76
11
202.269
21
-114.792
0
LINE
8
BLACK
6
CONTINUOUS
10
202.269
20
-114.792
11
202.278
21
-114.843
0
LINE
8
BLACK
6
CONTINUOUS
10
202.278
20
-114.843
11
202.253
21
-114.887
0
LINE
8
BLACK
6
CONTINUOUS
10
202.253
20
-114.887
11
202.204
21
-114.905
0
LINE
8
BLACK
6
CONTINUOUS
10
202.204
20
-114.905
11
195.296
21
-114.905
0
LINE
8
BLACK
6
CONTINUOUS
10
195.296
20
-114.905
11
195.27
21
-114.9
0
LINE
8
BLACK
6
CONTINUOUS
10
195.27
20
-114.9
11
195.231
21
-114.867
0
LINE
8
BLACK
6
CONTINUOUS
10
195.231
20
-114.867
11
195.222
21
-114.817
0
LINE
8
BLACK
6
CONTINUOUS
10
195.222
20
-114.817
11
195.247
21
-114.773
0
LINE
8
BLACK
6
CONTINUOUS
10
195.247
20
-114.773
11
195.296
21
-114.755
0
LINE
8
BLACK
6
CONTINUOUS
10
195.296
20
-114.755
11
202.204
21
-114.755
0
LINE
8
BLACK
6
CONTINUOUS
10
202.204
20
-114.755
11
202.23
21
-114.76
0
LINE
8
BLACK
6
CONTINUOUS
10
159.23
20
-114.76
11
159.269
21
-114.792
0
LINE
8
BLACK
6
CONTINUOUS
10
159.269
20
-114.792
11
159.278
21
-114.843
0
LINE
8
BLACK
6
CONTINUOUS
10
159.278
20
-114.843
11
159.253
21
-114.887
0
LINE
8
BLACK
6
CONTINUOUS
10
159.253
20
-114.887
11
159.204
21
-114.905
0
LINE
8
BLACK
6
CONTINUOUS
10
159.204
20
-114.905
11
152.296
21
-114.905
0
LINE
8
BLACK
6
CONTINUOUS
10
152.296
20
-114.905
11
152.27
21
-114.9
0
LINE
8
BLACK
6
CONTINUOUS
10
152.27
20
-114.9
11
152.231
21
-114.867
0
LINE
8
BLACK
6
CONTINUOUS
10
152.231
20
-114.867
11
152.222
21
-114.817
0
LINE
8
BLACK
6
CONTINUOUS
10
152.222
20
-114.817
11
152.247
21
-114.773
0
LINE
8
BLACK
6
CONTINUOUS
10
152.247
20
-114.773
11
152.296
21
-114.755
0
LINE
8
BLACK
6
CONTINUOUS
10
152.296
20
-114.755
11
159.204
21
-114.755
0
LINE
8
BLACK
6
CONTINUOUS
10
159.204
20
-114.755
11
159.23
21
-114.76
0
LINE
8
BLACK
6
CONTINUOUS
10
180.73
20
-114.76
11
180.769
21
-114.792
0
LINE
8
BLACK
6
CONTINUOUS
10
180.769
20
-114.792
11
180.778
21
-114.843
0
LINE
8
BLACK
6
CONTINUOUS
10
180.778
20
-114.843
11
180.753
21
-114.887
0
LINE
8
BLACK
6
CONTINUOUS
10
180.753
20
-114.887
11
180.704
21
-114.905
0
LINE
8
BLACK
6
CONTINUOUS
10
180.704
20
-114.905
11
173.796
21
-114.905
0
LINE
8
BLACK
6
CONTINUOUS
10
173.796
20
-114.905
11
173.77
21
-114.9
0
LINE
8
BLACK
6
CONTINUOUS
10
173.77
20
-114.9
11
173.731
21
-114.867
0
LINE
8
BLACK
6
CONTINUOUS
10
173.731
20
-114.867
11
173.722
21
-114.817
0
LINE
8
BLACK
6
CONTINUOUS
10
173.722
20
-114.817
11
173.747
21
-114.773
0
LINE
8
BLACK
6
CONTINUOUS
10
173.747
20
-114.773
11
173.796
21
-114.755
0
LINE
8
BLACK
6
CONTINUOUS
10
173.796
20
-114.755
11
180.704
21
-114.755
0
LINE
8
BLACK
6
CONTINUOUS
10
180.704
20
-114.755
11
180.73
21
-114.76
0
LINE
8
BLACK
6
CONTINUOUS
10
194.751
20
-110.83
11
194.752
21
-110.83
0
LINE
8
BLACK
6
CONTINUOUS
10
194.752
20
-110.83
11
194.769
21
-110.838
0
LINE
8
BLACK
6
CONTINUOUS
10
194.769
20
-110.838
11
194.785
21
-110.845
0
LINE
8
BLACK
6
CONTINUOUS
10
194.785
20
-110.845
11
194.786
21
-110.846
0
LINE
8
BLACK
6
CONTINUOUS
10
194.786
20
-110.846
11
194.787
21
-110.846
0
LINE
8
BLACK
6
CONTINUOUS
10
194.787
20
-110.846
11
194.793
21
-110.863
0
LINE
8
BLACK
6
CONTINUOUS
10
194.793
20
-110.863
11
194.8
21
-110.88
0
LINE
8
BLACK
6
CONTINUOUS
10
194.8
20
-110.88
11
194.8
21
-112.705
0
LINE
8
BLACK
6
CONTINUOUS
10
194.8
20
-112.705
11
194.793
21
-112.722
0
LINE
8
BLACK
6
CONTINUOUS
10
194.793
20
-112.722
11
194.787
21
-112.739
0
LINE
8
BLACK
6
CONTINUOUS
10
194.787
20
-112.739
11
194.786
21
-112.739
0
LINE
8
BLACK
6
CONTINUOUS
10
194.786
20
-112.739
11
194.785
21
-112.74
0
LINE
8
BLACK
6
CONTINUOUS
10
194.785
20
-112.74
11
194.769
21
-112.747
0
LINE
8
BLACK
6
CONTINUOUS
10
194.769
20
-112.747
11
194.752
21
-112.755
0
LINE
8
BLACK
6
CONTINUOUS
10
194.752
20
-112.755
11
194.751
21
-112.755
0
LINE
8
BLACK
6
CONTINUOUS
10
194.751
20
-112.755
11
194.75
21
-112.755
0
LINE
8
BLACK
6
CONTINUOUS
10
194.75
20
-112.755
11
194.733
21
-112.748
0
LINE
8
BLACK
6
CONTINUOUS
10
194.733
20
-112.748
11
194.716
21
-112.742
0
LINE
8
BLACK
6
CONTINUOUS
10
194.716
20
-112.742
11
193.716
21
-111.829
0
LINE
8
BLACK
6
CONTINUOUS
10
193.716
20
-111.829
11
193.715
21
-111.827
0
LINE
8
BLACK
6
CONTINUOUS
10
193.715
20
-111.827
11
193.713
21
-111.826
0
LINE
8
BLACK
6
CONTINUOUS
10
193.713
20
-111.826
11
193.707
21
-111.81
0
LINE
8
BLACK
6
CONTINUOUS
10
193.707
20
-111.81
11
193.7
21
-111.795
0
LINE
8
BLACK
6
CONTINUOUS
10
193.7
20
-111.795
11
193.701
21
-111.792
0
LINE
8
BLACK
6
CONTINUOUS
10
193.701
20
-111.792
11
193.7
21
-111.79
0
LINE
8
BLACK
6
CONTINUOUS
10
193.7
20
-111.79
11
193.707
21
-111.775
0
LINE
8
BLACK
6
CONTINUOUS
10
193.707
20
-111.775
11
193.713
21
-111.759
0
LINE
8
BLACK
6
CONTINUOUS
10
193.713
20
-111.759
11
193.715
21
-111.758
0
LINE
8
BLACK
6
CONTINUOUS
10
193.715
20
-111.758
11
193.716
21
-111.756
0
LINE
8
BLACK
6
CONTINUOUS
10
193.716
20
-111.756
11
194.716
21
-110.843
0
LINE
8
BLACK
6
CONTINUOUS
10
194.716
20
-110.843
11
194.733
21
-110.837
0
LINE
8
BLACK
6
CONTINUOUS
10
194.733
20
-110.837
11
194.75
21
-110.83
0
LINE
8
BLACK
6
CONTINUOUS
10
194.75
20
-110.83
11
194.751
21
-110.83
0
LINE
8
BLACK
6
CONTINUOUS
10
173.251
20
-110.83
11
173.252
21
-110.83
0
LINE
8
BLACK
6
CONTINUOUS
10
173.252
20
-110.83
11
173.269
21
-110.838
0
LINE
8
BLACK
6
CONTINUOUS
10
173.269
20
-110.838
11
173.285
21
-110.845
0
LINE
8
BLACK
6
CONTINUOUS
10
173.285
20
-110.845
11
173.286
21
-110.846
0
LINE
8
BLACK
6
CONTINUOUS
10
173.286
20
-110.846
11
173.287
21
-110.846
0
LINE
8
BLACK
6
CONTINUOUS
10
173.287
20
-110.846
11
173.293
21
-110.863
0
LINE
8
BLACK
6
CONTINUOUS
10
173.293
20
-110.863
11
173.3
21
-110.88
0
LINE
8
BLACK
6
CONTINUOUS
10
173.3
20
-110.88
11
173.3
21
-112.705
0
LINE
8
BLACK
6
CONTINUOUS
10
173.3
20
-112.705
11
173.293
21
-112.722
0
LINE
8
BLACK
6
CONTINUOUS
10
173.293
20
-112.722
11
173.287
21
-112.739
0
LINE
8
BLACK
6
CONTINUOUS
10
173.287
20
-112.739
11
173.286
21
-112.739
0
LINE
8
BLACK
6
CONTINUOUS
10
173.286
20
-112.739
11
173.285
21
-112.74
0
LINE
8
BLACK
6
CONTINUOUS
10
173.285
20
-112.74
11
173.269
21
-112.747
0
LINE
8
BLACK
6
CONTINUOUS
10
173.269
20
-112.747
11
173.252
21
-112.755
0
LINE
8
BLACK
6
CONTINUOUS
10
173.252
20
-112.755
11
173.251
21
-112.755
0
LINE
8
BLACK
6
CONTINUOUS
10
173.251
20
-112.755
11
173.25
21
-112.755
0
LINE
8
BLACK
6
CONTINUOUS
10
173.25
20
-112.755
11
173.233
21
-112.748
0
LINE
8
BLACK
6
CONTINUOUS
10
173.233
20
-112.748
11
173.216
21
-112.742
0
LINE
8
BLACK
6
CONTINUOUS
10
173.216
20
-112.742
11
172.216
21
-111.829
0
LINE
8
BLACK
6
CONTINUOUS
10
172.216
20
-111.829
11
172.215
21
-111.827
0
LINE
8
BLACK
6
CONTINUOUS
10
172.215
20
-111.827
11
172.213
21
-111.826
0
LINE
8
BLACK
6
CONTINUOUS
10
172.213
20
-111.826
11
172.207
21
-111.81
0
LINE
8
BLACK
6
CONTINUOUS
10
172.207
20
-111.81
11
172.2
21
-111.795
0
LINE
8
BLACK
6
CONTINUOUS
10
172.2
20
-111.795
11
172.201
21
-111.792
0
LINE
8
BLACK
6
CONTINUOUS
10
172.201
20
-111.792
11
172.2
21
-111.79
0
LINE
8
BLACK
6
CONTINUOUS
10
172.2
20
-111.79
11
172.207
21
-111.775
0
LINE
8
BLACK
6
CONTINUOUS
10
172.207
20
-111.775
11
172.213
21
-111.759
0
LINE
8
BLACK
6
CONTINUOUS
10
172.213
20
-111.759
11
172.215
21
-111.758
0
LINE
8
BLACK
6
CONTINUOUS
10
172.215
20
-111.758
11
172.216
21
-111.756
0
LINE
8
BLACK
6
CONTINUOUS
10
172.216
20
-111.756
11
173.216
21
-110.843
0
LINE
8
BLACK
6
CONTINUOUS
10
173.216
20
-110.843
11
173.233
21
-110.837
0
LINE
8
BLACK
6
CONTINUOUS
10
173.233
20
-110.837
11
173.25
21
-110.83
0
LINE
8
BLACK
6
CONTINUOUS
10
173.25
20
-110.83
11
173.251
21
-110.83
0
LINE
8
BLACK
6
CONTINUOUS
10
151.751
20
-110.83
11
151.752
21
-110.83
0
LINE
8
BLACK
6
CONTINUOUS
10
151.752
20
-110.83
11
151.769
21
-110.838
0
LINE
8
BLACK
6
CONTINUOUS
10
151.769
20
-110.838
11
151.785
21
-110.845
0
LINE
8
BLACK
6
CONTINUOUS
10
151.785
20
-110.845
11
151.786
21
-110.846
0
LINE
8
BLACK
6
CONTINUOUS
10
151.786
20
-110.846
11
151.787
21
-110.846
0
LINE
8
BLACK
6
CONTINUOUS
10
151.787
20
-110.846
11
151.793
21
-110.863
0
LINE
8
BLACK
6
CONTINUOUS
10
151.793
20
-110.863
11
151.8
21
-110.88
0
LINE
8
BLACK
6
CONTINUOUS
10
151.8
20
-110.88
11
151.8
21
-112.705
0
LINE
8
BLACK
6
CONTINUOUS
10
151.8
20
-112.705
11
151.793
21
-112.722
0
LINE
8
BLACK
6
CONTINUOUS
10
151.793
20
-112.722
11
151.787
21
-112.739
0
LINE
8
BLACK
6
CONTINUOUS
10
151.787
20
-112.739
11
151.786
21
-112.739
0
LINE
8
BLACK
6
CONTINUOUS
10
151.786
20
-112.739
11
151.785
21
-112.74
0
LINE
8
BLACK
6
CONTINUOUS
10
151.785
20
-112.74
11
151.769
21
-112.747
0
LINE
8
BLACK
6
CONTINUOUS
10
151.769
20
-112.747
11
151.752
21
-112.755
0
LINE
8
BLACK
6
CONTINUOUS
10
151.752
20
-112.755
11
151.751
21
-112.755
0
LINE
8
BLACK
6
CONTINUOUS
10
151.751
20
-112.755
11
151.75
21
-112.755
0
LINE
8
BLACK
6
CONTINUOUS
10
151.75
20
-112.755
11
151.733
21
-112.748
0
LINE
8
BLACK
6
CONTINUOUS
10
151.733
20
-112.748
11
151.716
21
-112.742
0
LINE
8
BLACK
6
CONTINUOUS
10
151.716
20
-112.742
11
150.716
21
-111.829
0
LINE
8
BLACK
6
CONTINUOUS
10
150.716
20
-111.829
11
150.715
21
-111.827
0
LINE
8
BLACK
6
CONTINUOUS
10
150.715
20
-111.827
11
150.713
21
-111.826
0
LINE
8
BLACK
6
CONTINUOUS
10
150.713
20
-111.826
11
150.707
21
-111.81
0
LINE
8
BLACK
6
CONTINUOUS
10
150.707
20
-111.81
11
150.7
21
-111.795
0
LINE
8
BLACK
6
CONTINUOUS
10
150.7
20
-111.795
11
150.701
21
-111.792
0
LINE
8
BLACK
6
CONTINUOUS
10
150.701
20
-111.792
11
150.7
21
-111.79
0
LINE
8
BLACK
6
CONTINUOUS
10
150.7
20
-111.79
11
150.707
21
-111.775
0
LINE
8
BLACK
6
CONTINUOUS
10
150.707
20
-111.775
11
150.713
21
-111.759
0
LINE
8
BLACK
6
CONTINUOUS
10
150.713
20
-111.759
11
150.715
21
-111.758
0
LINE
8
BLACK
6
CONTINUOUS
10
150.715
20
-111.758
11
150.716
21
-111.756
0
LINE
8
BLACK
6
CONTINUOUS
10
150.716
20
-111.756
11
151.716
21
-110.843
0
LINE
8
BLACK
6
CONTINUOUS
10
151.716
20
-110.843
11
151.733
21
-110.837
0
LINE
8
BLACK
6
CONTINUOUS
10
151.733
20
-110.837
11
151.75
21
-110.83
0
LINE
8
BLACK
6
CONTINUOUS
10
151.75
20
-110.83
11
151.751
21
-110.83
0
LINE
8
BLACK
6
CONTINUOUS
10
159.23
20
-111.26
11
159.269
21
-111.292
0
LINE
8
BLACK
6
CONTINUOUS
10
159.269
20
-111.292
11
159.278
21
-111.343
0
LINE
8
BLACK
6
CONTINUOUS
10
159.278
20
-111.343
11
159.253
21
-111.387
0
LINE
8
BLACK
6
CONTINUOUS
10
159.253
20
-111.387
11
159.204
21
-111.405
0
LINE
8
BLACK
6
CONTINUOUS
10
159.204
20
-111.405
11
152.296
21
-111.405
0
LINE
8
BLACK
6
CONTINUOUS
10
152.296
20
-111.405
11
152.27
21
-111.4
0
LINE
8
BLACK
6
CONTINUOUS
10
152.27
20
-111.4
11
152.231
21
-111.367
0
LINE
8
BLACK
6
CONTINUOUS
10
152.231
20
-111.367
11
152.222
21
-111.317
0
LINE
8
BLACK
6
CONTINUOUS
10
152.222
20
-111.317
11
152.247
21
-111.273
0
LINE
8
BLACK
6
CONTINUOUS
10
152.247
20
-111.273
11
152.296
21
-111.255
0
LINE
8
BLACK
6
CONTINUOUS
10
152.296
20
-111.255
11
159.204
21
-111.255
0
LINE
8
BLACK
6
CONTINUOUS
10
159.204
20
-111.255
11
159.23
21
-111.26
0
LINE
8
BLACK
6
CONTINUOUS
10
180.73
20
-111.26
11
180.769
21
-111.292
0
LINE
8
BLACK
6
CONTINUOUS
10
180.769
20
-111.292
11
180.778
21
-111.343
0
LINE
8
BLACK
6
CONTINUOUS
10
180.778
20
-111.343
11
180.753
21
-111.387
0
LINE
8
BLACK
6
CONTINUOUS
10
180.753
20
-111.387
11
180.704
21
-111.405
0
LINE
8
BLACK
6
CONTINUOUS
10
180.704
20
-111.405
11
173.796
21
-111.405
0
LINE
8
BLACK
6
CONTINUOUS
10
173.796
20
-111.405
11
173.77
21
-111.4
0
LINE
8
BLACK
6
CONTINUOUS
10
173.77
20
-111.4
11
173.731
21
-111.367
0
LINE
8
BLACK
6
CONTINUOUS
10
173.731
20
-111.367
11
173.722
21
-111.317
0
LINE
8
BLACK
6
CONTINUOUS
10
173.722
20
-111.317
11
173.747
21
-111.273
0
LINE
8
BLACK
6
CONTINUOUS
10
173.747
20
-111.273
11
173.796
21
-111.255
0
LINE
8
BLACK
6
CONTINUOUS
10
173.796
20
-111.255
11
180.704
21
-111.255
0
LINE
8
BLACK
6
CONTINUOUS
10
180.704
20
-111.255
11
180.73
21
-111.26
0
LINE
8
BLACK
6
CONTINUOUS
10
202.23
20
-111.26
11
202.269
21
-111.292
0
LINE
8
BLACK
6
CONTINUOUS
10
202.269
20
-111.292
11
202.278
21
-111.343
0
LINE
8
BLACK
6
CONTINUOUS
10
202.278
20
-111.343
11
202.253
21
-111.387
0
LINE
8
BLACK
6
CONTINUOUS
10
202.253
20
-111.387
11
202.204
21
-111.405
0
LINE
8
BLACK
6
CONTINUOUS
10
202.204
20
-111.405
11
195.296
21
-111.405
0
LINE
8
BLACK
6
CONTINUOUS
10
195.296
20
-111.405
11
195.27
21
-111.4
0
LINE
8
BLACK
6
CONTINUOUS
10
195.27
20
-111.4
11
195.231
21
-111.367
0
LINE
8
BLACK
6
CONTINUOUS
10
195.231
20
-111.367
11
195.222
21
-111.317
0
LINE
8
BLACK
6
CONTINUOUS
10
195.222
20
-111.317
11
195.247
21
-111.273
0
LINE
8
BLACK
6
CONTINUOUS
10
195.247
20
-111.273
11
195.296
21
-111.255
0
LINE
8
BLACK
6
CONTINUOUS
10
195.296
20
-111.255
11
202.204
21
-111.255
0
LINE
8
BLACK
6
CONTINUOUS
10
202.204
20
-111.255
11
202.23
21
-111.26
0
LINE
8
BLACK
6
CONTINUOUS
10
154.075
20
-105.922
11
154.057
21
-105.88
0
LINE
8
BLACK
6
CONTINUOUS
10
154.057
20
-105.88
11
154.075
21
-105.838
0
LINE
8
BLACK
6
CONTINUOUS
10
154.075
20
-105.838
11
154.117
21
-105.82
0
LINE
8
BLACK
6
CONTINUOUS
10
154.117
20
-105.82
11
157.957
21
-105.82
0
LINE
8
BLACK
6
CONTINUOUS
10
157.957
20
-105.82
11
157.957
21
-103.94
0
LINE
8
BLACK
6
CONTINUOUS
10
157.957
20
-103.94
11
154.117
21
-103.94
0
LINE
8
BLACK
6
CONTINUOUS
10
154.117
20
-103.94
11
154.075
21
-103.922
0
LINE
8
BLACK
6
CONTINUOUS
10
154.075
20
-103.922
11
154.057
21
-103.88
0
LINE
8
BLACK
6
CONTINUOUS
10
154.057
20
-103.88
11
154.075
21
-103.838
0
LINE
8
BLACK
6
CONTINUOUS
10
154.075
20
-103.838
11
154.117
21
-103.82
0
LINE
8
BLACK
6
CONTINUOUS
10
154.117
20
-103.82
11
158.017
21
-103.82
0
LINE
8
BLACK
6
CONTINUOUS
10
158.017
20
-103.82
11
158.06
21
-103.838
0
LINE
8
BLACK
6
CONTINUOUS
10
158.06
20
-103.838
11
158.077
21
-103.88
0
LINE
8
BLACK
6
CONTINUOUS
10
158.077
20
-103.88
11
158.077
21
-105.88
0
LINE
8
BLACK
6
CONTINUOUS
10
158.077
20
-105.88
11
158.06
21
-105.922
0
LINE
8
BLACK
6
CONTINUOUS
10
158.06
20
-105.922
11
158.017
21
-105.94
0
LINE
8
BLACK
6
CONTINUOUS
10
158.017
20
-105.94
11
154.117
21
-105.94
0
LINE
8
BLACK
6
CONTINUOUS
10
154.117
20
-105.94
11
154.075
21
-105.922
0
LINE
8
BLACK
6
CONTINUOUS
10
197.075
20
-105.922
11
197.057
21
-105.88
0
LINE
8
BLACK
6
CONTINUOUS
10
197.057
20
-105.88
11
197.075
21
-105.838
0
LINE
8
BLACK
6
CONTINUOUS
10
197.075
20
-105.838
11
197.117
21
-105.82
0
LINE
8
BLACK
6
CONTINUOUS
10
197.117
20
-105.82
11
200.957
21
-105.82
0
LINE
8
BLACK
6
CONTINUOUS
10
200.957
20
-105.82
11
200.957
21
-103.94
0
LINE
8
BLACK
6
CONTINUOUS
10
200.957
20
-103.94
11
197.117
21
-103.94
0
LINE
8
BLACK
6
CONTINUOUS
10
197.117
20
-103.94
11
197.075
21
-103.922
0
LINE
8
BLACK
6
CONTINUOUS
10
197.075
20
-103.922
11
197.057
21
-103.88
0
LINE
8
BLACK
6
CONTINUOUS
10
197.057
20
-103.88
11
197.075
21
-103.838
0
LINE
8
BLACK
6
CONTINUOUS
10
197.075
20
-103.838
11
197.117
21
-103.82
0
LINE
8
BLACK
6
CONTINUOUS
10
197.117
20
-103.82
11
201.017
21
-103.82
0
LINE
8
BLACK
6
CONTINUOUS
10
201.017
20
-103.82
11
201.06
21
-103.838
0
LINE
8
BLACK
6
CONTINUOUS
10
201.06
20
-103.838
11
201.077
21
-103.88
0
LINE
8
BLACK
6
CONTINUOUS
10
201.077
20
-103.88
11
201.077
21
-105.88
0
LINE
8
BLACK
6
CONTINUOUS
10
201.077
20
-105.88
11
201.06
21
-105.922
0
LINE
8
BLACK
6
CONTINUOUS
10
201.06
20
-105.922
11
201.017
21
-105.94
0
LINE
8
BLACK
6
CONTINUOUS
10
201.017
20
-105.94
11
197.117
21
-105.94
0
LINE
8
BLACK
6
CONTINUOUS
10
197.117
20
-105.94
11
197.075
21
-105.922
0
LINE
8
BLACK
6
CONTINUOUS
10
175.575
20
-105.922
11
175.557
21
-105.88
0
LINE
8
BLACK
6
CONTINUOUS
10
175.557
20
-105.88
11
175.575
21
-105.838
0
LINE
8
BLACK
6
CONTINUOUS
10
175.575
20
-105.838
11
175.617
21
-105.82
0
LINE
8
BLACK
6
CONTINUOUS
10
175.617
20
-105.82
11
179.457
21
-105.82
0
LINE
8
BLACK
6
CONTINUOUS
10
179.457
20
-105.82
11
179.457
21
-103.94
0
LINE
8
BLACK
6
CONTINUOUS
10
179.457
20
-103.94
11
175.617
21
-103.94
0
LINE
8
BLACK
6
CONTINUOUS
10
175.617
20
-103.94
11
175.575
21
-103.922
0
LINE
8
BLACK
6
CONTINUOUS
10
175.575
20
-103.922
11
175.557
21
-103.88
0
LINE
8
BLACK
6
CONTINUOUS
10
175.557
20
-103.88
11
175.575
21
-103.838
0
LINE
8
BLACK
6
CONTINUOUS
10
175.575
20
-103.838
11
175.617
21
-103.82
0
LINE
8
BLACK
6
CONTINUOUS
10
175.617
20
-103.82
11
179.517
21
-103.82
0
LINE
8
BLACK
6
CONTINUOUS
10
179.517
20
-103.82
11
179.56
21
-103.838
0
LINE
8
BLACK
6
CONTINUOUS
10
179.56
20
-103.838
11
179.577
21
-103.88
0
LINE
8
BLACK
6
CONTINUOUS
10
179.577
20
-103.88
11
179.577
21
-105.88
0
LINE
8
BLACK
6
CONTINUOUS
10
179.577
20
-105.88
11
179.56
21
-105.922
0
LINE
8
BLACK
6
CONTINUOUS
10
179.56
20
-105.922
11
179.517
21
-105.94
0
LINE
8
BLACK
6
CONTINUOUS
10
179.517
20
-105.94
11
175.617
21
-105.94
0
LINE
8
BLACK
6
CONTINUOUS
10
175.617
20
-105.94
11
175.575
21
-105.922
0
LINE
8
BLACK
6
CONTINUOUS
10
195.361
20
-89.9359
11
195.387
21
-89.9804
0
LINE
8
BLACK
6
CONTINUOUS
10
195.387
20
-89.9804
11
195.378
21
-90.0309
0
LINE
8
BLACK
6
CONTINUOUS
10
195.378
20
-90.0309
11
191.924
21
-96.0141
0
LINE
8
BLACK
6
CONTINUOUS
10
191.924
20
-96.0141
11
191.907
21
-96.0341
0
LINE
8
BLACK
6
CONTINUOUS
10
191.907
20
-96.0341
11
191.859
21
-96.0516
0
LINE
8
BLACK
6
CONTINUOUS
10
191.859
20
-96.0516
11
191.81
21
-96.0341
0
LINE
8
BLACK
6
CONTINUOUS
10
191.81
20
-96.0341
11
191.785
21
-95.9896
0
LINE
8
BLACK
6
CONTINUOUS
10
191.785
20
-95.9896
11
191.794
21
-95.9391
0
LINE
8
BLACK
6
CONTINUOUS
10
191.794
20
-95.9391
11
195.248
21
-89.9559
0
LINE
8
BLACK
6
CONTINUOUS
10
195.248
20
-89.9559
11
195.265
21
-89.9359
0
LINE
8
BLACK
6
CONTINUOUS
10
195.265
20
-89.9359
11
195.313
21
-89.9184
0
LINE
8
BLACK
6
CONTINUOUS
10
195.313
20
-89.9184
11
195.361
21
-89.9359
0
LINE
8
BLACK
6
CONTINUOUS
10
173.861
20
-89.9359
11
173.887
21
-89.9804
0
LINE
8
BLACK
6
CONTINUOUS
10
173.887
20
-89.9804
11
173.878
21
-90.0309
0
LINE
8
BLACK
6
CONTINUOUS
10
173.878
20
-90.0309
11
170.424
21
-96.0141
0
LINE
8
BLACK
6
CONTINUOUS
10
170.424
20
-96.0141
11
170.407
21
-96.0341
0
LINE
8
BLACK
6
CONTINUOUS
10
170.407
20
-96.0341
11
170.359
21
-96.0516
0
LINE
8
BLACK
6
CONTINUOUS
10
170.359
20
-96.0516
11
170.31
21
-96.0341
0
LINE
8
BLACK
6
CONTINUOUS
10
170.31
20
-96.0341
11
170.285
21
-95.9896
0
LINE
8
BLACK
6
CONTINUOUS
10
170.285
20
-95.9896
11
170.294
21
-95.9391
0
LINE
8
BLACK
6
CONTINUOUS
10
170.294
20
-95.9391
11
173.748
21
-89.9559
0
LINE
8
BLACK
6
CONTINUOUS
10
173.748
20
-89.9559
11
173.765
21
-89.9359
0
LINE
8
BLACK
6
CONTINUOUS
10
173.765
20
-89.9359
11
173.813
21
-89.9184
0
LINE
8
BLACK
6
CONTINUOUS
10
173.813
20
-89.9184
11
173.861
21
-89.9359
0
LINE
8
BLACK
6
CONTINUOUS
10
216.861
20
-89.9359
11
216.887
21
-89.9804
0
LINE
8
BLACK
6
CONTINUOUS
10
216.887
20
-89.9804
11
216.878
21
-90.0309
0
LINE
8
BLACK
6
CONTINUOUS
10
216.878
20
-90.0309
11
213.424
21
-96.0141
0
LINE
8
BLACK
6
CONTINUOUS
10
213.424
20
-96.0141
11
213.407
21
-96.0341
0
LINE
8
BLACK
6
CONTINUOUS
10
213.407
20
-96.0341
11
213.359
21
-96.0516
0
LINE
8
BLACK
6
CONTINUOUS
10
213.359
20
-96.0516
11
213.31
21
-96.0341
0
LINE
8
BLACK
6
CONTINUOUS
10
213.31
20
-96.0341
11
213.285
21
-95.9896
0
LINE
8
BLACK
6
CONTINUOUS
10
213.285
20
-95.9896
11
213.294
21
-95.9391
0
LINE
8
BLACK
6
CONTINUOUS
10
213.294
20
-95.9391
11
216.748
21
-89.9559
0
LINE
8
BLACK
6
CONTINUOUS
10
216.748
20
-89.9559
11
216.765
21
-89.9359
0
LINE
8
BLACK
6
CONTINUOUS
10
216.765
20
-89.9359
11
216.813
21
-89.9184
0
LINE
8
BLACK
6
CONTINUOUS
10
216.813
20
-89.9184
11
216.861
21
-89.9359
0
LINE
8
BLACK
6
CONTINUOUS
10
188.172
20
-94.4284
11
188.19
21
-94.4308
0
LINE
8
BLACK
6
CONTINUOUS
10
188.19
20
-94.4308
11
189.771
21
-95.3433
0
LINE
8
BLACK
6
CONTINUOUS
10
189.771
20
-95.3433
11
189.782
21
-95.3576
0
LINE
8
BLACK
6
CONTINUOUS
10
189.782
20
-95.3576
11
189.793
21
-95.3715
0
LINE
8
BLACK
6
CONTINUOUS
10
189.793
20
-95.3715
11
189.793
21
-95.3727
0
LINE
8
BLACK
6
CONTINUOUS
10
189.793
20
-95.3727
11
189.794
21
-95.3737
0
LINE
8
BLACK
6
CONTINUOUS
10
189.794
20
-95.3737
11
189.791
21
-95.3916
0
LINE
8
BLACK
6
CONTINUOUS
10
189.791
20
-95.3916
11
189.79
21
-95.4096
0
LINE
8
BLACK
6
CONTINUOUS
10
189.79
20
-95.4096
11
189.789
21
-95.4104
0
LINE
8
BLACK
6
CONTINUOUS
10
189.789
20
-95.4104
11
189.789
21
-95.4116
0
LINE
8
BLACK
6
CONTINUOUS
10
189.789
20
-95.4116
11
189.775
21
-95.4226
0
LINE
8
BLACK
6
CONTINUOUS
10
189.775
20
-95.4226
11
189.761
21
-95.4343
0
LINE
8
BLACK
6
CONTINUOUS
10
189.761
20
-95.4343
11
188.47
21
-95.844
0
LINE
8
BLACK
6
CONTINUOUS
10
188.47
20
-95.844
11
188.468
21
-95.8438
0
LINE
8
BLACK
6
CONTINUOUS
10
188.468
20
-95.8438
11
188.466
21
-95.8452
0
LINE
8
BLACK
6
CONTINUOUS
10
188.466
20
-95.8452
11
188.449
21
-95.8422
0
LINE
8
BLACK
6
CONTINUOUS
10
188.449
20
-95.8422
11
188.432
21
-95.8408
0
LINE
8
BLACK
6
CONTINUOUS
10
188.432
20
-95.8408
11
188.431
21
-95.8389
0
LINE
8
BLACK
6
CONTINUOUS
10
188.431
20
-95.8389
11
188.428
21
-95.8385
0
LINE
8
BLACK
6
CONTINUOUS
10
188.428
20
-95.8385
11
188.419
21
-95.8245
0
LINE
8
BLACK
6
CONTINUOUS
10
188.419
20
-95.8245
11
188.408
21
-95.8115
0
LINE
8
BLACK
6
CONTINUOUS
10
188.408
20
-95.8115
11
188.408
21
-95.8091
0
LINE
8
BLACK
6
CONTINUOUS
10
188.408
20
-95.8091
11
188.406
21
-95.8071
0
LINE
8
BLACK
6
CONTINUOUS
10
188.406
20
-95.8071
11
188.116
21
-94.4848
0
LINE
8
BLACK
6
CONTINUOUS
10
188.116
20
-94.4848
11
188.119
21
-94.467
0
LINE
8
BLACK
6
CONTINUOUS
10
188.119
20
-94.467
11
188.122
21
-94.4491
0
LINE
8
BLACK
6
CONTINUOUS
10
188.122
20
-94.4491
11
188.123
21
-94.4484
0
LINE
8
BLACK
6
CONTINUOUS
10
188.123
20
-94.4484
11
188.123
21
-94.4471
0
LINE
8
BLACK
6
CONTINUOUS
10
188.123
20
-94.4471
11
188.138
21
-94.4368
0
LINE
8
BLACK
6
CONTINUOUS
10
188.138
20
-94.4368
11
188.152
21
-94.4258
0
LINE
8
BLACK
6
CONTINUOUS
10
188.152
20
-94.4258
11
188.153
21
-94.426
0
LINE
8
BLACK
6
CONTINUOUS
10
188.153
20
-94.426
11
188.154
21
-94.4253
0
LINE
8
BLACK
6
CONTINUOUS
10
188.154
20
-94.4253
11
188.172
21
-94.4284
0
LINE
8
BLACK
6
CONTINUOUS
10
209.672
20
-94.4284
11
209.69
21
-94.4308
0
LINE
8
BLACK
6
CONTINUOUS
10
209.69
20
-94.4308
11
211.271
21
-95.3433
0
LINE
8
BLACK
6
CONTINUOUS
10
211.271
20
-95.3433
11
211.282
21
-95.3576
0
LINE
8
BLACK
6
CONTINUOUS
10
211.282
20
-95.3576
11
211.293
21
-95.3715
0
LINE
8
BLACK
6
CONTINUOUS
10
211.293
20
-95.3715
11
211.293
21
-95.3727
0
LINE
8
BLACK
6
CONTINUOUS
10
211.293
20
-95.3727
11
211.294
21
-95.3737
0
LINE
8
BLACK
6
CONTINUOUS
10
211.294
20
-95.3737
11
211.291
21
-95.3916
0
LINE
8
BLACK
6
CONTINUOUS
10
211.291
20
-95.3916
11
211.29
21
-95.4096
0
LINE
8
BLACK
6
CONTINUOUS
10
211.29
20
-95.4096
11
211.289
21
-95.4104
0
LINE
8
BLACK
6
CONTINUOUS
10
211.289
20
-95.4104
11
211.289
21
-95.4116
0
LINE
8
BLACK
6
CONTINUOUS
10
211.289
20
-95.4116
11
211.275
21
-95.4226
0
LINE
8
BLACK
6
CONTINUOUS
10
211.275
20
-95.4226
11
211.261
21
-95.4343
0
LINE
8
BLACK
6
CONTINUOUS
10
211.261
20
-95.4343
11
209.97
21
-95.844
0
LINE
8
BLACK
6
CONTINUOUS
10
209.97
20
-95.844
11
209.968
21
-95.8438
0
LINE
8
BLACK
6
CONTINUOUS
10
209.968
20
-95.8438
11
209.966
21
-95.8452
0
LINE
8
BLACK
6
CONTINUOUS
10
209.966
20
-95.8452
11
209.949
21
-95.8422
0
LINE
8
BLACK
6
CONTINUOUS
10
209.949
20
-95.8422
11
209.932
21
-95.8408
0
LINE
8
BLACK
6
CONTINUOUS
10
209.932
20
-95.8408
11
209.931
21
-95.8389
0
LINE
8
BLACK
6
CONTINUOUS
10
209.931
20
-95.8389
11
209.928
21
-95.8385
0
LINE
8
BLACK
6
CONTINUOUS
10
209.928
20
-95.8385
11
209.919
21
-95.8245
0
LINE
8
BLACK
6
CONTINUOUS
10
209.919
20
-95.8245
11
209.908
21
-95.8115
0
LINE
8
BLACK
6
CONTINUOUS
10
209.908
20
-95.8115
11
209.908
21
-95.8091
0
LINE
8
BLACK
6
CONTINUOUS
10
209.908
20
-95.8091
11
209.906
21
-95.8071
0
LINE
8
BLACK
6
CONTINUOUS
10
209.906
20
-95.8071
11
209.616
21
-94.4848
0
LINE
8
BLACK
6
CONTINUOUS
10
209.616
20
-94.4848
11
209.619
21
-94.467
0
LINE
8
BLACK
6
CONTINUOUS
10
209.619
20
-94.467
11
209.622
21
-94.4491
0
LINE
8
BLACK
6
CONTINUOUS
10
209.622
20
-94.4491
11
209.623
21
-94.4484
0
LINE
8
BLACK
6
CONTINUOUS
10
209.623
20
-94.4484
11
209.623
21
-94.4471
0
LINE
8
BLACK
6
CONTINUOUS
10
209.623
20
-94.4471
11
209.638
21
-94.4368
0
LINE
8
BLACK
6
CONTINUOUS
10
209.638
20
-94.4368
11
209.652
21
-94.4258
0
LINE
8
BLACK
6
CONTINUOUS
10
209.652
20
-94.4258
11
209.653
21
-94.426
0
LINE
8
BLACK
6
CONTINUOUS
10
209.653
20
-94.426
11
209.654
21
-94.4253
0
LINE
8
BLACK
6
CONTINUOUS
10
209.654
20
-94.4253
11
209.672
21
-94.4284
0
LINE
8
BLACK
6
CONTINUOUS
10
166.672
20
-94.4284
11
166.69
21
-94.4308
0
LINE
8
BLACK
6
CONTINUOUS
10
166.69
20
-94.4308
11
168.271
21
-95.3433
0
LINE
8
BLACK
6
CONTINUOUS
10
168.271
20
-95.3433
11
168.282
21
-95.3576
0
LINE
8
BLACK
6
CONTINUOUS
10
168.282
20
-95.3576
11
168.293
21
-95.3715
0
LINE
8
BLACK
6
CONTINUOUS
10
168.293
20
-95.3715
11
168.293
21
-95.3727
0
LINE
8
BLACK
6
CONTINUOUS
10
168.293
20
-95.3727
11
168.294
21
-95.3737
0
LINE
8
BLACK
6
CONTINUOUS
10
168.294
20
-95.3737
11
168.291
21
-95.3916
0
LINE
8
BLACK
6
CONTINUOUS
10
168.291
20
-95.3916
11
168.29
21
-95.4096
0
LINE
8
BLACK
6
CONTINUOUS
10
168.29
20
-95.4096
11
168.289
21
-95.4104
0
LINE
8
BLACK
6
CONTINUOUS
10
168.289
20
-95.4104
11
168.289
21
-95.4116
0
LINE
8
BLACK
6
CONTINUOUS
10
168.289
20
-95.4116
11
168.275
21
-95.4226
0
LINE
8
BLACK
6
CONTINUOUS
10
168.275
20
-95.4226
11
168.261
21
-95.4343
0
LINE
8
BLACK
6
CONTINUOUS
10
168.261
20
-95.4343
11
166.97
21
-95.844
0
LINE
8
BLACK
6
CONTINUOUS
10
166.97
20
-95.844
11
166.968
21
-95.8438
0
LINE
8
BLACK
6
CONTINUOUS
10
166.968
20
-95.8438
11
166.966
21
-95.8452
0
LINE
8
BLACK
6
CONTINUOUS
10
166.966
20
-95.8452
11
166.949
21
-95.8422
0
LINE
8
BLACK
6
CONTINUOUS
10
166.949
20
-95.8422
11
166.932
21
-95.8408
0
LINE
8
BLACK
6
CONTINUOUS
10
166.932
20
-95.8408
11
166.931
21
-95.8389
0
LINE
8
BLACK
6
CONTINUOUS
10
166.931
20
-95.8389
11
166.928
21
-95.8385
0
LINE
8
BLACK
6
CONTINUOUS
10
166.928
20
-95.8385
11
166.919
21
-95.8245
0
LINE
8
BLACK
6
CONTINUOUS
10
166.919
20
-95.8245
11
166.908
21
-95.8115
0
LINE
8
BLACK
6
CONTINUOUS
10
166.908
20
-95.8115
11
166.908
21
-95.8091
0
LINE
8
BLACK
6
CONTINUOUS
10
166.908
20
-95.8091
11
166.906
21
-95.8071
0
LINE
8
BLACK
6
CONTINUOUS
10
166.906
20
-95.8071
11
166.616
21
-94.4848
0
LINE
8
BLACK
6
CONTINUOUS
10
166.616
20
-94.4848
11
166.619
21
-94.467
0
LINE
8
BLACK
6
CONTINUOUS
10
166.619
20
-94.467
11
166.622
21
-94.4491
0
LINE
8
BLACK
6
CONTINUOUS
10
166.622
20
-94.4491
11
166.623
21
-94.4484
0
LINE
8
BLACK
6
CONTINUOUS
10
166.623
20
-94.4484
11
166.623
21
-94.4471
0
LINE
8
BLACK
6
CONTINUOUS
10
166.623
20
-94.4471
11
166.638
21
-94.4368
0
LINE
8
BLACK
6
CONTINUOUS
10
166.638
20
-94.4368
11
166.652
21
-94.4258
0
LINE
8
BLACK
6
CONTINUOUS
10
166.652
20
-94.4258
11
166.653
21
-94.426
0
LINE
8
BLACK
6
CONTINUOUS
10
166.653
20
-94.426
11
166.654
21
-94.4253
0
LINE
8
BLACK
6
CONTINUOUS
10
166.654
20
-94.4253
11
166.672
21
-94.4284
0
LINE
8
BLACK
6
CONTINUOUS
10
213.83
20
-88.1859
11
213.856
21
-88.2304
0
LINE
8
BLACK
6
CONTINUOUS
10
213.856
20
-88.2304
11
213.847
21
-88.2809
0
LINE
8
BLACK
6
CONTINUOUS
10
213.847
20
-88.2809
11
210.393
21
-94.2641
0
LINE
8
BLACK
6
CONTINUOUS
10
210.393
20
-94.2641
11
210.376
21
-94.2841
0
LINE
8
BLACK
6
CONTINUOUS
10
210.376
20
-94.2841
11
210.328
21
-94.3016
0
LINE
8
BLACK
6
CONTINUOUS
10
210.328
20
-94.3016
11
210.279
21
-94.2841
0
LINE
8
BLACK
6
CONTINUOUS
10
210.279
20
-94.2841
11
210.254
21
-94.2396
0
LINE
8
BLACK
6
CONTINUOUS
10
210.254
20
-94.2396
11
210.263
21
-94.1891
0
LINE
8
BLACK
6
CONTINUOUS
10
210.263
20
-94.1891
11
213.717
21
-88.2059
0
LINE
8
BLACK
6
CONTINUOUS
10
213.717
20
-88.2059
11
213.734
21
-88.1859
0
LINE
8
BLACK
6
CONTINUOUS
10
213.734
20
-88.1859
11
213.782
21
-88.1684
0
LINE
8
BLACK
6
CONTINUOUS
10
213.782
20
-88.1684
11
213.83
21
-88.1859
0
LINE
8
BLACK
6
CONTINUOUS
10
170.83
20
-88.1859
11
170.856
21
-88.2304
0
LINE
8
BLACK
6
CONTINUOUS
10
170.856
20
-88.2304
11
170.847
21
-88.2809
0
LINE
8
BLACK
6
CONTINUOUS
10
170.847
20
-88.2809
11
167.393
21
-94.2641
0
LINE
8
BLACK
6
CONTINUOUS
10
167.393
20
-94.2641
11
167.376
21
-94.2841
0
LINE
8
BLACK
6
CONTINUOUS
10
167.376
20
-94.2841
11
167.328
21
-94.3016
0
LINE
8
BLACK
6
CONTINUOUS
10
167.328
20
-94.3016
11
167.279
21
-94.2841
0
LINE
8
BLACK
6
CONTINUOUS
10
167.279
20
-94.2841
11
167.254
21
-94.2396
0
LINE
8
BLACK
6
CONTINUOUS
10
167.254
20
-94.2396
11
167.263
21
-94.1891
0
LINE
8
BLACK
6
CONTINUOUS
10
167.263
20
-94.1891
11
170.717
21
-88.2059
0
LINE
8
BLACK
6
CONTINUOUS
10
170.717
20
-88.2059
11
170.734
21
-88.1859
0
LINE
8
BLACK
6
CONTINUOUS
10
170.734
20
-88.1859
11
170.782
21
-88.1684
0
LINE
8
BLACK
6
CONTINUOUS
10
170.782
20
-88.1684
11
170.83
21
-88.1859
0
LINE
8
BLACK
6
CONTINUOUS
10
192.33
20
-88.1859
11
192.356
21
-88.2304
0
LINE
8
BLACK
6
CONTINUOUS
10
192.356
20
-88.2304
11
192.347
21
-88.2809
0
LINE
8
BLACK
6
CONTINUOUS
10
192.347
20
-88.2809
11
188.893
21
-94.2641
0
LINE
8
BLACK
6
CONTINUOUS
10
188.893
20
-94.2641
11
188.876
21
-94.2841
0
LINE
8
BLACK
6
CONTINUOUS
10
188.876
20
-94.2841
11
188.828
21
-94.3016
0
LINE
8
BLACK
6
CONTINUOUS
10
188.828
20
-94.3016
11
188.779
21
-94.2841
0
LINE
8
BLACK
6
CONTINUOUS
10
188.779
20
-94.2841
11
188.754
21
-94.2396
0
LINE
8
BLACK
6
CONTINUOUS
10
188.754
20
-94.2396
11
188.763
21
-94.1891
0
LINE
8
BLACK
6
CONTINUOUS
10
188.763
20
-94.1891
11
192.217
21
-88.2059
0
LINE
8
BLACK
6
CONTINUOUS
10
192.217
20
-88.2059
11
192.234
21
-88.1859
0
LINE
8
BLACK
6
CONTINUOUS
10
192.234
20
-88.1859
11
192.282
21
-88.1684
0
LINE
8
BLACK
6
CONTINUOUS
10
192.282
20
-88.1684
11
192.33
21
-88.1859
0
LINE
8
BLACK
6
CONTINUOUS
10
206.767
20
-85.4944
11
208.499
21
-86.4944
0
LINE
8
BLACK
6
CONTINUOUS
10
208.499
20
-86.4944
11
208.527
21
-86.5308
0
LINE
8
BLACK
6
CONTINUOUS
10
208.527
20
-86.5308
11
208.521
21
-86.5764
0
LINE
8
BLACK
6
CONTINUOUS
10
208.521
20
-86.5764
11
206.571
21
-89.9539
0
LINE
8
BLACK
6
CONTINUOUS
10
206.571
20
-89.9539
11
206.534
21
-89.9818
0
LINE
8
BLACK
6
CONTINUOUS
10
206.534
20
-89.9818
11
206.489
21
-89.9758
0
LINE
8
BLACK
6
CONTINUOUS
10
206.489
20
-89.9758
11
206.461
21
-89.9394
0
LINE
8
BLACK
6
CONTINUOUS
10
206.461
20
-89.9394
11
206.467
21
-89.8939
0
LINE
8
BLACK
6
CONTINUOUS
10
206.467
20
-89.8939
11
208.387
21
-86.5683
0
LINE
8
BLACK
6
CONTINUOUS
10
208.387
20
-86.5683
11
206.759
21
-85.6283
0
LINE
8
BLACK
6
CONTINUOUS
10
206.759
20
-85.6283
11
204.839
21
-88.9539
0
LINE
8
BLACK
6
CONTINUOUS
10
204.839
20
-88.9539
11
204.802
21
-88.9818
0
LINE
8
BLACK
6
CONTINUOUS
10
204.802
20
-88.9818
11
204.757
21
-88.9758
0
LINE
8
BLACK
6
CONTINUOUS
10
204.757
20
-88.9758
11
204.729
21
-88.9394
0
LINE
8
BLACK
6
CONTINUOUS
10
204.729
20
-88.9394
11
204.735
21
-88.8939
0
LINE
8
BLACK
6
CONTINUOUS
10
204.735
20
-88.8939
11
206.685
21
-85.5164
0
LINE
8
BLACK
6
CONTINUOUS
10
206.685
20
-85.5164
11
206.685
21
-85.5164
0
LINE
8
BLACK
6
CONTINUOUS
10
206.685
20
-85.5164
11
206.721
21
-85.4884
0
LINE
8
BLACK
6
CONTINUOUS
10
206.721
20
-85.4884
11
206.767
21
-85.4944
0
LINE
8
BLACK
6
CONTINUOUS
10
185.267
20
-85.4944
11
186.999
21
-86.4944
0
LINE
8
BLACK
6
CONTINUOUS
10
186.999
20
-86.4944
11
187.027
21
-86.5308
0
LINE
8
BLACK
6
CONTINUOUS
10
187.027
20
-86.5308
11
187.021
21
-86.5764
0
LINE
8
BLACK
6
CONTINUOUS
10
187.021
20
-86.5764
11
185.071
21
-89.9539
0
LINE
8
BLACK
6
CONTINUOUS
10
185.071
20
-89.9539
11
185.034
21
-89.9818
0
LINE
8
BLACK
6
CONTINUOUS
10
185.034
20
-89.9818
11
184.989
21
-89.9758
0
LINE
8
BLACK
6
CONTINUOUS
10
184.989
20
-89.9758
11
184.961
21
-89.9394
0
LINE
8
BLACK
6
CONTINUOUS
10
184.961
20
-89.9394
11
184.967
21
-89.8939
0
LINE
8
BLACK
6
CONTINUOUS
10
184.967
20
-89.8939
11
186.887
21
-86.5683
0
LINE
8
BLACK
6
CONTINUOUS
10
186.887
20
-86.5683
11
185.259
21
-85.6283
0
LINE
8
BLACK
6
CONTINUOUS
10
185.259
20
-85.6283
11
183.339
21
-88.9539
0
LINE
8
BLACK
6
CONTINUOUS
10
183.339
20
-88.9539
11
183.302
21
-88.9818
0
LINE
8
BLACK
6
CONTINUOUS
10
183.302
20
-88.9818
11
183.257
21
-88.9758
0
LINE
8
BLACK
6
CONTINUOUS
10
183.257
20
-88.9758
11
183.229
21
-88.9394
0
LINE
8
BLACK
6
CONTINUOUS
10
183.229
20
-88.9394
11
183.235
21
-88.8939
0
LINE
8
BLACK
6
CONTINUOUS
10
183.235
20
-88.8939
11
185.185
21
-85.5164
0
LINE
8
BLACK
6
CONTINUOUS
10
185.185
20
-85.5164
11
185.185
21
-85.5164
0
LINE
8
BLACK
6
CONTINUOUS
10
185.185
20
-85.5164
11
185.221
21
-85.4884
0
LINE
8
BLACK
6
CONTINUOUS
10
185.221
20
-85.4884
11
185.267
21
-85.4944
0
LINE
8
BLACK
6
CONTINUOUS
10
163.767
20
-85.4944
11
165.499
21
-86.4944
0
LINE
8
BLACK
6
CONTINUOUS
10
165.499
20
-86.4944
11
165.527
21
-86.5308
0
LINE
8
BLACK
6
CONTINUOUS
10
165.527
20
-86.5308
11
165.521
21
-86.5764
0
LINE
8
BLACK
6
CONTINUOUS
10
165.521
20
-86.5764
11
163.571
21
-89.9539
0
LINE
8
BLACK
6
CONTINUOUS
10
163.571
20
-89.9539
11
163.534
21
-89.9818
0
LINE
8
BLACK
6
CONTINUOUS
10
163.534
20
-89.9818
11
163.489
21
-89.9758
0
LINE
8
BLACK
6
CONTINUOUS
10
163.489
20
-89.9758
11
163.461
21
-89.9394
0
LINE
8
BLACK
6
CONTINUOUS
10
163.461
20
-89.9394
11
163.467
21
-89.8939
0
LINE
8
BLACK
6
CONTINUOUS
10
163.467
20
-89.8939
11
165.387
21
-86.5683
0
LINE
8
BLACK
6
CONTINUOUS
10
165.387
20
-86.5683
11
163.759
21
-85.6283
0
LINE
8
BLACK
6
CONTINUOUS
10
163.759
20
-85.6283
11
161.839
21
-88.9539
0
LINE
8
BLACK
6
CONTINUOUS
10
161.839
20
-88.9539
11
161.802
21
-88.9818
0
LINE
8
BLACK
6
CONTINUOUS
10
161.802
20
-88.9818
11
161.757
21
-88.9758
0
LINE
8
BLACK
6
CONTINUOUS
10
161.757
20
-88.9758
11
161.729
21
-88.9394
0
LINE
8
BLACK
6
CONTINUOUS
10
161.729
20
-88.9394
11
161.735
21
-88.8939
0
LINE
8
BLACK
6
CONTINUOUS
10
161.735
20
-88.8939
11
163.685
21
-85.5164
0
LINE
8
BLACK
6
CONTINUOUS
10
163.685
20
-85.5164
11
163.685
21
-85.5164
0
LINE
8
BLACK
6
CONTINUOUS
10
163.685
20
-85.5164
11
163.721
21
-85.4884
0
LINE
8
BLACK
6
CONTINUOUS
10
163.721
20
-85.4884
11
163.767
21
-85.4944
0
LINE
8
BLACK
6
CONTINUOUS
10
157.425
20
-73.5976
11
157.443
21
-73.64
0
LINE
8
BLACK
6
CONTINUOUS
10
157.443
20
-73.64
11
157.425
21
-73.6824
0
LINE
8
BLACK
6
CONTINUOUS
10
157.425
20
-73.6824
11
157.383
21
-73.7
0
LINE
8
BLACK
6
CONTINUOUS
10
157.383
20
-73.7
11
153.543
21
-73.7
0
LINE
8
BLACK
6
CONTINUOUS
10
153.543
20
-73.7
11
153.543
21
-75.58
0
LINE
8
BLACK
6
CONTINUOUS
10
153.543
20
-75.58
11
157.383
21
-75.58
0
LINE
8
BLACK
6
CONTINUOUS
10
157.383
20
-75.58
11
157.425
21
-75.5976
0
LINE
8
BLACK
6
CONTINUOUS
10
157.425
20
-75.5976
11
157.443
21
-75.64
0
LINE
8
BLACK
6
CONTINUOUS
10
157.443
20
-75.64
11
157.425
21
-75.6824
0
LINE
8
BLACK
6
CONTINUOUS
10
157.425
20
-75.6824
11
157.383
21
-75.7
0
LINE
8
BLACK
6
CONTINUOUS
10
157.383
20
-75.7
11
153.483
21
-75.7
0
LINE
8
BLACK
6
CONTINUOUS
10
153.483
20
-75.7
11
153.44
21
-75.6824
0
LINE
8
BLACK
6
CONTINUOUS
10
153.44
20
-75.6824
11
153.423
21
-75.64
0
LINE
8
BLACK
6
CONTINUOUS
10
153.423
20
-75.64
11
153.423
21
-73.64
0
LINE
8
BLACK
6
CONTINUOUS
10
153.423
20
-73.64
11
153.44
21
-73.5976
0
LINE
8
BLACK
6
CONTINUOUS
10
153.44
20
-73.5976
11
153.483
21
-73.58
0
LINE
8
BLACK
6
CONTINUOUS
10
153.483
20
-73.58
11
157.383
21
-73.58
0
LINE
8
BLACK
6
CONTINUOUS
10
157.383
20
-73.58
11
157.425
21
-73.5976
0
LINE
8
BLACK
6
CONTINUOUS
10
174.003
20
-70.3964
11
175.953
21
-73.7739
0
LINE
8
BLACK
6
CONTINUOUS
10
175.953
20
-73.7739
11
175.959
21
-73.8194
0
LINE
8
BLACK
6
CONTINUOUS
10
175.959
20
-73.8194
11
175.931
21
-73.8558
0
LINE
8
BLACK
6
CONTINUOUS
10
175.931
20
-73.8558
11
175.886
21
-73.8618
0
LINE
8
BLACK
6
CONTINUOUS
10
175.886
20
-73.8618
11
175.849
21
-73.8339
0
LINE
8
BLACK
6
CONTINUOUS
10
175.849
20
-73.8339
11
173.929
21
-70.5083
0
LINE
8
BLACK
6
CONTINUOUS
10
173.929
20
-70.5083
11
172.301
21
-71.4483
0
LINE
8
BLACK
6
CONTINUOUS
10
172.301
20
-71.4483
11
174.221
21
-74.7739
0
LINE
8
BLACK
6
CONTINUOUS
10
174.221
20
-74.7739
11
174.227
21
-74.8194
0
LINE
8
BLACK
6
CONTINUOUS
10
174.227
20
-74.8194
11
174.199
21
-74.8558
0
LINE
8
BLACK
6
CONTINUOUS
10
174.199
20
-74.8558
11
174.154
21
-74.8618
0
LINE
8
BLACK
6
CONTINUOUS
10
174.154
20
-74.8618
11
174.117
21
-74.8339
0
LINE
8
BLACK
6
CONTINUOUS
10
174.117
20
-74.8339
11
172.167
21
-71.4564
0
LINE
8
BLACK
6
CONTINUOUS
10
172.167
20
-71.4564
11
172.161
21
-71.4108
0
LINE
8
BLACK
6
CONTINUOUS
10
172.161
20
-71.4108
11
172.189
21
-71.3744
0
LINE
8
BLACK
6
CONTINUOUS
10
172.189
20
-71.3744
11
173.921
21
-70.3744
0
LINE
8
BLACK
6
CONTINUOUS
10
173.921
20
-70.3744
11
173.921
21
-70.3744
0
LINE
8
BLACK
6
CONTINUOUS
10
173.921
20
-70.3744
11
173.967
21
-70.3684
0
LINE
8
BLACK
6
CONTINUOUS
10
173.967
20
-70.3684
11
174.003
21
-70.3964
0
LINE
8
BLACK
6
CONTINUOUS
10
195.503
20
-70.3964
11
197.453
21
-73.7739
0
LINE
8
BLACK
6
CONTINUOUS
10
197.453
20
-73.7739
11
197.459
21
-73.8194
0
LINE
8
BLACK
6
CONTINUOUS
10
197.459
20
-73.8194
11
197.431
21
-73.8558
0
LINE
8
BLACK
6
CONTINUOUS
10
197.431
20
-73.8558
11
197.386
21
-73.8618
0
LINE
8
BLACK
6
CONTINUOUS
10
197.386
20
-73.8618
11
197.349
21
-73.8339
0
LINE
8
BLACK
6
CONTINUOUS
10
197.349
20
-73.8339
11
195.429
21
-70.5083
0
LINE
8
BLACK
6
CONTINUOUS
10
195.429
20
-70.5083
11
193.801
21
-71.4483
0
LINE
8
BLACK
6
CONTINUOUS
10
193.801
20
-71.4483
11
195.721
21
-74.7739
0
LINE
8
BLACK
6
CONTINUOUS
10
195.721
20
-74.7739
11
195.727
21
-74.8194
0
LINE
8
BLACK
6
CONTINUOUS
10
195.727
20
-74.8194
11
195.699
21
-74.8558
0
LINE
8
BLACK
6
CONTINUOUS
10
195.699
20
-74.8558
11
195.654
21
-74.8618
0
LINE
8
BLACK
6
CONTINUOUS
10
195.654
20
-74.8618
11
195.617
21
-74.8339
0
LINE
8
BLACK
6
CONTINUOUS
10
195.617
20
-74.8339
11
193.667
21
-71.4564
0
LINE
8
BLACK
6
CONTINUOUS
10
193.667
20
-71.4564
11
193.661
21
-71.4108
0
LINE
8
BLACK
6
CONTINUOUS
10
193.661
20
-71.4108
11
193.689
21
-71.3744
0
LINE
8
BLACK
6
CONTINUOUS
10
193.689
20
-71.3744
11
195.421
21
-70.3744
0
LINE
8
BLACK
6
CONTINUOUS
10
195.421
20
-70.3744
11
195.421
21
-70.3744
0
LINE
8
BLACK
6
CONTINUOUS
10
195.421
20
-70.3744
11
195.467
21
-70.3684
0
LINE
8
BLACK
6
CONTINUOUS
10
195.467
20
-70.3684
11
195.503
21
-70.3964
0
LINE
8
BLACK
6
CONTINUOUS
10
217.003
20
-70.3964
11
218.953
21
-73.7739
0
LINE
8
BLACK
6
CONTINUOUS
10
218.953
20
-73.7739
11
218.959
21
-73.8194
0
LINE
8
BLACK
6
CONTINUOUS
10
218.959
20
-73.8194
11
218.931
21
-73.8558
0
LINE
8
BLACK
6
CONTINUOUS
10
218.931
20
-73.8558
11
218.886
21
-73.8618
0
LINE
8
BLACK
6
CONTINUOUS
10
218.886
20
-73.8618
11
218.849
21
-73.8339
0
LINE
8
BLACK
6
CONTINUOUS
10
218.849
20
-73.8339
11
216.929
21
-70.5083
0
LINE
8
BLACK
6
CONTINUOUS
10
216.929
20
-70.5083
11
215.301
21
-71.4483
0
LINE
8
BLACK
6
CONTINUOUS
10
215.301
20
-71.4483
11
217.221
21
-74.7739
0
LINE
8
BLACK
6
CONTINUOUS
10
217.221
20
-74.7739
11
217.227
21
-74.8194
0
LINE
8
BLACK
6
CONTINUOUS
10
217.227
20
-74.8194
11
217.199
21
-74.8558
0
LINE
8
BLACK
6
CONTINUOUS
10
217.199
20
-74.8558
11
217.154
21
-74.8618
0
LINE
8
BLACK
6
CONTINUOUS
10
217.154
20
-74.8618
11
217.117
21
-74.8339
0
LINE
8
BLACK
6
CONTINUOUS
10
217.117
20
-74.8339
11
215.167
21
-71.4564
0
LINE
8
BLACK
6
CONTINUOUS
10
215.167
20
-71.4564
11
215.161
21
-71.4108
0
LINE
8
BLACK
6
CONTINUOUS
10
215.161
20
-71.4108
11
215.189
21
-71.3744
0
LINE
8
BLACK
6
CONTINUOUS
10
215.189
20
-71.3744
11
216.921
21
-70.3744
0
LINE
8
BLACK
6
CONTINUOUS
10
216.921
20
-70.3744
11
216.921
21
-70.3744
0
LINE
8
BLACK
6
CONTINUOUS
10
216.921
20
-70.3744
11
216.967
21
-70.3684
0
LINE
8
BLACK
6
CONTINUOUS
10
216.967
20
-70.3684
11
217.003
21
-70.3964
0
LINE
8
BLACK
6
CONTINUOUS
10
226.007
20
-72.3935
11
226.008
21
-72.3933
0
LINE
8
BLACK
6
CONTINUOUS
10
226.008
20
-72.3933
11
226.023
21
-72.4043
0
LINE
8
BLACK
6
CONTINUOUS
10
226.023
20
-72.4043
11
226.038
21
-72.4146
0
LINE
8
BLACK
6
CONTINUOUS
10
226.038
20
-72.4146
11
226.038
21
-72.4159
0
LINE
8
BLACK
6
CONTINUOUS
10
226.038
20
-72.4159
11
226.039
21
-72.4166
0
LINE
8
BLACK
6
CONTINUOUS
10
226.039
20
-72.4166
11
226.041
21
-72.4345
0
LINE
8
BLACK
6
CONTINUOUS
10
226.041
20
-72.4345
11
226.044
21
-72.4523
0
LINE
8
BLACK
6
CONTINUOUS
10
226.044
20
-72.4523
11
225.754
21
-73.7746
0
LINE
8
BLACK
6
CONTINUOUS
10
225.754
20
-73.7746
11
225.753
21
-73.7766
0
LINE
8
BLACK
6
CONTINUOUS
10
225.753
20
-73.7766
11
225.753
21
-73.779
0
LINE
8
BLACK
6
CONTINUOUS
10
225.753
20
-73.779
11
225.742
21
-73.792
0
LINE
8
BLACK
6
CONTINUOUS
10
225.742
20
-73.792
11
225.732
21
-73.806
0
LINE
8
BLACK
6
CONTINUOUS
10
225.732
20
-73.806
11
225.73
21
-73.8064
0
LINE
8
BLACK
6
CONTINUOUS
10
225.73
20
-73.8064
11
225.728
21
-73.8083
0
LINE
8
BLACK
6
CONTINUOUS
10
225.728
20
-73.8083
11
225.711
21
-73.8097
0
LINE
8
BLACK
6
CONTINUOUS
10
225.711
20
-73.8097
11
225.695
21
-73.8127
0
LINE
8
BLACK
6
CONTINUOUS
10
225.695
20
-73.8127
11
225.693
21
-73.8113
0
LINE
8
BLACK
6
CONTINUOUS
10
225.693
20
-73.8113
11
225.69
21
-73.8115
0
LINE
8
BLACK
6
CONTINUOUS
10
225.69
20
-73.8115
11
224.4
21
-73.4018
0
LINE
8
BLACK
6
CONTINUOUS
10
224.4
20
-73.4018
11
224.386
21
-73.3901
0
LINE
8
BLACK
6
CONTINUOUS
10
224.386
20
-73.3901
11
224.372
21
-73.3791
0
LINE
8
BLACK
6
CONTINUOUS
10
224.372
20
-73.3791
11
224.372
21
-73.3779
0
LINE
8
BLACK
6
CONTINUOUS
10
224.372
20
-73.3779
11
224.371
21
-73.3771
0
LINE
8
BLACK
6
CONTINUOUS
10
224.371
20
-73.3771
11
224.369
21
-73.3591
0
LINE
8
BLACK
6
CONTINUOUS
10
224.369
20
-73.3591
11
224.367
21
-73.3412
0
LINE
8
BLACK
6
CONTINUOUS
10
224.367
20
-73.3412
11
224.368
21
-73.3402
0
LINE
8
BLACK
6
CONTINUOUS
10
224.368
20
-73.3402
11
224.367
21
-73.339
0
LINE
8
BLACK
6
CONTINUOUS
10
224.367
20
-73.339
11
224.379
21
-73.3251
0
LINE
8
BLACK
6
CONTINUOUS
10
224.379
20
-73.3251
11
224.39
21
-73.3108
0
LINE
8
BLACK
6
CONTINUOUS
10
224.39
20
-73.3108
11
225.971
21
-72.3983
0
LINE
8
BLACK
6
CONTINUOUS
10
225.971
20
-72.3983
11
225.988
21
-72.3959
0
LINE
8
BLACK
6
CONTINUOUS
10
225.988
20
-72.3959
11
226.006
21
-72.3928
0
LINE
8
BLACK
6
CONTINUOUS
10
226.006
20
-72.3928
11
226.007
21
-72.3935
0
LINE
8
BLACK
6
CONTINUOUS
10
204.507
20
-72.3935
11
204.508
21
-72.3933
0
LINE
8
BLACK
6
CONTINUOUS
10
204.508
20
-72.3933
11
204.523
21
-72.4043
0
LINE
8
BLACK
6
CONTINUOUS
10
204.523
20
-72.4043
11
204.538
21
-72.4146
0
LINE
8
BLACK
6
CONTINUOUS
10
204.538
20
-72.4146
11
204.538
21
-72.4159
0
LINE
8
BLACK
6
CONTINUOUS
10
204.538
20
-72.4159
11
204.539
21
-72.4166
0
LINE
8
BLACK
6
CONTINUOUS
10
204.539
20
-72.4166
11
204.541
21
-72.4345
0
LINE
8
BLACK
6
CONTINUOUS
10
204.541
20
-72.4345
11
204.544
21
-72.4523
0
LINE
8
BLACK
6
CONTINUOUS
10
204.544
20
-72.4523
11
204.254
21
-73.7746
0
LINE
8
BLACK
6
CONTINUOUS
10
204.254
20
-73.7746
11
204.253
21
-73.7766
0
LINE
8
BLACK
6
CONTINUOUS
10
204.253
20
-73.7766
11
204.253
21
-73.779
0
LINE
8
BLACK
6
CONTINUOUS
10
204.253
20
-73.779
11
204.242
21
-73.792
0
LINE
8
BLACK
6
CONTINUOUS
10
204.242
20
-73.792
11
204.232
21
-73.806
0
LINE
8
BLACK
6
CONTINUOUS
10
204.232
20
-73.806
11
204.23
21
-73.8064
0
LINE
8
BLACK
6
CONTINUOUS
10
204.23
20
-73.8064
11
204.228
21
-73.8083
0
LINE
8
BLACK
6
CONTINUOUS
10
204.228
20
-73.8083
11
204.211
21
-73.8097
0
LINE
8
BLACK
6
CONTINUOUS
10
204.211
20
-73.8097
11
204.195
21
-73.8127
0
LINE
8
BLACK
6
CONTINUOUS
10
204.195
20
-73.8127
11
204.193
21
-73.8113
0
LINE
8
BLACK
6
CONTINUOUS
10
204.193
20
-73.8113
11
204.19
21
-73.8115
0
LINE
8
BLACK
6
CONTINUOUS
10
204.19
20
-73.8115
11
202.9
21
-73.4018
0
LINE
8
BLACK
6
CONTINUOUS
10
202.9
20
-73.4018
11
202.886
21
-73.3901
0
LINE
8
BLACK
6
CONTINUOUS
10
202.886
20
-73.3901
11
202.872
21
-73.3791
0
LINE
8
BLACK
6
CONTINUOUS
10
202.872
20
-73.3791
11
202.872
21
-73.3779
0
LINE
8
BLACK
6
CONTINUOUS
10
202.872
20
-73.3779
11
202.871
21
-73.3771
0
LINE
8
BLACK
6
CONTINUOUS
10
202.871
20
-73.3771
11
202.869
21
-73.3591
0
LINE
8
BLACK
6
CONTINUOUS
10
202.869
20
-73.3591
11
202.867
21
-73.3412
0
LINE
8
BLACK
6
CONTINUOUS
10
202.867
20
-73.3412
11
202.868
21
-73.3402
0
LINE
8
BLACK
6
CONTINUOUS
10
202.868
20
-73.3402
11
202.867
21
-73.339
0
LINE
8
BLACK
6
CONTINUOUS
10
202.867
20
-73.339
11
202.879
21
-73.3251
0
LINE
8
BLACK
6
CONTINUOUS
10
202.879
20
-73.3251
11
202.89
21
-73.3108
0
LINE
8
BLACK
6
CONTINUOUS
10
202.89
20
-73.3108
11
204.471
21
-72.3983
0
LINE
8
BLACK
6
CONTINUOUS
10
204.471
20
-72.3983
11
204.488
21
-72.3959
0
LINE
8
BLACK
6
CONTINUOUS
10
204.488
20
-72.3959
11
204.506
21
-72.3928
0
LINE
8
BLACK
6
CONTINUOUS
10
204.506
20
-72.3928
11
204.507
21
-72.3935
0
LINE
8
BLACK
6
CONTINUOUS
10
183.007
20
-72.3935
11
183.008
21
-72.3933
0
LINE
8
BLACK
6
CONTINUOUS
10
183.008
20
-72.3933
11
183.023
21
-72.4043
0
LINE
8
BLACK
6
CONTINUOUS
10
183.023
20
-72.4043
11
183.038
21
-72.4146
0
LINE
8
BLACK
6
CONTINUOUS
10
183.038
20
-72.4146
11
183.038
21
-72.4159
0
LINE
8
BLACK
6
CONTINUOUS
10
183.038
20
-72.4159
11
183.039
21
-72.4166
0
LINE
8
BLACK
6
CONTINUOUS
10
183.039
20
-72.4166
11
183.041
21
-72.4345
0
LINE
8
BLACK
6
CONTINUOUS
10
183.041
20
-72.4345
11
183.044
21
-72.4523
0
LINE
8
BLACK
6
CONTINUOUS
10
183.044
20
-72.4523
11
182.754
21
-73.7746
0
LINE
8
BLACK
6
CONTINUOUS
10
182.754
20
-73.7746
11
182.753
21
-73.7766
0
LINE
8
BLACK
6
CONTINUOUS
10
182.753
20
-73.7766
11
182.753
21
-73.779
0
LINE
8
BLACK
6
CONTINUOUS
10
182.753
20
-73.779
11
182.742
21
-73.792
0
LINE
8
BLACK
6
CONTINUOUS
10
182.742
20
-73.792
11
182.732
21
-73.806
0
LINE
8
BLACK
6
CONTINUOUS
10
182.732
20
-73.806
11
182.73
21
-73.8064
0
LINE
8
BLACK
6
CONTINUOUS
10
182.73
20
-73.8064
11
182.728
21
-73.8083
0
LINE
8
BLACK
6
CONTINUOUS
10
182.728
20
-73.8083
11
182.711
21
-73.8097
0
LINE
8
BLACK
6
CONTINUOUS
10
182.711
20
-73.8097
11
182.695
21
-73.8127
0
LINE
8
BLACK
6
CONTINUOUS
10
182.695
20
-73.8127
11
182.693
21
-73.8113
0
LINE
8
BLACK
6
CONTINUOUS
10
182.693
20
-73.8113
11
182.69
21
-73.8115
0
LINE
8
BLACK
6
CONTINUOUS
10
182.69
20
-73.8115
11
181.4
21
-73.4018
0
LINE
8
BLACK
6
CONTINUOUS
10
181.4
20
-73.4018
11
181.386
21
-73.3901
0
LINE
8
BLACK
6
CONTINUOUS
10
181.386
20
-73.3901
11
181.372
21
-73.3791
0
LINE
8
BLACK
6
CONTINUOUS
10
181.372
20
-73.3791
11
181.372
21
-73.3779
0
LINE
8
BLACK
6
CONTINUOUS
10
181.372
20
-73.3779
11
181.371
21
-73.3771
0
LINE
8
BLACK
6
CONTINUOUS
10
181.371
20
-73.3771
11
181.369
21
-73.3591
0
LINE
8
BLACK
6
CONTINUOUS
10
181.369
20
-73.3591
11
181.367
21
-73.3412
0
LINE
8
BLACK
6
CONTINUOUS
10
181.367
20
-73.3412
11
181.368
21
-73.3402
0
LINE
8
BLACK
6
CONTINUOUS
10
181.368
20
-73.3402
11
181.367
21
-73.339
0
LINE
8
BLACK
6
CONTINUOUS
10
181.367
20
-73.339
11
181.379
21
-73.3251
0
LINE
8
BLACK
6
CONTINUOUS
10
181.379
20
-73.3251
11
181.39
21
-73.3108
0
LINE
8
BLACK
6
CONTINUOUS
10
181.39
20
-73.3108
11
182.971
21
-72.3983
0
LINE
8
BLACK
6
CONTINUOUS
10
182.971
20
-72.3983
11
182.988
21
-72.3959
0
LINE
8
BLACK
6
CONTINUOUS
10
182.988
20
-72.3959
11
183.006
21
-72.3928
0
LINE
8
BLACK
6
CONTINUOUS
10
183.006
20
-72.3928
11
183.007
21
-72.3935
0
LINE
8
BLACK
6
CONTINUOUS
10
178.103
20
-66.6029
11
178.143
21
-66.6359
0
LINE
8
BLACK
6
CONTINUOUS
10
178.143
20
-66.6359
11
181.597
21
-72.6191
0
LINE
8
BLACK
6
CONTINUOUS
10
181.597
20
-72.6191
11
181.606
21
-72.6436
0
LINE
8
BLACK
6
CONTINUOUS
10
181.606
20
-72.6436
11
181.597
21
-72.6941
0
LINE
8
BLACK
6
CONTINUOUS
10
181.597
20
-72.6941
11
181.558
21
-72.7271
0
LINE
8
BLACK
6
CONTINUOUS
10
181.558
20
-72.7271
11
181.506
21
-72.7271
0
LINE
8
BLACK
6
CONTINUOUS
10
181.506
20
-72.7271
11
181.467
21
-72.6941
0
LINE
8
BLACK
6
CONTINUOUS
10
181.467
20
-72.6941
11
178.013
21
-66.7109
0
LINE
8
BLACK
6
CONTINUOUS
10
178.013
20
-66.7109
11
178.004
21
-66.6864
0
LINE
8
BLACK
6
CONTINUOUS
10
178.004
20
-66.6864
11
178.013
21
-66.6359
0
LINE
8
BLACK
6
CONTINUOUS
10
178.013
20
-66.6359
11
178.052
21
-66.6029
0
LINE
8
BLACK
6
CONTINUOUS
10
178.052
20
-66.6029
11
178.103
21
-66.6029
0
LINE
8
BLACK
6
CONTINUOUS
10
221.103
20
-66.6029
11
221.143
21
-66.6359
0
LINE
8
BLACK
6
CONTINUOUS
10
221.143
20
-66.6359
11
224.597
21
-72.6191
0
LINE
8
BLACK
6
CONTINUOUS
10
224.597
20
-72.6191
11
224.606
21
-72.6436
0
LINE
8
BLACK
6
CONTINUOUS
10
224.606
20
-72.6436
11
224.597
21
-72.6941
0
LINE
8
BLACK
6
CONTINUOUS
10
224.597
20
-72.6941
11
224.558
21
-72.7271
0
LINE
8
BLACK
6
CONTINUOUS
10
224.558
20
-72.7271
11
224.506
21
-72.7271
0
LINE
8
BLACK
6
CONTINUOUS
10
224.506
20
-72.7271
11
224.467
21
-72.6941
0
LINE
8
BLACK
6
CONTINUOUS
10
224.467
20
-72.6941
11
221.013
21
-66.7109
0
LINE
8
BLACK
6
CONTINUOUS
10
221.013
20
-66.7109
11
221.004
21
-66.6864
0
LINE
8
BLACK
6
CONTINUOUS
10
221.004
20
-66.6864
11
221.013
21
-66.6359
0
LINE
8
BLACK
6
CONTINUOUS
10
221.013
20
-66.6359
11
221.052
21
-66.6029
0
LINE
8
BLACK
6
CONTINUOUS
10
221.052
20
-66.6029
11
221.103
21
-66.6029
0
LINE
8
BLACK
6
CONTINUOUS
10
199.603
20
-66.6029
11
199.643
21
-66.6359
0
LINE
8
BLACK
6
CONTINUOUS
10
199.643
20
-66.6359
11
203.097
21
-72.6191
0
LINE
8
BLACK
6
CONTINUOUS
10
203.097
20
-72.6191
11
203.106
21
-72.6436
0
LINE
8
BLACK
6
CONTINUOUS
10
203.106
20
-72.6436
11
203.097
21
-72.6941
0
LINE
8
BLACK
6
CONTINUOUS
10
203.097
20
-72.6941
11
203.058
21
-72.7271
0
LINE
8
BLACK
6
CONTINUOUS
10
203.058
20
-72.7271
11
203.006
21
-72.7271
0
LINE
8
BLACK
6
CONTINUOUS
10
203.006
20
-72.7271
11
202.967
21
-72.6941
0
LINE
8
BLACK
6
CONTINUOUS
10
202.967
20
-72.6941
11
199.513
21
-66.7109
0
LINE
8
BLACK
6
CONTINUOUS
10
199.513
20
-66.7109
11
199.504
21
-66.6864
0
LINE
8
BLACK
6
CONTINUOUS
10
199.504
20
-66.6864
11
199.513
21
-66.6359
0
LINE
8
BLACK
6
CONTINUOUS
10
199.513
20
-66.6359
11
199.552
21
-66.6029
0
LINE
8
BLACK
6
CONTINUOUS
10
199.552
20
-66.6029
11
199.603
21
-66.6029
0
LINE
8
BLACK
6
CONTINUOUS
10
181.134
20
-64.8529
11
181.174
21
-64.8859
0
LINE
8
BLACK
6
CONTINUOUS
10
181.174
20
-64.8859
11
184.628
21
-70.8691
0
LINE
8
BLACK
6
CONTINUOUS
10
184.628
20
-70.8691
11
184.637
21
-70.8936
0
LINE
8
BLACK
6
CONTINUOUS
10
184.637
20
-70.8936
11
184.628
21
-70.9441
0
LINE
8
BLACK
6
CONTINUOUS
10
184.628
20
-70.9441
11
184.589
21
-70.9771
0
LINE
8
BLACK
6
CONTINUOUS
10
184.589
20
-70.9771
11
184.537
21
-70.9771
0
LINE
8
BLACK
6
CONTINUOUS
10
184.537
20
-70.9771
11
184.498
21
-70.9441
0
LINE
8
BLACK
6
CONTINUOUS
10
184.498
20
-70.9441
11
181.044
21
-64.9609
0
LINE
8
BLACK
6
CONTINUOUS
10
181.044
20
-64.9609
11
181.035
21
-64.9364
0
LINE
8
BLACK
6
CONTINUOUS
10
181.035
20
-64.9364
11
181.044
21
-64.8859
0
LINE
8
BLACK
6
CONTINUOUS
10
181.044
20
-64.8859
11
181.083
21
-64.8529
0
LINE
8
BLACK
6
CONTINUOUS
10
181.083
20
-64.8529
11
181.134
21
-64.8529
0
LINE
8
BLACK
6
CONTINUOUS
10
202.634
20
-64.8529
11
202.674
21
-64.8859
0
LINE
8
BLACK
6
CONTINUOUS
10
202.674
20
-64.8859
11
206.128
21
-70.8691
0
LINE
8
BLACK
6
CONTINUOUS
10
206.128
20
-70.8691
11
206.137
21
-70.8936
0
LINE
8
BLACK
6
CONTINUOUS
10
206.137
20
-70.8936
11
206.128
21
-70.9441
0
LINE
8
BLACK
6
CONTINUOUS
10
206.128
20
-70.9441
11
206.089
21
-70.9771
0
LINE
8
BLACK
6
CONTINUOUS
10
206.089
20
-70.9771
11
206.037
21
-70.9771
0
LINE
8
BLACK
6
CONTINUOUS
10
206.037
20
-70.9771
11
205.998
21
-70.9441
0
LINE
8
BLACK
6
CONTINUOUS
10
205.998
20
-70.9441
11
202.544
21
-64.9609
0
LINE
8
BLACK
6
CONTINUOUS
10
202.544
20
-64.9609
11
202.535
21
-64.9364
0
LINE
8
BLACK
6
CONTINUOUS
10
202.535
20
-64.9364
11
202.544
21
-64.8859
0
LINE
8
BLACK
6
CONTINUOUS
10
202.544
20
-64.8859
11
202.583
21
-64.8529
0
LINE
8
BLACK
6
CONTINUOUS
10
202.583
20
-64.8529
11
202.634
21
-64.8529
0
LINE
8
BLACK
6
CONTINUOUS
10
224.134
20
-64.8529
11
224.174
21
-64.8859
0
LINE
8
BLACK
6
CONTINUOUS
10
224.174
20
-64.8859
11
227.628
21
-70.8691
0
LINE
8
BLACK
6
CONTINUOUS
10
227.628
20
-70.8691
11
227.637
21
-70.8936
0
LINE
8
BLACK
6
CONTINUOUS
10
227.637
20
-70.8936
11
227.628
21
-70.9441
0
LINE
8
BLACK
6
CONTINUOUS
10
227.628
20
-70.9441
11
227.589
21
-70.9771
0
LINE
8
BLACK
6
CONTINUOUS
10
227.589
20
-70.9771
11
227.537
21
-70.9771
0
LINE
8
BLACK
6
CONTINUOUS
10
227.537
20
-70.9771
11
227.498
21
-70.9441
0
LINE
8
BLACK
6
CONTINUOUS
10
227.498
20
-70.9441
11
224.044
21
-64.9609
0
LINE
8
BLACK
6
CONTINUOUS
10
224.044
20
-64.9609
11
224.035
21
-64.9364
0
LINE
8
BLACK
6
CONTINUOUS
10
224.035
20
-64.9364
11
224.044
21
-64.8859
0
LINE
8
BLACK
6
CONTINUOUS
10
224.044
20
-64.8859
11
224.083
21
-64.8529
0
LINE
8
BLACK
6
CONTINUOUS
10
224.083
20
-64.8529
11
224.134
21
-64.8529
0
LINE
8
BLACK
6
CONTINUOUS
10
159.767
20
-66.7719
11
159.784
21
-66.7781
0
LINE
8
BLACK
6
CONTINUOUS
10
159.784
20
-66.7781
11
160.784
21
-67.6906
0
LINE
8
BLACK
6
CONTINUOUS
10
160.784
20
-67.6906
11
160.785
21
-67.6928
0
LINE
8
BLACK
6
CONTINUOUS
10
160.785
20
-67.6928
11
160.787
21
-67.6938
0
LINE
8
BLACK
6
CONTINUOUS
10
160.787
20
-67.6938
11
160.793
21
-67.7098
0
LINE
8
BLACK
6
CONTINUOUS
10
160.793
20
-67.7098
11
160.8
21
-67.7252
0
LINE
8
BLACK
6
CONTINUOUS
10
160.8
20
-67.7252
11
160.799
21
-67.7275
0
LINE
8
BLACK
6
CONTINUOUS
10
160.799
20
-67.7275
11
160.8
21
-67.7298
0
LINE
8
BLACK
6
CONTINUOUS
10
160.8
20
-67.7298
11
160.793
21
-67.7452
0
LINE
8
BLACK
6
CONTINUOUS
10
160.793
20
-67.7452
11
160.787
21
-67.7612
0
LINE
8
BLACK
6
CONTINUOUS
10
160.787
20
-67.7612
11
160.785
21
-67.7622
0
LINE
8
BLACK
6
CONTINUOUS
10
160.785
20
-67.7622
11
160.784
21
-67.7644
0
LINE
8
BLACK
6
CONTINUOUS
10
160.784
20
-67.7644
11
159.784
21
-68.6769
0
LINE
8
BLACK
6
CONTINUOUS
10
159.784
20
-68.6769
11
159.767
21
-68.6831
0
LINE
8
BLACK
6
CONTINUOUS
10
159.767
20
-68.6831
11
159.75
21
-68.69
0
LINE
8
BLACK
6
CONTINUOUS
10
159.75
20
-68.69
11
159.749
21
-68.6895
0
LINE
8
BLACK
6
CONTINUOUS
10
159.749
20
-68.6895
11
159.748
21
-68.6899
0
LINE
8
BLACK
6
CONTINUOUS
10
159.748
20
-68.6899
11
159.731
21
-68.6823
0
LINE
8
BLACK
6
CONTINUOUS
10
159.731
20
-68.6823
11
159.715
21
-68.6754
0
LINE
8
BLACK
6
CONTINUOUS
10
159.715
20
-68.6754
11
159.714
21
-68.6742
0
LINE
8
BLACK
6
CONTINUOUS
10
159.714
20
-68.6742
11
159.713
21
-68.6737
0
LINE
8
BLACK
6
CONTINUOUS
10
159.713
20
-68.6737
11
159.707
21
-68.6567
0
LINE
8
BLACK
6
CONTINUOUS
10
159.707
20
-68.6567
11
159.7
21
-68.64
0
LINE
8
BLACK
6
CONTINUOUS
10
159.7
20
-68.64
11
159.7
21
-66.815
0
LINE
8
BLACK
6
CONTINUOUS
10
159.7
20
-66.815
11
159.707
21
-66.7983
0
LINE
8
BLACK
6
CONTINUOUS
10
159.707
20
-66.7983
11
159.713
21
-66.7813
0
LINE
8
BLACK
6
CONTINUOUS
10
159.713
20
-66.7813
11
159.714
21
-66.7808
0
LINE
8
BLACK
6
CONTINUOUS
10
159.714
20
-66.7808
11
159.715
21
-66.7796
0
LINE
8
BLACK
6
CONTINUOUS
10
159.715
20
-66.7796
11
159.731
21
-66.7727
0
LINE
8
BLACK
6
CONTINUOUS
10
159.731
20
-66.7727
11
159.748
21
-66.7651
0
LINE
8
BLACK
6
CONTINUOUS
10
159.748
20
-66.7651
11
159.749
21
-66.7655
0
LINE
8
BLACK
6
CONTINUOUS
10
159.749
20
-66.7655
11
159.75
21
-66.765
0
LINE
8
BLACK
6
CONTINUOUS
10
159.75
20
-66.765
11
159.767
21
-66.7719
0
LINE
8
BLACK
6
CONTINUOUS
10
159.23
20
-68.1195
11
159.269
21
-68.1525
0
LINE
8
BLACK
6
CONTINUOUS
10
159.269
20
-68.1525
11
159.278
21
-68.203
0
LINE
8
BLACK
6
CONTINUOUS
10
159.278
20
-68.203
11
159.253
21
-68.2475
0
LINE
8
BLACK
6
CONTINUOUS
10
159.253
20
-68.2475
11
159.204
21
-68.265
0
LINE
8
BLACK
6
CONTINUOUS
10
159.204
20
-68.265
11
152.296
21
-68.265
0
LINE
8
BLACK
6
CONTINUOUS
10
152.296
20
-68.265
11
152.27
21
-68.2605
0
LINE
8
BLACK
6
CONTINUOUS
10
152.27
20
-68.2605
11
152.231
21
-68.2275
0
LINE
8
BLACK
6
CONTINUOUS
10
152.231
20
-68.2275
11
152.222
21
-68.177
0
LINE
8
BLACK
6
CONTINUOUS
10
152.222
20
-68.177
11
152.247
21
-68.1325
0
LINE
8
BLACK
6
CONTINUOUS
10
152.247
20
-68.1325
11
152.296
21
-68.115
0
LINE
8
BLACK
6
CONTINUOUS
10
152.296
20
-68.115
11
159.204
21
-68.115
0
LINE
8
BLACK
6
CONTINUOUS
10
159.204
20
-68.115
11
159.23
21
-68.1195
0
LINE
8
BLACK
6
CONTINUOUS
10
159.23
20
-64.6195
11
159.269
21
-64.6525
0
LINE
8
BLACK
6
CONTINUOUS
10
159.269
20
-64.6525
11
159.278
21
-64.703
0
LINE
8
BLACK
6
CONTINUOUS
10
159.278
20
-64.703
11
159.253
21
-64.7475
0
LINE
8
BLACK
6
CONTINUOUS
10
159.253
20
-64.7475
11
159.204
21
-64.765
0
LINE
8
BLACK
6
CONTINUOUS
10
159.204
20
-64.765
11
152.296
21
-64.765
0
LINE
8
BLACK
6
CONTINUOUS
10
152.296
20
-64.765
11
152.27
21
-64.7605
0
LINE
8
BLACK
6
CONTINUOUS
10
152.27
20
-64.7605
11
152.231
21
-64.7275
0
LINE
8
BLACK
6
CONTINUOUS
10
152.231
20
-64.7275
11
152.222
21
-64.677
0
LINE
8
BLACK
6
CONTINUOUS
10
152.222
20
-64.677
11
152.247
21
-64.6325
0
LINE
8
BLACK
6
CONTINUOUS
10
152.247
20
-64.6325
11
152.296
21
-64.615
0
LINE
8
BLACK
6
CONTINUOUS
10
152.296
20
-64.615
11
159.204
21
-64.615
0
LINE
8
BLACK
6
CONTINUOUS
10
159.204
20
-64.615
11
159.23
21
-64.6195
0
CIRCLE
8
BLACK
10
181.45
20
-113.08
40
0.15
0
CIRCLE
8
BLACK
10
231
20
-167.704
40
1.7145
0
CIRCLE
8
BLACK
10
236.5
20
-167.704
40
0.8509
0
CIRCLE
8
BLACK
10
225.5
20
-167.704
40
0.8509
0
CIRCLE
8
BLACK
10
226
20
-171.504
40
0.635
0
CIRCLE
8
BLACK
10
236
20
-171.504
40
0.635
0
CIRCLE
8
BLACK
10
231
20
-173.604
40
0.635
0
CIRCLE
8
BLACK
10
217.219
20
-72.89
40
0.15
0
CIRCLE
8
BLACK
10
177.25
20
-104.88
40
0.15
0
CIRCLE
8
BLACK
10
212.25
20
-84.9969
40
0.8509
0
CIRCLE
8
BLACK
10
209.5
20
-89.76
40
1.7145
0
CIRCLE
8
BLACK
10
206.75
20
-94.5231
40
0.8509
0
CIRCLE
8
BLACK
10
203.709
20
-92.1901
40
0.635
0
CIRCLE
8
BLACK
10
208.709
20
-83.5299
40
0.635
0
CIRCLE
8
BLACK
10
204.39
20
-86.81
40
0.635
0
CIRCLE
8
BLACK
10
215.67
20
-88.4727
40
0.15
0
CIRCLE
8
BLACK
10
155.75
20
-74.64
40
0.15
0
CIRCLE
8
BLACK
10
226.8
20
-163.004
40
0.15
0
CIRCLE
8
BLACK
10
184.969
20
-88.01
40
0.15
0
CIRCLE
8
BLACK
10
198.75
20
-104.88
40
0.15
0
CIRCLE
8
BLACK
10
205.646
20
-159.261
40
0.2
0
CIRCLE
8
BLACK
10
205.646
20
-161.595
40
0.2
0
CIRCLE
8
BLACK
10
206.812
20
-162.078
40
0.2
0
CIRCLE
8
BLACK
10
205.162
20
-160.428
40
0.2
0
CIRCLE
8
BLACK
10
208.462
20
-160.428
40
0.2
0
CIRCLE
8
BLACK
10
206.812
20
-158.778
40
0.2
0
CIRCLE
8
BLACK
10
206.812
20
-160.428
40
1.1
0
CIRCLE
8
BLACK
10
207.979
20
-161.595
40
0.2
0
CIRCLE
8
BLACK
10
207.979
20
-159.261
40
0.2
0
CIRCLE
8
BLACK
10
150.25
20
-71.14
40
0.8509
0
CIRCLE
8
BLACK
10
161.25
20
-71.14
40
0.8509
0
CIRCLE
8
BLACK
10
155.75
20
-71.14
40
1.7145
0
CIRCLE
8
BLACK
10
150.75
20
-74.94
40
0.635
0
CIRCLE
8
BLACK
10
160.75
20
-74.94
40
0.635
0
CIRCLE
8
BLACK
10
155.75
20
-77.04
40
0.635
0
CIRCLE
8
BLACK
10
161.25
20
-108.38
40
0.8509
0
CIRCLE
8
BLACK
10
155.75
20
-108.38
40
1.7145
0
CIRCLE
8
BLACK
10
150.25
20
-108.38
40
0.8509
0
CIRCLE
8
BLACK
10
160.75
20
-104.58
40
0.635
0
CIRCLE
8
BLACK
10
150.75
20
-104.58
40
0.635
0
CIRCLE
8
BLACK
10
155.75
20
-102.48
40
0.635
0
CIRCLE
8
BLACK
10
237.896
20
-76.9617
40
0.2
0
CIRCLE
8
BLACK
10
240.712
20
-75.795
40
0.2
0
CIRCLE
8
BLACK
10
239.062
20
-77.445
40
0.2
0
CIRCLE
8
BLACK
10
240.229
20
-76.9617
40
0.2
0
CIRCLE
8
BLACK
10
237.412
20
-75.795
40
0.2
0
CIRCLE
8
BLACK
10
237.896
20
-74.6283
40
0.2
0
CIRCLE
8
BLACK
10
239.062
20
-74.145
40
0.2
0
CIRCLE
8
BLACK
10
240.229
20
-74.6283
40
0.2
0
CIRCLE
8
BLACK
10
239.062
20
-75.795
40
1.1
0
CIRCLE
8
BLACK
10
231
20
-171.204
40
0.15
0
CIRCLE
8
BLACK
10
151.55
20
-113.08
40
0.15
0
CIRCLE
8
BLACK
10
149.338
20
-85.105
40
0.2
0
CIRCLE
8
BLACK
10
147.688
20
-85.105
40
1.1
0
CIRCLE
8
BLACK
10
146.521
20
-86.2717
40
0.2
0
CIRCLE
8
BLACK
10
148.854
20
-83.9383
40
0.2
0
CIRCLE
8
BLACK
10
146.037
20
-85.105
40
0.2
0
CIRCLE
8
BLACK
10
146.521
20
-83.9383
40
0.2
0
CIRCLE
8
BLACK
10
147.688
20
-86.755
40
0.2
0
CIRCLE
8
BLACK
10
147.688
20
-83.455
40
0.2
0
CIRCLE
8
BLACK
10
148.854
20
-86.2717
40
0.2
0
CIRCLE
8
BLACK
10
190.75
20
-84.9969
40
0.8509
0
CIRCLE
8
BLACK
10
188
20
-89.76
40
1.7145
0
CIRCLE
8
BLACK
10
185.25
20
-94.5231
40
0.8509
0
CIRCLE
8
BLACK
10
182.209
20
-92.1901
40
0.635
0
CIRCLE
8
BLACK
10
187.209
20
-83.5299
40
0.635
0
CIRCLE
8
BLACK
10
182.89
20
-86.81
40
0.635
0
CIRCLE
8
BLACK
10
177.25
20
-71.14
40
1.7145
0
CIRCLE
8
BLACK
10
174.5
20
-66.3769
40
0.8509
0
CIRCLE
8
BLACK
10
180
20
-75.9031
40
0.8509
0
CIRCLE
8
BLACK
10
171.459
20
-68.7099
40
0.635
0
CIRCLE
8
BLACK
10
176.459
20
-77.3701
40
0.635
0
CIRCLE
8
BLACK
10
172.14
20
-74.09
40
0.635
0
CIRCLE
8
BLACK
10
194.17
20
-88.4727
40
0.15
0
CIRCLE
8
BLACK
10
183.8
20
-131.7
40
0.15
0
CIRCLE
8
BLACK
10
192.2
20
-131.7
40
0.15
0
CIRCLE
8
BLACK
10
211.47
20
-95.7473
40
0.15
0
CIRCLE
8
BLACK
10
151.55
20
-66.44
40
0.15
0
CIRCLE
8
BLACK
10
159.95
20
-113.08
40
0.15
0
CIRCLE
8
BLACK
10
182.5
20
-127
40
0.8509
0
CIRCLE
8
BLACK
10
193.5
20
-127
40
0.8509
0
CIRCLE
8
BLACK
10
188
20
-127
40
1.7145
0
CIRCLE
8
BLACK
10
193
20
-123.2
40
0.635
0
CIRCLE
8
BLACK
10
183
20
-123.2
40
0.635
0
CIRCLE
8
BLACK
10
188
20
-121.1
40
0.635
0
CIRCLE
8
BLACK
10
183.42
20
-72.4273
40
0.15
0
CIRCLE
8
BLACK
10
248.833
20
-138.247
40
0.2
0
CIRCLE
8
BLACK
10
251.167
20
-140.58
40
0.2
0
CIRCLE
8
BLACK
10
248.833
20
-140.58
40
0.2
0
CIRCLE
8
BLACK
10
251.167
20
-138.247
40
0.2
0
CIRCLE
8
BLACK
10
250
20
-139.413
40
1.1
0
CIRCLE
8
BLACK
10
251.65
20
-139.413
40
0.2
0
CIRCLE
8
BLACK
10
248.35
20
-139.413
40
0.2
0
CIRCLE
8
BLACK
10
250
20
-141.063
40
0.2
0
CIRCLE
8
BLACK
10
250
20
-137.763
40
0.2
0
CIRCLE
8
BLACK
10
196
20
-66.3769
40
0.8509
0
CIRCLE
8
BLACK
10
201.5
20
-75.9031
40
0.8509
0
CIRCLE
8
BLACK
10
198.75
20
-71.14
40
1.7145
0
CIRCLE
8
BLACK
10
192.959
20
-68.7099
40
0.635
0
CIRCLE
8
BLACK
10
197.959
20
-77.3701
40
0.635
0
CIRCLE
8
BLACK
10
193.64
20
-74.09
40
0.635
0
CIRCLE
8
BLACK
10
173.05
20
-113.08
40
0.15
0
CIRCLE
8
BLACK
10
155.75
20
-104.88
40
0.15
0
CIRCLE
8
BLACK
10
189.97
20
-95.7473
40
0.15
0
CIRCLE
8
BLACK
10
194.55
20
-113.08
40
0.15
0
CIRCLE
8
BLACK
10
163.469
20
-88.01
40
0.15
0
CIRCLE
8
BLACK
10
226.42
20
-72.4273
40
0.15
0
CIRCLE
8
BLACK
10
169.25
20
-84.9969
40
0.8509
0
CIRCLE
8
BLACK
10
166.5
20
-89.76
40
1.7145
0
CIRCLE
8
BLACK
10
163.75
20
-94.5231
40
0.8509
0
CIRCLE
8
BLACK
10
165.709
20
-83.5299
40
0.635
0
CIRCLE
8
BLACK
10
160.709
20
-92.1901
40
0.635
0
CIRCLE
8
BLACK
10
161.39
20
-86.81
40
0.635
0
CIRCLE
8
BLACK
10
217.5
20
-66.3769
40
0.8509
0
CIRCLE
8
BLACK
10
223
20
-75.9031
40
0.8509
0
CIRCLE
8
BLACK
10
220.25
20
-71.14
40
1.7145
0
CIRCLE
8
BLACK
10
214.459
20
-68.7099
40
0.635
0
CIRCLE
8
BLACK
10
219.459
20
-77.3701
40
0.635
0
CIRCLE
8
BLACK
10
215.14
20
-74.09
40
0.635
0
CIRCLE
8
BLACK
10
172.67
20
-88.4727
40
0.15
0
CIRCLE
8
BLACK
10
202.95
20
-113.08
40
0.15
0
CIRCLE
8
BLACK
10
222.22
20
-65.1527
40
0.15
0
CIRCLE
8
BLACK
10
193.25
20
-108.38
40
0.8509
0
CIRCLE
8
BLACK
10
204.25
20
-108.38
40
0.8509
0
CIRCLE
8
BLACK
10
198.75
20
-108.38
40
1.7145
0
CIRCLE
8
BLACK
10
203.75
20
-104.58
40
0.635
0
CIRCLE
8
BLACK
10
193.75
20
-104.58
40
0.635
0
CIRCLE
8
BLACK
10
198.75
20
-102.48
40
0.635
0
CIRCLE
8
BLACK
10
204.92
20
-72.4273
40
0.15
0
CIRCLE
8
BLACK
10
171.75
20
-108.38
40
0.8509
0
CIRCLE
8
BLACK
10
177.25
20
-108.38
40
1.7145
0
CIRCLE
8
BLACK
10
182.75
20
-108.38
40
0.8509
0
CIRCLE
8
BLACK
10
182.25
20
-104.58
40
0.635
0
CIRCLE
8
BLACK
10
172.25
20
-104.58
40
0.635
0
CIRCLE
8
BLACK
10
177.25
20
-102.48
40
0.635
0
CIRCLE
8
BLACK
10
245.11
20
-126.366
40
0.381
0
CIRCLE
8
BLACK
10
247.65
20
-126.366
40
0.381
0
CIRCLE
8
BLACK
10
250.19
20
-126.366
40
0.381
0
CIRCLE
8
BLACK
10
252.73
20
-126.366
40
0.381
0
CIRCLE
8
BLACK
10
250.19
20
-121.966
40
0.381
0
CIRCLE
8
BLACK
10
247.65
20
-121.966
40
0.381
0
CIRCLE
8
BLACK
10
245.11
20
-121.966
40
0.381
0
CIRCLE
8
BLACK
10
247.65
20
-130.766
40
0.381
0
CIRCLE
8
BLACK
10
250.19
20
-130.766
40
0.381
0
CIRCLE
8
BLACK
10
252.73
20
-130.766
40
0.381
0
CIRCLE
8
BLACK
10
187
20
-67.5833
40
0.2
0
CIRCLE
8
BLACK
10
187
20
-64.2833
40
0.2
0
CIRCLE
8
BLACK
10
185.833
20
-67.1001
40
0.2
0
CIRCLE
8
BLACK
10
187
20
-65.9333
40
1.1
0
CIRCLE
8
BLACK
10
188.167
20
-67.1001
40
0.2
0
CIRCLE
8
BLACK
10
185.35
20
-65.9333
40
0.2
0
CIRCLE
8
BLACK
10
188.167
20
-64.7666
40
0.2
0
CIRCLE
8
BLACK
10
188.65
20
-65.9333
40
0.2
0
CIRCLE
8
BLACK
10
185.833
20
-64.7666
40
0.2
0
CIRCLE
8
BLACK
10
195.719
20
-72.89
40
0.15
0
CIRCLE
8
BLACK
10
235.2
20
-163.004
40
0.15
0
CIRCLE
8
BLACK
10
206.469
20
-88.01
40
0.15
0
CIRCLE
8
BLACK
10
168.47
20
-95.7473
40
0.15
0
CIRCLE
8
BLACK
10
159.95
20
-66.44
40
0.15
0
CIRCLE
8
BLACK
10
173.042
20
-125.833
40
0.2
0
CIRCLE
8
BLACK
10
173.042
20
-128.167
40
0.2
0
CIRCLE
8
BLACK
10
170.708
20
-128.167
40
0.2
0
CIRCLE
8
BLACK
10
171.875
20
-128.65
40
0.2
0
CIRCLE
8
BLACK
10
170.225
20
-127
40
0.2
0
CIRCLE
8
BLACK
10
173.525
20
-127
40
0.2
0
CIRCLE
8
BLACK
10
171.875
20
-125.35
40
0.2
0
CIRCLE
8
BLACK
10
171.875
20
-127
40
1.1
0
CIRCLE
8
BLACK
10
170.708
20
-125.833
40
0.2
0
CIRCLE
8
BLACK
10
174.219
20
-72.89
40
0.15
0
CIRCLE
8
BLACK
10
200.72
20
-65.1527
40
0.15
0
CIRCLE
8
BLACK
10
179.22
20
-65.1527
40
0.15
0
CIRCLE
8
BLACK
10
188
20
-123.5
40
0.15
  0
ENDSEC
  0
EOF
