0
SECTION
2
HEADER
9
$INSUNITS
70
4
0
ENDSEC
0
SECTION
2
TABLES
0
TABLE
2
LTYPE
0
LTYPE
72
65
70
64
2
CONTINUOUS
3
______
73
0
40
0
0
ENDTAB
0
TABLE
2
LAYER
0
ENDTAB
0
ENDSEC
0
SECTION
2
ENTITIES
0
LINE
8
0
10
248.25
20
-112.33
11
250.25
21
-112.33
0
LINE
8
0
10
250.25
20
-112.33
11
250.25
21
-117.38
0
ARC
8
0
10
250.5
20
-117.38
40
0.25
50
180
51
270
0
LINE
8
0
10
250.5
20
-117.63
11
257.5
21
-117.63
0
ARC
8
0
10
257.5
20
-117.38
40
0.25
50
270
51
360
0
LINE
8
0
10
257.75
20
-117.38
11
257.75
21
-112.33
0
LINE
8
0
10
257.75
20
-112.33
11
259.75
21
-112.33
0
ARC
8
0
10
259.75
20
-112.08
40
0.25
50
270
51
360
0
LINE
8
0
10
260
20
-112.08
11
260
21
-105.08
0
ARC
8
0
10
259.75
20
-105.08
40
0.25
50
0
51
90
0
LINE
8
0
10
259.75
20
-104.83
11
248.25
21
-104.83
0
ARC
8
0
10
248.25
20
-105.08
40
0.25
50
90
51
180
0
LINE
8
0
10
248
20
-105.08
11
248
21
-112.08
0
ARC
8
0
10
248.25
20
-112.08
40
0.25
50
180
51
270
0
LINE
8
0
10
231.25
20
-106.1233333
11
233.25
21
-106.1233333
0
LINE
8
0
10
233.25
20
-106.1233333
11
233.25
21
-111.1733333
0
ARC
8
0
10
233.5
20
-111.1733333
40
0.25
50
180
51
270
0
LINE
8
0
10
233.5
20
-111.4233333
11
240.5
21
-111.4233333
0
ARC
8
0
10
240.5
20
-111.1733333
40
0.25
50
270
51
360
0
LINE
8
0
10
240.75
20
-111.1733333
11
240.75
21
-106.1233333
0
LINE
8
0
10
240.75
20
-106.1233333
11
242.75
21
-106.1233333
0
ARC
8
0
10
242.75
20
-105.8733333
40
0.25
50
270
51
360
0
LINE
8
0
10
243
20
-105.8733333
11
243
21
-98.8733333
0
ARC
8
0
10
242.75
20
-98.8733333
40
0.25
50
0
51
90
0
LINE
8
0
10
242.75
20
-98.6233333
11
231.25
21
-98.6233333
0
ARC
8
0
10
231.25
20
-98.8733333
40
0.25
50
90
51
180
0
LINE
8
0
10
231
20
-98.8733333
11
231
21
-105.8733333
0
ARC
8
0
10
231.25
20
-105.8733333
40
0.25
50
180
51
270
0
LINE
8
0
10
232.75
20
-74.7733333
11
241.25
21
-74.7733333
0
ARC
8
0
10
241.25
20
-74.5233333
40
0.25
50
270
51
360
0
LINE
8
0
10
241.5
20
-74.5233333
11
241.5
21
-68.8233333
0
ARC
8
0
10
241.25
20
-68.8233333
40
0.25
50
0
51
90
0
LINE
8
0
10
241.25
20
-68.5733333
11
232.75
21
-68.5733333
0
ARC
8
0
10
232.75
20
-68.8233333
40
0.25
50
90
51
180
0
LINE
8
0
10
232.5
20
-68.8233333
11
232.5
21
-74.5233333
0
ARC
8
0
10
232.75
20
-74.5233333
40
0.25
50
180
51
270
0
LINE
8
0
10
229.1
20
-151.5907667
11
230.9
21
-151.5907667
0
ARC
8
0
10
230.9
20
-151.3407667
40
0.25
50
270
51
360
0
LINE
8
0
10
231.15
20
-151.3407667
11
231.15
21
-146.8407667
0
ARC
8
0
10
230.9
20
-146.8407667
40
0.25
50
0
51
90
0
LINE
8
0
10
230.9
20
-146.5907667
11
229.1
21
-146.5907667
0
ARC
8
0
10
229.1
20
-146.8407667
40
0.25
50
90
51
180
0
LINE
8
0
10
228.85
20
-146.8407667
11
228.85
21
-151.3407667
0
ARC
8
0
10
229.1
20
-151.3407667
40
0.25
50
180
51
270
0
LINE
8
0
10
277.1
20
-151.5907667
11
278.9
21
-151.5907667
0
ARC
8
0
10
278.9
20
-151.3407667
40
0.25
50
270
51
360
0
LINE
8
0
10
279.15
20
-151.3407667
11
279.15
21
-146.8407667
0
ARC
8
0
10
278.9
20
-146.8407667
40
0.25
50
0
51
90
0
LINE
8
0
10
278.9
20
-146.5907667
11
277.1
21
-146.5907667
0
ARC
8
0
10
277.1
20
-146.8407667
40
0.25
50
90
51
180
0
LINE
8
0
10
276.85
20
-146.8407667
11
276.85
21
-151.3407667
0
ARC
8
0
10
277.1
20
-151.3407667
40
0.25
50
180
51
270
0
CIRCLE
8
0
10
234
20
-145.8907667
40
1.5
0
CIRCLE
8
0
10
274
20
-145.8907667
40
1.5
0
CIRCLE
8
0
10
234
20
-140.8107667
40
1.5
0
CIRCLE
8
0
10
274
20
-140.8107667
40
1.5
0
CIRCLE
8
0
10
234
20
-150.9707667
40
1.5
0
CIRCLE
8
0
10
274
20
-150.9707667
40
1.5
0
LINE
8
0
10
157.4000273
20
-99.905
11
154.3249727
21
-99.905
0
ARC
8
0
10
154.3249727
20
-100.155
40
0.25
50
90
51
135
0
LINE
8
0
10
153.4160892
20
-100.7103301
11
154.148196
21
-99.9782233
0
ARC
8
0
10
152.8857591
20
-100.18
40
0.75
50
270
51
315
0
LINE
8
0
10
152.8857591
20
-100.93
11
150.875
21
-100.93
0
ARC
8
0
10
150.875
20
-101.18
40
0.25
50
90
51
171.3730735
0
ARC
8
0
10
149.886314
20
-101.03
40
0.75
50
270
51
351.3730735
0
LINE
8
0
10
149.886314
20
-101.78
11
148.65
21
-101.78
0
ARC
8
0
10
148.65
20
-102.03
40
0.25
50
90
51
180
0
LINE
8
0
10
148.4
20
-102.03
11
148.4
21
-106.53
0
ARC
8
0
10
148.65
20
-106.53
40
0.25
50
180
51
261.4017716
0
ARC
8
0
10
148.5004951
20
-107.518761
40
0.75
50
333.7900921
51
81.4017642
0
ARC
8
0
10
150.25
20
-108.38
40
1.2
50
153.7900908
51
53.5189398
0
ARC
8
0
10
151.4093862
20
-106.8120958
40
0.75
50
163.6146708
51
233.5041426
0
ARC
8
0
10
150.45
20
-106.53
40
0.25
50
343.6146708
51
360
0
LINE
8
0
10
150.7
20
-106.53
11
150.7
21
-104.78
0
ARC
8
0
10
151.45
20
-104.78
40
0.75
50
90
51
180
0
LINE
8
0
10
151.45
20
-104.03
11
152.8857591
21
-104.03
0
ARC
8
0
10
152.8857591
20
-104.78
40
0.75
50
45
51
90
0
LINE
8
0
10
154.148196
20
-104.9817767
11
153.4160892
21
-104.2496699
0
ARC
8
0
10
154.3249727
20
-104.805
40
0.25
50
225
51
229.2931441
0
ARC
8
0
10
153.6727836
20
-105.5630563
40
0.75
50
306.4198904
51
49.2931447
0
ARC
8
0
10
155.75
20
-108.38
40
2.75
50
126.4050912
51
6.1506399
0
ARC
8
0
10
159.2298527
20
-108.005
40
0.75
50
90
51
186.1506399
0
LINE
8
0
10
159.3363974
20
-107.255
11
159.2298527
21
-107.255
0
ARC
8
0
10
159.3363974
20
-108.005
40
0.75
50
348.9125106
51
90
0
ARC
8
0
10
161.25
20
-108.38
40
1.2
50
168.9125107
51
11.0871451
0
ARC
8
0
10
163.1634816
20
-108.0043828
40
0.75
50
91.8376761
51
191.10597
0
ARC
8
0
10
163.125
20
-106.805
40
0.45
50
271.8376714
51
351.6144613
0
ARC
8
0
10
164.312171
20
-106.98
40
0.75
50
90
51
171.6144613
0
LINE
8
0
10
164.312171
20
-106.23
11
165.625
21
-106.23
0
ARC
8
0
10
165.625
20
-105.98
40
0.25
50
270
51
0
0
LINE
8
0
10
165.875
20
-105.98
11
165.875
21
-103.38
0
ARC
8
0
10
165.625
20
-103.38
40
0.25
50
0
51
90
0
LINE
8
0
10
165.625
20
-103.13
11
163.8496153
21
-103.13
0
ARC
8
0
10
163.8496153
20
-102.38
40
0.75
50
205.5176121
51
270
0
ARC
8
0
10
162.225
20
-103.155
40
1.05
50
25.5028228
51
90
0
LINE
8
0
10
159.35
20
-102.105
11
162.225
21
-102.105
0
ARC
8
0
10
159.35
20
-101.255
40
0.85
50
180
51
270
0
LINE
8
0
10
158.5
20
-101.0049727
11
158.5
21
-101.255
0
ARC
8
0
10
158.25
20
-101.0049727
40
0.25
50
0
51
45
0
LINE
8
0
10
157.576804
20
-99.9782233
11
158.4267767
21
-100.828196
0
ARC
8
0
10
157.4000273
20
-100.155
40
0.25
50
45
51
90
0
CIRCLE
8
0
10
150.75
20
-113.53
40
1.05
0
LINE
8
0
10
178.9000273
20
-99.905
11
175.8249727
21
-99.905
0
ARC
8
0
10
175.8249727
20
-100.155
40
0.25
50
90
51
135
0
LINE
8
0
10
174.9160892
20
-100.7103301
11
175.648196
21
-99.9782233
0
ARC
8
0
10
174.3857591
20
-100.18
40
0.75
50
270
51
315
0
LINE
8
0
10
174.3857591
20
-100.93
11
172.375
21
-100.93
0
ARC
8
0
10
172.375
20
-101.18
40
0.25
50
90
51
171.3730735
0
ARC
8
0
10
171.386314
20
-101.03
40
0.75
50
270
51
351.3730735
0
LINE
8
0
10
171.386314
20
-101.78
11
170.15
21
-101.78
0
ARC
8
0
10
170.15
20
-102.03
40
0.25
50
90
51
180
0
LINE
8
0
10
169.9
20
-102.03
11
169.9
21
-106.53
0
ARC
8
0
10
170.15
20
-106.53
40
0.25
50
180
51
261.4017716
0
ARC
8
0
10
170.0004951
20
-107.518761
40
0.75
50
333.7900921
51
81.4017642
0
ARC
8
0
10
171.75
20
-108.38
40
1.2
50
153.7900908
51
53.5189398
0
ARC
8
0
10
172.9093862
20
-106.8120958
40
0.75
50
163.6146708
51
233.5041426
0
ARC
8
0
10
171.95
20
-106.53
40
0.25
50
343.6146708
51
360
0
LINE
8
0
10
172.2
20
-106.53
11
172.2
21
-104.78
0
ARC
8
0
10
172.95
20
-104.78
40
0.75
50
90
51
180
0
LINE
8
0
10
172.95
20
-104.03
11
174.3857591
21
-104.03
0
ARC
8
0
10
174.3857591
20
-104.78
40
0.75
50
45
51
90
0
LINE
8
0
10
175.648196
20
-104.9817767
11
174.9160892
21
-104.2496699
0
ARC
8
0
10
175.8249727
20
-104.805
40
0.25
50
225
51
229.2931441
0
ARC
8
0
10
175.1727836
20
-105.5630563
40
0.75
50
306.4198904
51
49.2931447
0
ARC
8
0
10
177.25
20
-108.38
40
2.75
50
126.4050912
51
6.1506399
0
ARC
8
0
10
180.7298527
20
-108.005
40
0.75
50
90
51
186.1506399
0
LINE
8
0
10
180.8363974
20
-107.255
11
180.7298527
21
-107.255
0
ARC
8
0
10
180.8363974
20
-108.005
40
0.75
50
348.9125106
51
90
0
ARC
8
0
10
182.75
20
-108.38
40
1.2
50
168.9125107
51
11.0871451
0
ARC
8
0
10
184.6634816
20
-108.0043828
40
0.75
50
91.8376761
51
191.10597
0
ARC
8
0
10
184.625
20
-106.805
40
0.45
50
271.8376714
51
351.6144613
0
ARC
8
0
10
185.812171
20
-106.98
40
0.75
50
90
51
171.6144613
0
LINE
8
0
10
185.812171
20
-106.23
11
187.125
21
-106.23
0
ARC
8
0
10
187.125
20
-105.98
40
0.25
50
270
51
0
0
LINE
8
0
10
187.375
20
-105.98
11
187.375
21
-103.38
0
ARC
8
0
10
187.125
20
-103.38
40
0.25
50
0
51
90
0
LINE
8
0
10
187.125
20
-103.13
11
185.3496153
21
-103.13
0
ARC
8
0
10
185.3496153
20
-102.38
40
0.75
50
205.5176121
51
270
0
ARC
8
0
10
183.725
20
-103.155
40
1.05
50
25.5028228
51
90
0
LINE
8
0
10
180.85
20
-102.105
11
183.725
21
-102.105
0
ARC
8
0
10
180.85
20
-101.255
40
0.85
50
180
51
270
0
LINE
8
0
10
180
20
-101.0049727
11
180
21
-101.255
0
ARC
8
0
10
179.75
20
-101.0049727
40
0.25
50
0
51
45
0
LINE
8
0
10
179.076804
20
-99.9782233
11
179.9267767
21
-100.828196
0
ARC
8
0
10
178.9000273
20
-100.155
40
0.25
50
45
51
90
0
CIRCLE
8
0
10
172.25
20
-113.53
40
1.05
0
LINE
8
0
10
200.4000273
20
-99.905
11
197.3249727
21
-99.905
0
ARC
8
0
10
197.3249727
20
-100.155
40
0.25
50
90
51
135
0
LINE
8
0
10
196.4160892
20
-100.7103301
11
197.148196
21
-99.9782233
0
ARC
8
0
10
195.8857591
20
-100.18
40
0.75
50
270
51
315
0
LINE
8
0
10
195.8857591
20
-100.93
11
193.875
21
-100.93
0
ARC
8
0
10
193.875
20
-101.18
40
0.25
50
90
51
171.3730735
0
ARC
8
0
10
192.886314
20
-101.03
40
0.75
50
270
51
351.3730735
0
LINE
8
0
10
192.886314
20
-101.78
11
191.65
21
-101.78
0
ARC
8
0
10
191.65
20
-102.03
40
0.25
50
90
51
180
0
LINE
8
0
10
191.4
20
-102.03
11
191.4
21
-106.53
0
ARC
8
0
10
191.65
20
-106.53
40
0.25
50
180
51
261.4017716
0
ARC
8
0
10
191.5004951
20
-107.518761
40
0.75
50
333.7900921
51
81.4017642
0
ARC
8
0
10
193.25
20
-108.38
40
1.2
50
153.7900908
51
53.5189398
0
ARC
8
0
10
194.4093862
20
-106.8120958
40
0.75
50
163.6146708
51
233.5041426
0
ARC
8
0
10
193.45
20
-106.53
40
0.25
50
343.6146708
51
360
0
LINE
8
0
10
193.7
20
-106.53
11
193.7
21
-104.78
0
ARC
8
0
10
194.45
20
-104.78
40
0.75
50
90
51
180
0
LINE
8
0
10
194.45
20
-104.03
11
195.8857591
21
-104.03
0
ARC
8
0
10
195.8857591
20
-104.78
40
0.75
50
45
51
90
0
LINE
8
0
10
197.148196
20
-104.9817767
11
196.4160892
21
-104.2496699
0
ARC
8
0
10
197.3249727
20
-104.805
40
0.25
50
225
51
229.2931441
0
ARC
8
0
10
196.6727836
20
-105.5630563
40
0.75
50
306.4198904
51
49.2931447
0
ARC
8
0
10
198.75
20
-108.38
40
2.75
50
126.4050912
51
6.1506399
0
ARC
8
0
10
202.2298527
20
-108.005
40
0.75
50
90
51
186.1506399
0
LINE
8
0
10
202.3363974
20
-107.255
11
202.2298527
21
-107.255
0
ARC
8
0
10
202.3363974
20
-108.005
40
0.75
50
348.9125106
51
90
0
ARC
8
0
10
204.25
20
-108.38
40
1.2
50
168.9125107
51
11.0871451
0
ARC
8
0
10
206.1634816
20
-108.0043828
40
0.75
50
91.8376761
51
191.10597
0
ARC
8
0
10
206.125
20
-106.805
40
0.45
50
271.8376714
51
351.6144613
0
ARC
8
0
10
207.312171
20
-106.98
40
0.75
50
90
51
171.6144613
0
LINE
8
0
10
207.312171
20
-106.23
11
208.625
21
-106.23
0
ARC
8
0
10
208.625
20
-105.98
40
0.25
50
270
51
0
0
LINE
8
0
10
208.875
20
-105.98
11
208.875
21
-103.38
0
ARC
8
0
10
208.625
20
-103.38
40
0.25
50
0
51
90
0
LINE
8
0
10
208.625
20
-103.13
11
206.8496153
21
-103.13
0
ARC
8
0
10
206.8496153
20
-102.38
40
0.75
50
205.5176121
51
270
0
ARC
8
0
10
205.225
20
-103.155
40
1.05
50
25.5028228
51
90
0
LINE
8
0
10
202.35
20
-102.105
11
205.225
21
-102.105
0
ARC
8
0
10
202.35
20
-101.255
40
0.85
50
180
51
270
0
LINE
8
0
10
201.5
20
-101.0049727
11
201.5
21
-101.255
0
ARC
8
0
10
201.25
20
-101.0049727
40
0.25
50
0
51
45
0
LINE
8
0
10
200.576804
20
-99.9782233
11
201.4267767
21
-100.828196
0
ARC
8
0
10
200.4000273
20
-100.155
40
0.25
50
45
51
90
0
CIRCLE
8
0
10
193.75
20
-113.53
40
1.05
0
LINE
8
0
10
153.1645789
20
-86.9514656
11
151.6270516
21
-84.2883902
0
ARC
8
0
10
151.4105453
20
-84.4133902
40
0.25
50
30
51
75
0
LINE
8
0
10
150.4751736
20
-83.903939
11
151.4752501
21
-84.1719087
0
ARC
8
0
10
150.6692879
20
-83.1794946
40
0.75
50
210
51
255
0
LINE
8
0
10
150.0197688
20
-83.5544946
11
149.0143893
21
-81.8131262
0
ARC
8
0
10
148.7978829
20
-81.9381262
40
0.25
50
30
51
111.3730735
0
ARC
8
0
10
148.4334437
20
-81.006899
40
0.75
50
210
51
291.3730735
0
LINE
8
0
10
147.7839247
20
-81.381899
11
147.1657677
21
-80.3112196
0
ARC
8
0
10
146.9492613
20
-80.4362196
40
0.25
50
30
51
120
0
LINE
8
0
10
146.8242613
20
-80.2197133
11
142.927147
21
-82.4697133
0
ARC
8
0
10
143.052147
20
-82.6862196
40
0.25
50
120
51
201.4017716
0
ARC
8
0
10
142.1211024
20
-83.0511251
40
0.75
50
273.7900921
51
21.4017642
0
ARC
8
0
10
142.25
20
-84.9968603
40
1.2
50
93.7900908
51
353.5189398
0
ARC
8
0
10
144.187538
20
-85.2169661
40
0.75
50
103.6146708
51
173.5041426
0
ARC
8
0
10
143.952147
20
-84.2450654
40
0.25
50
283.6146708
51
300
0
LINE
8
0
10
144.077147
20
-84.4615717
11
145.5926915
21
-83.5865717
0
ARC
8
0
10
145.9676915
20
-84.2360908
40
0.75
50
30
51
120
0
LINE
8
0
10
146.6172105
20
-83.8610908
11
147.3350901
21
-85.1044946
0
ARC
8
0
10
146.685571
20
-85.4794946
40
0.75
50
345
51
30
0
LINE
8
0
10
147.1420457
20
-86.6736854
11
147.4100154
21
-85.6736089
0
ARC
8
0
10
147.3835272
20
-86.7383902
40
0.25
50
165
51
169.2931441
0
ARC
8
0
10
146.4009366
20
-86.552606
40
0.75
50
246.4198904
51
349.2931447
0
ARC
8
0
10
145
20
-89.76
40
2.75
50
66.4050912
51
306.1506399
0
ARC
8
0
10
147.0646859
20
-92.5861408
40
0.75
50
30
51
126.1506399
0
LINE
8
0
10
147.7674773
20
-92.3034113
11
147.7142049
21
-92.2111408
0
ARC
8
0
10
147.1179582
20
-92.6784113
40
0.75
50
288.9125106
51
30
0
ARC
8
0
10
147.75
20
-94.5231397
40
1.2
50
108.9125107
51
311.0871451
0
ARC
8
0
10
149.0320348
20
-95.9924548
40
0.75
50
31.8376761
51
131.10597
0
ARC
8
0
10
150.05149
20
-95.3594374
40
0.45
50
211.8376714
51
291.6144613
0
ARC
8
0
10
150.4935211
20
-96.4750576
40
0.75
50
30
51
111.6144613
0
LINE
8
0
10
151.1430401
20
-96.1000576
11
151.7994546
21
-97.2370009
0
ARC
8
0
10
152.015961
20
-97.1120009
40
0.25
50
210
51
300
0
LINE
8
0
10
152.140961
20
-97.3285072
11
154.392627
21
-96.0285072
0
ARC
8
0
10
154.267627
20
-95.8120009
40
0.25
50
300
51
30
0
LINE
8
0
10
154.4841334
20
-95.6870009
11
153.596441
21
-94.1494726
0
ARC
8
0
10
154.2459601
20
-93.7744726
40
0.75
50
145.5176121
51
210
0
ARC
8
0
10
152.7624827
20
-92.7550145
40
1.05
50
325.5028228
51
30
0
LINE
8
0
10
152.2343094
20
-89.7401915
11
153.6718094
21
-92.2300145
0
ARC
8
0
10
152.970431
20
-89.3151915
40
0.85
50
120
51
210
0
LINE
8
0
10
152.761961
20
-88.4540562
11
152.545431
21
-88.5790699
0
ARC
8
0
10
152.636961
20
-88.2375499
40
0.25
50
300
51
345
0
LINE
8
0
10
153.1895541
20
-87.1411703
11
152.8784425
21
-88.3022546
0
ARC
8
0
10
152.9480726
20
-87.0764656
40
0.25
50
345
51
30
0
CIRCLE
8
0
10
138.0399692
20
-88.004873
40
1.05
0
LINE
8
0
10
159.9854484
20
-84.0935344
11
158.4479211
21
-86.7566098
0
ARC
8
0
10
158.6644274
20
-86.8816098
40
0.25
50
150
51
195
0
LINE
8
0
10
158.6909156
20
-87.9463911
11
158.4229459
21
-86.9463146
0
ARC
8
0
10
157.9664712
20
-88.1405054
40
0.75
50
330
51
15
0
LINE
8
0
10
158.6159903
20
-88.5155054
11
157.6106107
21
-90.2568738
0
ARC
8
0
10
157.8271171
20
-90.3818738
40
0.25
50
150
51
231.3730735
0
ARC
8
0
10
157.2028703
20
-91.163101
40
0.75
50
330
51
51.3730735
0
LINE
8
0
10
157.8523893
20
-91.538101
11
157.2342323
21
-92.6087804
0
ARC
8
0
10
157.4507387
20
-92.7337804
40
0.25
50
150
51
240
0
LINE
8
0
10
157.3257387
20
-92.9502867
11
161.222853
21
-95.2002867
0
ARC
8
0
10
161.347853
20
-94.9837804
40
0.25
50
240
51
321.4017716
0
ARC
8
0
10
162.1293927
20
-95.6076359
40
0.75
50
33.7900921
51
141.4017642
0
ARC
8
0
10
163.75
20
-94.5231397
40
1.2
50
213.7900908
51
113.5189398
0
ARC
8
0
10
162.9718482
20
-92.7351297
40
0.75
50
223.6146708
51
293.5041426
0
ARC
8
0
10
162.247853
20
-93.4249346
40
0.25
50
43.6146708
51
60
0
LINE
8
0
10
162.372853
20
-93.2084283
11
160.8573085
21
-92.3334283
0
ARC
8
0
10
161.2323085
20
-91.6839092
40
0.75
50
150
51
240
0
LINE
8
0
10
160.5827895
20
-91.3089092
11
161.300669
21
-90.0655054
0
ARC
8
0
10
161.9501881
20
-90.4405054
40
0.75
50
105
51
150
0
LINE
8
0
10
162.7561503
20
-89.4480913
11
161.7560738
21
-89.716061
0
ARC
8
0
10
162.6914455
20
-89.2066098
40
0.25
50
285
51
289.2931441
0
ARC
8
0
10
163.021847
20
-90.1504503
40
0.75
50
6.4198904
51
109.2931447
0
ARC
8
0
10
166.5
20
-89.76
40
2.75
50
186.4050912
51
66.1506399
0
ARC
8
0
10
167.9151668
20
-86.5588592
40
0.75
50
150
51
246.1506399
0
LINE
8
0
10
167.3189201
20
-86.0915887
11
167.2656478
21
-86.1838592
0
ARC
8
0
10
167.9684392
20
-86.4665887
40
0.75
50
48.9125106
51
150
0
ARC
8
0
10
169.25
20
-84.9968603
40
1.2
50
228.9125107
51
71.0871451
0
ARC
8
0
10
169.8814468
20
-83.151928
40
0.75
50
151.8376761
51
251.10597
0
ARC
8
0
10
168.82351
20
-82.5855626
40
0.45
50
331.8376714
51
51.6144613
0
ARC
8
0
10
169.5686499
20
-81.6449424
40
0.75
50
150
51
231.6144613
0
LINE
8
0
10
168.9191309
20
-81.2699424
11
169.5755454
21
-80.1329991
0
ARC
8
0
10
169.359039
20
-80.0079991
40
0.25
50
330
51
60
0
LINE
8
0
10
169.484039
20
-79.7914928
11
167.232373
21
-78.4914928
0
ARC
8
0
10
167.107373
20
-78.7079991
40
0.25
50
60
51
150
0
LINE
8
0
10
166.8908666
20
-78.5829991
11
166.0031743
21
-80.1205274
0
ARC
8
0
10
165.3536552
20
-79.7455274
40
0.75
50
265.5176121
51
330
0
ARC
8
0
10
165.2125173
20
-81.5399855
40
1.05
50
85.5028228
51
150
0
LINE
8
0
10
162.8656906
20
-83.5048085
11
164.3031906
21
-81.0149855
0
ARC
8
0
10
162.129569
20
-83.0798085
40
0.85
50
240
51
330
0
LINE
8
0
10
161.488039
20
-83.6909165
11
161.704569
21
-83.8159301
0
ARC
8
0
10
161.363039
20
-83.9074228
40
0.25
50
60
51
105
0
LINE
8
0
10
160.1372499
20
-83.977053
11
161.2983342
21
-83.6659414
0
ARC
8
0
10
160.2019547
20
-84.2185344
40
0.25
50
105
51
150
0
CIRCLE
8
0
10
168.4600308
20
-96.665127
40
1.05
0
LINE
8
0
10
181.4854484
20
-84.0935344
11
179.9479211
21
-86.7566098
0
ARC
8
0
10
180.1644274
20
-86.8816098
40
0.25
50
150
51
195
0
LINE
8
0
10
180.1909156
20
-87.9463911
11
179.9229459
21
-86.9463146
0
ARC
8
0
10
179.4664712
20
-88.1405054
40
0.75
50
330
51
15
0
LINE
8
0
10
180.1159903
20
-88.5155054
11
179.1106107
21
-90.2568738
0
ARC
8
0
10
179.3271171
20
-90.3818738
40
0.25
50
150
51
231.3730735
0
ARC
8
0
10
178.7028703
20
-91.163101
40
0.75
50
330
51
51.3730735
0
LINE
8
0
10
179.3523893
20
-91.538101
11
178.7342323
21
-92.6087804
0
ARC
8
0
10
178.9507387
20
-92.7337804
40
0.25
50
150
51
240
0
LINE
8
0
10
178.8257387
20
-92.9502867
11
182.722853
21
-95.2002867
0
ARC
8
0
10
182.847853
20
-94.9837804
40
0.25
50
240
51
321.4017716
0
ARC
8
0
10
183.6293927
20
-95.6076359
40
0.75
50
33.7900921
51
141.4017642
0
ARC
8
0
10
185.25
20
-94.5231397
40
1.2
50
213.7900908
51
113.5189398
0
ARC
8
0
10
184.4718482
20
-92.7351297
40
0.75
50
223.6146708
51
293.5041426
0
ARC
8
0
10
183.747853
20
-93.4249346
40
0.25
50
43.6146708
51
60
0
LINE
8
0
10
183.872853
20
-93.2084283
11
182.3573085
21
-92.3334283
0
ARC
8
0
10
182.7323085
20
-91.6839092
40
0.75
50
150
51
240
0
LINE
8
0
10
182.0827895
20
-91.3089092
11
182.800669
21
-90.0655054
0
ARC
8
0
10
183.4501881
20
-90.4405054
40
0.75
50
105
51
150
0
LINE
8
0
10
184.2561503
20
-89.4480913
11
183.2560738
21
-89.716061
0
ARC
8
0
10
184.1914455
20
-89.2066098
40
0.25
50
285
51
289.2931441
0
ARC
8
0
10
184.521847
20
-90.1504503
40
0.75
50
6.4198904
51
109.2931447
0
ARC
8
0
10
188
20
-89.76
40
2.75
50
186.4050912
51
66.1506399
0
ARC
8
0
10
189.4151668
20
-86.5588592
40
0.75
50
150
51
246.1506399
0
LINE
8
0
10
188.8189201
20
-86.0915887
11
188.7656478
21
-86.1838592
0
ARC
8
0
10
189.4684392
20
-86.4665887
40
0.75
50
48.9125106
51
150
0
ARC
8
0
10
190.75
20
-84.9968603
40
1.2
50
228.9125107
51
71.0871451
0
ARC
8
0
10
191.3814468
20
-83.151928
40
0.75
50
151.8376761
51
251.10597
0
ARC
8
0
10
190.32351
20
-82.5855626
40
0.45
50
331.8376714
51
51.6144613
0
ARC
8
0
10
191.0686499
20
-81.6449424
40
0.75
50
150
51
231.6144613
0
LINE
8
0
10
190.4191309
20
-81.2699424
11
191.0755454
21
-80.1329991
0
ARC
8
0
10
190.859039
20
-80.0079991
40
0.25
50
330
51
60
0
LINE
8
0
10
190.984039
20
-79.7914928
11
188.732373
21
-78.4914928
0
ARC
8
0
10
188.607373
20
-78.7079991
40
0.25
50
60
51
150
0
LINE
8
0
10
188.3908666
20
-78.5829991
11
187.5031743
21
-80.1205274
0
ARC
8
0
10
186.8536552
20
-79.7455274
40
0.75
50
265.5176121
51
330
0
ARC
8
0
10
186.7125173
20
-81.5399855
40
1.05
50
85.5028228
51
150
0
LINE
8
0
10
184.3656906
20
-83.5048085
11
185.8031906
21
-81.0149855
0
ARC
8
0
10
183.629569
20
-83.0798085
40
0.85
50
240
51
330
0
LINE
8
0
10
182.988039
20
-83.6909165
11
183.204569
21
-83.8159301
0
ARC
8
0
10
182.863039
20
-83.9074228
40
0.25
50
60
51
105
0
LINE
8
0
10
181.6372499
20
-83.977053
11
182.7983342
21
-83.6659414
0
ARC
8
0
10
181.7019547
20
-84.2185344
40
0.25
50
105
51
150
0
CIRCLE
8
0
10
189.9600308
20
-96.665127
40
1.05
0
LINE
8
0
10
202.9854484
20
-84.0935344
11
201.4479211
21
-86.7566098
0
ARC
8
0
10
201.6644274
20
-86.8816098
40
0.25
50
150
51
195
0
LINE
8
0
10
201.6909156
20
-87.9463911
11
201.4229459
21
-86.9463146
0
ARC
8
0
10
200.9664712
20
-88.1405054
40
0.75
50
330
51
15
0
LINE
8
0
10
201.6159903
20
-88.5155054
11
200.6106107
21
-90.2568738
0
ARC
8
0
10
200.8271171
20
-90.3818738
40
0.25
50
150
51
231.3730735
0
ARC
8
0
10
200.2028703
20
-91.163101
40
0.75
50
330
51
51.3730735
0
LINE
8
0
10
200.8523893
20
-91.538101
11
200.2342323
21
-92.6087804
0
ARC
8
0
10
200.4507387
20
-92.7337804
40
0.25
50
150
51
240
0
LINE
8
0
10
200.3257387
20
-92.9502867
11
204.222853
21
-95.2002867
0
ARC
8
0
10
204.347853
20
-94.9837804
40
0.25
50
240
51
321.4017716
0
ARC
8
0
10
205.1293927
20
-95.6076359
40
0.75
50
33.7900921
51
141.4017642
0
ARC
8
0
10
206.75
20
-94.5231397
40
1.2
50
213.7900908
51
113.5189398
0
ARC
8
0
10
205.9718482
20
-92.7351297
40
0.75
50
223.6146708
51
293.5041426
0
ARC
8
0
10
205.247853
20
-93.4249346
40
0.25
50
43.6146708
51
60
0
LINE
8
0
10
205.372853
20
-93.2084283
11
203.8573085
21
-92.3334283
0
ARC
8
0
10
204.2323085
20
-91.6839092
40
0.75
50
150
51
240
0
LINE
8
0
10
203.5827895
20
-91.3089092
11
204.300669
21
-90.0655054
0
ARC
8
0
10
204.9501881
20
-90.4405054
40
0.75
50
105
51
150
0
LINE
8
0
10
205.7561503
20
-89.4480913
11
204.7560738
21
-89.716061
0
ARC
8
0
10
205.6914455
20
-89.2066098
40
0.25
50
285
51
289.2931441
0
ARC
8
0
10
206.021847
20
-90.1504503
40
0.75
50
6.4198904
51
109.2931447
0
ARC
8
0
10
209.5
20
-89.76
40
2.75
50
186.4050912
51
66.1506399
0
ARC
8
0
10
210.9151668
20
-86.5588592
40
0.75
50
150
51
246.1506399
0
LINE
8
0
10
210.3189201
20
-86.0915887
11
210.2656478
21
-86.1838592
0
ARC
8
0
10
210.9684392
20
-86.4665887
40
0.75
50
48.9125106
51
150
0
ARC
8
0
10
212.25
20
-84.9968603
40
1.2
50
228.9125107
51
71.0871451
0
ARC
8
0
10
212.8814468
20
-83.151928
40
0.75
50
151.8376761
51
251.10597
0
ARC
8
0
10
211.82351
20
-82.5855626
40
0.45
50
331.8376714
51
51.6144613
0
ARC
8
0
10
212.5686499
20
-81.6449424
40
0.75
50
150
51
231.6144613
0
LINE
8
0
10
211.9191309
20
-81.2699424
11
212.5755454
21
-80.1329991
0
ARC
8
0
10
212.359039
20
-80.0079991
40
0.25
50
330
51
60
0
LINE
8
0
10
212.484039
20
-79.7914928
11
210.232373
21
-78.4914928
0
ARC
8
0
10
210.107373
20
-78.7079991
40
0.25
50
60
51
150
0
LINE
8
0
10
209.8908666
20
-78.5829991
11
209.0031743
21
-80.1205274
0
ARC
8
0
10
208.3536552
20
-79.7455274
40
0.75
50
265.5176121
51
330
0
ARC
8
0
10
208.2125173
20
-81.5399855
40
1.05
50
85.5028228
51
150
0
LINE
8
0
10
205.8656906
20
-83.5048085
11
207.3031906
21
-81.0149855
0
ARC
8
0
10
205.129569
20
-83.0798085
40
0.85
50
240
51
330
0
LINE
8
0
10
204.488039
20
-83.6909165
11
204.704569
21
-83.8159301
0
ARC
8
0
10
204.363039
20
-83.9074228
40
0.25
50
60
51
105
0
LINE
8
0
10
203.1372499
20
-83.977053
11
204.2983342
21
-83.6659414
0
ARC
8
0
10
203.2019547
20
-84.2185344
40
0.25
50
105
51
150
0
CIRCLE
8
0
10
211.4600308
20
-96.665127
40
1.05
0
LINE
8
0
10
154.0999727
20
-79.615
11
157.1750273
21
-79.615
0
ARC
8
0
10
157.1750273
20
-79.365
40
0.25
50
270
51
315
0
LINE
8
0
10
158.0839108
20
-78.8096699
11
157.351804
21
-79.5417767
0
ARC
8
0
10
158.6142409
20
-79.34
40
0.75
50
90
51
135
0
LINE
8
0
10
158.6142409
20
-78.59
11
160.625
21
-78.59
0
ARC
8
0
10
160.625
20
-78.34
40
0.25
50
270
51
351.3730735
0
ARC
8
0
10
161.613686
20
-78.49
40
0.75
50
90
51
171.3730735
0
LINE
8
0
10
161.613686
20
-77.74
11
162.85
21
-77.74
0
ARC
8
0
10
162.85
20
-77.49
40
0.25
50
270
51
360
0
LINE
8
0
10
163.1
20
-77.49
11
163.1
21
-72.99
0
ARC
8
0
10
162.85
20
-72.99
40
0.25
50
0
51
81.4017716
0
ARC
8
0
10
162.9995049
20
-72.001239
40
0.75
50
153.7900921
51
261.4017642
0
ARC
8
0
10
161.25
20
-71.14
40
1.2
50
333.7900908
51
593.5189398
0
ARC
8
0
10
160.0906138
20
-72.7079042
40
0.75
50
343.6146708
51
413.5041426
0
ARC
8
0
10
161.05
20
-72.99
40
0.25
50
523.6146708
51
540
0
LINE
8
0
10
160.8
20
-72.99
11
160.8
21
-74.74
0
ARC
8
0
10
160.05
20
-74.74
40
0.75
50
270
51
360
0
LINE
8
0
10
160.05
20
-75.49
11
158.6142409
21
-75.49
0
ARC
8
0
10
158.6142409
20
-74.74
40
0.75
50
225
51
270
0
LINE
8
0
10
157.351804
20
-74.5382233
11
158.0839108
21
-75.2703301
0
ARC
8
0
10
157.1750273
20
-74.715
40
0.25
50
45
51
49.2931441
0
ARC
8
0
10
157.8272164
20
-73.9569437
40
0.75
50
126.4198904
51
229.2931447
0
ARC
8
0
10
155.75
20
-71.14
40
2.75
50
306.4050912
51
546.1506399
0
ARC
8
0
10
152.2701473
20
-71.515
40
0.75
50
270
51
366.1506399
0
LINE
8
0
10
152.1636026
20
-72.265
11
152.2701473
21
-72.265
0
ARC
8
0
10
152.1636026
20
-71.515
40
0.75
50
168.9125106
51
270
0
ARC
8
0
10
150.25
20
-71.14
40
1.2
50
348.9125107
51
551.0871451
0
ARC
8
0
10
148.3365184
20
-71.5156172
40
0.75
50
271.8376761
51
371.10597
0
ARC
8
0
10
148.375
20
-72.715
40
0.45
50
91.8376714
51
171.6144613
0
ARC
8
0
10
147.187829
20
-72.54
40
0.75
50
270
51
351.6144613
0
LINE
8
0
10
147.187829
20
-73.29
11
145.875
21
-73.29
0
ARC
8
0
10
145.875
20
-73.54
40
0.25
50
90
51
180
0
LINE
8
0
10
145.625
20
-73.54
11
145.625
21
-76.14
0
ARC
8
0
10
145.875
20
-76.14
40
0.25
50
180
51
270
0
LINE
8
0
10
145.875
20
-76.39
11
147.6503847
21
-76.39
0
ARC
8
0
10
147.6503847
20
-77.14
40
0.75
50
25.5176121
51
90
0
ARC
8
0
10
149.275
20
-76.365
40
1.05
50
205.5028228
51
270
0
LINE
8
0
10
152.15
20
-77.415
11
149.275
21
-77.415
0
ARC
8
0
10
152.15
20
-78.265
40
0.85
50
0
51
90
0
LINE
8
0
10
153
20
-78.5150273
11
153
21
-78.265
0
ARC
8
0
10
153.25
20
-78.5150273
40
0.25
50
180
51
225
0
LINE
8
0
10
153.923196
20
-79.5417767
11
153.0732233
21
-78.691804
0
ARC
8
0
10
154.0999727
20
-79.365
40
0.25
50
225
51
270
0
CIRCLE
8
0
10
160.75
20
-65.99
40
1.05
0
LINE
8
0
10
169.0854211
20
-73.9485344
11
170.6229484
21
-76.6116098
0
ARC
8
0
10
170.8394547
20
-76.4866098
40
0.25
50
210
51
255
0
LINE
8
0
10
171.7748264
20
-76.996061
11
170.7747499
21
-76.7280913
0
ARC
8
0
10
171.5807121
20
-77.7205054
40
0.75
50
30
51
75
0
LINE
8
0
10
172.2302312
20
-77.3455054
11
173.2356107
21
-79.0868738
0
ARC
8
0
10
173.4521171
20
-78.9618738
40
0.25
50
210
51
291.3730735
0
ARC
8
0
10
173.8165563
20
-79.893101
40
0.75
50
30
51
111.3730735
0
LINE
8
0
10
174.4660753
20
-79.518101
11
175.0842323
21
-80.5887804
0
ARC
8
0
10
175.3007387
20
-80.4637804
40
0.25
50
210
51
300
0
LINE
8
0
10
175.4257387
20
-80.6802867
11
179.322853
21
-78.4302867
0
ARC
8
0
10
179.197853
20
-78.2137804
40
0.25
50
300
51
21.4017716
0
ARC
8
0
10
180.1288976
20
-77.8488749
40
0.75
50
93.7900921
51
201.4017642
0
ARC
8
0
10
180
20
-75.9031397
40
1.2
50
273.7900908
51
173.5189398
0
ARC
8
0
10
178.062462
20
-75.6830339
40
0.75
50
283.6146708
51
353.5041426
0
ARC
8
0
10
178.297853
20
-76.6549346
40
0.25
50
103.6146708
51
120
0
LINE
8
0
10
178.172853
20
-76.4384283
11
176.6573085
21
-77.3134283
0
ARC
8
0
10
176.2823085
20
-76.6639092
40
0.75
50
210
51
300
0
LINE
8
0
10
175.6327895
20
-77.0389092
11
174.9149099
21
-75.7955054
0
ARC
8
0
10
175.564429
20
-75.4205054
40
0.75
50
165
51
210
0
LINE
8
0
10
175.1079543
20
-74.2263146
11
174.8399846
21
-75.2263911
0
ARC
8
0
10
174.8664728
20
-74.1616098
40
0.25
50
345
51
349.2931441
0
ARC
8
0
10
175.8490634
20
-74.347394
40
0.75
50
66.4198904
51
169.2931447
0
ARC
8
0
10
177.25
20
-71.14
40
2.75
50
246.4050912
51
126.1506399
0
ARC
8
0
10
175.1853141
20
-68.3138592
40
0.75
50
210
51
306.1506399
0
LINE
8
0
10
174.4825227
20
-68.5965887
11
174.5357951
21
-68.6888592
0
ARC
8
0
10
175.1320418
20
-68.2215887
40
0.75
50
108.9125106
51
210
0
ARC
8
0
10
174.5
20
-66.3768603
40
1.2
50
288.9125107
51
131.0871451
0
ARC
8
0
10
173.2179652
20
-64.9075452
40
0.75
50
211.8376761
51
311.10597
0
ARC
8
0
10
172.19851
20
-65.5405626
40
0.45
50
31.8376714
51
111.6144613
0
ARC
8
0
10
171.7564789
20
-64.4249424
40
0.75
50
210
51
291.6144613
0
LINE
8
0
10
171.1069599
20
-64.7999424
11
170.4505454
21
-63.6629991
0
ARC
8
0
10
170.234039
20
-63.7879991
40
0.25
50
30
51
120
0
LINE
8
0
10
170.109039
20
-63.5714928
11
167.857373
21
-64.8714928
0
ARC
8
0
10
167.982373
20
-65.0879991
40
0.25
50
120
51
210
0
LINE
8
0
10
167.7658666
20
-65.2129991
11
168.653559
21
-66.7505274
0
ARC
8
0
10
168.0040399
20
-67.1255274
40
0.75
50
325.5176121
51
30
0
ARC
8
0
10
169.4875173
20
-68.1449855
40
1.05
50
145.5028228
51
210
0
LINE
8
0
10
170.0156906
20
-71.1598085
11
168.5781906
21
-68.6699855
0
ARC
8
0
10
169.279569
20
-71.5848085
40
0.85
50
300
51
30
0
LINE
8
0
10
169.488039
20
-72.4459438
11
169.704569
21
-72.3209301
0
ARC
8
0
10
169.613039
20
-72.6624501
40
0.25
50
120
51
165
0
LINE
8
0
10
169.0604459
20
-73.7588297
11
169.3715575
21
-72.5977454
0
ARC
8
0
10
169.3019274
20
-73.8235344
40
0.25
50
165
51
210
0
CIRCLE
8
0
10
184.2100308
20
-72.895127
40
1.05
0
LINE
8
0
10
190.5854211
20
-73.9485344
11
192.1229484
21
-76.6116098
0
ARC
8
0
10
192.3394547
20
-76.4866098
40
0.25
50
210
51
255
0
LINE
8
0
10
193.2748264
20
-76.996061
11
192.2747499
21
-76.7280913
0
ARC
8
0
10
193.0807121
20
-77.7205054
40
0.75
50
30
51
75
0
LINE
8
0
10
193.7302312
20
-77.3455054
11
194.7356107
21
-79.0868738
0
ARC
8
0
10
194.9521171
20
-78.9618738
40
0.25
50
210
51
291.3730735
0
ARC
8
0
10
195.3165563
20
-79.893101
40
0.75
50
30
51
111.3730735
0
LINE
8
0
10
195.9660753
20
-79.518101
11
196.5842323
21
-80.5887804
0
ARC
8
0
10
196.8007387
20
-80.4637804
40
0.25
50
210
51
300
0
LINE
8
0
10
196.9257387
20
-80.6802867
11
200.822853
21
-78.4302867
0
ARC
8
0
10
200.697853
20
-78.2137804
40
0.25
50
300
51
21.4017716
0
ARC
8
0
10
201.6288976
20
-77.8488749
40
0.75
50
93.7900921
51
201.4017642
0
ARC
8
0
10
201.5
20
-75.9031397
40
1.2
50
273.7900908
51
173.5189398
0
ARC
8
0
10
199.562462
20
-75.6830339
40
0.75
50
283.6146708
51
353.5041426
0
ARC
8
0
10
199.797853
20
-76.6549346
40
0.25
50
103.6146708
51
120
0
LINE
8
0
10
199.672853
20
-76.4384283
11
198.1573085
21
-77.3134283
0
ARC
8
0
10
197.7823085
20
-76.6639092
40
0.75
50
210
51
300
0
LINE
8
0
10
197.1327895
20
-77.0389092
11
196.4149099
21
-75.7955054
0
ARC
8
0
10
197.064429
20
-75.4205054
40
0.75
50
165
51
210
0
LINE
8
0
10
196.6079543
20
-74.2263146
11
196.3399846
21
-75.2263911
0
ARC
8
0
10
196.3664728
20
-74.1616098
40
0.25
50
345
51
349.2931441
0
ARC
8
0
10
197.3490634
20
-74.347394
40
0.75
50
66.4198904
51
169.2931447
0
ARC
8
0
10
198.75
20
-71.14
40
2.75
50
246.4050912
51
126.1506399
0
ARC
8
0
10
196.6853141
20
-68.3138592
40
0.75
50
210
51
306.1506399
0
LINE
8
0
10
195.9825227
20
-68.5965887
11
196.0357951
21
-68.6888592
0
ARC
8
0
10
196.6320418
20
-68.2215887
40
0.75
50
108.9125106
51
210
0
ARC
8
0
10
196
20
-66.3768603
40
1.2
50
288.9125107
51
131.0871451
0
ARC
8
0
10
194.7179652
20
-64.9075452
40
0.75
50
211.8376761
51
311.10597
0
ARC
8
0
10
193.69851
20
-65.5405626
40
0.45
50
31.8376714
51
111.6144613
0
ARC
8
0
10
193.2564789
20
-64.4249424
40
0.75
50
210
51
291.6144613
0
LINE
8
0
10
192.6069599
20
-64.7999424
11
191.9505454
21
-63.6629991
0
ARC
8
0
10
191.734039
20
-63.7879991
40
0.25
50
30
51
120
0
LINE
8
0
10
191.609039
20
-63.5714928
11
189.357373
21
-64.8714928
0
ARC
8
0
10
189.482373
20
-65.0879991
40
0.25
50
120
51
210
0
LINE
8
0
10
189.2658666
20
-65.2129991
11
190.153559
21
-66.7505274
0
ARC
8
0
10
189.5040399
20
-67.1255274
40
0.75
50
325.5176121
51
30
0
ARC
8
0
10
190.9875173
20
-68.1449855
40
1.05
50
145.5028228
51
210
0
LINE
8
0
10
191.5156906
20
-71.1598085
11
190.0781906
21
-68.6699855
0
ARC
8
0
10
190.779569
20
-71.5848085
40
0.85
50
300
51
30
0
LINE
8
0
10
190.988039
20
-72.4459438
11
191.204569
21
-72.3209301
0
ARC
8
0
10
191.113039
20
-72.6624501
40
0.25
50
120
51
165
0
LINE
8
0
10
190.5604459
20
-73.7588297
11
190.8715575
21
-72.5977454
0
ARC
8
0
10
190.8019274
20
-73.8235344
40
0.25
50
165
51
210
0
CIRCLE
8
0
10
205.7100308
20
-72.895127
40
1.05
0
LINE
8
0
10
212.0854211
20
-73.9485344
11
213.6229484
21
-76.6116098
0
ARC
8
0
10
213.8394547
20
-76.4866098
40
0.25
50
210
51
255
0
LINE
8
0
10
214.7748264
20
-76.996061
11
213.7747499
21
-76.7280913
0
ARC
8
0
10
214.5807121
20
-77.7205054
40
0.75
50
30
51
75
0
LINE
8
0
10
215.2302312
20
-77.3455054
11
216.2356107
21
-79.0868738
0
ARC
8
0
10
216.4521171
20
-78.9618738
40
0.25
50
210
51
291.3730735
0
ARC
8
0
10
216.8165563
20
-79.893101
40
0.75
50
30
51
111.3730735
0
LINE
8
0
10
217.4660753
20
-79.518101
11
218.0842323
21
-80.5887804
0
ARC
8
0
10
218.3007387
20
-80.4637804
40
0.25
50
210
51
300
0
LINE
8
0
10
218.4257387
20
-80.6802867
11
222.322853
21
-78.4302867
0
ARC
8
0
10
222.197853
20
-78.2137804
40
0.25
50
300
51
21.4017716
0
ARC
8
0
10
223.1288976
20
-77.8488749
40
0.75
50
93.7900921
51
201.4017642
0
ARC
8
0
10
223
20
-75.9031397
40
1.2
50
273.7900908
51
173.5189398
0
ARC
8
0
10
221.062462
20
-75.6830339
40
0.75
50
283.6146708
51
353.5041426
0
ARC
8
0
10
221.297853
20
-76.6549346
40
0.25
50
103.6146708
51
120
0
LINE
8
0
10
221.172853
20
-76.4384283
11
219.6573085
21
-77.3134283
0
ARC
8
0
10
219.2823085
20
-76.6639092
40
0.75
50
210
51
300
0
LINE
8
0
10
218.6327895
20
-77.0389092
11
217.9149099
21
-75.7955054
0
ARC
8
0
10
218.564429
20
-75.4205054
40
0.75
50
165
51
210
0
LINE
8
0
10
218.1079543
20
-74.2263146
11
217.8399846
21
-75.2263911
0
ARC
8
0
10
217.8664728
20
-74.1616098
40
0.25
50
345
51
349.2931441
0
ARC
8
0
10
218.8490634
20
-74.347394
40
0.75
50
66.4198904
51
169.2931447
0
ARC
8
0
10
220.25
20
-71.14
40
2.75
50
246.4050912
51
126.1506399
0
ARC
8
0
10
218.1853141
20
-68.3138592
40
0.75
50
210
51
306.1506399
0
LINE
8
0
10
217.4825227
20
-68.5965887
11
217.5357951
21
-68.6888592
0
ARC
8
0
10
218.1320418
20
-68.2215887
40
0.75
50
108.9125106
51
210
0
ARC
8
0
10
217.5
20
-66.3768603
40
1.2
50
288.9125107
51
131.0871451
0
ARC
8
0
10
216.2179652
20
-64.9075452
40
0.75
50
211.8376761
51
311.10597
0
ARC
8
0
10
215.19851
20
-65.5405626
40
0.45
50
31.8376714
51
111.6144613
0
ARC
8
0
10
214.7564789
20
-64.4249424
40
0.75
50
210
51
291.6144613
0
LINE
8
0
10
214.1069599
20
-64.7999424
11
213.4505454
21
-63.6629991
0
ARC
8
0
10
213.234039
20
-63.7879991
40
0.25
50
30
51
120
0
LINE
8
0
10
213.109039
20
-63.5714928
11
210.857373
21
-64.8714928
0
ARC
8
0
10
210.982373
20
-65.0879991
40
0.25
50
120
51
210
0
LINE
8
0
10
210.7658666
20
-65.2129991
11
211.653559
21
-66.7505274
0
ARC
8
0
10
211.0040399
20
-67.1255274
40
0.75
50
325.5176121
51
30
0
ARC
8
0
10
212.4875173
20
-68.1449855
40
1.05
50
145.5028228
51
210
0
LINE
8
0
10
213.0156906
20
-71.1598085
11
211.5781906
21
-68.6699855
0
ARC
8
0
10
212.279569
20
-71.5848085
40
0.85
50
300
51
30
0
LINE
8
0
10
212.488039
20
-72.4459438
11
212.704569
21
-72.3209301
0
ARC
8
0
10
212.613039
20
-72.6624501
40
0.25
50
120
51
165
0
LINE
8
0
10
212.0604459
20
-73.7588297
11
212.3715575
21
-72.5977454
0
ARC
8
0
10
212.3019274
20
-73.8235344
40
0.25
50
165
51
210
0
CIRCLE
8
0
10
227.2100308
20
-72.895127
40
1.05
0
LINE
8
0
10
189.6500273
20
-118.525
11
186.5749727
21
-118.525
0
ARC
8
0
10
186.5749727
20
-118.775
40
0.25
50
90
51
135
0
LINE
8
0
10
185.6660892
20
-119.3303301
11
186.398196
21
-118.5982233
0
ARC
8
0
10
185.1357591
20
-118.8
40
0.75
50
270
51
315
0
LINE
8
0
10
185.1357591
20
-119.55
11
183.125
21
-119.55
0
ARC
8
0
10
183.125
20
-119.8
40
0.25
50
90
51
171.3730735
0
ARC
8
0
10
182.136314
20
-119.65
40
0.75
50
270
51
351.3730735
0
LINE
8
0
10
182.136314
20
-120.4
11
180.9
21
-120.4
0
ARC
8
0
10
180.9
20
-120.65
40
0.25
50
90
51
180
0
LINE
8
0
10
180.65
20
-120.65
11
180.65
21
-125.15
0
ARC
8
0
10
180.9
20
-125.15
40
0.25
50
180
51
261.4017716
0
ARC
8
0
10
180.7504951
20
-126.138761
40
0.75
50
333.7900921
51
81.4017642
0
ARC
8
0
10
182.5
20
-127
40
1.2
50
153.7900908
51
53.5189398
0
ARC
8
0
10
183.6593862
20
-125.4320958
40
0.75
50
163.6146708
51
233.5041426
0
ARC
8
0
10
182.7
20
-125.15
40
0.25
50
343.6146708
51
360
0
LINE
8
0
10
182.95
20
-125.15
11
182.95
21
-123.4
0
ARC
8
0
10
183.7
20
-123.4
40
0.75
50
90
51
180
0
LINE
8
0
10
183.7
20
-122.65
11
185.1357591
21
-122.65
0
ARC
8
0
10
185.1357591
20
-123.4
40
0.75
50
45
51
90
0
LINE
8
0
10
186.398196
20
-123.6017767
11
185.6660892
21
-122.8696699
0
ARC
8
0
10
186.5749727
20
-123.425
40
0.25
50
225
51
229.2931441
0
ARC
8
0
10
185.9227836
20
-124.1830563
40
0.75
50
306.4198904
51
49.2931447
0
ARC
8
0
10
188
20
-127
40
2.75
50
126.4050912
51
6.1506399
0
ARC
8
0
10
191.4798527
20
-126.625
40
0.75
50
90
51
186.1506399
0
LINE
8
0
10
191.5863974
20
-125.875
11
191.4798527
21
-125.875
0
ARC
8
0
10
191.5863974
20
-126.625
40
0.75
50
348.9125106
51
90
0
ARC
8
0
10
193.5
20
-127
40
1.2
50
168.9125107
51
11.0871451
0
ARC
8
0
10
195.4134816
20
-126.6243828
40
0.75
50
91.8376761
51
191.10597
0
ARC
8
0
10
195.375
20
-125.425
40
0.45
50
271.8376714
51
351.6144613
0
ARC
8
0
10
196.562171
20
-125.6
40
0.75
50
90
51
171.6144613
0
LINE
8
0
10
196.562171
20
-124.85
11
197.875
21
-124.85
0
ARC
8
0
10
197.875
20
-124.6
40
0.25
50
270
51
0
0
LINE
8
0
10
198.125
20
-124.6
11
198.125
21
-122
0
ARC
8
0
10
197.875
20
-122
40
0.25
50
0
51
90
0
LINE
8
0
10
197.875
20
-121.75
11
196.0996153
21
-121.75
0
ARC
8
0
10
196.0996153
20
-121
40
0.75
50
205.5176121
51
270
0
ARC
8
0
10
194.475
20
-121.775
40
1.05
50
25.5028228
51
90
0
LINE
8
0
10
191.6
20
-120.725
11
194.475
21
-120.725
0
ARC
8
0
10
191.6
20
-119.875
40
0.85
50
180
51
270
0
LINE
8
0
10
190.75
20
-119.6249727
11
190.75
21
-119.875
0
ARC
8
0
10
190.5
20
-119.6249727
40
0.25
50
0
51
45
0
LINE
8
0
10
189.826804
20
-118.5982233
11
190.6767767
21
-119.448196
0
ARC
8
0
10
189.6500273
20
-118.775
40
0.25
50
45
51
90
0
CIRCLE
8
0
10
183
20
-132.15
40
1.05
0
LINE
8
0
10
229.3499727
20
-176.1791
11
232.4250273
21
-176.1791
0
ARC
8
0
10
232.4250273
20
-175.9291
40
0.25
50
270
51
315
0
LINE
8
0
10
233.3339108
20
-175.3737699
11
232.601804
21
-176.1058767
0
ARC
8
0
10
233.8642409
20
-175.9041
40
0.75
50
90
51
135
0
LINE
8
0
10
233.8642409
20
-175.1541
11
235.875
21
-175.1541
0
ARC
8
0
10
235.875
20
-174.9041
40
0.25
50
270
51
351.3730735
0
ARC
8
0
10
236.863686
20
-175.0541
40
0.75
50
90
51
171.3730735
0
LINE
8
0
10
236.863686
20
-174.3041
11
238.1
21
-174.3041
0
ARC
8
0
10
238.1
20
-174.0541
40
0.25
50
270
51
360
0
LINE
8
0
10
238.35
20
-174.0541
11
238.35
21
-169.5541
0
ARC
8
0
10
238.1
20
-169.5541
40
0.25
50
0
51
81.4017716
0
ARC
8
0
10
238.2495049
20
-168.565339
40
0.75
50
153.7900921
51
261.4017642
0
ARC
8
0
10
236.5
20
-167.7041
40
1.2
50
333.7900908
51
593.5189398
0
ARC
8
0
10
235.3406138
20
-169.2720042
40
0.75
50
343.6146708
51
413.5041426
0
ARC
8
0
10
236.3
20
-169.5541
40
0.25
50
523.6146708
51
540
0
LINE
8
0
10
236.05
20
-169.5541
11
236.05
21
-171.3041
0
ARC
8
0
10
235.3
20
-171.3041
40
0.75
50
270
51
360
0
LINE
8
0
10
235.3
20
-172.0541
11
233.8642409
21
-172.0541
0
ARC
8
0
10
233.8642409
20
-171.3041
40
0.75
50
225
51
270
0
LINE
8
0
10
232.601804
20
-171.1023233
11
233.3339108
21
-171.8344301
0
ARC
8
0
10
232.4250273
20
-171.2791
40
0.25
50
45
51
49.2931441
0
ARC
8
0
10
233.0772164
20
-170.5210437
40
0.75
50
126.4198904
51
229.2931447
0
ARC
8
0
10
231
20
-167.7041
40
2.75
50
306.4050912
51
546.1506399
0
ARC
8
0
10
227.5201473
20
-168.0791
40
0.75
50
270
51
366.1506399
0
LINE
8
0
10
227.4136026
20
-168.8291
11
227.5201473
21
-168.8291
0
ARC
8
0
10
227.4136026
20
-168.0791
40
0.75
50
168.9125106
51
270
0
ARC
8
0
10
225.5
20
-167.7041
40
1.2
50
348.9125107
51
551.0871451
0
ARC
8
0
10
223.5865184
20
-168.0797172
40
0.75
50
271.8376761
51
371.10597
0
ARC
8
0
10
223.625
20
-169.2791
40
0.45
50
91.8376714
51
171.6144613
0
ARC
8
0
10
222.437829
20
-169.1041
40
0.75
50
270
51
351.6144613
0
LINE
8
0
10
222.437829
20
-169.8541
11
221.125
21
-169.8541
0
ARC
8
0
10
221.125
20
-170.1041
40
0.25
50
90
51
180
0
LINE
8
0
10
220.875
20
-170.1041
11
220.875
21
-172.7041
0
ARC
8
0
10
221.125
20
-172.7041
40
0.25
50
180
51
270
0
LINE
8
0
10
221.125
20
-172.9541
11
222.9003847
21
-172.9541
0
ARC
8
0
10
222.9003847
20
-173.7041
40
0.75
50
25.5176121
51
90
0
ARC
8
0
10
224.525
20
-172.9291
40
1.05
50
205.5028228
51
270
0
LINE
8
0
10
227.4
20
-173.9791
11
224.525
21
-173.9791
0
ARC
8
0
10
227.4
20
-174.8291
40
0.85
50
0
51
90
0
LINE
8
0
10
228.25
20
-175.0791273
11
228.25
21
-174.8291
0
ARC
8
0
10
228.5
20
-175.0791273
40
0.25
50
180
51
225
0
LINE
8
0
10
229.173196
20
-176.1058767
11
228.3232233
21
-175.255904
0
ARC
8
0
10
229.3499727
20
-175.9291
40
0.25
50
225
51
270
0
CIRCLE
8
0
10
236
20
-162.5541
40
1.05
0
LINE
8
0
10
353.9000273
20
-99.905
11
350.8249727
21
-99.905
0
ARC
8
0
10
350.8249727
20
-100.155
40
0.25
50
90
51
135
0
LINE
8
0
10
349.9160892
20
-100.7103301
11
350.648196
21
-99.9782233
0
ARC
8
0
10
349.3857591
20
-100.18
40
0.75
50
270
51
315
0
LINE
8
0
10
349.3857591
20
-100.93
11
347.375
21
-100.93
0
ARC
8
0
10
347.375
20
-101.18
40
0.25
50
90
51
171.3730735
0
ARC
8
0
10
346.386314
20
-101.03
40
0.75
50
270
51
351.3730735
0
LINE
8
0
10
346.386314
20
-101.78
11
345.15
21
-101.78
0
ARC
8
0
10
345.15
20
-102.03
40
0.25
50
90
51
180
0
LINE
8
0
10
344.9
20
-102.03
11
344.9
21
-106.53
0
ARC
8
0
10
345.15
20
-106.53
40
0.25
50
180
51
261.4017716
0
ARC
8
0
10
345.0004951
20
-107.518761
40
0.75
50
333.7900921
51
81.4017642
0
ARC
8
0
10
346.75
20
-108.38
40
1.2
50
153.7900908
51
53.5189398
0
ARC
8
0
10
347.9093862
20
-106.8120958
40
0.75
50
163.6146708
51
233.5041426
0
ARC
8
0
10
346.95
20
-106.53
40
0.25
50
343.6146708
51
360
0
LINE
8
0
10
347.2
20
-106.53
11
347.2
21
-104.78
0
ARC
8
0
10
347.95
20
-104.78
40
0.75
50
90
51
180
0
LINE
8
0
10
347.95
20
-104.03
11
349.3857591
21
-104.03
0
ARC
8
0
10
349.3857591
20
-104.78
40
0.75
50
45
51
90
0
LINE
8
0
10
350.648196
20
-104.9817767
11
349.9160892
21
-104.2496699
0
ARC
8
0
10
350.8249727
20
-104.805
40
0.25
50
225
51
229.2931441
0
ARC
8
0
10
350.1727836
20
-105.5630563
40
0.75
50
306.4198904
51
49.2931447
0
ARC
8
0
10
352.25
20
-108.38
40
2.75
50
126.4050912
51
6.1506399
0
ARC
8
0
10
355.7298527
20
-108.005
40
0.75
50
90
51
186.1506399
0
LINE
8
0
10
355.8363974
20
-107.255
11
355.7298527
21
-107.255
0
ARC
8
0
10
355.8363974
20
-108.005
40
0.75
50
348.9125106
51
90
0
ARC
8
0
10
357.75
20
-108.38
40
1.2
50
168.9125107
51
11.0871451
0
ARC
8
0
10
359.6634816
20
-108.0043828
40
0.75
50
91.8376761
51
191.10597
0
ARC
8
0
10
359.625
20
-106.805
40
0.45
50
271.8376714
51
351.6144613
0
ARC
8
0
10
360.812171
20
-106.98
40
0.75
50
90
51
171.6144613
0
LINE
8
0
10
360.812171
20
-106.23
11
362.125
21
-106.23
0
ARC
8
0
10
362.125
20
-105.98
40
0.25
50
270
51
0
0
LINE
8
0
10
362.375
20
-105.98
11
362.375
21
-103.38
0
ARC
8
0
10
362.125
20
-103.38
40
0.25
50
0
51
90
0
LINE
8
0
10
362.125
20
-103.13
11
360.3496153
21
-103.13
0
ARC
8
0
10
360.3496153
20
-102.38
40
0.75
50
205.5176121
51
270
0
ARC
8
0
10
358.725
20
-103.155
40
1.05
50
25.5028228
51
90
0
LINE
8
0
10
355.85
20
-102.105
11
358.725
21
-102.105
0
ARC
8
0
10
355.85
20
-101.255
40
0.85
50
180
51
270
0
LINE
8
0
10
355
20
-101.0049727
11
355
21
-101.255
0
ARC
8
0
10
354.75
20
-101.0049727
40
0.25
50
0
51
45
0
LINE
8
0
10
354.076804
20
-99.9782233
11
354.9267767
21
-100.828196
0
ARC
8
0
10
353.9000273
20
-100.155
40
0.25
50
45
51
90
0
CIRCLE
8
0
10
347.25
20
-113.53
40
1.05
0
LINE
8
0
10
332.4000273
20
-99.905
11
329.3249727
21
-99.905
0
ARC
8
0
10
329.3249727
20
-100.155
40
0.25
50
90
51
135
0
LINE
8
0
10
328.4160892
20
-100.7103301
11
329.148196
21
-99.9782233
0
ARC
8
0
10
327.8857591
20
-100.18
40
0.75
50
270
51
315
0
LINE
8
0
10
327.8857591
20
-100.93
11
325.875
21
-100.93
0
ARC
8
0
10
325.875
20
-101.18
40
0.25
50
90
51
171.3730735
0
ARC
8
0
10
324.886314
20
-101.03
40
0.75
50
270
51
351.3730735
0
LINE
8
0
10
324.886314
20
-101.78
11
323.65
21
-101.78
0
ARC
8
0
10
323.65
20
-102.03
40
0.25
50
90
51
180
0
LINE
8
0
10
323.4
20
-102.03
11
323.4
21
-106.53
0
ARC
8
0
10
323.65
20
-106.53
40
0.25
50
180
51
261.4017716
0
ARC
8
0
10
323.5004951
20
-107.518761
40
0.75
50
333.7900921
51
81.4017642
0
ARC
8
0
10
325.25
20
-108.38
40
1.2
50
153.7900908
51
53.5189398
0
ARC
8
0
10
326.4093862
20
-106.8120958
40
0.75
50
163.6146708
51
233.5041426
0
ARC
8
0
10
325.45
20
-106.53
40
0.25
50
343.6146708
51
360
0
LINE
8
0
10
325.7
20
-106.53
11
325.7
21
-104.78
0
ARC
8
0
10
326.45
20
-104.78
40
0.75
50
90
51
180
0
LINE
8
0
10
326.45
20
-104.03
11
327.8857591
21
-104.03
0
ARC
8
0
10
327.8857591
20
-104.78
40
0.75
50
45
51
90
0
LINE
8
0
10
329.148196
20
-104.9817767
11
328.4160892
21
-104.2496699
0
ARC
8
0
10
329.3249727
20
-104.805
40
0.25
50
225
51
229.2931441
0
ARC
8
0
10
328.6727836
20
-105.5630563
40
0.75
50
306.4198904
51
49.2931447
0
ARC
8
0
10
330.75
20
-108.38
40
2.75
50
126.4050912
51
6.1506399
0
ARC
8
0
10
334.2298527
20
-108.005
40
0.75
50
90
51
186.1506399
0
LINE
8
0
10
334.3363974
20
-107.255
11
334.2298527
21
-107.255
0
ARC
8
0
10
334.3363974
20
-108.005
40
0.75
50
348.9125106
51
90
0
ARC
8
0
10
336.25
20
-108.38
40
1.2
50
168.9125107
51
11.0871451
0
ARC
8
0
10
338.1634816
20
-108.0043828
40
0.75
50
91.8376761
51
191.10597
0
ARC
8
0
10
338.125
20
-106.805
40
0.45
50
271.8376714
51
351.6144613
0
ARC
8
0
10
339.312171
20
-106.98
40
0.75
50
90
51
171.6144613
0
LINE
8
0
10
339.312171
20
-106.23
11
340.625
21
-106.23
0
ARC
8
0
10
340.625
20
-105.98
40
0.25
50
270
51
0
0
LINE
8
0
10
340.875
20
-105.98
11
340.875
21
-103.38
0
ARC
8
0
10
340.625
20
-103.38
40
0.25
50
0
51
90
0
LINE
8
0
10
340.625
20
-103.13
11
338.8496153
21
-103.13
0
ARC
8
0
10
338.8496153
20
-102.38
40
0.75
50
205.5176121
51
270
0
ARC
8
0
10
337.225
20
-103.155
40
1.05
50
25.5028228
51
90
0
LINE
8
0
10
334.35
20
-102.105
11
337.225
21
-102.105
0
ARC
8
0
10
334.35
20
-101.255
40
0.85
50
180
51
270
0
LINE
8
0
10
333.5
20
-101.0049727
11
333.5
21
-101.255
0
ARC
8
0
10
333.25
20
-101.0049727
40
0.25
50
0
51
45
0
LINE
8
0
10
332.576804
20
-99.9782233
11
333.4267767
21
-100.828196
0
ARC
8
0
10
332.4000273
20
-100.155
40
0.25
50
45
51
90
0
CIRCLE
8
0
10
325.75
20
-113.53
40
1.05
0
LINE
8
0
10
310.9000273
20
-99.905
11
307.8249727
21
-99.905
0
ARC
8
0
10
307.8249727
20
-100.155
40
0.25
50
90
51
135
0
LINE
8
0
10
306.9160892
20
-100.7103301
11
307.648196
21
-99.9782233
0
ARC
8
0
10
306.3857591
20
-100.18
40
0.75
50
270
51
315
0
LINE
8
0
10
306.3857591
20
-100.93
11
304.375
21
-100.93
0
ARC
8
0
10
304.375
20
-101.18
40
0.25
50
90
51
171.3730735
0
ARC
8
0
10
303.386314
20
-101.03
40
0.75
50
270
51
351.3730735
0
LINE
8
0
10
303.386314
20
-101.78
11
302.15
21
-101.78
0
ARC
8
0
10
302.15
20
-102.03
40
0.25
50
90
51
180
0
LINE
8
0
10
301.9
20
-102.03
11
301.9
21
-106.53
0
ARC
8
0
10
302.15
20
-106.53
40
0.25
50
180
51
261.4017716
0
ARC
8
0
10
302.0004951
20
-107.518761
40
0.75
50
333.7900921
51
81.4017642
0
ARC
8
0
10
303.75
20
-108.38
40
1.2
50
153.7900908
51
53.5189398
0
ARC
8
0
10
304.9093862
20
-106.8120958
40
0.75
50
163.6146708
51
233.5041426
0
ARC
8
0
10
303.95
20
-106.53
40
0.25
50
343.6146708
51
360
0
LINE
8
0
10
304.2
20
-106.53
11
304.2
21
-104.78
0
ARC
8
0
10
304.95
20
-104.78
40
0.75
50
90
51
180
0
LINE
8
0
10
304.95
20
-104.03
11
306.3857591
21
-104.03
0
ARC
8
0
10
306.3857591
20
-104.78
40
0.75
50
45
51
90
0
LINE
8
0
10
307.648196
20
-104.9817767
11
306.9160892
21
-104.2496699
0
ARC
8
0
10
307.8249727
20
-104.805
40
0.25
50
225
51
229.2931441
0
ARC
8
0
10
307.1727836
20
-105.5630563
40
0.75
50
306.4198904
51
49.2931447
0
ARC
8
0
10
309.25
20
-108.38
40
2.75
50
126.4050912
51
6.1506399
0
ARC
8
0
10
312.7298527
20
-108.005
40
0.75
50
90
51
186.1506399
0
LINE
8
0
10
312.8363974
20
-107.255
11
312.7298527
21
-107.255
0
ARC
8
0
10
312.8363974
20
-108.005
40
0.75
50
348.9125106
51
90
0
ARC
8
0
10
314.75
20
-108.38
40
1.2
50
168.9125107
51
11.0871451
0
ARC
8
0
10
316.6634816
20
-108.0043828
40
0.75
50
91.8376761
51
191.10597
0
ARC
8
0
10
316.625
20
-106.805
40
0.45
50
271.8376714
51
351.6144613
0
ARC
8
0
10
317.812171
20
-106.98
40
0.75
50
90
51
171.6144613
0
LINE
8
0
10
317.812171
20
-106.23
11
319.125
21
-106.23
0
ARC
8
0
10
319.125
20
-105.98
40
0.25
50
270
51
0
0
LINE
8
0
10
319.375
20
-105.98
11
319.375
21
-103.38
0
ARC
8
0
10
319.125
20
-103.38
40
0.25
50
0
51
90
0
LINE
8
0
10
319.125
20
-103.13
11
317.3496153
21
-103.13
0
ARC
8
0
10
317.3496153
20
-102.38
40
0.75
50
205.5176121
51
270
0
ARC
8
0
10
315.725
20
-103.155
40
1.05
50
25.5028228
51
90
0
LINE
8
0
10
312.85
20
-102.105
11
315.725
21
-102.105
0
ARC
8
0
10
312.85
20
-101.255
40
0.85
50
180
51
270
0
LINE
8
0
10
312
20
-101.0049727
11
312
21
-101.255
0
ARC
8
0
10
311.75
20
-101.0049727
40
0.25
50
0
51
45
0
LINE
8
0
10
311.076804
20
-99.9782233
11
311.9267767
21
-100.828196
0
ARC
8
0
10
310.9000273
20
-100.155
40
0.25
50
45
51
90
0
CIRCLE
8
0
10
304.25
20
-113.53
40
1.05
0
LINE
8
0
10
356.4854484
20
-84.0935344
11
354.9479211
21
-86.7566098
0
ARC
8
0
10
355.1644274
20
-86.8816098
40
0.25
50
150
51
195
0
LINE
8
0
10
355.1909156
20
-87.9463911
11
354.9229459
21
-86.9463146
0
ARC
8
0
10
354.4664712
20
-88.1405054
40
0.75
50
330
51
15
0
LINE
8
0
10
355.1159903
20
-88.5155054
11
354.1106107
21
-90.2568738
0
ARC
8
0
10
354.3271171
20
-90.3818738
40
0.25
50
150
51
231.3730735
0
ARC
8
0
10
353.7028703
20
-91.163101
40
0.75
50
330
51
51.3730735
0
LINE
8
0
10
354.3523893
20
-91.538101
11
353.7342323
21
-92.6087804
0
ARC
8
0
10
353.9507387
20
-92.7337804
40
0.25
50
150
51
240
0
LINE
8
0
10
353.8257387
20
-92.9502867
11
357.722853
21
-95.2002867
0
ARC
8
0
10
357.847853
20
-94.9837804
40
0.25
50
240
51
321.4017716
0
ARC
8
0
10
358.6293927
20
-95.6076359
40
0.75
50
33.7900921
51
141.4017642
0
ARC
8
0
10
360.25
20
-94.5231397
40
1.2
50
213.7900908
51
113.5189398
0
ARC
8
0
10
359.4718482
20
-92.7351297
40
0.75
50
223.6146708
51
293.5041426
0
ARC
8
0
10
358.747853
20
-93.4249346
40
0.25
50
43.6146708
51
60
0
LINE
8
0
10
358.872853
20
-93.2084283
11
357.3573085
21
-92.3334283
0
ARC
8
0
10
357.7323085
20
-91.6839092
40
0.75
50
150
51
240
0
LINE
8
0
10
357.0827895
20
-91.3089092
11
357.800669
21
-90.0655054
0
ARC
8
0
10
358.4501881
20
-90.4405054
40
0.75
50
105
51
150
0
LINE
8
0
10
359.2561503
20
-89.4480913
11
358.2560738
21
-89.716061
0
ARC
8
0
10
359.1914455
20
-89.2066098
40
0.25
50
285
51
289.2931441
0
ARC
8
0
10
359.521847
20
-90.1504503
40
0.75
50
6.4198904
51
109.2931447
0
ARC
8
0
10
363
20
-89.76
40
2.75
50
186.4050912
51
66.1506399
0
ARC
8
0
10
364.4151668
20
-86.5588592
40
0.75
50
150
51
246.1506399
0
LINE
8
0
10
363.8189201
20
-86.0915887
11
363.7656478
21
-86.1838592
0
ARC
8
0
10
364.4684392
20
-86.4665887
40
0.75
50
48.9125106
51
150
0
ARC
8
0
10
365.75
20
-84.9968603
40
1.2
50
228.9125107
51
71.0871451
0
ARC
8
0
10
366.3814468
20
-83.151928
40
0.75
50
151.8376761
51
251.10597
0
ARC
8
0
10
365.32351
20
-82.5855626
40
0.45
50
331.8376714
51
51.6144613
0
ARC
8
0
10
366.0686499
20
-81.6449424
40
0.75
50
150
51
231.6144613
0
LINE
8
0
10
365.4191309
20
-81.2699424
11
366.0755454
21
-80.1329991
0
ARC
8
0
10
365.859039
20
-80.0079991
40
0.25
50
330
51
60
0
LINE
8
0
10
365.984039
20
-79.7914928
11
363.732373
21
-78.4914928
0
ARC
8
0
10
363.607373
20
-78.7079991
40
0.25
50
60
51
150
0
LINE
8
0
10
363.3908666
20
-78.5829991
11
362.5031743
21
-80.1205274
0
ARC
8
0
10
361.8536552
20
-79.7455274
40
0.75
50
265.5176121
51
330
0
ARC
8
0
10
361.7125173
20
-81.5399855
40
1.05
50
85.5028228
51
150
0
LINE
8
0
10
359.3656906
20
-83.5048085
11
360.8031906
21
-81.0149855
0
ARC
8
0
10
358.629569
20
-83.0798085
40
0.85
50
240
51
330
0
LINE
8
0
10
357.988039
20
-83.6909165
11
358.204569
21
-83.8159301
0
ARC
8
0
10
357.863039
20
-83.9074228
40
0.25
50
60
51
105
0
LINE
8
0
10
356.6372499
20
-83.977053
11
357.7983342
21
-83.6659414
0
ARC
8
0
10
356.7019547
20
-84.2185344
40
0.25
50
105
51
150
0
CIRCLE
8
0
10
364.9600308
20
-96.665127
40
1.05
0
LINE
8
0
10
349.6645789
20
-86.9514656
11
348.1270516
21
-84.2883902
0
ARC
8
0
10
347.9105453
20
-84.4133902
40
0.25
50
30
51
75
0
LINE
8
0
10
346.9751736
20
-83.903939
11
347.9752501
21
-84.1719087
0
ARC
8
0
10
347.1692879
20
-83.1794946
40
0.75
50
210
51
255
0
LINE
8
0
10
346.5197688
20
-83.5544946
11
345.5143893
21
-81.8131262
0
ARC
8
0
10
345.2978829
20
-81.9381262
40
0.25
50
30
51
111.3730735
0
ARC
8
0
10
344.9334437
20
-81.006899
40
0.75
50
210
51
291.3730735
0
LINE
8
0
10
344.2839247
20
-81.381899
11
343.6657677
21
-80.3112196
0
ARC
8
0
10
343.4492613
20
-80.4362196
40
0.25
50
30
51
120
0
LINE
8
0
10
343.3242613
20
-80.2197133
11
339.427147
21
-82.4697133
0
ARC
8
0
10
339.552147
20
-82.6862196
40
0.25
50
120
51
201.4017716
0
ARC
8
0
10
338.6211024
20
-83.0511251
40
0.75
50
273.7900921
51
21.4017642
0
ARC
8
0
10
338.75
20
-84.9968603
40
1.2
50
93.7900908
51
353.5189398
0
ARC
8
0
10
340.687538
20
-85.2169661
40
0.75
50
103.6146708
51
173.5041426
0
ARC
8
0
10
340.452147
20
-84.2450654
40
0.25
50
283.6146708
51
300
0
LINE
8
0
10
340.577147
20
-84.4615717
11
342.0926915
21
-83.5865717
0
ARC
8
0
10
342.4676915
20
-84.2360908
40
0.75
50
30
51
120
0
LINE
8
0
10
343.1172105
20
-83.8610908
11
343.8350901
21
-85.1044946
0
ARC
8
0
10
343.185571
20
-85.4794946
40
0.75
50
345
51
30
0
LINE
8
0
10
343.6420457
20
-86.6736854
11
343.9100154
21
-85.6736089
0
ARC
8
0
10
343.8835272
20
-86.7383902
40
0.25
50
165
51
169.2931441
0
ARC
8
0
10
342.9009366
20
-86.552606
40
0.75
50
246.4198904
51
349.2931447
0
ARC
8
0
10
341.5
20
-89.76
40
2.75
50
66.4050912
51
306.1506399
0
ARC
8
0
10
343.5646859
20
-92.5861408
40
0.75
50
30
51
126.1506399
0
LINE
8
0
10
344.2674773
20
-92.3034113
11
344.2142049
21
-92.2111408
0
ARC
8
0
10
343.6179582
20
-92.6784113
40
0.75
50
288.9125106
51
30
0
ARC
8
0
10
344.25
20
-94.5231397
40
1.2
50
108.9125107
51
311.0871451
0
ARC
8
0
10
345.5320348
20
-95.9924548
40
0.75
50
31.8376761
51
131.10597
0
ARC
8
0
10
346.55149
20
-95.3594374
40
0.45
50
211.8376714
51
291.6144613
0
ARC
8
0
10
346.9935211
20
-96.4750576
40
0.75
50
30
51
111.6144613
0
LINE
8
0
10
347.6430401
20
-96.1000576
11
348.2994546
21
-97.2370009
0
ARC
8
0
10
348.515961
20
-97.1120009
40
0.25
50
210
51
300
0
LINE
8
0
10
348.640961
20
-97.3285072
11
350.892627
21
-96.0285072
0
ARC
8
0
10
350.767627
20
-95.8120009
40
0.25
50
300
51
30
0
LINE
8
0
10
350.9841334
20
-95.6870009
11
350.096441
21
-94.1494726
0
ARC
8
0
10
350.7459601
20
-93.7744726
40
0.75
50
145.5176121
51
210
0
ARC
8
0
10
349.2624827
20
-92.7550145
40
1.05
50
325.5028228
51
30
0
LINE
8
0
10
348.7343094
20
-89.7401915
11
350.1718094
21
-92.2300145
0
ARC
8
0
10
349.470431
20
-89.3151915
40
0.85
50
120
51
210
0
LINE
8
0
10
349.261961
20
-88.4540562
11
349.045431
21
-88.5790699
0
ARC
8
0
10
349.136961
20
-88.2375499
40
0.25
50
300
51
345
0
LINE
8
0
10
349.6895541
20
-87.1411703
11
349.3784425
21
-88.3022546
0
ARC
8
0
10
349.4480726
20
-87.0764656
40
0.25
50
345
51
30
0
CIRCLE
8
0
10
334.5399692
20
-88.004873
40
1.05
0
LINE
8
0
10
328.1645789
20
-86.9514656
11
326.6270516
21
-84.2883902
0
ARC
8
0
10
326.4105453
20
-84.4133902
40
0.25
50
30
51
75
0
LINE
8
0
10
325.4751736
20
-83.903939
11
326.4752501
21
-84.1719087
0
ARC
8
0
10
325.6692879
20
-83.1794946
40
0.75
50
210
51
255
0
LINE
8
0
10
325.0197688
20
-83.5544946
11
324.0143893
21
-81.8131262
0
ARC
8
0
10
323.7978829
20
-81.9381262
40
0.25
50
30
51
111.3730735
0
ARC
8
0
10
323.4334437
20
-81.006899
40
0.75
50
210
51
291.3730735
0
LINE
8
0
10
322.7839247
20
-81.381899
11
322.1657677
21
-80.3112196
0
ARC
8
0
10
321.9492613
20
-80.4362196
40
0.25
50
30
51
120
0
LINE
8
0
10
321.8242613
20
-80.2197133
11
317.927147
21
-82.4697133
0
ARC
8
0
10
318.052147
20
-82.6862196
40
0.25
50
120
51
201.4017716
0
ARC
8
0
10
317.1211024
20
-83.0511251
40
0.75
50
273.7900921
51
21.4017642
0
ARC
8
0
10
317.25
20
-84.9968603
40
1.2
50
93.7900908
51
353.5189398
0
ARC
8
0
10
319.187538
20
-85.2169661
40
0.75
50
103.6146708
51
173.5041426
0
ARC
8
0
10
318.952147
20
-84.2450654
40
0.25
50
283.6146708
51
300
0
LINE
8
0
10
319.077147
20
-84.4615717
11
320.5926915
21
-83.5865717
0
ARC
8
0
10
320.9676915
20
-84.2360908
40
0.75
50
30
51
120
0
LINE
8
0
10
321.6172105
20
-83.8610908
11
322.3350901
21
-85.1044946
0
ARC
8
0
10
321.685571
20
-85.4794946
40
0.75
50
345
51
30
0
LINE
8
0
10
322.1420457
20
-86.6736854
11
322.4100154
21
-85.6736089
0
ARC
8
0
10
322.3835272
20
-86.7383902
40
0.25
50
165
51
169.2931441
0
ARC
8
0
10
321.4009366
20
-86.552606
40
0.75
50
246.4198904
51
349.2931447
0
ARC
8
0
10
320
20
-89.76
40
2.75
50
66.4050912
51
306.1506399
0
ARC
8
0
10
322.0646859
20
-92.5861408
40
0.75
50
30
51
126.1506399
0
LINE
8
0
10
322.7674773
20
-92.3034113
11
322.7142049
21
-92.2111408
0
ARC
8
0
10
322.1179582
20
-92.6784113
40
0.75
50
288.9125106
51
30
0
ARC
8
0
10
322.75
20
-94.5231397
40
1.2
50
108.9125107
51
311.0871451
0
ARC
8
0
10
324.0320348
20
-95.9924548
40
0.75
50
31.8376761
51
131.10597
0
ARC
8
0
10
325.05149
20
-95.3594374
40
0.45
50
211.8376714
51
291.6144613
0
ARC
8
0
10
325.4935211
20
-96.4750576
40
0.75
50
30
51
111.6144613
0
LINE
8
0
10
326.1430401
20
-96.1000576
11
326.7994546
21
-97.2370009
0
ARC
8
0
10
327.015961
20
-97.1120009
40
0.25
50
210
51
300
0
LINE
8
0
10
327.140961
20
-97.3285072
11
329.392627
21
-96.0285072
0
ARC
8
0
10
329.267627
20
-95.8120009
40
0.25
50
300
51
30
0
LINE
8
0
10
329.4841334
20
-95.6870009
11
328.596441
21
-94.1494726
0
ARC
8
0
10
329.2459601
20
-93.7744726
40
0.75
50
145.5176121
51
210
0
ARC
8
0
10
327.7624827
20
-92.7550145
40
1.05
50
325.5028228
51
30
0
LINE
8
0
10
327.2343094
20
-89.7401915
11
328.6718094
21
-92.2300145
0
ARC
8
0
10
327.970431
20
-89.3151915
40
0.85
50
120
51
210
0
LINE
8
0
10
327.761961
20
-88.4540562
11
327.545431
21
-88.5790699
0
ARC
8
0
10
327.636961
20
-88.2375499
40
0.25
50
300
51
345
0
LINE
8
0
10
328.1895541
20
-87.1411703
11
327.8784425
21
-88.3022546
0
ARC
8
0
10
327.9480726
20
-87.0764656
40
0.25
50
345
51
30
0
CIRCLE
8
0
10
313.0399692
20
-88.004873
40
1.05
0
LINE
8
0
10
306.6645789
20
-86.9514656
11
305.1270516
21
-84.2883902
0
ARC
8
0
10
304.9105453
20
-84.4133902
40
0.25
50
30
51
75
0
LINE
8
0
10
303.9751736
20
-83.903939
11
304.9752501
21
-84.1719087
0
ARC
8
0
10
304.1692879
20
-83.1794946
40
0.75
50
210
51
255
0
LINE
8
0
10
303.5197688
20
-83.5544946
11
302.5143893
21
-81.8131262
0
ARC
8
0
10
302.2978829
20
-81.9381262
40
0.25
50
30
51
111.3730735
0
ARC
8
0
10
301.9334437
20
-81.006899
40
0.75
50
210
51
291.3730735
0
LINE
8
0
10
301.2839247
20
-81.381899
11
300.6657677
21
-80.3112196
0
ARC
8
0
10
300.4492613
20
-80.4362196
40
0.25
50
30
51
120
0
LINE
8
0
10
300.3242613
20
-80.2197133
11
296.427147
21
-82.4697133
0
ARC
8
0
10
296.552147
20
-82.6862196
40
0.25
50
120
51
201.4017716
0
ARC
8
0
10
295.6211024
20
-83.0511251
40
0.75
50
273.7900921
51
21.4017642
0
ARC
8
0
10
295.75
20
-84.9968603
40
1.2
50
93.7900908
51
353.5189398
0
ARC
8
0
10
297.687538
20
-85.2169661
40
0.75
50
103.6146708
51
173.5041426
0
ARC
8
0
10
297.452147
20
-84.2450654
40
0.25
50
283.6146708
51
300
0
LINE
8
0
10
297.577147
20
-84.4615717
11
299.0926915
21
-83.5865717
0
ARC
8
0
10
299.4676915
20
-84.2360908
40
0.75
50
30
51
120
0
LINE
8
0
10
300.1172105
20
-83.8610908
11
300.8350901
21
-85.1044946
0
ARC
8
0
10
300.185571
20
-85.4794946
40
0.75
50
345
51
30
0
LINE
8
0
10
300.6420457
20
-86.6736854
11
300.9100154
21
-85.6736089
0
ARC
8
0
10
300.8835272
20
-86.7383902
40
0.25
50
165
51
169.2931441
0
ARC
8
0
10
299.9009366
20
-86.552606
40
0.75
50
246.4198904
51
349.2931447
0
ARC
8
0
10
298.5
20
-89.76
40
2.75
50
66.4050912
51
306.1506399
0
ARC
8
0
10
300.5646859
20
-92.5861408
40
0.75
50
30
51
126.1506399
0
LINE
8
0
10
301.2674773
20
-92.3034113
11
301.2142049
21
-92.2111408
0
ARC
8
0
10
300.6179582
20
-92.6784113
40
0.75
50
288.9125106
51
30
0
ARC
8
0
10
301.25
20
-94.5231397
40
1.2
50
108.9125107
51
311.0871451
0
ARC
8
0
10
302.5320348
20
-95.9924548
40
0.75
50
31.8376761
51
131.10597
0
ARC
8
0
10
303.55149
20
-95.3594374
40
0.45
50
211.8376714
51
291.6144613
0
ARC
8
0
10
303.9935211
20
-96.4750576
40
0.75
50
30
51
111.6144613
0
LINE
8
0
10
304.6430401
20
-96.1000576
11
305.2994546
21
-97.2370009
0
ARC
8
0
10
305.515961
20
-97.1120009
40
0.25
50
210
51
300
0
LINE
8
0
10
305.640961
20
-97.3285072
11
307.892627
21
-96.0285072
0
ARC
8
0
10
307.767627
20
-95.8120009
40
0.25
50
300
51
30
0
LINE
8
0
10
307.9841334
20
-95.6870009
11
307.096441
21
-94.1494726
0
ARC
8
0
10
307.7459601
20
-93.7744726
40
0.75
50
145.5176121
51
210
0
ARC
8
0
10
306.2624827
20
-92.7550145
40
1.05
50
325.5028228
51
30
0
LINE
8
0
10
305.7343094
20
-89.7401915
11
307.1718094
21
-92.2300145
0
ARC
8
0
10
306.470431
20
-89.3151915
40
0.85
50
120
51
210
0
LINE
8
0
10
306.261961
20
-88.4540562
11
306.045431
21
-88.5790699
0
ARC
8
0
10
306.136961
20
-88.2375499
40
0.25
50
300
51
345
0
LINE
8
0
10
306.6895541
20
-87.1411703
11
306.3784425
21
-88.3022546
0
ARC
8
0
10
306.4480726
20
-87.0764656
40
0.25
50
345
51
30
0
CIRCLE
8
0
10
291.5399692
20
-88.004873
40
1.05
0
LINE
8
0
10
350.5999727
20
-79.615
11
353.6750273
21
-79.615
0
ARC
8
0
10
353.6750273
20
-79.365
40
0.25
50
270
51
315
0
LINE
8
0
10
354.5839108
20
-78.8096699
11
353.851804
21
-79.5417767
0
ARC
8
0
10
355.1142409
20
-79.34
40
0.75
50
90
51
135
0
LINE
8
0
10
355.1142409
20
-78.59
11
357.125
21
-78.59
0
ARC
8
0
10
357.125
20
-78.34
40
0.25
50
270
51
351.3730735
0
ARC
8
0
10
358.113686
20
-78.49
40
0.75
50
90
51
171.3730735
0
LINE
8
0
10
358.113686
20
-77.74
11
359.35
21
-77.74
0
ARC
8
0
10
359.35
20
-77.49
40
0.25
50
270
51
360
0
LINE
8
0
10
359.6
20
-77.49
11
359.6
21
-72.99
0
ARC
8
0
10
359.35
20
-72.99
40
0.25
50
0
51
81.4017716
0
ARC
8
0
10
359.4995049
20
-72.001239
40
0.75
50
153.7900921
51
261.4017642
0
ARC
8
0
10
357.75
20
-71.14
40
1.2
50
333.7900908
51
593.5189398
0
ARC
8
0
10
356.5906138
20
-72.7079042
40
0.75
50
343.6146708
51
413.5041426
0
ARC
8
0
10
357.55
20
-72.99
40
0.25
50
523.6146708
51
540
0
LINE
8
0
10
357.3
20
-72.99
11
357.3
21
-74.74
0
ARC
8
0
10
356.55
20
-74.74
40
0.75
50
270
51
360
0
LINE
8
0
10
356.55
20
-75.49
11
355.1142409
21
-75.49
0
ARC
8
0
10
355.1142409
20
-74.74
40
0.75
50
225
51
270
0
LINE
8
0
10
353.851804
20
-74.5382233
11
354.5839108
21
-75.2703301
0
ARC
8
0
10
353.6750273
20
-74.715
40
0.25
50
45
51
49.2931441
0
ARC
8
0
10
354.3272164
20
-73.9569437
40
0.75
50
126.4198904
51
229.2931447
0
ARC
8
0
10
352.25
20
-71.14
40
2.75
50
306.4050912
51
546.1506399
0
ARC
8
0
10
348.7701473
20
-71.515
40
0.75
50
270
51
366.1506399
0
LINE
8
0
10
348.6636026
20
-72.265
11
348.7701473
21
-72.265
0
ARC
8
0
10
348.6636026
20
-71.515
40
0.75
50
168.9125106
51
270
0
ARC
8
0
10
346.75
20
-71.14
40
1.2
50
348.9125107
51
551.0871451
0
ARC
8
0
10
344.8365184
20
-71.5156172
40
0.75
50
271.8376761
51
371.10597
0
ARC
8
0
10
344.875
20
-72.715
40
0.45
50
91.8376714
51
171.6144613
0
ARC
8
0
10
343.687829
20
-72.54
40
0.75
50
270
51
351.6144613
0
LINE
8
0
10
343.687829
20
-73.29
11
342.375
21
-73.29
0
ARC
8
0
10
342.375
20
-73.54
40
0.25
50
90
51
180
0
LINE
8
0
10
342.125
20
-73.54
11
342.125
21
-76.14
0
ARC
8
0
10
342.375
20
-76.14
40
0.25
50
180
51
270
0
LINE
8
0
10
342.375
20
-76.39
11
344.1503847
21
-76.39
0
ARC
8
0
10
344.1503847
20
-77.14
40
0.75
50
25.5176121
51
90
0
ARC
8
0
10
345.775
20
-76.365
40
1.05
50
205.5028228
51
270
0
LINE
8
0
10
348.65
20
-77.415
11
345.775
21
-77.415
0
ARC
8
0
10
348.65
20
-78.265
40
0.85
50
0
51
90
0
LINE
8
0
10
349.5
20
-78.5150273
11
349.5
21
-78.265
0
ARC
8
0
10
349.75
20
-78.5150273
40
0.25
50
180
51
225
0
LINE
8
0
10
350.423196
20
-79.5417767
11
349.5732233
21
-78.691804
0
ARC
8
0
10
350.5999727
20
-79.365
40
0.25
50
225
51
270
0
CIRCLE
8
0
10
357.25
20
-65.99
40
1.05
0
LINE
8
0
10
337.2645516
20
-76.8064656
11
338.8020789
21
-74.1433902
0
ARC
8
0
10
338.5855726
20
-74.0183902
40
0.25
50
330
51
15
0
LINE
8
0
10
338.5590844
20
-72.9536089
11
338.8270541
21
-73.9536854
0
ARC
8
0
10
339.2835288
20
-72.7594946
40
0.75
50
150
51
195
0
LINE
8
0
10
338.6340097
20
-72.3844946
11
339.6393893
21
-70.6431262
0
ARC
8
0
10
339.4228829
20
-70.5181262
40
0.25
50
330
51
51.3730735
0
ARC
8
0
10
340.0471297
20
-69.736899
40
0.75
50
150
51
231.3730735
0
LINE
8
0
10
339.3976107
20
-69.361899
11
340.0157677
21
-68.2912196
0
ARC
8
0
10
339.7992613
20
-68.1662196
40
0.25
50
330
51
60
0
LINE
8
0
10
339.9242613
20
-67.9497133
11
336.027147
21
-65.6997133
0
ARC
8
0
10
335.902147
20
-65.9162196
40
0.25
50
60
51
141.4017716
0
ARC
8
0
10
335.1206073
20
-65.2923641
40
0.75
50
213.7900921
51
321.4017642
0
ARC
8
0
10
333.5
20
-66.3768603
40
1.2
50
33.7900908
51
293.5189398
0
ARC
8
0
10
334.2781518
20
-68.1648703
40
0.75
50
43.6146708
51
113.5041426
0
ARC
8
0
10
335.002147
20
-67.4750654
40
0.25
50
223.6146708
51
240
0
LINE
8
0
10
334.877147
20
-67.6915717
11
336.3926915
21
-68.5665717
0
ARC
8
0
10
336.0176915
20
-69.2160908
40
0.75
50
330
51
60
0
LINE
8
0
10
336.6672105
20
-69.5910908
11
335.949331
21
-70.8344946
0
ARC
8
0
10
335.2998119
20
-70.4594946
40
0.75
50
285
51
330
0
LINE
8
0
10
334.4938497
20
-71.4519087
11
335.4939262
21
-71.183939
0
ARC
8
0
10
334.5585545
20
-71.6933902
40
0.25
50
105
51
109.2931441
0
ARC
8
0
10
334.228153
20
-70.7495497
40
0.75
50
186.4198904
51
289.2931447
0
ARC
8
0
10
330.75
20
-71.14
40
2.75
50
6.4050912
51
246.1506399
0
ARC
8
0
10
329.3348332
20
-74.3411408
40
0.75
50
330
51
66.1506399
0
LINE
8
0
10
329.9310799
20
-74.8084113
11
329.9843522
21
-74.7161408
0
ARC
8
0
10
329.2815608
20
-74.4334113
40
0.75
50
228.9125106
51
330
0
ARC
8
0
10
328
20
-75.9031397
40
1.2
50
48.9125107
51
251.0871451
0
ARC
8
0
10
327.3685532
20
-77.748072
40
0.75
50
331.8376761
51
71.10597
0
ARC
8
0
10
328.42649
20
-78.3144374
40
0.45
50
151.8376714
51
231.6144613
0
ARC
8
0
10
327.6813501
20
-79.2550576
40
0.75
50
330
51
51.6144613
0
LINE
8
0
10
328.3308691
20
-79.6300576
11
327.6744546
21
-80.7670009
0
ARC
8
0
10
327.890961
20
-80.8920009
40
0.25
50
150
51
240
0
LINE
8
0
10
327.765961
20
-81.1085072
11
330.017627
21
-82.4085072
0
ARC
8
0
10
330.142627
20
-82.1920009
40
0.25
50
240
51
330
0
LINE
8
0
10
330.3591334
20
-82.3170009
11
331.2468257
21
-80.7794726
0
ARC
8
0
10
331.8963448
20
-81.1544726
40
0.75
50
85.5176121
51
150
0
ARC
8
0
10
332.0374827
20
-79.3600145
40
1.05
50
265.5028228
51
330
0
LINE
8
0
10
334.3843094
20
-77.3951915
11
332.9468094
21
-79.8850145
0
ARC
8
0
10
335.120431
20
-77.8201915
40
0.85
50
60
51
150
0
LINE
8
0
10
335.761961
20
-77.2090835
11
335.545431
21
-77.0840699
0
ARC
8
0
10
335.886961
20
-76.9925772
40
0.25
50
240
51
285
0
LINE
8
0
10
337.1127501
20
-76.922947
11
335.9516658
21
-77.2340586
0
ARC
8
0
10
337.0480453
20
-76.6814656
40
0.25
50
285
51
330
0
CIRCLE
8
0
10
328.7899692
20
-64.234873
40
1.05
0
LINE
8
0
10
315.7645516
20
-76.8064656
11
317.3020789
21
-74.1433902
0
ARC
8
0
10
317.0855726
20
-74.0183902
40
0.25
50
330
51
15
0
LINE
8
0
10
317.0590844
20
-72.9536089
11
317.3270541
21
-73.9536854
0
ARC
8
0
10
317.7835288
20
-72.7594946
40
0.75
50
150
51
195
0
LINE
8
0
10
317.1340097
20
-72.3844946
11
318.1393893
21
-70.6431262
0
ARC
8
0
10
317.9228829
20
-70.5181262
40
0.25
50
330
51
51.3730735
0
ARC
8
0
10
318.5471297
20
-69.736899
40
0.75
50
150
51
231.3730735
0
LINE
8
0
10
317.8976107
20
-69.361899
11
318.5157677
21
-68.2912196
0
ARC
8
0
10
318.2992613
20
-68.1662196
40
0.25
50
330
51
60
0
LINE
8
0
10
318.4242613
20
-67.9497133
11
314.527147
21
-65.6997133
0
ARC
8
0
10
314.402147
20
-65.9162196
40
0.25
50
60
51
141.4017716
0
ARC
8
0
10
313.6206073
20
-65.2923641
40
0.75
50
213.7900921
51
321.4017642
0
ARC
8
0
10
312
20
-66.3768603
40
1.2
50
33.7900908
51
293.5189398
0
ARC
8
0
10
312.7781518
20
-68.1648703
40
0.75
50
43.6146708
51
113.5041426
0
ARC
8
0
10
313.502147
20
-67.4750654
40
0.25
50
223.6146708
51
240
0
LINE
8
0
10
313.377147
20
-67.6915717
11
314.8926915
21
-68.5665717
0
ARC
8
0
10
314.5176915
20
-69.2160908
40
0.75
50
330
51
60
0
LINE
8
0
10
315.1672105
20
-69.5910908
11
314.449331
21
-70.8344946
0
ARC
8
0
10
313.7998119
20
-70.4594946
40
0.75
50
285
51
330
0
LINE
8
0
10
312.9938497
20
-71.4519087
11
313.9939262
21
-71.183939
0
ARC
8
0
10
313.0585545
20
-71.6933902
40
0.25
50
105
51
109.2931441
0
ARC
8
0
10
312.728153
20
-70.7495497
40
0.75
50
186.4198904
51
289.2931447
0
ARC
8
0
10
309.25
20
-71.14
40
2.75
50
6.4050912
51
246.1506399
0
ARC
8
0
10
307.8348332
20
-74.3411408
40
0.75
50
330
51
66.1506399
0
LINE
8
0
10
308.4310799
20
-74.8084113
11
308.4843522
21
-74.7161408
0
ARC
8
0
10
307.7815608
20
-74.4334113
40
0.75
50
228.9125106
51
330
0
ARC
8
0
10
306.5
20
-75.9031397
40
1.2
50
48.9125107
51
251.0871451
0
ARC
8
0
10
305.8685532
20
-77.748072
40
0.75
50
331.8376761
51
71.10597
0
ARC
8
0
10
306.92649
20
-78.3144374
40
0.45
50
151.8376714
51
231.6144613
0
ARC
8
0
10
306.1813501
20
-79.2550576
40
0.75
50
330
51
51.6144613
0
LINE
8
0
10
306.8308691
20
-79.6300576
11
306.1744546
21
-80.7670009
0
ARC
8
0
10
306.390961
20
-80.8920009
40
0.25
50
150
51
240
0
LINE
8
0
10
306.265961
20
-81.1085072
11
308.517627
21
-82.4085072
0
ARC
8
0
10
308.642627
20
-82.1920009
40
0.25
50
240
51
330
0
LINE
8
0
10
308.8591334
20
-82.3170009
11
309.7468257
21
-80.7794726
0
ARC
8
0
10
310.3963448
20
-81.1544726
40
0.75
50
85.5176121
51
150
0
ARC
8
0
10
310.5374827
20
-79.3600145
40
1.05
50
265.5028228
51
330
0
LINE
8
0
10
312.8843094
20
-77.3951915
11
311.4468094
21
-79.8850145
0
ARC
8
0
10
313.620431
20
-77.8201915
40
0.85
50
60
51
150
0
LINE
8
0
10
314.261961
20
-77.2090835
11
314.045431
21
-77.0840699
0
ARC
8
0
10
314.386961
20
-76.9925772
40
0.25
50
240
51
285
0
LINE
8
0
10
315.6127501
20
-76.922947
11
314.4516658
21
-77.2340586
0
ARC
8
0
10
315.5480453
20
-76.6814656
40
0.25
50
285
51
330
0
CIRCLE
8
0
10
307.2899692
20
-64.234873
40
1.05
0
LINE
8
0
10
294.2645516
20
-76.8064656
11
295.8020789
21
-74.1433902
0
ARC
8
0
10
295.5855726
20
-74.0183902
40
0.25
50
330
51
15
0
LINE
8
0
10
295.5590844
20
-72.9536089
11
295.8270541
21
-73.9536854
0
ARC
8
0
10
296.2835288
20
-72.7594946
40
0.75
50
150
51
195
0
LINE
8
0
10
295.6340097
20
-72.3844946
11
296.6393893
21
-70.6431262
0
ARC
8
0
10
296.4228829
20
-70.5181262
40
0.25
50
330
51
51.3730735
0
ARC
8
0
10
297.0471297
20
-69.736899
40
0.75
50
150
51
231.3730735
0
LINE
8
0
10
296.3976107
20
-69.361899
11
297.0157677
21
-68.2912196
0
ARC
8
0
10
296.7992613
20
-68.1662196
40
0.25
50
330
51
60
0
LINE
8
0
10
296.9242613
20
-67.9497133
11
293.027147
21
-65.6997133
0
ARC
8
0
10
292.902147
20
-65.9162196
40
0.25
50
60
51
141.4017716
0
ARC
8
0
10
292.1206073
20
-65.2923641
40
0.75
50
213.7900921
51
321.4017642
0
ARC
8
0
10
290.5
20
-66.3768603
40
1.2
50
33.7900908
51
293.5189398
0
ARC
8
0
10
291.2781518
20
-68.1648703
40
0.75
50
43.6146708
51
113.5041426
0
ARC
8
0
10
292.002147
20
-67.4750654
40
0.25
50
223.6146708
51
240
0
LINE
8
0
10
291.877147
20
-67.6915717
11
293.3926915
21
-68.5665717
0
ARC
8
0
10
293.0176915
20
-69.2160908
40
0.75
50
330
51
60
0
LINE
8
0
10
293.6672105
20
-69.5910908
11
292.949331
21
-70.8344946
0
ARC
8
0
10
292.2998119
20
-70.4594946
40
0.75
50
285
51
330
0
LINE
8
0
10
291.4938497
20
-71.4519087
11
292.4939262
21
-71.183939
0
ARC
8
0
10
291.5585545
20
-71.6933902
40
0.25
50
105
51
109.2931441
0
ARC
8
0
10
291.228153
20
-70.7495497
40
0.75
50
186.4198904
51
289.2931447
0
ARC
8
0
10
287.75
20
-71.14
40
2.75
50
6.4050912
51
246.1506399
0
ARC
8
0
10
286.3348332
20
-74.3411408
40
0.75
50
330
51
66.1506399
0
LINE
8
0
10
286.9310799
20
-74.8084113
11
286.9843522
21
-74.7161408
0
ARC
8
0
10
286.2815608
20
-74.4334113
40
0.75
50
228.9125106
51
330
0
ARC
8
0
10
285
20
-75.9031397
40
1.2
50
48.9125107
51
251.0871451
0
ARC
8
0
10
284.3685532
20
-77.748072
40
0.75
50
331.8376761
51
71.10597
0
ARC
8
0
10
285.42649
20
-78.3144374
40
0.45
50
151.8376714
51
231.6144613
0
ARC
8
0
10
284.6813501
20
-79.2550576
40
0.75
50
330
51
51.6144613
0
LINE
8
0
10
285.3308691
20
-79.6300576
11
284.6744546
21
-80.7670009
0
ARC
8
0
10
284.890961
20
-80.8920009
40
0.25
50
150
51
240
0
LINE
8
0
10
284.765961
20
-81.1085072
11
287.017627
21
-82.4085072
0
ARC
8
0
10
287.142627
20
-82.1920009
40
0.25
50
240
51
330
0
LINE
8
0
10
287.3591334
20
-82.3170009
11
288.2468257
21
-80.7794726
0
ARC
8
0
10
288.8963448
20
-81.1544726
40
0.75
50
85.5176121
51
150
0
ARC
8
0
10
289.0374827
20
-79.3600145
40
1.05
50
265.5028228
51
330
0
LINE
8
0
10
291.3843094
20
-77.3951915
11
289.9468094
21
-79.8850145
0
ARC
8
0
10
292.120431
20
-77.8201915
40
0.85
50
60
51
150
0
LINE
8
0
10
292.761961
20
-77.2090835
11
292.545431
21
-77.0840699
0
ARC
8
0
10
292.886961
20
-76.9925772
40
0.25
50
240
51
285
0
LINE
8
0
10
294.1127501
20
-76.922947
11
292.9516658
21
-77.2340586
0
ARC
8
0
10
294.0480453
20
-76.6814656
40
0.25
50
285
51
330
0
CIRCLE
8
0
10
285.7899692
20
-64.234873
40
1.05
0
LINE
8
0
10
321.6500273
20
-118.525
11
318.5749727
21
-118.525
0
ARC
8
0
10
318.5749727
20
-118.775
40
0.25
50
90
51
135
0
LINE
8
0
10
317.6660892
20
-119.3303301
11
318.398196
21
-118.5982233
0
ARC
8
0
10
317.1357591
20
-118.8
40
0.75
50
270
51
315
0
LINE
8
0
10
317.1357591
20
-119.55
11
315.125
21
-119.55
0
ARC
8
0
10
315.125
20
-119.8
40
0.25
50
90
51
171.3730735
0
ARC
8
0
10
314.136314
20
-119.65
40
0.75
50
270
51
351.3730735
0
LINE
8
0
10
314.136314
20
-120.4
11
312.9
21
-120.4
0
ARC
8
0
10
312.9
20
-120.65
40
0.25
50
90
51
180
0
LINE
8
0
10
312.65
20
-120.65
11
312.65
21
-125.15
0
ARC
8
0
10
312.9
20
-125.15
40
0.25
50
180
51
261.4017716
0
ARC
8
0
10
312.7504951
20
-126.138761
40
0.75
50
333.7900921
51
81.4017642
0
ARC
8
0
10
314.5
20
-127
40
1.2
50
153.7900908
51
53.5189398
0
ARC
8
0
10
315.6593862
20
-125.4320958
40
0.75
50
163.6146708
51
233.5041426
0
ARC
8
0
10
314.7
20
-125.15
40
0.25
50
343.6146708
51
360
0
LINE
8
0
10
314.95
20
-125.15
11
314.95
21
-123.4
0
ARC
8
0
10
315.7
20
-123.4
40
0.75
50
90
51
180
0
LINE
8
0
10
315.7
20
-122.65
11
317.1357591
21
-122.65
0
ARC
8
0
10
317.1357591
20
-123.4
40
0.75
50
45
51
90
0
LINE
8
0
10
318.398196
20
-123.6017767
11
317.6660892
21
-122.8696699
0
ARC
8
0
10
318.5749727
20
-123.425
40
0.25
50
225
51
229.2931441
0
ARC
8
0
10
317.9227836
20
-124.1830563
40
0.75
50
306.4198904
51
49.2931447
0
ARC
8
0
10
320
20
-127
40
2.75
50
126.4050912
51
6.1506399
0
ARC
8
0
10
323.4798527
20
-126.625
40
0.75
50
90
51
186.1506399
0
LINE
8
0
10
323.5863974
20
-125.875
11
323.4798527
21
-125.875
0
ARC
8
0
10
323.5863974
20
-126.625
40
0.75
50
348.9125106
51
90
0
ARC
8
0
10
325.5
20
-127
40
1.2
50
168.9125107
51
11.0871451
0
ARC
8
0
10
327.4134816
20
-126.6243828
40
0.75
50
91.8376761
51
191.10597
0
ARC
8
0
10
327.375
20
-125.425
40
0.45
50
271.8376714
51
351.6144613
0
ARC
8
0
10
328.562171
20
-125.6
40
0.75
50
90
51
171.6144613
0
LINE
8
0
10
328.562171
20
-124.85
11
329.875
21
-124.85
0
ARC
8
0
10
329.875
20
-124.6
40
0.25
50
270
51
0
0
LINE
8
0
10
330.125
20
-124.6
11
330.125
21
-122
0
ARC
8
0
10
329.875
20
-122
40
0.25
50
0
51
90
0
LINE
8
0
10
329.875
20
-121.75
11
328.0996153
21
-121.75
0
ARC
8
0
10
328.0996153
20
-121
40
0.75
50
205.5176121
51
270
0
ARC
8
0
10
326.475
20
-121.775
40
1.05
50
25.5028228
51
90
0
LINE
8
0
10
323.6
20
-120.725
11
326.475
21
-120.725
0
ARC
8
0
10
323.6
20
-119.875
40
0.85
50
180
51
270
0
LINE
8
0
10
322.75
20
-119.6249727
11
322.75
21
-119.875
0
ARC
8
0
10
322.5
20
-119.6249727
40
0.25
50
0
51
45
0
LINE
8
0
10
321.826804
20
-118.5982233
11
322.6767767
21
-119.448196
0
ARC
8
0
10
321.6500273
20
-118.775
40
0.25
50
45
51
90
0
CIRCLE
8
0
10
315
20
-132.15
40
1.05
0
LINE
8
0
10
275.3499727
20
-176.1791
11
278.4250273
21
-176.1791
0
ARC
8
0
10
278.4250273
20
-175.9291
40
0.25
50
270
51
315
0
LINE
8
0
10
279.3339108
20
-175.3737699
11
278.601804
21
-176.1058767
0
ARC
8
0
10
279.8642409
20
-175.9041
40
0.75
50
90
51
135
0
LINE
8
0
10
279.8642409
20
-175.1541
11
281.875
21
-175.1541
0
ARC
8
0
10
281.875
20
-174.9041
40
0.25
50
270
51
351.3730735
0
ARC
8
0
10
282.863686
20
-175.0541
40
0.75
50
90
51
171.3730735
0
LINE
8
0
10
282.863686
20
-174.3041
11
284.1
21
-174.3041
0
ARC
8
0
10
284.1
20
-174.0541
40
0.25
50
270
51
360
0
LINE
8
0
10
284.35
20
-174.0541
11
284.35
21
-169.5541
0
ARC
8
0
10
284.1
20
-169.5541
40
0.25
50
0
51
81.4017716
0
ARC
8
0
10
284.2495049
20
-168.565339
40
0.75
50
153.7900921
51
261.4017642
0
ARC
8
0
10
282.5
20
-167.7041
40
1.2
50
333.7900908
51
593.5189398
0
ARC
8
0
10
281.3406138
20
-169.2720042
40
0.75
50
343.6146708
51
413.5041426
0
ARC
8
0
10
282.3
20
-169.5541
40
0.25
50
523.6146708
51
540
0
LINE
8
0
10
282.05
20
-169.5541
11
282.05
21
-171.3041
0
ARC
8
0
10
281.3
20
-171.3041
40
0.75
50
270
51
360
0
LINE
8
0
10
281.3
20
-172.0541
11
279.8642409
21
-172.0541
0
ARC
8
0
10
279.8642409
20
-171.3041
40
0.75
50
225
51
270
0
LINE
8
0
10
278.601804
20
-171.1023233
11
279.3339108
21
-171.8344301
0
ARC
8
0
10
278.4250273
20
-171.2791
40
0.25
50
45
51
49.2931441
0
ARC
8
0
10
279.0772164
20
-170.5210437
40
0.75
50
126.4198904
51
229.2931447
0
ARC
8
0
10
277
20
-167.7041
40
2.75
50
306.4050912
51
546.1506399
0
ARC
8
0
10
273.5201473
20
-168.0791
40
0.75
50
270
51
366.1506399
0
LINE
8
0
10
273.4136026
20
-168.8291
11
273.5201473
21
-168.8291
0
ARC
8
0
10
273.4136026
20
-168.0791
40
0.75
50
168.9125106
51
270
0
ARC
8
0
10
271.5
20
-167.7041
40
1.2
50
348.9125107
51
551.0871451
0
ARC
8
0
10
269.5865184
20
-168.0797172
40
0.75
50
271.8376761
51
371.10597
0
ARC
8
0
10
269.625
20
-169.2791
40
0.45
50
91.8376714
51
171.6144613
0
ARC
8
0
10
268.437829
20
-169.1041
40
0.75
50
270
51
351.6144613
0
LINE
8
0
10
268.437829
20
-169.8541
11
267.125
21
-169.8541
0
ARC
8
0
10
267.125
20
-170.1041
40
0.25
50
90
51
180
0
LINE
8
0
10
266.875
20
-170.1041
11
266.875
21
-172.7041
0
ARC
8
0
10
267.125
20
-172.7041
40
0.25
50
180
51
270
0
LINE
8
0
10
267.125
20
-172.9541
11
268.9003847
21
-172.9541
0
ARC
8
0
10
268.9003847
20
-173.7041
40
0.75
50
25.5176121
51
90
0
ARC
8
0
10
270.525
20
-172.9291
40
1.05
50
205.5028228
51
270
0
LINE
8
0
10
273.4
20
-173.9791
11
270.525
21
-173.9791
0
ARC
8
0
10
273.4
20
-174.8291
40
0.85
50
0
51
90
0
LINE
8
0
10
274.25
20
-175.0791273
11
274.25
21
-174.8291
0
ARC
8
0
10
274.5
20
-175.0791273
40
0.25
50
180
51
225
0
LINE
8
0
10
275.173196
20
-176.1058767
11
274.3232233
21
-175.255904
0
ARC
8
0
10
275.3499727
20
-175.9291
40
0.25
50
225
51
270
0
CIRCLE
8
0
10
282
20
-162.5541
40
1.05
0
LINE
8
0
10
245.11
20
-94.4933333
11
247.15
21
-94.4933333
0
LINE
8
0
10
260.85
20
-94.4933333
11
262.89
21
-94.4933333
0
LINE
8
0
10
263.43
20
-93.9533333
11
263.43
21
-60.9333333
0
LINE
8
0
10
262.89
20
-60.3933333
11
245.11
21
-60.3933333
0
LINE
8
0
10
244.57
20
-60.9333333
11
244.57
21
-93.9533333
0
ARC
8
0
10
262.89
20
-93.9533333
40
0.54
50
270
51
0
0
ARC
8
0
10
262.89
20
-60.9333333
40
0.54
50
0
51
90
0
ARC
8
0
10
245.11
20
-60.9333333
40
0.54
50
90
51
180
0
ARC
8
0
10
245.11
20
-93.9533333
40
0.54
50
180
51
270
0
LINE
8
0
10
247.69
20
-97.5533333
11
260.31
21
-97.5533333
0
LINE
8
0
10
260.85
20
-97.0133333
11
260.85
21
-94.4933333
0
LINE
8
0
10
247.15
20
-94.4933333
11
247.15
21
-97.0133333
0
ARC
8
0
10
260.31
20
-97.0133333
40
0.54
50
270
51
0
0
ARC
8
0
10
247.69
20
-97.0133333
40
0.54
50
180
51
270
0
ENDSEC
0
EOF