0
SECTION
2
HEADER
9
$INSUNITS
70
4
0
ENDSEC
0
SECTION
2
TABLES
0
TABLE
2
LTYPE
0
LTYPE
72
65
70
64
2
CONTINUOUS
3
______
73
0
40
0
0
ENDTAB
0
TABLE
2
LAYER
0
ENDTAB
0
ENDSEC
0
SECTION
2
ENTITIES
0
LINE
8
0
10
248.25
20
-111.33
11
250.25
21
-111.33
0
LINE
8
0
10
250.25
20
-111.33
11
250.25
21
-117.38
0
ARC
8
0
10
250.5
20
-117.38
40
0.25
50
180
51
270
0
LINE
8
0
10
250.5
20
-117.63
11
257.5
21
-117.63
0
ARC
8
0
10
257.5
20
-117.38
40
0.25
50
270
51
360
0
LINE
8
0
10
257.75
20
-117.38
11
257.75
21
-111.33
0
LINE
8
0
10
257.75
20
-111.33
11
259.75
21
-111.33
0
ARC
8
0
10
259.75
20
-111.08
40
0.25
50
270
51
360
0
LINE
8
0
10
260
20
-111.08
11
260
21
-105.08
0
ARC
8
0
10
259.75
20
-105.08
40
0.25
50
0
51
90
0
LINE
8
0
10
259.75
20
-104.83
11
248.25
21
-104.83
0
ARC
8
0
10
248.25
20
-105.08
40
0.25
50
90
51
180
0
LINE
8
0
10
248
20
-105.08
11
248
21
-111.08
0
ARC
8
0
10
248.25
20
-111.08
40
0.25
50
180
51
270
0
LINE
8
0
10
231.25
20
-105.1233333
11
233.25
21
-105.1233333
0
LINE
8
0
10
233.25
20
-105.1233333
11
233.25
21
-111.1733333
0
ARC
8
0
10
233.5
20
-111.1733333
40
0.25
50
180
51
270
0
LINE
8
0
10
233.5
20
-111.4233333
11
240.5
21
-111.4233333
0
ARC
8
0
10
240.5
20
-111.1733333
40
0.25
50
270
51
360
0
LINE
8
0
10
240.75
20
-111.1733333
11
240.75
21
-105.1233333
0
LINE
8
0
10
240.75
20
-105.1233333
11
242.75
21
-105.1233333
0
ARC
8
0
10
242.75
20
-104.8733333
40
0.25
50
270
51
360
0
LINE
8
0
10
243
20
-104.8733333
11
243
21
-98.8733333
0
ARC
8
0
10
242.75
20
-98.8733333
40
0.25
50
0
51
90
0
LINE
8
0
10
242.75
20
-98.6233333
11
231.25
21
-98.6233333
0
ARC
8
0
10
231.25
20
-98.8733333
40
0.25
50
90
51
180
0
LINE
8
0
10
231
20
-98.8733333
11
231
21
-104.8733333
0
ARC
8
0
10
231.25
20
-104.8733333
40
0.25
50
180
51
270
0
LINE
8
0
10
157.4000273
20
-99.905
11
154.3249727
21
-99.905
0
ARC
8
0
10
154.3249727
20
-100.155
40
0.25
50
90
51
135
0
LINE
8
0
10
153.2982233
20
-100.828196
11
154.148196
21
-99.9782233
0
ARC
8
0
10
153.475
20
-101.0049727
40
0.25
50
135
51
161.0360773
0
ARC
8
0
10
152.5292766
20
-100.68
40
0.75
50
270
51
341.036079
0
LINE
8
0
10
152.5292766
20
-101.43
11
151.375
21
-101.43
0
ARC
8
0
10
151.375
20
-101.68
40
0.25
50
90
51
161.0601614
0
ARC
8
0
10
150.4291401
20
-101.3554247
40
0.75
50
268.3301588
51
341.0601522
0
ARC
8
0
10
150.4
20
-102.355
40
0.25
50
88.3301588
51
90
0
LINE
8
0
10
150.4
20
-102.105
11
148.7
21
-102.105
0
ARC
8
0
10
148.7
20
-102.355
40
0.25
50
90
51
180
0
LINE
8
0
10
148.45
20
-102.355
11
148.45
21
-106.205
0
ARC
8
0
10
148.7
20
-106.205
40
0.25
50
180
51
269.6434574
0
ARC
8
0
10
148.6937772
20
-107.2049806
40
0.75
50
322.9455248
51
89.6434575
0
ARC
8
0
10
150.25
20
-108.38
40
1.2
50
142.9455262
51
58.7551808
0
ARC
8
0
10
151.2614571
20
-106.7128304
40
0.75
50
149.4805793
51
238.7551808
0
ARC
8
0
10
150.4
20
-106.205
40
0.25
50
329.4805793
51
0
0
LINE
8
0
10
150.65
20
-106.205
11
150.65
21
-104.28
0
ARC
8
0
10
151.4
20
-104.28
40
0.75
50
90
51
180
0
LINE
8
0
10
151.4
20
-103.53
11
152.5292766
21
-103.53
0
ARC
8
0
10
152.5292766
20
-104.28
40
0.75
50
18.963921
51
90
0
ARC
8
0
10
153.475
20
-103.9550273
40
0.25
50
198.963921
51
225
0
LINE
8
0
10
154.148196
20
-104.9817767
11
153.2982233
21
-104.131804
0
ARC
8
0
10
154.3249727
20
-104.805
40
0.25
50
225
51
229.2931441
0
ARC
8
0
10
153.6727836
20
-105.5630563
40
0.75
50
306.4198904
51
49.2931447
0
ARC
8
0
10
155.75
20
-108.38
40
2.75
50
126.4050912
51
6.1506399
0
ARC
8
0
10
159.2298527
20
-108.005
40
0.75
50
90
51
186.1506399
0
LINE
8
0
10
159.3363974
20
-107.255
11
159.2298527
21
-107.255
0
ARC
8
0
10
159.3363974
20
-108.005
40
0.75
50
348.9125106
51
90
0
ARC
8
0
10
161.25
20
-108.38
40
1.2
50
168.9125107
51
11.0871451
0
ARC
8
0
10
163.1634816
20
-108.0043828
40
0.75
50
91.8376761
51
191.10597
0
ARC
8
0
10
163.125
20
-106.805
40
0.45
50
271.8376714
51
0
0
LINE
8
0
10
163.575
20
-106.805
11
163.575
21
-106.48
0
ARC
8
0
10
164.325
20
-106.48
40
0.75
50
90
51
180
0
LINE
8
0
10
164.325
20
-105.73
11
165.125
21
-105.73
0
ARC
8
0
10
165.125
20
-105.48
40
0.25
50
270
51
0
0
LINE
8
0
10
165.375
20
-105.48
11
165.375
21
-103.88
0
ARC
8
0
10
165.125
20
-103.88
40
0.25
50
0
51
90
0
LINE
8
0
10
165.125
20
-103.63
11
164.003869
21
-103.63
0
ARC
8
0
10
164.003869
20
-102.88
40
0.75
50
188.8027308
51
270
0
ARC
8
0
10
162.225
20
-103.155
40
1.05
50
8.7879374
51
90
0
LINE
8
0
10
159.35
20
-102.105
11
162.225
21
-102.105
0
ARC
8
0
10
159.35
20
-101.255
40
0.85
50
180
51
270
0
LINE
8
0
10
158.5
20
-101.0049727
11
158.5
21
-101.255
0
ARC
8
0
10
158.25
20
-101.0049727
40
0.25
50
0
51
45
0
LINE
8
0
10
157.576804
20
-99.9782233
11
158.4267767
21
-100.828196
0
ARC
8
0
10
157.4000273
20
-100.155
40
0.25
50
45
51
90
0
CIRCLE
8
0
10
150.75
20
-113.53
40
1.05
0
LINE
8
0
10
178.9000273
20
-99.905
11
175.8249727
21
-99.905
0
ARC
8
0
10
175.8249727
20
-100.155
40
0.25
50
90
51
135
0
LINE
8
0
10
174.7982233
20
-100.828196
11
175.648196
21
-99.9782233
0
ARC
8
0
10
174.975
20
-101.0049727
40
0.25
50
135
51
161.0360773
0
ARC
8
0
10
174.0292766
20
-100.68
40
0.75
50
270
51
341.036079
0
LINE
8
0
10
174.0292766
20
-101.43
11
172.875
21
-101.43
0
ARC
8
0
10
172.875
20
-101.68
40
0.25
50
90
51
161.0601614
0
ARC
8
0
10
171.9291401
20
-101.3554247
40
0.75
50
268.3301588
51
341.0601522
0
ARC
8
0
10
171.9
20
-102.355
40
0.25
50
88.3301588
51
90
0
LINE
8
0
10
171.9
20
-102.105
11
170.2
21
-102.105
0
ARC
8
0
10
170.2
20
-102.355
40
0.25
50
90
51
180
0
LINE
8
0
10
169.95
20
-102.355
11
169.95
21
-106.205
0
ARC
8
0
10
170.2
20
-106.205
40
0.25
50
180
51
269.6434574
0
ARC
8
0
10
170.1937772
20
-107.2049806
40
0.75
50
322.9455248
51
89.6434575
0
ARC
8
0
10
171.75
20
-108.38
40
1.2
50
142.9455262
51
58.7551808
0
ARC
8
0
10
172.7614571
20
-106.7128304
40
0.75
50
149.4805793
51
238.7551808
0
ARC
8
0
10
171.9
20
-106.205
40
0.25
50
329.4805793
51
0
0
LINE
8
0
10
172.15
20
-106.205
11
172.15
21
-104.28
0
ARC
8
0
10
172.9
20
-104.28
40
0.75
50
90
51
180
0
LINE
8
0
10
172.9
20
-103.53
11
174.0292766
21
-103.53
0
ARC
8
0
10
174.0292766
20
-104.28
40
0.75
50
18.963921
51
90
0
ARC
8
0
10
174.975
20
-103.9550273
40
0.25
50
198.963921
51
225
0
LINE
8
0
10
175.648196
20
-104.9817767
11
174.7982233
21
-104.131804
0
ARC
8
0
10
175.8249727
20
-104.805
40
0.25
50
225
51
229.2931441
0
ARC
8
0
10
175.1727836
20
-105.5630563
40
0.75
50
306.4198904
51
49.2931447
0
ARC
8
0
10
177.25
20
-108.38
40
2.75
50
126.4050912
51
6.1506399
0
ARC
8
0
10
180.7298527
20
-108.005
40
0.75
50
90
51
186.1506399
0
LINE
8
0
10
180.8363974
20
-107.255
11
180.7298527
21
-107.255
0
ARC
8
0
10
180.8363974
20
-108.005
40
0.75
50
348.9125106
51
90
0
ARC
8
0
10
182.75
20
-108.38
40
1.2
50
168.9125107
51
11.0871451
0
ARC
8
0
10
184.6634816
20
-108.0043828
40
0.75
50
91.8376761
51
191.10597
0
ARC
8
0
10
184.625
20
-106.805
40
0.45
50
271.8376714
51
0
0
LINE
8
0
10
185.075
20
-106.805
11
185.075
21
-106.48
0
ARC
8
0
10
185.825
20
-106.48
40
0.75
50
90
51
180
0
LINE
8
0
10
185.825
20
-105.73
11
186.625
21
-105.73
0
ARC
8
0
10
186.625
20
-105.48
40
0.25
50
270
51
0
0
LINE
8
0
10
186.875
20
-105.48
11
186.875
21
-103.88
0
ARC
8
0
10
186.625
20
-103.88
40
0.25
50
0
51
90
0
LINE
8
0
10
186.625
20
-103.63
11
185.503869
21
-103.63
0
ARC
8
0
10
185.503869
20
-102.88
40
0.75
50
188.8027308
51
270
0
ARC
8
0
10
183.725
20
-103.155
40
1.05
50
8.7879374
51
90
0
LINE
8
0
10
180.85
20
-102.105
11
183.725
21
-102.105
0
ARC
8
0
10
180.85
20
-101.255
40
0.85
50
180
51
270
0
LINE
8
0
10
180
20
-101.0049727
11
180
21
-101.255
0
ARC
8
0
10
179.75
20
-101.0049727
40
0.25
50
0
51
45
0
LINE
8
0
10
179.076804
20
-99.9782233
11
179.9267767
21
-100.828196
0
ARC
8
0
10
178.9000273
20
-100.155
40
0.25
50
45
51
90
0
CIRCLE
8
0
10
172.25
20
-113.53
40
1.05
0
LINE
8
0
10
200.4000273
20
-99.905
11
197.3249727
21
-99.905
0
ARC
8
0
10
197.3249727
20
-100.155
40
0.25
50
90
51
135
0
LINE
8
0
10
196.2982233
20
-100.828196
11
197.148196
21
-99.9782233
0
ARC
8
0
10
196.475
20
-101.0049727
40
0.25
50
135
51
161.0360773
0
ARC
8
0
10
195.5292766
20
-100.68
40
0.75
50
270
51
341.036079
0
LINE
8
0
10
195.5292766
20
-101.43
11
194.375
21
-101.43
0
ARC
8
0
10
194.375
20
-101.68
40
0.25
50
90
51
161.0601614
0
ARC
8
0
10
193.4291401
20
-101.3554247
40
0.75
50
268.3301588
51
341.0601522
0
ARC
8
0
10
193.4
20
-102.355
40
0.25
50
88.3301588
51
90
0
LINE
8
0
10
193.4
20
-102.105
11
191.7
21
-102.105
0
ARC
8
0
10
191.7
20
-102.355
40
0.25
50
90
51
180
0
LINE
8
0
10
191.45
20
-102.355
11
191.45
21
-106.205
0
ARC
8
0
10
191.7
20
-106.205
40
0.25
50
180
51
269.6434574
0
ARC
8
0
10
191.6937772
20
-107.2049806
40
0.75
50
322.9455248
51
89.6434575
0
ARC
8
0
10
193.25
20
-108.38
40
1.2
50
142.9455262
51
58.7551808
0
ARC
8
0
10
194.2614571
20
-106.7128304
40
0.75
50
149.4805793
51
238.7551808
0
ARC
8
0
10
193.4
20
-106.205
40
0.25
50
329.4805793
51
0
0
LINE
8
0
10
193.65
20
-106.205
11
193.65
21
-104.28
0
ARC
8
0
10
194.4
20
-104.28
40
0.75
50
90
51
180
0
LINE
8
0
10
194.4
20
-103.53
11
195.5292766
21
-103.53
0
ARC
8
0
10
195.5292766
20
-104.28
40
0.75
50
18.963921
51
90
0
ARC
8
0
10
196.475
20
-103.9550273
40
0.25
50
198.963921
51
225
0
LINE
8
0
10
197.148196
20
-104.9817767
11
196.2982233
21
-104.131804
0
ARC
8
0
10
197.3249727
20
-104.805
40
0.25
50
225
51
229.2931441
0
ARC
8
0
10
196.6727836
20
-105.5630563
40
0.75
50
306.4198904
51
49.2931447
0
ARC
8
0
10
198.75
20
-108.38
40
2.75
50
126.4050912
51
6.1506399
0
ARC
8
0
10
202.2298527
20
-108.005
40
0.75
50
90
51
186.1506399
0
LINE
8
0
10
202.3363974
20
-107.255
11
202.2298527
21
-107.255
0
ARC
8
0
10
202.3363974
20
-108.005
40
0.75
50
348.9125106
51
90
0
ARC
8
0
10
204.25
20
-108.38
40
1.2
50
168.9125107
51
11.0871451
0
ARC
8
0
10
206.1634816
20
-108.0043828
40
0.75
50
91.8376761
51
191.10597
0
ARC
8
0
10
206.125
20
-106.805
40
0.45
50
271.8376714
51
0
0
LINE
8
0
10
206.575
20
-106.805
11
206.575
21
-106.48
0
ARC
8
0
10
207.325
20
-106.48
40
0.75
50
90
51
180
0
LINE
8
0
10
207.325
20
-105.73
11
208.125
21
-105.73
0
ARC
8
0
10
208.125
20
-105.48
40
0.25
50
270
51
0
0
LINE
8
0
10
208.375
20
-105.48
11
208.375
21
-103.88
0
ARC
8
0
10
208.125
20
-103.88
40
0.25
50
0
51
90
0
LINE
8
0
10
208.125
20
-103.63
11
207.003869
21
-103.63
0
ARC
8
0
10
207.003869
20
-102.88
40
0.75
50
188.8027308
51
270
0
ARC
8
0
10
205.225
20
-103.155
40
1.05
50
8.7879374
51
90
0
LINE
8
0
10
202.35
20
-102.105
11
205.225
21
-102.105
0
ARC
8
0
10
202.35
20
-101.255
40
0.85
50
180
51
270
0
LINE
8
0
10
201.5
20
-101.0049727
11
201.5
21
-101.255
0
ARC
8
0
10
201.25
20
-101.0049727
40
0.25
50
0
51
45
0
LINE
8
0
10
200.576804
20
-99.9782233
11
201.4267767
21
-100.828196
0
ARC
8
0
10
200.4000273
20
-100.155
40
0.25
50
45
51
90
0
CIRCLE
8
0
10
193.75
20
-113.53
40
1.05
0
LINE
8
0
10
153.1645789
20
-86.9514656
11
151.6270516
21
-84.2883902
0
ARC
8
0
10
151.4105453
20
-84.4133902
40
0.25
50
30
51
75
0
LINE
8
0
10
150.3141658
20
-83.8607971
11
151.4752501
21
-84.1719087
0
ARC
8
0
10
150.249461
20
-84.1022786
40
0.25
50
75
51
101.0360773
0
ARC
8
0
10
150.0580339
20
-83.1207717
40
0.75
50
210
51
281.036079
0
LINE
8
0
10
149.4085149
20
-83.4957717
11
148.8313766
21
-82.4961389
0
ARC
8
0
10
148.6148702
20
-82.6211389
40
0.25
50
30
51
101.0601614
0
ARC
8
0
10
148.4230307
20
-81.6397125
40
0.75
50
208.3301588
51
281.0601522
0
ARC
8
0
10
147.5428031
20
-82.1142641
40
0.25
50
28.3301588
51
30
0
LINE
8
0
10
147.7593094
20
-81.9892641
11
146.9093094
21
-80.5170209
0
ARC
8
0
10
146.6928031
20
-80.6420209
40
0.25
50
30
51
120
0
LINE
8
0
10
146.5678031
20
-80.4255146
11
143.2336053
21
-82.3505146
0
ARC
8
0
10
143.3586053
20
-82.5670209
40
0.25
50
120
51
209.6434574
0
ARC
8
0
10
142.4894853
20
-83.0616221
40
0.75
50
262.9455248
51
29.6434575
0
ARC
8
0
10
142.25
20
-84.9968603
40
1.2
50
82.9455262
51
358.7551808
0
ARC
8
0
10
144.1995398
20
-85.039223
40
0.75
50
89.4805793
51
178.7551808
0
ARC
8
0
10
144.2086053
20
-84.0392641
40
0.25
50
269.4805793
51
300
0
LINE
8
0
10
144.3336053
20
-84.2557704
11
146.0007042
21
-83.2932704
0
ARC
8
0
10
146.3757042
20
-83.9427895
40
0.75
50
30
51
120
0
LINE
8
0
10
147.0252232
20
-83.5677895
11
147.5898615
21
-84.5457717
0
ARC
8
0
10
146.9403425
20
-84.9207717
40
0.75
50
318.963921
51
30
0
ARC
8
0
10
147.6946388
20
-85.5773059
40
0.25
50
138.963921
51
165
0
LINE
8
0
10
147.1420457
20
-86.6736854
11
147.4531573
21
-85.5126011
0
ARC
8
0
10
147.3835272
20
-86.7383902
40
0.25
50
165
51
169.2931441
0
ARC
8
0
10
146.4009366
20
-86.552606
40
0.75
50
246.4198904
51
349.2931447
0
ARC
8
0
10
145
20
-89.76
40
2.75
50
66.4050912
51
306.1506399
0
ARC
8
0
10
147.0646859
20
-92.5861408
40
0.75
50
30
51
126.1506399
0
LINE
8
0
10
147.7674773
20
-92.3034113
11
147.7142049
21
-92.2111408
0
ARC
8
0
10
147.1179582
20
-92.6784113
40
0.75
50
288.9125106
51
30
0
ARC
8
0
10
147.75
20
-94.5231397
40
1.2
50
108.9125107
51
311.0871451
0
ARC
8
0
10
149.0320348
20
-95.9924548
40
0.75
50
31.8376761
51
131.10597
0
ARC
8
0
10
150.05149
20
-95.3594374
40
0.45
50
211.8376714
51
300
0
LINE
8
0
10
150.27649
20
-95.7491488
11
150.5579483
21
-95.5866488
0
ARC
8
0
10
150.9329483
20
-96.2361678
40
0.75
50
30
51
120
0
LINE
8
0
10
151.5824673
20
-95.8611678
11
151.9824673
21
-96.5539882
0
ARC
8
0
10
152.1989737
20
-96.4289882
40
0.25
50
210
51
300
0
LINE
8
0
10
152.3239737
20
-96.6454945
11
153.7096143
21
-95.8454945
0
ARC
8
0
10
153.5846143
20
-95.6289882
40
0.25
50
300
51
30
0
LINE
8
0
10
153.8011207
20
-95.5039882
11
153.2405552
21
-94.5330602
0
ARC
8
0
10
153.8900742
20
-94.1580602
40
0.75
50
128.8027308
51
210
0
ARC
8
0
10
152.7624827
20
-92.7550145
40
1.05
50
308.7879374
51
30
0
LINE
8
0
10
152.2343094
20
-89.7401915
11
153.6718094
21
-92.2300145
0
ARC
8
0
10
152.970431
20
-89.3151915
40
0.85
50
120
51
210
0
LINE
8
0
10
152.761961
20
-88.4540562
11
152.545431
21
-88.5790699
0
ARC
8
0
10
152.636961
20
-88.2375499
40
0.25
50
300
51
345
0
LINE
8
0
10
153.1895541
20
-87.1411703
11
152.8784425
21
-88.3022546
0
ARC
8
0
10
152.9480726
20
-87.0764656
40
0.25
50
345
51
30
0
CIRCLE
8
0
10
138.0399692
20
-88.004873
40
1.05
0
LINE
8
0
10
159.9854484
20
-84.0935344
11
158.4479211
21
-86.7566098
0
ARC
8
0
10
158.6644274
20
-86.8816098
40
0.25
50
150
51
195
0
LINE
8
0
10
158.7340575
20
-88.1073989
11
158.4229459
21
-86.9463146
0
ARC
8
0
10
158.975539
20
-88.0426941
40
0.25
50
195
51
221.0360773
0
ARC
8
0
10
158.2212427
20
-88.6992283
40
0.75
50
330
51
41.036079
0
LINE
8
0
10
158.8707617
20
-89.0742283
11
158.2936234
21
-90.0738611
0
ARC
8
0
10
158.5101298
20
-90.1988611
40
0.25
50
150
51
221.0601614
0
ARC
8
0
10
157.7561094
20
-90.8557122
40
0.75
50
328.3301588
51
41.0601522
0
ARC
8
0
10
158.6071969
20
-91.3807359
40
0.25
50
148.3301588
51
150
0
LINE
8
0
10
158.3906906
20
-91.2557359
11
157.5406906
21
-92.7279791
0
ARC
8
0
10
157.7571969
20
-92.8529791
40
0.25
50
150
51
240
0
LINE
8
0
10
157.6321969
20
-93.0694854
11
160.9663947
21
-94.9944854
0
ARC
8
0
10
161.0913947
20
-94.7779791
40
0.25
50
240
51
329.6434574
0
ARC
8
0
10
161.9542919
20
-95.2833585
40
0.75
50
22.9455248
51
149.6434575
0
ARC
8
0
10
163.75
20
-94.5231397
40
1.2
50
202.9455262
51
118.7551808
0
ARC
8
0
10
162.8119173
20
-92.8136074
40
0.75
50
209.4805793
51
298.7551808
0
ARC
8
0
10
161.9413947
20
-93.3057359
40
0.25
50
29.4805793
51
60
0
LINE
8
0
10
162.0663947
20
-93.0892296
11
160.3992958
21
-92.1267296
0
ARC
8
0
10
160.7742958
20
-91.4772105
40
0.75
50
150
51
240
0
LINE
8
0
10
160.1247768
20
-91.1022105
11
160.6894151
21
-90.1242283
0
ARC
8
0
10
161.3389341
20
-90.4992283
40
0.75
50
78.963921
51
150
0
ARC
8
0
10
161.5303612
20
-89.5177214
40
0.25
50
258.963921
51
285
0
LINE
8
0
10
162.7561503
20
-89.4480913
11
161.595066
21
-89.7592029
0
ARC
8
0
10
162.6914455
20
-89.2066098
40
0.25
50
285
51
289.2931441
0
ARC
8
0
10
163.021847
20
-90.1504503
40
0.75
50
6.4198904
51
109.2931447
0
ARC
8
0
10
166.5
20
-89.76
40
2.75
50
186.4050912
51
66.1506399
0
ARC
8
0
10
167.9151668
20
-86.5588592
40
0.75
50
150
51
246.1506399
0
LINE
8
0
10
167.3189201
20
-86.0915887
11
167.2656478
21
-86.1838592
0
ARC
8
0
10
167.9684392
20
-86.4665887
40
0.75
50
48.9125106
51
150
0
ARC
8
0
10
169.25
20
-84.9968603
40
1.2
50
228.9125107
51
71.0871451
0
ARC
8
0
10
169.8814468
20
-83.151928
40
0.75
50
151.8376761
51
251.10597
0
ARC
8
0
10
168.82351
20
-82.5855626
40
0.45
50
331.8376714
51
60
0
LINE
8
0
10
169.04851
20
-82.1958512
11
168.7670517
21
-82.0333512
0
ARC
8
0
10
169.1420517
20
-81.3838322
40
0.75
50
150
51
240
0
LINE
8
0
10
168.4925327
20
-81.0088322
11
168.8925327
21
-80.3160118
0
ARC
8
0
10
168.6760263
20
-80.1910118
40
0.25
50
330
51
60
0
LINE
8
0
10
168.8010263
20
-79.9745055
11
167.4153857
21
-79.1745055
0
ARC
8
0
10
167.2903857
20
-79.3910118
40
0.25
50
60
51
150
0
LINE
8
0
10
167.0738793
20
-79.2660118
11
166.5133138
21
-80.2369398
0
ARC
8
0
10
165.8637948
20
-79.8619398
40
0.75
50
248.8027308
51
330
0
ARC
8
0
10
165.2125173
20
-81.5399855
40
1.05
50
68.7879374
51
150
0
LINE
8
0
10
162.8656906
20
-83.5048085
11
164.3031906
21
-81.0149855
0
ARC
8
0
10
162.129569
20
-83.0798085
40
0.85
50
240
51
330
0
LINE
8
0
10
161.488039
20
-83.6909165
11
161.704569
21
-83.8159301
0
ARC
8
0
10
161.363039
20
-83.9074228
40
0.25
50
60
51
105
0
LINE
8
0
10
160.1372499
20
-83.977053
11
161.2983342
21
-83.6659414
0
ARC
8
0
10
160.2019547
20
-84.2185344
40
0.25
50
105
51
150
0
CIRCLE
8
0
10
168.4600308
20
-96.665127
40
1.05
0
LINE
8
0
10
181.4854484
20
-84.0935344
11
179.9479211
21
-86.7566098
0
ARC
8
0
10
180.1644274
20
-86.8816098
40
0.25
50
150
51
195
0
LINE
8
0
10
180.2340575
20
-88.1073989
11
179.9229459
21
-86.9463146
0
ARC
8
0
10
180.475539
20
-88.0426941
40
0.25
50
195
51
221.0360773
0
ARC
8
0
10
179.7212427
20
-88.6992283
40
0.75
50
330
51
41.036079
0
LINE
8
0
10
180.3707617
20
-89.0742283
11
179.7936234
21
-90.0738611
0
ARC
8
0
10
180.0101298
20
-90.1988611
40
0.25
50
150
51
221.0601614
0
ARC
8
0
10
179.2561094
20
-90.8557122
40
0.75
50
328.3301588
51
41.0601522
0
ARC
8
0
10
180.1071969
20
-91.3807359
40
0.25
50
148.3301588
51
150
0
LINE
8
0
10
179.8906906
20
-91.2557359
11
179.0406906
21
-92.7279791
0
ARC
8
0
10
179.2571969
20
-92.8529791
40
0.25
50
150
51
240
0
LINE
8
0
10
179.1321969
20
-93.0694854
11
182.4663947
21
-94.9944854
0
ARC
8
0
10
182.5913947
20
-94.7779791
40
0.25
50
240
51
329.6434574
0
ARC
8
0
10
183.4542919
20
-95.2833585
40
0.75
50
22.9455248
51
149.6434575
0
ARC
8
0
10
185.25
20
-94.5231397
40
1.2
50
202.9455262
51
118.7551808
0
ARC
8
0
10
184.3119173
20
-92.8136074
40
0.75
50
209.4805793
51
298.7551808
0
ARC
8
0
10
183.4413947
20
-93.3057359
40
0.25
50
29.4805793
51
60
0
LINE
8
0
10
183.5663947
20
-93.0892296
11
181.8992958
21
-92.1267296
0
ARC
8
0
10
182.2742958
20
-91.4772105
40
0.75
50
150
51
240
0
LINE
8
0
10
181.6247768
20
-91.1022105
11
182.1894151
21
-90.1242283
0
ARC
8
0
10
182.8389341
20
-90.4992283
40
0.75
50
78.963921
51
150
0
ARC
8
0
10
183.0303612
20
-89.5177214
40
0.25
50
258.963921
51
285
0
LINE
8
0
10
184.2561503
20
-89.4480913
11
183.095066
21
-89.7592029
0
ARC
8
0
10
184.1914455
20
-89.2066098
40
0.25
50
285
51
289.2931441
0
ARC
8
0
10
184.521847
20
-90.1504503
40
0.75
50
6.4198904
51
109.2931447
0
ARC
8
0
10
188
20
-89.76
40
2.75
50
186.4050912
51
66.1506399
0
ARC
8
0
10
189.4151668
20
-86.5588592
40
0.75
50
150
51
246.1506399
0
LINE
8
0
10
188.8189201
20
-86.0915887
11
188.7656478
21
-86.1838592
0
ARC
8
0
10
189.4684392
20
-86.4665887
40
0.75
50
48.9125106
51
150
0
ARC
8
0
10
190.75
20
-84.9968603
40
1.2
50
228.9125107
51
71.0871451
0
ARC
8
0
10
191.3814468
20
-83.151928
40
0.75
50
151.8376761
51
251.10597
0
ARC
8
0
10
190.32351
20
-82.5855626
40
0.45
50
331.8376714
51
60
0
LINE
8
0
10
190.54851
20
-82.1958512
11
190.2670517
21
-82.0333512
0
ARC
8
0
10
190.6420517
20
-81.3838322
40
0.75
50
150
51
240
0
LINE
8
0
10
189.9925327
20
-81.0088322
11
190.3925327
21
-80.3160118
0
ARC
8
0
10
190.1760263
20
-80.1910118
40
0.25
50
330
51
60
0
LINE
8
0
10
190.3010263
20
-79.9745055
11
188.9153857
21
-79.1745055
0
ARC
8
0
10
188.7903857
20
-79.3910118
40
0.25
50
60
51
150
0
LINE
8
0
10
188.5738793
20
-79.2660118
11
188.0133138
21
-80.2369398
0
ARC
8
0
10
187.3637948
20
-79.8619398
40
0.75
50
248.8027308
51
330
0
ARC
8
0
10
186.7125173
20
-81.5399855
40
1.05
50
68.7879374
51
150
0
LINE
8
0
10
184.3656906
20
-83.5048085
11
185.8031906
21
-81.0149855
0
ARC
8
0
10
183.629569
20
-83.0798085
40
0.85
50
240
51
330
0
LINE
8
0
10
182.988039
20
-83.6909165
11
183.204569
21
-83.8159301
0
ARC
8
0
10
182.863039
20
-83.9074228
40
0.25
50
60
51
105
0
LINE
8
0
10
181.6372499
20
-83.977053
11
182.7983342
21
-83.6659414
0
ARC
8
0
10
181.7019547
20
-84.2185344
40
0.25
50
105
51
150
0
CIRCLE
8
0
10
189.9600308
20
-96.665127
40
1.05
0
LINE
8
0
10
202.9854484
20
-84.0935344
11
201.4479211
21
-86.7566098
0
ARC
8
0
10
201.6644274
20
-86.8816098
40
0.25
50
150
51
195
0
LINE
8
0
10
201.7340575
20
-88.1073989
11
201.4229459
21
-86.9463146
0
ARC
8
0
10
201.975539
20
-88.0426941
40
0.25
50
195
51
221.0360773
0
ARC
8
0
10
201.2212427
20
-88.6992283
40
0.75
50
330
51
41.036079
0
LINE
8
0
10
201.8707617
20
-89.0742283
11
201.2936234
21
-90.0738611
0
ARC
8
0
10
201.5101298
20
-90.1988611
40
0.25
50
150
51
221.0601614
0
ARC
8
0
10
200.7561094
20
-90.8557122
40
0.75
50
328.3301588
51
41.0601522
0
ARC
8
0
10
201.6071969
20
-91.3807359
40
0.25
50
148.3301588
51
150
0
LINE
8
0
10
201.3906906
20
-91.2557359
11
200.5406906
21
-92.7279791
0
ARC
8
0
10
200.7571969
20
-92.8529791
40
0.25
50
150
51
240
0
LINE
8
0
10
200.6321969
20
-93.0694854
11
203.9663947
21
-94.9944854
0
ARC
8
0
10
204.0913947
20
-94.7779791
40
0.25
50
240
51
329.6434574
0
ARC
8
0
10
204.9542919
20
-95.2833585
40
0.75
50
22.9455248
51
149.6434575
0
ARC
8
0
10
206.75
20
-94.5231397
40
1.2
50
202.9455262
51
118.7551808
0
ARC
8
0
10
205.8119173
20
-92.8136074
40
0.75
50
209.4805793
51
298.7551808
0
ARC
8
0
10
204.9413947
20
-93.3057359
40
0.25
50
29.4805793
51
60
0
LINE
8
0
10
205.0663947
20
-93.0892296
11
203.3992958
21
-92.1267296
0
ARC
8
0
10
203.7742958
20
-91.4772105
40
0.75
50
150
51
240
0
LINE
8
0
10
203.1247768
20
-91.1022105
11
203.6894151
21
-90.1242283
0
ARC
8
0
10
204.3389341
20
-90.4992283
40
0.75
50
78.963921
51
150
0
ARC
8
0
10
204.5303612
20
-89.5177214
40
0.25
50
258.963921
51
285
0
LINE
8
0
10
205.7561503
20
-89.4480913
11
204.595066
21
-89.7592029
0
ARC
8
0
10
205.6914455
20
-89.2066098
40
0.25
50
285
51
289.2931441
0
ARC
8
0
10
206.021847
20
-90.1504503
40
0.75
50
6.4198904
51
109.2931447
0
ARC
8
0
10
209.5
20
-89.76
40
2.75
50
186.4050912
51
66.1506399
0
ARC
8
0
10
210.9151668
20
-86.5588592
40
0.75
50
150
51
246.1506399
0
LINE
8
0
10
210.3189201
20
-86.0915887
11
210.2656478
21
-86.1838592
0
ARC
8
0
10
210.9684392
20
-86.4665887
40
0.75
50
48.9125106
51
150
0
ARC
8
0
10
212.25
20
-84.9968603
40
1.2
50
228.9125107
51
71.0871451
0
ARC
8
0
10
212.8814468
20
-83.151928
40
0.75
50
151.8376761
51
251.10597
0
ARC
8
0
10
211.82351
20
-82.5855626
40
0.45
50
331.8376714
51
60
0
LINE
8
0
10
212.04851
20
-82.1958512
11
211.7670517
21
-82.0333512
0
ARC
8
0
10
212.1420517
20
-81.3838322
40
0.75
50
150
51
240
0
LINE
8
0
10
211.4925327
20
-81.0088322
11
211.8925327
21
-80.3160118
0
ARC
8
0
10
211.6760263
20
-80.1910118
40
0.25
50
330
51
60
0
LINE
8
0
10
211.8010263
20
-79.9745055
11
210.4153857
21
-79.1745055
0
ARC
8
0
10
210.2903857
20
-79.3910118
40
0.25
50
60
51
150
0
LINE
8
0
10
210.0738793
20
-79.2660118
11
209.5133138
21
-80.2369398
0
ARC
8
0
10
208.8637948
20
-79.8619398
40
0.75
50
248.8027308
51
330
0
ARC
8
0
10
208.2125173
20
-81.5399855
40
1.05
50
68.7879374
51
150
0
LINE
8
0
10
205.8656906
20
-83.5048085
11
207.3031906
21
-81.0149855
0
ARC
8
0
10
205.129569
20
-83.0798085
40
0.85
50
240
51
330
0
LINE
8
0
10
204.488039
20
-83.6909165
11
204.704569
21
-83.8159301
0
ARC
8
0
10
204.363039
20
-83.9074228
40
0.25
50
60
51
105
0
LINE
8
0
10
203.1372499
20
-83.977053
11
204.2983342
21
-83.6659414
0
ARC
8
0
10
203.2019547
20
-84.2185344
40
0.25
50
105
51
150
0
CIRCLE
8
0
10
211.4600308
20
-96.665127
40
1.05
0
LINE
8
0
10
154.0999727
20
-79.615
11
157.1750273
21
-79.615
0
ARC
8
0
10
157.1750273
20
-79.365
40
0.25
50
270
51
315
0
LINE
8
0
10
158.2017767
20
-78.691804
11
157.351804
21
-79.5417767
0
ARC
8
0
10
158.025
20
-78.5150273
40
0.25
50
315
51
341.0360773
0
ARC
8
0
10
158.9707234
20
-78.84
40
0.75
50
90
51
161.036079
0
LINE
8
0
10
158.9707234
20
-78.09
11
160.125
21
-78.09
0
ARC
8
0
10
160.125
20
-77.84
40
0.25
50
270
51
341.0601614
0
ARC
8
0
10
161.0708599
20
-78.1645753
40
0.75
50
88.3301588
51
161.0601522
0
ARC
8
0
10
161.1
20
-77.165
40
0.25
50
268.3301588
51
270
0
LINE
8
0
10
161.1
20
-77.415
11
162.8
21
-77.415
0
ARC
8
0
10
162.8
20
-77.165
40
0.25
50
270
51
360
0
LINE
8
0
10
163.05
20
-77.165
11
163.05
21
-73.315
0
ARC
8
0
10
162.8
20
-73.315
40
0.25
50
0
51
89.6434574
0
ARC
8
0
10
162.8062228
20
-72.3150194
40
0.75
50
142.9455248
51
269.6434575
0
ARC
8
0
10
161.25
20
-71.14
40
1.2
50
322.9455262
51
598.7551808
0
ARC
8
0
10
160.2385429
20
-72.8071696
40
0.75
50
329.4805793
51
418.7551808
0
ARC
8
0
10
161.1
20
-73.315
40
0.25
50
509.4805793
51
540
0
LINE
8
0
10
160.85
20
-73.315
11
160.85
21
-75.24
0
ARC
8
0
10
160.1
20
-75.24
40
0.75
50
270
51
360
0
LINE
8
0
10
160.1
20
-75.99
11
158.9707234
21
-75.99
0
ARC
8
0
10
158.9707234
20
-75.24
40
0.75
50
198.963921
51
270
0
ARC
8
0
10
158.025
20
-75.5649727
40
0.25
50
378.963921
51
405
0
LINE
8
0
10
157.351804
20
-74.5382233
11
158.2017767
21
-75.388196
0
ARC
8
0
10
157.1750273
20
-74.715
40
0.25
50
45
51
49.2931441
0
ARC
8
0
10
157.8272164
20
-73.9569437
40
0.75
50
126.4198904
51
229.2931447
0
ARC
8
0
10
155.75
20
-71.14
40
2.75
50
306.4050912
51
546.1506399
0
ARC
8
0
10
152.2701473
20
-71.515
40
0.75
50
270
51
366.1506399
0
LINE
8
0
10
152.1636026
20
-72.265
11
152.2701473
21
-72.265
0
ARC
8
0
10
152.1636026
20
-71.515
40
0.75
50
168.9125106
51
270
0
ARC
8
0
10
150.25
20
-71.14
40
1.2
50
348.9125107
51
551.0871451
0
ARC
8
0
10
148.3365184
20
-71.5156172
40
0.75
50
271.8376761
51
371.10597
0
ARC
8
0
10
148.375
20
-72.715
40
0.45
50
91.8376714
51
180
0
LINE
8
0
10
147.925
20
-72.715
11
147.925
21
-73.04
0
ARC
8
0
10
147.175
20
-73.04
40
0.75
50
270
51
360
0
LINE
8
0
10
147.175
20
-73.79
11
146.375
21
-73.79
0
ARC
8
0
10
146.375
20
-74.04
40
0.25
50
90
51
180
0
LINE
8
0
10
146.125
20
-74.04
11
146.125
21
-75.64
0
ARC
8
0
10
146.375
20
-75.64
40
0.25
50
180
51
270
0
LINE
8
0
10
146.375
20
-75.89
11
147.496131
21
-75.89
0
ARC
8
0
10
147.496131
20
-76.64
40
0.75
50
8.8027308
51
90
0
ARC
8
0
10
149.275
20
-76.365
40
1.05
50
188.7879374
51
270
0
LINE
8
0
10
152.15
20
-77.415
11
149.275
21
-77.415
0
ARC
8
0
10
152.15
20
-78.265
40
0.85
50
0
51
90
0
LINE
8
0
10
153
20
-78.5150273
11
153
21
-78.265
0
ARC
8
0
10
153.25
20
-78.5150273
40
0.25
50
180
51
225
0
LINE
8
0
10
153.923196
20
-79.5417767
11
153.0732233
21
-78.691804
0
ARC
8
0
10
154.0999727
20
-79.365
40
0.25
50
225
51
270
0
CIRCLE
8
0
10
160.75
20
-65.99
40
1.05
0
LINE
8
0
10
169.0854211
20
-73.9485344
11
170.6229484
21
-76.6116098
0
ARC
8
0
10
170.8394547
20
-76.4866098
40
0.25
50
210
51
255
0
LINE
8
0
10
171.9358342
20
-77.0392029
11
170.7747499
21
-76.7280913
0
ARC
8
0
10
172.000539
20
-76.7977214
40
0.25
50
255
51
281.0360773
0
ARC
8
0
10
172.1919661
20
-77.7792283
40
0.75
50
30
51
101.036079
0
LINE
8
0
10
172.8414851
20
-77.4042283
11
173.4186234
21
-78.4038611
0
ARC
8
0
10
173.6351298
20
-78.2788611
40
0.25
50
210
51
281.0601614
0
ARC
8
0
10
173.8269693
20
-79.2602875
40
0.75
50
28.3301588
51
101.0601522
0
ARC
8
0
10
174.7071969
20
-78.7857359
40
0.25
50
208.3301588
51
210
0
LINE
8
0
10
174.4906906
20
-78.9107359
11
175.3406906
21
-80.3829791
0
ARC
8
0
10
175.5571969
20
-80.2579791
40
0.25
50
210
51
300
0
LINE
8
0
10
175.6821969
20
-80.4744854
11
179.0163947
21
-78.5494854
0
ARC
8
0
10
178.8913947
20
-78.3329791
40
0.25
50
300
51
29.6434574
0
ARC
8
0
10
179.7605147
20
-77.8383779
40
0.75
50
82.9455248
51
209.6434575
0
ARC
8
0
10
180
20
-75.9031397
40
1.2
50
262.9455262
51
178.7551808
0
ARC
8
0
10
178.0504602
20
-75.860777
40
0.75
50
269.4805793
51
358.7551808
0
ARC
8
0
10
178.0413947
20
-76.8607359
40
0.25
50
89.4805793
51
120
0
LINE
8
0
10
177.9163947
20
-76.6442296
11
176.2492958
21
-77.6067296
0
ARC
8
0
10
175.8742958
20
-76.9572105
40
0.75
50
210
51
300
0
LINE
8
0
10
175.2247768
20
-77.3322105
11
174.6601385
21
-76.3542283
0
ARC
8
0
10
175.3096575
20
-75.9792283
40
0.75
50
138.963921
51
210
0
ARC
8
0
10
174.5553612
20
-75.3226941
40
0.25
50
318.963921
51
345
0
LINE
8
0
10
175.1079543
20
-74.2263146
11
174.7968427
21
-75.3873989
0
ARC
8
0
10
174.8664728
20
-74.1616098
40
0.25
50
345
51
349.2931441
0
ARC
8
0
10
175.8490634
20
-74.347394
40
0.75
50
66.4198904
51
169.2931447
0
ARC
8
0
10
177.25
20
-71.14
40
2.75
50
246.4050912
51
126.1506399
0
ARC
8
0
10
175.1853141
20
-68.3138592
40
0.75
50
210
51
306.1506399
0
LINE
8
0
10
174.4825227
20
-68.5965887
11
174.5357951
21
-68.6888592
0
ARC
8
0
10
175.1320418
20
-68.2215887
40
0.75
50
108.9125106
51
210
0
ARC
8
0
10
174.5
20
-66.3768603
40
1.2
50
288.9125107
51
131.0871451
0
ARC
8
0
10
173.2179652
20
-64.9075452
40
0.75
50
211.8376761
51
311.10597
0
ARC
8
0
10
172.19851
20
-65.5405626
40
0.45
50
31.8376714
51
120
0
LINE
8
0
10
171.97351
20
-65.1508512
11
171.6920517
21
-65.3133512
0
ARC
8
0
10
171.3170517
20
-64.6638322
40
0.75
50
210
51
300
0
LINE
8
0
10
170.6675327
20
-65.0388322
11
170.2675327
21
-64.3460118
0
ARC
8
0
10
170.0510263
20
-64.4710118
40
0.25
50
30
51
120
0
LINE
8
0
10
169.9260263
20
-64.2545055
11
168.5403857
21
-65.0545055
0
ARC
8
0
10
168.6653857
20
-65.2710118
40
0.25
50
120
51
210
0
LINE
8
0
10
168.4488793
20
-65.3960118
11
169.0094448
21
-66.3669398
0
ARC
8
0
10
168.3599258
20
-66.7419398
40
0.75
50
308.8027308
51
30
0
ARC
8
0
10
169.4875173
20
-68.1449855
40
1.05
50
128.7879374
51
210
0
LINE
8
0
10
170.0156906
20
-71.1598085
11
168.5781906
21
-68.6699855
0
ARC
8
0
10
169.279569
20
-71.5848085
40
0.85
50
300
51
30
0
LINE
8
0
10
169.488039
20
-72.4459438
11
169.704569
21
-72.3209301
0
ARC
8
0
10
169.613039
20
-72.6624501
40
0.25
50
120
51
165
0
LINE
8
0
10
169.0604459
20
-73.7588297
11
169.3715575
21
-72.5977454
0
ARC
8
0
10
169.3019274
20
-73.8235344
40
0.25
50
165
51
210
0
CIRCLE
8
0
10
184.2100308
20
-72.895127
40
1.05
0
LINE
8
0
10
190.5854211
20
-73.9485344
11
192.1229484
21
-76.6116098
0
ARC
8
0
10
192.3394547
20
-76.4866098
40
0.25
50
210
51
255
0
LINE
8
0
10
193.4358342
20
-77.0392029
11
192.2747499
21
-76.7280913
0
ARC
8
0
10
193.500539
20
-76.7977214
40
0.25
50
255
51
281.0360773
0
ARC
8
0
10
193.6919661
20
-77.7792283
40
0.75
50
30
51
101.036079
0
LINE
8
0
10
194.3414851
20
-77.4042283
11
194.9186234
21
-78.4038611
0
ARC
8
0
10
195.1351298
20
-78.2788611
40
0.25
50
210
51
281.0601614
0
ARC
8
0
10
195.3269693
20
-79.2602875
40
0.75
50
28.3301588
51
101.0601522
0
ARC
8
0
10
196.2071969
20
-78.7857359
40
0.25
50
208.3301588
51
210
0
LINE
8
0
10
195.9906906
20
-78.9107359
11
196.8406906
21
-80.3829791
0
ARC
8
0
10
197.0571969
20
-80.2579791
40
0.25
50
210
51
300
0
LINE
8
0
10
197.1821969
20
-80.4744854
11
200.5163947
21
-78.5494854
0
ARC
8
0
10
200.3913947
20
-78.3329791
40
0.25
50
300
51
29.6434574
0
ARC
8
0
10
201.2605147
20
-77.8383779
40
0.75
50
82.9455248
51
209.6434575
0
ARC
8
0
10
201.5
20
-75.9031397
40
1.2
50
262.9455262
51
178.7551808
0
ARC
8
0
10
199.5504602
20
-75.860777
40
0.75
50
269.4805793
51
358.7551808
0
ARC
8
0
10
199.5413947
20
-76.8607359
40
0.25
50
89.4805793
51
120
0
LINE
8
0
10
199.4163947
20
-76.6442296
11
197.7492958
21
-77.6067296
0
ARC
8
0
10
197.3742958
20
-76.9572105
40
0.75
50
210
51
300
0
LINE
8
0
10
196.7247768
20
-77.3322105
11
196.1601385
21
-76.3542283
0
ARC
8
0
10
196.8096575
20
-75.9792283
40
0.75
50
138.963921
51
210
0
ARC
8
0
10
196.0553612
20
-75.3226941
40
0.25
50
318.963921
51
345
0
LINE
8
0
10
196.6079543
20
-74.2263146
11
196.2968427
21
-75.3873989
0
ARC
8
0
10
196.3664728
20
-74.1616098
40
0.25
50
345
51
349.2931441
0
ARC
8
0
10
197.3490634
20
-74.347394
40
0.75
50
66.4198904
51
169.2931447
0
ARC
8
0
10
198.75
20
-71.14
40
2.75
50
246.4050912
51
126.1506399
0
ARC
8
0
10
196.6853141
20
-68.3138592
40
0.75
50
210
51
306.1506399
0
LINE
8
0
10
195.9825227
20
-68.5965887
11
196.0357951
21
-68.6888592
0
ARC
8
0
10
196.6320418
20
-68.2215887
40
0.75
50
108.9125106
51
210
0
ARC
8
0
10
196
20
-66.3768603
40
1.2
50
288.9125107
51
131.0871451
0
ARC
8
0
10
194.7179652
20
-64.9075452
40
0.75
50
211.8376761
51
311.10597
0
ARC
8
0
10
193.69851
20
-65.5405626
40
0.45
50
31.8376714
51
120
0
LINE
8
0
10
193.47351
20
-65.1508512
11
193.1920517
21
-65.3133512
0
ARC
8
0
10
192.8170517
20
-64.6638322
40
0.75
50
210
51
300
0
LINE
8
0
10
192.1675327
20
-65.0388322
11
191.7675327
21
-64.3460118
0
ARC
8
0
10
191.5510263
20
-64.4710118
40
0.25
50
30
51
120
0
LINE
8
0
10
191.4260263
20
-64.2545055
11
190.0403857
21
-65.0545055
0
ARC
8
0
10
190.1653857
20
-65.2710118
40
0.25
50
120
51
210
0
LINE
8
0
10
189.9488793
20
-65.3960118
11
190.5094448
21
-66.3669398
0
ARC
8
0
10
189.8599258
20
-66.7419398
40
0.75
50
308.8027308
51
30
0
ARC
8
0
10
190.9875173
20
-68.1449855
40
1.05
50
128.7879374
51
210
0
LINE
8
0
10
191.5156906
20
-71.1598085
11
190.0781906
21
-68.6699855
0
ARC
8
0
10
190.779569
20
-71.5848085
40
0.85
50
300
51
30
0
LINE
8
0
10
190.988039
20
-72.4459438
11
191.204569
21
-72.3209301
0
ARC
8
0
10
191.113039
20
-72.6624501
40
0.25
50
120
51
165
0
LINE
8
0
10
190.5604459
20
-73.7588297
11
190.8715575
21
-72.5977454
0
ARC
8
0
10
190.8019274
20
-73.8235344
40
0.25
50
165
51
210
0
CIRCLE
8
0
10
205.7100308
20
-72.895127
40
1.05
0
LINE
8
0
10
212.0854211
20
-73.9485344
11
213.6229484
21
-76.6116098
0
ARC
8
0
10
213.8394547
20
-76.4866098
40
0.25
50
210
51
255
0
LINE
8
0
10
214.9358342
20
-77.0392029
11
213.7747499
21
-76.7280913
0
ARC
8
0
10
215.000539
20
-76.7977214
40
0.25
50
255
51
281.0360773
0
ARC
8
0
10
215.1919661
20
-77.7792283
40
0.75
50
30
51
101.036079
0
LINE
8
0
10
215.8414851
20
-77.4042283
11
216.4186234
21
-78.4038611
0
ARC
8
0
10
216.6351298
20
-78.2788611
40
0.25
50
210
51
281.0601614
0
ARC
8
0
10
216.8269693
20
-79.2602875
40
0.75
50
28.3301588
51
101.0601522
0
ARC
8
0
10
217.7071969
20
-78.7857359
40
0.25
50
208.3301588
51
210
0
LINE
8
0
10
217.4906906
20
-78.9107359
11
218.3406906
21
-80.3829791
0
ARC
8
0
10
218.5571969
20
-80.2579791
40
0.25
50
210
51
300
0
LINE
8
0
10
218.6821969
20
-80.4744854
11
222.0163947
21
-78.5494854
0
ARC
8
0
10
221.8913947
20
-78.3329791
40
0.25
50
300
51
29.6434574
0
ARC
8
0
10
222.7605147
20
-77.8383779
40
0.75
50
82.9455248
51
209.6434575
0
ARC
8
0
10
223
20
-75.9031397
40
1.2
50
262.9455262
51
178.7551808
0
ARC
8
0
10
221.0504602
20
-75.860777
40
0.75
50
269.4805793
51
358.7551808
0
ARC
8
0
10
221.0413947
20
-76.8607359
40
0.25
50
89.4805793
51
120
0
LINE
8
0
10
220.9163947
20
-76.6442296
11
219.2492958
21
-77.6067296
0
ARC
8
0
10
218.8742958
20
-76.9572105
40
0.75
50
210
51
300
0
LINE
8
0
10
218.2247768
20
-77.3322105
11
217.6601385
21
-76.3542283
0
ARC
8
0
10
218.3096575
20
-75.9792283
40
0.75
50
138.963921
51
210
0
ARC
8
0
10
217.5553612
20
-75.3226941
40
0.25
50
318.963921
51
345
0
LINE
8
0
10
218.1079543
20
-74.2263146
11
217.7968427
21
-75.3873989
0
ARC
8
0
10
217.8664728
20
-74.1616098
40
0.25
50
345
51
349.2931441
0
ARC
8
0
10
218.8490634
20
-74.347394
40
0.75
50
66.4198904
51
169.2931447
0
ARC
8
0
10
220.25
20
-71.14
40
2.75
50
246.4050912
51
126.1506399
0
ARC
8
0
10
218.1853141
20
-68.3138592
40
0.75
50
210
51
306.1506399
0
LINE
8
0
10
217.4825227
20
-68.5965887
11
217.5357951
21
-68.6888592
0
ARC
8
0
10
218.1320418
20
-68.2215887
40
0.75
50
108.9125106
51
210
0
ARC
8
0
10
217.5
20
-66.3768603
40
1.2
50
288.9125107
51
131.0871451
0
ARC
8
0
10
216.2179652
20
-64.9075452
40
0.75
50
211.8376761
51
311.10597
0
ARC
8
0
10
215.19851
20
-65.5405626
40
0.45
50
31.8376714
51
120
0
LINE
8
0
10
214.97351
20
-65.1508512
11
214.6920517
21
-65.3133512
0
ARC
8
0
10
214.3170517
20
-64.6638322
40
0.75
50
210
51
300
0
LINE
8
0
10
213.6675327
20
-65.0388322
11
213.2675327
21
-64.3460118
0
ARC
8
0
10
213.0510263
20
-64.4710118
40
0.25
50
30
51
120
0
LINE
8
0
10
212.9260263
20
-64.2545055
11
211.5403857
21
-65.0545055
0
ARC
8
0
10
211.6653857
20
-65.2710118
40
0.25
50
120
51
210
0
LINE
8
0
10
211.4488793
20
-65.3960118
11
212.0094448
21
-66.3669398
0
ARC
8
0
10
211.3599258
20
-66.7419398
40
0.75
50
308.8027308
51
30
0
ARC
8
0
10
212.4875173
20
-68.1449855
40
1.05
50
128.7879374
51
210
0
LINE
8
0
10
213.0156906
20
-71.1598085
11
211.5781906
21
-68.6699855
0
ARC
8
0
10
212.279569
20
-71.5848085
40
0.85
50
300
51
30
0
LINE
8
0
10
212.488039
20
-72.4459438
11
212.704569
21
-72.3209301
0
ARC
8
0
10
212.613039
20
-72.6624501
40
0.25
50
120
51
165
0
LINE
8
0
10
212.0604459
20
-73.7588297
11
212.3715575
21
-72.5977454
0
ARC
8
0
10
212.3019274
20
-73.8235344
40
0.25
50
165
51
210
0
CIRCLE
8
0
10
227.2100308
20
-72.895127
40
1.05
0
LINE
8
0
10
189.6500273
20
-118.525
11
186.5749727
21
-118.525
0
ARC
8
0
10
186.5749727
20
-118.775
40
0.25
50
90
51
135
0
LINE
8
0
10
185.5482233
20
-119.448196
11
186.398196
21
-118.5982233
0
ARC
8
0
10
185.725
20
-119.6249727
40
0.25
50
135
51
161.0360773
0
ARC
8
0
10
184.7792766
20
-119.3
40
0.75
50
270
51
341.036079
0
LINE
8
0
10
184.7792766
20
-120.05
11
183.625
21
-120.05
0
ARC
8
0
10
183.625
20
-120.3
40
0.25
50
90
51
161.0601614
0
ARC
8
0
10
182.6791401
20
-119.9754247
40
0.75
50
268.3301588
51
341.0601522
0
ARC
8
0
10
182.65
20
-120.975
40
0.25
50
88.3301588
51
90
0
LINE
8
0
10
182.65
20
-120.725
11
180.95
21
-120.725
0
ARC
8
0
10
180.95
20
-120.975
40
0.25
50
90
51
180
0
LINE
8
0
10
180.7
20
-120.975
11
180.7
21
-124.825
0
ARC
8
0
10
180.95
20
-124.825
40
0.25
50
180
51
269.6434574
0
ARC
8
0
10
180.9437772
20
-125.8249806
40
0.75
50
322.9455248
51
89.6434575
0
ARC
8
0
10
182.5
20
-127
40
1.2
50
142.9455262
51
58.7551808
0
ARC
8
0
10
183.5114571
20
-125.3328304
40
0.75
50
149.4805793
51
238.7551808
0
ARC
8
0
10
182.65
20
-124.825
40
0.25
50
329.4805793
51
0
0
LINE
8
0
10
182.9
20
-124.825
11
182.9
21
-122.9
0
ARC
8
0
10
183.65
20
-122.9
40
0.75
50
90
51
180
0
LINE
8
0
10
183.65
20
-122.15
11
184.7792766
21
-122.15
0
ARC
8
0
10
184.7792766
20
-122.9
40
0.75
50
18.963921
51
90
0
ARC
8
0
10
185.725
20
-122.5750273
40
0.25
50
198.963921
51
225
0
LINE
8
0
10
186.398196
20
-123.6017767
11
185.5482233
21
-122.751804
0
ARC
8
0
10
186.5749727
20
-123.425
40
0.25
50
225
51
229.2931441
0
ARC
8
0
10
185.9227836
20
-124.1830563
40
0.75
50
306.4198904
51
49.2931447
0
ARC
8
0
10
188
20
-127
40
2.75
50
126.4050912
51
6.1506399
0
ARC
8
0
10
191.4798527
20
-126.625
40
0.75
50
90
51
186.1506399
0
LINE
8
0
10
191.5863974
20
-125.875
11
191.4798527
21
-125.875
0
ARC
8
0
10
191.5863974
20
-126.625
40
0.75
50
348.9125106
51
90
0
ARC
8
0
10
193.5
20
-127
40
1.2
50
168.9125107
51
11.0871451
0
ARC
8
0
10
195.4134816
20
-126.6243828
40
0.75
50
91.8376761
51
191.10597
0
ARC
8
0
10
195.375
20
-125.425
40
0.45
50
271.8376714
51
0
0
LINE
8
0
10
195.825
20
-125.425
11
195.825
21
-125.1
0
ARC
8
0
10
196.575
20
-125.1
40
0.75
50
90
51
180
0
LINE
8
0
10
196.575
20
-124.35
11
197.375
21
-124.35
0
ARC
8
0
10
197.375
20
-124.1
40
0.25
50
270
51
0
0
LINE
8
0
10
197.625
20
-124.1
11
197.625
21
-122.5
0
ARC
8
0
10
197.375
20
-122.5
40
0.25
50
0
51
90
0
LINE
8
0
10
197.375
20
-122.25
11
196.253869
21
-122.25
0
ARC
8
0
10
196.253869
20
-121.5
40
0.75
50
188.8027308
51
270
0
ARC
8
0
10
194.475
20
-121.775
40
1.05
50
8.7879374
51
90
0
LINE
8
0
10
191.6
20
-120.725
11
194.475
21
-120.725
0
ARC
8
0
10
191.6
20
-119.875
40
0.85
50
180
51
270
0
LINE
8
0
10
190.75
20
-119.6249727
11
190.75
21
-119.875
0
ARC
8
0
10
190.5
20
-119.6249727
40
0.25
50
0
51
45
0
LINE
8
0
10
189.826804
20
-118.5982233
11
190.6767767
21
-119.448196
0
ARC
8
0
10
189.6500273
20
-118.775
40
0.25
50
45
51
90
0
CIRCLE
8
0
10
183
20
-132.15
40
1.05
0
LINE
8
0
10
229.3499727
20
-176.1791
11
232.4250273
21
-176.1791
0
ARC
8
0
10
232.4250273
20
-175.9291
40
0.25
50
270
51
315
0
LINE
8
0
10
233.4517767
20
-175.255904
11
232.601804
21
-176.1058767
0
ARC
8
0
10
233.275
20
-175.0791273
40
0.25
50
315
51
341.0360773
0
ARC
8
0
10
234.2207234
20
-175.4041
40
0.75
50
90
51
161.036079
0
LINE
8
0
10
234.2207234
20
-174.6541
11
235.375
21
-174.6541
0
ARC
8
0
10
235.375
20
-174.4041
40
0.25
50
270
51
341.0601614
0
ARC
8
0
10
236.3208599
20
-174.7286753
40
0.75
50
88.3301588
51
161.0601522
0
ARC
8
0
10
236.35
20
-173.7291
40
0.25
50
268.3301588
51
270
0
LINE
8
0
10
236.35
20
-173.9791
11
238.05
21
-173.9791
0
ARC
8
0
10
238.05
20
-173.7291
40
0.25
50
270
51
360
0
LINE
8
0
10
238.3
20
-173.7291
11
238.3
21
-169.8791
0
ARC
8
0
10
238.05
20
-169.8791
40
0.25
50
0
51
89.6434574
0
ARC
8
0
10
238.0562228
20
-168.8791194
40
0.75
50
142.9455248
51
269.6434575
0
ARC
8
0
10
236.5
20
-167.7041
40
1.2
50
322.9455262
51
598.7551808
0
ARC
8
0
10
235.4885429
20
-169.3712696
40
0.75
50
329.4805793
51
418.7551808
0
ARC
8
0
10
236.35
20
-169.8791
40
0.25
50
509.4805793
51
540
0
LINE
8
0
10
236.1
20
-169.8791
11
236.1
21
-171.8041
0
ARC
8
0
10
235.35
20
-171.8041
40
0.75
50
270
51
360
0
LINE
8
0
10
235.35
20
-172.5541
11
234.2207234
21
-172.5541
0
ARC
8
0
10
234.2207234
20
-171.8041
40
0.75
50
198.963921
51
270
0
ARC
8
0
10
233.275
20
-172.1290727
40
0.25
50
378.963921
51
405
0
LINE
8
0
10
232.601804
20
-171.1023233
11
233.4517767
21
-171.952296
0
ARC
8
0
10
232.4250273
20
-171.2791
40
0.25
50
45
51
49.2931441
0
ARC
8
0
10
233.0772164
20
-170.5210437
40
0.75
50
126.4198904
51
229.2931447
0
ARC
8
0
10
231
20
-167.7041
40
2.75
50
306.4050912
51
546.1506399
0
ARC
8
0
10
227.5201473
20
-168.0791
40
0.75
50
270
51
366.1506399
0
LINE
8
0
10
227.4136026
20
-168.8291
11
227.5201473
21
-168.8291
0
ARC
8
0
10
227.4136026
20
-168.0791
40
0.75
50
168.9125106
51
270
0
ARC
8
0
10
225.5
20
-167.7041
40
1.2
50
348.9125107
51
551.0871451
0
ARC
8
0
10
223.5865184
20
-168.0797172
40
0.75
50
271.8376761
51
371.10597
0
ARC
8
0
10
223.625
20
-169.2791
40
0.45
50
91.8376714
51
180
0
LINE
8
0
10
223.175
20
-169.2791
11
223.175
21
-169.6041
0
ARC
8
0
10
222.425
20
-169.6041
40
0.75
50
270
51
360
0
LINE
8
0
10
222.425
20
-170.3541
11
221.625
21
-170.3541
0
ARC
8
0
10
221.625
20
-170.6041
40
0.25
50
90
51
180
0
LINE
8
0
10
221.375
20
-170.6041
11
221.375
21
-172.2041
0
ARC
8
0
10
221.625
20
-172.2041
40
0.25
50
180
51
270
0
LINE
8
0
10
221.625
20
-172.4541
11
222.746131
21
-172.4541
0
ARC
8
0
10
222.746131
20
-173.2041
40
0.75
50
8.8027308
51
90
0
ARC
8
0
10
224.525
20
-172.9291
40
1.05
50
188.7879374
51
270
0
LINE
8
0
10
227.4
20
-173.9791
11
224.525
21
-173.9791
0
ARC
8
0
10
227.4
20
-174.8291
40
0.85
50
0
51
90
0
LINE
8
0
10
228.25
20
-175.0791273
11
228.25
21
-174.8291
0
ARC
8
0
10
228.5
20
-175.0791273
40
0.25
50
180
51
225
0
LINE
8
0
10
229.173196
20
-176.1058767
11
228.3232233
21
-175.255904
0
ARC
8
0
10
229.3499727
20
-175.9291
40
0.25
50
225
51
270
0
CIRCLE
8
0
10
236
20
-162.5541
40
1.05
0
LINE
8
0
10
353.9000273
20
-99.905
11
350.8249727
21
-99.905
0
ARC
8
0
10
350.8249727
20
-100.155
40
0.25
50
90
51
135
0
LINE
8
0
10
349.7982233
20
-100.828196
11
350.648196
21
-99.9782233
0
ARC
8
0
10
349.975
20
-101.0049727
40
0.25
50
135
51
161.0360773
0
ARC
8
0
10
349.0292766
20
-100.68
40
0.75
50
270
51
341.036079
0
LINE
8
0
10
349.0292766
20
-101.43
11
347.875
21
-101.43
0
ARC
8
0
10
347.875
20
-101.68
40
0.25
50
90
51
161.0601614
0
ARC
8
0
10
346.9291401
20
-101.3554247
40
0.75
50
268.3301588
51
341.0601522
0
ARC
8
0
10
346.9
20
-102.355
40
0.25
50
88.3301588
51
90
0
LINE
8
0
10
346.9
20
-102.105
11
345.2
21
-102.105
0
ARC
8
0
10
345.2
20
-102.355
40
0.25
50
90
51
180
0
LINE
8
0
10
344.95
20
-102.355
11
344.95
21
-106.205
0
ARC
8
0
10
345.2
20
-106.205
40
0.25
50
180
51
269.6434574
0
ARC
8
0
10
345.1937772
20
-107.2049806
40
0.75
50
322.9455248
51
89.6434575
0
ARC
8
0
10
346.75
20
-108.38
40
1.2
50
142.9455262
51
58.7551808
0
ARC
8
0
10
347.7614571
20
-106.7128304
40
0.75
50
149.4805793
51
238.7551808
0
ARC
8
0
10
346.9
20
-106.205
40
0.25
50
329.4805793
51
0
0
LINE
8
0
10
347.15
20
-106.205
11
347.15
21
-104.28
0
ARC
8
0
10
347.9
20
-104.28
40
0.75
50
90
51
180
0
LINE
8
0
10
347.9
20
-103.53
11
349.0292766
21
-103.53
0
ARC
8
0
10
349.0292766
20
-104.28
40
0.75
50
18.963921
51
90
0
ARC
8
0
10
349.975
20
-103.9550273
40
0.25
50
198.963921
51
225
0
LINE
8
0
10
350.648196
20
-104.9817767
11
349.7982233
21
-104.131804
0
ARC
8
0
10
350.8249727
20
-104.805
40
0.25
50
225
51
229.2931441
0
ARC
8
0
10
350.1727836
20
-105.5630563
40
0.75
50
306.4198904
51
49.2931447
0
ARC
8
0
10
352.25
20
-108.38
40
2.75
50
126.4050912
51
6.1506399
0
ARC
8
0
10
355.7298527
20
-108.005
40
0.75
50
90
51
186.1506399
0
LINE
8
0
10
355.8363974
20
-107.255
11
355.7298527
21
-107.255
0
ARC
8
0
10
355.8363974
20
-108.005
40
0.75
50
348.9125106
51
90
0
ARC
8
0
10
357.75
20
-108.38
40
1.2
50
168.9125107
51
11.0871451
0
ARC
8
0
10
359.6634816
20
-108.0043828
40
0.75
50
91.8376761
51
191.10597
0
ARC
8
0
10
359.625
20
-106.805
40
0.45
50
271.8376714
51
0
0
LINE
8
0
10
360.075
20
-106.805
11
360.075
21
-106.48
0
ARC
8
0
10
360.825
20
-106.48
40
0.75
50
90
51
180
0
LINE
8
0
10
360.825
20
-105.73
11
361.625
21
-105.73
0
ARC
8
0
10
361.625
20
-105.48
40
0.25
50
270
51
0
0
LINE
8
0
10
361.875
20
-105.48
11
361.875
21
-103.88
0
ARC
8
0
10
361.625
20
-103.88
40
0.25
50
0
51
90
0
LINE
8
0
10
361.625
20
-103.63
11
360.503869
21
-103.63
0
ARC
8
0
10
360.503869
20
-102.88
40
0.75
50
188.8027308
51
270
0
ARC
8
0
10
358.725
20
-103.155
40
1.05
50
8.7879374
51
90
0
LINE
8
0
10
355.85
20
-102.105
11
358.725
21
-102.105
0
ARC
8
0
10
355.85
20
-101.255
40
0.85
50
180
51
270
0
LINE
8
0
10
355
20
-101.0049727
11
355
21
-101.255
0
ARC
8
0
10
354.75
20
-101.0049727
40
0.25
50
0
51
45
0
LINE
8
0
10
354.076804
20
-99.9782233
11
354.9267767
21
-100.828196
0
ARC
8
0
10
353.9000273
20
-100.155
40
0.25
50
45
51
90
0
CIRCLE
8
0
10
347.25
20
-113.53
40
1.05
0
LINE
8
0
10
332.4000273
20
-99.905
11
329.3249727
21
-99.905
0
ARC
8
0
10
329.3249727
20
-100.155
40
0.25
50
90
51
135
0
LINE
8
0
10
328.2982233
20
-100.828196
11
329.148196
21
-99.9782233
0
ARC
8
0
10
328.475
20
-101.0049727
40
0.25
50
135
51
161.0360773
0
ARC
8
0
10
327.5292766
20
-100.68
40
0.75
50
270
51
341.036079
0
LINE
8
0
10
327.5292766
20
-101.43
11
326.375
21
-101.43
0
ARC
8
0
10
326.375
20
-101.68
40
0.25
50
90
51
161.0601614
0
ARC
8
0
10
325.4291401
20
-101.3554247
40
0.75
50
268.3301588
51
341.0601522
0
ARC
8
0
10
325.4
20
-102.355
40
0.25
50
88.3301588
51
90
0
LINE
8
0
10
325.4
20
-102.105
11
323.7
21
-102.105
0
ARC
8
0
10
323.7
20
-102.355
40
0.25
50
90
51
180
0
LINE
8
0
10
323.45
20
-102.355
11
323.45
21
-106.205
0
ARC
8
0
10
323.7
20
-106.205
40
0.25
50
180
51
269.6434574
0
ARC
8
0
10
323.6937772
20
-107.2049806
40
0.75
50
322.9455248
51
89.6434575
0
ARC
8
0
10
325.25
20
-108.38
40
1.2
50
142.9455262
51
58.7551808
0
ARC
8
0
10
326.2614571
20
-106.7128304
40
0.75
50
149.4805793
51
238.7551808
0
ARC
8
0
10
325.4
20
-106.205
40
0.25
50
329.4805793
51
0
0
LINE
8
0
10
325.65
20
-106.205
11
325.65
21
-104.28
0
ARC
8
0
10
326.4
20
-104.28
40
0.75
50
90
51
180
0
LINE
8
0
10
326.4
20
-103.53
11
327.5292766
21
-103.53
0
ARC
8
0
10
327.5292766
20
-104.28
40
0.75
50
18.963921
51
90
0
ARC
8
0
10
328.475
20
-103.9550273
40
0.25
50
198.963921
51
225
0
LINE
8
0
10
329.148196
20
-104.9817767
11
328.2982233
21
-104.131804
0
ARC
8
0
10
329.3249727
20
-104.805
40
0.25
50
225
51
229.2931441
0
ARC
8
0
10
328.6727836
20
-105.5630563
40
0.75
50
306.4198904
51
49.2931447
0
ARC
8
0
10
330.75
20
-108.38
40
2.75
50
126.4050912
51
6.1506399
0
ARC
8
0
10
334.2298527
20
-108.005
40
0.75
50
90
51
186.1506399
0
LINE
8
0
10
334.3363974
20
-107.255
11
334.2298527
21
-107.255
0
ARC
8
0
10
334.3363974
20
-108.005
40
0.75
50
348.9125106
51
90
0
ARC
8
0
10
336.25
20
-108.38
40
1.2
50
168.9125107
51
11.0871451
0
ARC
8
0
10
338.1634816
20
-108.0043828
40
0.75
50
91.8376761
51
191.10597
0
ARC
8
0
10
338.125
20
-106.805
40
0.45
50
271.8376714
51
0
0
LINE
8
0
10
338.575
20
-106.805
11
338.575
21
-106.48
0
ARC
8
0
10
339.325
20
-106.48
40
0.75
50
90
51
180
0
LINE
8
0
10
339.325
20
-105.73
11
340.125
21
-105.73
0
ARC
8
0
10
340.125
20
-105.48
40
0.25
50
270
51
0
0
LINE
8
0
10
340.375
20
-105.48
11
340.375
21
-103.88
0
ARC
8
0
10
340.125
20
-103.88
40
0.25
50
0
51
90
0
LINE
8
0
10
340.125
20
-103.63
11
339.003869
21
-103.63
0
ARC
8
0
10
339.003869
20
-102.88
40
0.75
50
188.8027308
51
270
0
ARC
8
0
10
337.225
20
-103.155
40
1.05
50
8.7879374
51
90
0
LINE
8
0
10
334.35
20
-102.105
11
337.225
21
-102.105
0
ARC
8
0
10
334.35
20
-101.255
40
0.85
50
180
51
270
0
LINE
8
0
10
333.5
20
-101.0049727
11
333.5
21
-101.255
0
ARC
8
0
10
333.25
20
-101.0049727
40
0.25
50
0
51
45
0
LINE
8
0
10
332.576804
20
-99.9782233
11
333.4267767
21
-100.828196
0
ARC
8
0
10
332.4000273
20
-100.155
40
0.25
50
45
51
90
0
CIRCLE
8
0
10
325.75
20
-113.53
40
1.05
0
LINE
8
0
10
310.9000273
20
-99.905
11
307.8249727
21
-99.905
0
ARC
8
0
10
307.8249727
20
-100.155
40
0.25
50
90
51
135
0
LINE
8
0
10
306.7982233
20
-100.828196
11
307.648196
21
-99.9782233
0
ARC
8
0
10
306.975
20
-101.0049727
40
0.25
50
135
51
161.0360773
0
ARC
8
0
10
306.0292766
20
-100.68
40
0.75
50
270
51
341.036079
0
LINE
8
0
10
306.0292766
20
-101.43
11
304.875
21
-101.43
0
ARC
8
0
10
304.875
20
-101.68
40
0.25
50
90
51
161.0601614
0
ARC
8
0
10
303.9291401
20
-101.3554247
40
0.75
50
268.3301588
51
341.0601522
0
ARC
8
0
10
303.9
20
-102.355
40
0.25
50
88.3301588
51
90
0
LINE
8
0
10
303.9
20
-102.105
11
302.2
21
-102.105
0
ARC
8
0
10
302.2
20
-102.355
40
0.25
50
90
51
180
0
LINE
8
0
10
301.95
20
-102.355
11
301.95
21
-106.205
0
ARC
8
0
10
302.2
20
-106.205
40
0.25
50
180
51
269.6434574
0
ARC
8
0
10
302.1937772
20
-107.2049806
40
0.75
50
322.9455248
51
89.6434575
0
ARC
8
0
10
303.75
20
-108.38
40
1.2
50
142.9455262
51
58.7551808
0
ARC
8
0
10
304.7614571
20
-106.7128304
40
0.75
50
149.4805793
51
238.7551808
0
ARC
8
0
10
303.9
20
-106.205
40
0.25
50
329.4805793
51
0
0
LINE
8
0
10
304.15
20
-106.205
11
304.15
21
-104.28
0
ARC
8
0
10
304.9
20
-104.28
40
0.75
50
90
51
180
0
LINE
8
0
10
304.9
20
-103.53
11
306.0292766
21
-103.53
0
ARC
8
0
10
306.0292766
20
-104.28
40
0.75
50
18.963921
51
90
0
ARC
8
0
10
306.975
20
-103.9550273
40
0.25
50
198.963921
51
225
0
LINE
8
0
10
307.648196
20
-104.9817767
11
306.7982233
21
-104.131804
0
ARC
8
0
10
307.8249727
20
-104.805
40
0.25
50
225
51
229.2931441
0
ARC
8
0
10
307.1727836
20
-105.5630563
40
0.75
50
306.4198904
51
49.2931447
0
ARC
8
0
10
309.25
20
-108.38
40
2.75
50
126.4050912
51
6.1506399
0
ARC
8
0
10
312.7298527
20
-108.005
40
0.75
50
90
51
186.1506399
0
LINE
8
0
10
312.8363974
20
-107.255
11
312.7298527
21
-107.255
0
ARC
8
0
10
312.8363974
20
-108.005
40
0.75
50
348.9125106
51
90
0
ARC
8
0
10
314.75
20
-108.38
40
1.2
50
168.9125107
51
11.0871451
0
ARC
8
0
10
316.6634816
20
-108.0043828
40
0.75
50
91.8376761
51
191.10597
0
ARC
8
0
10
316.625
20
-106.805
40
0.45
50
271.8376714
51
0
0
LINE
8
0
10
317.075
20
-106.805
11
317.075
21
-106.48
0
ARC
8
0
10
317.825
20
-106.48
40
0.75
50
90
51
180
0
LINE
8
0
10
317.825
20
-105.73
11
318.625
21
-105.73
0
ARC
8
0
10
318.625
20
-105.48
40
0.25
50
270
51
0
0
LINE
8
0
10
318.875
20
-105.48
11
318.875
21
-103.88
0
ARC
8
0
10
318.625
20
-103.88
40
0.25
50
0
51
90
0
LINE
8
0
10
318.625
20
-103.63
11
317.503869
21
-103.63
0
ARC
8
0
10
317.503869
20
-102.88
40
0.75
50
188.8027308
51
270
0
ARC
8
0
10
315.725
20
-103.155
40
1.05
50
8.7879374
51
90
0
LINE
8
0
10
312.85
20
-102.105
11
315.725
21
-102.105
0
ARC
8
0
10
312.85
20
-101.255
40
0.85
50
180
51
270
0
LINE
8
0
10
312
20
-101.0049727
11
312
21
-101.255
0
ARC
8
0
10
311.75
20
-101.0049727
40
0.25
50
0
51
45
0
LINE
8
0
10
311.076804
20
-99.9782233
11
311.9267767
21
-100.828196
0
ARC
8
0
10
310.9000273
20
-100.155
40
0.25
50
45
51
90
0
CIRCLE
8
0
10
304.25
20
-113.53
40
1.05
0
LINE
8
0
10
356.4854484
20
-84.0935344
11
354.9479211
21
-86.7566098
0
ARC
8
0
10
355.1644274
20
-86.8816098
40
0.25
50
150
51
195
0
LINE
8
0
10
355.2340575
20
-88.1073989
11
354.9229459
21
-86.9463146
0
ARC
8
0
10
355.475539
20
-88.0426941
40
0.25
50
195
51
221.0360773
0
ARC
8
0
10
354.7212427
20
-88.6992283
40
0.75
50
330
51
41.036079
0
LINE
8
0
10
355.3707617
20
-89.0742283
11
354.7936234
21
-90.0738611
0
ARC
8
0
10
355.0101298
20
-90.1988611
40
0.25
50
150
51
221.0601614
0
ARC
8
0
10
354.2561094
20
-90.8557122
40
0.75
50
328.3301588
51
41.0601522
0
ARC
8
0
10
355.1071969
20
-91.3807359
40
0.25
50
148.3301588
51
150
0
LINE
8
0
10
354.8906906
20
-91.2557359
11
354.0406906
21
-92.7279791
0
ARC
8
0
10
354.2571969
20
-92.8529791
40
0.25
50
150
51
240
0
LINE
8
0
10
354.1321969
20
-93.0694854
11
357.4663947
21
-94.9944854
0
ARC
8
0
10
357.5913947
20
-94.7779791
40
0.25
50
240
51
329.6434574
0
ARC
8
0
10
358.4542919
20
-95.2833585
40
0.75
50
22.9455248
51
149.6434575
0
ARC
8
0
10
360.25
20
-94.5231397
40
1.2
50
202.9455262
51
118.7551808
0
ARC
8
0
10
359.3119173
20
-92.8136074
40
0.75
50
209.4805793
51
298.7551808
0
ARC
8
0
10
358.4413947
20
-93.3057359
40
0.25
50
29.4805793
51
60
0
LINE
8
0
10
358.5663947
20
-93.0892296
11
356.8992958
21
-92.1267296
0
ARC
8
0
10
357.2742958
20
-91.4772105
40
0.75
50
150
51
240
0
LINE
8
0
10
356.6247768
20
-91.1022105
11
357.1894151
21
-90.1242283
0
ARC
8
0
10
357.8389341
20
-90.4992283
40
0.75
50
78.963921
51
150
0
ARC
8
0
10
358.0303612
20
-89.5177214
40
0.25
50
258.963921
51
285
0
LINE
8
0
10
359.2561503
20
-89.4480913
11
358.095066
21
-89.7592029
0
ARC
8
0
10
359.1914455
20
-89.2066098
40
0.25
50
285
51
289.2931441
0
ARC
8
0
10
359.521847
20
-90.1504503
40
0.75
50
6.4198904
51
109.2931447
0
ARC
8
0
10
363
20
-89.76
40
2.75
50
186.4050912
51
66.1506399
0
ARC
8
0
10
364.4151668
20
-86.5588592
40
0.75
50
150
51
246.1506399
0
LINE
8
0
10
363.8189201
20
-86.0915887
11
363.7656478
21
-86.1838592
0
ARC
8
0
10
364.4684392
20
-86.4665887
40
0.75
50
48.9125106
51
150
0
ARC
8
0
10
365.75
20
-84.9968603
40
1.2
50
228.9125107
51
71.0871451
0
ARC
8
0
10
366.3814468
20
-83.151928
40
0.75
50
151.8376761
51
251.10597
0
ARC
8
0
10
365.32351
20
-82.5855626
40
0.45
50
331.8376714
51
60
0
LINE
8
0
10
365.54851
20
-82.1958512
11
365.2670517
21
-82.0333512
0
ARC
8
0
10
365.6420517
20
-81.3838322
40
0.75
50
150
51
240
0
LINE
8
0
10
364.9925327
20
-81.0088322
11
365.3925327
21
-80.3160118
0
ARC
8
0
10
365.1760263
20
-80.1910118
40
0.25
50
330
51
60
0
LINE
8
0
10
365.3010263
20
-79.9745055
11
363.9153857
21
-79.1745055
0
ARC
8
0
10
363.7903857
20
-79.3910118
40
0.25
50
60
51
150
0
LINE
8
0
10
363.5738793
20
-79.2660118
11
363.0133138
21
-80.2369398
0
ARC
8
0
10
362.3637948
20
-79.8619398
40
0.75
50
248.8027308
51
330
0
ARC
8
0
10
361.7125173
20
-81.5399855
40
1.05
50
68.7879374
51
150
0
LINE
8
0
10
359.3656906
20
-83.5048085
11
360.8031906
21
-81.0149855
0
ARC
8
0
10
358.629569
20
-83.0798085
40
0.85
50
240
51
330
0
LINE
8
0
10
357.988039
20
-83.6909165
11
358.204569
21
-83.8159301
0
ARC
8
0
10
357.863039
20
-83.9074228
40
0.25
50
60
51
105
0
LINE
8
0
10
356.6372499
20
-83.977053
11
357.7983342
21
-83.6659414
0
ARC
8
0
10
356.7019547
20
-84.2185344
40
0.25
50
105
51
150
0
CIRCLE
8
0
10
364.9600308
20
-96.665127
40
1.05
0
LINE
8
0
10
349.6645789
20
-86.9514656
11
348.1270516
21
-84.2883902
0
ARC
8
0
10
347.9105453
20
-84.4133902
40
0.25
50
30
51
75
0
LINE
8
0
10
346.8141658
20
-83.8607971
11
347.9752501
21
-84.1719087
0
ARC
8
0
10
346.749461
20
-84.1022786
40
0.25
50
75
51
101.0360773
0
ARC
8
0
10
346.5580339
20
-83.1207717
40
0.75
50
210
51
281.036079
0
LINE
8
0
10
345.9085149
20
-83.4957717
11
345.3313766
21
-82.4961389
0
ARC
8
0
10
345.1148702
20
-82.6211389
40
0.25
50
30
51
101.0601614
0
ARC
8
0
10
344.9230307
20
-81.6397125
40
0.75
50
208.3301588
51
281.0601522
0
ARC
8
0
10
344.0428031
20
-82.1142641
40
0.25
50
28.3301588
51
30
0
LINE
8
0
10
344.2593094
20
-81.9892641
11
343.4093094
21
-80.5170209
0
ARC
8
0
10
343.1928031
20
-80.6420209
40
0.25
50
30
51
120
0
LINE
8
0
10
343.0678031
20
-80.4255146
11
339.7336053
21
-82.3505146
0
ARC
8
0
10
339.8586053
20
-82.5670209
40
0.25
50
120
51
209.6434574
0
ARC
8
0
10
338.9894853
20
-83.0616221
40
0.75
50
262.9455248
51
29.6434575
0
ARC
8
0
10
338.75
20
-84.9968603
40
1.2
50
82.9455262
51
358.7551808
0
ARC
8
0
10
340.6995398
20
-85.039223
40
0.75
50
89.4805793
51
178.7551808
0
ARC
8
0
10
340.7086053
20
-84.0392641
40
0.25
50
269.4805793
51
300
0
LINE
8
0
10
340.8336053
20
-84.2557704
11
342.5007042
21
-83.2932704
0
ARC
8
0
10
342.8757042
20
-83.9427895
40
0.75
50
30
51
120
0
LINE
8
0
10
343.5252232
20
-83.5677895
11
344.0898615
21
-84.5457717
0
ARC
8
0
10
343.4403425
20
-84.9207717
40
0.75
50
318.963921
51
30
0
ARC
8
0
10
344.1946388
20
-85.5773059
40
0.25
50
138.963921
51
165
0
LINE
8
0
10
343.6420457
20
-86.6736854
11
343.9531573
21
-85.5126011
0
ARC
8
0
10
343.8835272
20
-86.7383902
40
0.25
50
165
51
169.2931441
0
ARC
8
0
10
342.9009366
20
-86.552606
40
0.75
50
246.4198904
51
349.2931447
0
ARC
8
0
10
341.5
20
-89.76
40
2.75
50
66.4050912
51
306.1506399
0
ARC
8
0
10
343.5646859
20
-92.5861408
40
0.75
50
30
51
126.1506399
0
LINE
8
0
10
344.2674773
20
-92.3034113
11
344.2142049
21
-92.2111408
0
ARC
8
0
10
343.6179582
20
-92.6784113
40
0.75
50
288.9125106
51
30
0
ARC
8
0
10
344.25
20
-94.5231397
40
1.2
50
108.9125107
51
311.0871451
0
ARC
8
0
10
345.5320348
20
-95.9924548
40
0.75
50
31.8376761
51
131.10597
0
ARC
8
0
10
346.55149
20
-95.3594374
40
0.45
50
211.8376714
51
300
0
LINE
8
0
10
346.77649
20
-95.7491488
11
347.0579483
21
-95.5866488
0
ARC
8
0
10
347.4329483
20
-96.2361678
40
0.75
50
30
51
120
0
LINE
8
0
10
348.0824673
20
-95.8611678
11
348.4824673
21
-96.5539882
0
ARC
8
0
10
348.6989737
20
-96.4289882
40
0.25
50
210
51
300
0
LINE
8
0
10
348.8239737
20
-96.6454945
11
350.2096143
21
-95.8454945
0
ARC
8
0
10
350.0846143
20
-95.6289882
40
0.25
50
300
51
30
0
LINE
8
0
10
350.3011207
20
-95.5039882
11
349.7405552
21
-94.5330602
0
ARC
8
0
10
350.3900742
20
-94.1580602
40
0.75
50
128.8027308
51
210
0
ARC
8
0
10
349.2624827
20
-92.7550145
40
1.05
50
308.7879374
51
30
0
LINE
8
0
10
348.7343094
20
-89.7401915
11
350.1718094
21
-92.2300145
0
ARC
8
0
10
349.470431
20
-89.3151915
40
0.85
50
120
51
210
0
LINE
8
0
10
349.261961
20
-88.4540562
11
349.045431
21
-88.5790699
0
ARC
8
0
10
349.136961
20
-88.2375499
40
0.25
50
300
51
345
0
LINE
8
0
10
349.6895541
20
-87.1411703
11
349.3784425
21
-88.3022546
0
ARC
8
0
10
349.4480726
20
-87.0764656
40
0.25
50
345
51
30
0
CIRCLE
8
0
10
334.5399692
20
-88.004873
40
1.05
0
LINE
8
0
10
328.1645789
20
-86.9514656
11
326.6270516
21
-84.2883902
0
ARC
8
0
10
326.4105453
20
-84.4133902
40
0.25
50
30
51
75
0
LINE
8
0
10
325.3141658
20
-83.8607971
11
326.4752501
21
-84.1719087
0
ARC
8
0
10
325.249461
20
-84.1022786
40
0.25
50
75
51
101.0360773
0
ARC
8
0
10
325.0580339
20
-83.1207717
40
0.75
50
210
51
281.036079
0
LINE
8
0
10
324.4085149
20
-83.4957717
11
323.8313766
21
-82.4961389
0
ARC
8
0
10
323.6148702
20
-82.6211389
40
0.25
50
30
51
101.0601614
0
ARC
8
0
10
323.4230307
20
-81.6397125
40
0.75
50
208.3301588
51
281.0601522
0
ARC
8
0
10
322.5428031
20
-82.1142641
40
0.25
50
28.3301588
51
30
0
LINE
8
0
10
322.7593094
20
-81.9892641
11
321.9093094
21
-80.5170209
0
ARC
8
0
10
321.6928031
20
-80.6420209
40
0.25
50
30
51
120
0
LINE
8
0
10
321.5678031
20
-80.4255146
11
318.2336053
21
-82.3505146
0
ARC
8
0
10
318.3586053
20
-82.5670209
40
0.25
50
120
51
209.6434574
0
ARC
8
0
10
317.4894853
20
-83.0616221
40
0.75
50
262.9455248
51
29.6434575
0
ARC
8
0
10
317.25
20
-84.9968603
40
1.2
50
82.9455262
51
358.7551808
0
ARC
8
0
10
319.1995398
20
-85.039223
40
0.75
50
89.4805793
51
178.7551808
0
ARC
8
0
10
319.2086053
20
-84.0392641
40
0.25
50
269.4805793
51
300
0
LINE
8
0
10
319.3336053
20
-84.2557704
11
321.0007042
21
-83.2932704
0
ARC
8
0
10
321.3757042
20
-83.9427895
40
0.75
50
30
51
120
0
LINE
8
0
10
322.0252232
20
-83.5677895
11
322.5898615
21
-84.5457717
0
ARC
8
0
10
321.9403425
20
-84.9207717
40
0.75
50
318.963921
51
30
0
ARC
8
0
10
322.6946388
20
-85.5773059
40
0.25
50
138.963921
51
165
0
LINE
8
0
10
322.1420457
20
-86.6736854
11
322.4531573
21
-85.5126011
0
ARC
8
0
10
322.3835272
20
-86.7383902
40
0.25
50
165
51
169.2931441
0
ARC
8
0
10
321.4009366
20
-86.552606
40
0.75
50
246.4198904
51
349.2931447
0
ARC
8
0
10
320
20
-89.76
40
2.75
50
66.4050912
51
306.1506399
0
ARC
8
0
10
322.0646859
20
-92.5861408
40
0.75
50
30
51
126.1506399
0
LINE
8
0
10
322.7674773
20
-92.3034113
11
322.7142049
21
-92.2111408
0
ARC
8
0
10
322.1179582
20
-92.6784113
40
0.75
50
288.9125106
51
30
0
ARC
8
0
10
322.75
20
-94.5231397
40
1.2
50
108.9125107
51
311.0871451
0
ARC
8
0
10
324.0320348
20
-95.9924548
40
0.75
50
31.8376761
51
131.10597
0
ARC
8
0
10
325.05149
20
-95.3594374
40
0.45
50
211.8376714
51
300
0
LINE
8
0
10
325.27649
20
-95.7491488
11
325.5579483
21
-95.5866488
0
ARC
8
0
10
325.9329483
20
-96.2361678
40
0.75
50
30
51
120
0
LINE
8
0
10
326.5824673
20
-95.8611678
11
326.9824673
21
-96.5539882
0
ARC
8
0
10
327.1989737
20
-96.4289882
40
0.25
50
210
51
300
0
LINE
8
0
10
327.3239737
20
-96.6454945
11
328.7096143
21
-95.8454945
0
ARC
8
0
10
328.5846143
20
-95.6289882
40
0.25
50
300
51
30
0
LINE
8
0
10
328.8011207
20
-95.5039882
11
328.2405552
21
-94.5330602
0
ARC
8
0
10
328.8900742
20
-94.1580602
40
0.75
50
128.8027308
51
210
0
ARC
8
0
10
327.7624827
20
-92.7550145
40
1.05
50
308.7879374
51
30
0
LINE
8
0
10
327.2343094
20
-89.7401915
11
328.6718094
21
-92.2300145
0
ARC
8
0
10
327.970431
20
-89.3151915
40
0.85
50
120
51
210
0
LINE
8
0
10
327.761961
20
-88.4540562
11
327.545431
21
-88.5790699
0
ARC
8
0
10
327.636961
20
-88.2375499
40
0.25
50
300
51
345
0
LINE
8
0
10
328.1895541
20
-87.1411703
11
327.8784425
21
-88.3022546
0
ARC
8
0
10
327.9480726
20
-87.0764656
40
0.25
50
345
51
30
0
CIRCLE
8
0
10
313.0399692
20
-88.004873
40
1.05
0
LINE
8
0
10
306.6645789
20
-86.9514656
11
305.1270516
21
-84.2883902
0
ARC
8
0
10
304.9105453
20
-84.4133902
40
0.25
50
30
51
75
0
LINE
8
0
10
303.8141658
20
-83.8607971
11
304.9752501
21
-84.1719087
0
ARC
8
0
10
303.749461
20
-84.1022786
40
0.25
50
75
51
101.0360773
0
ARC
8
0
10
303.5580339
20
-83.1207717
40
0.75
50
210
51
281.036079
0
LINE
8
0
10
302.9085149
20
-83.4957717
11
302.3313766
21
-82.4961389
0
ARC
8
0
10
302.1148702
20
-82.6211389
40
0.25
50
30
51
101.0601614
0
ARC
8
0
10
301.9230307
20
-81.6397125
40
0.75
50
208.3301588
51
281.0601522
0
ARC
8
0
10
301.0428031
20
-82.1142641
40
0.25
50
28.3301588
51
30
0
LINE
8
0
10
301.2593094
20
-81.9892641
11
300.4093094
21
-80.5170209
0
ARC
8
0
10
300.1928031
20
-80.6420209
40
0.25
50
30
51
120
0
LINE
8
0
10
300.0678031
20
-80.4255146
11
296.7336053
21
-82.3505146
0
ARC
8
0
10
296.8586053
20
-82.5670209
40
0.25
50
120
51
209.6434574
0
ARC
8
0
10
295.9894853
20
-83.0616221
40
0.75
50
262.9455248
51
29.6434575
0
ARC
8
0
10
295.75
20
-84.9968603
40
1.2
50
82.9455262
51
358.7551808
0
ARC
8
0
10
297.6995398
20
-85.039223
40
0.75
50
89.4805793
51
178.7551808
0
ARC
8
0
10
297.7086053
20
-84.0392641
40
0.25
50
269.4805793
51
300
0
LINE
8
0
10
297.8336053
20
-84.2557704
11
299.5007042
21
-83.2932704
0
ARC
8
0
10
299.8757042
20
-83.9427895
40
0.75
50
30
51
120
0
LINE
8
0
10
300.5252232
20
-83.5677895
11
301.0898615
21
-84.5457717
0
ARC
8
0
10
300.4403425
20
-84.9207717
40
0.75
50
318.963921
51
30
0
ARC
8
0
10
301.1946388
20
-85.5773059
40
0.25
50
138.963921
51
165
0
LINE
8
0
10
300.6420457
20
-86.6736854
11
300.9531573
21
-85.5126011
0
ARC
8
0
10
300.8835272
20
-86.7383902
40
0.25
50
165
51
169.2931441
0
ARC
8
0
10
299.9009366
20
-86.552606
40
0.75
50
246.4198904
51
349.2931447
0
ARC
8
0
10
298.5
20
-89.76
40
2.75
50
66.4050912
51
306.1506399
0
ARC
8
0
10
300.5646859
20
-92.5861408
40
0.75
50
30
51
126.1506399
0
LINE
8
0
10
301.2674773
20
-92.3034113
11
301.2142049
21
-92.2111408
0
ARC
8
0
10
300.6179582
20
-92.6784113
40
0.75
50
288.9125106
51
30
0
ARC
8
0
10
301.25
20
-94.5231397
40
1.2
50
108.9125107
51
311.0871451
0
ARC
8
0
10
302.5320348
20
-95.9924548
40
0.75
50
31.8376761
51
131.10597
0
ARC
8
0
10
303.55149
20
-95.3594374
40
0.45
50
211.8376714
51
300
0
LINE
8
0
10
303.77649
20
-95.7491488
11
304.0579483
21
-95.5866488
0
ARC
8
0
10
304.4329483
20
-96.2361678
40
0.75
50
30
51
120
0
LINE
8
0
10
305.0824673
20
-95.8611678
11
305.4824673
21
-96.5539882
0
ARC
8
0
10
305.6989737
20
-96.4289882
40
0.25
50
210
51
300
0
LINE
8
0
10
305.8239737
20
-96.6454945
11
307.2096143
21
-95.8454945
0
ARC
8
0
10
307.0846143
20
-95.6289882
40
0.25
50
300
51
30
0
LINE
8
0
10
307.3011207
20
-95.5039882
11
306.7405552
21
-94.5330602
0
ARC
8
0
10
307.3900742
20
-94.1580602
40
0.75
50
128.8027308
51
210
0
ARC
8
0
10
306.2624827
20
-92.7550145
40
1.05
50
308.7879374
51
30
0
LINE
8
0
10
305.7343094
20
-89.7401915
11
307.1718094
21
-92.2300145
0
ARC
8
0
10
306.470431
20
-89.3151915
40
0.85
50
120
51
210
0
LINE
8
0
10
306.261961
20
-88.4540562
11
306.045431
21
-88.5790699
0
ARC
8
0
10
306.136961
20
-88.2375499
40
0.25
50
300
51
345
0
LINE
8
0
10
306.6895541
20
-87.1411703
11
306.3784425
21
-88.3022546
0
ARC
8
0
10
306.4480726
20
-87.0764656
40
0.25
50
345
51
30
0
CIRCLE
8
0
10
291.5399692
20
-88.004873
40
1.05
0
LINE
8
0
10
350.5999727
20
-79.615
11
353.6750273
21
-79.615
0
ARC
8
0
10
353.6750273
20
-79.365
40
0.25
50
270
51
315
0
LINE
8
0
10
354.7017767
20
-78.691804
11
353.851804
21
-79.5417767
0
ARC
8
0
10
354.525
20
-78.5150273
40
0.25
50
315
51
341.0360773
0
ARC
8
0
10
355.4707234
20
-78.84
40
0.75
50
90
51
161.036079
0
LINE
8
0
10
355.4707234
20
-78.09
11
356.625
21
-78.09
0
ARC
8
0
10
356.625
20
-77.84
40
0.25
50
270
51
341.0601614
0
ARC
8
0
10
357.5708599
20
-78.1645753
40
0.75
50
88.3301588
51
161.0601522
0
ARC
8
0
10
357.6
20
-77.165
40
0.25
50
268.3301588
51
270
0
LINE
8
0
10
357.6
20
-77.415
11
359.3
21
-77.415
0
ARC
8
0
10
359.3
20
-77.165
40
0.25
50
270
51
360
0
LINE
8
0
10
359.55
20
-77.165
11
359.55
21
-73.315
0
ARC
8
0
10
359.3
20
-73.315
40
0.25
50
0
51
89.6434574
0
ARC
8
0
10
359.3062228
20
-72.3150194
40
0.75
50
142.9455248
51
269.6434575
0
ARC
8
0
10
357.75
20
-71.14
40
1.2
50
322.9455262
51
598.7551808
0
ARC
8
0
10
356.7385429
20
-72.8071696
40
0.75
50
329.4805793
51
418.7551808
0
ARC
8
0
10
357.6
20
-73.315
40
0.25
50
509.4805793
51
540
0
LINE
8
0
10
357.35
20
-73.315
11
357.35
21
-75.24
0
ARC
8
0
10
356.6
20
-75.24
40
0.75
50
270
51
360
0
LINE
8
0
10
356.6
20
-75.99
11
355.4707234
21
-75.99
0
ARC
8
0
10
355.4707234
20
-75.24
40
0.75
50
198.963921
51
270
0
ARC
8
0
10
354.525
20
-75.5649727
40
0.25
50
378.963921
51
405
0
LINE
8
0
10
353.851804
20
-74.5382233
11
354.7017767
21
-75.388196
0
ARC
8
0
10
353.6750273
20
-74.715
40
0.25
50
45
51
49.2931441
0
ARC
8
0
10
354.3272164
20
-73.9569437
40
0.75
50
126.4198904
51
229.2931447
0
ARC
8
0
10
352.25
20
-71.14
40
2.75
50
306.4050912
51
546.1506399
0
ARC
8
0
10
348.7701473
20
-71.515
40
0.75
50
270
51
366.1506399
0
LINE
8
0
10
348.6636026
20
-72.265
11
348.7701473
21
-72.265
0
ARC
8
0
10
348.6636026
20
-71.515
40
0.75
50
168.9125106
51
270
0
ARC
8
0
10
346.75
20
-71.14
40
1.2
50
348.9125107
51
551.0871451
0
ARC
8
0
10
344.8365184
20
-71.5156172
40
0.75
50
271.8376761
51
371.10597
0
ARC
8
0
10
344.875
20
-72.715
40
0.45
50
91.8376714
51
180
0
LINE
8
0
10
344.425
20
-72.715
11
344.425
21
-73.04
0
ARC
8
0
10
343.675
20
-73.04
40
0.75
50
270
51
360
0
LINE
8
0
10
343.675
20
-73.79
11
342.875
21
-73.79
0
ARC
8
0
10
342.875
20
-74.04
40
0.25
50
90
51
180
0
LINE
8
0
10
342.625
20
-74.04
11
342.625
21
-75.64
0
ARC
8
0
10
342.875
20
-75.64
40
0.25
50
180
51
270
0
LINE
8
0
10
342.875
20
-75.89
11
343.996131
21
-75.89
0
ARC
8
0
10
343.996131
20
-76.64
40
0.75
50
8.8027308
51
90
0
ARC
8
0
10
345.775
20
-76.365
40
1.05
50
188.7879374
51
270
0
LINE
8
0
10
348.65
20
-77.415
11
345.775
21
-77.415
0
ARC
8
0
10
348.65
20
-78.265
40
0.85
50
0
51
90
0
LINE
8
0
10
349.5
20
-78.5150273
11
349.5
21
-78.265
0
ARC
8
0
10
349.75
20
-78.5150273
40
0.25
50
180
51
225
0
LINE
8
0
10
350.423196
20
-79.5417767
11
349.5732233
21
-78.691804
0
ARC
8
0
10
350.5999727
20
-79.365
40
0.25
50
225
51
270
0
CIRCLE
8
0
10
357.25
20
-65.99
40
1.05
0
LINE
8
0
10
337.2645516
20
-76.8064656
11
338.8020789
21
-74.1433902
0
ARC
8
0
10
338.5855726
20
-74.0183902
40
0.25
50
330
51
15
0
LINE
8
0
10
338.5159425
20
-72.7926011
11
338.8270541
21
-73.9536854
0
ARC
8
0
10
338.274461
20
-72.8573059
40
0.25
50
15
51
41.0360773
0
ARC
8
0
10
339.0287573
20
-72.2007717
40
0.75
50
150
51
221.036079
0
LINE
8
0
10
338.3792383
20
-71.8257717
11
338.9563766
21
-70.8261389
0
ARC
8
0
10
338.7398702
20
-70.7011389
40
0.25
50
330
51
41.0601614
0
ARC
8
0
10
339.4938906
20
-70.0442878
40
0.75
50
148.3301588
51
221.0601522
0
ARC
8
0
10
338.6428031
20
-69.5192641
40
0.25
50
328.3301588
51
330
0
LINE
8
0
10
338.8593094
20
-69.6442641
11
339.7093094
21
-68.1720209
0
ARC
8
0
10
339.4928031
20
-68.0470209
40
0.25
50
330
51
60
0
LINE
8
0
10
339.6178031
20
-67.8305146
11
336.2836053
21
-65.9055146
0
ARC
8
0
10
336.1586053
20
-66.1220209
40
0.25
50
60
51
149.6434574
0
ARC
8
0
10
335.2957081
20
-65.6166415
40
0.75
50
202.9455248
51
329.6434575
0
ARC
8
0
10
333.5
20
-66.3768603
40
1.2
50
22.9455262
51
298.7551808
0
ARC
8
0
10
334.4380827
20
-68.0863926
40
0.75
50
29.4805793
51
118.7551808
0
ARC
8
0
10
335.3086053
20
-67.5942641
40
0.25
50
209.4805793
51
240
0
LINE
8
0
10
335.1836053
20
-67.8107704
11
336.8507042
21
-68.7732704
0
ARC
8
0
10
336.4757042
20
-69.4227895
40
0.75
50
330
51
60
0
LINE
8
0
10
337.1252232
20
-69.7977895
11
336.5605849
21
-70.7757717
0
ARC
8
0
10
335.9110659
20
-70.4007717
40
0.75
50
258.963921
51
330
0
ARC
8
0
10
335.7196388
20
-71.3822786
40
0.25
50
78.963921
51
105
0
LINE
8
0
10
334.4938497
20
-71.4519087
11
335.654934
21
-71.1407971
0
ARC
8
0
10
334.5585545
20
-71.6933902
40
0.25
50
105
51
109.2931441
0
ARC
8
0
10
334.228153
20
-70.7495497
40
0.75
50
186.4198904
51
289.2931447
0
ARC
8
0
10
330.75
20
-71.14
40
2.75
50
6.4050912
51
246.1506399
0
ARC
8
0
10
329.3348332
20
-74.3411408
40
0.75
50
330
51
66.1506399
0
LINE
8
0
10
329.9310799
20
-74.8084113
11
329.9843522
21
-74.7161408
0
ARC
8
0
10
329.2815608
20
-74.4334113
40
0.75
50
228.9125106
51
330
0
ARC
8
0
10
328
20
-75.9031397
40
1.2
50
48.9125107
51
251.0871451
0
ARC
8
0
10
327.3685532
20
-77.748072
40
0.75
50
331.8376761
51
71.10597
0
ARC
8
0
10
328.42649
20
-78.3144374
40
0.45
50
151.8376714
51
240
0
LINE
8
0
10
328.20149
20
-78.7041488
11
328.4829483
21
-78.8666488
0
ARC
8
0
10
328.1079483
20
-79.5161678
40
0.75
50
330
51
60
0
LINE
8
0
10
328.7574673
20
-79.8911678
11
328.3574673
21
-80.5839882
0
ARC
8
0
10
328.5739737
20
-80.7089882
40
0.25
50
150
51
240
0
LINE
8
0
10
328.4489737
20
-80.9254945
11
329.8346143
21
-81.7254945
0
ARC
8
0
10
329.9596143
20
-81.5089882
40
0.25
50
240
51
330
0
LINE
8
0
10
330.1761207
20
-81.6339882
11
330.7366862
21
-80.6630602
0
ARC
8
0
10
331.3862052
20
-81.0380602
40
0.75
50
68.8027308
51
150
0
ARC
8
0
10
332.0374827
20
-79.3600145
40
1.05
50
248.7879374
51
330
0
LINE
8
0
10
334.3843094
20
-77.3951915
11
332.9468094
21
-79.8850145
0
ARC
8
0
10
335.120431
20
-77.8201915
40
0.85
50
60
51
150
0
LINE
8
0
10
335.761961
20
-77.2090835
11
335.545431
21
-77.0840699
0
ARC
8
0
10
335.886961
20
-76.9925772
40
0.25
50
240
51
285
0
LINE
8
0
10
337.1127501
20
-76.922947
11
335.9516658
21
-77.2340586
0
ARC
8
0
10
337.0480453
20
-76.6814656
40
0.25
50
285
51
330
0
CIRCLE
8
0
10
328.7899692
20
-64.234873
40
1.05
0
LINE
8
0
10
315.7645516
20
-76.8064656
11
317.3020789
21
-74.1433902
0
ARC
8
0
10
317.0855726
20
-74.0183902
40
0.25
50
330
51
15
0
LINE
8
0
10
317.0159425
20
-72.7926011
11
317.3270541
21
-73.9536854
0
ARC
8
0
10
316.774461
20
-72.8573059
40
0.25
50
15
51
41.0360773
0
ARC
8
0
10
317.5287573
20
-72.2007717
40
0.75
50
150
51
221.036079
0
LINE
8
0
10
316.8792383
20
-71.8257717
11
317.4563766
21
-70.8261389
0
ARC
8
0
10
317.2398702
20
-70.7011389
40
0.25
50
330
51
41.0601614
0
ARC
8
0
10
317.9938906
20
-70.0442878
40
0.75
50
148.3301588
51
221.0601522
0
ARC
8
0
10
317.1428031
20
-69.5192641
40
0.25
50
328.3301588
51
330
0
LINE
8
0
10
317.3593094
20
-69.6442641
11
318.2093094
21
-68.1720209
0
ARC
8
0
10
317.9928031
20
-68.0470209
40
0.25
50
330
51
60
0
LINE
8
0
10
318.1178031
20
-67.8305146
11
314.7836053
21
-65.9055146
0
ARC
8
0
10
314.6586053
20
-66.1220209
40
0.25
50
60
51
149.6434574
0
ARC
8
0
10
313.7957081
20
-65.6166415
40
0.75
50
202.9455248
51
329.6434575
0
ARC
8
0
10
312
20
-66.3768603
40
1.2
50
22.9455262
51
298.7551808
0
ARC
8
0
10
312.9380827
20
-68.0863926
40
0.75
50
29.4805793
51
118.7551808
0
ARC
8
0
10
313.8086053
20
-67.5942641
40
0.25
50
209.4805793
51
240
0
LINE
8
0
10
313.6836053
20
-67.8107704
11
315.3507042
21
-68.7732704
0
ARC
8
0
10
314.9757042
20
-69.4227895
40
0.75
50
330
51
60
0
LINE
8
0
10
315.6252232
20
-69.7977895
11
315.0605849
21
-70.7757717
0
ARC
8
0
10
314.4110659
20
-70.4007717
40
0.75
50
258.963921
51
330
0
ARC
8
0
10
314.2196388
20
-71.3822786
40
0.25
50
78.963921
51
105
0
LINE
8
0
10
312.9938497
20
-71.4519087
11
314.154934
21
-71.1407971
0
ARC
8
0
10
313.0585545
20
-71.6933902
40
0.25
50
105
51
109.2931441
0
ARC
8
0
10
312.728153
20
-70.7495497
40
0.75
50
186.4198904
51
289.2931447
0
ARC
8
0
10
309.25
20
-71.14
40
2.75
50
6.4050912
51
246.1506399
0
ARC
8
0
10
307.8348332
20
-74.3411408
40
0.75
50
330
51
66.1506399
0
LINE
8
0
10
308.4310799
20
-74.8084113
11
308.4843522
21
-74.7161408
0
ARC
8
0
10
307.7815608
20
-74.4334113
40
0.75
50
228.9125106
51
330
0
ARC
8
0
10
306.5
20
-75.9031397
40
1.2
50
48.9125107
51
251.0871451
0
ARC
8
0
10
305.8685532
20
-77.748072
40
0.75
50
331.8376761
51
71.10597
0
ARC
8
0
10
306.92649
20
-78.3144374
40
0.45
50
151.8376714
51
240
0
LINE
8
0
10
306.70149
20
-78.7041488
11
306.9829483
21
-78.8666488
0
ARC
8
0
10
306.6079483
20
-79.5161678
40
0.75
50
330
51
60
0
LINE
8
0
10
307.2574673
20
-79.8911678
11
306.8574673
21
-80.5839882
0
ARC
8
0
10
307.0739737
20
-80.7089882
40
0.25
50
150
51
240
0
LINE
8
0
10
306.9489737
20
-80.9254945
11
308.3346143
21
-81.7254945
0
ARC
8
0
10
308.4596143
20
-81.5089882
40
0.25
50
240
51
330
0
LINE
8
0
10
308.6761207
20
-81.6339882
11
309.2366862
21
-80.6630602
0
ARC
8
0
10
309.8862052
20
-81.0380602
40
0.75
50
68.8027308
51
150
0
ARC
8
0
10
310.5374827
20
-79.3600145
40
1.05
50
248.7879374
51
330
0
LINE
8
0
10
312.8843094
20
-77.3951915
11
311.4468094
21
-79.8850145
0
ARC
8
0
10
313.620431
20
-77.8201915
40
0.85
50
60
51
150
0
LINE
8
0
10
314.261961
20
-77.2090835
11
314.045431
21
-77.0840699
0
ARC
8
0
10
314.386961
20
-76.9925772
40
0.25
50
240
51
285
0
LINE
8
0
10
315.6127501
20
-76.922947
11
314.4516658
21
-77.2340586
0
ARC
8
0
10
315.5480453
20
-76.6814656
40
0.25
50
285
51
330
0
CIRCLE
8
0
10
307.2899692
20
-64.234873
40
1.05
0
LINE
8
0
10
294.2645516
20
-76.8064656
11
295.8020789
21
-74.1433902
0
ARC
8
0
10
295.5855726
20
-74.0183902
40
0.25
50
330
51
15
0
LINE
8
0
10
295.5159425
20
-72.7926011
11
295.8270541
21
-73.9536854
0
ARC
8
0
10
295.274461
20
-72.8573059
40
0.25
50
15
51
41.0360773
0
ARC
8
0
10
296.0287573
20
-72.2007717
40
0.75
50
150
51
221.036079
0
LINE
8
0
10
295.3792383
20
-71.8257717
11
295.9563766
21
-70.8261389
0
ARC
8
0
10
295.7398702
20
-70.7011389
40
0.25
50
330
51
41.0601614
0
ARC
8
0
10
296.4938906
20
-70.0442878
40
0.75
50
148.3301588
51
221.0601522
0
ARC
8
0
10
295.6428031
20
-69.5192641
40
0.25
50
328.3301588
51
330
0
LINE
8
0
10
295.8593094
20
-69.6442641
11
296.7093094
21
-68.1720209
0
ARC
8
0
10
296.4928031
20
-68.0470209
40
0.25
50
330
51
60
0
LINE
8
0
10
296.6178031
20
-67.8305146
11
293.2836053
21
-65.9055146
0
ARC
8
0
10
293.1586053
20
-66.1220209
40
0.25
50
60
51
149.6434574
0
ARC
8
0
10
292.2957081
20
-65.6166415
40
0.75
50
202.9455248
51
329.6434575
0
ARC
8
0
10
290.5
20
-66.3768603
40
1.2
50
22.9455262
51
298.7551808
0
ARC
8
0
10
291.4380827
20
-68.0863926
40
0.75
50
29.4805793
51
118.7551808
0
ARC
8
0
10
292.3086053
20
-67.5942641
40
0.25
50
209.4805793
51
240
0
LINE
8
0
10
292.1836053
20
-67.8107704
11
293.8507042
21
-68.7732704
0
ARC
8
0
10
293.4757042
20
-69.4227895
40
0.75
50
330
51
60
0
LINE
8
0
10
294.1252232
20
-69.7977895
11
293.5605849
21
-70.7757717
0
ARC
8
0
10
292.9110659
20
-70.4007717
40
0.75
50
258.963921
51
330
0
ARC
8
0
10
292.7196388
20
-71.3822786
40
0.25
50
78.963921
51
105
0
LINE
8
0
10
291.4938497
20
-71.4519087
11
292.654934
21
-71.1407971
0
ARC
8
0
10
291.5585545
20
-71.6933902
40
0.25
50
105
51
109.2931441
0
ARC
8
0
10
291.228153
20
-70.7495497
40
0.75
50
186.4198904
51
289.2931447
0
ARC
8
0
10
287.75
20
-71.14
40
2.75
50
6.4050912
51
246.1506399
0
ARC
8
0
10
286.3348332
20
-74.3411408
40
0.75
50
330
51
66.1506399
0
LINE
8
0
10
286.9310799
20
-74.8084113
11
286.9843522
21
-74.7161408
0
ARC
8
0
10
286.2815608
20
-74.4334113
40
0.75
50
228.9125106
51
330
0
ARC
8
0
10
285
20
-75.9031397
40
1.2
50
48.9125107
51
251.0871451
0
ARC
8
0
10
284.3685532
20
-77.748072
40
0.75
50
331.8376761
51
71.10597
0
ARC
8
0
10
285.42649
20
-78.3144374
40
0.45
50
151.8376714
51
240
0
LINE
8
0
10
285.20149
20
-78.7041488
11
285.4829483
21
-78.8666488
0
ARC
8
0
10
285.1079483
20
-79.5161678
40
0.75
50
330
51
60
0
LINE
8
0
10
285.7574673
20
-79.8911678
11
285.3574673
21
-80.5839882
0
ARC
8
0
10
285.5739737
20
-80.7089882
40
0.25
50
150
51
240
0
LINE
8
0
10
285.4489737
20
-80.9254945
11
286.8346143
21
-81.7254945
0
ARC
8
0
10
286.9596143
20
-81.5089882
40
0.25
50
240
51
330
0
LINE
8
0
10
287.1761207
20
-81.6339882
11
287.7366862
21
-80.6630602
0
ARC
8
0
10
288.3862052
20
-81.0380602
40
0.75
50
68.8027308
51
150
0
ARC
8
0
10
289.0374827
20
-79.3600145
40
1.05
50
248.7879374
51
330
0
LINE
8
0
10
291.3843094
20
-77.3951915
11
289.9468094
21
-79.8850145
0
ARC
8
0
10
292.120431
20
-77.8201915
40
0.85
50
60
51
150
0
LINE
8
0
10
292.761961
20
-77.2090835
11
292.545431
21
-77.0840699
0
ARC
8
0
10
292.886961
20
-76.9925772
40
0.25
50
240
51
285
0
LINE
8
0
10
294.1127501
20
-76.922947
11
292.9516658
21
-77.2340586
0
ARC
8
0
10
294.0480453
20
-76.6814656
40
0.25
50
285
51
330
0
CIRCLE
8
0
10
285.7899692
20
-64.234873
40
1.05
0
LINE
8
0
10
321.6500273
20
-118.525
11
318.5749727
21
-118.525
0
ARC
8
0
10
318.5749727
20
-118.775
40
0.25
50
90
51
135
0
LINE
8
0
10
317.5482233
20
-119.448196
11
318.398196
21
-118.5982233
0
ARC
8
0
10
317.725
20
-119.6249727
40
0.25
50
135
51
161.0360773
0
ARC
8
0
10
316.7792766
20
-119.3
40
0.75
50
270
51
341.036079
0
LINE
8
0
10
316.7792766
20
-120.05
11
315.625
21
-120.05
0
ARC
8
0
10
315.625
20
-120.3
40
0.25
50
90
51
161.0601614
0
ARC
8
0
10
314.6791401
20
-119.9754247
40
0.75
50
268.3301588
51
341.0601522
0
ARC
8
0
10
314.65
20
-120.975
40
0.25
50
88.3301588
51
90
0
LINE
8
0
10
314.65
20
-120.725
11
312.95
21
-120.725
0
ARC
8
0
10
312.95
20
-120.975
40
0.25
50
90
51
180
0
LINE
8
0
10
312.7
20
-120.975
11
312.7
21
-124.825
0
ARC
8
0
10
312.95
20
-124.825
40
0.25
50
180
51
269.6434574
0
ARC
8
0
10
312.9437772
20
-125.8249806
40
0.75
50
322.9455248
51
89.6434575
0
ARC
8
0
10
314.5
20
-127
40
1.2
50
142.9455262
51
58.7551808
0
ARC
8
0
10
315.5114571
20
-125.3328304
40
0.75
50
149.4805793
51
238.7551808
0
ARC
8
0
10
314.65
20
-124.825
40
0.25
50
329.4805793
51
0
0
LINE
8
0
10
314.9
20
-124.825
11
314.9
21
-122.9
0
ARC
8
0
10
315.65
20
-122.9
40
0.75
50
90
51
180
0
LINE
8
0
10
315.65
20
-122.15
11
316.7792766
21
-122.15
0
ARC
8
0
10
316.7792766
20
-122.9
40
0.75
50
18.963921
51
90
0
ARC
8
0
10
317.725
20
-122.5750273
40
0.25
50
198.963921
51
225
0
LINE
8
0
10
318.398196
20
-123.6017767
11
317.5482233
21
-122.751804
0
ARC
8
0
10
318.5749727
20
-123.425
40
0.25
50
225
51
229.2931441
0
ARC
8
0
10
317.9227836
20
-124.1830563
40
0.75
50
306.4198904
51
49.2931447
0
ARC
8
0
10
320
20
-127
40
2.75
50
126.4050912
51
6.1506399
0
ARC
8
0
10
323.4798527
20
-126.625
40
0.75
50
90
51
186.1506399
0
LINE
8
0
10
323.5863974
20
-125.875
11
323.4798527
21
-125.875
0
ARC
8
0
10
323.5863974
20
-126.625
40
0.75
50
348.9125106
51
90
0
ARC
8
0
10
325.5
20
-127
40
1.2
50
168.9125107
51
11.0871451
0
ARC
8
0
10
327.4134816
20
-126.6243828
40
0.75
50
91.8376761
51
191.10597
0
ARC
8
0
10
327.375
20
-125.425
40
0.45
50
271.8376714
51
0
0
LINE
8
0
10
327.825
20
-125.425
11
327.825
21
-125.1
0
ARC
8
0
10
328.575
20
-125.1
40
0.75
50
90
51
180
0
LINE
8
0
10
328.575
20
-124.35
11
329.375
21
-124.35
0
ARC
8
0
10
329.375
20
-124.1
40
0.25
50
270
51
0
0
LINE
8
0
10
329.625
20
-124.1
11
329.625
21
-122.5
0
ARC
8
0
10
329.375
20
-122.5
40
0.25
50
0
51
90
0
LINE
8
0
10
329.375
20
-122.25
11
328.253869
21
-122.25
0
ARC
8
0
10
328.253869
20
-121.5
40
0.75
50
188.8027308
51
270
0
ARC
8
0
10
326.475
20
-121.775
40
1.05
50
8.7879374
51
90
0
LINE
8
0
10
323.6
20
-120.725
11
326.475
21
-120.725
0
ARC
8
0
10
323.6
20
-119.875
40
0.85
50
180
51
270
0
LINE
8
0
10
322.75
20
-119.6249727
11
322.75
21
-119.875
0
ARC
8
0
10
322.5
20
-119.6249727
40
0.25
50
0
51
45
0
LINE
8
0
10
321.826804
20
-118.5982233
11
322.6767767
21
-119.448196
0
ARC
8
0
10
321.6500273
20
-118.775
40
0.25
50
45
51
90
0
CIRCLE
8
0
10
315
20
-132.15
40
1.05
0
LINE
8
0
10
275.3499727
20
-176.1791
11
278.4250273
21
-176.1791
0
ARC
8
0
10
278.4250273
20
-175.9291
40
0.25
50
270
51
315
0
LINE
8
0
10
279.4517767
20
-175.255904
11
278.601804
21
-176.1058767
0
ARC
8
0
10
279.275
20
-175.0791273
40
0.25
50
315
51
341.0360773
0
ARC
8
0
10
280.2207234
20
-175.4041
40
0.75
50
90
51
161.036079
0
LINE
8
0
10
280.2207234
20
-174.6541
11
281.375
21
-174.6541
0
ARC
8
0
10
281.375
20
-174.4041
40
0.25
50
270
51
341.0601614
0
ARC
8
0
10
282.3208599
20
-174.7286753
40
0.75
50
88.3301588
51
161.0601522
0
ARC
8
0
10
282.35
20
-173.7291
40
0.25
50
268.3301588
51
270
0
LINE
8
0
10
282.35
20
-173.9791
11
284.05
21
-173.9791
0
ARC
8
0
10
284.05
20
-173.7291
40
0.25
50
270
51
360
0
LINE
8
0
10
284.3
20
-173.7291
11
284.3
21
-169.8791
0
ARC
8
0
10
284.05
20
-169.8791
40
0.25
50
0
51
89.6434574
0
ARC
8
0
10
284.0562228
20
-168.8791194
40
0.75
50
142.9455248
51
269.6434575
0
ARC
8
0
10
282.5
20
-167.7041
40
1.2
50
322.9455262
51
598.7551808
0
ARC
8
0
10
281.4885429
20
-169.3712696
40
0.75
50
329.4805793
51
418.7551808
0
ARC
8
0
10
282.35
20
-169.8791
40
0.25
50
509.4805793
51
540
0
LINE
8
0
10
282.1
20
-169.8791
11
282.1
21
-171.8041
0
ARC
8
0
10
281.35
20
-171.8041
40
0.75
50
270
51
360
0
LINE
8
0
10
281.35
20
-172.5541
11
280.2207234
21
-172.5541
0
ARC
8
0
10
280.2207234
20
-171.8041
40
0.75
50
198.963921
51
270
0
ARC
8
0
10
279.275
20
-172.1290727
40
0.25
50
378.963921
51
405
0
LINE
8
0
10
278.601804
20
-171.1023233
11
279.4517767
21
-171.952296
0
ARC
8
0
10
278.4250273
20
-171.2791
40
0.25
50
45
51
49.2931441
0
ARC
8
0
10
279.0772164
20
-170.5210437
40
0.75
50
126.4198904
51
229.2931447
0
ARC
8
0
10
277
20
-167.7041
40
2.75
50
306.4050912
51
546.1506399
0
ARC
8
0
10
273.5201473
20
-168.0791
40
0.75
50
270
51
366.1506399
0
LINE
8
0
10
273.4136026
20
-168.8291
11
273.5201473
21
-168.8291
0
ARC
8
0
10
273.4136026
20
-168.0791
40
0.75
50
168.9125106
51
270
0
ARC
8
0
10
271.5
20
-167.7041
40
1.2
50
348.9125107
51
551.0871451
0
ARC
8
0
10
269.5865184
20
-168.0797172
40
0.75
50
271.8376761
51
371.10597
0
ARC
8
0
10
269.625
20
-169.2791
40
0.45
50
91.8376714
51
180
0
LINE
8
0
10
269.175
20
-169.2791
11
269.175
21
-169.6041
0
ARC
8
0
10
268.425
20
-169.6041
40
0.75
50
270
51
360
0
LINE
8
0
10
268.425
20
-170.3541
11
267.625
21
-170.3541
0
ARC
8
0
10
267.625
20
-170.6041
40
0.25
50
90
51
180
0
LINE
8
0
10
267.375
20
-170.6041
11
267.375
21
-172.2041
0
ARC
8
0
10
267.625
20
-172.2041
40
0.25
50
180
51
270
0
LINE
8
0
10
267.625
20
-172.4541
11
268.746131
21
-172.4541
0
ARC
8
0
10
268.746131
20
-173.2041
40
0.75
50
8.8027308
51
90
0
ARC
8
0
10
270.525
20
-172.9291
40
1.05
50
188.7879374
51
270
0
LINE
8
0
10
273.4
20
-173.9791
11
270.525
21
-173.9791
0
ARC
8
0
10
273.4
20
-174.8291
40
0.85
50
0
51
90
0
LINE
8
0
10
274.25
20
-175.0791273
11
274.25
21
-174.8291
0
ARC
8
0
10
274.5
20
-175.0791273
40
0.25
50
180
51
225
0
LINE
8
0
10
275.173196
20
-176.1058767
11
274.3232233
21
-175.255904
0
ARC
8
0
10
275.3499727
20
-175.9291
40
0.25
50
225
51
270
0
CIRCLE
8
0
10
282
20
-162.5541
40
1.05
0
LINE
8
0
10
245.11
20
-96.7612833
11
248
21
-96.7612833
0
LINE
8
0
10
260
20
-96.7612833
11
262.89
21
-96.7612833
0
LINE
8
0
10
263.43
20
-96.2212833
11
263.43
21
-63.2012833
0
LINE
8
0
10
262.89
20
-62.6612833
11
245.11
21
-62.6612833
0
LINE
8
0
10
244.57
20
-63.2012833
11
244.57
21
-96.2212833
0
ARC
8
0
10
262.89
20
-96.2212833
40
0.54
50
270
51
0
0
ARC
8
0
10
262.89
20
-63.2012833
40
0.54
50
0
51
90
0
ARC
8
0
10
245.11
20
-63.2012833
40
0.54
50
90
51
180
0
ARC
8
0
10
245.11
20
-96.2212833
40
0.54
50
180
51
270
0
LINE
8
0
10
248.54
20
-99.7212833
11
259.46
21
-99.7212833
0
LINE
8
0
10
260
20
-99.1812833
11
260
21
-96.7612833
0
LINE
8
0
10
248
20
-96.7612833
11
248
21
-99.1812833
0
ARC
8
0
10
259.46
20
-99.1812833
40
0.54
50
270
51
0
0
ARC
8
0
10
248.54
20
-99.1812833
40
0.54
50
180
51
270
0
ENDSEC
0
EOF