0
SECTION
2
HEADER
9
$INSUNITS
70
4
0
ENDSEC
0
SECTION
2
TABLES
0
TABLE
2
LTYPE
0
LTYPE
72
65
70
64
2
CONTINUOUS
3
______
73
0
40
0
0
ENDTAB
0
TABLE
2
LAYER
0
ENDTAB
0
ENDSEC
0
SECTION
2
ENTITIES
0
LINE
8
0
10
239.7100301
20
-175.0885807
11
232.6350291
21
-179.1734273
0
LINE
8
0
10
229.3649715
20
-179.1734261
11
221.8849702
21
-174.8547402
0
LINE
8
0
10
189.6349702
20
-156.2347402
11
207.8649702
21
-166.7600922
0
LINE
8
0
10
188
20
-153.4028543
11
188
21
-141.3012457
0
LINE
8
0
10
186.3650298
20
-138.4693598
11
178.8849702
21
-134.1506402
0
LINE
8
0
10
135.8849702
20
-109.3239735
11
164.8649702
21
-126.0559922
0
LINE
8
0
10
134.25
20
-106.4920876
11
134.25
21
-85.4412458
0
LINE
8
0
10
146.6349702
20
-63.9893599
11
164.8649702
21
-53.4640079
0
LINE
8
0
10
168.1350298
20
-53.4640079
11
186.3649702
21
-63.9893254
0
LINE
8
0
10
189.6350298
20
-63.9893254
11
207.8649708
21
-53.4640075
0
LINE
8
0
10
211.1350295
20
-53.4640069
11
223.3131607
21
-60.4952198
0
LINE
8
0
10
284.6868393
20
-60.4952198
11
296.8649705
21
-53.4640069
0
LINE
8
0
10
300.1350292
20
-53.4640075
11
318.3649702
21
-63.9893254
0
LINE
8
0
10
321.6350298
20
-63.9893254
11
339.8649702
21
-53.4640079
0
LINE
8
0
10
343.1350298
20
-53.4640079
11
361.3650298
21
-63.9893599
0
LINE
8
0
10
373.75
20
-85.4412458
11
373.75
21
-106.4920876
0
LINE
8
0
10
343.1350298
20
-126.0559922
11
372.1150298
21
-109.3239735
0
LINE
8
0
10
329.1150298
20
-134.1506402
11
321.6349702
21
-138.4693598
0
LINE
8
0
10
320
20
-141.3012457
11
320
21
-153.4028543
0
LINE
8
0
10
300.1350298
20
-166.7600922
11
318.3650298
21
-156.2347402
0
LINE
8
0
10
286.1150298
20
-174.8547402
11
278.6350285
21
-179.1734261
0
LINE
8
0
10
275.3649709
20
-179.1734273
11
268.2899699
21
-175.0885807
0
LINE
8
0
10
283.0518104
20
-60.9333333
11
277.27
21
-60.9333333
0
LINE
8
0
10
230.73
20
-60.9333333
11
224.9481896
21
-60.9333333
0
ARC
8
0
10
231.0000013
20
-176.3415403
40
3.27
50
239.9993965
51
300.0005622
0
ARC
8
0
10
191.27
20
-153.4028543
40
3.27
50
180
51
239.9993965
0
ARC
8
0
10
184.73
20
-141.3012457
40
3.27
50
0
51
59.9993965
0
ARC
8
0
10
137.52
20
-106.4920876
40
3.27
50
180
51
239.9993965
0
ARC
8
0
10
166.5
20
-56.2958938
40
3.27
50
59.9993965
51
120.0006035
0
ARC
8
0
10
188
20
-61.1574395
40
3.27
50
239.9993965
51
300.0006035
0
ARC
8
0
10
209.5000007
20
-56.2958934
40
3.27
50
59.9994171
51
120.0006035
0
ARC
8
0
10
224.9481896
20
-57.6633333
40
3.27
50
239.9994171
51
270
0
ARC
8
0
10
283.0518104
20
-57.6633333
40
3.27
50
270
51
300.0005829
0
ARC
8
0
10
298.4999993
20
-56.2958934
40
3.27
50
59.9993965
51
120.0005829
0
ARC
8
0
10
320
20
-61.1574395
40
3.27
50
239.9993965
51
300.0006035
0
ARC
8
0
10
341.5
20
-56.2958938
40
3.27
50
59.9993965
51
120.0006035
0
ARC
8
0
10
370.48
20
-106.4920876
40
3.27
50
300.0006035
51
0
0
ARC
8
0
10
323.27
20
-141.3012457
40
3.27
50
120.0006035
51
180
0
ARC
8
0
10
316.73
20
-153.4028543
40
3.27
50
300.0006035
51
0
0
ARC
8
0
10
276.9999987
20
-176.3415403
40
3.27
50
239.9994378
51
300.0006035
0
LINE
8
0
10
145
20
-66.8212458
11
145
21
-75.4587543
0
LINE
8
0
10
143.3650298
20
-78.2906402
11
135.8849702
21
-82.6093599
0
LINE
8
0
10
372.1150298
20
-82.6093599
11
364.6349702
21
-78.2906402
0
LINE
8
0
10
363
20
-75.4587543
11
363
21
-66.8212458
0
LINE
8
0
10
168.1350298
20
-126.0559922
11
172.3449702
21
-123.6253227
0
LINE
8
0
10
177.25
20
-126.4572086
11
177.25
21
-131.3187543
0
LINE
8
0
10
211.1350298
20
-166.7600922
11
215.3449702
21
-164.3294227
0
LINE
8
0
10
220.25
20
-167.1613086
11
220.25
21
-172.0228543
0
LINE
8
0
10
330.75
20
-131.3187543
11
330.75
21
-126.4572086
0
LINE
8
0
10
335.6550298
20
-123.6253227
11
339.8649702
21
-126.0559922
0
LINE
8
0
10
287.75
20
-172.0228543
11
287.75
21
-167.1613086
0
LINE
8
0
10
292.6550298
20
-164.3294227
11
296.8649702
21
-166.7600922
0
ARC
8
0
10
223.52
20
-172.0228543
40
3.27
50
180
51
239.9993965
0
ARC
8
0
10
216.98
20
-167.1613086
40
3.27
50
0
51
120.0006035
0
ARC
8
0
10
209.5
20
-163.9282063
40
3.27
50
239.9993965
51
300.0006035
0
ARC
8
0
10
180.52
20
-131.3187543
40
3.27
50
180
51
239.9993965
0
ARC
8
0
10
173.98
20
-126.4572086
40
3.27
50
0
51
120.0006035
0
ARC
8
0
10
166.5
20
-123.2241063
40
3.27
50
239.9993965
51
300.0006035
0
ARC
8
0
10
137.52
20
-85.4412458
40
3.27
50
120.0006035
51
180
0
ARC
8
0
10
141.73
20
-75.4587543
40
3.27
50
300.0006035
51
0
0
ARC
8
0
10
148.27
20
-66.8212458
40
3.27
50
120.0006035
51
180
0
ARC
8
0
10
359.73
20
-66.8212458
40
3.27
50
0
51
59.9993965
0
ARC
8
0
10
366.27
20
-75.4587543
40
3.27
50
180
51
239.9993965
0
ARC
8
0
10
370.48
20
-85.4412458
40
3.27
50
0
51
59.9993965
0
ARC
8
0
10
341.5
20
-123.2241063
40
3.27
50
239.9993965
51
300.0006035
0
ARC
8
0
10
334.02
20
-126.4572086
40
3.27
50
59.9993965
51
180
0
ARC
8
0
10
327.48
20
-131.3187543
40
3.27
50
300.0006035
51
0
0
ARC
8
0
10
298.5
20
-163.9282063
40
3.27
50
239.9993965
51
300.0006035
0
ARC
8
0
10
291.02
20
-167.1613086
40
3.27
50
59.9993965
51
180
0
ARC
8
0
10
284.48
20
-172.0228543
40
3.27
50
300.0006035
51
0
0
LINE
8
0
10
241.48
20
-172.0228681
11
241.48
21
-163.6971128
0
LINE
8
0
10
239.7100323
20
-160.6314015
11
232.4999677
21
-156.4685674
0
LINE
8
0
10
230.73
20
-153.4028561
11
230.73
21
-128.8879124
0
LINE
8
0
10
232.4999702
20
-125.8221997
11
252.2299702
21
-114.4308228
0
LINE
8
0
10
255.7700298
20
-114.4308228
11
275.5000298
21
-125.8221997
0
LINE
8
0
10
277.27
20
-128.8879124
11
277.27
21
-153.4028561
0
LINE
8
0
10
275.5000323
20
-156.4685674
11
268.2899677
21
-160.6314015
0
LINE
8
0
10
266.52
20
-163.6971128
11
266.52
21
-172.0228681
0
ARC
8
0
10
237.94
20
-163.6971128
40
3.54
50
0
51
59.9993965
0
ARC
8
0
10
234.27
20
-153.4028561
40
3.54
50
180
51
239.9993965
0
ARC
8
0
10
234.27
20
-128.8879124
40
3.54
50
120.0005573
51
180
0
ARC
8
0
10
254
20
-117.4965355
40
3.54
50
59.9994427
51
120.0005573
0
ARC
8
0
10
273.73
20
-128.8879124
40
3.54
50
0
51
59.9994427
0
ARC
8
0
10
273.73
20
-153.4028561
40
3.54
50
300.0006035
51
0
0
ARC
8
0
10
270.06
20
-163.6971128
40
3.54
50
120.0006035
51
180
0
ARC
8
0
10
270.06
20
-172.0228681
40
3.54
50
180
51
239.9994378
0
ARC
8
0
10
237.94
20
-172.0228681
40
3.54
50
300.0005622
51
0
0
LINE
8
0
10
161.75
20
-101.38
11
149.75
21
-101.38
0
LINE
8
0
10
148.75
20
-102.38
11
148.75
21
-114.38
0
LINE
8
0
10
149.75
20
-115.38
11
161.75
21
-115.38
0
LINE
8
0
10
162.75
20
-114.38
11
162.75
21
-102.38
0
ARC
8
0
10
149.75
20
-102.38
40
1
50
90
51
180
0
ARC
8
0
10
149.75
20
-114.38
40
1
50
180
51
270
0
ARC
8
0
10
161.75
20
-114.38
40
1
50
270
51
0
0
ARC
8
0
10
161.75
20
-102.38
40
1
50
0
51
90
0
LINE
8
0
10
183.25
20
-101.38
11
171.25
21
-101.38
0
LINE
8
0
10
170.25
20
-102.38
11
170.25
21
-114.38
0
LINE
8
0
10
171.25
20
-115.38
11
183.25
21
-115.38
0
LINE
8
0
10
184.25
20
-114.38
11
184.25
21
-102.38
0
ARC
8
0
10
171.25
20
-102.38
40
1
50
90
51
180
0
ARC
8
0
10
171.25
20
-114.38
40
1
50
180
51
270
0
ARC
8
0
10
183.25
20
-114.38
40
1
50
270
51
0
0
ARC
8
0
10
183.25
20
-102.38
40
1
50
0
51
90
0
LINE
8
0
10
204.75
20
-101.38
11
192.75
21
-101.38
0
LINE
8
0
10
191.75
20
-102.38
11
191.75
21
-114.38
0
LINE
8
0
10
192.75
20
-115.38
11
204.75
21
-115.38
0
LINE
8
0
10
205.75
20
-114.38
11
205.75
21
-102.38
0
ARC
8
0
10
192.75
20
-102.38
40
1
50
90
51
180
0
ARC
8
0
10
192.75
20
-114.38
40
1
50
180
51
270
0
ARC
8
0
10
204.75
20
-114.38
40
1
50
270
51
0
0
ARC
8
0
10
204.75
20
-102.38
40
1
50
0
51
90
0
LINE
8
0
10
154.0621778
20
-91.4561524
11
148.0621778
21
-81.0638476
0
LINE
8
0
10
146.6961524
20
-80.6978222
11
136.3038476
21
-86.6978222
0
LINE
8
0
10
135.9378222
20
-88.0638476
11
141.9378222
21
-98.4561524
0
LINE
8
0
10
143.3038476
20
-98.8221778
11
153.6961524
21
-92.8221778
0
ARC
8
0
10
147.1961524
20
-81.5638476
40
1
50
30
51
120
0
ARC
8
0
10
136.8038476
20
-87.5638476
40
1
50
120
51
210
0
ARC
8
0
10
142.8038476
20
-97.9561524
40
1
50
210
51
300
0
ARC
8
0
10
153.1961524
20
-91.9561524
40
1
50
300
51
30
0
LINE
8
0
10
163.4378222
20
-81.0638476
11
157.4378222
21
-91.4561524
0
LINE
8
0
10
157.8038476
20
-92.8221778
11
168.1961524
21
-98.8221778
0
LINE
8
0
10
169.5621778
20
-98.4561524
11
175.5621778
21
-88.0638476
0
LINE
8
0
10
175.1961524
20
-86.6978222
11
164.8038476
21
-80.6978222
0
ARC
8
0
10
158.3038476
20
-91.9561524
40
1
50
150
51
240
0
ARC
8
0
10
168.6961524
20
-97.9561524
40
1
50
240
51
330
0
ARC
8
0
10
174.6961524
20
-87.5638476
40
1
50
330
51
60
0
ARC
8
0
10
164.3038476
20
-81.5638476
40
1
50
60
51
150
0
LINE
8
0
10
184.9378222
20
-81.0638476
11
178.9378222
21
-91.4561524
0
LINE
8
0
10
179.3038476
20
-92.8221778
11
189.6961524
21
-98.8221778
0
LINE
8
0
10
191.0621778
20
-98.4561524
11
197.0621778
21
-88.0638476
0
LINE
8
0
10
196.6961524
20
-86.6978222
11
186.3038476
21
-80.6978222
0
ARC
8
0
10
179.8038476
20
-91.9561524
40
1
50
150
51
240
0
ARC
8
0
10
190.1961524
20
-97.9561524
40
1
50
240
51
330
0
ARC
8
0
10
196.1961524
20
-87.5638476
40
1
50
330
51
60
0
ARC
8
0
10
185.8038476
20
-81.5638476
40
1
50
60
51
150
0
LINE
8
0
10
206.4378222
20
-81.0638476
11
200.4378222
21
-91.4561524
0
LINE
8
0
10
200.8038476
20
-92.8221778
11
211.1961524
21
-98.8221778
0
LINE
8
0
10
212.5621778
20
-98.4561524
11
218.5621778
21
-88.0638476
0
LINE
8
0
10
218.1961524
20
-86.6978222
11
207.8038476
21
-80.6978222
0
ARC
8
0
10
201.3038476
20
-91.9561524
40
1
50
150
51
240
0
ARC
8
0
10
211.6961524
20
-97.9561524
40
1
50
240
51
330
0
ARC
8
0
10
217.6961524
20
-87.5638476
40
1
50
330
51
60
0
ARC
8
0
10
207.3038476
20
-81.5638476
40
1
50
60
51
150
0
LINE
8
0
10
149.75
20
-78.14
11
161.75
21
-78.14
0
LINE
8
0
10
162.75
20
-77.14
11
162.75
21
-65.14
0
LINE
8
0
10
161.75
20
-64.14
11
149.75
21
-64.14
0
LINE
8
0
10
148.75
20
-65.14
11
148.75
21
-77.14
0
ARC
8
0
10
161.75
20
-77.14
40
1
50
270
51
0
0
ARC
8
0
10
161.75
20
-65.14
40
1
50
0
51
90
0
ARC
8
0
10
149.75
20
-65.14
40
1
50
90
51
180
0
ARC
8
0
10
149.75
20
-77.14
40
1
50
180
51
270
0
LINE
8
0
10
168.1878222
20
-69.4438476
11
174.1878222
21
-79.8361524
0
LINE
8
0
10
175.5538476
20
-80.2021778
11
185.9461524
21
-74.2021778
0
LINE
8
0
10
186.3121778
20
-72.8361524
11
180.3121778
21
-62.4438476
0
LINE
8
0
10
178.9461524
20
-62.0778222
11
168.5538476
21
-68.0778222
0
ARC
8
0
10
175.0538476
20
-79.3361524
40
1
50
210
51
300
0
ARC
8
0
10
185.4461524
20
-73.3361524
40
1
50
300
51
30
0
ARC
8
0
10
179.4461524
20
-62.9438476
40
1
50
30
51
120
0
ARC
8
0
10
169.0538476
20
-68.9438476
40
1
50
120
51
210
0
LINE
8
0
10
189.6878222
20
-69.4438476
11
195.6878222
21
-79.8361524
0
LINE
8
0
10
197.0538476
20
-80.2021778
11
207.4461524
21
-74.2021778
0
LINE
8
0
10
207.8121778
20
-72.8361524
11
201.8121778
21
-62.4438476
0
LINE
8
0
10
200.4461524
20
-62.0778222
11
190.0538476
21
-68.0778222
0
ARC
8
0
10
196.5538476
20
-79.3361524
40
1
50
210
51
300
0
ARC
8
0
10
206.9461524
20
-73.3361524
40
1
50
300
51
30
0
ARC
8
0
10
200.9461524
20
-62.9438476
40
1
50
30
51
120
0
ARC
8
0
10
190.5538476
20
-68.9438476
40
1
50
120
51
210
0
LINE
8
0
10
211.1878222
20
-69.4438476
11
217.1878222
21
-79.8361524
0
LINE
8
0
10
218.5538476
20
-80.2021778
11
228.9461524
21
-74.2021778
0
LINE
8
0
10
229.3121778
20
-72.8361524
11
223.3121778
21
-62.4438476
0
LINE
8
0
10
221.9461524
20
-62.0778222
11
211.5538476
21
-68.0778222
0
ARC
8
0
10
218.0538476
20
-79.3361524
40
1
50
210
51
300
0
ARC
8
0
10
228.4461524
20
-73.3361524
40
1
50
300
51
30
0
ARC
8
0
10
222.4461524
20
-62.9438476
40
1
50
30
51
120
0
ARC
8
0
10
212.0538476
20
-68.9438476
40
1
50
120
51
210
0
LINE
8
0
10
194
20
-120
11
182
21
-120
0
LINE
8
0
10
181
20
-121
11
181
21
-133
0
LINE
8
0
10
182
20
-134
11
194
21
-134
0
LINE
8
0
10
195
20
-133
11
195
21
-121
0
ARC
8
0
10
182
20
-121
40
1
50
90
51
180
0
ARC
8
0
10
182
20
-133
40
1
50
180
51
270
0
ARC
8
0
10
194
20
-133
40
1
50
270
51
0
0
ARC
8
0
10
194
20
-121
40
1
50
0
51
90
0
LINE
8
0
10
225
20
-174.7041
11
237
21
-174.7041
0
LINE
8
0
10
238
20
-173.7041
11
238
21
-161.7041
0
LINE
8
0
10
237
20
-160.7041
11
225
21
-160.7041
0
LINE
8
0
10
224
20
-161.7041
11
224
21
-173.7041
0
ARC
8
0
10
237
20
-173.7041
40
1
50
270
51
0
0
ARC
8
0
10
237
20
-161.7041
40
1
50
0
51
90
0
ARC
8
0
10
225
20
-161.7041
40
1
50
90
51
180
0
ARC
8
0
10
225
20
-173.7041
40
1
50
180
51
270
0
LINE
8
0
10
358.25
20
-101.38
11
346.25
21
-101.38
0
LINE
8
0
10
345.25
20
-102.38
11
345.25
21
-114.38
0
LINE
8
0
10
346.25
20
-115.38
11
358.25
21
-115.38
0
LINE
8
0
10
359.25
20
-114.38
11
359.25
21
-102.38
0
ARC
8
0
10
346.25
20
-102.38
40
1
50
90
51
180
0
ARC
8
0
10
346.25
20
-114.38
40
1
50
180
51
270
0
ARC
8
0
10
358.25
20
-114.38
40
1
50
270
51
0
0
ARC
8
0
10
358.25
20
-102.38
40
1
50
0
51
90
0
LINE
8
0
10
336.75
20
-101.38
11
324.75
21
-101.38
0
LINE
8
0
10
323.75
20
-102.38
11
323.75
21
-114.38
0
LINE
8
0
10
324.75
20
-115.38
11
336.75
21
-115.38
0
LINE
8
0
10
337.75
20
-114.38
11
337.75
21
-102.38
0
ARC
8
0
10
324.75
20
-102.38
40
1
50
90
51
180
0
ARC
8
0
10
324.75
20
-114.38
40
1
50
180
51
270
0
ARC
8
0
10
336.75
20
-114.38
40
1
50
270
51
0
0
ARC
8
0
10
336.75
20
-102.38
40
1
50
0
51
90
0
LINE
8
0
10
315.25
20
-101.38
11
303.25
21
-101.38
0
LINE
8
0
10
302.25
20
-102.38
11
302.25
21
-114.38
0
LINE
8
0
10
303.25
20
-115.38
11
315.25
21
-115.38
0
LINE
8
0
10
316.25
20
-114.38
11
316.25
21
-102.38
0
ARC
8
0
10
303.25
20
-102.38
40
1
50
90
51
180
0
ARC
8
0
10
303.25
20
-114.38
40
1
50
180
51
270
0
ARC
8
0
10
315.25
20
-114.38
40
1
50
270
51
0
0
ARC
8
0
10
315.25
20
-102.38
40
1
50
0
51
90
0
LINE
8
0
10
359.9378222
20
-81.0638476
11
353.9378222
21
-91.4561524
0
LINE
8
0
10
354.3038476
20
-92.8221778
11
364.6961524
21
-98.8221778
0
LINE
8
0
10
366.0621778
20
-98.4561524
11
372.0621778
21
-88.0638476
0
LINE
8
0
10
371.6961524
20
-86.6978222
11
361.3038476
21
-80.6978222
0
ARC
8
0
10
354.8038476
20
-91.9561524
40
1
50
150
51
240
0
ARC
8
0
10
365.1961524
20
-97.9561524
40
1
50
240
51
330
0
ARC
8
0
10
371.1961524
20
-87.5638476
40
1
50
330
51
60
0
ARC
8
0
10
360.8038476
20
-81.5638476
40
1
50
60
51
150
0
LINE
8
0
10
350.5621778
20
-91.4561524
11
344.5621778
21
-81.0638476
0
LINE
8
0
10
343.1961524
20
-80.6978222
11
332.8038476
21
-86.6978222
0
LINE
8
0
10
332.4378222
20
-88.0638476
11
338.4378222
21
-98.4561524
0
LINE
8
0
10
339.8038476
20
-98.8221778
11
350.1961524
21
-92.8221778
0
ARC
8
0
10
343.6961524
20
-81.5638476
40
1
50
30
51
120
0
ARC
8
0
10
333.3038476
20
-87.5638476
40
1
50
120
51
210
0
ARC
8
0
10
339.3038476
20
-97.9561524
40
1
50
210
51
300
0
ARC
8
0
10
349.6961524
20
-91.9561524
40
1
50
300
51
30
0
LINE
8
0
10
329.0621778
20
-91.4561524
11
323.0621778
21
-81.0638476
0
LINE
8
0
10
321.6961524
20
-80.6978222
11
311.3038476
21
-86.6978222
0
LINE
8
0
10
310.9378222
20
-88.0638476
11
316.9378222
21
-98.4561524
0
LINE
8
0
10
318.3038476
20
-98.8221778
11
328.6961524
21
-92.8221778
0
ARC
8
0
10
322.1961524
20
-81.5638476
40
1
50
30
51
120
0
ARC
8
0
10
311.8038476
20
-87.5638476
40
1
50
120
51
210
0
ARC
8
0
10
317.8038476
20
-97.9561524
40
1
50
210
51
300
0
ARC
8
0
10
328.1961524
20
-91.9561524
40
1
50
300
51
30
0
LINE
8
0
10
307.5621778
20
-91.4561524
11
301.5621778
21
-81.0638476
0
LINE
8
0
10
300.1961524
20
-80.6978222
11
289.8038476
21
-86.6978222
0
LINE
8
0
10
289.4378222
20
-88.0638476
11
295.4378222
21
-98.4561524
0
LINE
8
0
10
296.8038476
20
-98.8221778
11
307.1961524
21
-92.8221778
0
ARC
8
0
10
300.6961524
20
-81.5638476
40
1
50
30
51
120
0
ARC
8
0
10
290.3038476
20
-87.5638476
40
1
50
120
51
210
0
ARC
8
0
10
296.3038476
20
-97.9561524
40
1
50
210
51
300
0
ARC
8
0
10
306.6961524
20
-91.9561524
40
1
50
300
51
30
0
LINE
8
0
10
346.25
20
-78.14
11
358.25
21
-78.14
0
LINE
8
0
10
359.25
20
-77.14
11
359.25
21
-65.14
0
LINE
8
0
10
358.25
20
-64.14
11
346.25
21
-64.14
0
LINE
8
0
10
345.25
20
-65.14
11
345.25
21
-77.14
0
ARC
8
0
10
358.25
20
-77.14
40
1
50
270
51
0
0
ARC
8
0
10
358.25
20
-65.14
40
1
50
0
51
90
0
ARC
8
0
10
346.25
20
-65.14
40
1
50
90
51
180
0
ARC
8
0
10
346.25
20
-77.14
40
1
50
180
51
270
0
LINE
8
0
10
333.8121778
20
-79.8361524
11
339.8121778
21
-69.4438476
0
LINE
8
0
10
339.4461524
20
-68.0778222
11
329.0538476
21
-62.0778222
0
LINE
8
0
10
327.6878222
20
-62.4438476
11
321.6878222
21
-72.8361524
0
LINE
8
0
10
322.0538476
20
-74.2021778
11
332.4461524
21
-80.2021778
0
ARC
8
0
10
338.9461524
20
-68.9438476
40
1
50
330
51
60
0
ARC
8
0
10
328.5538476
20
-62.9438476
40
1
50
60
51
150
0
ARC
8
0
10
322.5538476
20
-73.3361524
40
1
50
150
51
240
0
ARC
8
0
10
332.9461524
20
-79.3361524
40
1
50
240
51
330
0
LINE
8
0
10
312.3121778
20
-79.8361524
11
318.3121778
21
-69.4438476
0
LINE
8
0
10
317.9461524
20
-68.0778222
11
307.5538476
21
-62.0778222
0
LINE
8
0
10
306.1878222
20
-62.4438476
11
300.1878222
21
-72.8361524
0
LINE
8
0
10
300.5538476
20
-74.2021778
11
310.9461524
21
-80.2021778
0
ARC
8
0
10
317.4461524
20
-68.9438476
40
1
50
330
51
60
0
ARC
8
0
10
307.0538476
20
-62.9438476
40
1
50
60
51
150
0
ARC
8
0
10
301.0538476
20
-73.3361524
40
1
50
150
51
240
0
ARC
8
0
10
311.4461524
20
-79.3361524
40
1
50
240
51
330
0
LINE
8
0
10
290.8121778
20
-79.8361524
11
296.8121778
21
-69.4438476
0
LINE
8
0
10
296.4461524
20
-68.0778222
11
286.0538476
21
-62.0778222
0
LINE
8
0
10
284.6878222
20
-62.4438476
11
278.6878222
21
-72.8361524
0
LINE
8
0
10
279.0538476
20
-74.2021778
11
289.4461524
21
-80.2021778
0
ARC
8
0
10
295.9461524
20
-68.9438476
40
1
50
330
51
60
0
ARC
8
0
10
285.5538476
20
-62.9438476
40
1
50
60
51
150
0
ARC
8
0
10
279.5538476
20
-73.3361524
40
1
50
150
51
240
0
ARC
8
0
10
289.9461524
20
-79.3361524
40
1
50
240
51
330
0
LINE
8
0
10
326
20
-120
11
314
21
-120
0
LINE
8
0
10
313
20
-121
11
313
21
-133
0
LINE
8
0
10
314
20
-134
11
326
21
-134
0
LINE
8
0
10
327
20
-133
11
327
21
-121
0
ARC
8
0
10
314
20
-121
40
1
50
90
51
180
0
ARC
8
0
10
314
20
-133
40
1
50
180
51
270
0
ARC
8
0
10
326
20
-133
40
1
50
270
51
0
0
ARC
8
0
10
326
20
-121
40
1
50
0
51
90
0
LINE
8
0
10
271
20
-174.7041
11
283
21
-174.7041
0
LINE
8
0
10
284
20
-173.7041
11
284
21
-161.7041
0
LINE
8
0
10
283
20
-160.7041
11
271
21
-160.7041
0
LINE
8
0
10
270
20
-161.7041
11
270
21
-173.7041
0
ARC
8
0
10
283
20
-173.7041
40
1
50
270
51
0
0
ARC
8
0
10
283
20
-161.7041
40
1
50
0
51
90
0
ARC
8
0
10
271
20
-161.7041
40
1
50
90
51
180
0
ARC
8
0
10
271
20
-173.7041
40
1
50
180
51
270
0
LINE
8
0
10
233.73
20
-66.9333333
11
244.57
21
-66.9333333
0
LINE
8
0
10
263.43
20
-66.9333333
11
274.27
21
-66.9333333
0
LINE
8
0
10
277.27
20
-63.9333333
11
277.27
21
-60.9333333
0
LINE
8
0
10
230.73
20
-60.9333333
11
230.73
21
-63.9333333
0
ARC
8
0
10
274.27
20
-63.9333333
40
3
50
270
51
0
0
ARC
8
0
10
233.73
20
-63.9333333
40
3
50
180
51
270
0
LINE
8
0
10
245.11
20
-94.4933333
11
247.15
21
-94.4933333
0
LINE
8
0
10
260.85
20
-94.4933333
11
262.89
21
-94.4933333
0
LINE
8
0
10
263.43
20
-93.9533333
11
263.43
21
-66.9333333
0
LINE
8
0
10
244.57
20
-66.9333333
11
244.57
21
-93.9533333
0
ARC
8
0
10
262.89
20
-93.9533333
40
0.54
50
270
51
0
0
ARC
8
0
10
245.11
20
-93.9533333
40
0.54
50
180
51
270
0
LINE
8
0
10
247.69
20
-103.9533333
11
260.31
21
-103.9533333
0
LINE
8
0
10
260.85
20
-103.4133333
11
260.85
21
-94.4933333
0
LINE
8
0
10
247.15
20
-94.4933333
11
247.15
21
-103.4133333
0
ARC
8
0
10
260.31
20
-103.4133333
40
0.54
50
270
51
0
0
ARC
8
0
10
247.69
20
-103.4133333
40
0.54
50
180
51
270
0
LINE
8
0
10
234.5
20
-113.9833333
11
239.5
21
-113.9833333
0
LINE
8
0
10
240.5
20
-112.9833333
11
240.5
21
-111.9833333
0
LINE
8
0
10
239.5
20
-110.9833333
11
234.5
21
-110.9833333
0
LINE
8
0
10
233.5
20
-111.9833333
11
233.5
21
-112.9833333
0
ARC
8
0
10
239.5
20
-112.9833333
40
1
50
270
51
0
0
ARC
8
0
10
239.5
20
-111.9833333
40
1
50
0
51
90
0
ARC
8
0
10
234.5
20
-111.9833333
40
1
50
90
51
180
0
ARC
8
0
10
234.5
20
-112.9833333
40
1
50
180
51
270
0
LINE
8
0
10
287.6276952
20
-132.1681618
11
299.7520508
21
-125.1681618
0
LINE
8
0
10
299.9497045
20
-124.4305081
11
279.9497045
21
-89.7894919
0
LINE
8
0
10
279.2120508
20
-89.5918382
11
267.0876952
21
-96.5918382
0
LINE
8
0
10
266.8900415
20
-97.3294919
11
286.8900415
21
-131.9705081
0
ARC
8
0
10
299.4820508
20
-124.7005081
40
0.54
50
300
51
30
0
ARC
8
0
10
279.4820508
20
-90.0594919
40
0.54
50
30
51
120
0
ARC
8
0
10
267.3576952
20
-97.0594919
40
0.54
50
120
51
210
0
ARC
8
0
10
287.3576952
20
-131.7005081
40
0.54
50
210
51
300
0
ENDSEC
0
EOF