0
SECTION
2
HEADER
9
$INSUNITS
70
4
0
ENDSEC
0
SECTION
2
TABLES
0
TABLE
2
LTYPE
0
LTYPE
72
65
70
64
2
CONTINUOUS
3
______
73
0
40
0
0
ENDTAB
0
TABLE
2
LAYER
0
ENDTAB
0
ENDSEC
0
SECTION
2
ENTITIES
0
LINE
8
0
10
252.2299699
20
-168.4056213
11
232.6350315
21
-179.71902
0
LINE
8
0
10
229.0949693
20
-179.7190188
11
189.3649679
21
-156.7803364
0
LINE
8
0
10
187.595
20
-153.714625
11
187.595
21
-141.6130128
0
LINE
8
0
10
185.8250323
20
-138.5473016
11
135.6149677
21
-109.5578007
0
LINE
8
0
10
133.845
20
-106.4920895
11
133.845
21
-73.0279108
0
LINE
8
0
10
135.6149679
20
-69.9621994
11
164.5949676
21
-53.2301844
0
LINE
8
0
10
168.1350321
20
-53.2301844
11
186.0949677
21
-63.5996108
0
LINE
8
0
10
189.6350323
20
-63.5996108
11
207.5949686
21
-53.230184
0
LINE
8
0
10
211.1350321
20
-53.2301835
11
226.3783275
21
-62.0311107
0
LINE
8
0
10
281.6216725
20
-62.0311107
11
296.8649679
21
-53.2301835
0
LINE
8
0
10
300.4050314
20
-53.230184
11
318.3649677
21
-63.5996108
0
LINE
8
0
10
321.9050323
20
-63.5996108
11
339.8649679
21
-53.2301844
0
LINE
8
0
10
343.4050324
20
-53.2301844
11
372.3850321
21
-69.9621994
0
LINE
8
0
10
374.155
20
-73.0279108
11
374.155
21
-106.4920895
0
LINE
8
0
10
372.3850323
20
-109.5578007
11
322.1749677
21
-138.5473016
0
LINE
8
0
10
320.405
20
-141.6130128
11
320.405
21
-153.714625
0
LINE
8
0
10
318.6350321
20
-156.7803364
11
278.9050307
21
-179.7190188
0
LINE
8
0
10
275.3649685
20
-179.71902
11
255.7700301
21
-168.4056213
0
LINE
8
0
10
279.8516413
20
-62.5053988
11
228.1483587
21
-62.5053988
0
ARC
8
0
10
230.8650014
20
-176.6533075
40
3.54
50
239.9993994
51
300.0005622
0
ARC
8
0
10
191.135
20
-153.714625
40
3.54
50
180
51
239.9993994
0
ARC
8
0
10
184.055
20
-141.6130128
40
3.54
50
0
51
59.9993965
0
ARC
8
0
10
137.385
20
-106.4920895
40
3.54
50
180
51
239.9993965
0
ARC
8
0
10
137.385
20
-73.0279108
40
3.54
50
120.0006006
51
180
0
ARC
8
0
10
166.3649998
20
-56.2958957
40
3.54
50
59.9993965
51
120.0006006
0
ARC
8
0
10
187.865
20
-60.5338994
40
3.54
50
239.9993965
51
300.0006035
0
ARC
8
0
10
209.3650009
20
-56.2958953
40
3.54
50
59.9994171
51
120.0006035
0
ARC
8
0
10
228.1483587
20
-58.9653988
40
3.54
50
239.9994171
51
270
0
ARC
8
0
10
279.8516413
20
-58.9653988
40
3.54
50
270
51
300.0005829
0
ARC
8
0
10
298.6349991
20
-56.2958953
40
3.54
50
59.9993965
51
120.0005829
0
ARC
8
0
10
320.135
20
-60.5338994
40
3.54
50
239.9993965
51
300.0006035
0
ARC
8
0
10
341.6350002
20
-56.2958957
40
3.54
50
59.9993994
51
120.0006035
0
ARC
8
0
10
370.615
20
-73.0279108
40
3.54
50
0
51
59.9993994
0
ARC
8
0
10
370.615
20
-106.4920895
40
3.54
50
300.0006035
51
0
0
ARC
8
0
10
323.945
20
-141.6130128
40
3.54
50
120.0006035
51
180
0
ARC
8
0
10
316.865
20
-153.714625
40
3.54
50
300.0006006
51
0
0
ARC
8
0
10
277.1349986
20
-176.6533075
40
3.54
50
239.9994378
51
300.0006006
0
ARC
8
0
10
254
20
-171.4713338
40
3.54
50
59.9994378
51
120.0005622
0
ENDSEC
0
EOF