0
SECTION
2
HEADER
9
$INSUNITS
70
4
0
ENDSEC
0
SECTION
2
TABLES
0
TABLE
2
LTYPE
0
LTYPE
72
65
70
64
2
CONTINUOUS
3
______
73
0
40
0
0
ENDTAB
0
TABLE
2
LAYER
0
ENDTAB
0
ENDSEC
0
SECTION
2
ENTITIES
0
LINE
8
0
10
239.7100301
20
-175.0885807
11
232.6350291
21
-179.1734273
0
LINE
8
0
10
229.3649715
20
-179.1734261
11
221.8849702
21
-174.8547402
0
LINE
8
0
10
189.6349702
20
-156.2347402
11
207.8649702
21
-166.7600922
0
LINE
8
0
10
188
20
-153.4028543
11
188
21
-141.3012457
0
LINE
8
0
10
186.3650298
20
-138.4693598
11
178.8849702
21
-134.1506402
0
LINE
8
0
10
135.8849702
20
-109.3239735
11
164.8649702
21
-126.0559922
0
LINE
8
0
10
134.25
20
-106.4920876
11
134.25
21
-85.4412458
0
LINE
8
0
10
146.6349702
20
-63.9893599
11
164.8649702
21
-53.4640079
0
LINE
8
0
10
168.1350298
20
-53.4640079
11
186.3649702
21
-63.9893254
0
LINE
8
0
10
189.6350298
20
-63.9893254
11
207.8649708
21
-53.4640075
0
LINE
8
0
10
211.1350295
20
-53.4640069
11
227.2412729
21
-62.7631698
0
LINE
8
0
10
280.7587271
20
-62.7631698
11
296.8649705
21
-53.4640069
0
LINE
8
0
10
300.1350292
20
-53.4640075
11
318.3649702
21
-63.9893254
0
LINE
8
0
10
321.6350298
20
-63.9893254
11
339.8649702
21
-53.4640079
0
LINE
8
0
10
343.1350298
20
-53.4640079
11
361.3650298
21
-63.9893599
0
LINE
8
0
10
373.75
20
-85.4412458
11
373.75
21
-106.4920876
0
LINE
8
0
10
343.1350298
20
-126.0559922
11
372.1150298
21
-109.3239735
0
LINE
8
0
10
329.1150298
20
-134.1506402
11
321.6349702
21
-138.4693598
0
LINE
8
0
10
320
20
-141.3012457
11
320
21
-153.4028543
0
LINE
8
0
10
300.1350298
20
-166.7600922
11
318.3650298
21
-156.2347402
0
LINE
8
0
10
286.1150298
20
-174.8547402
11
278.6350285
21
-179.1734261
0
LINE
8
0
10
275.3649709
20
-179.1734273
11
268.2899699
21
-175.0885807
0
LINE
8
0
10
279.1236983
20
-63.2012833
11
277.27
21
-63.2012833
0
LINE
8
0
10
230.73
20
-63.2012833
11
228.8763017
21
-63.2012833
0
ARC
8
0
10
231.0000013
20
-176.3415403
40
3.27
50
239.9993965
51
300.0005622
0
ARC
8
0
10
191.27
20
-153.4028543
40
3.27
50
180
51
239.9993965
0
ARC
8
0
10
184.73
20
-141.3012457
40
3.27
50
0
51
59.9993965
0
ARC
8
0
10
137.52
20
-106.4920876
40
3.27
50
180
51
239.9993965
0
ARC
8
0
10
166.5
20
-56.2958938
40
3.27
50
59.9993965
51
120.0006035
0
ARC
8
0
10
188
20
-61.1574395
40
3.27
50
239.9993965
51
300.0006035
0
ARC
8
0
10
209.5000007
20
-56.2958934
40
3.27
50
59.9994171
51
120.0006035
0
ARC
8
0
10
228.8763017
20
-59.9312833
40
3.27
50
239.9994171
51
270
0
ARC
8
0
10
279.1236983
20
-59.9312833
40
3.27
50
270
51
300.0005829
0
ARC
8
0
10
298.4999993
20
-56.2958934
40
3.27
50
59.9993965
51
120.0005829
0
ARC
8
0
10
320
20
-61.1574395
40
3.27
50
239.9993965
51
300.0006035
0
ARC
8
0
10
341.5
20
-56.2958938
40
3.27
50
59.9993965
51
120.0006035
0
ARC
8
0
10
370.48
20
-106.4920876
40
3.27
50
300.0006035
51
0
0
ARC
8
0
10
323.27
20
-141.3012457
40
3.27
50
120.0006035
51
180
0
ARC
8
0
10
316.73
20
-153.4028543
40
3.27
50
300.0006035
51
0
0
ARC
8
0
10
276.9999987
20
-176.3415403
40
3.27
50
239.9994378
51
300.0006035
0
LINE
8
0
10
145
20
-66.8212458
11
145
21
-75.4587543
0
LINE
8
0
10
143.3650298
20
-78.2906402
11
135.8849702
21
-82.6093599
0
LINE
8
0
10
372.1150298
20
-82.6093599
11
364.6349702
21
-78.2906402
0
LINE
8
0
10
363
20
-75.4587543
11
363
21
-66.8212458
0
LINE
8
0
10
168.1350298
20
-126.0559922
11
172.3449702
21
-123.6253227
0
LINE
8
0
10
177.25
20
-126.4572086
11
177.25
21
-131.3187543
0
LINE
8
0
10
211.1350298
20
-166.7600922
11
215.3449702
21
-164.3294227
0
LINE
8
0
10
220.25
20
-167.1613086
11
220.25
21
-172.0228543
0
LINE
8
0
10
330.75
20
-131.3187543
11
330.75
21
-126.4572086
0
LINE
8
0
10
335.6550298
20
-123.6253227
11
339.8649702
21
-126.0559922
0
LINE
8
0
10
287.75
20
-172.0228543
11
287.75
21
-167.1613086
0
LINE
8
0
10
292.6550298
20
-164.3294227
11
296.8649702
21
-166.7600922
0
ARC
8
0
10
223.52
20
-172.0228543
40
3.27
50
180
51
239.9993965
0
ARC
8
0
10
216.98
20
-167.1613086
40
3.27
50
0
51
120.0006035
0
ARC
8
0
10
209.5
20
-163.9282063
40
3.27
50
239.9993965
51
300.0006035
0
ARC
8
0
10
180.52
20
-131.3187543
40
3.27
50
180
51
239.9993965
0
ARC
8
0
10
173.98
20
-126.4572086
40
3.27
50
0
51
120.0006035
0
ARC
8
0
10
166.5
20
-123.2241063
40
3.27
50
239.9993965
51
300.0006035
0
ARC
8
0
10
137.52
20
-85.4412458
40
3.27
50
120.0006035
51
180
0
ARC
8
0
10
141.73
20
-75.4587543
40
3.27
50
300.0006035
51
0
0
ARC
8
0
10
148.27
20
-66.8212458
40
3.27
50
120.0006035
51
180
0
ARC
8
0
10
359.73
20
-66.8212458
40
3.27
50
0
51
59.9993965
0
ARC
8
0
10
366.27
20
-75.4587543
40
3.27
50
180
51
239.9993965
0
ARC
8
0
10
370.48
20
-85.4412458
40
3.27
50
0
51
59.9993965
0
ARC
8
0
10
341.5
20
-123.2241063
40
3.27
50
239.9993965
51
300.0006035
0
ARC
8
0
10
334.02
20
-126.4572086
40
3.27
50
59.9993965
51
180
0
ARC
8
0
10
327.48
20
-131.3187543
40
3.27
50
300.0006035
51
0
0
ARC
8
0
10
298.5
20
-163.9282063
40
3.27
50
239.9993965
51
300.0006035
0
ARC
8
0
10
291.02
20
-167.1613086
40
3.27
50
59.9993965
51
180
0
ARC
8
0
10
284.48
20
-172.0228543
40
3.27
50
300.0006035
51
0
0
LINE
8
0
10
241.48
20
-172.0228681
11
241.48
21
-163.2294593
0
LINE
8
0
10
239.7100323
20
-160.163748
11
232.4999677
21
-156.0009139
0
LINE
8
0
10
230.73
20
-152.9352026
11
230.73
21
-128.7320259
0
LINE
8
0
10
232.4999677
20
-125.6663146
11
240.6585278
21
-120.9558529
0
LINE
8
0
10
242.4285601
20
-120.4815642
11
265.5714399
21
-120.4815642
0
LINE
8
0
10
267.3414722
20
-120.9558529
11
275.5000323
21
-125.6663146
0
LINE
8
0
10
277.27
20
-128.7320259
11
277.27
21
-152.9352026
0
LINE
8
0
10
275.5000323
20
-156.0009139
11
268.2899677
21
-160.163748
0
LINE
8
0
10
266.52
20
-163.2294593
11
266.52
21
-172.0228681
0
ARC
8
0
10
270.06
20
-172.0228681
40
3.54
50
180
51
239.9994378
0
ARC
8
0
10
270.06
20
-163.2294593
40
3.54
50
120.0006035
51
180
0
ARC
8
0
10
273.73
20
-152.9352026
40
3.54
50
300.0006035
51
0
0
ARC
8
0
10
273.73
20
-128.7320259
40
3.54
50
0
51
59.9993965
0
ARC
8
0
10
265.5714399
20
-124.0215642
40
3.54
50
59.9993965
51
90
0
ARC
8
0
10
242.4285601
20
-124.0215642
40
3.54
50
90
51
120.0006035
0
ARC
8
0
10
234.27
20
-128.7320259
40
3.54
50
120.0006035
51
180
0
ARC
8
0
10
234.27
20
-152.9352026
40
3.54
50
180
51
239.9993965
0
ARC
8
0
10
237.94
20
-163.2294593
40
3.54
50
0
51
59.9993965
0
ARC
8
0
10
237.94
20
-172.0228681
40
3.54
50
300.0005622
51
0
0
LINE
8
0
10
154.1255753
20
-91.76596
11
147.8255753
21
-80.85404
0
LINE
8
0
10
147.00596
20
-80.6344247
11
136.09404
21
-86.9344247
0
LINE
8
0
10
135.8744247
20
-87.75404
11
142.1744247
21
-98.66596
0
LINE
8
0
10
142.99404
20
-98.8855753
11
153.90596
21
-92.5855753
0
ARC
8
0
10
147.30596
20
-81.15404
40
0.6
50
30
51
120
0
ARC
8
0
10
136.39404
20
-87.45404
40
0.6
50
120
51
210
0
ARC
8
0
10
142.69404
20
-98.36596
40
0.6
50
210
51
300
0
ARC
8
0
10
153.60596
20
-92.06596
40
0.6
50
300
51
30
0
LINE
8
0
10
149.45
20
-78.04
11
162.05
21
-78.04
0
LINE
8
0
10
162.65
20
-77.44
11
162.65
21
-64.84
0
LINE
8
0
10
162.05
20
-64.24
11
149.45
21
-64.24
0
LINE
8
0
10
148.85
20
-64.84
11
148.85
21
-77.44
0
ARC
8
0
10
162.05
20
-77.44
40
0.6
50
270
51
0
0
ARC
8
0
10
162.05
20
-64.84
40
0.6
50
0
51
90
0
ARC
8
0
10
149.45
20
-64.84
40
0.6
50
90
51
180
0
ARC
8
0
10
149.45
20
-77.44
40
0.6
50
180
51
270
0
LINE
8
0
10
168.1244247
20
-69.13404
11
174.4244247
21
-80.04596
0
LINE
8
0
10
175.24404
20
-80.2655753
11
186.15596
21
-73.9655753
0
LINE
8
0
10
186.3755753
20
-73.14596
11
180.0755753
21
-62.23404
0
LINE
8
0
10
179.25596
20
-62.0144247
11
168.34404
21
-68.3144247
0
ARC
8
0
10
174.94404
20
-79.74596
40
0.6
50
210
51
300
0
ARC
8
0
10
185.85596
20
-73.44596
40
0.6
50
300
51
30
0
ARC
8
0
10
179.55596
20
-62.53404
40
0.6
50
30
51
120
0
ARC
8
0
10
168.64404
20
-68.83404
40
0.6
50
120
51
210
0
LINE
8
0
10
189.6244247
20
-69.13404
11
195.9244247
21
-80.04596
0
LINE
8
0
10
196.74404
20
-80.2655753
11
207.65596
21
-73.9655753
0
LINE
8
0
10
207.8755753
20
-73.14596
11
201.5755753
21
-62.23404
0
LINE
8
0
10
200.75596
20
-62.0144247
11
189.84404
21
-68.3144247
0
ARC
8
0
10
196.44404
20
-79.74596
40
0.6
50
210
51
300
0
ARC
8
0
10
207.35596
20
-73.44596
40
0.6
50
300
51
30
0
ARC
8
0
10
201.05596
20
-62.53404
40
0.6
50
30
51
120
0
ARC
8
0
10
190.14404
20
-68.83404
40
0.6
50
120
51
210
0
LINE
8
0
10
211.1244247
20
-69.13404
11
217.4244247
21
-80.04596
0
LINE
8
0
10
218.24404
20
-80.2655753
11
229.15596
21
-73.9655753
0
LINE
8
0
10
229.3755753
20
-73.14596
11
223.0755753
21
-62.23404
0
LINE
8
0
10
222.25596
20
-62.0144247
11
211.34404
21
-68.3144247
0
ARC
8
0
10
217.94404
20
-79.74596
40
0.6
50
210
51
300
0
ARC
8
0
10
228.85596
20
-73.44596
40
0.6
50
300
51
30
0
ARC
8
0
10
222.55596
20
-62.53404
40
0.6
50
30
51
120
0
ARC
8
0
10
211.64404
20
-68.83404
40
0.6
50
120
51
210
0
LINE
8
0
10
162.05
20
-101.48
11
149.45
21
-101.48
0
LINE
8
0
10
148.85
20
-102.08
11
148.85
21
-114.68
0
LINE
8
0
10
149.45
20
-115.28
11
162.05
21
-115.28
0
LINE
8
0
10
162.65
20
-114.68
11
162.65
21
-102.08
0
ARC
8
0
10
149.45
20
-102.08
40
0.6
50
90
51
180
0
ARC
8
0
10
149.45
20
-114.68
40
0.6
50
180
51
270
0
ARC
8
0
10
162.05
20
-114.68
40
0.6
50
270
51
0
0
ARC
8
0
10
162.05
20
-102.08
40
0.6
50
0
51
90
0
LINE
8
0
10
163.6744247
20
-80.85404
11
157.3744247
21
-91.76596
0
LINE
8
0
10
157.59404
20
-92.5855753
11
168.50596
21
-98.8855753
0
LINE
8
0
10
169.3255753
20
-98.66596
11
175.6255753
21
-87.75404
0
LINE
8
0
10
175.40596
20
-86.9344247
11
164.49404
21
-80.6344247
0
ARC
8
0
10
157.89404
20
-92.06596
40
0.6
50
150
51
240
0
ARC
8
0
10
168.80596
20
-98.36596
40
0.6
50
240
51
330
0
ARC
8
0
10
175.10596
20
-87.45404
40
0.6
50
330
51
60
0
ARC
8
0
10
164.19404
20
-81.15404
40
0.6
50
60
51
150
0
LINE
8
0
10
183.55
20
-101.48
11
170.95
21
-101.48
0
LINE
8
0
10
170.35
20
-102.08
11
170.35
21
-114.68
0
LINE
8
0
10
170.95
20
-115.28
11
183.55
21
-115.28
0
LINE
8
0
10
184.15
20
-114.68
11
184.15
21
-102.08
0
ARC
8
0
10
170.95
20
-102.08
40
0.6
50
90
51
180
0
ARC
8
0
10
170.95
20
-114.68
40
0.6
50
180
51
270
0
ARC
8
0
10
183.55
20
-114.68
40
0.6
50
270
51
0
0
ARC
8
0
10
183.55
20
-102.08
40
0.6
50
0
51
90
0
LINE
8
0
10
185.1744247
20
-80.85404
11
178.8744247
21
-91.76596
0
LINE
8
0
10
179.09404
20
-92.5855753
11
190.00596
21
-98.8855753
0
LINE
8
0
10
190.8255753
20
-98.66596
11
197.1255753
21
-87.75404
0
LINE
8
0
10
196.90596
20
-86.9344247
11
185.99404
21
-80.6344247
0
ARC
8
0
10
179.39404
20
-92.06596
40
0.6
50
150
51
240
0
ARC
8
0
10
190.30596
20
-98.36596
40
0.6
50
240
51
330
0
ARC
8
0
10
196.60596
20
-87.45404
40
0.6
50
330
51
60
0
ARC
8
0
10
185.69404
20
-81.15404
40
0.6
50
60
51
150
0
LINE
8
0
10
206.6744247
20
-80.85404
11
200.3744247
21
-91.76596
0
LINE
8
0
10
200.59404
20
-92.5855753
11
211.50596
21
-98.8855753
0
LINE
8
0
10
212.3255753
20
-98.66596
11
218.6255753
21
-87.75404
0
LINE
8
0
10
218.40596
20
-86.9344247
11
207.49404
21
-80.6344247
0
ARC
8
0
10
200.89404
20
-92.06596
40
0.6
50
150
51
240
0
ARC
8
0
10
211.80596
20
-98.36596
40
0.6
50
240
51
330
0
ARC
8
0
10
218.10596
20
-87.45404
40
0.6
50
330
51
60
0
ARC
8
0
10
207.19404
20
-81.15404
40
0.6
50
60
51
150
0
LINE
8
0
10
205.05
20
-101.48
11
192.45
21
-101.48
0
LINE
8
0
10
191.85
20
-102.08
11
191.85
21
-114.68
0
LINE
8
0
10
192.45
20
-115.28
11
205.05
21
-115.28
0
LINE
8
0
10
205.65
20
-114.68
11
205.65
21
-102.08
0
ARC
8
0
10
192.45
20
-102.08
40
0.6
50
90
51
180
0
ARC
8
0
10
192.45
20
-114.68
40
0.6
50
180
51
270
0
ARC
8
0
10
205.05
20
-114.68
40
0.6
50
270
51
0
0
ARC
8
0
10
205.05
20
-102.08
40
0.6
50
0
51
90
0
LINE
8
0
10
224.7
20
-174.6041
11
237.3
21
-174.6041
0
LINE
8
0
10
237.9
20
-174.0041
11
237.9
21
-161.4041
0
LINE
8
0
10
237.3
20
-160.8041
11
224.7
21
-160.8041
0
LINE
8
0
10
224.1
20
-161.4041
11
224.1
21
-174.0041
0
ARC
8
0
10
237.3
20
-174.0041
40
0.6
50
270
51
0
0
ARC
8
0
10
237.3
20
-161.4041
40
0.6
50
0
51
90
0
ARC
8
0
10
224.7
20
-161.4041
40
0.6
50
90
51
180
0
ARC
8
0
10
224.7
20
-174.0041
40
0.6
50
180
51
270
0
LINE
8
0
10
194.3
20
-120.1
11
181.7
21
-120.1
0
LINE
8
0
10
181.1
20
-120.7
11
181.1
21
-133.3
0
LINE
8
0
10
181.7
20
-133.9
11
194.3
21
-133.9
0
LINE
8
0
10
194.9
20
-133.3
11
194.9
21
-120.7
0
ARC
8
0
10
181.7
20
-120.7
40
0.6
50
90
51
180
0
ARC
8
0
10
181.7
20
-133.3
40
0.6
50
180
51
270
0
ARC
8
0
10
194.3
20
-133.3
40
0.6
50
270
51
0
0
ARC
8
0
10
194.3
20
-120.7
40
0.6
50
0
51
90
0
LINE
8
0
10
360.1744247
20
-80.85404
11
353.8744247
21
-91.76596
0
LINE
8
0
10
354.09404
20
-92.5855753
11
365.00596
21
-98.8855753
0
LINE
8
0
10
365.8255753
20
-98.66596
11
372.1255753
21
-87.75404
0
LINE
8
0
10
371.90596
20
-86.9344247
11
360.99404
21
-80.6344247
0
ARC
8
0
10
354.39404
20
-92.06596
40
0.6
50
150
51
240
0
ARC
8
0
10
365.30596
20
-98.36596
40
0.6
50
240
51
330
0
ARC
8
0
10
371.60596
20
-87.45404
40
0.6
50
330
51
60
0
ARC
8
0
10
360.69404
20
-81.15404
40
0.6
50
60
51
150
0
LINE
8
0
10
345.95
20
-78.04
11
358.55
21
-78.04
0
LINE
8
0
10
359.15
20
-77.44
11
359.15
21
-64.84
0
LINE
8
0
10
358.55
20
-64.24
11
345.95
21
-64.24
0
LINE
8
0
10
345.35
20
-64.84
11
345.35
21
-77.44
0
ARC
8
0
10
358.55
20
-77.44
40
0.6
50
270
51
0
0
ARC
8
0
10
358.55
20
-64.84
40
0.6
50
0
51
90
0
ARC
8
0
10
345.95
20
-64.84
40
0.6
50
90
51
180
0
ARC
8
0
10
345.95
20
-77.44
40
0.6
50
180
51
270
0
LINE
8
0
10
333.5755753
20
-80.04596
11
339.8755753
21
-69.13404
0
LINE
8
0
10
339.65596
20
-68.3144247
11
328.74404
21
-62.0144247
0
LINE
8
0
10
327.9244247
20
-62.23404
11
321.6244247
21
-73.14596
0
LINE
8
0
10
321.84404
20
-73.9655753
11
332.75596
21
-80.2655753
0
ARC
8
0
10
339.35596
20
-68.83404
40
0.6
50
330
51
60
0
ARC
8
0
10
328.44404
20
-62.53404
40
0.6
50
60
51
150
0
ARC
8
0
10
322.14404
20
-73.44596
40
0.6
50
150
51
240
0
ARC
8
0
10
333.05596
20
-79.74596
40
0.6
50
240
51
330
0
LINE
8
0
10
312.0755753
20
-80.04596
11
318.3755753
21
-69.13404
0
LINE
8
0
10
318.15596
20
-68.3144247
11
307.24404
21
-62.0144247
0
LINE
8
0
10
306.4244247
20
-62.23404
11
300.1244247
21
-73.14596
0
LINE
8
0
10
300.34404
20
-73.9655753
11
311.25596
21
-80.2655753
0
ARC
8
0
10
317.85596
20
-68.83404
40
0.6
50
330
51
60
0
ARC
8
0
10
306.94404
20
-62.53404
40
0.6
50
60
51
150
0
ARC
8
0
10
300.64404
20
-73.44596
40
0.6
50
150
51
240
0
ARC
8
0
10
311.55596
20
-79.74596
40
0.6
50
240
51
330
0
LINE
8
0
10
290.5755753
20
-80.04596
11
296.8755753
21
-69.13404
0
LINE
8
0
10
296.65596
20
-68.3144247
11
285.74404
21
-62.0144247
0
LINE
8
0
10
284.9244247
20
-62.23404
11
278.6244247
21
-73.14596
0
LINE
8
0
10
278.84404
20
-73.9655753
11
289.75596
21
-80.2655753
0
ARC
8
0
10
296.35596
20
-68.83404
40
0.6
50
330
51
60
0
ARC
8
0
10
285.44404
20
-62.53404
40
0.6
50
60
51
150
0
ARC
8
0
10
279.14404
20
-73.44596
40
0.6
50
150
51
240
0
ARC
8
0
10
290.05596
20
-79.74596
40
0.6
50
240
51
330
0
LINE
8
0
10
358.55
20
-101.48
11
345.95
21
-101.48
0
LINE
8
0
10
345.35
20
-102.08
11
345.35
21
-114.68
0
LINE
8
0
10
345.95
20
-115.28
11
358.55
21
-115.28
0
LINE
8
0
10
359.15
20
-114.68
11
359.15
21
-102.08
0
ARC
8
0
10
345.95
20
-102.08
40
0.6
50
90
51
180
0
ARC
8
0
10
345.95
20
-114.68
40
0.6
50
180
51
270
0
ARC
8
0
10
358.55
20
-114.68
40
0.6
50
270
51
0
0
ARC
8
0
10
358.55
20
-102.08
40
0.6
50
0
51
90
0
LINE
8
0
10
350.6255753
20
-91.76596
11
344.3255753
21
-80.85404
0
LINE
8
0
10
343.50596
20
-80.6344247
11
332.59404
21
-86.9344247
0
LINE
8
0
10
332.3744247
20
-87.75404
11
338.6744247
21
-98.66596
0
LINE
8
0
10
339.49404
20
-98.8855753
11
350.40596
21
-92.5855753
0
ARC
8
0
10
343.80596
20
-81.15404
40
0.6
50
30
51
120
0
ARC
8
0
10
332.89404
20
-87.45404
40
0.6
50
120
51
210
0
ARC
8
0
10
339.19404
20
-98.36596
40
0.6
50
210
51
300
0
ARC
8
0
10
350.10596
20
-92.06596
40
0.6
50
300
51
30
0
LINE
8
0
10
337.05
20
-101.48
11
324.45
21
-101.48
0
LINE
8
0
10
323.85
20
-102.08
11
323.85
21
-114.68
0
LINE
8
0
10
324.45
20
-115.28
11
337.05
21
-115.28
0
LINE
8
0
10
337.65
20
-114.68
11
337.65
21
-102.08
0
ARC
8
0
10
324.45
20
-102.08
40
0.6
50
90
51
180
0
ARC
8
0
10
324.45
20
-114.68
40
0.6
50
180
51
270
0
ARC
8
0
10
337.05
20
-114.68
40
0.6
50
270
51
0
0
ARC
8
0
10
337.05
20
-102.08
40
0.6
50
0
51
90
0
LINE
8
0
10
329.1255753
20
-91.76596
11
322.8255753
21
-80.85404
0
LINE
8
0
10
322.00596
20
-80.6344247
11
311.09404
21
-86.9344247
0
LINE
8
0
10
310.8744247
20
-87.75404
11
317.1744247
21
-98.66596
0
LINE
8
0
10
317.99404
20
-98.8855753
11
328.90596
21
-92.5855753
0
ARC
8
0
10
322.30596
20
-81.15404
40
0.6
50
30
51
120
0
ARC
8
0
10
311.39404
20
-87.45404
40
0.6
50
120
51
210
0
ARC
8
0
10
317.69404
20
-98.36596
40
0.6
50
210
51
300
0
ARC
8
0
10
328.60596
20
-92.06596
40
0.6
50
300
51
30
0
LINE
8
0
10
307.6255753
20
-91.76596
11
301.3255753
21
-80.85404
0
LINE
8
0
10
300.50596
20
-80.6344247
11
289.59404
21
-86.9344247
0
LINE
8
0
10
289.3744247
20
-87.75404
11
295.6744247
21
-98.66596
0
LINE
8
0
10
296.49404
20
-98.8855753
11
307.40596
21
-92.5855753
0
ARC
8
0
10
300.80596
20
-81.15404
40
0.6
50
30
51
120
0
ARC
8
0
10
289.89404
20
-87.45404
40
0.6
50
120
51
210
0
ARC
8
0
10
296.19404
20
-98.36596
40
0.6
50
210
51
300
0
ARC
8
0
10
307.10596
20
-92.06596
40
0.6
50
300
51
30
0
LINE
8
0
10
315.55
20
-101.48
11
302.95
21
-101.48
0
LINE
8
0
10
302.35
20
-102.08
11
302.35
21
-114.68
0
LINE
8
0
10
302.95
20
-115.28
11
315.55
21
-115.28
0
LINE
8
0
10
316.15
20
-114.68
11
316.15
21
-102.08
0
ARC
8
0
10
302.95
20
-102.08
40
0.6
50
90
51
180
0
ARC
8
0
10
302.95
20
-114.68
40
0.6
50
180
51
270
0
ARC
8
0
10
315.55
20
-114.68
40
0.6
50
270
51
0
0
ARC
8
0
10
315.55
20
-102.08
40
0.6
50
0
51
90
0
LINE
8
0
10
270.7
20
-174.6041
11
283.3
21
-174.6041
0
LINE
8
0
10
283.9
20
-174.0041
11
283.9
21
-161.4041
0
LINE
8
0
10
283.3
20
-160.8041
11
270.7
21
-160.8041
0
LINE
8
0
10
270.1
20
-161.4041
11
270.1
21
-174.0041
0
ARC
8
0
10
283.3
20
-174.0041
40
0.6
50
270
51
0
0
ARC
8
0
10
283.3
20
-161.4041
40
0.6
50
0
51
90
0
ARC
8
0
10
270.7
20
-161.4041
40
0.6
50
90
51
180
0
ARC
8
0
10
270.7
20
-174.0041
40
0.6
50
180
51
270
0
LINE
8
0
10
326.3
20
-120.1
11
313.7
21
-120.1
0
LINE
8
0
10
313.1
20
-120.7
11
313.1
21
-133.3
0
LINE
8
0
10
313.7
20
-133.9
11
326.3
21
-133.9
0
LINE
8
0
10
326.9
20
-133.3
11
326.9
21
-120.7
0
ARC
8
0
10
313.7
20
-120.7
40
0.6
50
90
51
180
0
ARC
8
0
10
313.7
20
-133.3
40
0.6
50
180
51
270
0
ARC
8
0
10
326.3
20
-133.3
40
0.6
50
270
51
0
0
ARC
8
0
10
326.3
20
-120.7
40
0.6
50
0
51
90
0
LINE
8
0
10
233.73
20
-69.2012833
11
244.57
21
-69.2012833
0
LINE
8
0
10
263.43
20
-69.2012833
11
274.27
21
-69.2012833
0
LINE
8
0
10
277.27
20
-66.2012833
11
277.27
21
-63.2012833
0
LINE
8
0
10
230.73
20
-63.2012833
11
230.73
21
-66.2012833
0
ARC
8
0
10
274.27
20
-66.2012833
40
3
50
270
51
0
0
ARC
8
0
10
233.73
20
-66.2012833
40
3
50
180
51
270
0
LINE
8
0
10
245.11
20
-96.7612833
11
262.89
21
-96.7612833
0
LINE
8
0
10
263.43
20
-96.2212833
11
263.43
21
-69.2012833
0
LINE
8
0
10
244.57
20
-69.2012833
11
244.57
21
-96.2212833
0
ARC
8
0
10
262.89
20
-96.2212833
40
0.54
50
270
51
0
0
ARC
8
0
10
245.11
20
-96.2212833
40
0.54
50
180
51
270
0
ENDSEC
0
EOF