0
SECTION
2
HEADER
9
$INSUNITS
70
4
0
ENDSEC
0
SECTION
2
TABLES
0
TABLE
2
LTYPE
0
LTYPE
72
65
70
64
2
CONTINUOUS
3
______
73
0
40
0
0
ENDTAB
0
TABLE
2
LAYER
0
ENDTAB
0
ENDSEC
0
SECTION
2
ENTITIES
0
LINE
8
0
10
250.9030049
20
-168.5482242
11
232.365027
21
-179.2513727
0
LINE
8
0
10
229.3649739
20
-179.2513716
11
189.6349724
21
-156.3126819
0
LINE
8
0
10
188.135
20
-153.7146216
11
188.135
21
-140.9894785
0
LINE
8
0
10
186.6350274
20
-138.3914181
11
135.8849726
21
-109.0901462
0
LINE
8
0
10
134.385
20
-106.4920858
11
134.385
21
-73.027914
0
LINE
8
0
10
135.8849724
20
-70.4298537
11
164.8649726
21
-53.6978315
0
LINE
8
0
10
167.8650275
20
-53.6978314
11
186.3649726
21
-64.37904
0
LINE
8
0
10
189.3650274
20
-64.37904
11
207.8649733
21
-53.6978309
0
LINE
8
0
10
210.8650271
20
-53.6978304
11
226.3589483
21
-62.6434598
0
LINE
8
0
10
281.6410517
20
-62.6434598
11
297.1349729
21
-53.6978304
0
LINE
8
0
10
300.1350267
20
-53.6978309
11
318.6349726
21
-64.37904
0
LINE
8
0
10
321.6350274
20
-64.37904
11
340.1349725
21
-53.6978314
0
LINE
8
0
10
343.1350274
20
-53.6978315
11
372.1150276
21
-70.4298537
0
LINE
8
0
10
373.615
20
-73.027914
11
373.615
21
-106.4920858
0
LINE
8
0
10
372.1150274
20
-109.0901462
11
321.3649726
21
-138.3914181
0
LINE
8
0
10
319.865
20
-140.9894785
11
319.865
21
-153.7146216
0
LINE
8
0
10
318.3650276
20
-156.3126819
11
278.6350261
21
-179.2513716
0
LINE
8
0
10
275.634973
20
-179.2513727
11
257.0969951
21
-168.5482242
0
LINE
8
0
10
280.1410253
20
-63.0453988
11
263.39
21
-63.0453988
0
LINE
8
0
10
244.61
20
-63.0453988
11
227.8589747
21
-63.0453988
0
ARC
8
0
10
230.8650015
20
-176.6533113
40
3
50
239.9993916
51
300.0005622
0
ARC
8
0
10
191.135
20
-153.7146216
40
3
50
180
51
239.9993916
0
ARC
8
0
10
185.135
20
-140.9894785
40
3
50
0
51
59.9993965
0
ARC
8
0
10
137.385
20
-106.4920858
40
3
50
180
51
239.9993965
0
ARC
8
0
10
137.385
20
-73.027914
40
3
50
120.0006084
51
180
0
ARC
8
0
10
166.3650001
20
-56.2958918
40
3
50
59.9993965
51
120.0006084
0
ARC
8
0
10
187.865
20
-61.7809796
40
3
50
239.9993965
51
300.0006035
0
ARC
8
0
10
209.3650007
20
-56.2958913
40
3
50
59.9994171
51
120.0006035
0
ARC
8
0
10
227.8589747
20
-60.0453988
40
3
50
239.9994171
51
270
0
ARC
8
0
10
280.1410253
20
-60.0453988
40
3
50
270
51
300.0005829
0
ARC
8
0
10
298.6349993
20
-56.2958913
40
3
50
59.9993965
51
120.0005829
0
ARC
8
0
10
320.135
20
-61.7809796
40
3
50
239.9993965
51
300.0006035
0
ARC
8
0
10
341.6349999
20
-56.2958918
40
3
50
59.9993916
51
120.0006035
0
ARC
8
0
10
370.615
20
-73.027914
40
3
50
0
51
59.9993916
0
ARC
8
0
10
370.615
20
-106.4920858
40
3
50
300.0006035
51
0
0
ARC
8
0
10
322.865
20
-140.9894785
40
3
50
120.0006035
51
180
0
ARC
8
0
10
316.865
20
-153.7146216
40
3
50
300.0006084
51
0
0
ARC
8
0
10
277.1349985
20
-176.6533113
40
3
50
239.9994378
51
300.0006084
0
LINE
8
0
10
149.315
20
-78.04
11
161.915
21
-78.04
0
LINE
8
0
10
162.515
20
-77.44
11
162.515
21
-64.84
0
LINE
8
0
10
161.915
20
-64.24
11
149.315
21
-64.24
0
LINE
8
0
10
148.715
20
-64.84
11
148.715
21
-77.44
0
ARC
8
0
10
161.915
20
-77.44
40
0.6
50
270
51
0
0
ARC
8
0
10
161.915
20
-64.84
40
0.6
50
0
51
90
0
ARC
8
0
10
149.315
20
-64.84
40
0.6
50
90
51
180
0
ARC
8
0
10
149.315
20
-77.44
40
0.6
50
180
51
270
0
LINE
8
0
10
167.9894247
20
-69.13404
11
174.2894247
21
-80.04596
0
LINE
8
0
10
175.10904
20
-80.2655753
11
186.02096
21
-73.9655753
0
LINE
8
0
10
186.2405753
20
-73.14596
11
179.9405753
21
-62.23404
0
LINE
8
0
10
179.12096
20
-62.0144247
11
168.20904
21
-68.3144247
0
ARC
8
0
10
174.80904
20
-79.74596
40
0.6
50
210
51
300
0
ARC
8
0
10
185.72096
20
-73.44596
40
0.6
50
300
51
30
0
ARC
8
0
10
179.42096
20
-62.53404
40
0.6
50
30
51
120
0
ARC
8
0
10
168.50904
20
-68.83404
40
0.6
50
120
51
210
0
LINE
8
0
10
210.9894247
20
-69.13404
11
217.2894247
21
-80.04596
0
LINE
8
0
10
218.10904
20
-80.2655753
11
229.02096
21
-73.9655753
0
LINE
8
0
10
229.2405753
20
-73.14596
11
222.9405753
21
-62.23404
0
LINE
8
0
10
222.12096
20
-62.0144247
11
211.20904
21
-68.3144247
0
ARC
8
0
10
217.80904
20
-79.74596
40
0.6
50
210
51
300
0
ARC
8
0
10
228.72096
20
-73.44596
40
0.6
50
300
51
30
0
ARC
8
0
10
222.42096
20
-62.53404
40
0.6
50
30
51
120
0
ARC
8
0
10
211.50904
20
-68.83404
40
0.6
50
120
51
210
0
LINE
8
0
10
153.9905753
20
-91.76596
11
147.6905753
21
-80.85404
0
LINE
8
0
10
146.87096
20
-80.6344247
11
135.95904
21
-86.9344247
0
LINE
8
0
10
135.7394247
20
-87.75404
11
142.0394247
21
-98.66596
0
LINE
8
0
10
142.85904
20
-98.8855753
11
153.77096
21
-92.5855753
0
ARC
8
0
10
147.17096
20
-81.15404
40
0.6
50
30
51
120
0
ARC
8
0
10
136.25904
20
-87.45404
40
0.6
50
120
51
210
0
ARC
8
0
10
142.55904
20
-98.36596
40
0.6
50
210
51
300
0
ARC
8
0
10
153.47096
20
-92.06596
40
0.6
50
300
51
30
0
LINE
8
0
10
189.4894247
20
-69.13404
11
195.7894247
21
-80.04596
0
LINE
8
0
10
196.60904
20
-80.2655753
11
207.52096
21
-73.9655753
0
LINE
8
0
10
207.7405753
20
-73.14596
11
201.4405753
21
-62.23404
0
LINE
8
0
10
200.62096
20
-62.0144247
11
189.70904
21
-68.3144247
0
ARC
8
0
10
196.30904
20
-79.74596
40
0.6
50
210
51
300
0
ARC
8
0
10
207.22096
20
-73.44596
40
0.6
50
300
51
30
0
ARC
8
0
10
200.92096
20
-62.53404
40
0.6
50
30
51
120
0
ARC
8
0
10
190.00904
20
-68.83404
40
0.6
50
120
51
210
0
LINE
8
0
10
206.5394247
20
-80.85404
11
200.2394247
21
-91.76596
0
LINE
8
0
10
200.45904
20
-92.5855753
11
211.37096
21
-98.8855753
0
LINE
8
0
10
212.1905753
20
-98.66596
11
218.4905753
21
-87.75404
0
LINE
8
0
10
218.27096
20
-86.9344247
11
207.35904
21
-80.6344247
0
ARC
8
0
10
200.75904
20
-92.06596
40
0.6
50
150
51
240
0
ARC
8
0
10
211.67096
20
-98.36596
40
0.6
50
240
51
330
0
ARC
8
0
10
217.97096
20
-87.45404
40
0.6
50
330
51
60
0
ARC
8
0
10
207.05904
20
-81.15404
40
0.6
50
60
51
150
0
LINE
8
0
10
163.5394247
20
-80.85404
11
157.2394247
21
-91.76596
0
LINE
8
0
10
157.45904
20
-92.5855753
11
168.37096
21
-98.8855753
0
LINE
8
0
10
169.1905753
20
-98.66596
11
175.4905753
21
-87.75404
0
LINE
8
0
10
175.27096
20
-86.9344247
11
164.35904
21
-80.6344247
0
ARC
8
0
10
157.75904
20
-92.06596
40
0.6
50
150
51
240
0
ARC
8
0
10
168.67096
20
-98.36596
40
0.6
50
240
51
330
0
ARC
8
0
10
174.97096
20
-87.45404
40
0.6
50
330
51
60
0
ARC
8
0
10
164.05904
20
-81.15404
40
0.6
50
60
51
150
0
LINE
8
0
10
185.0394247
20
-80.85404
11
178.7394247
21
-91.76596
0
LINE
8
0
10
178.95904
20
-92.5855753
11
189.87096
21
-98.8855753
0
LINE
8
0
10
190.6905753
20
-98.66596
11
196.9905753
21
-87.75404
0
LINE
8
0
10
196.77096
20
-86.9344247
11
185.85904
21
-80.6344247
0
ARC
8
0
10
179.25904
20
-92.06596
40
0.6
50
150
51
240
0
ARC
8
0
10
190.17096
20
-98.36596
40
0.6
50
240
51
330
0
ARC
8
0
10
196.47096
20
-87.45404
40
0.6
50
330
51
60
0
ARC
8
0
10
185.55904
20
-81.15404
40
0.6
50
60
51
150
0
LINE
8
0
10
204.915
20
-101.48
11
192.315
21
-101.48
0
LINE
8
0
10
191.715
20
-102.08
11
191.715
21
-114.68
0
LINE
8
0
10
192.315
20
-115.28
11
204.915
21
-115.28
0
LINE
8
0
10
205.515
20
-114.68
11
205.515
21
-102.08
0
ARC
8
0
10
192.315
20
-102.08
40
0.6
50
90
51
180
0
ARC
8
0
10
192.315
20
-114.68
40
0.6
50
180
51
270
0
ARC
8
0
10
204.915
20
-114.68
40
0.6
50
270
51
0
0
ARC
8
0
10
204.915
20
-102.08
40
0.6
50
0
51
90
0
LINE
8
0
10
161.915
20
-101.48
11
149.315
21
-101.48
0
LINE
8
0
10
148.715
20
-102.08
11
148.715
21
-114.68
0
LINE
8
0
10
149.315
20
-115.28
11
161.915
21
-115.28
0
LINE
8
0
10
162.515
20
-114.68
11
162.515
21
-102.08
0
ARC
8
0
10
149.315
20
-102.08
40
0.6
50
90
51
180
0
ARC
8
0
10
149.315
20
-114.68
40
0.6
50
180
51
270
0
ARC
8
0
10
161.915
20
-114.68
40
0.6
50
270
51
0
0
ARC
8
0
10
161.915
20
-102.08
40
0.6
50
0
51
90
0
LINE
8
0
10
183.415
20
-101.48
11
170.815
21
-101.48
0
LINE
8
0
10
170.215
20
-102.08
11
170.215
21
-114.68
0
LINE
8
0
10
170.815
20
-115.28
11
183.415
21
-115.28
0
LINE
8
0
10
184.015
20
-114.68
11
184.015
21
-102.08
0
ARC
8
0
10
170.815
20
-102.08
40
0.6
50
90
51
180
0
ARC
8
0
10
170.815
20
-114.68
40
0.6
50
180
51
270
0
ARC
8
0
10
183.415
20
-114.68
40
0.6
50
270
51
0
0
ARC
8
0
10
183.415
20
-102.08
40
0.6
50
0
51
90
0
LINE
8
0
10
194.165
20
-120.1
11
181.565
21
-120.1
0
LINE
8
0
10
180.965
20
-120.7
11
180.965
21
-133.3
0
LINE
8
0
10
181.565
20
-133.9
11
194.165
21
-133.9
0
LINE
8
0
10
194.765
20
-133.3
11
194.765
21
-120.7
0
ARC
8
0
10
181.565
20
-120.7
40
0.6
50
90
51
180
0
ARC
8
0
10
181.565
20
-133.3
40
0.6
50
180
51
270
0
ARC
8
0
10
194.165
20
-133.3
40
0.6
50
270
51
0
0
ARC
8
0
10
194.165
20
-120.7
40
0.6
50
0
51
90
0
LINE
8
0
10
224.565
20
-174.915869
11
237.165
21
-174.915869
0
LINE
8
0
10
237.765
20
-174.315869
11
237.765
21
-161.715869
0
LINE
8
0
10
237.165
20
-161.115869
11
224.565
21
-161.115869
0
LINE
8
0
10
223.965
20
-161.715869
11
223.965
21
-174.315869
0
ARC
8
0
10
237.165
20
-174.315869
40
0.6
50
270
51
0
0
ARC
8
0
10
237.165
20
-161.715869
40
0.6
50
0
51
90
0
ARC
8
0
10
224.565
20
-161.715869
40
0.6
50
90
51
180
0
ARC
8
0
10
224.565
20
-174.315869
40
0.6
50
180
51
270
0
LINE
8
0
10
346.085
20
-78.04
11
358.685
21
-78.04
0
LINE
8
0
10
359.285
20
-77.44
11
359.285
21
-64.84
0
LINE
8
0
10
358.685
20
-64.24
11
346.085
21
-64.24
0
LINE
8
0
10
345.485
20
-64.84
11
345.485
21
-77.44
0
ARC
8
0
10
358.685
20
-77.44
40
0.6
50
270
51
0
0
ARC
8
0
10
358.685
20
-64.84
40
0.6
50
0
51
90
0
ARC
8
0
10
346.085
20
-64.84
40
0.6
50
90
51
180
0
ARC
8
0
10
346.085
20
-77.44
40
0.6
50
180
51
270
0
LINE
8
0
10
333.7105753
20
-80.04596
11
340.0105753
21
-69.13404
0
LINE
8
0
10
339.79096
20
-68.3144247
11
328.87904
21
-62.0144247
0
LINE
8
0
10
328.0594247
20
-62.23404
11
321.7594247
21
-73.14596
0
LINE
8
0
10
321.97904
20
-73.9655753
11
332.89096
21
-80.2655753
0
ARC
8
0
10
339.49096
20
-68.83404
40
0.6
50
330
51
60
0
ARC
8
0
10
328.57904
20
-62.53404
40
0.6
50
60
51
150
0
ARC
8
0
10
322.27904
20
-73.44596
40
0.6
50
150
51
240
0
ARC
8
0
10
333.19096
20
-79.74596
40
0.6
50
240
51
330
0
LINE
8
0
10
290.7105753
20
-80.04596
11
297.0105753
21
-69.13404
0
LINE
8
0
10
296.79096
20
-68.3144247
11
285.87904
21
-62.0144247
0
LINE
8
0
10
285.0594247
20
-62.23404
11
278.7594247
21
-73.14596
0
LINE
8
0
10
278.97904
20
-73.9655753
11
289.89096
21
-80.2655753
0
ARC
8
0
10
296.49096
20
-68.83404
40
0.6
50
330
51
60
0
ARC
8
0
10
285.57904
20
-62.53404
40
0.6
50
60
51
150
0
ARC
8
0
10
279.27904
20
-73.44596
40
0.6
50
150
51
240
0
ARC
8
0
10
290.19096
20
-79.74596
40
0.6
50
240
51
330
0
LINE
8
0
10
360.3094247
20
-80.85404
11
354.0094247
21
-91.76596
0
LINE
8
0
10
354.22904
20
-92.5855753
11
365.14096
21
-98.8855753
0
LINE
8
0
10
365.9605753
20
-98.66596
11
372.2605753
21
-87.75404
0
LINE
8
0
10
372.04096
20
-86.9344247
11
361.12904
21
-80.6344247
0
ARC
8
0
10
354.52904
20
-92.06596
40
0.6
50
150
51
240
0
ARC
8
0
10
365.44096
20
-98.36596
40
0.6
50
240
51
330
0
ARC
8
0
10
371.74096
20
-87.45404
40
0.6
50
330
51
60
0
ARC
8
0
10
360.82904
20
-81.15404
40
0.6
50
60
51
150
0
LINE
8
0
10
312.2105753
20
-80.04596
11
318.5105753
21
-69.13404
0
LINE
8
0
10
318.29096
20
-68.3144247
11
307.37904
21
-62.0144247
0
LINE
8
0
10
306.5594247
20
-62.23404
11
300.2594247
21
-73.14596
0
LINE
8
0
10
300.47904
20
-73.9655753
11
311.39096
21
-80.2655753
0
ARC
8
0
10
317.99096
20
-68.83404
40
0.6
50
330
51
60
0
ARC
8
0
10
307.07904
20
-62.53404
40
0.6
50
60
51
150
0
ARC
8
0
10
300.77904
20
-73.44596
40
0.6
50
150
51
240
0
ARC
8
0
10
311.69096
20
-79.74596
40
0.6
50
240
51
330
0
LINE
8
0
10
307.7605753
20
-91.76596
11
301.4605753
21
-80.85404
0
LINE
8
0
10
300.64096
20
-80.6344247
11
289.72904
21
-86.9344247
0
LINE
8
0
10
289.5094247
20
-87.75404
11
295.8094247
21
-98.66596
0
LINE
8
0
10
296.62904
20
-98.8855753
11
307.54096
21
-92.5855753
0
ARC
8
0
10
300.94096
20
-81.15404
40
0.6
50
30
51
120
0
ARC
8
0
10
290.02904
20
-87.45404
40
0.6
50
120
51
210
0
ARC
8
0
10
296.32904
20
-98.36596
40
0.6
50
210
51
300
0
ARC
8
0
10
307.24096
20
-92.06596
40
0.6
50
300
51
30
0
LINE
8
0
10
350.7605753
20
-91.76596
11
344.4605753
21
-80.85404
0
LINE
8
0
10
343.64096
20
-80.6344247
11
332.72904
21
-86.9344247
0
LINE
8
0
10
332.5094247
20
-87.75404
11
338.8094247
21
-98.66596
0
LINE
8
0
10
339.62904
20
-98.8855753
11
350.54096
21
-92.5855753
0
ARC
8
0
10
343.94096
20
-81.15404
40
0.6
50
30
51
120
0
ARC
8
0
10
333.02904
20
-87.45404
40
0.6
50
120
51
210
0
ARC
8
0
10
339.32904
20
-98.36596
40
0.6
50
210
51
300
0
ARC
8
0
10
350.24096
20
-92.06596
40
0.6
50
300
51
30
0
LINE
8
0
10
329.2605753
20
-91.76596
11
322.9605753
21
-80.85404
0
LINE
8
0
10
322.14096
20
-80.6344247
11
311.22904
21
-86.9344247
0
LINE
8
0
10
311.0094247
20
-87.75404
11
317.3094247
21
-98.66596
0
LINE
8
0
10
318.12904
20
-98.8855753
11
329.04096
21
-92.5855753
0
ARC
8
0
10
322.44096
20
-81.15404
40
0.6
50
30
51
120
0
ARC
8
0
10
311.52904
20
-87.45404
40
0.6
50
120
51
210
0
ARC
8
0
10
317.82904
20
-98.36596
40
0.6
50
210
51
300
0
ARC
8
0
10
328.74096
20
-92.06596
40
0.6
50
300
51
30
0
LINE
8
0
10
315.685
20
-101.48
11
303.085
21
-101.48
0
LINE
8
0
10
302.485
20
-102.08
11
302.485
21
-114.68
0
LINE
8
0
10
303.085
20
-115.28
11
315.685
21
-115.28
0
LINE
8
0
10
316.285
20
-114.68
11
316.285
21
-102.08
0
ARC
8
0
10
303.085
20
-102.08
40
0.6
50
90
51
180
0
ARC
8
0
10
303.085
20
-114.68
40
0.6
50
180
51
270
0
ARC
8
0
10
315.685
20
-114.68
40
0.6
50
270
51
0
0
ARC
8
0
10
315.685
20
-102.08
40
0.6
50
0
51
90
0
LINE
8
0
10
358.685
20
-101.48
11
346.085
21
-101.48
0
LINE
8
0
10
345.485
20
-102.08
11
345.485
21
-114.68
0
LINE
8
0
10
346.085
20
-115.28
11
358.685
21
-115.28
0
LINE
8
0
10
359.285
20
-114.68
11
359.285
21
-102.08
0
ARC
8
0
10
346.085
20
-102.08
40
0.6
50
90
51
180
0
ARC
8
0
10
346.085
20
-114.68
40
0.6
50
180
51
270
0
ARC
8
0
10
358.685
20
-114.68
40
0.6
50
270
51
0
0
ARC
8
0
10
358.685
20
-102.08
40
0.6
50
0
51
90
0
LINE
8
0
10
337.185
20
-101.48
11
324.585
21
-101.48
0
LINE
8
0
10
323.985
20
-102.08
11
323.985
21
-114.68
0
LINE
8
0
10
324.585
20
-115.28
11
337.185
21
-115.28
0
LINE
8
0
10
337.785
20
-114.68
11
337.785
21
-102.08
0
ARC
8
0
10
324.585
20
-102.08
40
0.6
50
90
51
180
0
ARC
8
0
10
324.585
20
-114.68
40
0.6
50
180
51
270
0
ARC
8
0
10
337.185
20
-114.68
40
0.6
50
270
51
0
0
ARC
8
0
10
337.185
20
-102.08
40
0.6
50
0
51
90
0
LINE
8
0
10
326.435
20
-120.1
11
313.835
21
-120.1
0
LINE
8
0
10
313.235
20
-120.7
11
313.235
21
-133.3
0
LINE
8
0
10
313.835
20
-133.9
11
326.435
21
-133.9
0
LINE
8
0
10
327.035
20
-133.3
11
327.035
21
-120.7
0
ARC
8
0
10
313.835
20
-120.7
40
0.6
50
90
51
180
0
ARC
8
0
10
313.835
20
-133.3
40
0.6
50
180
51
270
0
ARC
8
0
10
326.435
20
-133.3
40
0.6
50
270
51
0
0
ARC
8
0
10
326.435
20
-120.7
40
0.6
50
0
51
90
0
LINE
8
0
10
270.835
20
-174.915869
11
283.435
21
-174.915869
0
LINE
8
0
10
284.035
20
-174.315869
11
284.035
21
-161.715869
0
LINE
8
0
10
283.435
20
-161.115869
11
270.835
21
-161.115869
0
LINE
8
0
10
270.235
20
-161.715869
11
270.235
21
-174.315869
0
ARC
8
0
10
283.435
20
-174.315869
40
0.6
50
270
51
0
0
ARC
8
0
10
283.435
20
-161.715869
40
0.6
50
0
51
90
0
ARC
8
0
10
270.835
20
-161.715869
40
0.6
50
90
51
180
0
ARC
8
0
10
270.835
20
-174.315869
40
0.6
50
180
51
270
0
LINE
8
0
10
209.9999745
20
-137.2597833
11
204.2499745
21
-133.9399064
0
LINE
8
0
10
203.25
20
-132.2078703
11
203.25
21
-125.5679988
0
LINE
8
0
10
204.2499745
20
-123.8359627
11
209.9999745
21
-120.5160858
0
LINE
8
0
10
212.0000255
20
-120.5160858
11
217.7500255
21
-123.8359627
0
LINE
8
0
10
218.75
20
-125.5679988
11
218.75
21
-132.2078703
0
LINE
8
0
10
217.7500255
20
-133.9399064
11
212.0000255
21
-137.2597833
0
LINE
8
0
10
220.7499745
20
-118.6397833
11
214.9999745
21
-115.3199064
0
LINE
8
0
10
214
20
-113.5878703
11
214
21
-106.9479988
0
LINE
8
0
10
214.9999745
20
-105.2159627
11
220.7499745
21
-101.8960858
0
LINE
8
0
10
222.7500255
20
-101.8960858
11
228.5000255
21
-105.2159627
0
LINE
8
0
10
229.5
20
-106.9479988
11
229.5
21
-113.5878703
0
LINE
8
0
10
228.5000255
20
-115.3199064
11
222.7500255
21
-118.6397833
0
LINE
8
0
10
231.4999745
20
-100.0197833
11
225.7499745
21
-96.6999064
0
LINE
8
0
10
224.75
20
-94.9678703
11
224.75
21
-88.3279988
0
LINE
8
0
10
225.7499745
20
-86.5959627
11
231.4999745
21
-83.2760858
0
LINE
8
0
10
233.5000255
20
-83.2760858
11
239.2500255
21
-86.5959627
0
LINE
8
0
10
240.25
20
-88.3279988
11
240.25
21
-94.9678703
0
LINE
8
0
10
239.2500255
20
-96.6999064
11
233.5000255
21
-100.0197833
0
LINE
8
0
10
231.4999745
20
-137.2597833
11
225.7499745
21
-133.9399064
0
LINE
8
0
10
224.75
20
-132.2078703
11
224.75
21
-125.5679988
0
LINE
8
0
10
225.7499745
20
-123.8359627
11
231.4999745
21
-120.5160858
0
LINE
8
0
10
233.5000255
20
-120.5160858
11
239.2500255
21
-123.8359627
0
LINE
8
0
10
240.25
20
-125.5679988
11
240.25
21
-132.2078703
0
LINE
8
0
10
239.2500255
20
-133.9399064
11
233.5000255
21
-137.2597833
0
LINE
8
0
10
242.2499745
20
-118.6397833
11
236.4999745
21
-115.3199064
0
LINE
8
0
10
235.5
20
-113.5878703
11
235.5
21
-106.9479988
0
LINE
8
0
10
236.4999745
20
-105.2159627
11
242.2499745
21
-101.8960858
0
LINE
8
0
10
244.2500255
20
-101.8960858
11
250.0000255
21
-105.2159627
0
LINE
8
0
10
251
20
-106.9479988
11
251
21
-113.5878703
0
LINE
8
0
10
250.0000255
20
-115.3199064
11
244.2500255
21
-118.6397833
0
LINE
8
0
10
295.9999745
20
-137.2597833
11
290.2499745
21
-133.9399064
0
LINE
8
0
10
289.25
20
-132.2078703
11
289.25
21
-125.5679988
0
LINE
8
0
10
290.2499745
20
-123.8359627
11
295.9999745
21
-120.5160858
0
LINE
8
0
10
298.0000255
20
-120.5160858
11
303.7500255
21
-123.8359627
0
LINE
8
0
10
304.75
20
-125.5679988
11
304.75
21
-132.2078703
0
LINE
8
0
10
303.7500255
20
-133.9399064
11
298.0000255
21
-137.2597833
0
LINE
8
0
10
285.2499745
20
-118.6397833
11
279.4999745
21
-115.3199064
0
LINE
8
0
10
278.5
20
-113.5878703
11
278.5
21
-106.9479988
0
LINE
8
0
10
279.4999745
20
-105.2159627
11
285.2499745
21
-101.8960858
0
LINE
8
0
10
287.2500255
20
-101.8960858
11
293.0000255
21
-105.2159627
0
LINE
8
0
10
294
20
-106.9479988
11
294
21
-113.5878703
0
LINE
8
0
10
293.0000255
20
-115.3199064
11
287.2500255
21
-118.6397833
0
LINE
8
0
10
274.4999745
20
-100.0197833
11
268.7499745
21
-96.6999064
0
LINE
8
0
10
267.75
20
-94.9678703
11
267.75
21
-88.3279988
0
LINE
8
0
10
268.7499745
20
-86.5959627
11
274.4999745
21
-83.2760858
0
LINE
8
0
10
276.5000255
20
-83.2760858
11
282.2500255
21
-86.5959627
0
LINE
8
0
10
283.25
20
-88.3279988
11
283.25
21
-94.9678703
0
LINE
8
0
10
282.2500255
20
-96.6999064
11
276.5000255
21
-100.0197833
0
LINE
8
0
10
274.4999745
20
-137.2597833
11
268.7499745
21
-133.9399064
0
LINE
8
0
10
267.75
20
-132.2078703
11
267.75
21
-125.5679988
0
LINE
8
0
10
268.7499745
20
-123.8359627
11
274.4999745
21
-120.5160858
0
LINE
8
0
10
276.5000255
20
-120.5160858
11
282.2500255
21
-123.8359627
0
LINE
8
0
10
283.25
20
-125.5679988
11
283.25
21
-132.2078703
0
LINE
8
0
10
282.2500255
20
-133.9399064
11
276.5000255
21
-137.2597833
0
LINE
8
0
10
263.7499745
20
-118.6397833
11
257.9999745
21
-115.3199064
0
LINE
8
0
10
257
20
-113.5878703
11
257
21
-106.9479988
0
LINE
8
0
10
257.9999745
20
-105.2159627
11
263.7499745
21
-101.8960858
0
LINE
8
0
10
265.7500255
20
-101.8960858
11
271.5000255
21
-105.2159627
0
LINE
8
0
10
272.5
20
-106.9479988
11
272.5
21
-113.5878703
0
LINE
8
0
10
271.5000255
20
-115.3199064
11
265.7500255
21
-118.6397833
0
LINE
8
0
10
199.2499745
20
-155.8797833
11
193.4999745
21
-152.5599064
0
LINE
8
0
10
192.5
20
-150.8278703
11
192.5
21
-144.1879988
0
LINE
8
0
10
193.4999745
20
-142.4559627
11
199.2499745
21
-139.1360858
0
LINE
8
0
10
201.2500255
20
-139.1360858
11
207.0000255
21
-142.4559627
0
LINE
8
0
10
208
20
-144.1879988
11
208
21
-150.8278703
0
LINE
8
0
10
207.0000255
20
-152.5599064
11
201.2500255
21
-155.8797833
0
LINE
8
0
10
220.7499745
20
-155.8797833
11
214.9999745
21
-152.5599064
0
LINE
8
0
10
214
20
-150.8278703
11
214
21
-144.1879988
0
LINE
8
0
10
214.9999745
20
-142.4559627
11
220.7499745
21
-139.1360858
0
LINE
8
0
10
222.7500255
20
-139.1360858
11
228.5000255
21
-142.4559627
0
LINE
8
0
10
229.5
20
-144.1879988
11
229.5
21
-150.8278703
0
LINE
8
0
10
228.5000255
20
-152.5599064
11
222.7500255
21
-155.8797833
0
LINE
8
0
10
306.7499745
20
-155.8797833
11
300.9999745
21
-152.5599064
0
LINE
8
0
10
300
20
-150.8278703
11
300
21
-144.1879988
0
LINE
8
0
10
300.9999745
20
-142.4559627
11
306.7499745
21
-139.1360858
0
LINE
8
0
10
308.7500255
20
-139.1360858
11
314.5000255
21
-142.4559627
0
LINE
8
0
10
315.5
20
-144.1879988
11
315.5
21
-150.8278703
0
LINE
8
0
10
314.5000255
20
-152.5599064
11
308.7500255
21
-155.8797833
0
LINE
8
0
10
285.2499745
20
-155.8797833
11
279.4999745
21
-152.5599064
0
LINE
8
0
10
278.5
20
-150.8278703
11
278.5
21
-144.1879988
0
LINE
8
0
10
279.4999745
20
-142.4559627
11
285.2499745
21
-139.1360858
0
LINE
8
0
10
287.2500255
20
-139.1360858
11
293.0000255
21
-142.4559627
0
LINE
8
0
10
294
20
-144.1879988
11
294
21
-150.8278703
0
LINE
8
0
10
293.0000255
20
-152.5599064
11
287.2500255
21
-155.8797833
0
ARC
8
0
10
205.25
20
-132.2078703
40
2
50
180
51
239.9991577
0
ARC
8
0
10
205.25
20
-125.5679988
40
2
50
120.0008423
51
180
0
ARC
8
0
10
211
20
-122.2481219
40
2
50
59.9991577
51
120.0008423
0
ARC
8
0
10
216.75
20
-125.5679988
40
2
50
0
51
59.9991577
0
ARC
8
0
10
216.75
20
-132.2078703
40
2
50
300.0008423
51
0
0
ARC
8
0
10
211
20
-135.5277472
40
2
50
239.9991577
51
300.0008423
0
ARC
8
0
10
226.75
20
-132.2078703
40
2
50
180
51
239.9991577
0
ARC
8
0
10
226.75
20
-125.5679988
40
2
50
120.0008423
51
180
0
ARC
8
0
10
232.5
20
-122.2481219
40
2
50
59.9991577
51
120.0008423
0
ARC
8
0
10
238.25
20
-125.5679988
40
2
50
0
51
59.9991577
0
ARC
8
0
10
238.25
20
-132.2078703
40
2
50
300.0008423
51
0
0
ARC
8
0
10
232.5
20
-135.5277472
40
2
50
239.9991577
51
300.0008423
0
ARC
8
0
10
291.25
20
-132.2078703
40
2
50
180
51
239.9991577
0
ARC
8
0
10
291.25
20
-125.5679988
40
2
50
120.0008423
51
180
0
ARC
8
0
10
297
20
-122.2481219
40
2
50
59.9991577
51
120.0008423
0
ARC
8
0
10
302.75
20
-125.5679988
40
2
50
0
51
59.9991577
0
ARC
8
0
10
302.75
20
-132.2078703
40
2
50
300.0008423
51
0
0
ARC
8
0
10
297
20
-135.5277472
40
2
50
239.9991577
51
300.0008423
0
ARC
8
0
10
269.75
20
-132.2078703
40
2
50
180
51
239.9991577
0
ARC
8
0
10
269.75
20
-125.5679988
40
2
50
120.0008423
51
180
0
ARC
8
0
10
275.5
20
-122.2481219
40
2
50
59.9991577
51
120.0008423
0
ARC
8
0
10
281.25
20
-125.5679988
40
2
50
0
51
59.9991577
0
ARC
8
0
10
281.25
20
-132.2078703
40
2
50
300.0008423
51
0
0
ARC
8
0
10
275.5
20
-135.5277472
40
2
50
239.9991577
51
300.0008423
0
ARC
8
0
10
216
20
-113.5878703
40
2
50
180
51
239.9991577
0
ARC
8
0
10
216
20
-106.9479988
40
2
50
120.0008423
51
180
0
ARC
8
0
10
221.75
20
-103.6281219
40
2
50
59.9991577
51
120.0008423
0
ARC
8
0
10
227.5
20
-106.9479988
40
2
50
0
51
59.9991577
0
ARC
8
0
10
227.5
20
-113.5878703
40
2
50
300.0008423
51
0
0
ARC
8
0
10
221.75
20
-116.9077472
40
2
50
239.9991577
51
300.0008423
0
ARC
8
0
10
226.75
20
-94.9678703
40
2
50
180
51
239.9991577
0
ARC
8
0
10
226.75
20
-88.3279988
40
2
50
120.0008423
51
180
0
ARC
8
0
10
232.5
20
-85.0081219
40
2
50
59.9991577
51
120.0008423
0
ARC
8
0
10
238.25
20
-88.3279988
40
2
50
0
51
59.9991577
0
ARC
8
0
10
238.25
20
-94.9678703
40
2
50
300.0008423
51
0
0
ARC
8
0
10
232.5
20
-98.2877472
40
2
50
239.9991577
51
300.0008423
0
ARC
8
0
10
237.5
20
-113.5878703
40
2
50
180
51
239.9991577
0
ARC
8
0
10
237.5
20
-106.9479988
40
2
50
120.0008423
51
180
0
ARC
8
0
10
243.25
20
-103.6281219
40
2
50
59.9991577
51
120.0008423
0
ARC
8
0
10
249
20
-106.9479988
40
2
50
0
51
59.9991577
0
ARC
8
0
10
249
20
-113.5878703
40
2
50
300.0008423
51
0
0
ARC
8
0
10
243.25
20
-116.9077472
40
2
50
239.9991577
51
300.0008423
0
ARC
8
0
10
280.5
20
-113.5878703
40
2
50
180
51
239.9991577
0
ARC
8
0
10
280.5
20
-106.9479988
40
2
50
120.0008423
51
180
0
ARC
8
0
10
286.25
20
-103.6281219
40
2
50
59.9991577
51
120.0008423
0
ARC
8
0
10
292
20
-106.9479988
40
2
50
0
51
59.9991577
0
ARC
8
0
10
292
20
-113.5878703
40
2
50
300.0008423
51
0
0
ARC
8
0
10
286.25
20
-116.9077472
40
2
50
239.9991577
51
300.0008423
0
ARC
8
0
10
269.75
20
-94.9678703
40
2
50
180
51
239.9991577
0
ARC
8
0
10
269.75
20
-88.3279988
40
2
50
120.0008423
51
180
0
ARC
8
0
10
275.5
20
-85.0081219
40
2
50
59.9991577
51
120.0008423
0
ARC
8
0
10
281.25
20
-88.3279988
40
2
50
0
51
59.9991577
0
ARC
8
0
10
281.25
20
-94.9678703
40
2
50
300.0008423
51
0
0
ARC
8
0
10
275.5
20
-98.2877472
40
2
50
239.9991577
51
300.0008423
0
ARC
8
0
10
259
20
-113.5878703
40
2
50
180
51
239.9991577
0
ARC
8
0
10
259
20
-106.9479988
40
2
50
120.0008423
51
180
0
ARC
8
0
10
264.75
20
-103.6281219
40
2
50
59.9991577
51
120.0008423
0
ARC
8
0
10
270.5
20
-106.9479988
40
2
50
0
51
59.9991577
0
ARC
8
0
10
270.5
20
-113.5878703
40
2
50
300.0008423
51
0
0
ARC
8
0
10
264.75
20
-116.9077472
40
2
50
239.9991577
51
300.0008423
0
ARC
8
0
10
194.5
20
-150.8278703
40
2
50
180
51
239.9991577
0
ARC
8
0
10
194.5
20
-144.1879988
40
2
50
120.0008423
51
180
0
ARC
8
0
10
200.25
20
-140.8681219
40
2
50
59.9991577
51
120.0008423
0
ARC
8
0
10
206
20
-144.1879988
40
2
50
0
51
59.9991577
0
ARC
8
0
10
206
20
-150.8278703
40
2
50
300.0008423
51
0
0
ARC
8
0
10
200.25
20
-154.1477472
40
2
50
239.9991577
51
300.0008423
0
ARC
8
0
10
216
20
-150.8278703
40
2
50
180
51
239.9991577
0
ARC
8
0
10
216
20
-144.1879988
40
2
50
120.0008423
51
180
0
ARC
8
0
10
221.75
20
-140.8681219
40
2
50
59.9991577
51
120.0008423
0
ARC
8
0
10
227.5
20
-144.1879988
40
2
50
0
51
59.9991577
0
ARC
8
0
10
227.5
20
-150.8278703
40
2
50
300.0008423
51
0
0
ARC
8
0
10
221.75
20
-154.1477472
40
2
50
239.9991577
51
300.0008423
0
ARC
8
0
10
302
20
-150.8278703
40
2
50
180
51
239.9991577
0
ARC
8
0
10
302
20
-144.1879988
40
2
50
120.0008423
51
180
0
ARC
8
0
10
307.75
20
-140.8681219
40
2
50
59.9991577
51
120.0008423
0
ARC
8
0
10
313.5
20
-144.1879988
40
2
50
0
51
59.9991577
0
ARC
8
0
10
313.5
20
-150.8278703
40
2
50
300.0008423
51
0
0
ARC
8
0
10
307.75
20
-154.1477472
40
2
50
239.9991577
51
300.0008423
0
ARC
8
0
10
280.5
20
-150.8278703
40
2
50
180
51
239.9991577
0
ARC
8
0
10
280.5
20
-144.1879988
40
2
50
120.0008423
51
180
0
ARC
8
0
10
286.25
20
-140.8681219
40
2
50
59.9991577
51
120.0008423
0
ARC
8
0
10
292
20
-144.1879988
40
2
50
0
51
59.9991577
0
ARC
8
0
10
292
20
-150.8278703
40
2
50
300.0008423
51
0
0
ARC
8
0
10
286.25
20
-154.1477472
40
2
50
239.9991577
51
300.0008423
0
LINE
8
0
10
245.11
20
-96.5653988
11
262.89
21
-96.5653988
0
LINE
8
0
10
263.39
20
-96.0653988
11
263.39
21
-63.0453988
0
LINE
8
0
10
244.61
20
-63.0453988
11
244.61
21
-96.0653988
0
ARC
8
0
10
262.89
20
-96.0653988
40
0.5
50
270
51
0
0
ARC
8
0
10
245.11
20
-96.0653988
40
0.5
50
180
51
270
0
ARC
8
0
10
254
20
-151.2838035
40
17.54
50
280.1698936
51
619.8301064
0
ENDSEC
0
EOF