0
SECTION
2
HEADER
9
$INSUNITS
70
4
0
ENDSEC
0
SECTION
2
TABLES
0
TABLE
2
LTYPE
0
LTYPE
72
65
70
64
2
CONTINUOUS
3
______
73
0
40
0
0
ENDTAB
0
TABLE
2
LAYER
0
ENDTAB
0
ENDSEC
0
SECTION
2
ENTITIES
0
LINE
8
0
10
239.7100301
20
-175.0885807
11
232.6350291
21
-179.1734273
0
LINE
8
0
10
229.3649715
20
-179.1734261
11
221.8849702
21
-174.8547402
0
LINE
8
0
10
197.1149702
20
-160.5534255
11
189.6349702
21
-156.2347402
0
LINE
8
0
10
188
20
-153.4028543
11
188
21
-141.3012457
0
LINE
8
0
10
186.3650298
20
-138.4693598
11
178.8849702
21
-134.1506402
0
LINE
8
0
10
154.1149702
20
-119.8493255
11
146.6349702
21
-115.5306402
0
LINE
8
0
10
134.25
20
-94.0787543
11
134.25
21
-85.4412458
0
LINE
8
0
10
146.6349702
20
-63.9893599
11
154.1149702
21
-59.6706746
0
LINE
8
0
10
178.8850298
20
-59.6706746
11
186.3649702
21
-63.9893254
0
LINE
8
0
10
189.6350298
20
-63.9893254
11
197.1149702
21
-59.6706746
0
LINE
8
0
10
221.8850289
20
-59.6706721
11
227.2412729
21
-62.7631698
0
LINE
8
0
10
280.7587271
20
-62.7631698
11
286.1149711
21
-59.6706721
0
LINE
8
0
10
310.8850298
20
-59.6706746
11
318.3649702
21
-63.9893254
0
LINE
8
0
10
321.6350298
20
-63.9893254
11
329.1149702
21
-59.6706746
0
LINE
8
0
10
353.8850298
20
-59.6706746
11
361.3650298
21
-63.9893599
0
LINE
8
0
10
373.75
20
-85.4412458
11
373.75
21
-94.0787543
0
LINE
8
0
10
361.3650298
20
-115.5306402
11
353.8850298
21
-119.8493255
0
LINE
8
0
10
329.1150298
20
-134.1506402
11
321.6349702
21
-138.4693598
0
LINE
8
0
10
320
20
-141.3012457
11
320
21
-153.4028543
0
LINE
8
0
10
318.3650298
20
-156.2347402
11
310.8850298
21
-160.5534255
0
LINE
8
0
10
286.1150298
20
-174.8547402
11
278.6350285
21
-179.1734261
0
LINE
8
0
10
275.3649709
20
-179.1734273
11
268.2899699
21
-175.0885807
0
LINE
8
0
10
279.1236983
20
-63.2012833
11
277.27
21
-63.2012833
0
LINE
8
0
10
230.73
20
-63.2012833
11
228.8763017
21
-63.2012833
0
LINE
8
0
10
263.43
20
-63.2012833
11
244.57
21
-63.2012833
0
ARC
8
0
10
231.0000013
20
-176.3415403
40
3.27
50
239.9993965
51
300.0005622
0
ARC
8
0
10
191.27
20
-153.4028543
40
3.27
50
180
51
239.9993965
0
ARC
8
0
10
184.73
20
-141.3012457
40
3.27
50
0
51
59.9993965
0
ARC
8
0
10
188
20
-61.1574395
40
3.27
50
239.9993965
51
300.0006035
0
ARC
8
0
10
228.8763017
20
-59.9312833
40
3.27
50
239.9994171
51
270
0
ARC
8
0
10
279.1236983
20
-59.9312833
40
3.27
50
270
51
300.0005829
0
ARC
8
0
10
320
20
-61.1574395
40
3.27
50
239.9993965
51
300.0006035
0
ARC
8
0
10
323.27
20
-141.3012457
40
3.27
50
120.0006035
51
180
0
ARC
8
0
10
316.73
20
-153.4028543
40
3.27
50
300.0006035
51
0
0
ARC
8
0
10
276.9999987
20
-176.3415403
40
3.27
50
239.9994378
51
300.0006035
0
LINE
8
0
10
145
20
-66.8212458
11
145
21
-75.4587543
0
LINE
8
0
10
143.3650298
20
-78.2906402
11
135.8849702
21
-82.6093599
0
LINE
8
0
10
164.8649702
20
-63.9893255
11
157.3850298
21
-59.6706746
0
LINE
8
0
10
175.6149702
20
-59.6706746
11
168.1350298
21
-63.9893255
0
LINE
8
0
10
207.8649702
20
-63.9893255
11
200.3850298
21
-59.6706746
0
LINE
8
0
10
218.6149719
20
-59.6706736
11
211.1350298
21
-63.9893255
0
LINE
8
0
10
372.1150298
20
-82.6093599
11
364.6349702
21
-78.2906402
0
LINE
8
0
10
363
20
-75.4587543
11
363
21
-66.8212458
0
LINE
8
0
10
339.8649702
20
-63.9893255
11
332.3850298
21
-59.6706746
0
LINE
8
0
10
350.6149702
20
-59.6706746
11
343.1350298
21
-63.9893255
0
LINE
8
0
10
296.8649702
20
-63.9893255
11
289.3850281
21
-59.6706736
0
LINE
8
0
10
307.6149702
20
-59.6706746
11
300.1350298
21
-63.9893255
0
LINE
8
0
10
135.8849702
20
-96.9106402
11
143.3650298
21
-101.2293599
0
LINE
8
0
10
145
20
-104.0612458
11
145
21
-112.6987543
0
LINE
8
0
10
157.3850298
20
-119.8493255
11
164.8649702
21
-115.5306746
0
LINE
8
0
10
168.1350298
20
-115.5306746
11
175.6150298
21
-119.8493599
0
LINE
8
0
10
177.25
20
-122.6812458
11
177.25
21
-131.3187543
0
LINE
8
0
10
200.3850298
20
-160.5534255
11
207.8649702
21
-156.2347746
0
LINE
8
0
10
211.1350298
20
-156.2347746
11
218.6150298
21
-160.5534599
0
LINE
8
0
10
220.25
20
-163.3853458
11
220.25
21
-172.0228543
0
LINE
8
0
10
363
20
-112.6987543
11
363
21
-104.0612458
0
LINE
8
0
10
364.6349702
20
-101.2293599
11
372.1150298
21
-96.9106402
0
LINE
8
0
10
330.75
20
-131.3187543
11
330.75
21
-122.6812458
0
LINE
8
0
10
332.3849702
20
-119.8493599
11
339.8649702
21
-115.5306746
0
LINE
8
0
10
343.1350298
20
-115.5306746
11
350.6149702
21
-119.8493255
0
LINE
8
0
10
287.75
20
-172.0228543
11
287.75
21
-163.3853458
0
LINE
8
0
10
289.3849702
20
-160.5534599
11
296.8649702
21
-156.2347746
0
LINE
8
0
10
300.1350298
20
-156.2347746
11
307.6149702
21
-160.5534255
0
ARC
8
0
10
223.52
20
-172.0228543
40
3.27
50
180
51
239.9993965
0
ARC
8
0
10
216.98
20
-163.3853458
40
3.27
50
0
51
59.9993965
0
ARC
8
0
10
209.5
20
-159.0666605
40
3.27
50
59.9993965
51
120.0006035
0
ARC
8
0
10
198.75
20
-157.7215396
40
3.27
50
239.9993965
51
300.0006035
0
ARC
8
0
10
180.52
20
-131.3187543
40
3.27
50
180
51
239.9993965
0
ARC
8
0
10
173.98
20
-122.6812458
40
3.27
50
0
51
59.9993965
0
ARC
8
0
10
166.5
20
-118.3625605
40
3.27
50
59.9993965
51
120.0006035
0
ARC
8
0
10
155.75
20
-117.0174396
40
3.27
50
239.9993965
51
300.0006035
0
ARC
8
0
10
148.27
20
-112.6987543
40
3.27
50
180
51
239.9993965
0
ARC
8
0
10
141.73
20
-104.0612458
40
3.27
50
0
51
59.9993965
0
ARC
8
0
10
137.52
20
-94.0787543
40
3.27
50
180
51
239.9993965
0
ARC
8
0
10
137.52
20
-85.4412458
40
3.27
50
120.0006035
51
180
0
ARC
8
0
10
141.73
20
-75.4587543
40
3.27
50
300.0006035
51
0
0
ARC
8
0
10
148.27
20
-66.8212458
40
3.27
50
120.0006035
51
180
0
ARC
8
0
10
155.75
20
-62.5025605
40
3.27
50
59.9993965
51
120.0006035
0
ARC
8
0
10
166.5
20
-61.1574396
40
3.27
50
239.9993965
51
300.0006035
0
ARC
8
0
10
177.25
20
-62.5025605
40
3.27
50
59.9993965
51
120.0006035
0
ARC
8
0
10
198.75
20
-62.5025605
40
3.27
50
59.9993965
51
120.0006035
0
ARC
8
0
10
209.5
20
-61.1574396
40
3.27
50
239.9993965
51
300.0006035
0
ARC
8
0
10
220.2500017
20
-62.5025595
40
3.27
50
59.9994505
51
120.0006035
0
ARC
8
0
10
287.7499983
20
-62.5025595
40
3.27
50
59.9993965
51
120.0005495
0
ARC
8
0
10
298.5
20
-61.1574396
40
3.27
50
239.9993965
51
300.0006035
0
ARC
8
0
10
309.25
20
-62.5025605
40
3.27
50
59.9993965
51
120.0006035
0
ARC
8
0
10
330.75
20
-62.5025605
40
3.27
50
59.9993965
51
120.0006035
0
ARC
8
0
10
341.5
20
-61.1574396
40
3.27
50
239.9993965
51
300.0006035
0
ARC
8
0
10
352.25
20
-62.5025605
40
3.27
50
59.9993965
51
120.0006035
0
ARC
8
0
10
359.73
20
-66.8212458
40
3.27
50
0
51
59.9993965
0
ARC
8
0
10
366.27
20
-75.4587543
40
3.27
50
180
51
239.9993965
0
ARC
8
0
10
370.48
20
-85.4412458
40
3.27
50
0
51
59.9993965
0
ARC
8
0
10
370.48
20
-94.0787543
40
3.27
50
300.0006035
51
0
0
ARC
8
0
10
366.27
20
-104.0612458
40
3.27
50
120.0006035
51
180
0
ARC
8
0
10
359.73
20
-112.6987543
40
3.27
50
300.0006035
51
0
0
ARC
8
0
10
352.25
20
-117.0174396
40
3.27
50
239.9993965
51
300.0006035
0
ARC
8
0
10
341.5
20
-118.3625605
40
3.27
50
59.9993965
51
120.0006035
0
ARC
8
0
10
334.02
20
-122.6812458
40
3.27
50
120.0006035
51
180
0
ARC
8
0
10
327.48
20
-131.3187543
40
3.27
50
300.0006035
51
0
0
ARC
8
0
10
309.25
20
-157.7215396
40
3.27
50
239.9993965
51
300.0006035
0
ARC
8
0
10
298.5
20
-159.0666605
40
3.27
50
59.9993965
51
120.0006035
0
ARC
8
0
10
291.02
20
-163.3853458
40
3.27
50
120.0006035
51
180
0
ARC
8
0
10
284.48
20
-172.0228543
40
3.27
50
300.0006035
51
0
0
LINE
8
0
10
241.48
20
-172.0228681
11
241.48
21
-163.2294593
0
LINE
8
0
10
239.7100323
20
-160.163748
11
232.4999677
21
-156.0009139
0
LINE
8
0
10
230.73
20
-152.9352026
11
230.73
21
-128.7320279
0
LINE
8
0
10
232.4999702
20
-125.6663152
11
252.2299702
21
-114.2749383
0
LINE
8
0
10
255.7700298
20
-114.2749383
11
275.5000298
21
-125.6663152
0
LINE
8
0
10
277.27
20
-128.7320279
11
277.27
21
-152.9352026
0
LINE
8
0
10
275.5000323
20
-156.0009139
11
268.2899677
21
-160.163748
0
LINE
8
0
10
266.52
20
-163.2294593
11
266.52
21
-172.0228681
0
ARC
8
0
10
270.06
20
-172.0228681
40
3.54
50
180
51
239.9994378
0
ARC
8
0
10
270.06
20
-163.2294593
40
3.54
50
120.0006035
51
180
0
ARC
8
0
10
273.73
20
-152.9352026
40
3.54
50
300.0006035
51
0
0
ARC
8
0
10
273.73
20
-128.7320279
40
3.54
50
0
51
59.9994427
0
ARC
8
0
10
254
20
-117.340651
40
3.54
50
59.9994427
51
120.0005573
0
ARC
8
0
10
234.27
20
-128.7320279
40
3.54
50
120.0005573
51
180
0
ARC
8
0
10
234.27
20
-152.9352026
40
3.54
50
180
51
239.9993965
0
ARC
8
0
10
237.94
20
-163.2294593
40
3.54
50
0
51
59.9993965
0
ARC
8
0
10
237.94
20
-172.0228681
40
3.54
50
300.0005622
51
0
0
LINE
8
0
10
154.55
20
-68.04
11
156.95
21
-68.04
0
LINE
8
0
10
157.35
20
-67.64
11
157.35
21
-65.24
0
LINE
8
0
10
156.95
20
-64.84
11
154.55
21
-64.84
0
LINE
8
0
10
154.15
20
-65.24
11
154.15
21
-67.64
0
ARC
8
0
10
156.95
20
-67.64
40
0.4
50
270
51
0
0
ARC
8
0
10
156.95
20
-65.24
40
0.4
50
0
51
90
0
ARC
8
0
10
154.55
20
-65.24
40
0.4
50
90
51
180
0
ARC
8
0
10
154.55
20
-67.64
40
0.4
50
180
51
270
0
LINE
8
0
10
179.3346788
20
-68.5507695
11
180.5346788
21
-70.6292305
0
LINE
8
0
10
181.0810889
20
-70.7756406
11
183.1595499
21
-69.5756406
0
LINE
8
0
10
183.30596
20
-69.0292305
11
182.10596
21
-66.9507695
0
LINE
8
0
10
181.5595499
20
-66.8043594
11
179.4810889
21
-68.0043594
0
ARC
8
0
10
180.8810889
20
-70.4292305
40
0.4
50
210
51
300
0
ARC
8
0
10
182.9595499
20
-69.2292305
40
0.4
50
300
51
30
0
ARC
8
0
10
181.7595499
20
-67.1507695
40
0.4
50
30
51
120
0
ARC
8
0
10
179.6810889
20
-68.3507695
40
0.4
50
120
51
210
0
LINE
8
0
10
222.3346788
20
-68.5507695
11
223.5346788
21
-70.6292305
0
LINE
8
0
10
224.0810889
20
-70.7756406
11
226.1595499
21
-69.5756406
0
LINE
8
0
10
226.30596
20
-69.0292305
11
225.10596
21
-66.9507695
0
LINE
8
0
10
224.5595499
20
-66.8043594
11
222.4810889
21
-68.0043594
0
ARC
8
0
10
223.8810889
20
-70.4292305
40
0.4
50
210
51
300
0
ARC
8
0
10
225.9595499
20
-69.2292305
40
0.4
50
300
51
30
0
ARC
8
0
10
224.7595499
20
-67.1507695
40
0.4
50
30
51
120
0
ARC
8
0
10
222.6810889
20
-68.3507695
40
0.4
50
120
51
210
0
LINE
8
0
10
142.9153212
20
-92.3492305
11
141.7153212
21
-90.2707695
0
LINE
8
0
10
141.1689111
20
-90.1243594
11
139.0904501
21
-91.3243594
0
LINE
8
0
10
138.94404
20
-91.8707695
11
140.14404
21
-93.9492305
0
LINE
8
0
10
140.6904501
20
-94.0956406
11
142.7689111
21
-92.8956406
0
ARC
8
0
10
141.3689111
20
-90.4707695
40
0.4
50
30
51
120
0
ARC
8
0
10
139.2904501
20
-91.6707695
40
0.4
50
120
51
210
0
ARC
8
0
10
140.4904501
20
-93.7492305
40
0.4
50
210
51
300
0
ARC
8
0
10
142.5689111
20
-92.5492305
40
0.4
50
300
51
30
0
LINE
8
0
10
200.8346788
20
-68.5507695
11
202.0346788
21
-70.6292305
0
LINE
8
0
10
202.5810889
20
-70.7756406
11
204.6595499
21
-69.5756406
0
LINE
8
0
10
204.80596
20
-69.0292305
11
203.60596
21
-66.9507695
0
LINE
8
0
10
203.0595499
20
-66.8043594
11
200.9810889
21
-68.0043594
0
ARC
8
0
10
202.3810889
20
-70.4292305
40
0.4
50
210
51
300
0
ARC
8
0
10
204.4595499
20
-69.2292305
40
0.4
50
300
51
30
0
ARC
8
0
10
203.2595499
20
-67.1507695
40
0.4
50
30
51
120
0
ARC
8
0
10
201.1810889
20
-68.3507695
40
0.4
50
120
51
210
0
LINE
8
0
10
212.7846788
20
-90.2707695
11
211.5846788
21
-92.3492305
0
LINE
8
0
10
211.7310889
20
-92.8956406
11
213.8095499
21
-94.0956406
0
LINE
8
0
10
214.35596
20
-93.9492305
11
215.55596
21
-91.8707695
0
LINE
8
0
10
215.4095499
20
-91.3243594
11
213.3310889
21
-90.1243594
0
ARC
8
0
10
211.9310889
20
-92.5492305
40
0.4
50
150
51
240
0
ARC
8
0
10
214.0095499
20
-93.7492305
40
0.4
50
240
51
330
0
ARC
8
0
10
215.2095499
20
-91.6707695
40
0.4
50
330
51
60
0
ARC
8
0
10
213.1310889
20
-90.4707695
40
0.4
50
60
51
150
0
LINE
8
0
10
169.7846788
20
-90.2707695
11
168.5846788
21
-92.3492305
0
LINE
8
0
10
168.7310889
20
-92.8956406
11
170.8095499
21
-94.0956406
0
LINE
8
0
10
171.35596
20
-93.9492305
11
172.55596
21
-91.8707695
0
LINE
8
0
10
172.4095499
20
-91.3243594
11
170.3310889
21
-90.1243594
0
ARC
8
0
10
168.9310889
20
-92.5492305
40
0.4
50
150
51
240
0
ARC
8
0
10
171.0095499
20
-93.7492305
40
0.4
50
240
51
330
0
ARC
8
0
10
172.2095499
20
-91.6707695
40
0.4
50
330
51
60
0
ARC
8
0
10
170.1310889
20
-90.4707695
40
0.4
50
60
51
150
0
LINE
8
0
10
191.2846788
20
-90.2707695
11
190.0846788
21
-92.3492305
0
LINE
8
0
10
190.2310889
20
-92.8956406
11
192.3095499
21
-94.0956406
0
LINE
8
0
10
192.85596
20
-93.9492305
11
194.05596
21
-91.8707695
0
LINE
8
0
10
193.9095499
20
-91.3243594
11
191.8310889
21
-90.1243594
0
ARC
8
0
10
190.4310889
20
-92.5492305
40
0.4
50
150
51
240
0
ARC
8
0
10
192.5095499
20
-93.7492305
40
0.4
50
240
51
330
0
ARC
8
0
10
193.7095499
20
-91.6707695
40
0.4
50
330
51
60
0
ARC
8
0
10
191.6310889
20
-90.4707695
40
0.4
50
60
51
150
0
LINE
8
0
10
199.95
20
-111.48
11
197.55
21
-111.48
0
LINE
8
0
10
197.15
20
-111.88
11
197.15
21
-114.28
0
LINE
8
0
10
197.55
20
-114.68
11
199.95
21
-114.68
0
LINE
8
0
10
200.35
20
-114.28
11
200.35
21
-111.88
0
ARC
8
0
10
197.55
20
-111.88
40
0.4
50
90
51
180
0
ARC
8
0
10
197.55
20
-114.28
40
0.4
50
180
51
270
0
ARC
8
0
10
199.95
20
-114.28
40
0.4
50
270
51
0
0
ARC
8
0
10
199.95
20
-111.88
40
0.4
50
0
51
90
0
LINE
8
0
10
156.95
20
-111.48
11
154.55
21
-111.48
0
LINE
8
0
10
154.15
20
-111.88
11
154.15
21
-114.28
0
LINE
8
0
10
154.55
20
-114.68
11
156.95
21
-114.68
0
LINE
8
0
10
157.35
20
-114.28
11
157.35
21
-111.88
0
ARC
8
0
10
154.55
20
-111.88
40
0.4
50
90
51
180
0
ARC
8
0
10
154.55
20
-114.28
40
0.4
50
180
51
270
0
ARC
8
0
10
156.95
20
-114.28
40
0.4
50
270
51
0
0
ARC
8
0
10
156.95
20
-111.88
40
0.4
50
0
51
90
0
LINE
8
0
10
178.45
20
-111.48
11
176.05
21
-111.48
0
LINE
8
0
10
175.65
20
-111.88
11
175.65
21
-114.28
0
LINE
8
0
10
176.05
20
-114.68
11
178.45
21
-114.68
0
LINE
8
0
10
178.85
20
-114.28
11
178.85
21
-111.88
0
ARC
8
0
10
176.05
20
-111.88
40
0.4
50
90
51
180
0
ARC
8
0
10
176.05
20
-114.28
40
0.4
50
180
51
270
0
ARC
8
0
10
178.45
20
-114.28
40
0.4
50
270
51
0
0
ARC
8
0
10
178.45
20
-111.88
40
0.4
50
0
51
90
0
LINE
8
0
10
189.2
20
-130.1
11
186.8
21
-130.1
0
LINE
8
0
10
186.4
20
-130.5
11
186.4
21
-132.9
0
LINE
8
0
10
186.8
20
-133.3
11
189.2
21
-133.3
0
LINE
8
0
10
189.6
20
-132.9
11
189.6
21
-130.5
0
ARC
8
0
10
186.8
20
-130.5
40
0.4
50
90
51
180
0
ARC
8
0
10
186.8
20
-132.9
40
0.4
50
180
51
270
0
ARC
8
0
10
189.2
20
-132.9
40
0.4
50
270
51
0
0
ARC
8
0
10
189.2
20
-130.5
40
0.4
50
0
51
90
0
LINE
8
0
10
229.8
20
-164.6041
11
232.2
21
-164.6041
0
LINE
8
0
10
232.6
20
-164.2041
11
232.6
21
-161.8041
0
LINE
8
0
10
232.2
20
-161.4041
11
229.8
21
-161.4041
0
LINE
8
0
10
229.4
20
-161.8041
11
229.4
21
-164.2041
0
ARC
8
0
10
232.2
20
-164.2041
40
0.4
50
270
51
0
0
ARC
8
0
10
232.2
20
-161.8041
40
0.4
50
0
51
90
0
ARC
8
0
10
229.8
20
-161.8041
40
0.4
50
90
51
180
0
ARC
8
0
10
229.8
20
-164.2041
40
0.4
50
180
51
270
0
LINE
8
0
10
351.05
20
-68.04
11
353.45
21
-68.04
0
LINE
8
0
10
353.85
20
-67.64
11
353.85
21
-65.24
0
LINE
8
0
10
353.45
20
-64.84
11
351.05
21
-64.84
0
LINE
8
0
10
350.65
20
-65.24
11
350.65
21
-67.64
0
ARC
8
0
10
353.45
20
-67.64
40
0.4
50
270
51
0
0
ARC
8
0
10
353.45
20
-65.24
40
0.4
50
0
51
90
0
ARC
8
0
10
351.05
20
-65.24
40
0.4
50
90
51
180
0
ARC
8
0
10
351.05
20
-67.64
40
0.4
50
180
51
270
0
LINE
8
0
10
327.4653212
20
-70.6292305
11
328.6653212
21
-68.5507695
0
LINE
8
0
10
328.5189111
20
-68.0043594
11
326.4404501
21
-66.8043594
0
LINE
8
0
10
325.89404
20
-66.9507695
11
324.69404
21
-69.0292305
0
LINE
8
0
10
324.8404501
20
-69.5756406
11
326.9189111
21
-70.7756406
0
ARC
8
0
10
328.3189111
20
-68.3507695
40
0.4
50
330
51
60
0
ARC
8
0
10
326.2404501
20
-67.1507695
40
0.4
50
60
51
150
0
ARC
8
0
10
325.0404501
20
-69.2292305
40
0.4
50
150
51
240
0
ARC
8
0
10
327.1189111
20
-70.4292305
40
0.4
50
240
51
330
0
LINE
8
0
10
284.4653212
20
-70.6292305
11
285.6653212
21
-68.5507695
0
LINE
8
0
10
285.5189111
20
-68.0043594
11
283.4404501
21
-66.8043594
0
LINE
8
0
10
282.89404
20
-66.9507695
11
281.69404
21
-69.0292305
0
LINE
8
0
10
281.8404501
20
-69.5756406
11
283.9189111
21
-70.7756406
0
ARC
8
0
10
285.3189111
20
-68.3507695
40
0.4
50
330
51
60
0
ARC
8
0
10
283.2404501
20
-67.1507695
40
0.4
50
60
51
150
0
ARC
8
0
10
282.0404501
20
-69.2292305
40
0.4
50
150
51
240
0
ARC
8
0
10
284.1189111
20
-70.4292305
40
0.4
50
240
51
330
0
LINE
8
0
10
366.2846788
20
-90.2707695
11
365.0846788
21
-92.3492305
0
LINE
8
0
10
365.2310889
20
-92.8956406
11
367.3095499
21
-94.0956406
0
LINE
8
0
10
367.85596
20
-93.9492305
11
369.05596
21
-91.8707695
0
LINE
8
0
10
368.9095499
20
-91.3243594
11
366.8310889
21
-90.1243594
0
ARC
8
0
10
365.4310889
20
-92.5492305
40
0.4
50
150
51
240
0
ARC
8
0
10
367.5095499
20
-93.7492305
40
0.4
50
240
51
330
0
ARC
8
0
10
368.7095499
20
-91.6707695
40
0.4
50
330
51
60
0
ARC
8
0
10
366.6310889
20
-90.4707695
40
0.4
50
60
51
150
0
LINE
8
0
10
305.9653212
20
-70.6292305
11
307.1653212
21
-68.5507695
0
LINE
8
0
10
307.0189111
20
-68.0043594
11
304.9404501
21
-66.8043594
0
LINE
8
0
10
304.39404
20
-66.9507695
11
303.19404
21
-69.0292305
0
LINE
8
0
10
303.3404501
20
-69.5756406
11
305.4189111
21
-70.7756406
0
ARC
8
0
10
306.8189111
20
-68.3507695
40
0.4
50
330
51
60
0
ARC
8
0
10
304.7404501
20
-67.1507695
40
0.4
50
60
51
150
0
ARC
8
0
10
303.5404501
20
-69.2292305
40
0.4
50
150
51
240
0
ARC
8
0
10
305.6189111
20
-70.4292305
40
0.4
50
240
51
330
0
LINE
8
0
10
296.4153212
20
-92.3492305
11
295.2153212
21
-90.2707695
0
LINE
8
0
10
294.6689111
20
-90.1243594
11
292.5904501
21
-91.3243594
0
LINE
8
0
10
292.44404
20
-91.8707695
11
293.64404
21
-93.9492305
0
LINE
8
0
10
294.1904501
20
-94.0956406
11
296.2689111
21
-92.8956406
0
ARC
8
0
10
294.8689111
20
-90.4707695
40
0.4
50
30
51
120
0
ARC
8
0
10
292.7904501
20
-91.6707695
40
0.4
50
120
51
210
0
ARC
8
0
10
293.9904501
20
-93.7492305
40
0.4
50
210
51
300
0
ARC
8
0
10
296.0689111
20
-92.5492305
40
0.4
50
300
51
30
0
LINE
8
0
10
339.4153212
20
-92.3492305
11
338.2153212
21
-90.2707695
0
LINE
8
0
10
337.6689111
20
-90.1243594
11
335.5904501
21
-91.3243594
0
LINE
8
0
10
335.44404
20
-91.8707695
11
336.64404
21
-93.9492305
0
LINE
8
0
10
337.1904501
20
-94.0956406
11
339.2689111
21
-92.8956406
0
ARC
8
0
10
337.8689111
20
-90.4707695
40
0.4
50
30
51
120
0
ARC
8
0
10
335.7904501
20
-91.6707695
40
0.4
50
120
51
210
0
ARC
8
0
10
336.9904501
20
-93.7492305
40
0.4
50
210
51
300
0
ARC
8
0
10
339.0689111
20
-92.5492305
40
0.4
50
300
51
30
0
LINE
8
0
10
317.9153212
20
-92.3492305
11
316.7153212
21
-90.2707695
0
LINE
8
0
10
316.1689111
20
-90.1243594
11
314.0904501
21
-91.3243594
0
LINE
8
0
10
313.94404
20
-91.8707695
11
315.14404
21
-93.9492305
0
LINE
8
0
10
315.6904501
20
-94.0956406
11
317.7689111
21
-92.8956406
0
ARC
8
0
10
316.3689111
20
-90.4707695
40
0.4
50
30
51
120
0
ARC
8
0
10
314.2904501
20
-91.6707695
40
0.4
50
120
51
210
0
ARC
8
0
10
315.4904501
20
-93.7492305
40
0.4
50
210
51
300
0
ARC
8
0
10
317.5689111
20
-92.5492305
40
0.4
50
300
51
30
0
LINE
8
0
10
310.45
20
-111.48
11
308.05
21
-111.48
0
LINE
8
0
10
307.65
20
-111.88
11
307.65
21
-114.28
0
LINE
8
0
10
308.05
20
-114.68
11
310.45
21
-114.68
0
LINE
8
0
10
310.85
20
-114.28
11
310.85
21
-111.88
0
ARC
8
0
10
308.05
20
-111.88
40
0.4
50
90
51
180
0
ARC
8
0
10
308.05
20
-114.28
40
0.4
50
180
51
270
0
ARC
8
0
10
310.45
20
-114.28
40
0.4
50
270
51
0
0
ARC
8
0
10
310.45
20
-111.88
40
0.4
50
0
51
90
0
LINE
8
0
10
353.45
20
-111.48
11
351.05
21
-111.48
0
LINE
8
0
10
350.65
20
-111.88
11
350.65
21
-114.28
0
LINE
8
0
10
351.05
20
-114.68
11
353.45
21
-114.68
0
LINE
8
0
10
353.85
20
-114.28
11
353.85
21
-111.88
0
ARC
8
0
10
351.05
20
-111.88
40
0.4
50
90
51
180
0
ARC
8
0
10
351.05
20
-114.28
40
0.4
50
180
51
270
0
ARC
8
0
10
353.45
20
-114.28
40
0.4
50
270
51
0
0
ARC
8
0
10
353.45
20
-111.88
40
0.4
50
0
51
90
0
LINE
8
0
10
331.95
20
-111.48
11
329.55
21
-111.48
0
LINE
8
0
10
329.15
20
-111.88
11
329.15
21
-114.28
0
LINE
8
0
10
329.55
20
-114.68
11
331.95
21
-114.68
0
LINE
8
0
10
332.35
20
-114.28
11
332.35
21
-111.88
0
ARC
8
0
10
329.55
20
-111.88
40
0.4
50
90
51
180
0
ARC
8
0
10
329.55
20
-114.28
40
0.4
50
180
51
270
0
ARC
8
0
10
331.95
20
-114.28
40
0.4
50
270
51
0
0
ARC
8
0
10
331.95
20
-111.88
40
0.4
50
0
51
90
0
LINE
8
0
10
321.2
20
-130.1
11
318.8
21
-130.1
0
LINE
8
0
10
318.4
20
-130.5
11
318.4
21
-132.9
0
LINE
8
0
10
318.8
20
-133.3
11
321.2
21
-133.3
0
LINE
8
0
10
321.6
20
-132.9
11
321.6
21
-130.5
0
ARC
8
0
10
318.8
20
-130.5
40
0.4
50
90
51
180
0
ARC
8
0
10
318.8
20
-132.9
40
0.4
50
180
51
270
0
ARC
8
0
10
321.2
20
-132.9
40
0.4
50
270
51
0
0
ARC
8
0
10
321.2
20
-130.5
40
0.4
50
0
51
90
0
LINE
8
0
10
275.8
20
-164.6041
11
278.2
21
-164.6041
0
LINE
8
0
10
278.6
20
-164.2041
11
278.6
21
-161.8041
0
LINE
8
0
10
278.2
20
-161.4041
11
275.8
21
-161.4041
0
LINE
8
0
10
275.4
20
-161.8041
11
275.4
21
-164.2041
0
ARC
8
0
10
278.2
20
-164.2041
40
0.4
50
270
51
0
0
ARC
8
0
10
278.2
20
-161.8041
40
0.4
50
0
51
90
0
ARC
8
0
10
275.8
20
-161.8041
40
0.4
50
90
51
180
0
ARC
8
0
10
275.8
20
-164.2041
40
0.4
50
180
51
270
0
LINE
8
0
10
233.73
20
-69.2012833
11
241.57
21
-69.2012833
0
LINE
8
0
10
266.43
20
-69.2012833
11
274.27
21
-69.2012833
0
LINE
8
0
10
277.27
20
-66.2012833
11
277.27
21
-63.2012833
0
LINE
8
0
10
230.73
20
-63.2012833
11
230.73
21
-66.2012833
0
LINE
8
0
10
263.43
20
-66.2012833
11
263.43
21
-63.2012833
0
LINE
8
0
10
244.57
20
-63.2012833
11
244.57
21
-66.2012833
0
ARC
8
0
10
241.57
20
-66.2012833
40
3
50
270
51
0
0
ARC
8
0
10
266.43
20
-66.2012833
40
3
50
180
51
270
0
ARC
8
0
10
274.27
20
-66.2012833
40
3
50
270
51
0
0
ARC
8
0
10
233.73
20
-66.2012833
40
3
50
180
51
270
0
ENDSEC
0
EOF