0
SECTION
2
HEADER
9
$INSUNITS
70
4
0
ENDSEC
0
SECTION
2
TABLES
0
TABLE
2
LTYPE
0
LTYPE
72
65
70
64
2
CONTINUOUS
3
______
73
0
40
0
0
ENDTAB
0
TABLE
2
LAYER
0
ENDTAB
0
ENDSEC
0
SECTION
2
ENTITIES
0
LINE
8
0
10
240.2100259
20
-174.4015318
11
232.8650293
21
-178.642265
0
LINE
8
0
10
229.5949713
20
-178.642264
11
221.9799726
21
-174.2456354
0
LINE
8
0
10
197.4799726
20
-160.1002091
11
189.8649701
21
-155.7035782
0
LINE
8
0
10
188.23
20
-152.8716923
11
188.23
21
-141.3012457
0
LINE
8
0
10
186.5950299
20
-138.4693598
11
178.9799726
21
-134.0726974
0
LINE
8
0
10
154.4799726
20
-119.9272711
11
146.7299726
21
-115.4526974
0
LINE
8
0
10
134.48
20
-94.234637
11
134.48
21
-85.2853631
0
LINE
8
0
10
146.7299726
20
-64.0673027
11
154.4799726
21
-59.592729
0
LINE
8
0
10
178.9800274
20
-59.592729
11
186.5949702
21
-63.9893254
0
LINE
8
0
10
189.8650298
20
-63.9893254
11
197.4799726
21
-59.592729
0
LINE
8
0
10
221.9800268
20
-59.5927272
11
227.9312593
21
-63.0287506
0
LINE
8
0
10
280.0687407
20
-63.0287506
11
286.0199732
21
-59.5927272
0
LINE
8
0
10
310.5200274
20
-59.592729
11
318.1349702
21
-63.9893254
0
LINE
8
0
10
321.4050298
20
-63.9893254
11
329.0199726
21
-59.592729
0
LINE
8
0
10
353.5200274
20
-59.592729
11
361.2700274
21
-64.0673027
0
LINE
8
0
10
373.52
20
-85.2853631
11
373.52
21
-94.234637
0
LINE
8
0
10
361.2700274
20
-115.4526974
11
353.5200274
21
-119.9272711
0
LINE
8
0
10
329.0200274
20
-134.0726974
11
321.4049701
21
-138.4693598
0
LINE
8
0
10
319.77
20
-141.3012457
11
319.77
21
-152.8716923
0
LINE
8
0
10
318.1350299
20
-155.7035782
11
310.5200274
21
-160.1002091
0
LINE
8
0
10
286.0200274
20
-174.2456354
11
278.4050287
21
-178.642264
0
LINE
8
0
10
275.1349707
20
-178.642265
11
267.7899741
21
-174.4015318
0
LINE
8
0
10
278.4337117
20
-63.4668643
11
277.04
21
-63.4668643
0
LINE
8
0
10
230.96
20
-63.4668643
11
229.5662883
21
-63.4668643
0
LINE
8
0
10
263.43
20
-63.4668643
11
244.57
21
-63.4668643
0
ARC
8
0
10
231.2300011
20
-175.8103782
40
3.27
50
239.9993965
51
300.0005701
0
ARC
8
0
10
191.5
20
-152.8716923
40
3.27
50
180
51
239.9993858
0
ARC
8
0
10
184.96
20
-141.3012457
40
3.27
50
0
51
59.9993858
0
ARC
8
0
10
188.23
20
-61.1574395
40
3.27
50
239.9993965
51
300.0006035
0
ARC
8
0
10
229.5662883
20
-60.1968643
40
3.27
50
239.9994122
51
270
0
ARC
8
0
10
278.4337117
20
-60.1968643
40
3.27
50
270
51
300.0005878
0
ARC
8
0
10
319.77
20
-61.1574395
40
3.27
50
239.9993965
51
300.0006035
0
ARC
8
0
10
323.04
20
-141.3012457
40
3.27
50
120.0006142
51
180
0
ARC
8
0
10
316.5
20
-152.8716923
40
3.27
50
300.0006142
51
0
0
ARC
8
0
10
276.7699989
20
-175.8103782
40
3.27
50
239.9994299
51
300.0006035
0
LINE
8
0
10
241.71
20
-171.8034705
11
241.71
21
-162.386532
0
LINE
8
0
10
240.2100274
20
-159.7884716
11
232.4599726
21
-155.3138663
0
LINE
8
0
10
230.96
20
-152.7158059
11
230.96
21
-128.4202621
0
LINE
8
0
10
232.4599745
20
-125.8222006
11
252.4999745
21
-114.2518384
0
LINE
8
0
10
255.5000255
20
-114.2518384
11
275.5400255
21
-125.8222006
0
LINE
8
0
10
277.04
20
-128.4202621
11
277.04
21
-152.7158059
0
LINE
8
0
10
275.5400274
20
-155.3138663
11
267.7899726
21
-159.7884716
0
LINE
8
0
10
266.29
20
-162.386532
11
266.29
21
-171.8034705
0
LINE
8
0
10
145.23
20
-66.6653631
11
145.23
21
-75.614637
0
LINE
8
0
10
143.7300274
20
-78.2126974
11
135.9799726
21
-82.6873027
0
LINE
8
0
10
165.2299726
20
-64.0672711
11
157.4800274
21
-59.592729
0
LINE
8
0
10
175.9799726
20
-59.592729
11
168.2300274
21
-64.0672711
0
LINE
8
0
10
208.2299726
20
-64.0672711
11
200.4800274
21
-59.592729
0
LINE
8
0
10
218.9799739
20
-59.5927283
11
211.2300274
21
-64.0672711
0
LINE
8
0
10
372.0200274
20
-82.6873027
11
364.2699726
21
-78.2126974
0
LINE
8
0
10
362.77
20
-75.614637
11
362.77
21
-66.6653631
0
LINE
8
0
10
339.7699726
20
-64.0672711
11
332.0200274
21
-59.592729
0
LINE
8
0
10
350.5199726
20
-59.592729
11
342.7700274
21
-64.0672711
0
LINE
8
0
10
296.7699726
20
-64.0672711
11
289.0200261
21
-59.5927283
0
LINE
8
0
10
307.5199726
20
-59.592729
11
299.7700274
21
-64.0672711
0
LINE
8
0
10
135.9799726
20
-96.8326974
11
143.7300274
21
-101.3073027
0
LINE
8
0
10
145.23
20
-103.9053631
11
145.23
21
-112.854637
0
LINE
8
0
10
157.4800274
20
-119.9272711
11
165.2299726
21
-115.452729
0
LINE
8
0
10
168.2300274
20
-115.452729
11
175.9800274
21
-119.9273027
0
LINE
8
0
10
177.48
20
-122.5253631
11
177.48
21
-131.474637
0
LINE
8
0
10
200.4800274
20
-160.1002091
11
208.2299726
21
-155.625667
0
LINE
8
0
10
211.2300274
20
-155.625667
11
218.9800274
21
-160.1002407
0
LINE
8
0
10
220.48
20
-162.6983011
11
220.48
21
-171.647575
0
LINE
8
0
10
362.77
20
-112.854637
11
362.77
21
-103.9053631
0
LINE
8
0
10
364.2699726
20
-101.3073027
11
372.0200274
21
-96.8326974
0
LINE
8
0
10
330.52
20
-131.474637
11
330.52
21
-122.5253631
0
LINE
8
0
10
332.0199726
20
-119.9273027
11
339.7699726
21
-115.452729
0
LINE
8
0
10
342.7700274
20
-115.452729
11
350.5199726
21
-119.9272711
0
LINE
8
0
10
287.52
20
-171.647575
11
287.52
21
-162.6983011
0
LINE
8
0
10
289.0199726
20
-160.1002407
11
296.7699726
21
-155.625667
0
LINE
8
0
10
299.7700274
20
-155.625667
11
307.5199726
21
-160.1002091
0
ARC
8
0
10
223.48
20
-171.647575
40
3
50
180
51
239.9993965
0
ARC
8
0
10
217.48
20
-162.6983011
40
3
50
0
51
59.9993965
0
ARC
8
0
10
209.73
20
-158.2237274
40
3
50
59.9993965
51
120.0006035
0
ARC
8
0
10
198.98
20
-157.5021487
40
3
50
239.9993965
51
300.0006035
0
ARC
8
0
10
191.3649975
20
-153.1055177
40
3
50
239.9993858
51
239.9993965
0
ARC
8
0
10
185.0950025
20
-141.0674203
40
3
50
59.9993858
51
59.9993965
0
ARC
8
0
10
180.48
20
-131.474637
40
3
50
180
51
239.9993965
0
ARC
8
0
10
174.48
20
-122.5253631
40
3
50
0
51
59.9993965
0
ARC
8
0
10
166.73
20
-118.0507894
40
3
50
59.9993965
51
120.0006035
0
ARC
8
0
10
155.98
20
-117.3292107
40
3
50
239.9993965
51
300.0006035
0
ARC
8
0
10
148.23
20
-112.854637
40
3
50
180
51
239.9993965
0
ARC
8
0
10
142.23
20
-103.9053631
40
3
50
0
51
59.9993965
0
ARC
8
0
10
137.48
20
-94.234637
40
3
50
180
51
239.9993965
0
ARC
8
0
10
137.48
20
-85.2853631
40
3
50
120.0006035
51
180
0
ARC
8
0
10
142.23
20
-75.614637
40
3
50
300.0006035
51
0
0
ARC
8
0
10
148.23
20
-66.6653631
40
3
50
120.0006035
51
180
0
ARC
8
0
10
155.98
20
-62.1907894
40
3
50
59.9993965
51
120.0006035
0
ARC
8
0
10
166.73
20
-61.4692107
40
3
50
239.9993965
51
300.0006035
0
ARC
8
0
10
177.48
20
-62.1907894
40
3
50
59.9993965
51
120.0006035
0
ARC
8
0
10
198.98
20
-62.1907894
40
3
50
59.9993965
51
120.0006035
0
ARC
8
0
10
209.73
20
-61.4692107
40
3
50
239.9993965
51
300.0006035
0
ARC
8
0
10
220.4800013
20
-62.1907887
40
3
50
59.9994378
51
120.0006035
0
ARC
8
0
10
287.5199987
20
-62.1907887
40
3
50
59.9993965
51
120.0005622
0
ARC
8
0
10
298.27
20
-61.4692107
40
3
50
239.9993965
51
300.0006035
0
ARC
8
0
10
309.02
20
-62.1907894
40
3
50
59.9993965
51
120.0006035
0
ARC
8
0
10
330.52
20
-62.1907894
40
3
50
59.9993965
51
120.0006035
0
ARC
8
0
10
341.27
20
-61.4692107
40
3
50
239.9993965
51
300.0006035
0
ARC
8
0
10
352.02
20
-62.1907894
40
3
50
59.9993965
51
120.0006035
0
ARC
8
0
10
359.77
20
-66.6653631
40
3
50
0
51
59.9993965
0
ARC
8
0
10
365.77
20
-75.614637
40
3
50
180
51
239.9993965
0
ARC
8
0
10
370.52
20
-85.2853631
40
3
50
0
51
59.9993965
0
ARC
8
0
10
370.52
20
-94.234637
40
3
50
300.0006035
51
0
0
ARC
8
0
10
365.77
20
-103.9053631
40
3
50
120.0006035
51
180
0
ARC
8
0
10
359.77
20
-112.854637
40
3
50
300.0006035
51
0
0
ARC
8
0
10
352.02
20
-117.3292107
40
3
50
239.9993965
51
300.0006035
0
ARC
8
0
10
341.27
20
-118.0507894
40
3
50
59.9993965
51
120.0006035
0
ARC
8
0
10
333.52
20
-122.5253631
40
3
50
120.0006035
51
180
0
ARC
8
0
10
327.52
20
-131.474637
40
3
50
300.0006035
51
0
0
ARC
8
0
10
322.9049975
20
-141.0674203
40
3
50
120.0006035
51
120.0006142
0
ARC
8
0
10
316.6350025
20
-153.1055177
40
3
50
300.0006035
51
300.0006142
0
ARC
8
0
10
309.02
20
-157.5021487
40
3
50
239.9993965
51
300.0006035
0
ARC
8
0
10
298.27
20
-158.2237274
40
3
50
59.9993965
51
120.0006035
0
ARC
8
0
10
290.52
20
-162.6983011
40
3
50
120.0006035
51
180
0
ARC
8
0
10
284.52
20
-171.647575
40
3
50
300.0006035
51
0
0
ARC
8
0
10
269.29
20
-171.8034705
40
3
50
180
51
239.9994299
0
ARC
8
0
10
269.29
20
-162.386532
40
3
50
120.0006035
51
180
0
ARC
8
0
10
274.04
20
-152.7158059
40
3
50
300.0006035
51
0
0
ARC
8
0
10
274.04
20
-128.4202621
40
3
50
0
51
59.9994378
0
ARC
8
0
10
254
20
-116.8498999
40
3
50
59.9994378
51
120.0005622
0
ARC
8
0
10
233.96
20
-128.4202621
40
3
50
120.0005622
51
180
0
ARC
8
0
10
233.96
20
-152.7158059
40
3
50
180
51
239.9993965
0
ARC
8
0
10
238.71
20
-162.386532
40
3
50
0
51
59.9993965
0
ARC
8
0
10
238.71
20
-171.8034705
40
3
50
300.0005701
51
0
0
LINE
8
0
10
154.78
20
-68.04
11
157.18
21
-68.04
0
LINE
8
0
10
157.58
20
-67.64
11
157.58
21
-65.24
0
LINE
8
0
10
157.18
20
-64.84
11
154.78
21
-64.84
0
LINE
8
0
10
154.38
20
-65.24
11
154.38
21
-67.64
0
ARC
8
0
10
157.18
20
-67.64
40
0.4
50
270
51
0
0
ARC
8
0
10
157.18
20
-65.24
40
0.4
50
0
51
90
0
ARC
8
0
10
154.78
20
-65.24
40
0.4
50
90
51
180
0
ARC
8
0
10
154.78
20
-67.64
40
0.4
50
180
51
270
0
LINE
8
0
10
179.5646788
20
-68.5507695
11
180.7646788
21
-70.6292305
0
LINE
8
0
10
181.3110889
20
-70.7756406
11
183.3895499
21
-69.5756406
0
LINE
8
0
10
183.53596
20
-69.0292305
11
182.33596
21
-66.9507695
0
LINE
8
0
10
181.7895499
20
-66.8043594
11
179.7110889
21
-68.0043594
0
ARC
8
0
10
181.1110889
20
-70.4292305
40
0.4
50
210
51
300
0
ARC
8
0
10
183.1895499
20
-69.2292305
40
0.4
50
300
51
30
0
ARC
8
0
10
181.9895499
20
-67.1507695
40
0.4
50
30
51
120
0
ARC
8
0
10
179.9110889
20
-68.3507695
40
0.4
50
120
51
210
0
LINE
8
0
10
222.5646788
20
-68.5507695
11
223.7646788
21
-70.6292305
0
LINE
8
0
10
224.3110889
20
-70.7756406
11
226.3895499
21
-69.5756406
0
LINE
8
0
10
226.53596
20
-69.0292305
11
225.33596
21
-66.9507695
0
LINE
8
0
10
224.7895499
20
-66.8043594
11
222.7110889
21
-68.0043594
0
ARC
8
0
10
224.1110889
20
-70.4292305
40
0.4
50
210
51
300
0
ARC
8
0
10
226.1895499
20
-69.2292305
40
0.4
50
300
51
30
0
ARC
8
0
10
224.9895499
20
-67.1507695
40
0.4
50
30
51
120
0
ARC
8
0
10
222.9110889
20
-68.3507695
40
0.4
50
120
51
210
0
LINE
8
0
10
143.1453212
20
-92.3492305
11
141.9453212
21
-90.2707695
0
LINE
8
0
10
141.3989111
20
-90.1243594
11
139.3204501
21
-91.3243594
0
LINE
8
0
10
139.17404
20
-91.8707695
11
140.37404
21
-93.9492305
0
LINE
8
0
10
140.9204501
20
-94.0956406
11
142.9989111
21
-92.8956406
0
ARC
8
0
10
141.5989111
20
-90.4707695
40
0.4
50
30
51
120
0
ARC
8
0
10
139.5204501
20
-91.6707695
40
0.4
50
120
51
210
0
ARC
8
0
10
140.7204501
20
-93.7492305
40
0.4
50
210
51
300
0
ARC
8
0
10
142.7989111
20
-92.5492305
40
0.4
50
300
51
30
0
LINE
8
0
10
201.0646788
20
-68.5507695
11
202.2646788
21
-70.6292305
0
LINE
8
0
10
202.8110889
20
-70.7756406
11
204.8895499
21
-69.5756406
0
LINE
8
0
10
205.03596
20
-69.0292305
11
203.83596
21
-66.9507695
0
LINE
8
0
10
203.2895499
20
-66.8043594
11
201.2110889
21
-68.0043594
0
ARC
8
0
10
202.6110889
20
-70.4292305
40
0.4
50
210
51
300
0
ARC
8
0
10
204.6895499
20
-69.2292305
40
0.4
50
300
51
30
0
ARC
8
0
10
203.4895499
20
-67.1507695
40
0.4
50
30
51
120
0
ARC
8
0
10
201.4110889
20
-68.3507695
40
0.4
50
120
51
210
0
LINE
8
0
10
213.0146788
20
-90.2707695
11
211.8146788
21
-92.3492305
0
LINE
8
0
10
211.9610889
20
-92.8956406
11
214.0395499
21
-94.0956406
0
LINE
8
0
10
214.58596
20
-93.9492305
11
215.78596
21
-91.8707695
0
LINE
8
0
10
215.6395499
20
-91.3243594
11
213.5610889
21
-90.1243594
0
ARC
8
0
10
212.1610889
20
-92.5492305
40
0.4
50
150
51
240
0
ARC
8
0
10
214.2395499
20
-93.7492305
40
0.4
50
240
51
330
0
ARC
8
0
10
215.4395499
20
-91.6707695
40
0.4
50
330
51
60
0
ARC
8
0
10
213.3610889
20
-90.4707695
40
0.4
50
60
51
150
0
LINE
8
0
10
170.0146788
20
-90.2707695
11
168.8146788
21
-92.3492305
0
LINE
8
0
10
168.9610889
20
-92.8956406
11
171.0395499
21
-94.0956406
0
LINE
8
0
10
171.58596
20
-93.9492305
11
172.78596
21
-91.8707695
0
LINE
8
0
10
172.6395499
20
-91.3243594
11
170.5610889
21
-90.1243594
0
ARC
8
0
10
169.1610889
20
-92.5492305
40
0.4
50
150
51
240
0
ARC
8
0
10
171.2395499
20
-93.7492305
40
0.4
50
240
51
330
0
ARC
8
0
10
172.4395499
20
-91.6707695
40
0.4
50
330
51
60
0
ARC
8
0
10
170.3610889
20
-90.4707695
40
0.4
50
60
51
150
0
LINE
8
0
10
191.5146788
20
-90.2707695
11
190.3146788
21
-92.3492305
0
LINE
8
0
10
190.4610889
20
-92.8956406
11
192.5395499
21
-94.0956406
0
LINE
8
0
10
193.08596
20
-93.9492305
11
194.28596
21
-91.8707695
0
LINE
8
0
10
194.1395499
20
-91.3243594
11
192.0610889
21
-90.1243594
0
ARC
8
0
10
190.6610889
20
-92.5492305
40
0.4
50
150
51
240
0
ARC
8
0
10
192.7395499
20
-93.7492305
40
0.4
50
240
51
330
0
ARC
8
0
10
193.9395499
20
-91.6707695
40
0.4
50
330
51
60
0
ARC
8
0
10
191.8610889
20
-90.4707695
40
0.4
50
60
51
150
0
LINE
8
0
10
200.18
20
-111.48
11
197.78
21
-111.48
0
LINE
8
0
10
197.38
20
-111.88
11
197.38
21
-114.28
0
LINE
8
0
10
197.78
20
-114.68
11
200.18
21
-114.68
0
LINE
8
0
10
200.58
20
-114.28
11
200.58
21
-111.88
0
ARC
8
0
10
197.78
20
-111.88
40
0.4
50
90
51
180
0
ARC
8
0
10
197.78
20
-114.28
40
0.4
50
180
51
270
0
ARC
8
0
10
200.18
20
-114.28
40
0.4
50
270
51
0
0
ARC
8
0
10
200.18
20
-111.88
40
0.4
50
0
51
90
0
LINE
8
0
10
157.18
20
-111.48
11
154.78
21
-111.48
0
LINE
8
0
10
154.38
20
-111.88
11
154.38
21
-114.28
0
LINE
8
0
10
154.78
20
-114.68
11
157.18
21
-114.68
0
LINE
8
0
10
157.58
20
-114.28
11
157.58
21
-111.88
0
ARC
8
0
10
154.78
20
-111.88
40
0.4
50
90
51
180
0
ARC
8
0
10
154.78
20
-114.28
40
0.4
50
180
51
270
0
ARC
8
0
10
157.18
20
-114.28
40
0.4
50
270
51
0
0
ARC
8
0
10
157.18
20
-111.88
40
0.4
50
0
51
90
0
LINE
8
0
10
178.68
20
-111.48
11
176.28
21
-111.48
0
LINE
8
0
10
175.88
20
-111.88
11
175.88
21
-114.28
0
LINE
8
0
10
176.28
20
-114.68
11
178.68
21
-114.68
0
LINE
8
0
10
179.08
20
-114.28
11
179.08
21
-111.88
0
ARC
8
0
10
176.28
20
-111.88
40
0.4
50
90
51
180
0
ARC
8
0
10
176.28
20
-114.28
40
0.4
50
180
51
270
0
ARC
8
0
10
178.68
20
-114.28
40
0.4
50
270
51
0
0
ARC
8
0
10
178.68
20
-111.88
40
0.4
50
0
51
90
0
LINE
8
0
10
189.43
20
-130.1
11
187.03
21
-130.1
0
LINE
8
0
10
186.63
20
-130.5
11
186.63
21
-132.9
0
LINE
8
0
10
187.03
20
-133.3
11
189.43
21
-133.3
0
LINE
8
0
10
189.83
20
-132.9
11
189.83
21
-130.5
0
ARC
8
0
10
187.03
20
-130.5
40
0.4
50
90
51
180
0
ARC
8
0
10
187.03
20
-132.9
40
0.4
50
180
51
270
0
ARC
8
0
10
189.43
20
-132.9
40
0.4
50
270
51
0
0
ARC
8
0
10
189.43
20
-130.5
40
0.4
50
0
51
90
0
LINE
8
0
10
230.03
20
-164.072938
11
232.43
21
-164.072938
0
LINE
8
0
10
232.83
20
-163.672938
11
232.83
21
-161.272938
0
LINE
8
0
10
232.43
20
-160.872938
11
230.03
21
-160.872938
0
LINE
8
0
10
229.63
20
-161.272938
11
229.63
21
-163.672938
0
ARC
8
0
10
232.43
20
-163.672938
40
0.4
50
270
51
0
0
ARC
8
0
10
232.43
20
-161.272938
40
0.4
50
0
51
90
0
ARC
8
0
10
230.03
20
-161.272938
40
0.4
50
90
51
180
0
ARC
8
0
10
230.03
20
-163.672938
40
0.4
50
180
51
270
0
LINE
8
0
10
350.82
20
-68.04
11
353.22
21
-68.04
0
LINE
8
0
10
353.62
20
-67.64
11
353.62
21
-65.24
0
LINE
8
0
10
353.22
20
-64.84
11
350.82
21
-64.84
0
LINE
8
0
10
350.42
20
-65.24
11
350.42
21
-67.64
0
ARC
8
0
10
353.22
20
-67.64
40
0.4
50
270
51
0
0
ARC
8
0
10
353.22
20
-65.24
40
0.4
50
0
51
90
0
ARC
8
0
10
350.82
20
-65.24
40
0.4
50
90
51
180
0
ARC
8
0
10
350.82
20
-67.64
40
0.4
50
180
51
270
0
LINE
8
0
10
327.2353212
20
-70.6292305
11
328.4353212
21
-68.5507695
0
LINE
8
0
10
328.2889111
20
-68.0043594
11
326.2104501
21
-66.8043594
0
LINE
8
0
10
325.66404
20
-66.9507695
11
324.46404
21
-69.0292305
0
LINE
8
0
10
324.6104501
20
-69.5756406
11
326.6889111
21
-70.7756406
0
ARC
8
0
10
328.0889111
20
-68.3507695
40
0.4
50
330
51
60
0
ARC
8
0
10
326.0104501
20
-67.1507695
40
0.4
50
60
51
150
0
ARC
8
0
10
324.8104501
20
-69.2292305
40
0.4
50
150
51
240
0
ARC
8
0
10
326.8889111
20
-70.4292305
40
0.4
50
240
51
330
0
LINE
8
0
10
284.2353212
20
-70.6292305
11
285.4353212
21
-68.5507695
0
LINE
8
0
10
285.2889111
20
-68.0043594
11
283.2104501
21
-66.8043594
0
LINE
8
0
10
282.66404
20
-66.9507695
11
281.46404
21
-69.0292305
0
LINE
8
0
10
281.6104501
20
-69.5756406
11
283.6889111
21
-70.7756406
0
ARC
8
0
10
285.0889111
20
-68.3507695
40
0.4
50
330
51
60
0
ARC
8
0
10
283.0104501
20
-67.1507695
40
0.4
50
60
51
150
0
ARC
8
0
10
281.8104501
20
-69.2292305
40
0.4
50
150
51
240
0
ARC
8
0
10
283.8889111
20
-70.4292305
40
0.4
50
240
51
330
0
LINE
8
0
10
366.0546788
20
-90.2707695
11
364.8546788
21
-92.3492305
0
LINE
8
0
10
365.0010889
20
-92.8956406
11
367.0795499
21
-94.0956406
0
LINE
8
0
10
367.62596
20
-93.9492305
11
368.82596
21
-91.8707695
0
LINE
8
0
10
368.6795499
20
-91.3243594
11
366.6010889
21
-90.1243594
0
ARC
8
0
10
365.2010889
20
-92.5492305
40
0.4
50
150
51
240
0
ARC
8
0
10
367.2795499
20
-93.7492305
40
0.4
50
240
51
330
0
ARC
8
0
10
368.4795499
20
-91.6707695
40
0.4
50
330
51
60
0
ARC
8
0
10
366.4010889
20
-90.4707695
40
0.4
50
60
51
150
0
LINE
8
0
10
305.7353212
20
-70.6292305
11
306.9353212
21
-68.5507695
0
LINE
8
0
10
306.7889111
20
-68.0043594
11
304.7104501
21
-66.8043594
0
LINE
8
0
10
304.16404
20
-66.9507695
11
302.96404
21
-69.0292305
0
LINE
8
0
10
303.1104501
20
-69.5756406
11
305.1889111
21
-70.7756406
0
ARC
8
0
10
306.5889111
20
-68.3507695
40
0.4
50
330
51
60
0
ARC
8
0
10
304.5104501
20
-67.1507695
40
0.4
50
60
51
150
0
ARC
8
0
10
303.3104501
20
-69.2292305
40
0.4
50
150
51
240
0
ARC
8
0
10
305.3889111
20
-70.4292305
40
0.4
50
240
51
330
0
LINE
8
0
10
296.1853212
20
-92.3492305
11
294.9853212
21
-90.2707695
0
LINE
8
0
10
294.4389111
20
-90.1243594
11
292.3604501
21
-91.3243594
0
LINE
8
0
10
292.21404
20
-91.8707695
11
293.41404
21
-93.9492305
0
LINE
8
0
10
293.9604501
20
-94.0956406
11
296.0389111
21
-92.8956406
0
ARC
8
0
10
294.6389111
20
-90.4707695
40
0.4
50
30
51
120
0
ARC
8
0
10
292.5604501
20
-91.6707695
40
0.4
50
120
51
210
0
ARC
8
0
10
293.7604501
20
-93.7492305
40
0.4
50
210
51
300
0
ARC
8
0
10
295.8389111
20
-92.5492305
40
0.4
50
300
51
30
0
LINE
8
0
10
339.1853212
20
-92.3492305
11
337.9853212
21
-90.2707695
0
LINE
8
0
10
337.4389111
20
-90.1243594
11
335.3604501
21
-91.3243594
0
LINE
8
0
10
335.21404
20
-91.8707695
11
336.41404
21
-93.9492305
0
LINE
8
0
10
336.9604501
20
-94.0956406
11
339.0389111
21
-92.8956406
0
ARC
8
0
10
337.6389111
20
-90.4707695
40
0.4
50
30
51
120
0
ARC
8
0
10
335.5604501
20
-91.6707695
40
0.4
50
120
51
210
0
ARC
8
0
10
336.7604501
20
-93.7492305
40
0.4
50
210
51
300
0
ARC
8
0
10
338.8389111
20
-92.5492305
40
0.4
50
300
51
30
0
LINE
8
0
10
317.6853212
20
-92.3492305
11
316.4853212
21
-90.2707695
0
LINE
8
0
10
315.9389111
20
-90.1243594
11
313.8604501
21
-91.3243594
0
LINE
8
0
10
313.71404
20
-91.8707695
11
314.91404
21
-93.9492305
0
LINE
8
0
10
315.4604501
20
-94.0956406
11
317.5389111
21
-92.8956406
0
ARC
8
0
10
316.1389111
20
-90.4707695
40
0.4
50
30
51
120
0
ARC
8
0
10
314.0604501
20
-91.6707695
40
0.4
50
120
51
210
0
ARC
8
0
10
315.2604501
20
-93.7492305
40
0.4
50
210
51
300
0
ARC
8
0
10
317.3389111
20
-92.5492305
40
0.4
50
300
51
30
0
LINE
8
0
10
310.22
20
-111.48
11
307.82
21
-111.48
0
LINE
8
0
10
307.42
20
-111.88
11
307.42
21
-114.28
0
LINE
8
0
10
307.82
20
-114.68
11
310.22
21
-114.68
0
LINE
8
0
10
310.62
20
-114.28
11
310.62
21
-111.88
0
ARC
8
0
10
307.82
20
-111.88
40
0.4
50
90
51
180
0
ARC
8
0
10
307.82
20
-114.28
40
0.4
50
180
51
270
0
ARC
8
0
10
310.22
20
-114.28
40
0.4
50
270
51
0
0
ARC
8
0
10
310.22
20
-111.88
40
0.4
50
0
51
90
0
LINE
8
0
10
353.22
20
-111.48
11
350.82
21
-111.48
0
LINE
8
0
10
350.42
20
-111.88
11
350.42
21
-114.28
0
LINE
8
0
10
350.82
20
-114.68
11
353.22
21
-114.68
0
LINE
8
0
10
353.62
20
-114.28
11
353.62
21
-111.88
0
ARC
8
0
10
350.82
20
-111.88
40
0.4
50
90
51
180
0
ARC
8
0
10
350.82
20
-114.28
40
0.4
50
180
51
270
0
ARC
8
0
10
353.22
20
-114.28
40
0.4
50
270
51
0
0
ARC
8
0
10
353.22
20
-111.88
40
0.4
50
0
51
90
0
LINE
8
0
10
331.72
20
-111.48
11
329.32
21
-111.48
0
LINE
8
0
10
328.92
20
-111.88
11
328.92
21
-114.28
0
LINE
8
0
10
329.32
20
-114.68
11
331.72
21
-114.68
0
LINE
8
0
10
332.12
20
-114.28
11
332.12
21
-111.88
0
ARC
8
0
10
329.32
20
-111.88
40
0.4
50
90
51
180
0
ARC
8
0
10
329.32
20
-114.28
40
0.4
50
180
51
270
0
ARC
8
0
10
331.72
20
-114.28
40
0.4
50
270
51
0
0
ARC
8
0
10
331.72
20
-111.88
40
0.4
50
0
51
90
0
LINE
8
0
10
320.97
20
-130.1
11
318.57
21
-130.1
0
LINE
8
0
10
318.17
20
-130.5
11
318.17
21
-132.9
0
LINE
8
0
10
318.57
20
-133.3
11
320.97
21
-133.3
0
LINE
8
0
10
321.37
20
-132.9
11
321.37
21
-130.5
0
ARC
8
0
10
318.57
20
-130.5
40
0.4
50
90
51
180
0
ARC
8
0
10
318.57
20
-132.9
40
0.4
50
180
51
270
0
ARC
8
0
10
320.97
20
-132.9
40
0.4
50
270
51
0
0
ARC
8
0
10
320.97
20
-130.5
40
0.4
50
0
51
90
0
LINE
8
0
10
275.57
20
-164.072938
11
277.97
21
-164.072938
0
LINE
8
0
10
278.37
20
-163.672938
11
278.37
21
-161.272938
0
LINE
8
0
10
277.97
20
-160.872938
11
275.57
21
-160.872938
0
LINE
8
0
10
275.17
20
-161.272938
11
275.17
21
-163.672938
0
ARC
8
0
10
277.97
20
-163.672938
40
0.4
50
270
51
0
0
ARC
8
0
10
277.97
20
-161.272938
40
0.4
50
0
51
90
0
ARC
8
0
10
275.57
20
-161.272938
40
0.4
50
90
51
180
0
ARC
8
0
10
275.57
20
-163.672938
40
0.4
50
180
51
270
0
LINE
8
0
10
233.96
20
-69.4668643
11
241.57
21
-69.4668643
0
LINE
8
0
10
266.43
20
-69.4668643
11
274.04
21
-69.4668643
0
LINE
8
0
10
277.04
20
-66.4668643
11
277.04
21
-63.4668643
0
LINE
8
0
10
230.96
20
-63.4668643
11
230.96
21
-66.4668643
0
LINE
8
0
10
263.43
20
-66.4668643
11
263.43
21
-63.4668643
0
LINE
8
0
10
244.57
20
-63.4668643
11
244.57
21
-66.4668643
0
ARC
8
0
10
241.57
20
-66.4668643
40
3
50
270
51
0
0
ARC
8
0
10
266.43
20
-66.4668643
40
3
50
180
51
270
0
ARC
8
0
10
274.04
20
-66.4668643
40
3
50
270
51
0
0
ARC
8
0
10
233.96
20
-66.4668643
40
3
50
180
51
270
0
ENDSEC
0
EOF