0
SECTION
2
HEADER
9
$INSUNITS
70
4
0
ENDSEC
0
SECTION
2
TABLES
0
TABLE
2
LTYPE
0
LTYPE
72
65
70
64
2
CONTINUOUS
3
______
73
0
40
0
0
ENDTAB
0
TABLE
2
LAYER
0
ENDTAB
0
ENDSEC
0
SECTION
2
ENTITIES
0
LINE
8
0
10
239.7100301
20
-175.0885807
11
232.6350291
21
-179.1734273
0
LINE
8
0
10
229.3649715
20
-179.1734261
11
221.8849702
21
-174.8547402
0
LINE
8
0
10
189.6349702
20
-156.2347402
11
207.8649702
21
-166.7600922
0
LINE
8
0
10
188
20
-153.4028543
11
188
21
-141.3012457
0
LINE
8
0
10
186.3650298
20
-138.4693598
11
178.8849702
21
-134.1506402
0
LINE
8
0
10
135.8849702
20
-109.3239735
11
164.8649702
21
-126.0559922
0
LINE
8
0
10
134.25
20
-106.4920876
11
134.25
21
-85.4412458
0
LINE
8
0
10
146.6349702
20
-63.9893599
11
164.8649702
21
-53.4640079
0
LINE
8
0
10
168.1350298
20
-53.4640079
11
186.3649702
21
-63.9893254
0
LINE
8
0
10
189.6350298
20
-63.9893254
11
207.8649708
21
-53.4640075
0
LINE
8
0
10
211.1350295
20
-53.4640069
11
223.3131607
21
-60.4952198
0
LINE
8
0
10
284.6868393
20
-60.4952198
11
296.8649705
21
-53.4640069
0
LINE
8
0
10
300.1350292
20
-53.4640075
11
318.3649702
21
-63.9893254
0
LINE
8
0
10
321.6350298
20
-63.9893254
11
339.8649702
21
-53.4640079
0
LINE
8
0
10
343.1350298
20
-53.4640079
11
361.3650298
21
-63.9893599
0
LINE
8
0
10
373.75
20
-85.4412458
11
373.75
21
-106.4920876
0
LINE
8
0
10
343.1350298
20
-126.0559922
11
372.1150298
21
-109.3239735
0
LINE
8
0
10
329.1150298
20
-134.1506402
11
321.6349702
21
-138.4693598
0
LINE
8
0
10
320
20
-141.3012457
11
320
21
-153.4028543
0
LINE
8
0
10
300.1350298
20
-166.7600922
11
318.3650298
21
-156.2347402
0
LINE
8
0
10
286.1150298
20
-174.8547402
11
278.6350285
21
-179.1734261
0
LINE
8
0
10
275.3649709
20
-179.1734273
11
268.2899699
21
-175.0885807
0
LINE
8
0
10
283.0518104
20
-60.9333333
11
277.27
21
-60.9333333
0
LINE
8
0
10
230.73
20
-60.9333333
11
224.9481896
21
-60.9333333
0
ARC
8
0
10
231.0000013
20
-176.3415403
40
3.27
50
239.9993965
51
300.0005622
0
ARC
8
0
10
191.27
20
-153.4028543
40
3.27
50
180
51
239.9993965
0
ARC
8
0
10
184.73
20
-141.3012457
40
3.27
50
0
51
59.9993965
0
ARC
8
0
10
137.52
20
-106.4920876
40
3.27
50
180
51
239.9993965
0
ARC
8
0
10
166.5
20
-56.2958938
40
3.27
50
59.9993965
51
120.0006035
0
ARC
8
0
10
188
20
-61.1574395
40
3.27
50
239.9993965
51
300.0006035
0
ARC
8
0
10
209.5000007
20
-56.2958934
40
3.27
50
59.9994171
51
120.0006035
0
ARC
8
0
10
224.9481896
20
-57.6633333
40
3.27
50
239.9994171
51
270
0
ARC
8
0
10
283.0518104
20
-57.6633333
40
3.27
50
270
51
300.0005829
0
ARC
8
0
10
298.4999993
20
-56.2958934
40
3.27
50
59.9993965
51
120.0005829
0
ARC
8
0
10
320
20
-61.1574395
40
3.27
50
239.9993965
51
300.0006035
0
ARC
8
0
10
341.5
20
-56.2958938
40
3.27
50
59.9993965
51
120.0006035
0
ARC
8
0
10
370.48
20
-106.4920876
40
3.27
50
300.0006035
51
0
0
ARC
8
0
10
323.27
20
-141.3012457
40
3.27
50
120.0006035
51
180
0
ARC
8
0
10
316.73
20
-153.4028543
40
3.27
50
300.0006035
51
0
0
ARC
8
0
10
276.9999987
20
-176.3415403
40
3.27
50
239.9994378
51
300.0006035
0
LINE
8
0
10
145
20
-66.8212458
11
145
21
-75.4587543
0
LINE
8
0
10
143.3650298
20
-78.2906402
11
135.8849702
21
-82.6093599
0
LINE
8
0
10
372.1150298
20
-82.6093599
11
364.6349702
21
-78.2906402
0
LINE
8
0
10
363
20
-75.4587543
11
363
21
-66.8212458
0
LINE
8
0
10
168.1350298
20
-126.0559922
11
172.3449702
21
-123.6253227
0
LINE
8
0
10
177.25
20
-126.4572086
11
177.25
21
-131.3187543
0
LINE
8
0
10
211.1350298
20
-166.7600922
11
215.3449702
21
-164.3294227
0
LINE
8
0
10
220.25
20
-167.1613086
11
220.25
21
-172.0228543
0
LINE
8
0
10
330.75
20
-131.3187543
11
330.75
21
-126.4572086
0
LINE
8
0
10
335.6550298
20
-123.6253227
11
339.8649702
21
-126.0559922
0
LINE
8
0
10
287.75
20
-172.0228543
11
287.75
21
-167.1613086
0
LINE
8
0
10
292.6550298
20
-164.3294227
11
296.8649702
21
-166.7600922
0
ARC
8
0
10
223.52
20
-172.0228543
40
3.27
50
180
51
239.9993965
0
ARC
8
0
10
216.98
20
-167.1613086
40
3.27
50
0
51
120.0006035
0
ARC
8
0
10
209.5
20
-163.9282063
40
3.27
50
239.9993965
51
300.0006035
0
ARC
8
0
10
180.52
20
-131.3187543
40
3.27
50
180
51
239.9993965
0
ARC
8
0
10
173.98
20
-126.4572086
40
3.27
50
0
51
120.0006035
0
ARC
8
0
10
166.5
20
-123.2241063
40
3.27
50
239.9993965
51
300.0006035
0
ARC
8
0
10
137.52
20
-85.4412458
40
3.27
50
120.0006035
51
180
0
ARC
8
0
10
141.73
20
-75.4587543
40
3.27
50
300.0006035
51
0
0
ARC
8
0
10
148.27
20
-66.8212458
40
3.27
50
120.0006035
51
180
0
ARC
8
0
10
359.73
20
-66.8212458
40
3.27
50
0
51
59.9993965
0
ARC
8
0
10
366.27
20
-75.4587543
40
3.27
50
180
51
239.9993965
0
ARC
8
0
10
370.48
20
-85.4412458
40
3.27
50
0
51
59.9993965
0
ARC
8
0
10
341.5
20
-123.2241063
40
3.27
50
239.9993965
51
300.0006035
0
ARC
8
0
10
334.02
20
-126.4572086
40
3.27
50
59.9993965
51
180
0
ARC
8
0
10
327.48
20
-131.3187543
40
3.27
50
300.0006035
51
0
0
ARC
8
0
10
298.5
20
-163.9282063
40
3.27
50
239.9993965
51
300.0006035
0
ARC
8
0
10
291.02
20
-167.1613086
40
3.27
50
59.9993965
51
180
0
ARC
8
0
10
284.48
20
-172.0228543
40
3.27
50
300.0006035
51
0
0
LINE
8
0
10
241.48
20
-172.0228681
11
241.48
21
-163.6971128
0
LINE
8
0
10
239.7100323
20
-160.6314015
11
232.4999677
21
-156.4685674
0
LINE
8
0
10
230.73
20
-153.4028561
11
230.73
21
-128.8879124
0
LINE
8
0
10
232.4999702
20
-125.8221997
11
252.2299702
21
-114.4308228
0
LINE
8
0
10
255.7700298
20
-114.4308228
11
275.5000298
21
-125.8221997
0
LINE
8
0
10
277.27
20
-128.8879124
11
277.27
21
-153.4028561
0
LINE
8
0
10
275.5000323
20
-156.4685674
11
268.2899677
21
-160.6314015
0
LINE
8
0
10
266.52
20
-163.6971128
11
266.52
21
-172.0228681
0
ARC
8
0
10
237.94
20
-163.6971128
40
3.54
50
0
51
59.9993965
0
ARC
8
0
10
234.27
20
-153.4028561
40
3.54
50
180
51
239.9993965
0
ARC
8
0
10
234.27
20
-128.8879124
40
3.54
50
120.0005573
51
180
0
ARC
8
0
10
254
20
-117.4965355
40
3.54
50
59.9994427
51
120.0005573
0
ARC
8
0
10
273.73
20
-128.8879124
40
3.54
50
0
51
59.9994427
0
ARC
8
0
10
273.73
20
-153.4028561
40
3.54
50
300.0006035
51
0
0
ARC
8
0
10
270.06
20
-163.6971128
40
3.54
50
120.0006035
51
180
0
ARC
8
0
10
270.06
20
-172.0228681
40
3.54
50
180
51
239.9994378
0
ARC
8
0
10
237.94
20
-172.0228681
40
3.54
50
300.0005622
51
0
0
LINE
8
0
10
161.65
20
-101.48
11
149.85
21
-101.48
0
LINE
8
0
10
148.85
20
-102.48
11
148.85
21
-114.28
0
LINE
8
0
10
149.85
20
-115.28
11
161.65
21
-115.28
0
LINE
8
0
10
162.65
20
-114.28
11
162.65
21
-102.48
0
ARC
8
0
10
149.85
20
-102.48
40
1
50
90
51
180
0
ARC
8
0
10
149.85
20
-114.28
40
1
50
180
51
270
0
ARC
8
0
10
161.65
20
-114.28
40
1
50
270
51
0
0
ARC
8
0
10
161.65
20
-102.48
40
1
50
0
51
90
0
LINE
8
0
10
183.15
20
-101.48
11
171.35
21
-101.48
0
LINE
8
0
10
170.35
20
-102.48
11
170.35
21
-114.28
0
LINE
8
0
10
171.35
20
-115.28
11
183.15
21
-115.28
0
LINE
8
0
10
184.15
20
-114.28
11
184.15
21
-102.48
0
ARC
8
0
10
171.35
20
-102.48
40
1
50
90
51
180
0
ARC
8
0
10
171.35
20
-114.28
40
1
50
180
51
270
0
ARC
8
0
10
183.15
20
-114.28
40
1
50
270
51
0
0
ARC
8
0
10
183.15
20
-102.48
40
1
50
0
51
90
0
LINE
8
0
10
204.65
20
-101.48
11
192.85
21
-101.48
0
LINE
8
0
10
191.85
20
-102.48
11
191.85
21
-114.28
0
LINE
8
0
10
192.85
20
-115.28
11
204.65
21
-115.28
0
LINE
8
0
10
205.65
20
-114.28
11
205.65
21
-102.48
0
ARC
8
0
10
192.85
20
-102.48
40
1
50
90
51
180
0
ARC
8
0
10
192.85
20
-114.28
40
1
50
180
51
270
0
ARC
8
0
10
204.65
20
-114.28
40
1
50
270
51
0
0
ARC
8
0
10
204.65
20
-102.48
40
1
50
0
51
90
0
LINE
8
0
10
153.9255753
20
-91.4195499
11
148.0255753
21
-81.2004501
0
LINE
8
0
10
146.6595499
20
-80.8344247
11
136.4404501
21
-86.7344247
0
LINE
8
0
10
136.0744247
20
-88.1004501
11
141.9744247
21
-98.3195499
0
LINE
8
0
10
143.3404501
20
-98.6855753
11
153.5595499
21
-92.7855753
0
ARC
8
0
10
147.1595499
20
-81.7004501
40
1
50
30
51
120
0
ARC
8
0
10
136.9404501
20
-87.6004501
40
1
50
120
51
210
0
ARC
8
0
10
142.8404501
20
-97.8195499
40
1
50
210
51
300
0
ARC
8
0
10
153.0595499
20
-91.9195499
40
1
50
300
51
30
0
LINE
8
0
10
163.4744247
20
-81.2004501
11
157.5744247
21
-91.4195499
0
LINE
8
0
10
157.9404501
20
-92.7855753
11
168.1595499
21
-98.6855753
0
LINE
8
0
10
169.5255753
20
-98.3195499
11
175.4255753
21
-88.1004501
0
LINE
8
0
10
175.0595499
20
-86.7344247
11
164.8404501
21
-80.8344247
0
ARC
8
0
10
158.4404501
20
-91.9195499
40
1
50
150
51
240
0
ARC
8
0
10
168.6595499
20
-97.8195499
40
1
50
240
51
330
0
ARC
8
0
10
174.5595499
20
-87.6004501
40
1
50
330
51
60
0
ARC
8
0
10
164.3404501
20
-81.7004501
40
1
50
60
51
150
0
LINE
8
0
10
184.9744247
20
-81.2004501
11
179.0744247
21
-91.4195499
0
LINE
8
0
10
179.4404501
20
-92.7855753
11
189.6595499
21
-98.6855753
0
LINE
8
0
10
191.0255753
20
-98.3195499
11
196.9255753
21
-88.1004501
0
LINE
8
0
10
196.5595499
20
-86.7344247
11
186.3404501
21
-80.8344247
0
ARC
8
0
10
179.9404501
20
-91.9195499
40
1
50
150
51
240
0
ARC
8
0
10
190.1595499
20
-97.8195499
40
1
50
240
51
330
0
ARC
8
0
10
196.0595499
20
-87.6004501
40
1
50
330
51
60
0
ARC
8
0
10
185.8404501
20
-81.7004501
40
1
50
60
51
150
0
LINE
8
0
10
206.4744247
20
-81.2004501
11
200.5744247
21
-91.4195499
0
LINE
8
0
10
200.9404501
20
-92.7855753
11
211.1595499
21
-98.6855753
0
LINE
8
0
10
212.5255753
20
-98.3195499
11
218.4255753
21
-88.1004501
0
LINE
8
0
10
218.0595499
20
-86.7344247
11
207.8404501
21
-80.8344247
0
ARC
8
0
10
201.4404501
20
-91.9195499
40
1
50
150
51
240
0
ARC
8
0
10
211.6595499
20
-97.8195499
40
1
50
240
51
330
0
ARC
8
0
10
217.5595499
20
-87.6004501
40
1
50
330
51
60
0
ARC
8
0
10
207.3404501
20
-81.7004501
40
1
50
60
51
150
0
LINE
8
0
10
149.85
20
-78.04
11
161.65
21
-78.04
0
LINE
8
0
10
162.65
20
-77.04
11
162.65
21
-65.24
0
LINE
8
0
10
161.65
20
-64.24
11
149.85
21
-64.24
0
LINE
8
0
10
148.85
20
-65.24
11
148.85
21
-77.04
0
ARC
8
0
10
161.65
20
-77.04
40
1
50
270
51
0
0
ARC
8
0
10
161.65
20
-65.24
40
1
50
0
51
90
0
ARC
8
0
10
149.85
20
-65.24
40
1
50
90
51
180
0
ARC
8
0
10
149.85
20
-77.04
40
1
50
180
51
270
0
LINE
8
0
10
168.3244247
20
-69.4804501
11
174.2244247
21
-79.6995499
0
LINE
8
0
10
175.5904501
20
-80.0655753
11
185.8095499
21
-74.1655753
0
LINE
8
0
10
186.1755753
20
-72.7995499
11
180.2755753
21
-62.5804501
0
LINE
8
0
10
178.9095499
20
-62.2144247
11
168.6904501
21
-68.1144247
0
ARC
8
0
10
175.0904501
20
-79.1995499
40
1
50
210
51
300
0
ARC
8
0
10
185.3095499
20
-73.2995499
40
1
50
300
51
30
0
ARC
8
0
10
179.4095499
20
-63.0804501
40
1
50
30
51
120
0
ARC
8
0
10
169.1904501
20
-68.9804501
40
1
50
120
51
210
0
LINE
8
0
10
189.8244247
20
-69.4804501
11
195.7244247
21
-79.6995499
0
LINE
8
0
10
197.0904501
20
-80.0655753
11
207.3095499
21
-74.1655753
0
LINE
8
0
10
207.6755753
20
-72.7995499
11
201.7755753
21
-62.5804501
0
LINE
8
0
10
200.4095499
20
-62.2144247
11
190.1904501
21
-68.1144247
0
ARC
8
0
10
196.5904501
20
-79.1995499
40
1
50
210
51
300
0
ARC
8
0
10
206.8095499
20
-73.2995499
40
1
50
300
51
30
0
ARC
8
0
10
200.9095499
20
-63.0804501
40
1
50
30
51
120
0
ARC
8
0
10
190.6904501
20
-68.9804501
40
1
50
120
51
210
0
LINE
8
0
10
211.3244247
20
-69.4804501
11
217.2244247
21
-79.6995499
0
LINE
8
0
10
218.5904501
20
-80.0655753
11
228.8095499
21
-74.1655753
0
LINE
8
0
10
229.1755753
20
-72.7995499
11
223.2755753
21
-62.5804501
0
LINE
8
0
10
221.9095499
20
-62.2144247
11
211.6904501
21
-68.1144247
0
ARC
8
0
10
218.0904501
20
-79.1995499
40
1
50
210
51
300
0
ARC
8
0
10
228.3095499
20
-73.2995499
40
1
50
300
51
30
0
ARC
8
0
10
222.4095499
20
-63.0804501
40
1
50
30
51
120
0
ARC
8
0
10
212.1904501
20
-68.9804501
40
1
50
120
51
210
0
LINE
8
0
10
193.9
20
-120.1
11
182.1
21
-120.1
0
LINE
8
0
10
181.1
20
-121.1
11
181.1
21
-132.9
0
LINE
8
0
10
182.1
20
-133.9
11
193.9
21
-133.9
0
LINE
8
0
10
194.9
20
-132.9
11
194.9
21
-121.1
0
ARC
8
0
10
182.1
20
-121.1
40
1
50
90
51
180
0
ARC
8
0
10
182.1
20
-132.9
40
1
50
180
51
270
0
ARC
8
0
10
193.9
20
-132.9
40
1
50
270
51
0
0
ARC
8
0
10
193.9
20
-121.1
40
1
50
0
51
90
0
LINE
8
0
10
225.1
20
-174.6041
11
236.9
21
-174.6041
0
LINE
8
0
10
237.9
20
-173.6041
11
237.9
21
-161.8041
0
LINE
8
0
10
236.9
20
-160.8041
11
225.1
21
-160.8041
0
LINE
8
0
10
224.1
20
-161.8041
11
224.1
21
-173.6041
0
ARC
8
0
10
236.9
20
-173.6041
40
1
50
270
51
0
0
ARC
8
0
10
236.9
20
-161.8041
40
1
50
0
51
90
0
ARC
8
0
10
225.1
20
-161.8041
40
1
50
90
51
180
0
ARC
8
0
10
225.1
20
-173.6041
40
1
50
180
51
270
0
LINE
8
0
10
358.15
20
-101.48
11
346.35
21
-101.48
0
LINE
8
0
10
345.35
20
-102.48
11
345.35
21
-114.28
0
LINE
8
0
10
346.35
20
-115.28
11
358.15
21
-115.28
0
LINE
8
0
10
359.15
20
-114.28
11
359.15
21
-102.48
0
ARC
8
0
10
346.35
20
-102.48
40
1
50
90
51
180
0
ARC
8
0
10
346.35
20
-114.28
40
1
50
180
51
270
0
ARC
8
0
10
358.15
20
-114.28
40
1
50
270
51
0
0
ARC
8
0
10
358.15
20
-102.48
40
1
50
0
51
90
0
LINE
8
0
10
336.65
20
-101.48
11
324.85
21
-101.48
0
LINE
8
0
10
323.85
20
-102.48
11
323.85
21
-114.28
0
LINE
8
0
10
324.85
20
-115.28
11
336.65
21
-115.28
0
LINE
8
0
10
337.65
20
-114.28
11
337.65
21
-102.48
0
ARC
8
0
10
324.85
20
-102.48
40
1
50
90
51
180
0
ARC
8
0
10
324.85
20
-114.28
40
1
50
180
51
270
0
ARC
8
0
10
336.65
20
-114.28
40
1
50
270
51
0
0
ARC
8
0
10
336.65
20
-102.48
40
1
50
0
51
90
0
LINE
8
0
10
315.15
20
-101.48
11
303.35
21
-101.48
0
LINE
8
0
10
302.35
20
-102.48
11
302.35
21
-114.28
0
LINE
8
0
10
303.35
20
-115.28
11
315.15
21
-115.28
0
LINE
8
0
10
316.15
20
-114.28
11
316.15
21
-102.48
0
ARC
8
0
10
303.35
20
-102.48
40
1
50
90
51
180
0
ARC
8
0
10
303.35
20
-114.28
40
1
50
180
51
270
0
ARC
8
0
10
315.15
20
-114.28
40
1
50
270
51
0
0
ARC
8
0
10
315.15
20
-102.48
40
1
50
0
51
90
0
LINE
8
0
10
359.9744247
20
-81.2004501
11
354.0744247
21
-91.4195499
0
LINE
8
0
10
354.4404501
20
-92.7855753
11
364.6595499
21
-98.6855753
0
LINE
8
0
10
366.0255753
20
-98.3195499
11
371.9255753
21
-88.1004501
0
LINE
8
0
10
371.5595499
20
-86.7344247
11
361.3404501
21
-80.8344247
0
ARC
8
0
10
354.9404501
20
-91.9195499
40
1
50
150
51
240
0
ARC
8
0
10
365.1595499
20
-97.8195499
40
1
50
240
51
330
0
ARC
8
0
10
371.0595499
20
-87.6004501
40
1
50
330
51
60
0
ARC
8
0
10
360.8404501
20
-81.7004501
40
1
50
60
51
150
0
LINE
8
0
10
350.4255753
20
-91.4195499
11
344.5255753
21
-81.2004501
0
LINE
8
0
10
343.1595499
20
-80.8344247
11
332.9404501
21
-86.7344247
0
LINE
8
0
10
332.5744247
20
-88.1004501
11
338.4744247
21
-98.3195499
0
LINE
8
0
10
339.8404501
20
-98.6855753
11
350.0595499
21
-92.7855753
0
ARC
8
0
10
343.6595499
20
-81.7004501
40
1
50
30
51
120
0
ARC
8
0
10
333.4404501
20
-87.6004501
40
1
50
120
51
210
0
ARC
8
0
10
339.3404501
20
-97.8195499
40
1
50
210
51
300
0
ARC
8
0
10
349.5595499
20
-91.9195499
40
1
50
300
51
30
0
LINE
8
0
10
328.9255753
20
-91.4195499
11
323.0255753
21
-81.2004501
0
LINE
8
0
10
321.6595499
20
-80.8344247
11
311.4404501
21
-86.7344247
0
LINE
8
0
10
311.0744247
20
-88.1004501
11
316.9744247
21
-98.3195499
0
LINE
8
0
10
318.3404501
20
-98.6855753
11
328.5595499
21
-92.7855753
0
ARC
8
0
10
322.1595499
20
-81.7004501
40
1
50
30
51
120
0
ARC
8
0
10
311.9404501
20
-87.6004501
40
1
50
120
51
210
0
ARC
8
0
10
317.8404501
20
-97.8195499
40
1
50
210
51
300
0
ARC
8
0
10
328.0595499
20
-91.9195499
40
1
50
300
51
30
0
LINE
8
0
10
307.4255753
20
-91.4195499
11
301.5255753
21
-81.2004501
0
LINE
8
0
10
300.1595499
20
-80.8344247
11
289.9404501
21
-86.7344247
0
LINE
8
0
10
289.5744247
20
-88.1004501
11
295.4744247
21
-98.3195499
0
LINE
8
0
10
296.8404501
20
-98.6855753
11
307.0595499
21
-92.7855753
0
ARC
8
0
10
300.6595499
20
-81.7004501
40
1
50
30
51
120
0
ARC
8
0
10
290.4404501
20
-87.6004501
40
1
50
120
51
210
0
ARC
8
0
10
296.3404501
20
-97.8195499
40
1
50
210
51
300
0
ARC
8
0
10
306.5595499
20
-91.9195499
40
1
50
300
51
30
0
LINE
8
0
10
346.35
20
-78.04
11
358.15
21
-78.04
0
LINE
8
0
10
359.15
20
-77.04
11
359.15
21
-65.24
0
LINE
8
0
10
358.15
20
-64.24
11
346.35
21
-64.24
0
LINE
8
0
10
345.35
20
-65.24
11
345.35
21
-77.04
0
ARC
8
0
10
358.15
20
-77.04
40
1
50
270
51
0
0
ARC
8
0
10
358.15
20
-65.24
40
1
50
0
51
90
0
ARC
8
0
10
346.35
20
-65.24
40
1
50
90
51
180
0
ARC
8
0
10
346.35
20
-77.04
40
1
50
180
51
270
0
LINE
8
0
10
333.7755753
20
-79.6995499
11
339.6755753
21
-69.4804501
0
LINE
8
0
10
339.3095499
20
-68.1144247
11
329.0904501
21
-62.2144247
0
LINE
8
0
10
327.7244247
20
-62.5804501
11
321.8244247
21
-72.7995499
0
LINE
8
0
10
322.1904501
20
-74.1655753
11
332.4095499
21
-80.0655753
0
ARC
8
0
10
338.8095499
20
-68.9804501
40
1
50
330
51
60
0
ARC
8
0
10
328.5904501
20
-63.0804501
40
1
50
60
51
150
0
ARC
8
0
10
322.6904501
20
-73.2995499
40
1
50
150
51
240
0
ARC
8
0
10
332.9095499
20
-79.1995499
40
1
50
240
51
330
0
LINE
8
0
10
312.2755753
20
-79.6995499
11
318.1755753
21
-69.4804501
0
LINE
8
0
10
317.8095499
20
-68.1144247
11
307.5904501
21
-62.2144247
0
LINE
8
0
10
306.2244247
20
-62.5804501
11
300.3244247
21
-72.7995499
0
LINE
8
0
10
300.6904501
20
-74.1655753
11
310.9095499
21
-80.0655753
0
ARC
8
0
10
317.3095499
20
-68.9804501
40
1
50
330
51
60
0
ARC
8
0
10
307.0904501
20
-63.0804501
40
1
50
60
51
150
0
ARC
8
0
10
301.1904501
20
-73.2995499
40
1
50
150
51
240
0
ARC
8
0
10
311.4095499
20
-79.1995499
40
1
50
240
51
330
0
LINE
8
0
10
290.7755753
20
-79.6995499
11
296.6755753
21
-69.4804501
0
LINE
8
0
10
296.3095499
20
-68.1144247
11
286.0904501
21
-62.2144247
0
LINE
8
0
10
284.7244247
20
-62.5804501
11
278.8244247
21
-72.7995499
0
LINE
8
0
10
279.1904501
20
-74.1655753
11
289.4095499
21
-80.0655753
0
ARC
8
0
10
295.8095499
20
-68.9804501
40
1
50
330
51
60
0
ARC
8
0
10
285.5904501
20
-63.0804501
40
1
50
60
51
150
0
ARC
8
0
10
279.6904501
20
-73.2995499
40
1
50
150
51
240
0
ARC
8
0
10
289.9095499
20
-79.1995499
40
1
50
240
51
330
0
LINE
8
0
10
325.9
20
-120.1
11
314.1
21
-120.1
0
LINE
8
0
10
313.1
20
-121.1
11
313.1
21
-132.9
0
LINE
8
0
10
314.1
20
-133.9
11
325.9
21
-133.9
0
LINE
8
0
10
326.9
20
-132.9
11
326.9
21
-121.1
0
ARC
8
0
10
314.1
20
-121.1
40
1
50
90
51
180
0
ARC
8
0
10
314.1
20
-132.9
40
1
50
180
51
270
0
ARC
8
0
10
325.9
20
-132.9
40
1
50
270
51
0
0
ARC
8
0
10
325.9
20
-121.1
40
1
50
0
51
90
0
LINE
8
0
10
271.1
20
-174.6041
11
282.9
21
-174.6041
0
LINE
8
0
10
283.9
20
-173.6041
11
283.9
21
-161.8041
0
LINE
8
0
10
282.9
20
-160.8041
11
271.1
21
-160.8041
0
LINE
8
0
10
270.1
20
-161.8041
11
270.1
21
-173.6041
0
ARC
8
0
10
282.9
20
-173.6041
40
1
50
270
51
0
0
ARC
8
0
10
282.9
20
-161.8041
40
1
50
0
51
90
0
ARC
8
0
10
271.1
20
-161.8041
40
1
50
90
51
180
0
ARC
8
0
10
271.1
20
-173.6041
40
1
50
180
51
270
0
LINE
8
0
10
233.73
20
-66.9333333
11
244.57
21
-66.9333333
0
LINE
8
0
10
263.43
20
-66.9333333
11
274.27
21
-66.9333333
0
LINE
8
0
10
277.27
20
-63.9333333
11
277.27
21
-60.9333333
0
LINE
8
0
10
230.73
20
-60.9333333
11
230.73
21
-63.9333333
0
ARC
8
0
10
274.27
20
-63.9333333
40
3
50
270
51
0
0
ARC
8
0
10
233.73
20
-63.9333333
40
3
50
180
51
270
0
LINE
8
0
10
245.11
20
-94.4933333
11
248
21
-94.4933333
0
LINE
8
0
10
260
20
-94.4933333
11
262.89
21
-94.4933333
0
LINE
8
0
10
263.43
20
-93.9533333
11
263.43
21
-66.9333333
0
LINE
8
0
10
244.57
20
-66.9333333
11
244.57
21
-93.9533333
0
ARC
8
0
10
262.89
20
-93.9533333
40
0.54
50
270
51
0
0
ARC
8
0
10
245.11
20
-93.9533333
40
0.54
50
180
51
270
0
LINE
8
0
10
248.54
20
-100.4533333
11
259.46
21
-100.4533333
0
LINE
8
0
10
260
20
-99.9133333
11
260
21
-94.4933333
0
LINE
8
0
10
248
20
-94.4933333
11
248
21
-99.9133333
0
ARC
8
0
10
259.46
20
-99.9133333
40
0.54
50
270
51
0
0
ARC
8
0
10
248.54
20
-99.9133333
40
0.54
50
180
51
270
0
LINE
8
0
10
234.5
20
-113.9833333
11
239.5
21
-113.9833333
0
LINE
8
0
10
240.5
20
-112.9833333
11
240.5
21
-111.9833333
0
LINE
8
0
10
239.5
20
-110.9833333
11
234.5
21
-110.9833333
0
LINE
8
0
10
233.5
20
-111.9833333
11
233.5
21
-112.9833333
0
ARC
8
0
10
239.5
20
-112.9833333
40
1
50
270
51
0
0
ARC
8
0
10
239.5
20
-111.9833333
40
1
50
0
51
90
0
ARC
8
0
10
234.5
20
-111.9833333
40
1
50
90
51
180
0
ARC
8
0
10
234.5
20
-112.9833333
40
1
50
180
51
270
0
LINE
8
0
10
287.6276952
20
-132.1681618
11
299.7520508
21
-125.1681618
0
LINE
8
0
10
299.9497045
20
-124.4305081
11
279.9497045
21
-89.7894919
0
LINE
8
0
10
279.2120508
20
-89.5918382
11
267.0876952
21
-96.5918382
0
LINE
8
0
10
266.8900415
20
-97.3294919
11
286.8900415
21
-131.9705081
0
ARC
8
0
10
299.4820508
20
-124.7005081
40
0.54
50
300
51
30
0
ARC
8
0
10
279.4820508
20
-90.0594919
40
0.54
50
30
51
120
0
ARC
8
0
10
267.3576952
20
-97.0594919
40
0.54
50
120
51
210
0
ARC
8
0
10
287.3576952
20
-131.7005081
40
0.54
50
210
51
300
0
ENDSEC
0
EOF