0
SECTION
2
HEADER
9
$INSUNITS
70
4
0
ENDSEC
0
SECTION
2
TABLES
0
TABLE
2
LTYPE
0
LTYPE
72
65
70
64
2
CONTINUOUS
3
______
73
0
40
0
0
ENDTAB
0
TABLE
2
LAYER
0
ENDTAB
0
ENDSEC
0
SECTION
2
ENTITIES
0
LINE
8
0
10
240.2100259
20
-174.4015318
11
232.8650293
21
-178.642265
0
LINE
8
0
10
229.5949713
20
-178.642264
11
221.9799726
21
-174.2456354
0
LINE
8
0
10
189.8649701
20
-155.7035782
11
208.2299726
21
-166.3068758
0
LINE
8
0
10
188.23
20
-152.8716923
11
188.23
21
-141.3012457
0
LINE
8
0
10
186.5950299
20
-138.4693598
11
178.9799726
21
-134.0726974
0
LINE
8
0
10
136.1149701
20
-109.3239735
11
165.2299726
21
-126.1339378
0
LINE
8
0
10
134.48
20
-106.4920876
11
134.48
21
-85.4412458
0
LINE
8
0
10
146.8649701
20
-63.9893599
11
165.0949702
21
-53.4640079
0
LINE
8
0
10
168.3650298
20
-53.4640079
11
186.5949702
21
-63.9893254
0
LINE
8
0
10
189.8650298
20
-63.9893254
11
208.0949708
21
-53.4640076
0
LINE
8
0
10
211.3650296
20
-53.4640071
11
227.9312593
21
-63.0287506
0
LINE
8
0
10
280.0687407
20
-63.0287506
11
296.6349704
21
-53.4640071
0
LINE
8
0
10
299.9050292
20
-53.4640076
11
318.1349702
21
-63.9893254
0
LINE
8
0
10
321.4050298
20
-63.9893254
11
339.6349702
21
-53.4640079
0
LINE
8
0
10
342.9050298
20
-53.4640079
11
361.1350299
21
-63.9893599
0
LINE
8
0
10
373.52
20
-85.4412458
11
373.52
21
-106.4920876
0
LINE
8
0
10
342.7700274
20
-126.1339378
11
371.8850299
21
-109.3239735
0
LINE
8
0
10
329.0200274
20
-134.0726974
11
321.4049701
21
-138.4693598
0
LINE
8
0
10
319.77
20
-141.3012457
11
319.77
21
-152.8716923
0
LINE
8
0
10
299.7700274
20
-166.3068758
11
318.1350299
21
-155.7035782
0
LINE
8
0
10
286.0200274
20
-174.2456354
11
278.4050287
21
-178.642264
0
LINE
8
0
10
275.1349707
20
-178.642265
11
267.7899741
21
-174.4015318
0
LINE
8
0
10
278.4337117
20
-63.4668643
11
277.04
21
-63.4668643
0
LINE
8
0
10
230.96
20
-63.4668643
11
229.5662883
21
-63.4668643
0
ARC
8
0
10
231.2300011
20
-175.8103782
40
3.27
50
239.9993965
51
300.0005701
0
ARC
8
0
10
191.5
20
-152.8716923
40
3.27
50
180
51
239.9993858
0
ARC
8
0
10
184.96
20
-141.3012457
40
3.27
50
0
51
59.9993858
0
ARC
8
0
10
137.75
20
-106.4920876
40
3.27
50
180
51
239.9993858
0
ARC
8
0
10
166.73
20
-56.2958938
40
3.27
50
59.9993965
51
120.0006035
0
ARC
8
0
10
188.23
20
-61.1574395
40
3.27
50
239.9993965
51
300.0006035
0
ARC
8
0
10
209.7300006
20
-56.2958934
40
3.27
50
59.9994147
51
120.0006035
0
ARC
8
0
10
229.5662883
20
-60.1968643
40
3.27
50
239.9994122
51
270
0
ARC
8
0
10
278.4337117
20
-60.1968643
40
3.27
50
270
51
300.0005878
0
ARC
8
0
10
298.2699994
20
-56.2958934
40
3.27
50
59.9993965
51
120.0005853
0
ARC
8
0
10
319.77
20
-61.1574395
40
3.27
50
239.9993965
51
300.0006035
0
ARC
8
0
10
341.27
20
-56.2958938
40
3.27
50
59.9993965
51
120.0006035
0
ARC
8
0
10
370.25
20
-106.4920876
40
3.27
50
300.0006142
51
0
0
ARC
8
0
10
323.04
20
-141.3012457
40
3.27
50
120.0006142
51
180
0
ARC
8
0
10
316.5
20
-152.8716923
40
3.27
50
300.0006142
51
0
0
ARC
8
0
10
276.7699989
20
-175.8103782
40
3.27
50
239.9994299
51
300.0006035
0
LINE
8
0
10
145.23
20
-66.8212458
11
145.23
21
-75.4587543
0
LINE
8
0
10
143.5950299
20
-78.2906402
11
136.1149701
21
-82.6093599
0
LINE
8
0
10
371.8850299
20
-82.6093599
11
364.4049701
21
-78.2906402
0
LINE
8
0
10
362.77
20
-75.4587543
11
362.77
21
-66.8212458
0
ARC
8
0
10
137.75
20
-85.4412458
40
3.27
50
120.0006142
51
180
0
ARC
8
0
10
141.96
20
-75.4587543
40
3.27
50
300.0006142
51
0
0
ARC
8
0
10
148.5
20
-66.8212458
40
3.27
50
120.0006142
51
180
0
ARC
8
0
10
359.5
20
-66.8212458
40
3.27
50
0
51
59.9993858
0
ARC
8
0
10
366.04
20
-75.4587543
40
3.27
50
180
51
239.9993858
0
ARC
8
0
10
370.25
20
-85.4412458
40
3.27
50
0
51
59.9993858
0
LINE
8
0
10
168.2300274
20
-126.1339378
11
172.9799726
21
-123.3914888
0
LINE
8
0
10
177.48
20
-125.9895492
11
177.48
21
-131.474637
0
LINE
8
0
10
211.2300274
20
-166.3068758
11
215.9799726
21
-163.5644268
0
LINE
8
0
10
220.48
20
-166.1624872
11
220.48
21
-171.647575
0
LINE
8
0
10
330.52
20
-131.474637
11
330.52
21
-125.9895492
0
LINE
8
0
10
335.0200274
20
-123.3914888
11
339.7699726
21
-126.1339378
0
LINE
8
0
10
287.52
20
-171.647575
11
287.52
21
-166.1624872
0
LINE
8
0
10
292.0200274
20
-163.5644268
11
296.7699726
21
-166.3068758
0
LINE
8
0
10
241.71
20
-171.8034705
11
241.71
21
-162.386532
0
LINE
8
0
10
240.2100274
20
-159.7884716
11
232.4599726
21
-155.3138663
0
LINE
8
0
10
230.96
20
-152.7158059
11
230.96
21
-128.4202621
0
LINE
8
0
10
232.4599745
20
-125.8222006
11
252.4999745
21
-114.2518384
0
LINE
8
0
10
255.5000255
20
-114.2518384
11
275.5400255
21
-125.8222006
0
LINE
8
0
10
277.04
20
-128.4202621
11
277.04
21
-152.7158059
0
LINE
8
0
10
275.5400274
20
-155.3138663
11
267.7899726
21
-159.7884716
0
LINE
8
0
10
266.29
20
-162.386532
11
266.29
21
-171.8034705
0
ARC
8
0
10
223.48
20
-171.647575
40
3
50
180
51
239.9993965
0
ARC
8
0
10
217.48
20
-166.1624872
40
3
50
0
51
120.0006035
0
ARC
8
0
10
209.73
20
-163.7088154
40
3
50
239.9993965
51
300.0006035
0
ARC
8
0
10
191.3649975
20
-153.1055177
40
3
50
239.9993858
51
239.9993965
0
ARC
8
0
10
185.0950025
20
-141.0674203
40
3
50
59.9993858
51
59.9993965
0
ARC
8
0
10
180.48
20
-131.474637
40
3
50
180
51
239.9993965
0
ARC
8
0
10
174.48
20
-125.9895492
40
3
50
0
51
120.0006035
0
ARC
8
0
10
166.73
20
-123.5358774
40
3
50
239.9993965
51
300.0006035
0
ARC
8
0
10
137.6149975
20
-106.725913
40
3
50
239.9993858
51
239.9993965
0
ARC
8
0
10
137.6149975
20
-85.2074204
40
3
50
120.0006035
51
120.0006142
0
ARC
8
0
10
142.0950025
20
-75.6925797
40
3
50
300.0006035
51
300.0006142
0
ARC
8
0
10
148.3649975
20
-66.5874204
40
3
50
120.0006035
51
120.0006142
0
ARC
8
0
10
209.865003
20
-56.0620679
40
3
50
59.9994122
51
59.9994147
0
ARC
8
0
10
298.134997
20
-56.0620679
40
3
50
120.0005853
51
120.0005878
0
ARC
8
0
10
359.6350025
20
-66.5874204
40
3
50
59.9993858
51
59.9993965
0
ARC
8
0
10
365.9049975
20
-75.6925797
40
3
50
239.9993858
51
239.9993965
0
ARC
8
0
10
370.3850025
20
-85.2074204
40
3
50
59.9993858
51
59.9993965
0
ARC
8
0
10
370.3850025
20
-106.725913
40
3
50
300.0006035
51
300.0006142
0
ARC
8
0
10
341.27
20
-123.5358774
40
3
50
239.9993965
51
300.0006035
0
ARC
8
0
10
333.52
20
-125.9895492
40
3
50
59.9993965
51
180
0
ARC
8
0
10
327.52
20
-131.474637
40
3
50
300.0006035
51
0
0
ARC
8
0
10
322.9049975
20
-141.0674203
40
3
50
120.0006035
51
120.0006142
0
ARC
8
0
10
316.6350025
20
-153.1055177
40
3
50
300.0006035
51
300.0006142
0
ARC
8
0
10
298.27
20
-163.7088154
40
3
50
239.9993965
51
300.0006035
0
ARC
8
0
10
290.52
20
-166.1624872
40
3
50
59.9993965
51
180
0
ARC
8
0
10
284.52
20
-171.647575
40
3
50
300.0006035
51
0
0
ARC
8
0
10
269.29
20
-171.8034705
40
3
50
180
51
239.9994299
0
ARC
8
0
10
269.29
20
-162.386532
40
3
50
120.0006035
51
180
0
ARC
8
0
10
274.04
20
-152.7158059
40
3
50
300.0006035
51
0
0
ARC
8
0
10
274.04
20
-128.4202621
40
3
50
0
51
59.9994378
0
ARC
8
0
10
254
20
-116.8498999
40
3
50
59.9994378
51
120.0005622
0
ARC
8
0
10
233.96
20
-128.4202621
40
3
50
120.0005622
51
180
0
ARC
8
0
10
233.96
20
-152.7158059
40
3
50
180
51
239.9993965
0
ARC
8
0
10
238.71
20
-162.386532
40
3
50
0
51
59.9993965
0
ARC
8
0
10
238.71
20
-171.8034705
40
3
50
300.0005701
51
0
0
LINE
8
0
10
149.68
20
-78.04
11
162.28
21
-78.04
0
LINE
8
0
10
162.88
20
-77.44
11
162.88
21
-64.84
0
LINE
8
0
10
162.28
20
-64.24
11
149.68
21
-64.24
0
LINE
8
0
10
149.08
20
-64.84
11
149.08
21
-77.44
0
ARC
8
0
10
162.28
20
-77.44
40
0.6
50
270
51
0
0
ARC
8
0
10
162.28
20
-64.84
40
0.6
50
0
51
90
0
ARC
8
0
10
149.68
20
-64.84
40
0.6
50
90
51
180
0
ARC
8
0
10
149.68
20
-77.44
40
0.6
50
180
51
270
0
LINE
8
0
10
168.3544247
20
-69.13404
11
174.6544247
21
-80.04596
0
LINE
8
0
10
175.47404
20
-80.2655753
11
186.38596
21
-73.9655753
0
LINE
8
0
10
186.6055753
20
-73.14596
11
180.3055753
21
-62.23404
0
LINE
8
0
10
179.48596
20
-62.0144247
11
168.57404
21
-68.3144247
0
ARC
8
0
10
175.17404
20
-79.74596
40
0.6
50
210
51
300
0
ARC
8
0
10
186.08596
20
-73.44596
40
0.6
50
300
51
30
0
ARC
8
0
10
179.78596
20
-62.53404
40
0.6
50
30
51
120
0
ARC
8
0
10
168.87404
20
-68.83404
40
0.6
50
120
51
210
0
LINE
8
0
10
211.3544247
20
-69.13404
11
217.6544247
21
-80.04596
0
LINE
8
0
10
218.47404
20
-80.2655753
11
229.38596
21
-73.9655753
0
LINE
8
0
10
229.6055753
20
-73.14596
11
223.3055753
21
-62.23404
0
LINE
8
0
10
222.48596
20
-62.0144247
11
211.57404
21
-68.3144247
0
ARC
8
0
10
218.17404
20
-79.74596
40
0.6
50
210
51
300
0
ARC
8
0
10
229.08596
20
-73.44596
40
0.6
50
300
51
30
0
ARC
8
0
10
222.78596
20
-62.53404
40
0.6
50
30
51
120
0
ARC
8
0
10
211.87404
20
-68.83404
40
0.6
50
120
51
210
0
LINE
8
0
10
154.3555753
20
-91.76596
11
148.0555753
21
-80.85404
0
LINE
8
0
10
147.23596
20
-80.6344247
11
136.32404
21
-86.9344247
0
LINE
8
0
10
136.1044247
20
-87.75404
11
142.4044247
21
-98.66596
0
LINE
8
0
10
143.22404
20
-98.8855753
11
154.13596
21
-92.5855753
0
ARC
8
0
10
147.53596
20
-81.15404
40
0.6
50
30
51
120
0
ARC
8
0
10
136.62404
20
-87.45404
40
0.6
50
120
51
210
0
ARC
8
0
10
142.92404
20
-98.36596
40
0.6
50
210
51
300
0
ARC
8
0
10
153.83596
20
-92.06596
40
0.6
50
300
51
30
0
LINE
8
0
10
189.8544247
20
-69.13404
11
196.1544247
21
-80.04596
0
LINE
8
0
10
196.97404
20
-80.2655753
11
207.88596
21
-73.9655753
0
LINE
8
0
10
208.1055753
20
-73.14596
11
201.8055753
21
-62.23404
0
LINE
8
0
10
200.98596
20
-62.0144247
11
190.07404
21
-68.3144247
0
ARC
8
0
10
196.67404
20
-79.74596
40
0.6
50
210
51
300
0
ARC
8
0
10
207.58596
20
-73.44596
40
0.6
50
300
51
30
0
ARC
8
0
10
201.28596
20
-62.53404
40
0.6
50
30
51
120
0
ARC
8
0
10
190.37404
20
-68.83404
40
0.6
50
120
51
210
0
LINE
8
0
10
206.9044247
20
-80.85404
11
200.6044247
21
-91.76596
0
LINE
8
0
10
200.82404
20
-92.5855753
11
211.73596
21
-98.8855753
0
LINE
8
0
10
212.5555753
20
-98.66596
11
218.8555753
21
-87.75404
0
LINE
8
0
10
218.63596
20
-86.9344247
11
207.72404
21
-80.6344247
0
ARC
8
0
10
201.12404
20
-92.06596
40
0.6
50
150
51
240
0
ARC
8
0
10
212.03596
20
-98.36596
40
0.6
50
240
51
330
0
ARC
8
0
10
218.33596
20
-87.45404
40
0.6
50
330
51
60
0
ARC
8
0
10
207.42404
20
-81.15404
40
0.6
50
60
51
150
0
LINE
8
0
10
163.9044247
20
-80.85404
11
157.6044247
21
-91.76596
0
LINE
8
0
10
157.82404
20
-92.5855753
11
168.73596
21
-98.8855753
0
LINE
8
0
10
169.5555753
20
-98.66596
11
175.8555753
21
-87.75404
0
LINE
8
0
10
175.63596
20
-86.9344247
11
164.72404
21
-80.6344247
0
ARC
8
0
10
158.12404
20
-92.06596
40
0.6
50
150
51
240
0
ARC
8
0
10
169.03596
20
-98.36596
40
0.6
50
240
51
330
0
ARC
8
0
10
175.33596
20
-87.45404
40
0.6
50
330
51
60
0
ARC
8
0
10
164.42404
20
-81.15404
40
0.6
50
60
51
150
0
LINE
8
0
10
185.4044247
20
-80.85404
11
179.1044247
21
-91.76596
0
LINE
8
0
10
179.32404
20
-92.5855753
11
190.23596
21
-98.8855753
0
LINE
8
0
10
191.0555753
20
-98.66596
11
197.3555753
21
-87.75404
0
LINE
8
0
10
197.13596
20
-86.9344247
11
186.22404
21
-80.6344247
0
ARC
8
0
10
179.62404
20
-92.06596
40
0.6
50
150
51
240
0
ARC
8
0
10
190.53596
20
-98.36596
40
0.6
50
240
51
330
0
ARC
8
0
10
196.83596
20
-87.45404
40
0.6
50
330
51
60
0
ARC
8
0
10
185.92404
20
-81.15404
40
0.6
50
60
51
150
0
LINE
8
0
10
205.28
20
-101.48
11
192.68
21
-101.48
0
LINE
8
0
10
192.08
20
-102.08
11
192.08
21
-114.68
0
LINE
8
0
10
192.68
20
-115.28
11
205.28
21
-115.28
0
LINE
8
0
10
205.88
20
-114.68
11
205.88
21
-102.08
0
ARC
8
0
10
192.68
20
-102.08
40
0.6
50
90
51
180
0
ARC
8
0
10
192.68
20
-114.68
40
0.6
50
180
51
270
0
ARC
8
0
10
205.28
20
-114.68
40
0.6
50
270
51
0
0
ARC
8
0
10
205.28
20
-102.08
40
0.6
50
0
51
90
0
LINE
8
0
10
162.28
20
-101.48
11
149.68
21
-101.48
0
LINE
8
0
10
149.08
20
-102.08
11
149.08
21
-114.68
0
LINE
8
0
10
149.68
20
-115.28
11
162.28
21
-115.28
0
LINE
8
0
10
162.88
20
-114.68
11
162.88
21
-102.08
0
ARC
8
0
10
149.68
20
-102.08
40
0.6
50
90
51
180
0
ARC
8
0
10
149.68
20
-114.68
40
0.6
50
180
51
270
0
ARC
8
0
10
162.28
20
-114.68
40
0.6
50
270
51
0
0
ARC
8
0
10
162.28
20
-102.08
40
0.6
50
0
51
90
0
LINE
8
0
10
183.78
20
-101.48
11
171.18
21
-101.48
0
LINE
8
0
10
170.58
20
-102.08
11
170.58
21
-114.68
0
LINE
8
0
10
171.18
20
-115.28
11
183.78
21
-115.28
0
LINE
8
0
10
184.38
20
-114.68
11
184.38
21
-102.08
0
ARC
8
0
10
171.18
20
-102.08
40
0.6
50
90
51
180
0
ARC
8
0
10
171.18
20
-114.68
40
0.6
50
180
51
270
0
ARC
8
0
10
183.78
20
-114.68
40
0.6
50
270
51
0
0
ARC
8
0
10
183.78
20
-102.08
40
0.6
50
0
51
90
0
LINE
8
0
10
194.53
20
-120.1
11
181.93
21
-120.1
0
LINE
8
0
10
181.33
20
-120.7
11
181.33
21
-133.3
0
LINE
8
0
10
181.93
20
-133.9
11
194.53
21
-133.9
0
LINE
8
0
10
195.13
20
-133.3
11
195.13
21
-120.7
0
ARC
8
0
10
181.93
20
-120.7
40
0.6
50
90
51
180
0
ARC
8
0
10
181.93
20
-133.3
40
0.6
50
180
51
270
0
ARC
8
0
10
194.53
20
-133.3
40
0.6
50
270
51
0
0
ARC
8
0
10
194.53
20
-120.7
40
0.6
50
0
51
90
0
LINE
8
0
10
224.93
20
-174.072938
11
237.53
21
-174.072938
0
LINE
8
0
10
238.13
20
-173.472938
11
238.13
21
-160.872938
0
LINE
8
0
10
237.53
20
-160.272938
11
224.93
21
-160.272938
0
LINE
8
0
10
224.33
20
-160.872938
11
224.33
21
-173.472938
0
ARC
8
0
10
237.53
20
-173.472938
40
0.6
50
270
51
0
0
ARC
8
0
10
237.53
20
-160.872938
40
0.6
50
0
51
90
0
ARC
8
0
10
224.93
20
-160.872938
40
0.6
50
90
51
180
0
ARC
8
0
10
224.93
20
-173.472938
40
0.6
50
180
51
270
0
LINE
8
0
10
345.72
20
-78.04
11
358.32
21
-78.04
0
LINE
8
0
10
358.92
20
-77.44
11
358.92
21
-64.84
0
LINE
8
0
10
358.32
20
-64.24
11
345.72
21
-64.24
0
LINE
8
0
10
345.12
20
-64.84
11
345.12
21
-77.44
0
ARC
8
0
10
358.32
20
-77.44
40
0.6
50
270
51
0
0
ARC
8
0
10
358.32
20
-64.84
40
0.6
50
0
51
90
0
ARC
8
0
10
345.72
20
-64.84
40
0.6
50
90
51
180
0
ARC
8
0
10
345.72
20
-77.44
40
0.6
50
180
51
270
0
LINE
8
0
10
333.3455753
20
-80.04596
11
339.6455753
21
-69.13404
0
LINE
8
0
10
339.42596
20
-68.3144247
11
328.51404
21
-62.0144247
0
LINE
8
0
10
327.6944247
20
-62.23404
11
321.3944247
21
-73.14596
0
LINE
8
0
10
321.61404
20
-73.9655753
11
332.52596
21
-80.2655753
0
ARC
8
0
10
339.12596
20
-68.83404
40
0.6
50
330
51
60
0
ARC
8
0
10
328.21404
20
-62.53404
40
0.6
50
60
51
150
0
ARC
8
0
10
321.91404
20
-73.44596
40
0.6
50
150
51
240
0
ARC
8
0
10
332.82596
20
-79.74596
40
0.6
50
240
51
330
0
LINE
8
0
10
290.3455753
20
-80.04596
11
296.6455753
21
-69.13404
0
LINE
8
0
10
296.42596
20
-68.3144247
11
285.51404
21
-62.0144247
0
LINE
8
0
10
284.6944247
20
-62.23404
11
278.3944247
21
-73.14596
0
LINE
8
0
10
278.61404
20
-73.9655753
11
289.52596
21
-80.2655753
0
ARC
8
0
10
296.12596
20
-68.83404
40
0.6
50
330
51
60
0
ARC
8
0
10
285.21404
20
-62.53404
40
0.6
50
60
51
150
0
ARC
8
0
10
278.91404
20
-73.44596
40
0.6
50
150
51
240
0
ARC
8
0
10
289.82596
20
-79.74596
40
0.6
50
240
51
330
0
LINE
8
0
10
359.9444247
20
-80.85404
11
353.6444247
21
-91.76596
0
LINE
8
0
10
353.86404
20
-92.5855753
11
364.77596
21
-98.8855753
0
LINE
8
0
10
365.5955753
20
-98.66596
11
371.8955753
21
-87.75404
0
LINE
8
0
10
371.67596
20
-86.9344247
11
360.76404
21
-80.6344247
0
ARC
8
0
10
354.16404
20
-92.06596
40
0.6
50
150
51
240
0
ARC
8
0
10
365.07596
20
-98.36596
40
0.6
50
240
51
330
0
ARC
8
0
10
371.37596
20
-87.45404
40
0.6
50
330
51
60
0
ARC
8
0
10
360.46404
20
-81.15404
40
0.6
50
60
51
150
0
LINE
8
0
10
311.8455753
20
-80.04596
11
318.1455753
21
-69.13404
0
LINE
8
0
10
317.92596
20
-68.3144247
11
307.01404
21
-62.0144247
0
LINE
8
0
10
306.1944247
20
-62.23404
11
299.8944247
21
-73.14596
0
LINE
8
0
10
300.11404
20
-73.9655753
11
311.02596
21
-80.2655753
0
ARC
8
0
10
317.62596
20
-68.83404
40
0.6
50
330
51
60
0
ARC
8
0
10
306.71404
20
-62.53404
40
0.6
50
60
51
150
0
ARC
8
0
10
300.41404
20
-73.44596
40
0.6
50
150
51
240
0
ARC
8
0
10
311.32596
20
-79.74596
40
0.6
50
240
51
330
0
LINE
8
0
10
307.3955753
20
-91.76596
11
301.0955753
21
-80.85404
0
LINE
8
0
10
300.27596
20
-80.6344247
11
289.36404
21
-86.9344247
0
LINE
8
0
10
289.1444247
20
-87.75404
11
295.4444247
21
-98.66596
0
LINE
8
0
10
296.26404
20
-98.8855753
11
307.17596
21
-92.5855753
0
ARC
8
0
10
300.57596
20
-81.15404
40
0.6
50
30
51
120
0
ARC
8
0
10
289.66404
20
-87.45404
40
0.6
50
120
51
210
0
ARC
8
0
10
295.96404
20
-98.36596
40
0.6
50
210
51
300
0
ARC
8
0
10
306.87596
20
-92.06596
40
0.6
50
300
51
30
0
LINE
8
0
10
350.3955753
20
-91.76596
11
344.0955753
21
-80.85404
0
LINE
8
0
10
343.27596
20
-80.6344247
11
332.36404
21
-86.9344247
0
LINE
8
0
10
332.1444247
20
-87.75404
11
338.4444247
21
-98.66596
0
LINE
8
0
10
339.26404
20
-98.8855753
11
350.17596
21
-92.5855753
0
ARC
8
0
10
343.57596
20
-81.15404
40
0.6
50
30
51
120
0
ARC
8
0
10
332.66404
20
-87.45404
40
0.6
50
120
51
210
0
ARC
8
0
10
338.96404
20
-98.36596
40
0.6
50
210
51
300
0
ARC
8
0
10
349.87596
20
-92.06596
40
0.6
50
300
51
30
0
LINE
8
0
10
328.8955753
20
-91.76596
11
322.5955753
21
-80.85404
0
LINE
8
0
10
321.77596
20
-80.6344247
11
310.86404
21
-86.9344247
0
LINE
8
0
10
310.6444247
20
-87.75404
11
316.9444247
21
-98.66596
0
LINE
8
0
10
317.76404
20
-98.8855753
11
328.67596
21
-92.5855753
0
ARC
8
0
10
322.07596
20
-81.15404
40
0.6
50
30
51
120
0
ARC
8
0
10
311.16404
20
-87.45404
40
0.6
50
120
51
210
0
ARC
8
0
10
317.46404
20
-98.36596
40
0.6
50
210
51
300
0
ARC
8
0
10
328.37596
20
-92.06596
40
0.6
50
300
51
30
0
LINE
8
0
10
315.32
20
-101.48
11
302.72
21
-101.48
0
LINE
8
0
10
302.12
20
-102.08
11
302.12
21
-114.68
0
LINE
8
0
10
302.72
20
-115.28
11
315.32
21
-115.28
0
LINE
8
0
10
315.92
20
-114.68
11
315.92
21
-102.08
0
ARC
8
0
10
302.72
20
-102.08
40
0.6
50
90
51
180
0
ARC
8
0
10
302.72
20
-114.68
40
0.6
50
180
51
270
0
ARC
8
0
10
315.32
20
-114.68
40
0.6
50
270
51
0
0
ARC
8
0
10
315.32
20
-102.08
40
0.6
50
0
51
90
0
LINE
8
0
10
358.32
20
-101.48
11
345.72
21
-101.48
0
LINE
8
0
10
345.12
20
-102.08
11
345.12
21
-114.68
0
LINE
8
0
10
345.72
20
-115.28
11
358.32
21
-115.28
0
LINE
8
0
10
358.92
20
-114.68
11
358.92
21
-102.08
0
ARC
8
0
10
345.72
20
-102.08
40
0.6
50
90
51
180
0
ARC
8
0
10
345.72
20
-114.68
40
0.6
50
180
51
270
0
ARC
8
0
10
358.32
20
-114.68
40
0.6
50
270
51
0
0
ARC
8
0
10
358.32
20
-102.08
40
0.6
50
0
51
90
0
LINE
8
0
10
336.82
20
-101.48
11
324.22
21
-101.48
0
LINE
8
0
10
323.62
20
-102.08
11
323.62
21
-114.68
0
LINE
8
0
10
324.22
20
-115.28
11
336.82
21
-115.28
0
LINE
8
0
10
337.42
20
-114.68
11
337.42
21
-102.08
0
ARC
8
0
10
324.22
20
-102.08
40
0.6
50
90
51
180
0
ARC
8
0
10
324.22
20
-114.68
40
0.6
50
180
51
270
0
ARC
8
0
10
336.82
20
-114.68
40
0.6
50
270
51
0
0
ARC
8
0
10
336.82
20
-102.08
40
0.6
50
0
51
90
0
LINE
8
0
10
326.07
20
-120.1
11
313.47
21
-120.1
0
LINE
8
0
10
312.87
20
-120.7
11
312.87
21
-133.3
0
LINE
8
0
10
313.47
20
-133.9
11
326.07
21
-133.9
0
LINE
8
0
10
326.67
20
-133.3
11
326.67
21
-120.7
0
ARC
8
0
10
313.47
20
-120.7
40
0.6
50
90
51
180
0
ARC
8
0
10
313.47
20
-133.3
40
0.6
50
180
51
270
0
ARC
8
0
10
326.07
20
-133.3
40
0.6
50
270
51
0
0
ARC
8
0
10
326.07
20
-120.7
40
0.6
50
0
51
90
0
LINE
8
0
10
270.47
20
-174.072938
11
283.07
21
-174.072938
0
LINE
8
0
10
283.67
20
-173.472938
11
283.67
21
-160.872938
0
LINE
8
0
10
283.07
20
-160.272938
11
270.47
21
-160.272938
0
LINE
8
0
10
269.87
20
-160.872938
11
269.87
21
-173.472938
0
ARC
8
0
10
283.07
20
-173.472938
40
0.6
50
270
51
0
0
ARC
8
0
10
283.07
20
-160.872938
40
0.6
50
0
51
90
0
ARC
8
0
10
270.47
20
-160.872938
40
0.6
50
90
51
180
0
ARC
8
0
10
270.47
20
-173.472938
40
0.6
50
180
51
270
0
LINE
8
0
10
233.96
20
-69.4668643
11
244.57
21
-69.4668643
0
LINE
8
0
10
263.43
20
-69.4668643
11
274.04
21
-69.4668643
0
LINE
8
0
10
277.04
20
-66.4668643
11
277.04
21
-63.4668643
0
LINE
8
0
10
230.96
20
-63.4668643
11
230.96
21
-66.4668643
0
ARC
8
0
10
274.04
20
-66.4668643
40
3
50
270
51
0
0
ARC
8
0
10
233.96
20
-66.4668643
40
3
50
180
51
270
0
LINE
8
0
10
245.11
20
-97.0268643
11
262.89
21
-97.0268643
0
LINE
8
0
10
263.43
20
-96.4868643
11
263.43
21
-69.4668643
0
LINE
8
0
10
244.57
20
-69.4668643
11
244.57
21
-96.4868643
0
ARC
8
0
10
262.89
20
-96.4868643
40
0.54
50
270
51
0
0
ARC
8
0
10
245.11
20
-96.4868643
40
0.54
50
180
51
270
0
ENDSEC
0
EOF