0
SECTION
2
HEADER
9
$INSUNITS
70
4
0
ENDSEC
0
SECTION
2
TABLES
0
TABLE
2
LTYPE
0
LTYPE
72
65
70
64
2
CONTINUOUS
3
______
73
0
40
0
0
ENDTAB
0
TABLE
2
LAYER
0
ENDTAB
0
ENDSEC
0
SECTION
2
ENTITIES
0
LINE
8
0
10
239.7100301
20
-175.0885807
11
232.6350291
21
-179.1734273
0
LINE
8
0
10
229.3649715
20
-179.1734261
11
221.8849702
21
-174.8547402
0
LINE
8
0
10
197.1149702
20
-160.5534255
11
189.6349702
21
-156.2347402
0
LINE
8
0
10
188
20
-153.4028543
11
188
21
-141.3012457
0
LINE
8
0
10
186.3650298
20
-138.4693598
11
178.8849702
21
-134.1506402
0
LINE
8
0
10
154.1149702
20
-119.8493255
11
146.6349702
21
-115.5306402
0
LINE
8
0
10
134.25
20
-94.0787543
11
134.25
21
-85.4412458
0
LINE
8
0
10
146.6349702
20
-63.9893599
11
154.1149702
21
-59.6706746
0
LINE
8
0
10
178.8850298
20
-59.6706746
11
186.3649702
21
-63.9893254
0
LINE
8
0
10
189.6350298
20
-63.9893254
11
197.1149702
21
-59.6706746
0
LINE
8
0
10
221.8850284
20
-59.6706702
11
223.3131607
21
-60.4952198
0
LINE
8
0
10
284.6868393
20
-60.4952198
11
286.1149716
21
-59.6706702
0
LINE
8
0
10
310.8850298
20
-59.6706746
11
318.3649702
21
-63.9893254
0
LINE
8
0
10
321.6350298
20
-63.9893254
11
329.1149702
21
-59.6706746
0
LINE
8
0
10
353.8850298
20
-59.6706746
11
361.3650298
21
-63.9893599
0
LINE
8
0
10
373.75
20
-85.4412458
11
373.75
21
-94.0787543
0
LINE
8
0
10
361.3650298
20
-115.5306402
11
353.8850298
21
-119.8493255
0
LINE
8
0
10
329.1150298
20
-134.1506402
11
321.6349702
21
-138.4693598
0
LINE
8
0
10
320
20
-141.3012457
11
320
21
-153.4028543
0
LINE
8
0
10
318.3650298
20
-156.2347402
11
310.8850298
21
-160.5534255
0
LINE
8
0
10
286.1150298
20
-174.8547402
11
278.6350285
21
-179.1734261
0
LINE
8
0
10
275.3649709
20
-179.1734273
11
268.2899699
21
-175.0885807
0
LINE
8
0
10
283.0518104
20
-60.9333333
11
277.27
21
-60.9333333
0
LINE
8
0
10
230.73
20
-60.9333333
11
224.9481896
21
-60.9333333
0
ARC
8
0
10
231.0000013
20
-176.3415403
40
3.27
50
239.9993965
51
300.0005622
0
ARC
8
0
10
191.27
20
-153.4028543
40
3.27
50
180
51
239.9993965
0
ARC
8
0
10
184.73
20
-141.3012457
40
3.27
50
0
51
59.9993965
0
ARC
8
0
10
188
20
-61.1574395
40
3.27
50
239.9993965
51
300.0006035
0
ARC
8
0
10
224.9481896
20
-57.6633333
40
3.27
50
239.9994171
51
270
0
ARC
8
0
10
283.0518104
20
-57.6633333
40
3.27
50
270
51
300.0005829
0
ARC
8
0
10
320
20
-61.1574395
40
3.27
50
239.9993965
51
300.0006035
0
ARC
8
0
10
323.27
20
-141.3012457
40
3.27
50
120.0006035
51
180
0
ARC
8
0
10
316.73
20
-153.4028543
40
3.27
50
300.0006035
51
0
0
ARC
8
0
10
276.9999987
20
-176.3415403
40
3.27
50
239.9994378
51
300.0006035
0
LINE
8
0
10
145
20
-66.8212458
11
145
21
-75.4587543
0
LINE
8
0
10
143.3650298
20
-78.2906402
11
135.8849702
21
-82.6093599
0
LINE
8
0
10
164.8649702
20
-63.9893255
11
157.3850298
21
-59.6706746
0
LINE
8
0
10
175.6149702
20
-59.6706746
11
168.1350298
21
-63.9893255
0
LINE
8
0
10
207.8649702
20
-63.9893255
11
200.3850298
21
-59.6706746
0
LINE
8
0
10
218.6149733
20
-59.6706728
11
211.1350298
21
-63.9893255
0
LINE
8
0
10
372.1150298
20
-82.6093599
11
364.6349702
21
-78.2906402
0
LINE
8
0
10
363
20
-75.4587543
11
363
21
-66.8212458
0
LINE
8
0
10
339.8649702
20
-63.9893255
11
332.3850298
21
-59.6706746
0
LINE
8
0
10
350.6149702
20
-59.6706746
11
343.1350298
21
-63.9893255
0
LINE
8
0
10
296.8649702
20
-63.9893255
11
289.3850267
21
-59.6706728
0
LINE
8
0
10
307.6149702
20
-59.6706746
11
300.1350298
21
-63.9893255
0
LINE
8
0
10
135.8849702
20
-96.9106402
11
143.3650298
21
-101.2293599
0
LINE
8
0
10
145
20
-104.0612458
11
145
21
-112.6987543
0
LINE
8
0
10
157.3850298
20
-119.8493255
11
164.8649702
21
-115.5306746
0
LINE
8
0
10
168.1350298
20
-115.5306746
11
175.6150298
21
-119.8493599
0
LINE
8
0
10
177.25
20
-122.6812458
11
177.25
21
-131.3187543
0
LINE
8
0
10
200.3850298
20
-160.5534255
11
207.8649702
21
-156.2347746
0
LINE
8
0
10
211.1350298
20
-156.2347746
11
218.6150298
21
-160.5534599
0
LINE
8
0
10
220.25
20
-163.3853458
11
220.25
21
-172.0228543
0
LINE
8
0
10
363
20
-112.6987543
11
363
21
-104.0612458
0
LINE
8
0
10
364.6349702
20
-101.2293599
11
372.1150298
21
-96.9106402
0
LINE
8
0
10
330.75
20
-131.3187543
11
330.75
21
-122.6812458
0
LINE
8
0
10
332.3849702
20
-119.8493599
11
339.8649702
21
-115.5306746
0
LINE
8
0
10
343.1350298
20
-115.5306746
11
350.6149702
21
-119.8493255
0
LINE
8
0
10
287.75
20
-172.0228543
11
287.75
21
-163.3853458
0
LINE
8
0
10
289.3849702
20
-160.5534599
11
296.8649702
21
-156.2347746
0
LINE
8
0
10
300.1350298
20
-156.2347746
11
307.6149702
21
-160.5534255
0
ARC
8
0
10
223.52
20
-172.0228543
40
3.27
50
180
51
239.9993965
0
ARC
8
0
10
216.98
20
-163.3853458
40
3.27
50
0
51
59.9993965
0
ARC
8
0
10
209.5
20
-159.0666605
40
3.27
50
59.9993965
51
120.0006035
0
ARC
8
0
10
198.75
20
-157.7215396
40
3.27
50
239.9993965
51
300.0006035
0
ARC
8
0
10
180.52
20
-131.3187543
40
3.27
50
180
51
239.9993965
0
ARC
8
0
10
173.98
20
-122.6812458
40
3.27
50
0
51
59.9993965
0
ARC
8
0
10
166.5
20
-118.3625605
40
3.27
50
59.9993965
51
120.0006035
0
ARC
8
0
10
155.75
20
-117.0174396
40
3.27
50
239.9993965
51
300.0006035
0
ARC
8
0
10
148.27
20
-112.6987543
40
3.27
50
180
51
239.9993965
0
ARC
8
0
10
141.73
20
-104.0612458
40
3.27
50
0
51
59.9993965
0
ARC
8
0
10
137.52
20
-94.0787543
40
3.27
50
180
51
239.9993965
0
ARC
8
0
10
137.52
20
-85.4412458
40
3.27
50
120.0006035
51
180
0
ARC
8
0
10
141.73
20
-75.4587543
40
3.27
50
300.0006035
51
0
0
ARC
8
0
10
148.27
20
-66.8212458
40
3.27
50
120.0006035
51
180
0
ARC
8
0
10
155.75
20
-62.5025605
40
3.27
50
59.9993965
51
120.0006035
0
ARC
8
0
10
166.5
20
-61.1574396
40
3.27
50
239.9993965
51
300.0006035
0
ARC
8
0
10
177.25
20
-62.5025605
40
3.27
50
59.9993965
51
120.0006035
0
ARC
8
0
10
198.75
20
-62.5025605
40
3.27
50
59.9993965
51
120.0006035
0
ARC
8
0
10
209.5
20
-61.1574396
40
3.27
50
239.9993965
51
300.0006035
0
ARC
8
0
10
220.2500031
20
-62.5025587
40
3.27
50
59.9994889
51
120.0006035
0
ARC
8
0
10
287.7499969
20
-62.5025587
40
3.27
50
59.9993965
51
120.0005111
0
ARC
8
0
10
298.5
20
-61.1574396
40
3.27
50
239.9993965
51
300.0006035
0
ARC
8
0
10
309.25
20
-62.5025605
40
3.27
50
59.9993965
51
120.0006035
0
ARC
8
0
10
330.75
20
-62.5025605
40
3.27
50
59.9993965
51
120.0006035
0
ARC
8
0
10
341.5
20
-61.1574396
40
3.27
50
239.9993965
51
300.0006035
0
ARC
8
0
10
352.25
20
-62.5025605
40
3.27
50
59.9993965
51
120.0006035
0
ARC
8
0
10
359.73
20
-66.8212458
40
3.27
50
0
51
59.9993965
0
ARC
8
0
10
366.27
20
-75.4587543
40
3.27
50
180
51
239.9993965
0
ARC
8
0
10
370.48
20
-85.4412458
40
3.27
50
0
51
59.9993965
0
ARC
8
0
10
370.48
20
-94.0787543
40
3.27
50
300.0006035
51
0
0
ARC
8
0
10
366.27
20
-104.0612458
40
3.27
50
120.0006035
51
180
0
ARC
8
0
10
359.73
20
-112.6987543
40
3.27
50
300.0006035
51
0
0
ARC
8
0
10
352.25
20
-117.0174396
40
3.27
50
239.9993965
51
300.0006035
0
ARC
8
0
10
341.5
20
-118.3625605
40
3.27
50
59.9993965
51
120.0006035
0
ARC
8
0
10
334.02
20
-122.6812458
40
3.27
50
120.0006035
51
180
0
ARC
8
0
10
327.48
20
-131.3187543
40
3.27
50
300.0006035
51
0
0
ARC
8
0
10
309.25
20
-157.7215396
40
3.27
50
239.9993965
51
300.0006035
0
ARC
8
0
10
298.5
20
-159.0666605
40
3.27
50
59.9993965
51
120.0006035
0
ARC
8
0
10
291.02
20
-163.3853458
40
3.27
50
120.0006035
51
180
0
ARC
8
0
10
284.48
20
-172.0228543
40
3.27
50
300.0006035
51
0
0
LINE
8
0
10
241.48
20
-172.0228681
11
241.48
21
-163.6971129
0
LINE
8
0
10
239.7100323
20
-160.6314016
11
237.8749677
21
-159.5719007
0
LINE
8
0
10
236.105
20
-156.5061894
11
236.105
21
-141.9737796
0
LINE
8
0
10
234.3350323
20
-138.9080683
11
232.4999677
21
-137.8485674
0
LINE
8
0
10
230.73
20
-134.7828561
11
230.73
21
-128.8879125
0
LINE
8
0
10
232.4999702
20
-125.8221998
11
250.5
21
-115.4296441
0
LINE
8
0
10
257.5
20
-115.4296441
11
275.5000298
21
-125.8221998
0
LINE
8
0
10
277.27
20
-128.8879125
11
277.27
21
-134.7828561
0
LINE
8
0
10
275.5000323
20
-137.8485674
11
273.6649677
21
-138.9080683
0
LINE
8
0
10
271.895
20
-141.9737796
11
271.895
21
-156.5061894
0
LINE
8
0
10
270.1250323
20
-159.5719007
11
268.2899677
21
-160.6314016
0
LINE
8
0
10
266.52
20
-163.6971129
11
266.52
21
-172.0228681
0
ARC
8
0
10
237.94
20
-163.6971129
40
3.54
50
0
51
59.9993965
0
ARC
8
0
10
239.645
20
-156.5061894
40
3.54
50
180
51
239.9993965
0
ARC
8
0
10
232.565
20
-141.9737796
40
3.54
50
0
51
59.9993965
0
ARC
8
0
10
234.27
20
-134.7828561
40
3.54
50
180
51
239.9993965
0
ARC
8
0
10
234.27
20
-128.8879125
40
3.54
50
120.0005573
51
180
0
ARC
8
0
10
273.73
20
-128.8879125
40
3.54
50
0
51
59.9994427
0
ARC
8
0
10
273.73
20
-134.7828561
40
3.54
50
300.0006035
51
0
0
ARC
8
0
10
275.435
20
-141.9737796
40
3.54
50
120.0006035
51
180
0
ARC
8
0
10
268.355
20
-156.5061894
40
3.54
50
300.0006035
51
0
0
ARC
8
0
10
270.06
20
-163.6971129
40
3.54
50
120.0006035
51
180
0
ARC
8
0
10
270.06
20
-172.0228681
40
3.54
50
180
51
239.9994378
0
ARC
8
0
10
237.94
20
-172.0228681
40
3.54
50
300.0005622
51
0
0
LINE
8
0
10
233.73
20
-66.9333333
11
244.57
21
-66.9333333
0
LINE
8
0
10
263.43
20
-66.9333333
11
274.27
21
-66.9333333
0
LINE
8
0
10
277.27
20
-63.9333333
11
277.27
21
-60.9333333
0
LINE
8
0
10
230.73
20
-60.9333333
11
230.73
21
-63.9333333
0
ARC
8
0
10
274.27
20
-63.9333333
40
3
50
270
51
0
0
ARC
8
0
10
233.73
20
-63.9333333
40
3
50
180
51
270
0
LINE
8
0
10
234.5
20
-112.9833333
11
239.5
21
-112.9833333
0
LINE
8
0
10
240.5
20
-111.9833333
11
240.5
21
-104.8733333
0
LINE
8
0
10
233.5
20
-111.9833333
11
233.5
21
-104.8733333
0
ARC
8
0
10
239.5
20
-111.9833333
40
1
50
270
51
0
0
ARC
8
0
10
234.5
20
-111.9833333
40
1
50
180
51
270
0
LINE
8
0
10
287.6276952
20
-132.1681618
11
299.7520508
21
-125.1681618
0
LINE
8
0
10
299.9497045
20
-124.4305081
11
279.9497045
21
-89.7894919
0
LINE
8
0
10
279.2120508
20
-89.5918382
11
267.0876952
21
-96.5918382
0
LINE
8
0
10
266.8900415
20
-97.3294919
11
286.8900415
21
-131.9705081
0
ARC
8
0
10
299.4820508
20
-124.7005081
40
0.54
50
300
51
30
0
ARC
8
0
10
279.4820508
20
-90.0594919
40
0.54
50
30
51
120
0
ARC
8
0
10
267.3576952
20
-97.0594919
40
0.54
50
120
51
210
0
ARC
8
0
10
287.3576952
20
-131.7005081
40
0.54
50
210
51
300
0
LINE
8
0
10
153.5000769
20
-112.15
11
152.25
21
-112.15
0
ARC
8
0
10
151.3066393
20
-111.8182311
40
1
50
251.9863177
51
340.6238244
0
ARC
8
0
10
150.75
20
-113.53
40
0.8
50
71.9863205
51
295.4077548
0
ARC
8
0
10
151.5223033
20
-115.155899
40
1
50
43.3063515
51
115.4077559
0
LINE
8
0
10
152.25
20
-114.47
11
153.5000769
21
-114.47
0
ARC
8
0
10
153.5000769
20
-115.47
40
1
50
49.4641967
51
90
0
LINE
8
0
10
154.15
20
-114.71
11
157.35
21
-114.71
0
ARC
8
0
10
157.9999231
20
-115.47
40
1
50
90
51
130.5358033
0
LINE
8
0
10
157.9999231
20
-114.47
11
159.25
21
-114.47
0
LINE
8
0
10
159.25
20
-114.47
11
159.25
21
-112.15
0
LINE
8
0
10
159.25
20
-112.15
11
157.9999231
21
-112.15
0
ARC
8
0
10
157.9999231
20
-111.15
40
1
50
229.4641967
51
270
0
ARC
8
0
10
157.9449292
20
-111.1062219
40
1
50
128.8381531
51
233.4924146
0
ARC
8
0
10
155.75
20
-108.38
40
2.5
50
308.8381528
51
6.1506399
0
ARC
8
0
10
159.2298527
20
-108.005
40
1
50
90
51
186.1506399
0
LINE
8
0
10
159.3363974
20
-107.005
11
159.2298527
21
-107.005
0
ARC
8
0
10
159.3363974
20
-108.005
40
1
50
348.9125106
51
90
0
ARC
8
0
10
161.25
20
-108.38
40
0.95
50
168.9125107
51
11.0871451
0
ARC
8
0
10
163.1634816
20
-108.0043828
40
1
50
91.8376761
51
191.10597
0
ARC
8
0
10
163.125
20
-106.805
40
0.2
50
271.8376714
51
0
0
LINE
8
0
10
163.325
20
-106.805
11
163.325
21
-106.48
0
ARC
8
0
10
164.325
20
-106.48
40
1
50
90
51
180
0
LINE
8
0
10
164.325
20
-105.48
11
165.125
21
-105.48
0
LINE
8
0
10
165.125
20
-105.48
11
165.125
21
-103.88
0
LINE
8
0
10
165.125
20
-103.88
11
164.003869
21
-103.88
0
ARC
8
0
10
164.003869
20
-102.88
40
1
50
188.7879392
51
270
0
ARC
8
0
10
162.225
20
-103.155
40
0.8
50
8.7879374
51
90
0
LINE
8
0
10
159.35
20
-102.355
11
162.225
21
-102.355
0
ARC
8
0
10
159.35
20
-101.255
40
1.1
50
180
51
270
0
LINE
8
0
10
158.25
20
-101.0049727
11
158.25
21
-101.255
0
LINE
8
0
10
157.4000273
20
-100.155
11
158.25
21
-101.0049727
0
LINE
8
0
10
157.4000273
20
-100.155
11
154.3249727
21
-100.155
0
LINE
8
0
10
153.475
20
-101.0049727
11
154.3249727
21
-100.155
0
ARC
8
0
10
152.5292766
20
-100.68
40
1
50
270
51
341.036079
0
LINE
8
0
10
152.5292766
20
-101.68
11
151.375
21
-101.68
0
ARC
8
0
10
150.4291401
20
-101.3554247
40
1
50
268.3301588
51
341.0601522
0
LINE
8
0
10
150.4
20
-102.355
11
148.7
21
-102.355
0
LINE
8
0
10
148.7
20
-102.355
11
148.7
21
-106.205
0
ARC
8
0
10
148.6937772
20
-107.2049806
40
1
50
322.9455248
51
89.6434575
0
ARC
8
0
10
150.25
20
-108.38
40
0.95
50
142.9455262
51
58.7551808
0
ARC
8
0
10
151.2614571
20
-106.7128304
40
1
50
149.4805793
51
238.7551808
0
LINE
8
0
10
150.4
20
-106.205
11
150.4
21
-104.28
0
ARC
8
0
10
151.4
20
-104.28
40
1
50
90
51
180
0
LINE
8
0
10
151.4
20
-103.28
11
152.5292766
21
-103.28
0
ARC
8
0
10
152.5292766
20
-104.28
40
1
50
18.963921
51
90
0
LINE
8
0
10
154.3249727
20
-104.805
11
153.475
21
-103.9550273
0
ARC
8
0
10
153.6727836
20
-105.5630563
40
1
50
306.4050931
51
49.2931447
0
ARC
8
0
10
155.75
20
-108.38
40
2.5
50
126.4050912
51
231.1618472
0
ARC
8
0
10
153.5550708
20
-111.1062219
40
1
50
306.5075854
51
51.1618469
0
ARC
8
0
10
153.5000769
20
-111.15
40
1
50
270
51
310.5358033
0
LINE
8
0
10
175.0000769
20
-112.15
11
173.75
21
-112.15
0
ARC
8
0
10
172.8066393
20
-111.8182311
40
1
50
251.9863177
51
340.6238244
0
ARC
8
0
10
172.25
20
-113.53
40
0.8
50
71.9863205
51
295.4077548
0
ARC
8
0
10
173.0223033
20
-115.155899
40
1
50
43.3063515
51
115.4077559
0
LINE
8
0
10
173.75
20
-114.47
11
175.0000769
21
-114.47
0
ARC
8
0
10
175.0000769
20
-115.47
40
1
50
49.4641967
51
90
0
LINE
8
0
10
175.65
20
-114.71
11
178.85
21
-114.71
0
ARC
8
0
10
179.4999231
20
-115.47
40
1
50
90
51
130.5358033
0
LINE
8
0
10
179.4999231
20
-114.47
11
180.75
21
-114.47
0
LINE
8
0
10
180.75
20
-114.47
11
180.75
21
-112.15
0
LINE
8
0
10
180.75
20
-112.15
11
179.4999231
21
-112.15
0
ARC
8
0
10
179.4999231
20
-111.15
40
1
50
229.4641967
51
270
0
ARC
8
0
10
179.4449292
20
-111.1062219
40
1
50
128.8381531
51
233.4924146
0
ARC
8
0
10
177.25
20
-108.38
40
2.5
50
308.8381528
51
6.1506399
0
ARC
8
0
10
180.7298527
20
-108.005
40
1
50
90
51
186.1506399
0
LINE
8
0
10
180.8363974
20
-107.005
11
180.7298527
21
-107.005
0
ARC
8
0
10
180.8363974
20
-108.005
40
1
50
348.9125106
51
90
0
ARC
8
0
10
182.75
20
-108.38
40
0.95
50
168.9125107
51
11.0871451
0
ARC
8
0
10
184.6634816
20
-108.0043828
40
1
50
91.8376761
51
191.10597
0
ARC
8
0
10
184.625
20
-106.805
40
0.2
50
271.8376714
51
0
0
LINE
8
0
10
184.825
20
-106.805
11
184.825
21
-106.48
0
ARC
8
0
10
185.825
20
-106.48
40
1
50
90
51
180
0
LINE
8
0
10
185.825
20
-105.48
11
186.625
21
-105.48
0
LINE
8
0
10
186.625
20
-105.48
11
186.625
21
-103.88
0
LINE
8
0
10
186.625
20
-103.88
11
185.503869
21
-103.88
0
ARC
8
0
10
185.503869
20
-102.88
40
1
50
188.7879392
51
270
0
ARC
8
0
10
183.725
20
-103.155
40
0.8
50
8.7879374
51
90
0
LINE
8
0
10
180.85
20
-102.355
11
183.725
21
-102.355
0
ARC
8
0
10
180.85
20
-101.255
40
1.1
50
180
51
270
0
LINE
8
0
10
179.75
20
-101.0049727
11
179.75
21
-101.255
0
LINE
8
0
10
178.9000273
20
-100.155
11
179.75
21
-101.0049727
0
LINE
8
0
10
178.9000273
20
-100.155
11
175.8249727
21
-100.155
0
LINE
8
0
10
174.975
20
-101.0049727
11
175.8249727
21
-100.155
0
ARC
8
0
10
174.0292766
20
-100.68
40
1
50
270
51
341.036079
0
LINE
8
0
10
174.0292766
20
-101.68
11
172.875
21
-101.68
0
ARC
8
0
10
171.9291401
20
-101.3554247
40
1
50
268.3301588
51
341.0601522
0
LINE
8
0
10
171.9
20
-102.355
11
170.2
21
-102.355
0
LINE
8
0
10
170.2
20
-102.355
11
170.2
21
-106.205
0
ARC
8
0
10
170.1937772
20
-107.2049806
40
1
50
322.9455248
51
89.6434575
0
ARC
8
0
10
171.75
20
-108.38
40
0.95
50
142.9455262
51
58.7551808
0
ARC
8
0
10
172.7614571
20
-106.7128304
40
1
50
149.4805793
51
238.7551808
0
LINE
8
0
10
171.9
20
-106.205
11
171.9
21
-104.28
0
ARC
8
0
10
172.9
20
-104.28
40
1
50
90
51
180
0
LINE
8
0
10
172.9
20
-103.28
11
174.0292766
21
-103.28
0
ARC
8
0
10
174.0292766
20
-104.28
40
1
50
18.963921
51
90
0
LINE
8
0
10
175.8249727
20
-104.805
11
174.975
21
-103.9550273
0
ARC
8
0
10
175.1727836
20
-105.5630563
40
1
50
306.4050931
51
49.2931447
0
ARC
8
0
10
177.25
20
-108.38
40
2.5
50
126.4050912
51
231.1618472
0
ARC
8
0
10
175.0550708
20
-111.1062219
40
1
50
306.5075854
51
51.1618469
0
ARC
8
0
10
175.0000769
20
-111.15
40
1
50
270
51
310.5358033
0
LINE
8
0
10
196.5000769
20
-112.15
11
195.25
21
-112.15
0
ARC
8
0
10
194.3066393
20
-111.8182311
40
1
50
251.9863177
51
340.6238244
0
ARC
8
0
10
193.75
20
-113.53
40
0.8
50
71.9863205
51
295.4077548
0
ARC
8
0
10
194.5223033
20
-115.155899
40
1
50
43.3063515
51
115.4077559
0
LINE
8
0
10
195.25
20
-114.47
11
196.5000769
21
-114.47
0
ARC
8
0
10
196.5000769
20
-115.47
40
1
50
49.4641967
51
90
0
LINE
8
0
10
197.15
20
-114.71
11
200.35
21
-114.71
0
ARC
8
0
10
200.9999231
20
-115.47
40
1
50
90
51
130.5358033
0
LINE
8
0
10
200.9999231
20
-114.47
11
202.25
21
-114.47
0
LINE
8
0
10
202.25
20
-114.47
11
202.25
21
-112.15
0
LINE
8
0
10
202.25
20
-112.15
11
200.9999231
21
-112.15
0
ARC
8
0
10
200.9999231
20
-111.15
40
1
50
229.4641967
51
270
0
ARC
8
0
10
200.9449292
20
-111.1062219
40
1
50
128.8381531
51
233.4924146
0
ARC
8
0
10
198.75
20
-108.38
40
2.5
50
308.8381528
51
6.1506399
0
ARC
8
0
10
202.2298527
20
-108.005
40
1
50
90
51
186.1506399
0
LINE
8
0
10
202.3363974
20
-107.005
11
202.2298527
21
-107.005
0
ARC
8
0
10
202.3363974
20
-108.005
40
1
50
348.9125106
51
90
0
ARC
8
0
10
204.25
20
-108.38
40
0.95
50
168.9125107
51
11.0871451
0
ARC
8
0
10
206.1634816
20
-108.0043828
40
1
50
91.8376761
51
191.10597
0
ARC
8
0
10
206.125
20
-106.805
40
0.2
50
271.8376714
51
0
0
LINE
8
0
10
206.325
20
-106.805
11
206.325
21
-106.48
0
ARC
8
0
10
207.325
20
-106.48
40
1
50
90
51
180
0
LINE
8
0
10
207.325
20
-105.48
11
208.125
21
-105.48
0
LINE
8
0
10
208.125
20
-105.48
11
208.125
21
-103.88
0
LINE
8
0
10
208.125
20
-103.88
11
207.003869
21
-103.88
0
ARC
8
0
10
207.003869
20
-102.88
40
1
50
188.7879392
51
270
0
ARC
8
0
10
205.225
20
-103.155
40
0.8
50
8.7879374
51
90
0
LINE
8
0
10
202.35
20
-102.355
11
205.225
21
-102.355
0
ARC
8
0
10
202.35
20
-101.255
40
1.1
50
180
51
270
0
LINE
8
0
10
201.25
20
-101.0049727
11
201.25
21
-101.255
0
LINE
8
0
10
200.4000273
20
-100.155
11
201.25
21
-101.0049727
0
LINE
8
0
10
200.4000273
20
-100.155
11
197.3249727
21
-100.155
0
LINE
8
0
10
196.475
20
-101.0049727
11
197.3249727
21
-100.155
0
ARC
8
0
10
195.5292766
20
-100.68
40
1
50
270
51
341.036079
0
LINE
8
0
10
195.5292766
20
-101.68
11
194.375
21
-101.68
0
ARC
8
0
10
193.4291401
20
-101.3554247
40
1
50
268.3301588
51
341.0601522
0
LINE
8
0
10
193.4
20
-102.355
11
191.7
21
-102.355
0
LINE
8
0
10
191.7
20
-102.355
11
191.7
21
-106.205
0
ARC
8
0
10
191.6937772
20
-107.2049806
40
1
50
322.9455248
51
89.6434575
0
ARC
8
0
10
193.25
20
-108.38
40
0.95
50
142.9455262
51
58.7551808
0
ARC
8
0
10
194.2614571
20
-106.7128304
40
1
50
149.4805793
51
238.7551808
0
LINE
8
0
10
193.4
20
-106.205
11
193.4
21
-104.28
0
ARC
8
0
10
194.4
20
-104.28
40
1
50
90
51
180
0
LINE
8
0
10
194.4
20
-103.28
11
195.5292766
21
-103.28
0
ARC
8
0
10
195.5292766
20
-104.28
40
1
50
18.963921
51
90
0
LINE
8
0
10
197.3249727
20
-104.805
11
196.475
21
-103.9550273
0
ARC
8
0
10
196.6727836
20
-105.5630563
40
1
50
306.4050931
51
49.2931447
0
ARC
8
0
10
198.75
20
-108.38
40
2.5
50
126.4050912
51
231.1618472
0
ARC
8
0
10
196.5550708
20
-111.1062219
40
1
50
306.5075854
51
51.1618469
0
ARC
8
0
10
196.5000769
20
-111.15
40
1
50
270
51
310.5358033
0
LINE
8
0
10
140.6101227
20
-89.6965094
11
139.9850842
21
-88.6139111
0
ARC
8
0
10
139.8007242
20
-87.6310523
40
1
50
191.9863177
51
280.6238244
0
ARC
8
0
10
138.0399692
20
-88.004873
40
0.8
50
11.9863205
51
235.4077548
0
ARC
8
0
10
137.018051
20
-89.4866568
40
1
50
343.3063515
51
55.4077559
0
LINE
8
0
10
137.9759053
20
-89.7739111
11
138.6009437
21
-90.8565094
0
ARC
8
0
10
137.7349183
20
-91.3565094
40
1
50
349.4641967
51
30
0
LINE
8
0
10
138.7180592
20
-91.5393594
11
140.3180592
21
-94.3106406
0
ARC
8
0
10
139.9848414
20
-95.2534906
40
1
50
30
51
70.5358033
0
LINE
8
0
10
140.8508668
20
-94.7534906
11
141.4759053
21
-95.8360889
0
LINE
8
0
10
141.4759053
20
-95.8360889
11
143.4850842
21
-94.6760889
0
LINE
8
0
10
143.4850842
20
-94.6760889
11
142.8600458
21
-93.5934906
0
ARC
8
0
10
143.7260712
20
-93.0934906
40
1
50
169.4641967
51
210
0
ARC
8
0
10
143.7364872
20
-93.0239754
40
1
50
68.8381531
51
173.4924146
0
ARC
8
0
10
145
20
-89.76
40
2.5
50
248.8381528
51
306.1506399
0
ARC
8
0
10
147.0646859
20
-92.5861408
40
1
50
30
51
126.1506399
0
LINE
8
0
10
147.9839836
20
-92.1784113
11
147.9307113
21
-92.0861408
0
ARC
8
0
10
147.1179582
20
-92.6784113
40
1
50
288.9125106
51
30
0
ARC
8
0
10
147.75
20
-94.5231397
40
0.95
50
108.9125107
51
311.0871451
0
ARC
8
0
10
149.0320348
20
-95.9924548
40
1
50
31.8376761
51
131.10597
0
ARC
8
0
10
150.05149
20
-95.3594374
40
0.2
50
211.8376714
51
300
0
LINE
8
0
10
150.15149
20
-95.5326424
11
150.4329483
21
-95.3701424
0
ARC
8
0
10
150.9329483
20
-96.2361678
40
1
50
30
51
120
0
LINE
8
0
10
151.7989737
20
-95.7361678
11
152.1989737
21
-96.4289882
0
LINE
8
0
10
152.1989737
20
-96.4289882
11
153.5846143
21
-95.6289882
0
LINE
8
0
10
153.5846143
20
-95.6289882
11
153.0240488
21
-94.6580602
0
ARC
8
0
10
153.8900742
20
-94.1580602
40
1
50
128.7879392
51
210
0
ARC
8
0
10
152.7624827
20
-92.7550145
40
0.8
50
308.7879374
51
30
0
LINE
8
0
10
152.0178031
20
-89.8651915
11
153.4553031
21
-92.3550145
0
ARC
8
0
10
152.970431
20
-89.3151915
40
1.1
50
120
51
210
0
LINE
8
0
10
152.636961
20
-88.2375499
11
152.420431
21
-88.3625635
0
LINE
8
0
10
152.9480726
20
-87.0764656
11
152.636961
21
-88.2375499
0
LINE
8
0
10
152.9480726
20
-87.0764656
11
151.4105453
21
-84.4133902
0
LINE
8
0
10
150.249461
20
-84.1022786
11
151.4105453
21
-84.4133902
0
ARC
8
0
10
150.0580339
20
-83.1207717
40
1
50
210
51
281.036079
0
LINE
8
0
10
149.1920085
20
-83.6207717
11
148.6148702
21
-82.6211389
0
ARC
8
0
10
148.4230307
20
-81.6397125
40
1
50
208.3301588
51
281.0601522
0
LINE
8
0
10
147.5428031
20
-82.1142641
11
146.6928031
21
-80.6420209
0
LINE
8
0
10
146.6928031
20
-80.6420209
11
143.3586053
21
-82.5670209
0
ARC
8
0
10
142.4894853
20
-83.0616221
40
1
50
262.9455248
51
29.6434575
0
ARC
8
0
10
142.25
20
-84.9968603
40
0.95
50
82.9455262
51
358.7551808
0
ARC
8
0
10
144.1995398
20
-85.039223
40
1
50
89.4805793
51
178.7551808
0
LINE
8
0
10
144.2086053
20
-84.0392641
11
145.8757042
21
-83.0767641
0
ARC
8
0
10
146.3757042
20
-83.9427895
40
1
50
30
51
120
0
LINE
8
0
10
147.2417296
20
-83.4427895
11
147.8063679
21
-84.4207717
0
ARC
8
0
10
146.9403425
20
-84.9207717
40
1
50
318.963921
51
30
0
LINE
8
0
10
147.3835272
20
-86.7383902
11
147.6946388
21
-85.5773059
0
ARC
8
0
10
146.4009366
20
-86.552606
40
1
50
246.4050931
51
349.2931447
0
ARC
8
0
10
145
20
-89.76
40
2.5
50
66.4050912
51
171.1618472
0
ARC
8
0
10
141.541558
20
-89.2222465
40
1
50
246.5075854
51
351.1618469
0
ARC
8
0
10
141.4761481
20
-89.1965094
40
1
50
210
51
250.5358033
0
LINE
8
0
10
168.6399542
20
-93.5934906
11
168.0149158
21
-94.6760889
0
ARC
8
0
10
167.2559151
20
-95.3271788
40
1
50
311.9863177
51
40.6238244
0
ARC
8
0
10
168.4600308
20
-96.665127
40
0.8
50
131.9863205
51
355.4077548
0
ARC
8
0
10
170.2542523
20
-96.8092422
40
1
50
103.3063515
51
175.4077559
0
LINE
8
0
10
170.0240947
20
-95.8360889
11
170.6491332
21
-94.7534906
0
ARC
8
0
10
171.5151586
20
-95.2534906
40
1
50
109.4641967
51
150
0
LINE
8
0
10
171.1819408
20
-94.3106406
11
172.7819408
21
-91.5393594
0
ARC
8
0
10
173.7650817
20
-91.3565094
40
1
50
150
51
190.5358033
0
LINE
8
0
10
172.8990563
20
-90.8565094
11
173.5240947
21
-89.7739111
0
LINE
8
0
10
173.5240947
20
-89.7739111
11
171.5149158
21
-88.6139111
0
LINE
8
0
10
171.5149158
20
-88.6139111
11
170.8898773
21
-89.6965094
0
ARC
8
0
10
170.0238519
20
-89.1965094
40
1
50
289.4641967
51
330
0
ARC
8
0
10
169.958442
20
-89.2222465
40
1
50
188.8381531
51
293.4924146
0
ARC
8
0
10
166.5
20
-89.76
40
2.5
50
8.8381528
51
66.1506399
0
ARC
8
0
10
167.9151668
20
-86.5588592
40
1
50
150
51
246.1506399
0
LINE
8
0
10
167.1024138
20
-85.9665887
11
167.0491414
21
-86.0588592
0
ARC
8
0
10
167.9684392
20
-86.4665887
40
1
50
48.9125106
51
150
0
ARC
8
0
10
169.25
20
-84.9968603
40
0.95
50
228.9125107
51
71.0871451
0
ARC
8
0
10
169.8814468
20
-83.151928
40
1
50
151.8376761
51
251.10597
0
ARC
8
0
10
168.82351
20
-82.5855626
40
0.2
50
331.8376714
51
60
0
LINE
8
0
10
168.92351
20
-82.4123576
11
168.6420517
21
-82.2498576
0
ARC
8
0
10
169.1420517
20
-81.3838322
40
1
50
150
51
240
0
LINE
8
0
10
168.2760263
20
-80.8838322
11
168.6760263
21
-80.1910118
0
LINE
8
0
10
168.6760263
20
-80.1910118
11
167.2903857
21
-79.3910118
0
LINE
8
0
10
167.2903857
20
-79.3910118
11
166.7298202
21
-80.3619398
0
ARC
8
0
10
165.8637948
20
-79.8619398
40
1
50
248.7879392
51
330
0
ARC
8
0
10
165.2125173
20
-81.5399855
40
0.8
50
68.7879374
51
150
0
LINE
8
0
10
163.0821969
20
-83.6298085
11
164.5196969
21
-81.1399855
0
ARC
8
0
10
162.129569
20
-83.0798085
40
1.1
50
240
51
330
0
LINE
8
0
10
161.363039
20
-83.9074228
11
161.579569
21
-84.0324365
0
LINE
8
0
10
160.2019547
20
-84.2185344
11
161.363039
21
-83.9074228
0
LINE
8
0
10
160.2019547
20
-84.2185344
11
158.6644274
21
-86.8816098
0
LINE
8
0
10
158.975539
20
-88.0426941
11
158.6644274
21
-86.8816098
0
ARC
8
0
10
158.2212427
20
-88.6992283
40
1
50
330
51
41.036079
0
LINE
8
0
10
159.0872681
20
-89.1992283
11
158.5101298
21
-90.1988611
0
ARC
8
0
10
157.7561094
20
-90.8557122
40
1
50
328.3301588
51
41.0601522
0
LINE
8
0
10
158.6071969
20
-91.3807359
11
157.7571969
21
-92.8529791
0
LINE
8
0
10
157.7571969
20
-92.8529791
11
161.0913947
21
-94.7779791
0
ARC
8
0
10
161.9542919
20
-95.2833585
40
1
50
22.9455248
51
149.6434575
0
ARC
8
0
10
163.75
20
-94.5231397
40
0.95
50
202.9455262
51
118.7551808
0
ARC
8
0
10
162.8119173
20
-92.8136074
40
1
50
209.4805793
51
298.7551808
0
LINE
8
0
10
161.9413947
20
-93.3057359
11
160.2742958
21
-92.3432359
0
ARC
8
0
10
160.7742958
20
-91.4772105
40
1
50
150
51
240
0
LINE
8
0
10
159.9082704
20
-90.9772105
11
160.4729087
21
-89.9992283
0
ARC
8
0
10
161.3389341
20
-90.4992283
40
1
50
78.963921
51
150
0
LINE
8
0
10
162.6914455
20
-89.2066098
11
161.5303612
21
-89.5177214
0
ARC
8
0
10
163.021847
20
-90.1504503
40
1
50
6.4050931
51
109.2931447
0
ARC
8
0
10
166.5
20
-89.76
40
2.5
50
186.4050912
51
291.1618472
0
ARC
8
0
10
167.7635128
20
-93.0239754
40
1
50
6.5075854
51
111.1618469
0
ARC
8
0
10
167.7739288
20
-93.0934906
40
1
50
330
51
10.5358033
0
LINE
8
0
10
190.1399542
20
-93.5934906
11
189.5149158
21
-94.6760889
0
ARC
8
0
10
188.7559151
20
-95.3271788
40
1
50
311.9863177
51
40.6238244
0
ARC
8
0
10
189.9600308
20
-96.665127
40
0.8
50
131.9863205
51
355.4077548
0
ARC
8
0
10
191.7542523
20
-96.8092422
40
1
50
103.3063515
51
175.4077559
0
LINE
8
0
10
191.5240947
20
-95.8360889
11
192.1491332
21
-94.7534906
0
ARC
8
0
10
193.0151586
20
-95.2534906
40
1
50
109.4641967
51
150
0
LINE
8
0
10
192.6819408
20
-94.3106406
11
194.2819408
21
-91.5393594
0
ARC
8
0
10
195.2650817
20
-91.3565094
40
1
50
150
51
190.5358033
0
LINE
8
0
10
194.3990563
20
-90.8565094
11
195.0240947
21
-89.7739111
0
LINE
8
0
10
195.0240947
20
-89.7739111
11
193.0149158
21
-88.6139111
0
LINE
8
0
10
193.0149158
20
-88.6139111
11
192.3898773
21
-89.6965094
0
ARC
8
0
10
191.5238519
20
-89.1965094
40
1
50
289.4641967
51
330
0
ARC
8
0
10
191.458442
20
-89.2222465
40
1
50
188.8381531
51
293.4924146
0
ARC
8
0
10
188
20
-89.76
40
2.5
50
8.8381528
51
66.1506399
0
ARC
8
0
10
189.4151668
20
-86.5588592
40
1
50
150
51
246.1506399
0
LINE
8
0
10
188.6024138
20
-85.9665887
11
188.5491414
21
-86.0588592
0
ARC
8
0
10
189.4684392
20
-86.4665887
40
1
50
48.9125106
51
150
0
ARC
8
0
10
190.75
20
-84.9968603
40
0.95
50
228.9125107
51
71.0871451
0
ARC
8
0
10
191.3814468
20
-83.151928
40
1
50
151.8376761
51
251.10597
0
ARC
8
0
10
190.32351
20
-82.5855626
40
0.2
50
331.8376714
51
60
0
LINE
8
0
10
190.42351
20
-82.4123576
11
190.1420517
21
-82.2498576
0
ARC
8
0
10
190.6420517
20
-81.3838322
40
1
50
150
51
240
0
LINE
8
0
10
189.7760263
20
-80.8838322
11
190.1760263
21
-80.1910118
0
LINE
8
0
10
190.1760263
20
-80.1910118
11
188.7903857
21
-79.3910118
0
LINE
8
0
10
188.7903857
20
-79.3910118
11
188.2298202
21
-80.3619398
0
ARC
8
0
10
187.3637948
20
-79.8619398
40
1
50
248.7879392
51
330
0
ARC
8
0
10
186.7125173
20
-81.5399855
40
0.8
50
68.7879374
51
150
0
LINE
8
0
10
184.5821969
20
-83.6298085
11
186.0196969
21
-81.1399855
0
ARC
8
0
10
183.629569
20
-83.0798085
40
1.1
50
240
51
330
0
LINE
8
0
10
182.863039
20
-83.9074228
11
183.079569
21
-84.0324365
0
LINE
8
0
10
181.7019547
20
-84.2185344
11
182.863039
21
-83.9074228
0
LINE
8
0
10
181.7019547
20
-84.2185344
11
180.1644274
21
-86.8816098
0
LINE
8
0
10
180.475539
20
-88.0426941
11
180.1644274
21
-86.8816098
0
ARC
8
0
10
179.7212427
20
-88.6992283
40
1
50
330
51
41.036079
0
LINE
8
0
10
180.5872681
20
-89.1992283
11
180.0101298
21
-90.1988611
0
ARC
8
0
10
179.2561094
20
-90.8557122
40
1
50
328.3301588
51
41.0601522
0
LINE
8
0
10
180.1071969
20
-91.3807359
11
179.2571969
21
-92.8529791
0
LINE
8
0
10
179.2571969
20
-92.8529791
11
182.5913947
21
-94.7779791
0
ARC
8
0
10
183.4542919
20
-95.2833585
40
1
50
22.9455248
51
149.6434575
0
ARC
8
0
10
185.25
20
-94.5231397
40
0.95
50
202.9455262
51
118.7551808
0
ARC
8
0
10
184.3119173
20
-92.8136074
40
1
50
209.4805793
51
298.7551808
0
LINE
8
0
10
183.4413947
20
-93.3057359
11
181.7742958
21
-92.3432359
0
ARC
8
0
10
182.2742958
20
-91.4772105
40
1
50
150
51
240
0
LINE
8
0
10
181.4082704
20
-90.9772105
11
181.9729087
21
-89.9992283
0
ARC
8
0
10
182.8389341
20
-90.4992283
40
1
50
78.963921
51
150
0
LINE
8
0
10
184.1914455
20
-89.2066098
11
183.0303612
21
-89.5177214
0
ARC
8
0
10
184.521847
20
-90.1504503
40
1
50
6.4050931
51
109.2931447
0
ARC
8
0
10
188
20
-89.76
40
2.5
50
186.4050912
51
291.1618472
0
ARC
8
0
10
189.2635128
20
-93.0239754
40
1
50
6.5075854
51
111.1618469
0
ARC
8
0
10
189.2739288
20
-93.0934906
40
1
50
330
51
10.5358033
0
LINE
8
0
10
211.6399542
20
-93.5934906
11
211.0149158
21
-94.6760889
0
ARC
8
0
10
210.2559151
20
-95.3271788
40
1
50
311.9863177
51
40.6238244
0
ARC
8
0
10
211.4600308
20
-96.665127
40
0.8
50
131.9863205
51
355.4077548
0
ARC
8
0
10
213.2542523
20
-96.8092422
40
1
50
103.3063515
51
175.4077559
0
LINE
8
0
10
213.0240947
20
-95.8360889
11
213.6491332
21
-94.7534906
0
ARC
8
0
10
214.5151586
20
-95.2534906
40
1
50
109.4641967
51
150
0
LINE
8
0
10
214.1819408
20
-94.3106406
11
215.7819408
21
-91.5393594
0
ARC
8
0
10
216.7650817
20
-91.3565094
40
1
50
150
51
190.5358033
0
LINE
8
0
10
215.8990563
20
-90.8565094
11
216.5240947
21
-89.7739111
0
LINE
8
0
10
216.5240947
20
-89.7739111
11
214.5149158
21
-88.6139111
0
LINE
8
0
10
214.5149158
20
-88.6139111
11
213.8898773
21
-89.6965094
0
ARC
8
0
10
213.0238519
20
-89.1965094
40
1
50
289.4641967
51
330
0
ARC
8
0
10
212.958442
20
-89.2222465
40
1
50
188.8381531
51
293.4924146
0
ARC
8
0
10
209.5
20
-89.76
40
2.5
50
8.8381528
51
66.1506399
0
ARC
8
0
10
210.9151668
20
-86.5588592
40
1
50
150
51
246.1506399
0
LINE
8
0
10
210.1024138
20
-85.9665887
11
210.0491414
21
-86.0588592
0
ARC
8
0
10
210.9684392
20
-86.4665887
40
1
50
48.9125106
51
150
0
ARC
8
0
10
212.25
20
-84.9968603
40
0.95
50
228.9125107
51
71.0871451
0
ARC
8
0
10
212.8814468
20
-83.151928
40
1
50
151.8376761
51
251.10597
0
ARC
8
0
10
211.82351
20
-82.5855626
40
0.2
50
331.8376714
51
60
0
LINE
8
0
10
211.92351
20
-82.4123576
11
211.6420517
21
-82.2498576
0
ARC
8
0
10
212.1420517
20
-81.3838322
40
1
50
150
51
240
0
LINE
8
0
10
211.2760263
20
-80.8838322
11
211.6760263
21
-80.1910118
0
LINE
8
0
10
211.6760263
20
-80.1910118
11
210.2903857
21
-79.3910118
0
LINE
8
0
10
210.2903857
20
-79.3910118
11
209.7298202
21
-80.3619398
0
ARC
8
0
10
208.8637948
20
-79.8619398
40
1
50
248.7879392
51
330
0
ARC
8
0
10
208.2125173
20
-81.5399855
40
0.8
50
68.7879374
51
150
0
LINE
8
0
10
206.0821969
20
-83.6298085
11
207.5196969
21
-81.1399855
0
ARC
8
0
10
205.129569
20
-83.0798085
40
1.1
50
240
51
330
0
LINE
8
0
10
204.363039
20
-83.9074228
11
204.579569
21
-84.0324365
0
LINE
8
0
10
203.2019547
20
-84.2185344
11
204.363039
21
-83.9074228
0
LINE
8
0
10
203.2019547
20
-84.2185344
11
201.6644274
21
-86.8816098
0
LINE
8
0
10
201.975539
20
-88.0426941
11
201.6644274
21
-86.8816098
0
ARC
8
0
10
201.2212427
20
-88.6992283
40
1
50
330
51
41.036079
0
LINE
8
0
10
202.0872681
20
-89.1992283
11
201.5101298
21
-90.1988611
0
ARC
8
0
10
200.7561094
20
-90.8557122
40
1
50
328.3301588
51
41.0601522
0
LINE
8
0
10
201.6071969
20
-91.3807359
11
200.7571969
21
-92.8529791
0
LINE
8
0
10
200.7571969
20
-92.8529791
11
204.0913947
21
-94.7779791
0
ARC
8
0
10
204.9542919
20
-95.2833585
40
1
50
22.9455248
51
149.6434575
0
ARC
8
0
10
206.75
20
-94.5231397
40
0.95
50
202.9455262
51
118.7551808
0
ARC
8
0
10
205.8119173
20
-92.8136074
40
1
50
209.4805793
51
298.7551808
0
LINE
8
0
10
204.9413947
20
-93.3057359
11
203.2742958
21
-92.3432359
0
ARC
8
0
10
203.7742958
20
-91.4772105
40
1
50
150
51
240
0
LINE
8
0
10
202.9082704
20
-90.9772105
11
203.4729087
21
-89.9992283
0
ARC
8
0
10
204.3389341
20
-90.4992283
40
1
50
78.963921
51
150
0
LINE
8
0
10
205.6914455
20
-89.2066098
11
204.5303612
21
-89.5177214
0
ARC
8
0
10
206.021847
20
-90.1504503
40
1
50
6.4050931
51
109.2931447
0
ARC
8
0
10
209.5
20
-89.76
40
2.5
50
186.4050912
51
291.1618472
0
ARC
8
0
10
210.7635128
20
-93.0239754
40
1
50
6.5075854
51
111.1618469
0
ARC
8
0
10
210.7739288
20
-93.0934906
40
1
50
330
51
10.5358033
0
LINE
8
0
10
157.9999231
20
-67.37
11
159.25
21
-67.37
0
ARC
8
0
10
160.1933607
20
-67.7017689
40
1
50
431.9863177
51
520.6238244
0
ARC
8
0
10
160.75
20
-65.99
40
0.8
50
251.9863205
51
475.4077548
0
ARC
8
0
10
159.9776967
20
-64.364101
40
1
50
223.3063515
51
295.4077559
0
LINE
8
0
10
159.25
20
-65.05
11
157.9999231
21
-65.05
0
ARC
8
0
10
157.9999231
20
-64.05
40
1
50
229.4641967
51
270
0
LINE
8
0
10
157.35
20
-64.81
11
154.15
21
-64.81
0
ARC
8
0
10
153.5000769
20
-64.05
40
1
50
270
51
310.5358033
0
LINE
8
0
10
153.5000769
20
-65.05
11
152.25
21
-65.05
0
LINE
8
0
10
152.25
20
-65.05
11
152.25
21
-67.37
0
LINE
8
0
10
152.25
20
-67.37
11
153.5000769
21
-67.37
0
ARC
8
0
10
153.5000769
20
-68.37
40
1
50
409.4641967
51
90
0
ARC
8
0
10
153.5550708
20
-68.4137781
40
1
50
308.8381531
51
413.4924146
0
ARC
8
0
10
155.75
20
-71.14
40
2.5
50
128.8381528
51
186.1506399
0
ARC
8
0
10
152.2701473
20
-71.515
40
1
50
270
51
366.1506399
0
LINE
8
0
10
152.1636026
20
-72.515
11
152.2701473
21
-72.515
0
ARC
8
0
10
152.1636026
20
-71.515
40
1
50
168.9125106
51
270
0
ARC
8
0
10
150.25
20
-71.14
40
0.95
50
348.9125107
51
551.0871451
0
ARC
8
0
10
148.3365184
20
-71.5156172
40
1
50
631.8376761
51
731.10597
0
ARC
8
0
10
148.375
20
-72.715
40
0.2
50
91.8376714
51
180
0
LINE
8
0
10
148.175
20
-72.715
11
148.175
21
-73.04
0
ARC
8
0
10
147.175
20
-73.04
40
1
50
270
51
0
0
LINE
8
0
10
147.175
20
-74.04
11
146.375
21
-74.04
0
LINE
8
0
10
146.375
20
-74.04
11
146.375
21
-75.64
0
LINE
8
0
10
146.375
20
-75.64
11
147.496131
21
-75.64
0
ARC
8
0
10
147.496131
20
-76.64
40
1
50
368.7879392
51
90
0
ARC
8
0
10
149.275
20
-76.365
40
0.8
50
188.7879374
51
270
0
LINE
8
0
10
152.15
20
-77.165
11
149.275
21
-77.165
0
ARC
8
0
10
152.15
20
-78.265
40
1.1
50
0
51
90
0
LINE
8
0
10
153.25
20
-78.5150273
11
153.25
21
-78.265
0
LINE
8
0
10
154.0999727
20
-79.365
11
153.25
21
-78.5150273
0
LINE
8
0
10
154.0999727
20
-79.365
11
157.1750273
21
-79.365
0
LINE
8
0
10
158.025
20
-78.5150273
11
157.1750273
21
-79.365
0
ARC
8
0
10
158.9707234
20
-78.84
40
1
50
450
51
521.036079
0
LINE
8
0
10
158.9707234
20
-77.84
11
160.125
21
-77.84
0
ARC
8
0
10
161.0708599
20
-78.1645753
40
1
50
448.3301588
51
521.0601522
0
LINE
8
0
10
161.1
20
-77.165
11
162.8
21
-77.165
0
LINE
8
0
10
162.8
20
-77.165
11
162.8
21
-73.315
0
ARC
8
0
10
162.8062228
20
-72.3150194
40
1
50
142.9455248
51
269.6434575
0
ARC
8
0
10
161.25
20
-71.14
40
0.95
50
322.9455262
51
598.7551808
0
ARC
8
0
10
160.2385429
20
-72.8071696
40
1
50
689.4805793
51
778.7551808
0
LINE
8
0
10
161.1
20
-73.315
11
161.1
21
-75.24
0
ARC
8
0
10
160.1
20
-75.24
40
1
50
270
51
0
0
LINE
8
0
10
160.1
20
-76.24
11
158.9707234
21
-76.24
0
ARC
8
0
10
158.9707234
20
-75.24
40
1
50
198.963921
51
270
0
LINE
8
0
10
157.1750273
20
-74.715
11
158.025
21
-75.5649727
0
ARC
8
0
10
157.8272164
20
-73.9569437
40
1
50
126.4050931
51
229.2931447
0
ARC
8
0
10
155.75
20
-71.14
40
2.5
50
306.4050912
51
411.1618472
0
ARC
8
0
10
157.9449292
20
-68.4137781
40
1
50
486.5075854
51
591.1618469
0
ARC
8
0
10
157.9999231
20
-68.37
40
1
50
450
51
490.5358033
0
LINE
8
0
10
181.6398773
20
-71.2034906
11
182.2649158
21
-72.2860889
0
ARC
8
0
10
182.4492758
20
-73.2689477
40
1
50
11.9863177
51
100.6238244
0
ARC
8
0
10
184.2100308
20
-72.895127
40
0.8
50
191.9863205
51
55.4077548
0
ARC
8
0
10
185.231949
20
-71.4133432
40
1
50
163.3063515
51
235.4077559
0
LINE
8
0
10
184.2740947
20
-71.1260889
11
183.6490563
21
-70.0434906
0
ARC
8
0
10
184.5150817
20
-69.5434906
40
1
50
169.4641967
51
210
0
LINE
8
0
10
183.5319408
20
-69.3606406
11
181.9319408
21
-66.5893594
0
ARC
8
0
10
182.2651586
20
-65.6465094
40
1
50
210
51
250.5358033
0
LINE
8
0
10
181.3991332
20
-66.1465094
11
180.7740947
21
-65.0639111
0
LINE
8
0
10
180.7740947
20
-65.0639111
11
178.7649158
21
-66.2239111
0
LINE
8
0
10
178.7649158
20
-66.2239111
11
179.3899542
21
-67.3065094
0
ARC
8
0
10
178.5239288
20
-67.8065094
40
1
50
349.4641967
51
30
0
ARC
8
0
10
178.5135128
20
-67.8760246
40
1
50
248.8381531
51
353.4924146
0
ARC
8
0
10
177.25
20
-71.14
40
2.5
50
68.8381528
51
126.1506399
0
ARC
8
0
10
175.1853141
20
-68.3138592
40
1
50
210
51
306.1506399
0
LINE
8
0
10
174.2660164
20
-68.7215887
11
174.3192887
21
-68.8138592
0
ARC
8
0
10
175.1320418
20
-68.2215887
40
1
50
108.9125106
51
210
0
ARC
8
0
10
174.5
20
-66.3768603
40
0.95
50
288.9125107
51
131.0871451
0
ARC
8
0
10
173.2179652
20
-64.9075452
40
1
50
211.8376761
51
311.10597
0
ARC
8
0
10
172.19851
20
-65.5405626
40
0.2
50
31.8376714
51
120
0
LINE
8
0
10
172.09851
20
-65.3673576
11
171.8170517
21
-65.5298576
0
ARC
8
0
10
171.3170517
20
-64.6638322
40
1
50
210
51
300
0
LINE
8
0
10
170.4510263
20
-65.1638322
11
170.0510263
21
-64.4710118
0
LINE
8
0
10
170.0510263
20
-64.4710118
11
168.6653857
21
-65.2710118
0
LINE
8
0
10
168.6653857
20
-65.2710118
11
169.2259512
21
-66.2419398
0
ARC
8
0
10
168.3599258
20
-66.7419398
40
1
50
308.7879392
51
30
0
ARC
8
0
10
169.4875173
20
-68.1449855
40
0.8
50
128.7879374
51
210
0
LINE
8
0
10
170.2321969
20
-71.0348085
11
168.7946969
21
-68.5449855
0
ARC
8
0
10
169.279569
20
-71.5848085
40
1.1
50
300
51
30
0
LINE
8
0
10
169.613039
20
-72.6624501
11
169.829569
21
-72.5374365
0
LINE
8
0
10
169.3019274
20
-73.8235344
11
169.613039
21
-72.6624501
0
LINE
8
0
10
169.3019274
20
-73.8235344
11
170.8394547
21
-76.4866098
0
LINE
8
0
10
172.000539
20
-76.7977214
11
170.8394547
21
-76.4866098
0
ARC
8
0
10
172.1919661
20
-77.7792283
40
1
50
30
51
101.036079
0
LINE
8
0
10
173.0579915
20
-77.2792283
11
173.6351298
21
-78.2788611
0
ARC
8
0
10
173.8269693
20
-79.2602875
40
1
50
28.3301588
51
101.0601522
0
LINE
8
0
10
174.7071969
20
-78.7857359
11
175.5571969
21
-80.2579791
0
LINE
8
0
10
175.5571969
20
-80.2579791
11
178.8913947
21
-78.3329791
0
ARC
8
0
10
179.7605147
20
-77.8383779
40
1
50
82.9455248
51
209.6434575
0
ARC
8
0
10
180
20
-75.9031397
40
0.95
50
262.9455262
51
178.7551808
0
ARC
8
0
10
178.0504602
20
-75.860777
40
1
50
269.4805793
51
358.7551808
0
LINE
8
0
10
178.0413947
20
-76.8607359
11
176.3742958
21
-77.8232359
0
ARC
8
0
10
175.8742958
20
-76.9572105
40
1
50
210
51
300
0
LINE
8
0
10
175.0082704
20
-77.4572105
11
174.4436321
21
-76.4792283
0
ARC
8
0
10
175.3096575
20
-75.9792283
40
1
50
138.963921
51
210
0
LINE
8
0
10
174.8664728
20
-74.1616098
11
174.5553612
21
-75.3226941
0
ARC
8
0
10
175.8490634
20
-74.347394
40
1
50
66.4050931
51
169.2931447
0
ARC
8
0
10
177.25
20
-71.14
40
2.5
50
246.4050912
51
351.1618472
0
ARC
8
0
10
180.708442
20
-71.6777535
40
1
50
66.5075854
51
171.1618469
0
ARC
8
0
10
180.7738519
20
-71.7034906
40
1
50
30
51
70.5358033
0
LINE
8
0
10
203.1398773
20
-71.2034906
11
203.7649158
21
-72.2860889
0
ARC
8
0
10
203.9492758
20
-73.2689477
40
1
50
11.9863177
51
100.6238244
0
ARC
8
0
10
205.7100308
20
-72.895127
40
0.8
50
191.9863205
51
55.4077548
0
ARC
8
0
10
206.731949
20
-71.4133432
40
1
50
163.3063515
51
235.4077559
0
LINE
8
0
10
205.7740947
20
-71.1260889
11
205.1490563
21
-70.0434906
0
ARC
8
0
10
206.0150817
20
-69.5434906
40
1
50
169.4641967
51
210
0
LINE
8
0
10
205.0319408
20
-69.3606406
11
203.4319408
21
-66.5893594
0
ARC
8
0
10
203.7651586
20
-65.6465094
40
1
50
210
51
250.5358033
0
LINE
8
0
10
202.8991332
20
-66.1465094
11
202.2740947
21
-65.0639111
0
LINE
8
0
10
202.2740947
20
-65.0639111
11
200.2649158
21
-66.2239111
0
LINE
8
0
10
200.2649158
20
-66.2239111
11
200.8899542
21
-67.3065094
0
ARC
8
0
10
200.0239288
20
-67.8065094
40
1
50
349.4641967
51
30
0
ARC
8
0
10
200.0135128
20
-67.8760246
40
1
50
248.8381531
51
353.4924146
0
ARC
8
0
10
198.75
20
-71.14
40
2.5
50
68.8381528
51
126.1506399
0
ARC
8
0
10
196.6853141
20
-68.3138592
40
1
50
210
51
306.1506399
0
LINE
8
0
10
195.7660164
20
-68.7215887
11
195.8192887
21
-68.8138592
0
ARC
8
0
10
196.6320418
20
-68.2215887
40
1
50
108.9125106
51
210
0
ARC
8
0
10
196
20
-66.3768603
40
0.95
50
288.9125107
51
131.0871451
0
ARC
8
0
10
194.7179652
20
-64.9075452
40
1
50
211.8376761
51
311.10597
0
ARC
8
0
10
193.69851
20
-65.5405626
40
0.2
50
31.8376714
51
120
0
LINE
8
0
10
193.59851
20
-65.3673576
11
193.3170517
21
-65.5298576
0
ARC
8
0
10
192.8170517
20
-64.6638322
40
1
50
210
51
300
0
LINE
8
0
10
191.9510263
20
-65.1638322
11
191.5510263
21
-64.4710118
0
LINE
8
0
10
191.5510263
20
-64.4710118
11
190.1653857
21
-65.2710118
0
LINE
8
0
10
190.1653857
20
-65.2710118
11
190.7259512
21
-66.2419398
0
ARC
8
0
10
189.8599258
20
-66.7419398
40
1
50
308.7879392
51
30
0
ARC
8
0
10
190.9875173
20
-68.1449855
40
0.8
50
128.7879374
51
210
0
LINE
8
0
10
191.7321969
20
-71.0348085
11
190.2946969
21
-68.5449855
0
ARC
8
0
10
190.779569
20
-71.5848085
40
1.1
50
300
51
30
0
LINE
8
0
10
191.113039
20
-72.6624501
11
191.329569
21
-72.5374365
0
LINE
8
0
10
190.8019274
20
-73.8235344
11
191.113039
21
-72.6624501
0
LINE
8
0
10
190.8019274
20
-73.8235344
11
192.3394547
21
-76.4866098
0
LINE
8
0
10
193.500539
20
-76.7977214
11
192.3394547
21
-76.4866098
0
ARC
8
0
10
193.6919661
20
-77.7792283
40
1
50
30
51
101.036079
0
LINE
8
0
10
194.5579915
20
-77.2792283
11
195.1351298
21
-78.2788611
0
ARC
8
0
10
195.3269693
20
-79.2602875
40
1
50
28.3301588
51
101.0601522
0
LINE
8
0
10
196.2071969
20
-78.7857359
11
197.0571969
21
-80.2579791
0
LINE
8
0
10
197.0571969
20
-80.2579791
11
200.3913947
21
-78.3329791
0
ARC
8
0
10
201.2605147
20
-77.8383779
40
1
50
82.9455248
51
209.6434575
0
ARC
8
0
10
201.5
20
-75.9031397
40
0.95
50
262.9455262
51
178.7551808
0
ARC
8
0
10
199.5504602
20
-75.860777
40
1
50
269.4805793
51
358.7551808
0
LINE
8
0
10
199.5413947
20
-76.8607359
11
197.8742958
21
-77.8232359
0
ARC
8
0
10
197.3742958
20
-76.9572105
40
1
50
210
51
300
0
LINE
8
0
10
196.5082704
20
-77.4572105
11
195.9436321
21
-76.4792283
0
ARC
8
0
10
196.8096575
20
-75.9792283
40
1
50
138.963921
51
210
0
LINE
8
0
10
196.3664728
20
-74.1616098
11
196.0553612
21
-75.3226941
0
ARC
8
0
10
197.3490634
20
-74.347394
40
1
50
66.4050931
51
169.2931447
0
ARC
8
0
10
198.75
20
-71.14
40
2.5
50
246.4050912
51
351.1618472
0
ARC
8
0
10
202.208442
20
-71.6777535
40
1
50
66.5075854
51
171.1618469
0
ARC
8
0
10
202.2738519
20
-71.7034906
40
1
50
30
51
70.5358033
0
LINE
8
0
10
224.6398773
20
-71.2034906
11
225.2649158
21
-72.2860889
0
ARC
8
0
10
225.4492758
20
-73.2689477
40
1
50
11.9863177
51
100.6238244
0
ARC
8
0
10
227.2100308
20
-72.895127
40
0.8
50
191.9863205
51
55.4077548
0
ARC
8
0
10
228.231949
20
-71.4133432
40
1
50
163.3063515
51
235.4077559
0
LINE
8
0
10
227.2740947
20
-71.1260889
11
226.6490563
21
-70.0434906
0
ARC
8
0
10
227.5150817
20
-69.5434906
40
1
50
169.4641967
51
210
0
LINE
8
0
10
226.5319408
20
-69.3606406
11
224.9319408
21
-66.5893594
0
ARC
8
0
10
225.2651586
20
-65.6465094
40
1
50
210
51
250.5358033
0
LINE
8
0
10
224.3991332
20
-66.1465094
11
223.7740947
21
-65.0639111
0
LINE
8
0
10
223.7740947
20
-65.0639111
11
221.7649158
21
-66.2239111
0
LINE
8
0
10
221.7649158
20
-66.2239111
11
222.3899542
21
-67.3065094
0
ARC
8
0
10
221.5239288
20
-67.8065094
40
1
50
349.4641967
51
30
0
ARC
8
0
10
221.5135128
20
-67.8760246
40
1
50
248.8381531
51
353.4924146
0
ARC
8
0
10
220.25
20
-71.14
40
2.5
50
68.8381528
51
126.1506399
0
ARC
8
0
10
218.1853141
20
-68.3138592
40
1
50
210
51
306.1506399
0
LINE
8
0
10
217.2660164
20
-68.7215887
11
217.3192887
21
-68.8138592
0
ARC
8
0
10
218.1320418
20
-68.2215887
40
1
50
108.9125106
51
210
0
ARC
8
0
10
217.5
20
-66.3768603
40
0.95
50
288.9125107
51
131.0871451
0
ARC
8
0
10
216.2179652
20
-64.9075452
40
1
50
211.8376761
51
311.10597
0
ARC
8
0
10
215.19851
20
-65.5405626
40
0.2
50
31.8376714
51
120
0
LINE
8
0
10
215.09851
20
-65.3673576
11
214.8170517
21
-65.5298576
0
ARC
8
0
10
214.3170517
20
-64.6638322
40
1
50
210
51
300
0
LINE
8
0
10
213.4510263
20
-65.1638322
11
213.0510263
21
-64.4710118
0
LINE
8
0
10
213.0510263
20
-64.4710118
11
211.6653857
21
-65.2710118
0
LINE
8
0
10
211.6653857
20
-65.2710118
11
212.2259512
21
-66.2419398
0
ARC
8
0
10
211.3599258
20
-66.7419398
40
1
50
308.7879392
51
30
0
ARC
8
0
10
212.4875173
20
-68.1449855
40
0.8
50
128.7879374
51
210
0
LINE
8
0
10
213.2321969
20
-71.0348085
11
211.7946969
21
-68.5449855
0
ARC
8
0
10
212.279569
20
-71.5848085
40
1.1
50
300
51
30
0
LINE
8
0
10
212.613039
20
-72.6624501
11
212.829569
21
-72.5374365
0
LINE
8
0
10
212.3019274
20
-73.8235344
11
212.613039
21
-72.6624501
0
LINE
8
0
10
212.3019274
20
-73.8235344
11
213.8394547
21
-76.4866098
0
LINE
8
0
10
215.000539
20
-76.7977214
11
213.8394547
21
-76.4866098
0
ARC
8
0
10
215.1919661
20
-77.7792283
40
1
50
30
51
101.036079
0
LINE
8
0
10
216.0579915
20
-77.2792283
11
216.6351298
21
-78.2788611
0
ARC
8
0
10
216.8269693
20
-79.2602875
40
1
50
28.3301588
51
101.0601522
0
LINE
8
0
10
217.7071969
20
-78.7857359
11
218.5571969
21
-80.2579791
0
LINE
8
0
10
218.5571969
20
-80.2579791
11
221.8913947
21
-78.3329791
0
ARC
8
0
10
222.7605147
20
-77.8383779
40
1
50
82.9455248
51
209.6434575
0
ARC
8
0
10
223
20
-75.9031397
40
0.95
50
262.9455262
51
178.7551808
0
ARC
8
0
10
221.0504602
20
-75.860777
40
1
50
269.4805793
51
358.7551808
0
LINE
8
0
10
221.0413947
20
-76.8607359
11
219.3742958
21
-77.8232359
0
ARC
8
0
10
218.8742958
20
-76.9572105
40
1
50
210
51
300
0
LINE
8
0
10
218.0082704
20
-77.4572105
11
217.4436321
21
-76.4792283
0
ARC
8
0
10
218.3096575
20
-75.9792283
40
1
50
138.963921
51
210
0
LINE
8
0
10
217.8664728
20
-74.1616098
11
217.5553612
21
-75.3226941
0
ARC
8
0
10
218.8490634
20
-74.347394
40
1
50
66.4050931
51
169.2931447
0
ARC
8
0
10
220.25
20
-71.14
40
2.5
50
246.4050912
51
351.1618472
0
ARC
8
0
10
223.708442
20
-71.6777535
40
1
50
66.5075854
51
171.1618469
0
ARC
8
0
10
223.7738519
20
-71.7034906
40
1
50
30
51
70.5358033
0
LINE
8
0
10
185.7500769
20
-130.77
11
184.5
21
-130.77
0
ARC
8
0
10
183.5566393
20
-130.4382311
40
1
50
251.9863177
51
340.6238244
0
ARC
8
0
10
183
20
-132.15
40
0.8
50
71.9863205
51
295.4077548
0
ARC
8
0
10
183.7723033
20
-133.775899
40
1
50
43.3063515
51
115.4077559
0
LINE
8
0
10
184.5
20
-133.09
11
185.7500769
21
-133.09
0
ARC
8
0
10
185.7500769
20
-134.09
40
1
50
49.4641967
51
90
0
LINE
8
0
10
186.4
20
-133.33
11
189.6
21
-133.33
0
ARC
8
0
10
190.2499231
20
-134.09
40
1
50
90
51
130.5358033
0
LINE
8
0
10
190.2499231
20
-133.09
11
191.5
21
-133.09
0
LINE
8
0
10
191.5
20
-133.09
11
191.5
21
-130.77
0
LINE
8
0
10
191.5
20
-130.77
11
190.2499231
21
-130.77
0
ARC
8
0
10
190.2499231
20
-129.77
40
1
50
229.4641967
51
270
0
ARC
8
0
10
190.1949292
20
-129.7262219
40
1
50
128.8381531
51
233.4924146
0
ARC
8
0
10
188
20
-127
40
2.5
50
308.8381528
51
6.1506399
0
ARC
8
0
10
191.4798527
20
-126.625
40
1
50
90
51
186.1506399
0
LINE
8
0
10
191.5863974
20
-125.625
11
191.4798527
21
-125.625
0
ARC
8
0
10
191.5863974
20
-126.625
40
1
50
348.9125106
51
90
0
ARC
8
0
10
193.5
20
-127
40
0.95
50
168.9125107
51
11.0871451
0
ARC
8
0
10
195.4134816
20
-126.6243828
40
1
50
91.8376761
51
191.10597
0
ARC
8
0
10
195.375
20
-125.425
40
0.2
50
271.8376714
51
0
0
LINE
8
0
10
195.575
20
-125.425
11
195.575
21
-125.1
0
ARC
8
0
10
196.575
20
-125.1
40
1
50
90
51
180
0
LINE
8
0
10
196.575
20
-124.1
11
197.375
21
-124.1
0
LINE
8
0
10
197.375
20
-124.1
11
197.375
21
-122.5
0
LINE
8
0
10
197.375
20
-122.5
11
196.253869
21
-122.5
0
ARC
8
0
10
196.253869
20
-121.5
40
1
50
188.7879392
51
270
0
ARC
8
0
10
194.475
20
-121.775
40
0.8
50
8.7879374
51
90
0
LINE
8
0
10
191.6
20
-120.975
11
194.475
21
-120.975
0
ARC
8
0
10
191.6
20
-119.875
40
1.1
50
180
51
270
0
LINE
8
0
10
190.5
20
-119.6249727
11
190.5
21
-119.875
0
LINE
8
0
10
189.6500273
20
-118.775
11
190.5
21
-119.6249727
0
LINE
8
0
10
189.6500273
20
-118.775
11
186.5749727
21
-118.775
0
LINE
8
0
10
185.725
20
-119.6249727
11
186.5749727
21
-118.775
0
ARC
8
0
10
184.7792766
20
-119.3
40
1
50
270
51
341.036079
0
LINE
8
0
10
184.7792766
20
-120.3
11
183.625
21
-120.3
0
ARC
8
0
10
182.6791401
20
-119.9754247
40
1
50
268.3301588
51
341.0601522
0
LINE
8
0
10
182.65
20
-120.975
11
180.95
21
-120.975
0
LINE
8
0
10
180.95
20
-120.975
11
180.95
21
-124.825
0
ARC
8
0
10
180.9437772
20
-125.8249806
40
1
50
322.9455248
51
89.6434575
0
ARC
8
0
10
182.5
20
-127
40
0.95
50
142.9455262
51
58.7551808
0
ARC
8
0
10
183.5114571
20
-125.3328304
40
1
50
149.4805793
51
238.7551808
0
LINE
8
0
10
182.65
20
-124.825
11
182.65
21
-122.9
0
ARC
8
0
10
183.65
20
-122.9
40
1
50
90
51
180
0
LINE
8
0
10
183.65
20
-121.9
11
184.7792766
21
-121.9
0
ARC
8
0
10
184.7792766
20
-122.9
40
1
50
18.963921
51
90
0
LINE
8
0
10
186.5749727
20
-123.425
11
185.725
21
-122.5750273
0
ARC
8
0
10
185.9227836
20
-124.1830563
40
1
50
306.4050931
51
49.2931447
0
ARC
8
0
10
188
20
-127
40
2.5
50
126.4050912
51
231.1618472
0
ARC
8
0
10
185.8050708
20
-129.7262219
40
1
50
306.5075854
51
51.1618469
0
ARC
8
0
10
185.7500769
20
-129.77
40
1
50
270
51
310.5358033
0
LINE
8
0
10
233.2499231
20
-163.9341
11
234.5
21
-163.9341
0
ARC
8
0
10
235.4433607
20
-164.2658689
40
1
50
431.9863177
51
520.6238244
0
ARC
8
0
10
236
20
-162.5541
40
0.8
50
251.9863205
51
475.4077548
0
ARC
8
0
10
235.2276967
20
-160.928201
40
1
50
223.3063515
51
295.4077559
0
LINE
8
0
10
234.5
20
-161.6141
11
233.2499231
21
-161.6141
0
ARC
8
0
10
233.2499231
20
-160.6141
40
1
50
229.4641967
51
270
0
LINE
8
0
10
232.6
20
-161.3741
11
229.4
21
-161.3741
0
ARC
8
0
10
228.7500769
20
-160.6141
40
1
50
270
51
310.5358033
0
LINE
8
0
10
228.7500769
20
-161.6141
11
227.5
21
-161.6141
0
LINE
8
0
10
227.5
20
-161.6141
11
227.5
21
-163.9341
0
LINE
8
0
10
227.5
20
-163.9341
11
228.7500769
21
-163.9341
0
ARC
8
0
10
228.7500769
20
-164.9341
40
1
50
409.4641967
51
90
0
ARC
8
0
10
228.8050708
20
-164.9778781
40
1
50
308.8381531
51
413.4924146
0
ARC
8
0
10
231
20
-167.7041
40
2.5
50
128.8381528
51
186.1506399
0
ARC
8
0
10
227.5201473
20
-168.0791
40
1
50
270
51
366.1506399
0
LINE
8
0
10
227.4136026
20
-169.0791
11
227.5201473
21
-169.0791
0
ARC
8
0
10
227.4136026
20
-168.0791
40
1
50
168.9125106
51
270
0
ARC
8
0
10
225.5
20
-167.7041
40
0.95
50
348.9125107
51
551.0871451
0
ARC
8
0
10
223.5865184
20
-168.0797172
40
1
50
631.8376761
51
731.10597
0
ARC
8
0
10
223.625
20
-169.2791
40
0.2
50
91.8376714
51
180
0
LINE
8
0
10
223.425
20
-169.2791
11
223.425
21
-169.6041
0
ARC
8
0
10
222.425
20
-169.6041
40
1
50
270
51
0
0
LINE
8
0
10
222.425
20
-170.6041
11
221.625
21
-170.6041
0
LINE
8
0
10
221.625
20
-170.6041
11
221.625
21
-172.2041
0
LINE
8
0
10
221.625
20
-172.2041
11
222.746131
21
-172.2041
0
ARC
8
0
10
222.746131
20
-173.2041
40
1
50
368.7879392
51
90
0
ARC
8
0
10
224.525
20
-172.9291
40
0.8
50
188.7879374
51
270
0
LINE
8
0
10
227.4
20
-173.7291
11
224.525
21
-173.7291
0
ARC
8
0
10
227.4
20
-174.8291
40
1.1
50
0
51
90
0
LINE
8
0
10
228.5
20
-175.0791273
11
228.5
21
-174.8291
0
LINE
8
0
10
229.3499727
20
-175.9291
11
228.5
21
-175.0791273
0
LINE
8
0
10
229.3499727
20
-175.9291
11
232.4250273
21
-175.9291
0
LINE
8
0
10
233.275
20
-175.0791273
11
232.4250273
21
-175.9291
0
ARC
8
0
10
234.2207234
20
-175.4041
40
1
50
450
51
521.036079
0
LINE
8
0
10
234.2207234
20
-174.4041
11
235.375
21
-174.4041
0
ARC
8
0
10
236.3208599
20
-174.7286753
40
1
50
448.3301588
51
521.0601522
0
LINE
8
0
10
236.35
20
-173.7291
11
238.05
21
-173.7291
0
LINE
8
0
10
238.05
20
-173.7291
11
238.05
21
-169.8791
0
ARC
8
0
10
238.0562228
20
-168.8791194
40
1
50
142.9455248
51
269.6434575
0
ARC
8
0
10
236.5
20
-167.7041
40
0.95
50
322.9455262
51
598.7551808
0
ARC
8
0
10
235.4885429
20
-169.3712696
40
1
50
689.4805793
51
778.7551808
0
LINE
8
0
10
236.35
20
-169.8791
11
236.35
21
-171.8041
0
ARC
8
0
10
235.35
20
-171.8041
40
1
50
270
51
0
0
LINE
8
0
10
235.35
20
-172.8041
11
234.2207234
21
-172.8041
0
ARC
8
0
10
234.2207234
20
-171.8041
40
1
50
198.963921
51
270
0
LINE
8
0
10
232.4250273
20
-171.2791
11
233.275
21
-172.1290727
0
ARC
8
0
10
233.0772164
20
-170.5210437
40
1
50
126.4050931
51
229.2931447
0
ARC
8
0
10
231
20
-167.7041
40
2.5
50
306.4050912
51
411.1618472
0
ARC
8
0
10
233.1949292
20
-164.9778781
40
1
50
486.5075854
51
591.1618469
0
ARC
8
0
10
233.2499231
20
-164.9341
40
1
50
450
51
490.5358033
0
LINE
8
0
10
350.0000769
20
-112.15
11
348.75
21
-112.15
0
ARC
8
0
10
347.8066393
20
-111.8182311
40
1
50
251.9863177
51
340.6238244
0
ARC
8
0
10
347.25
20
-113.53
40
0.8
50
71.9863205
51
295.4077548
0
ARC
8
0
10
348.0223033
20
-115.155899
40
1
50
43.3063515
51
115.4077559
0
LINE
8
0
10
348.75
20
-114.47
11
350.0000769
21
-114.47
0
ARC
8
0
10
350.0000769
20
-115.47
40
1
50
49.4641967
51
90
0
LINE
8
0
10
350.65
20
-114.71
11
353.85
21
-114.71
0
ARC
8
0
10
354.4999231
20
-115.47
40
1
50
90
51
130.5358033
0
LINE
8
0
10
354.4999231
20
-114.47
11
355.75
21
-114.47
0
LINE
8
0
10
355.75
20
-114.47
11
355.75
21
-112.15
0
LINE
8
0
10
355.75
20
-112.15
11
354.4999231
21
-112.15
0
ARC
8
0
10
354.4999231
20
-111.15
40
1
50
229.4641967
51
270
0
ARC
8
0
10
354.4449292
20
-111.1062219
40
1
50
128.8381531
51
233.4924146
0
ARC
8
0
10
352.25
20
-108.38
40
2.5
50
308.8381528
51
6.1506399
0
ARC
8
0
10
355.7298527
20
-108.005
40
1
50
90
51
186.1506399
0
LINE
8
0
10
355.8363974
20
-107.005
11
355.7298527
21
-107.005
0
ARC
8
0
10
355.8363974
20
-108.005
40
1
50
348.9125106
51
90
0
ARC
8
0
10
357.75
20
-108.38
40
0.95
50
168.9125107
51
11.0871451
0
ARC
8
0
10
359.6634816
20
-108.0043828
40
1
50
91.8376761
51
191.10597
0
ARC
8
0
10
359.625
20
-106.805
40
0.2
50
271.8376714
51
0
0
LINE
8
0
10
359.825
20
-106.805
11
359.825
21
-106.48
0
ARC
8
0
10
360.825
20
-106.48
40
1
50
90
51
180
0
LINE
8
0
10
360.825
20
-105.48
11
361.625
21
-105.48
0
LINE
8
0
10
361.625
20
-105.48
11
361.625
21
-103.88
0
LINE
8
0
10
361.625
20
-103.88
11
360.503869
21
-103.88
0
ARC
8
0
10
360.503869
20
-102.88
40
1
50
188.7879392
51
270
0
ARC
8
0
10
358.725
20
-103.155
40
0.8
50
8.7879374
51
90
0
LINE
8
0
10
355.85
20
-102.355
11
358.725
21
-102.355
0
ARC
8
0
10
355.85
20
-101.255
40
1.1
50
180
51
270
0
LINE
8
0
10
354.75
20
-101.0049727
11
354.75
21
-101.255
0
LINE
8
0
10
353.9000273
20
-100.155
11
354.75
21
-101.0049727
0
LINE
8
0
10
353.9000273
20
-100.155
11
350.8249727
21
-100.155
0
LINE
8
0
10
349.975
20
-101.0049727
11
350.8249727
21
-100.155
0
ARC
8
0
10
349.0292766
20
-100.68
40
1
50
270
51
341.036079
0
LINE
8
0
10
349.0292766
20
-101.68
11
347.875
21
-101.68
0
ARC
8
0
10
346.9291401
20
-101.3554247
40
1
50
268.3301588
51
341.0601522
0
LINE
8
0
10
346.9
20
-102.355
11
345.2
21
-102.355
0
LINE
8
0
10
345.2
20
-102.355
11
345.2
21
-106.205
0
ARC
8
0
10
345.1937772
20
-107.2049806
40
1
50
322.9455248
51
89.6434575
0
ARC
8
0
10
346.75
20
-108.38
40
0.95
50
142.9455262
51
58.7551808
0
ARC
8
0
10
347.7614571
20
-106.7128304
40
1
50
149.4805793
51
238.7551808
0
LINE
8
0
10
346.9
20
-106.205
11
346.9
21
-104.28
0
ARC
8
0
10
347.9
20
-104.28
40
1
50
90
51
180
0
LINE
8
0
10
347.9
20
-103.28
11
349.0292766
21
-103.28
0
ARC
8
0
10
349.0292766
20
-104.28
40
1
50
18.963921
51
90
0
LINE
8
0
10
350.8249727
20
-104.805
11
349.975
21
-103.9550273
0
ARC
8
0
10
350.1727836
20
-105.5630563
40
1
50
306.4050931
51
49.2931447
0
ARC
8
0
10
352.25
20
-108.38
40
2.5
50
126.4050912
51
231.1618472
0
ARC
8
0
10
350.0550708
20
-111.1062219
40
1
50
306.5075854
51
51.1618469
0
ARC
8
0
10
350.0000769
20
-111.15
40
1
50
270
51
310.5358033
0
LINE
8
0
10
328.5000769
20
-112.15
11
327.25
21
-112.15
0
ARC
8
0
10
326.3066393
20
-111.8182311
40
1
50
251.9863177
51
340.6238244
0
ARC
8
0
10
325.75
20
-113.53
40
0.8
50
71.9863205
51
295.4077548
0
ARC
8
0
10
326.5223033
20
-115.155899
40
1
50
43.3063515
51
115.4077559
0
LINE
8
0
10
327.25
20
-114.47
11
328.5000769
21
-114.47
0
ARC
8
0
10
328.5000769
20
-115.47
40
1
50
49.4641967
51
90
0
LINE
8
0
10
329.15
20
-114.71
11
332.35
21
-114.71
0
ARC
8
0
10
332.9999231
20
-115.47
40
1
50
90
51
130.5358033
0
LINE
8
0
10
332.9999231
20
-114.47
11
334.25
21
-114.47
0
LINE
8
0
10
334.25
20
-114.47
11
334.25
21
-112.15
0
LINE
8
0
10
334.25
20
-112.15
11
332.9999231
21
-112.15
0
ARC
8
0
10
332.9999231
20
-111.15
40
1
50
229.4641967
51
270
0
ARC
8
0
10
332.9449292
20
-111.1062219
40
1
50
128.8381531
51
233.4924146
0
ARC
8
0
10
330.75
20
-108.38
40
2.5
50
308.8381528
51
6.1506399
0
ARC
8
0
10
334.2298527
20
-108.005
40
1
50
90
51
186.1506399
0
LINE
8
0
10
334.3363974
20
-107.005
11
334.2298527
21
-107.005
0
ARC
8
0
10
334.3363974
20
-108.005
40
1
50
348.9125106
51
90
0
ARC
8
0
10
336.25
20
-108.38
40
0.95
50
168.9125107
51
11.0871451
0
ARC
8
0
10
338.1634816
20
-108.0043828
40
1
50
91.8376761
51
191.10597
0
ARC
8
0
10
338.125
20
-106.805
40
0.2
50
271.8376714
51
0
0
LINE
8
0
10
338.325
20
-106.805
11
338.325
21
-106.48
0
ARC
8
0
10
339.325
20
-106.48
40
1
50
90
51
180
0
LINE
8
0
10
339.325
20
-105.48
11
340.125
21
-105.48
0
LINE
8
0
10
340.125
20
-105.48
11
340.125
21
-103.88
0
LINE
8
0
10
340.125
20
-103.88
11
339.003869
21
-103.88
0
ARC
8
0
10
339.003869
20
-102.88
40
1
50
188.7879392
51
270
0
ARC
8
0
10
337.225
20
-103.155
40
0.8
50
8.7879374
51
90
0
LINE
8
0
10
334.35
20
-102.355
11
337.225
21
-102.355
0
ARC
8
0
10
334.35
20
-101.255
40
1.1
50
180
51
270
0
LINE
8
0
10
333.25
20
-101.0049727
11
333.25
21
-101.255
0
LINE
8
0
10
332.4000273
20
-100.155
11
333.25
21
-101.0049727
0
LINE
8
0
10
332.4000273
20
-100.155
11
329.3249727
21
-100.155
0
LINE
8
0
10
328.475
20
-101.0049727
11
329.3249727
21
-100.155
0
ARC
8
0
10
327.5292766
20
-100.68
40
1
50
270
51
341.036079
0
LINE
8
0
10
327.5292766
20
-101.68
11
326.375
21
-101.68
0
ARC
8
0
10
325.4291401
20
-101.3554247
40
1
50
268.3301588
51
341.0601522
0
LINE
8
0
10
325.4
20
-102.355
11
323.7
21
-102.355
0
LINE
8
0
10
323.7
20
-102.355
11
323.7
21
-106.205
0
ARC
8
0
10
323.6937772
20
-107.2049806
40
1
50
322.9455248
51
89.6434575
0
ARC
8
0
10
325.25
20
-108.38
40
0.95
50
142.9455262
51
58.7551808
0
ARC
8
0
10
326.2614571
20
-106.7128304
40
1
50
149.4805793
51
238.7551808
0
LINE
8
0
10
325.4
20
-106.205
11
325.4
21
-104.28
0
ARC
8
0
10
326.4
20
-104.28
40
1
50
90
51
180
0
LINE
8
0
10
326.4
20
-103.28
11
327.5292766
21
-103.28
0
ARC
8
0
10
327.5292766
20
-104.28
40
1
50
18.963921
51
90
0
LINE
8
0
10
329.3249727
20
-104.805
11
328.475
21
-103.9550273
0
ARC
8
0
10
328.6727836
20
-105.5630563
40
1
50
306.4050931
51
49.2931447
0
ARC
8
0
10
330.75
20
-108.38
40
2.5
50
126.4050912
51
231.1618472
0
ARC
8
0
10
328.5550708
20
-111.1062219
40
1
50
306.5075854
51
51.1618469
0
ARC
8
0
10
328.5000769
20
-111.15
40
1
50
270
51
310.5358033
0
LINE
8
0
10
307.0000769
20
-112.15
11
305.75
21
-112.15
0
ARC
8
0
10
304.8066393
20
-111.8182311
40
1
50
251.9863177
51
340.6238244
0
ARC
8
0
10
304.25
20
-113.53
40
0.8
50
71.9863205
51
295.4077548
0
ARC
8
0
10
305.0223033
20
-115.155899
40
1
50
43.3063515
51
115.4077559
0
LINE
8
0
10
305.75
20
-114.47
11
307.0000769
21
-114.47
0
ARC
8
0
10
307.0000769
20
-115.47
40
1
50
49.4641967
51
90
0
LINE
8
0
10
307.65
20
-114.71
11
310.85
21
-114.71
0
ARC
8
0
10
311.4999231
20
-115.47
40
1
50
90
51
130.5358033
0
LINE
8
0
10
311.4999231
20
-114.47
11
312.75
21
-114.47
0
LINE
8
0
10
312.75
20
-114.47
11
312.75
21
-112.15
0
LINE
8
0
10
312.75
20
-112.15
11
311.4999231
21
-112.15
0
ARC
8
0
10
311.4999231
20
-111.15
40
1
50
229.4641967
51
270
0
ARC
8
0
10
311.4449292
20
-111.1062219
40
1
50
128.8381531
51
233.4924146
0
ARC
8
0
10
309.25
20
-108.38
40
2.5
50
308.8381528
51
6.1506399
0
ARC
8
0
10
312.7298527
20
-108.005
40
1
50
90
51
186.1506399
0
LINE
8
0
10
312.8363974
20
-107.005
11
312.7298527
21
-107.005
0
ARC
8
0
10
312.8363974
20
-108.005
40
1
50
348.9125106
51
90
0
ARC
8
0
10
314.75
20
-108.38
40
0.95
50
168.9125107
51
11.0871451
0
ARC
8
0
10
316.6634816
20
-108.0043828
40
1
50
91.8376761
51
191.10597
0
ARC
8
0
10
316.625
20
-106.805
40
0.2
50
271.8376714
51
0
0
LINE
8
0
10
316.825
20
-106.805
11
316.825
21
-106.48
0
ARC
8
0
10
317.825
20
-106.48
40
1
50
90
51
180
0
LINE
8
0
10
317.825
20
-105.48
11
318.625
21
-105.48
0
LINE
8
0
10
318.625
20
-105.48
11
318.625
21
-103.88
0
LINE
8
0
10
318.625
20
-103.88
11
317.503869
21
-103.88
0
ARC
8
0
10
317.503869
20
-102.88
40
1
50
188.7879392
51
270
0
ARC
8
0
10
315.725
20
-103.155
40
0.8
50
8.7879374
51
90
0
LINE
8
0
10
312.85
20
-102.355
11
315.725
21
-102.355
0
ARC
8
0
10
312.85
20
-101.255
40
1.1
50
180
51
270
0
LINE
8
0
10
311.75
20
-101.0049727
11
311.75
21
-101.255
0
LINE
8
0
10
310.9000273
20
-100.155
11
311.75
21
-101.0049727
0
LINE
8
0
10
310.9000273
20
-100.155
11
307.8249727
21
-100.155
0
LINE
8
0
10
306.975
20
-101.0049727
11
307.8249727
21
-100.155
0
ARC
8
0
10
306.0292766
20
-100.68
40
1
50
270
51
341.036079
0
LINE
8
0
10
306.0292766
20
-101.68
11
304.875
21
-101.68
0
ARC
8
0
10
303.9291401
20
-101.3554247
40
1
50
268.3301588
51
341.0601522
0
LINE
8
0
10
303.9
20
-102.355
11
302.2
21
-102.355
0
LINE
8
0
10
302.2
20
-102.355
11
302.2
21
-106.205
0
ARC
8
0
10
302.1937772
20
-107.2049806
40
1
50
322.9455248
51
89.6434575
0
ARC
8
0
10
303.75
20
-108.38
40
0.95
50
142.9455262
51
58.7551808
0
ARC
8
0
10
304.7614571
20
-106.7128304
40
1
50
149.4805793
51
238.7551808
0
LINE
8
0
10
303.9
20
-106.205
11
303.9
21
-104.28
0
ARC
8
0
10
304.9
20
-104.28
40
1
50
90
51
180
0
LINE
8
0
10
304.9
20
-103.28
11
306.0292766
21
-103.28
0
ARC
8
0
10
306.0292766
20
-104.28
40
1
50
18.963921
51
90
0
LINE
8
0
10
307.8249727
20
-104.805
11
306.975
21
-103.9550273
0
ARC
8
0
10
307.1727836
20
-105.5630563
40
1
50
306.4050931
51
49.2931447
0
ARC
8
0
10
309.25
20
-108.38
40
2.5
50
126.4050912
51
231.1618472
0
ARC
8
0
10
307.0550708
20
-111.1062219
40
1
50
306.5075854
51
51.1618469
0
ARC
8
0
10
307.0000769
20
-111.15
40
1
50
270
51
310.5358033
0
LINE
8
0
10
365.1399542
20
-93.5934906
11
364.5149158
21
-94.6760889
0
ARC
8
0
10
363.7559151
20
-95.3271788
40
1
50
311.9863177
51
40.6238244
0
ARC
8
0
10
364.9600308
20
-96.665127
40
0.8
50
131.9863205
51
355.4077548
0
ARC
8
0
10
366.7542523
20
-96.8092422
40
1
50
103.3063515
51
175.4077559
0
LINE
8
0
10
366.5240947
20
-95.8360889
11
367.1491332
21
-94.7534906
0
ARC
8
0
10
368.0151586
20
-95.2534906
40
1
50
109.4641967
51
150
0
LINE
8
0
10
367.6819408
20
-94.3106406
11
369.2819408
21
-91.5393594
0
ARC
8
0
10
370.2650817
20
-91.3565094
40
1
50
150
51
190.5358033
0
LINE
8
0
10
369.3990563
20
-90.8565094
11
370.0240947
21
-89.7739111
0
LINE
8
0
10
370.0240947
20
-89.7739111
11
368.0149158
21
-88.6139111
0
LINE
8
0
10
368.0149158
20
-88.6139111
11
367.3898773
21
-89.6965094
0
ARC
8
0
10
366.5238519
20
-89.1965094
40
1
50
289.4641967
51
330
0
ARC
8
0
10
366.458442
20
-89.2222465
40
1
50
188.8381531
51
293.4924146
0
ARC
8
0
10
363
20
-89.76
40
2.5
50
8.8381528
51
66.1506399
0
ARC
8
0
10
364.4151668
20
-86.5588592
40
1
50
150
51
246.1506399
0
LINE
8
0
10
363.6024138
20
-85.9665887
11
363.5491414
21
-86.0588592
0
ARC
8
0
10
364.4684392
20
-86.4665887
40
1
50
48.9125106
51
150
0
ARC
8
0
10
365.75
20
-84.9968603
40
0.95
50
228.9125107
51
71.0871451
0
ARC
8
0
10
366.3814468
20
-83.151928
40
1
50
151.8376761
51
251.10597
0
ARC
8
0
10
365.32351
20
-82.5855626
40
0.2
50
331.8376714
51
60
0
LINE
8
0
10
365.42351
20
-82.4123576
11
365.1420517
21
-82.2498576
0
ARC
8
0
10
365.6420517
20
-81.3838322
40
1
50
150
51
240
0
LINE
8
0
10
364.7760263
20
-80.8838322
11
365.1760263
21
-80.1910118
0
LINE
8
0
10
365.1760263
20
-80.1910118
11
363.7903857
21
-79.3910118
0
LINE
8
0
10
363.7903857
20
-79.3910118
11
363.2298202
21
-80.3619398
0
ARC
8
0
10
362.3637948
20
-79.8619398
40
1
50
248.7879392
51
330
0
ARC
8
0
10
361.7125173
20
-81.5399855
40
0.8
50
68.7879374
51
150
0
LINE
8
0
10
359.5821969
20
-83.6298085
11
361.0196969
21
-81.1399855
0
ARC
8
0
10
358.629569
20
-83.0798085
40
1.1
50
240
51
330
0
LINE
8
0
10
357.863039
20
-83.9074228
11
358.079569
21
-84.0324365
0
LINE
8
0
10
356.7019547
20
-84.2185344
11
357.863039
21
-83.9074228
0
LINE
8
0
10
356.7019547
20
-84.2185344
11
355.1644274
21
-86.8816098
0
LINE
8
0
10
355.475539
20
-88.0426941
11
355.1644274
21
-86.8816098
0
ARC
8
0
10
354.7212427
20
-88.6992283
40
1
50
330
51
41.036079
0
LINE
8
0
10
355.5872681
20
-89.1992283
11
355.0101298
21
-90.1988611
0
ARC
8
0
10
354.2561094
20
-90.8557122
40
1
50
328.3301588
51
41.0601522
0
LINE
8
0
10
355.1071969
20
-91.3807359
11
354.2571969
21
-92.8529791
0
LINE
8
0
10
354.2571969
20
-92.8529791
11
357.5913947
21
-94.7779791
0
ARC
8
0
10
358.4542919
20
-95.2833585
40
1
50
22.9455248
51
149.6434575
0
ARC
8
0
10
360.25
20
-94.5231397
40
0.95
50
202.9455262
51
118.7551808
0
ARC
8
0
10
359.3119173
20
-92.8136074
40
1
50
209.4805793
51
298.7551808
0
LINE
8
0
10
358.4413947
20
-93.3057359
11
356.7742958
21
-92.3432359
0
ARC
8
0
10
357.2742958
20
-91.4772105
40
1
50
150
51
240
0
LINE
8
0
10
356.4082704
20
-90.9772105
11
356.9729087
21
-89.9992283
0
ARC
8
0
10
357.8389341
20
-90.4992283
40
1
50
78.963921
51
150
0
LINE
8
0
10
359.1914455
20
-89.2066098
11
358.0303612
21
-89.5177214
0
ARC
8
0
10
359.521847
20
-90.1504503
40
1
50
6.4050931
51
109.2931447
0
ARC
8
0
10
363
20
-89.76
40
2.5
50
186.4050912
51
291.1618472
0
ARC
8
0
10
364.2635128
20
-93.0239754
40
1
50
6.5075854
51
111.1618469
0
ARC
8
0
10
364.2739288
20
-93.0934906
40
1
50
330
51
10.5358033
0
LINE
8
0
10
337.1101227
20
-89.6965094
11
336.4850842
21
-88.6139111
0
ARC
8
0
10
336.3007242
20
-87.6310523
40
1
50
191.9863177
51
280.6238244
0
ARC
8
0
10
334.5399692
20
-88.004873
40
0.8
50
11.9863205
51
235.4077548
0
ARC
8
0
10
333.518051
20
-89.4866568
40
1
50
343.3063515
51
55.4077559
0
LINE
8
0
10
334.4759053
20
-89.7739111
11
335.1009437
21
-90.8565094
0
ARC
8
0
10
334.2349183
20
-91.3565094
40
1
50
349.4641967
51
30
0
LINE
8
0
10
335.2180592
20
-91.5393594
11
336.8180592
21
-94.3106406
0
ARC
8
0
10
336.4848414
20
-95.2534906
40
1
50
30
51
70.5358033
0
LINE
8
0
10
337.3508668
20
-94.7534906
11
337.9759053
21
-95.8360889
0
LINE
8
0
10
337.9759053
20
-95.8360889
11
339.9850842
21
-94.6760889
0
LINE
8
0
10
339.9850842
20
-94.6760889
11
339.3600458
21
-93.5934906
0
ARC
8
0
10
340.2260712
20
-93.0934906
40
1
50
169.4641967
51
210
0
ARC
8
0
10
340.2364872
20
-93.0239754
40
1
50
68.8381531
51
173.4924146
0
ARC
8
0
10
341.5
20
-89.76
40
2.5
50
248.8381528
51
306.1506399
0
ARC
8
0
10
343.5646859
20
-92.5861408
40
1
50
30
51
126.1506399
0
LINE
8
0
10
344.4839836
20
-92.1784113
11
344.4307113
21
-92.0861408
0
ARC
8
0
10
343.6179582
20
-92.6784113
40
1
50
288.9125106
51
30
0
ARC
8
0
10
344.25
20
-94.5231397
40
0.95
50
108.9125107
51
311.0871451
0
ARC
8
0
10
345.5320348
20
-95.9924548
40
1
50
31.8376761
51
131.10597
0
ARC
8
0
10
346.55149
20
-95.3594374
40
0.2
50
211.8376714
51
300
0
LINE
8
0
10
346.65149
20
-95.5326424
11
346.9329483
21
-95.3701424
0
ARC
8
0
10
347.4329483
20
-96.2361678
40
1
50
30
51
120
0
LINE
8
0
10
348.2989737
20
-95.7361678
11
348.6989737
21
-96.4289882
0
LINE
8
0
10
348.6989737
20
-96.4289882
11
350.0846143
21
-95.6289882
0
LINE
8
0
10
350.0846143
20
-95.6289882
11
349.5240488
21
-94.6580602
0
ARC
8
0
10
350.3900742
20
-94.1580602
40
1
50
128.7879392
51
210
0
ARC
8
0
10
349.2624827
20
-92.7550145
40
0.8
50
308.7879374
51
30
0
LINE
8
0
10
348.5178031
20
-89.8651915
11
349.9553031
21
-92.3550145
0
ARC
8
0
10
349.470431
20
-89.3151915
40
1.1
50
120
51
210
0
LINE
8
0
10
349.136961
20
-88.2375499
11
348.920431
21
-88.3625635
0
LINE
8
0
10
349.4480726
20
-87.0764656
11
349.136961
21
-88.2375499
0
LINE
8
0
10
349.4480726
20
-87.0764656
11
347.9105453
21
-84.4133902
0
LINE
8
0
10
346.749461
20
-84.1022786
11
347.9105453
21
-84.4133902
0
ARC
8
0
10
346.5580339
20
-83.1207717
40
1
50
210
51
281.036079
0
LINE
8
0
10
345.6920085
20
-83.6207717
11
345.1148702
21
-82.6211389
0
ARC
8
0
10
344.9230307
20
-81.6397125
40
1
50
208.3301588
51
281.0601522
0
LINE
8
0
10
344.0428031
20
-82.1142641
11
343.1928031
21
-80.6420209
0
LINE
8
0
10
343.1928031
20
-80.6420209
11
339.8586053
21
-82.5670209
0
ARC
8
0
10
338.9894853
20
-83.0616221
40
1
50
262.9455248
51
29.6434575
0
ARC
8
0
10
338.75
20
-84.9968603
40
0.95
50
82.9455262
51
358.7551808
0
ARC
8
0
10
340.6995398
20
-85.039223
40
1
50
89.4805793
51
178.7551808
0
LINE
8
0
10
340.7086053
20
-84.0392641
11
342.3757042
21
-83.0767641
0
ARC
8
0
10
342.8757042
20
-83.9427895
40
1
50
30
51
120
0
LINE
8
0
10
343.7417296
20
-83.4427895
11
344.3063679
21
-84.4207717
0
ARC
8
0
10
343.4403425
20
-84.9207717
40
1
50
318.963921
51
30
0
LINE
8
0
10
343.8835272
20
-86.7383902
11
344.1946388
21
-85.5773059
0
ARC
8
0
10
342.9009366
20
-86.552606
40
1
50
246.4050931
51
349.2931447
0
ARC
8
0
10
341.5
20
-89.76
40
2.5
50
66.4050912
51
171.1618472
0
ARC
8
0
10
338.041558
20
-89.2222465
40
1
50
246.5075854
51
351.1618469
0
ARC
8
0
10
337.9761481
20
-89.1965094
40
1
50
210
51
250.5358033
0
LINE
8
0
10
315.6101227
20
-89.6965094
11
314.9850842
21
-88.6139111
0
ARC
8
0
10
314.8007242
20
-87.6310523
40
1
50
191.9863177
51
280.6238244
0
ARC
8
0
10
313.0399692
20
-88.004873
40
0.8
50
11.9863205
51
235.4077548
0
ARC
8
0
10
312.018051
20
-89.4866568
40
1
50
343.3063515
51
55.4077559
0
LINE
8
0
10
312.9759053
20
-89.7739111
11
313.6009437
21
-90.8565094
0
ARC
8
0
10
312.7349183
20
-91.3565094
40
1
50
349.4641967
51
30
0
LINE
8
0
10
313.7180592
20
-91.5393594
11
315.3180592
21
-94.3106406
0
ARC
8
0
10
314.9848414
20
-95.2534906
40
1
50
30
51
70.5358033
0
LINE
8
0
10
315.8508668
20
-94.7534906
11
316.4759053
21
-95.8360889
0
LINE
8
0
10
316.4759053
20
-95.8360889
11
318.4850842
21
-94.6760889
0
LINE
8
0
10
318.4850842
20
-94.6760889
11
317.8600458
21
-93.5934906
0
ARC
8
0
10
318.7260712
20
-93.0934906
40
1
50
169.4641967
51
210
0
ARC
8
0
10
318.7364872
20
-93.0239754
40
1
50
68.8381531
51
173.4924146
0
ARC
8
0
10
320
20
-89.76
40
2.5
50
248.8381528
51
306.1506399
0
ARC
8
0
10
322.0646859
20
-92.5861408
40
1
50
30
51
126.1506399
0
LINE
8
0
10
322.9839836
20
-92.1784113
11
322.9307113
21
-92.0861408
0
ARC
8
0
10
322.1179582
20
-92.6784113
40
1
50
288.9125106
51
30
0
ARC
8
0
10
322.75
20
-94.5231397
40
0.95
50
108.9125107
51
311.0871451
0
ARC
8
0
10
324.0320348
20
-95.9924548
40
1
50
31.8376761
51
131.10597
0
ARC
8
0
10
325.05149
20
-95.3594374
40
0.2
50
211.8376714
51
300
0
LINE
8
0
10
325.15149
20
-95.5326424
11
325.4329483
21
-95.3701424
0
ARC
8
0
10
325.9329483
20
-96.2361678
40
1
50
30
51
120
0
LINE
8
0
10
326.7989737
20
-95.7361678
11
327.1989737
21
-96.4289882
0
LINE
8
0
10
327.1989737
20
-96.4289882
11
328.5846143
21
-95.6289882
0
LINE
8
0
10
328.5846143
20
-95.6289882
11
328.0240488
21
-94.6580602
0
ARC
8
0
10
328.8900742
20
-94.1580602
40
1
50
128.7879392
51
210
0
ARC
8
0
10
327.7624827
20
-92.7550145
40
0.8
50
308.7879374
51
30
0
LINE
8
0
10
327.0178031
20
-89.8651915
11
328.4553031
21
-92.3550145
0
ARC
8
0
10
327.970431
20
-89.3151915
40
1.1
50
120
51
210
0
LINE
8
0
10
327.636961
20
-88.2375499
11
327.420431
21
-88.3625635
0
LINE
8
0
10
327.9480726
20
-87.0764656
11
327.636961
21
-88.2375499
0
LINE
8
0
10
327.9480726
20
-87.0764656
11
326.4105453
21
-84.4133902
0
LINE
8
0
10
325.249461
20
-84.1022786
11
326.4105453
21
-84.4133902
0
ARC
8
0
10
325.0580339
20
-83.1207717
40
1
50
210
51
281.036079
0
LINE
8
0
10
324.1920085
20
-83.6207717
11
323.6148702
21
-82.6211389
0
ARC
8
0
10
323.4230307
20
-81.6397125
40
1
50
208.3301588
51
281.0601522
0
LINE
8
0
10
322.5428031
20
-82.1142641
11
321.6928031
21
-80.6420209
0
LINE
8
0
10
321.6928031
20
-80.6420209
11
318.3586053
21
-82.5670209
0
ARC
8
0
10
317.4894853
20
-83.0616221
40
1
50
262.9455248
51
29.6434575
0
ARC
8
0
10
317.25
20
-84.9968603
40
0.95
50
82.9455262
51
358.7551808
0
ARC
8
0
10
319.1995398
20
-85.039223
40
1
50
89.4805793
51
178.7551808
0
LINE
8
0
10
319.2086053
20
-84.0392641
11
320.8757042
21
-83.0767641
0
ARC
8
0
10
321.3757042
20
-83.9427895
40
1
50
30
51
120
0
LINE
8
0
10
322.2417296
20
-83.4427895
11
322.8063679
21
-84.4207717
0
ARC
8
0
10
321.9403425
20
-84.9207717
40
1
50
318.963921
51
30
0
LINE
8
0
10
322.3835272
20
-86.7383902
11
322.6946388
21
-85.5773059
0
ARC
8
0
10
321.4009366
20
-86.552606
40
1
50
246.4050931
51
349.2931447
0
ARC
8
0
10
320
20
-89.76
40
2.5
50
66.4050912
51
171.1618472
0
ARC
8
0
10
316.541558
20
-89.2222465
40
1
50
246.5075854
51
351.1618469
0
ARC
8
0
10
316.4761481
20
-89.1965094
40
1
50
210
51
250.5358033
0
LINE
8
0
10
294.1101227
20
-89.6965094
11
293.4850842
21
-88.6139111
0
ARC
8
0
10
293.3007242
20
-87.6310523
40
1
50
191.9863177
51
280.6238244
0
ARC
8
0
10
291.5399692
20
-88.004873
40
0.8
50
11.9863205
51
235.4077548
0
ARC
8
0
10
290.518051
20
-89.4866568
40
1
50
343.3063515
51
55.4077559
0
LINE
8
0
10
291.4759053
20
-89.7739111
11
292.1009437
21
-90.8565094
0
ARC
8
0
10
291.2349183
20
-91.3565094
40
1
50
349.4641967
51
30
0
LINE
8
0
10
292.2180592
20
-91.5393594
11
293.8180592
21
-94.3106406
0
ARC
8
0
10
293.4848414
20
-95.2534906
40
1
50
30
51
70.5358033
0
LINE
8
0
10
294.3508668
20
-94.7534906
11
294.9759053
21
-95.8360889
0
LINE
8
0
10
294.9759053
20
-95.8360889
11
296.9850842
21
-94.6760889
0
LINE
8
0
10
296.9850842
20
-94.6760889
11
296.3600458
21
-93.5934906
0
ARC
8
0
10
297.2260712
20
-93.0934906
40
1
50
169.4641967
51
210
0
ARC
8
0
10
297.2364872
20
-93.0239754
40
1
50
68.8381531
51
173.4924146
0
ARC
8
0
10
298.5
20
-89.76
40
2.5
50
248.8381528
51
306.1506399
0
ARC
8
0
10
300.5646859
20
-92.5861408
40
1
50
30
51
126.1506399
0
LINE
8
0
10
301.4839836
20
-92.1784113
11
301.4307113
21
-92.0861408
0
ARC
8
0
10
300.6179582
20
-92.6784113
40
1
50
288.9125106
51
30
0
ARC
8
0
10
301.25
20
-94.5231397
40
0.95
50
108.9125107
51
311.0871451
0
ARC
8
0
10
302.5320348
20
-95.9924548
40
1
50
31.8376761
51
131.10597
0
ARC
8
0
10
303.55149
20
-95.3594374
40
0.2
50
211.8376714
51
300
0
LINE
8
0
10
303.65149
20
-95.5326424
11
303.9329483
21
-95.3701424
0
ARC
8
0
10
304.4329483
20
-96.2361678
40
1
50
30
51
120
0
LINE
8
0
10
305.2989737
20
-95.7361678
11
305.6989737
21
-96.4289882
0
LINE
8
0
10
305.6989737
20
-96.4289882
11
307.0846143
21
-95.6289882
0
LINE
8
0
10
307.0846143
20
-95.6289882
11
306.5240488
21
-94.6580602
0
ARC
8
0
10
307.3900742
20
-94.1580602
40
1
50
128.7879392
51
210
0
ARC
8
0
10
306.2624827
20
-92.7550145
40
0.8
50
308.7879374
51
30
0
LINE
8
0
10
305.5178031
20
-89.8651915
11
306.9553031
21
-92.3550145
0
ARC
8
0
10
306.470431
20
-89.3151915
40
1.1
50
120
51
210
0
LINE
8
0
10
306.136961
20
-88.2375499
11
305.920431
21
-88.3625635
0
LINE
8
0
10
306.4480726
20
-87.0764656
11
306.136961
21
-88.2375499
0
LINE
8
0
10
306.4480726
20
-87.0764656
11
304.9105453
21
-84.4133902
0
LINE
8
0
10
303.749461
20
-84.1022786
11
304.9105453
21
-84.4133902
0
ARC
8
0
10
303.5580339
20
-83.1207717
40
1
50
210
51
281.036079
0
LINE
8
0
10
302.6920085
20
-83.6207717
11
302.1148702
21
-82.6211389
0
ARC
8
0
10
301.9230307
20
-81.6397125
40
1
50
208.3301588
51
281.0601522
0
LINE
8
0
10
301.0428031
20
-82.1142641
11
300.1928031
21
-80.6420209
0
LINE
8
0
10
300.1928031
20
-80.6420209
11
296.8586053
21
-82.5670209
0
ARC
8
0
10
295.9894853
20
-83.0616221
40
1
50
262.9455248
51
29.6434575
0
ARC
8
0
10
295.75
20
-84.9968603
40
0.95
50
82.9455262
51
358.7551808
0
ARC
8
0
10
297.6995398
20
-85.039223
40
1
50
89.4805793
51
178.7551808
0
LINE
8
0
10
297.7086053
20
-84.0392641
11
299.3757042
21
-83.0767641
0
ARC
8
0
10
299.8757042
20
-83.9427895
40
1
50
30
51
120
0
LINE
8
0
10
300.7417296
20
-83.4427895
11
301.3063679
21
-84.4207717
0
ARC
8
0
10
300.4403425
20
-84.9207717
40
1
50
318.963921
51
30
0
LINE
8
0
10
300.8835272
20
-86.7383902
11
301.1946388
21
-85.5773059
0
ARC
8
0
10
299.9009366
20
-86.552606
40
1
50
246.4050931
51
349.2931447
0
ARC
8
0
10
298.5
20
-89.76
40
2.5
50
66.4050912
51
171.1618472
0
ARC
8
0
10
295.041558
20
-89.2222465
40
1
50
246.5075854
51
351.1618469
0
ARC
8
0
10
294.9761481
20
-89.1965094
40
1
50
210
51
250.5358033
0
LINE
8
0
10
354.4999231
20
-67.37
11
355.75
21
-67.37
0
ARC
8
0
10
356.6933607
20
-67.7017689
40
1
50
431.9863177
51
520.6238244
0
ARC
8
0
10
357.25
20
-65.99
40
0.8
50
251.9863205
51
475.4077548
0
ARC
8
0
10
356.4776967
20
-64.364101
40
1
50
223.3063515
51
295.4077559
0
LINE
8
0
10
355.75
20
-65.05
11
354.4999231
21
-65.05
0
ARC
8
0
10
354.4999231
20
-64.05
40
1
50
229.4641967
51
270
0
LINE
8
0
10
353.85
20
-64.81
11
350.65
21
-64.81
0
ARC
8
0
10
350.0000769
20
-64.05
40
1
50
270
51
310.5358033
0
LINE
8
0
10
350.0000769
20
-65.05
11
348.75
21
-65.05
0
LINE
8
0
10
348.75
20
-65.05
11
348.75
21
-67.37
0
LINE
8
0
10
348.75
20
-67.37
11
350.0000769
21
-67.37
0
ARC
8
0
10
350.0000769
20
-68.37
40
1
50
409.4641967
51
90
0
ARC
8
0
10
350.0550708
20
-68.4137781
40
1
50
308.8381531
51
413.4924146
0
ARC
8
0
10
352.25
20
-71.14
40
2.5
50
128.8381528
51
186.1506399
0
ARC
8
0
10
348.7701473
20
-71.515
40
1
50
270
51
366.1506399
0
LINE
8
0
10
348.6636026
20
-72.515
11
348.7701473
21
-72.515
0
ARC
8
0
10
348.6636026
20
-71.515
40
1
50
168.9125106
51
270
0
ARC
8
0
10
346.75
20
-71.14
40
0.95
50
348.9125107
51
551.0871451
0
ARC
8
0
10
344.8365184
20
-71.5156172
40
1
50
631.8376761
51
731.10597
0
ARC
8
0
10
344.875
20
-72.715
40
0.2
50
91.8376714
51
180
0
LINE
8
0
10
344.675
20
-72.715
11
344.675
21
-73.04
0
ARC
8
0
10
343.675
20
-73.04
40
1
50
270
51
0
0
LINE
8
0
10
343.675
20
-74.04
11
342.875
21
-74.04
0
LINE
8
0
10
342.875
20
-74.04
11
342.875
21
-75.64
0
LINE
8
0
10
342.875
20
-75.64
11
343.996131
21
-75.64
0
ARC
8
0
10
343.996131
20
-76.64
40
1
50
368.7879392
51
90
0
ARC
8
0
10
345.775
20
-76.365
40
0.8
50
188.7879374
51
270
0
LINE
8
0
10
348.65
20
-77.165
11
345.775
21
-77.165
0
ARC
8
0
10
348.65
20
-78.265
40
1.1
50
0
51
90
0
LINE
8
0
10
349.75
20
-78.5150273
11
349.75
21
-78.265
0
LINE
8
0
10
350.5999727
20
-79.365
11
349.75
21
-78.5150273
0
LINE
8
0
10
350.5999727
20
-79.365
11
353.6750273
21
-79.365
0
LINE
8
0
10
354.525
20
-78.5150273
11
353.6750273
21
-79.365
0
ARC
8
0
10
355.4707234
20
-78.84
40
1
50
450
51
521.036079
0
LINE
8
0
10
355.4707234
20
-77.84
11
356.625
21
-77.84
0
ARC
8
0
10
357.5708599
20
-78.1645753
40
1
50
448.3301588
51
521.0601522
0
LINE
8
0
10
357.6
20
-77.165
11
359.3
21
-77.165
0
LINE
8
0
10
359.3
20
-77.165
11
359.3
21
-73.315
0
ARC
8
0
10
359.3062228
20
-72.3150194
40
1
50
142.9455248
51
269.6434575
0
ARC
8
0
10
357.75
20
-71.14
40
0.95
50
322.9455262
51
598.7551808
0
ARC
8
0
10
356.7385429
20
-72.8071696
40
1
50
689.4805793
51
778.7551808
0
LINE
8
0
10
357.6
20
-73.315
11
357.6
21
-75.24
0
ARC
8
0
10
356.6
20
-75.24
40
1
50
270
51
0
0
LINE
8
0
10
356.6
20
-76.24
11
355.4707234
21
-76.24
0
ARC
8
0
10
355.4707234
20
-75.24
40
1
50
198.963921
51
270
0
LINE
8
0
10
353.6750273
20
-74.715
11
354.525
21
-75.5649727
0
ARC
8
0
10
354.3272164
20
-73.9569437
40
1
50
126.4050931
51
229.2931447
0
ARC
8
0
10
352.25
20
-71.14
40
2.5
50
306.4050912
51
411.1618472
0
ARC
8
0
10
354.4449292
20
-68.4137781
40
1
50
486.5075854
51
591.1618469
0
ARC
8
0
10
354.4999231
20
-68.37
40
1
50
450
51
490.5358033
0
LINE
8
0
10
328.6100458
20
-67.3065094
11
329.2350842
21
-66.2239111
0
ARC
8
0
10
329.9940849
20
-65.5728212
40
1
50
131.9863177
51
220.6238244
0
ARC
8
0
10
328.7899692
20
-64.234873
40
0.8
50
311.9863205
51
175.4077548
0
ARC
8
0
10
326.9957477
20
-64.0907578
40
1
50
283.3063515
51
355.4077559
0
LINE
8
0
10
327.2259053
20
-65.0639111
11
326.6008668
21
-66.1465094
0
ARC
8
0
10
325.7348414
20
-65.6465094
40
1
50
289.4641967
51
330
0
LINE
8
0
10
326.0680592
20
-66.5893594
11
324.4680592
21
-69.3606406
0
ARC
8
0
10
323.4849183
20
-69.5434906
40
1
50
330
51
10.5358033
0
LINE
8
0
10
324.3509437
20
-70.0434906
11
323.7259053
21
-71.1260889
0
LINE
8
0
10
323.7259053
20
-71.1260889
11
325.7350842
21
-72.2860889
0
LINE
8
0
10
325.7350842
20
-72.2860889
11
326.3601227
21
-71.2034906
0
ARC
8
0
10
327.2261481
20
-71.7034906
40
1
50
109.4641967
51
150
0
ARC
8
0
10
327.291558
20
-71.6777535
40
1
50
8.8381531
51
113.4924146
0
ARC
8
0
10
330.75
20
-71.14
40
2.5
50
188.8381528
51
246.1506399
0
ARC
8
0
10
329.3348332
20
-74.3411408
40
1
50
330
51
66.1506399
0
LINE
8
0
10
330.1475862
20
-74.9334113
11
330.2008586
21
-74.8411408
0
ARC
8
0
10
329.2815608
20
-74.4334113
40
1
50
228.9125106
51
330
0
ARC
8
0
10
328
20
-75.9031397
40
0.95
50
48.9125107
51
251.0871451
0
ARC
8
0
10
327.3685532
20
-77.748072
40
1
50
331.8376761
51
71.10597
0
ARC
8
0
10
328.42649
20
-78.3144374
40
0.2
50
151.8376714
51
240
0
LINE
8
0
10
328.32649
20
-78.4876424
11
328.6079483
21
-78.6501424
0
ARC
8
0
10
328.1079483
20
-79.5161678
40
1
50
330
51
60
0
LINE
8
0
10
328.9739737
20
-80.0161678
11
328.5739737
21
-80.7089882
0
LINE
8
0
10
328.5739737
20
-80.7089882
11
329.9596143
21
-81.5089882
0
LINE
8
0
10
329.9596143
20
-81.5089882
11
330.5201798
21
-80.5380602
0
ARC
8
0
10
331.3862052
20
-81.0380602
40
1
50
68.7879392
51
150
0
ARC
8
0
10
332.0374827
20
-79.3600145
40
0.8
50
248.7879374
51
330
0
LINE
8
0
10
334.1678031
20
-77.2701915
11
332.7303031
21
-79.7600145
0
ARC
8
0
10
335.120431
20
-77.8201915
40
1.1
50
60
51
150
0
LINE
8
0
10
335.886961
20
-76.9925772
11
335.670431
21
-76.8675635
0
LINE
8
0
10
337.0480453
20
-76.6814656
11
335.886961
21
-76.9925772
0
LINE
8
0
10
337.0480453
20
-76.6814656
11
338.5855726
21
-74.0183902
0
LINE
8
0
10
338.274461
20
-72.8573059
11
338.5855726
21
-74.0183902
0
ARC
8
0
10
339.0287573
20
-72.2007717
40
1
50
150
51
221.036079
0
LINE
8
0
10
338.1627319
20
-71.7007717
11
338.7398702
21
-70.7011389
0
ARC
8
0
10
339.4938906
20
-70.0442878
40
1
50
148.3301588
51
221.0601522
0
LINE
8
0
10
338.6428031
20
-69.5192641
11
339.4928031
21
-68.0470209
0
LINE
8
0
10
339.4928031
20
-68.0470209
11
336.1586053
21
-66.1220209
0
ARC
8
0
10
335.2957081
20
-65.6166415
40
1
50
202.9455248
51
329.6434575
0
ARC
8
0
10
333.5
20
-66.3768603
40
0.95
50
22.9455262
51
298.7551808
0
ARC
8
0
10
334.4380827
20
-68.0863926
40
1
50
29.4805793
51
118.7551808
0
LINE
8
0
10
335.3086053
20
-67.5942641
11
336.9757042
21
-68.5567641
0
ARC
8
0
10
336.4757042
20
-69.4227895
40
1
50
330
51
60
0
LINE
8
0
10
337.3417296
20
-69.9227895
11
336.7770913
21
-70.9007717
0
ARC
8
0
10
335.9110659
20
-70.4007717
40
1
50
258.963921
51
330
0
LINE
8
0
10
334.5585545
20
-71.6933902
11
335.7196388
21
-71.3822786
0
ARC
8
0
10
334.228153
20
-70.7495497
40
1
50
186.4050931
51
289.2931447
0
ARC
8
0
10
330.75
20
-71.14
40
2.5
50
6.4050912
51
111.1618472
0
ARC
8
0
10
329.4864872
20
-67.8760246
40
1
50
186.5075854
51
291.1618469
0
ARC
8
0
10
329.4760712
20
-67.8065094
40
1
50
150
51
190.5358033
0
LINE
8
0
10
307.1100458
20
-67.3065094
11
307.7350842
21
-66.2239111
0
ARC
8
0
10
308.4940849
20
-65.5728212
40
1
50
131.9863177
51
220.6238244
0
ARC
8
0
10
307.2899692
20
-64.234873
40
0.8
50
311.9863205
51
175.4077548
0
ARC
8
0
10
305.4957477
20
-64.0907578
40
1
50
283.3063515
51
355.4077559
0
LINE
8
0
10
305.7259053
20
-65.0639111
11
305.1008668
21
-66.1465094
0
ARC
8
0
10
304.2348414
20
-65.6465094
40
1
50
289.4641967
51
330
0
LINE
8
0
10
304.5680592
20
-66.5893594
11
302.9680592
21
-69.3606406
0
ARC
8
0
10
301.9849183
20
-69.5434906
40
1
50
330
51
10.5358033
0
LINE
8
0
10
302.8509437
20
-70.0434906
11
302.2259053
21
-71.1260889
0
LINE
8
0
10
302.2259053
20
-71.1260889
11
304.2350842
21
-72.2860889
0
LINE
8
0
10
304.2350842
20
-72.2860889
11
304.8601227
21
-71.2034906
0
ARC
8
0
10
305.7261481
20
-71.7034906
40
1
50
109.4641967
51
150
0
ARC
8
0
10
305.791558
20
-71.6777535
40
1
50
8.8381531
51
113.4924146
0
ARC
8
0
10
309.25
20
-71.14
40
2.5
50
188.8381528
51
246.1506399
0
ARC
8
0
10
307.8348332
20
-74.3411408
40
1
50
330
51
66.1506399
0
LINE
8
0
10
308.6475862
20
-74.9334113
11
308.7008586
21
-74.8411408
0
ARC
8
0
10
307.7815608
20
-74.4334113
40
1
50
228.9125106
51
330
0
ARC
8
0
10
306.5
20
-75.9031397
40
0.95
50
48.9125107
51
251.0871451
0
ARC
8
0
10
305.8685532
20
-77.748072
40
1
50
331.8376761
51
71.10597
0
ARC
8
0
10
306.92649
20
-78.3144374
40
0.2
50
151.8376714
51
240
0
LINE
8
0
10
306.82649
20
-78.4876424
11
307.1079483
21
-78.6501424
0
ARC
8
0
10
306.6079483
20
-79.5161678
40
1
50
330
51
60
0
LINE
8
0
10
307.4739737
20
-80.0161678
11
307.0739737
21
-80.7089882
0
LINE
8
0
10
307.0739737
20
-80.7089882
11
308.4596143
21
-81.5089882
0
LINE
8
0
10
308.4596143
20
-81.5089882
11
309.0201798
21
-80.5380602
0
ARC
8
0
10
309.8862052
20
-81.0380602
40
1
50
68.7879392
51
150
0
ARC
8
0
10
310.5374827
20
-79.3600145
40
0.8
50
248.7879374
51
330
0
LINE
8
0
10
312.6678031
20
-77.2701915
11
311.2303031
21
-79.7600145
0
ARC
8
0
10
313.620431
20
-77.8201915
40
1.1
50
60
51
150
0
LINE
8
0
10
314.386961
20
-76.9925772
11
314.170431
21
-76.8675635
0
LINE
8
0
10
315.5480453
20
-76.6814656
11
314.386961
21
-76.9925772
0
LINE
8
0
10
315.5480453
20
-76.6814656
11
317.0855726
21
-74.0183902
0
LINE
8
0
10
316.774461
20
-72.8573059
11
317.0855726
21
-74.0183902
0
ARC
8
0
10
317.5287573
20
-72.2007717
40
1
50
150
51
221.036079
0
LINE
8
0
10
316.6627319
20
-71.7007717
11
317.2398702
21
-70.7011389
0
ARC
8
0
10
317.9938906
20
-70.0442878
40
1
50
148.3301588
51
221.0601522
0
LINE
8
0
10
317.1428031
20
-69.5192641
11
317.9928031
21
-68.0470209
0
LINE
8
0
10
317.9928031
20
-68.0470209
11
314.6586053
21
-66.1220209
0
ARC
8
0
10
313.7957081
20
-65.6166415
40
1
50
202.9455248
51
329.6434575
0
ARC
8
0
10
312
20
-66.3768603
40
0.95
50
22.9455262
51
298.7551808
0
ARC
8
0
10
312.9380827
20
-68.0863926
40
1
50
29.4805793
51
118.7551808
0
LINE
8
0
10
313.8086053
20
-67.5942641
11
315.4757042
21
-68.5567641
0
ARC
8
0
10
314.9757042
20
-69.4227895
40
1
50
330
51
60
0
LINE
8
0
10
315.8417296
20
-69.9227895
11
315.2770913
21
-70.9007717
0
ARC
8
0
10
314.4110659
20
-70.4007717
40
1
50
258.963921
51
330
0
LINE
8
0
10
313.0585545
20
-71.6933902
11
314.2196388
21
-71.3822786
0
ARC
8
0
10
312.728153
20
-70.7495497
40
1
50
186.4050931
51
289.2931447
0
ARC
8
0
10
309.25
20
-71.14
40
2.5
50
6.4050912
51
111.1618472
0
ARC
8
0
10
307.9864872
20
-67.8760246
40
1
50
186.5075854
51
291.1618469
0
ARC
8
0
10
307.9760712
20
-67.8065094
40
1
50
150
51
190.5358033
0
LINE
8
0
10
285.6100458
20
-67.3065094
11
286.2350842
21
-66.2239111
0
ARC
8
0
10
286.9940849
20
-65.5728212
40
1
50
131.9863177
51
220.6238244
0
ARC
8
0
10
285.7899692
20
-64.234873
40
0.8
50
311.9863205
51
175.4077548
0
ARC
8
0
10
283.9957477
20
-64.0907578
40
1
50
283.3063515
51
355.4077559
0
LINE
8
0
10
284.2259053
20
-65.0639111
11
283.6008668
21
-66.1465094
0
ARC
8
0
10
282.7348414
20
-65.6465094
40
1
50
289.4641967
51
330
0
LINE
8
0
10
283.0680592
20
-66.5893594
11
281.4680592
21
-69.3606406
0
ARC
8
0
10
280.4849183
20
-69.5434906
40
1
50
330
51
10.5358033
0
LINE
8
0
10
281.3509437
20
-70.0434906
11
280.7259053
21
-71.1260889
0
LINE
8
0
10
280.7259053
20
-71.1260889
11
282.7350842
21
-72.2860889
0
LINE
8
0
10
282.7350842
20
-72.2860889
11
283.3601227
21
-71.2034906
0
ARC
8
0
10
284.2261481
20
-71.7034906
40
1
50
109.4641967
51
150
0
ARC
8
0
10
284.291558
20
-71.6777535
40
1
50
8.8381531
51
113.4924146
0
ARC
8
0
10
287.75
20
-71.14
40
2.5
50
188.8381528
51
246.1506399
0
ARC
8
0
10
286.3348332
20
-74.3411408
40
1
50
330
51
66.1506399
0
LINE
8
0
10
287.1475862
20
-74.9334113
11
287.2008586
21
-74.8411408
0
ARC
8
0
10
286.2815608
20
-74.4334113
40
1
50
228.9125106
51
330
0
ARC
8
0
10
285
20
-75.9031397
40
0.95
50
48.9125107
51
251.0871451
0
ARC
8
0
10
284.3685532
20
-77.748072
40
1
50
331.8376761
51
71.10597
0
ARC
8
0
10
285.42649
20
-78.3144374
40
0.2
50
151.8376714
51
240
0
LINE
8
0
10
285.32649
20
-78.4876424
11
285.6079483
21
-78.6501424
0
ARC
8
0
10
285.1079483
20
-79.5161678
40
1
50
330
51
60
0
LINE
8
0
10
285.9739737
20
-80.0161678
11
285.5739737
21
-80.7089882
0
LINE
8
0
10
285.5739737
20
-80.7089882
11
286.9596143
21
-81.5089882
0
LINE
8
0
10
286.9596143
20
-81.5089882
11
287.5201798
21
-80.5380602
0
ARC
8
0
10
288.3862052
20
-81.0380602
40
1
50
68.7879392
51
150
0
ARC
8
0
10
289.0374827
20
-79.3600145
40
0.8
50
248.7879374
51
330
0
LINE
8
0
10
291.1678031
20
-77.2701915
11
289.7303031
21
-79.7600145
0
ARC
8
0
10
292.120431
20
-77.8201915
40
1.1
50
60
51
150
0
LINE
8
0
10
292.886961
20
-76.9925772
11
292.670431
21
-76.8675635
0
LINE
8
0
10
294.0480453
20
-76.6814656
11
292.886961
21
-76.9925772
0
LINE
8
0
10
294.0480453
20
-76.6814656
11
295.5855726
21
-74.0183902
0
LINE
8
0
10
295.274461
20
-72.8573059
11
295.5855726
21
-74.0183902
0
ARC
8
0
10
296.0287573
20
-72.2007717
40
1
50
150
51
221.036079
0
LINE
8
0
10
295.1627319
20
-71.7007717
11
295.7398702
21
-70.7011389
0
ARC
8
0
10
296.4938906
20
-70.0442878
40
1
50
148.3301588
51
221.0601522
0
LINE
8
0
10
295.6428031
20
-69.5192641
11
296.4928031
21
-68.0470209
0
LINE
8
0
10
296.4928031
20
-68.0470209
11
293.1586053
21
-66.1220209
0
ARC
8
0
10
292.2957081
20
-65.6166415
40
1
50
202.9455248
51
329.6434575
0
ARC
8
0
10
290.5
20
-66.3768603
40
0.95
50
22.9455262
51
298.7551808
0
ARC
8
0
10
291.4380827
20
-68.0863926
40
1
50
29.4805793
51
118.7551808
0
LINE
8
0
10
292.3086053
20
-67.5942641
11
293.9757042
21
-68.5567641
0
ARC
8
0
10
293.4757042
20
-69.4227895
40
1
50
330
51
60
0
LINE
8
0
10
294.3417296
20
-69.9227895
11
293.7770913
21
-70.9007717
0
ARC
8
0
10
292.9110659
20
-70.4007717
40
1
50
258.963921
51
330
0
LINE
8
0
10
291.5585545
20
-71.6933902
11
292.7196388
21
-71.3822786
0
ARC
8
0
10
291.228153
20
-70.7495497
40
1
50
186.4050931
51
289.2931447
0
ARC
8
0
10
287.75
20
-71.14
40
2.5
50
6.4050912
51
111.1618472
0
ARC
8
0
10
286.4864872
20
-67.8760246
40
1
50
186.5075854
51
291.1618469
0
ARC
8
0
10
286.4760712
20
-67.8065094
40
1
50
150
51
190.5358033
0
LINE
8
0
10
317.7500769
20
-130.77
11
316.5
21
-130.77
0
ARC
8
0
10
315.5566393
20
-130.4382311
40
1
50
251.9863177
51
340.6238244
0
ARC
8
0
10
315
20
-132.15
40
0.8
50
71.9863205
51
295.4077548
0
ARC
8
0
10
315.7723033
20
-133.775899
40
1
50
43.3063515
51
115.4077559
0
LINE
8
0
10
316.5
20
-133.09
11
317.7500769
21
-133.09
0
ARC
8
0
10
317.7500769
20
-134.09
40
1
50
49.4641967
51
90
0
LINE
8
0
10
318.4
20
-133.33
11
321.6
21
-133.33
0
ARC
8
0
10
322.2499231
20
-134.09
40
1
50
90
51
130.5358033
0
LINE
8
0
10
322.2499231
20
-133.09
11
323.5
21
-133.09
0
LINE
8
0
10
323.5
20
-133.09
11
323.5
21
-130.77
0
LINE
8
0
10
323.5
20
-130.77
11
322.2499231
21
-130.77
0
ARC
8
0
10
322.2499231
20
-129.77
40
1
50
229.4641967
51
270
0
ARC
8
0
10
322.1949292
20
-129.7262219
40
1
50
128.8381531
51
233.4924146
0
ARC
8
0
10
320
20
-127
40
2.5
50
308.8381528
51
6.1506399
0
ARC
8
0
10
323.4798527
20
-126.625
40
1
50
90
51
186.1506399
0
LINE
8
0
10
323.5863974
20
-125.625
11
323.4798527
21
-125.625
0
ARC
8
0
10
323.5863974
20
-126.625
40
1
50
348.9125106
51
90
0
ARC
8
0
10
325.5
20
-127
40
0.95
50
168.9125107
51
11.0871451
0
ARC
8
0
10
327.4134816
20
-126.6243828
40
1
50
91.8376761
51
191.10597
0
ARC
8
0
10
327.375
20
-125.425
40
0.2
50
271.8376714
51
0
0
LINE
8
0
10
327.575
20
-125.425
11
327.575
21
-125.1
0
ARC
8
0
10
328.575
20
-125.1
40
1
50
90
51
180
0
LINE
8
0
10
328.575
20
-124.1
11
329.375
21
-124.1
0
LINE
8
0
10
329.375
20
-124.1
11
329.375
21
-122.5
0
LINE
8
0
10
329.375
20
-122.5
11
328.253869
21
-122.5
0
ARC
8
0
10
328.253869
20
-121.5
40
1
50
188.7879392
51
270
0
ARC
8
0
10
326.475
20
-121.775
40
0.8
50
8.7879374
51
90
0
LINE
8
0
10
323.6
20
-120.975
11
326.475
21
-120.975
0
ARC
8
0
10
323.6
20
-119.875
40
1.1
50
180
51
270
0
LINE
8
0
10
322.5
20
-119.6249727
11
322.5
21
-119.875
0
LINE
8
0
10
321.6500273
20
-118.775
11
322.5
21
-119.6249727
0
LINE
8
0
10
321.6500273
20
-118.775
11
318.5749727
21
-118.775
0
LINE
8
0
10
317.725
20
-119.6249727
11
318.5749727
21
-118.775
0
ARC
8
0
10
316.7792766
20
-119.3
40
1
50
270
51
341.036079
0
LINE
8
0
10
316.7792766
20
-120.3
11
315.625
21
-120.3
0
ARC
8
0
10
314.6791401
20
-119.9754247
40
1
50
268.3301588
51
341.0601522
0
LINE
8
0
10
314.65
20
-120.975
11
312.95
21
-120.975
0
LINE
8
0
10
312.95
20
-120.975
11
312.95
21
-124.825
0
ARC
8
0
10
312.9437772
20
-125.8249806
40
1
50
322.9455248
51
89.6434575
0
ARC
8
0
10
314.5
20
-127
40
0.95
50
142.9455262
51
58.7551808
0
ARC
8
0
10
315.5114571
20
-125.3328304
40
1
50
149.4805793
51
238.7551808
0
LINE
8
0
10
314.65
20
-124.825
11
314.65
21
-122.9
0
ARC
8
0
10
315.65
20
-122.9
40
1
50
90
51
180
0
LINE
8
0
10
315.65
20
-121.9
11
316.7792766
21
-121.9
0
ARC
8
0
10
316.7792766
20
-122.9
40
1
50
18.963921
51
90
0
LINE
8
0
10
318.5749727
20
-123.425
11
317.725
21
-122.5750273
0
ARC
8
0
10
317.9227836
20
-124.1830563
40
1
50
306.4050931
51
49.2931447
0
ARC
8
0
10
320
20
-127
40
2.5
50
126.4050912
51
231.1618472
0
ARC
8
0
10
317.8050708
20
-129.7262219
40
1
50
306.5075854
51
51.1618469
0
ARC
8
0
10
317.7500769
20
-129.77
40
1
50
270
51
310.5358033
0
LINE
8
0
10
279.2499231
20
-163.9341
11
280.5
21
-163.9341
0
ARC
8
0
10
281.4433607
20
-164.2658689
40
1
50
431.9863177
51
520.6238244
0
ARC
8
0
10
282
20
-162.5541
40
0.8
50
251.9863205
51
475.4077548
0
ARC
8
0
10
281.2276967
20
-160.928201
40
1
50
223.3063515
51
295.4077559
0
LINE
8
0
10
280.5
20
-161.6141
11
279.2499231
21
-161.6141
0
ARC
8
0
10
279.2499231
20
-160.6141
40
1
50
229.4641967
51
270
0
LINE
8
0
10
278.6
20
-161.3741
11
275.4
21
-161.3741
0
ARC
8
0
10
274.7500769
20
-160.6141
40
1
50
270
51
310.5358033
0
LINE
8
0
10
274.7500769
20
-161.6141
11
273.5
21
-161.6141
0
LINE
8
0
10
273.5
20
-161.6141
11
273.5
21
-163.9341
0
LINE
8
0
10
273.5
20
-163.9341
11
274.7500769
21
-163.9341
0
ARC
8
0
10
274.7500769
20
-164.9341
40
1
50
409.4641967
51
90
0
ARC
8
0
10
274.8050708
20
-164.9778781
40
1
50
308.8381531
51
413.4924146
0
ARC
8
0
10
277
20
-167.7041
40
2.5
50
128.8381528
51
186.1506399
0
ARC
8
0
10
273.5201473
20
-168.0791
40
1
50
270
51
366.1506399
0
LINE
8
0
10
273.4136026
20
-169.0791
11
273.5201473
21
-169.0791
0
ARC
8
0
10
273.4136026
20
-168.0791
40
1
50
168.9125106
51
270
0
ARC
8
0
10
271.5
20
-167.7041
40
0.95
50
348.9125107
51
551.0871451
0
ARC
8
0
10
269.5865184
20
-168.0797172
40
1
50
631.8376761
51
731.10597
0
ARC
8
0
10
269.625
20
-169.2791
40
0.2
50
91.8376714
51
180
0
LINE
8
0
10
269.425
20
-169.2791
11
269.425
21
-169.6041
0
ARC
8
0
10
268.425
20
-169.6041
40
1
50
270
51
0
0
LINE
8
0
10
268.425
20
-170.6041
11
267.625
21
-170.6041
0
LINE
8
0
10
267.625
20
-170.6041
11
267.625
21
-172.2041
0
LINE
8
0
10
267.625
20
-172.2041
11
268.746131
21
-172.2041
0
ARC
8
0
10
268.746131
20
-173.2041
40
1
50
368.7879392
51
90
0
ARC
8
0
10
270.525
20
-172.9291
40
0.8
50
188.7879374
51
270
0
LINE
8
0
10
273.4
20
-173.7291
11
270.525
21
-173.7291
0
ARC
8
0
10
273.4
20
-174.8291
40
1.1
50
0
51
90
0
LINE
8
0
10
274.5
20
-175.0791273
11
274.5
21
-174.8291
0
LINE
8
0
10
275.3499727
20
-175.9291
11
274.5
21
-175.0791273
0
LINE
8
0
10
275.3499727
20
-175.9291
11
278.4250273
21
-175.9291
0
LINE
8
0
10
279.275
20
-175.0791273
11
278.4250273
21
-175.9291
0
ARC
8
0
10
280.2207234
20
-175.4041
40
1
50
450
51
521.036079
0
LINE
8
0
10
280.2207234
20
-174.4041
11
281.375
21
-174.4041
0
ARC
8
0
10
282.3208599
20
-174.7286753
40
1
50
448.3301588
51
521.0601522
0
LINE
8
0
10
282.35
20
-173.7291
11
284.05
21
-173.7291
0
LINE
8
0
10
284.05
20
-173.7291
11
284.05
21
-169.8791
0
ARC
8
0
10
284.0562228
20
-168.8791194
40
1
50
142.9455248
51
269.6434575
0
ARC
8
0
10
282.5
20
-167.7041
40
0.95
50
322.9455262
51
598.7551808
0
ARC
8
0
10
281.4885429
20
-169.3712696
40
1
50
689.4805793
51
778.7551808
0
LINE
8
0
10
282.35
20
-169.8791
11
282.35
21
-171.8041
0
ARC
8
0
10
281.35
20
-171.8041
40
1
50
270
51
0
0
LINE
8
0
10
281.35
20
-172.8041
11
280.2207234
21
-172.8041
0
ARC
8
0
10
280.2207234
20
-171.8041
40
1
50
198.963921
51
270
0
LINE
8
0
10
278.4250273
20
-171.2791
11
279.275
21
-172.1290727
0
ARC
8
0
10
279.0772164
20
-170.5210437
40
1
50
126.4050931
51
229.2931447
0
ARC
8
0
10
277
20
-167.7041
40
2.5
50
306.4050912
51
411.1618472
0
ARC
8
0
10
279.1949292
20
-164.9778781
40
1
50
486.5075854
51
591.1618469
0
ARC
8
0
10
279.2499231
20
-164.9341
40
1
50
450
51
490.5358033
0
LINE
8
0
10
154.525
20
-84.0533333
11
156.975
21
-84.0533333
0
LINE
8
0
10
156.975
20
-84.0533333
11
156.975
21
-83.0533333
0
LINE
8
0
10
156.975
20
-83.0533333
11
154.525
21
-83.0533333
0
LINE
8
0
10
154.525
20
-83.0533333
11
154.525
21
-84.0533333
0
LINE
8
0
10
197.525
20
-84.0533333
11
199.975
21
-84.0533333
0
LINE
8
0
10
199.975
20
-84.0533333
11
199.975
21
-83.0533333
0
LINE
8
0
10
199.975
20
-83.0533333
11
197.525
21
-83.0533333
0
LINE
8
0
10
197.525
20
-83.0533333
11
197.525
21
-84.0533333
0
LINE
8
0
10
351.025
20
-84.0533333
11
353.475
21
-84.0533333
0
LINE
8
0
10
353.475
20
-84.0533333
11
353.475
21
-83.0533333
0
LINE
8
0
10
353.475
20
-83.0533333
11
351.025
21
-83.0533333
0
LINE
8
0
10
351.025
20
-83.0533333
11
351.025
21
-84.0533333
0
LINE
8
0
10
308.025
20
-84.0533333
11
310.475
21
-84.0533333
0
LINE
8
0
10
310.475
20
-84.0533333
11
310.475
21
-83.0533333
0
LINE
8
0
10
310.475
20
-83.0533333
11
308.025
21
-83.0533333
0
LINE
8
0
10
308.025
20
-83.0533333
11
308.025
21
-84.0533333
0
LINE
8
0
10
186.775
20
-115.0866667
11
189.225
21
-115.0866667
0
LINE
8
0
10
189.225
20
-115.0866667
11
189.225
21
-114.0866667
0
LINE
8
0
10
189.225
20
-114.0866667
11
186.775
21
-114.0866667
0
LINE
8
0
10
186.775
20
-114.0866667
11
186.775
21
-115.0866667
0
LINE
8
0
10
229.775
20
-155.7907667
11
232.225
21
-155.7907667
0
LINE
8
0
10
232.225
20
-155.7907667
11
232.225
21
-154.7907667
0
LINE
8
0
10
232.225
20
-154.7907667
11
229.775
21
-154.7907667
0
LINE
8
0
10
229.775
20
-154.7907667
11
229.775
21
-155.7907667
0
LINE
8
0
10
318.775
20
-115.0866667
11
321.225
21
-115.0866667
0
LINE
8
0
10
321.225
20
-115.0866667
11
321.225
21
-114.0866667
0
LINE
8
0
10
321.225
20
-114.0866667
11
318.775
21
-114.0866667
0
LINE
8
0
10
318.775
20
-114.0866667
11
318.775
21
-115.0866667
0
LINE
8
0
10
275.775
20
-155.7907667
11
278.225
21
-155.7907667
0
LINE
8
0
10
278.225
20
-155.7907667
11
278.225
21
-154.7907667
0
LINE
8
0
10
278.225
20
-154.7907667
11
275.775
21
-154.7907667
0
LINE
8
0
10
275.775
20
-154.7907667
11
275.775
21
-155.7907667
0
LINE
8
0
10
245.11
20
-94.4933333
11
248
21
-94.4933333
0
LINE
8
0
10
260
20
-94.4933333
11
262.89
21
-94.4933333
0
LINE
8
0
10
263.43
20
-93.9533333
11
263.43
21
-66.9333333
0
LINE
8
0
10
244.57
20
-66.9333333
11
244.57
21
-93.9533333
0
ARC
8
0
10
262.89
20
-93.9533333
40
0.54
50
270
51
0
0
ARC
8
0
10
245.11
20
-93.9533333
40
0.54
50
180
51
270
0
LINE
8
0
10
248.54
20
-97.4533333
11
259.46
21
-97.4533333
0
LINE
8
0
10
260
20
-96.9133333
11
260
21
-94.4933333
0
LINE
8
0
10
248
20
-94.4933333
11
248
21
-96.9133333
0
ARC
8
0
10
259.46
20
-96.9133333
40
0.54
50
270
51
0
0
ARC
8
0
10
248.54
20
-96.9133333
40
0.54
50
180
51
270
0
LINE
8
0
10
248.25
20
-111.08
11
250.5
21
-111.08
0
LINE
8
0
10
257.5
20
-111.08
11
259.75
21
-111.08
0
LINE
8
0
10
259.75
20
-111.08
11
259.75
21
-105.08
0
LINE
8
0
10
259.75
20
-105.08
11
248.25
21
-105.08
0
LINE
8
0
10
248.25
20
-105.08
11
248.25
21
-111.08
0
LINE
8
0
10
257.5
20
-115.4296441
11
257.5
21
-111.08
0
LINE
8
0
10
250.5
20
-111.08
11
250.5
21
-115.4296441
0
LINE
8
0
10
231.25
20
-104.8733333
11
233.5
21
-104.8733333
0
LINE
8
0
10
240.5
20
-104.8733333
11
242.75
21
-104.8733333
0
LINE
8
0
10
242.75
20
-104.8733333
11
242.75
21
-98.8733333
0
LINE
8
0
10
242.75
20
-98.8733333
11
231.25
21
-98.8733333
0
LINE
8
0
10
231.25
20
-98.8733333
11
231.25
21
-104.8733333
0
ENDSEC
0
EOF