0
SECTION
2
HEADER
9
$INSUNITS
70
4
0
ENDSEC
0
SECTION
2
TABLES
0
TABLE
2
LTYPE
0
LTYPE
72
65
70
64
2
CONTINUOUS
3
______
73
0
40
0
0
ENDTAB
0
TABLE
2
LAYER
0
ENDTAB
0
ENDSEC
0
SECTION
2
ENTITIES
0
LINE
8
0
10
239.7100301
20
-175.0885807
11
232.6350291
21
-179.1734273
0
LINE
8
0
10
229.3649715
20
-179.1734261
11
221.8849702
21
-174.8547402
0
LINE
8
0
10
197.1149702
20
-160.5534255
11
189.6349702
21
-156.2347402
0
LINE
8
0
10
188
20
-153.4028543
11
188
21
-141.3012457
0
LINE
8
0
10
186.3650298
20
-138.4693598
11
178.8849702
21
-134.1506402
0
LINE
8
0
10
154.1149702
20
-119.8493255
11
146.6349702
21
-115.5306402
0
LINE
8
0
10
134.25
20
-94.0787543
11
134.25
21
-85.4412458
0
LINE
8
0
10
146.6349702
20
-63.9893599
11
154.1149702
21
-59.6706746
0
LINE
8
0
10
178.8850298
20
-59.6706746
11
186.3649702
21
-63.9893254
0
LINE
8
0
10
189.6350298
20
-63.9893254
11
197.1149702
21
-59.6706746
0
LINE
8
0
10
221.8850289
20
-59.6706721
11
227.2412729
21
-62.7631698
0
LINE
8
0
10
280.7587271
20
-62.7631698
11
286.1149711
21
-59.6706721
0
LINE
8
0
10
310.8850298
20
-59.6706746
11
318.3649702
21
-63.9893254
0
LINE
8
0
10
321.6350298
20
-63.9893254
11
329.1149702
21
-59.6706746
0
LINE
8
0
10
353.8850298
20
-59.6706746
11
361.3650298
21
-63.9893599
0
LINE
8
0
10
373.75
20
-85.4412458
11
373.75
21
-94.0787543
0
LINE
8
0
10
361.3650298
20
-115.5306402
11
353.8850298
21
-119.8493255
0
LINE
8
0
10
329.1150298
20
-134.1506402
11
321.6349702
21
-138.4693598
0
LINE
8
0
10
320
20
-141.3012457
11
320
21
-153.4028543
0
LINE
8
0
10
318.3650298
20
-156.2347402
11
310.8850298
21
-160.5534255
0
LINE
8
0
10
286.1150298
20
-174.8547402
11
278.6350285
21
-179.1734261
0
LINE
8
0
10
275.3649709
20
-179.1734273
11
268.2899699
21
-175.0885807
0
LINE
8
0
10
279.1236983
20
-63.2012833
11
277.27
21
-63.2012833
0
LINE
8
0
10
230.73
20
-63.2012833
11
228.8763017
21
-63.2012833
0
LINE
8
0
10
263.43
20
-63.2012833
11
244.57
21
-63.2012833
0
ARC
8
0
10
231.0000013
20
-176.3415403
40
3.27
50
239.9993965
51
300.0005622
0
ARC
8
0
10
191.27
20
-153.4028543
40
3.27
50
180
51
239.9993965
0
ARC
8
0
10
184.73
20
-141.3012457
40
3.27
50
0
51
59.9993965
0
ARC
8
0
10
188
20
-61.1574395
40
3.27
50
239.9993965
51
300.0006035
0
ARC
8
0
10
228.8763017
20
-59.9312833
40
3.27
50
239.9994171
51
270
0
ARC
8
0
10
279.1236983
20
-59.9312833
40
3.27
50
270
51
300.0005829
0
ARC
8
0
10
320
20
-61.1574395
40
3.27
50
239.9993965
51
300.0006035
0
ARC
8
0
10
323.27
20
-141.3012457
40
3.27
50
120.0006035
51
180
0
ARC
8
0
10
316.73
20
-153.4028543
40
3.27
50
300.0006035
51
0
0
ARC
8
0
10
276.9999987
20
-176.3415403
40
3.27
50
239.9994378
51
300.0006035
0
LINE
8
0
10
145
20
-66.8212458
11
145
21
-75.4587543
0
LINE
8
0
10
143.3650298
20
-78.2906402
11
135.8849702
21
-82.6093599
0
LINE
8
0
10
164.8649702
20
-63.9893255
11
157.3850298
21
-59.6706746
0
LINE
8
0
10
175.6149702
20
-59.6706746
11
168.1350298
21
-63.9893255
0
LINE
8
0
10
207.8649702
20
-63.9893255
11
200.3850298
21
-59.6706746
0
LINE
8
0
10
218.6149719
20
-59.6706736
11
211.1350298
21
-63.9893255
0
LINE
8
0
10
372.1150298
20
-82.6093599
11
364.6349702
21
-78.2906402
0
LINE
8
0
10
363
20
-75.4587543
11
363
21
-66.8212458
0
LINE
8
0
10
339.8649702
20
-63.9893255
11
332.3850298
21
-59.6706746
0
LINE
8
0
10
350.6149702
20
-59.6706746
11
343.1350298
21
-63.9893255
0
LINE
8
0
10
296.8649702
20
-63.9893255
11
289.3850281
21
-59.6706736
0
LINE
8
0
10
307.6149702
20
-59.6706746
11
300.1350298
21
-63.9893255
0
LINE
8
0
10
135.8849702
20
-96.9106402
11
143.3650298
21
-101.2293599
0
LINE
8
0
10
145
20
-104.0612458
11
145
21
-112.6987543
0
LINE
8
0
10
157.3850298
20
-119.8493255
11
164.8649702
21
-115.5306746
0
LINE
8
0
10
168.1350298
20
-115.5306746
11
175.6150298
21
-119.8493599
0
LINE
8
0
10
177.25
20
-122.6812458
11
177.25
21
-131.3187543
0
LINE
8
0
10
200.3850298
20
-160.5534255
11
207.8649702
21
-156.2347746
0
LINE
8
0
10
211.1350298
20
-156.2347746
11
218.6150298
21
-160.5534599
0
LINE
8
0
10
220.25
20
-163.3853458
11
220.25
21
-172.0228543
0
LINE
8
0
10
363
20
-112.6987543
11
363
21
-104.0612458
0
LINE
8
0
10
364.6349702
20
-101.2293599
11
372.1150298
21
-96.9106402
0
LINE
8
0
10
330.75
20
-131.3187543
11
330.75
21
-122.6812458
0
LINE
8
0
10
332.3849702
20
-119.8493599
11
339.8649702
21
-115.5306746
0
LINE
8
0
10
343.1350298
20
-115.5306746
11
350.6149702
21
-119.8493255
0
LINE
8
0
10
287.75
20
-172.0228543
11
287.75
21
-163.3853458
0
LINE
8
0
10
289.3849702
20
-160.5534599
11
296.8649702
21
-156.2347746
0
LINE
8
0
10
300.1350298
20
-156.2347746
11
307.6149702
21
-160.5534255
0
ARC
8
0
10
223.52
20
-172.0228543
40
3.27
50
180
51
239.9993965
0
ARC
8
0
10
216.98
20
-163.3853458
40
3.27
50
0
51
59.9993965
0
ARC
8
0
10
209.5
20
-159.0666605
40
3.27
50
59.9993965
51
120.0006035
0
ARC
8
0
10
198.75
20
-157.7215396
40
3.27
50
239.9993965
51
300.0006035
0
ARC
8
0
10
180.52
20
-131.3187543
40
3.27
50
180
51
239.9993965
0
ARC
8
0
10
173.98
20
-122.6812458
40
3.27
50
0
51
59.9993965
0
ARC
8
0
10
166.5
20
-118.3625605
40
3.27
50
59.9993965
51
120.0006035
0
ARC
8
0
10
155.75
20
-117.0174396
40
3.27
50
239.9993965
51
300.0006035
0
ARC
8
0
10
148.27
20
-112.6987543
40
3.27
50
180
51
239.9993965
0
ARC
8
0
10
141.73
20
-104.0612458
40
3.27
50
0
51
59.9993965
0
ARC
8
0
10
137.52
20
-94.0787543
40
3.27
50
180
51
239.9993965
0
ARC
8
0
10
137.52
20
-85.4412458
40
3.27
50
120.0006035
51
180
0
ARC
8
0
10
141.73
20
-75.4587543
40
3.27
50
300.0006035
51
0
0
ARC
8
0
10
148.27
20
-66.8212458
40
3.27
50
120.0006035
51
180
0
ARC
8
0
10
155.75
20
-62.5025605
40
3.27
50
59.9993965
51
120.0006035
0
ARC
8
0
10
166.5
20
-61.1574396
40
3.27
50
239.9993965
51
300.0006035
0
ARC
8
0
10
177.25
20
-62.5025605
40
3.27
50
59.9993965
51
120.0006035
0
ARC
8
0
10
198.75
20
-62.5025605
40
3.27
50
59.9993965
51
120.0006035
0
ARC
8
0
10
209.5
20
-61.1574396
40
3.27
50
239.9993965
51
300.0006035
0
ARC
8
0
10
220.2500017
20
-62.5025595
40
3.27
50
59.9994505
51
120.0006035
0
ARC
8
0
10
287.7499983
20
-62.5025595
40
3.27
50
59.9993965
51
120.0005495
0
ARC
8
0
10
298.5
20
-61.1574396
40
3.27
50
239.9993965
51
300.0006035
0
ARC
8
0
10
309.25
20
-62.5025605
40
3.27
50
59.9993965
51
120.0006035
0
ARC
8
0
10
330.75
20
-62.5025605
40
3.27
50
59.9993965
51
120.0006035
0
ARC
8
0
10
341.5
20
-61.1574396
40
3.27
50
239.9993965
51
300.0006035
0
ARC
8
0
10
352.25
20
-62.5025605
40
3.27
50
59.9993965
51
120.0006035
0
ARC
8
0
10
359.73
20
-66.8212458
40
3.27
50
0
51
59.9993965
0
ARC
8
0
10
366.27
20
-75.4587543
40
3.27
50
180
51
239.9993965
0
ARC
8
0
10
370.48
20
-85.4412458
40
3.27
50
0
51
59.9993965
0
ARC
8
0
10
370.48
20
-94.0787543
40
3.27
50
300.0006035
51
0
0
ARC
8
0
10
366.27
20
-104.0612458
40
3.27
50
120.0006035
51
180
0
ARC
8
0
10
359.73
20
-112.6987543
40
3.27
50
300.0006035
51
0
0
ARC
8
0
10
352.25
20
-117.0174396
40
3.27
50
239.9993965
51
300.0006035
0
ARC
8
0
10
341.5
20
-118.3625605
40
3.27
50
59.9993965
51
120.0006035
0
ARC
8
0
10
334.02
20
-122.6812458
40
3.27
50
120.0006035
51
180
0
ARC
8
0
10
327.48
20
-131.3187543
40
3.27
50
300.0006035
51
0
0
ARC
8
0
10
309.25
20
-157.7215396
40
3.27
50
239.9993965
51
300.0006035
0
ARC
8
0
10
298.5
20
-159.0666605
40
3.27
50
59.9993965
51
120.0006035
0
ARC
8
0
10
291.02
20
-163.3853458
40
3.27
50
120.0006035
51
180
0
ARC
8
0
10
284.48
20
-172.0228543
40
3.27
50
300.0006035
51
0
0
LINE
8
0
10
241.48
20
-172.0228681
11
241.48
21
-163.2294593
0
LINE
8
0
10
239.7100323
20
-160.163748
11
232.4999677
21
-156.0009139
0
LINE
8
0
10
230.73
20
-152.9352026
11
230.73
21
-128.7320279
0
LINE
8
0
10
232.4999702
20
-125.6663152
11
252.2299702
21
-114.2749383
0
LINE
8
0
10
255.7700298
20
-114.2749383
11
275.5000298
21
-125.6663152
0
LINE
8
0
10
277.27
20
-128.7320279
11
277.27
21
-152.9352026
0
LINE
8
0
10
275.5000323
20
-156.0009139
11
268.2899677
21
-160.163748
0
LINE
8
0
10
266.52
20
-163.2294593
11
266.52
21
-172.0228681
0
ARC
8
0
10
270.06
20
-172.0228681
40
3.54
50
180
51
239.9994378
0
ARC
8
0
10
270.06
20
-163.2294593
40
3.54
50
120.0006035
51
180
0
ARC
8
0
10
273.73
20
-152.9352026
40
3.54
50
300.0006035
51
0
0
ARC
8
0
10
273.73
20
-128.7320279
40
3.54
50
0
51
59.9994427
0
ARC
8
0
10
254
20
-117.340651
40
3.54
50
59.9994427
51
120.0005573
0
ARC
8
0
10
234.27
20
-128.7320279
40
3.54
50
120.0005573
51
180
0
ARC
8
0
10
234.27
20
-152.9352026
40
3.54
50
180
51
239.9993965
0
ARC
8
0
10
237.94
20
-163.2294593
40
3.54
50
0
51
59.9993965
0
ARC
8
0
10
237.94
20
-172.0228681
40
3.54
50
300.0005622
51
0
0
LINE
8
0
10
143.07202
20
-92.7206406
11
141.47202
21
-89.9493594
0
LINE
8
0
10
141.1988149
20
-89.8761543
11
138.8605463
21
-91.2261543
0
LINE
8
0
10
138.7873412
20
-91.4993594
11
140.3873412
21
-94.2706406
0
LINE
8
0
10
140.6605463
20
-94.3438457
11
142.9988149
21
-92.9938457
0
ARC
8
0
10
141.2988149
20
-90.0493594
40
0.2
50
30
51
120
0
ARC
8
0
10
138.9605463
20
-91.3993594
40
0.2
50
120
51
210
0
ARC
8
0
10
140.5605463
20
-94.1706406
40
0.2
50
210
51
300
0
ARC
8
0
10
142.8988149
20
-92.8206406
40
0.2
50
300
51
30
0
LINE
8
0
10
154.15
20
-67.99
11
157.35
21
-67.99
0
LINE
8
0
10
157.55
20
-67.79
11
157.55
21
-65.09
0
LINE
8
0
10
157.35
20
-64.89
11
154.15
21
-64.89
0
LINE
8
0
10
153.95
20
-65.09
11
153.95
21
-67.79
0
ARC
8
0
10
157.35
20
-67.79
40
0.2
50
270
51
0
0
ARC
8
0
10
157.35
20
-65.09
40
0.2
50
0
51
90
0
ARC
8
0
10
154.15
20
-65.09
40
0.2
50
90
51
180
0
ARC
8
0
10
154.15
20
-67.79
40
0.2
50
180
51
270
0
LINE
8
0
10
179.17798
20
-68.1793594
11
180.77798
21
-70.9506406
0
LINE
8
0
10
181.0511851
20
-71.0238457
11
183.3894537
21
-69.6738457
0
LINE
8
0
10
183.4626588
20
-69.4006406
11
181.8626588
21
-66.6293594
0
LINE
8
0
10
181.5894537
20
-66.5561543
11
179.2511851
21
-67.9061543
0
ARC
8
0
10
180.9511851
20
-70.8506406
40
0.2
50
210
51
300
0
ARC
8
0
10
183.2894537
20
-69.5006406
40
0.2
50
300
51
30
0
ARC
8
0
10
181.6894537
20
-66.7293594
40
0.2
50
30
51
120
0
ARC
8
0
10
179.3511851
20
-68.0793594
40
0.2
50
120
51
210
0
LINE
8
0
10
200.67798
20
-68.1793594
11
202.27798
21
-70.9506406
0
LINE
8
0
10
202.5511851
20
-71.0238457
11
204.8894537
21
-69.6738457
0
LINE
8
0
10
204.9626588
20
-69.4006406
11
203.3626588
21
-66.6293594
0
LINE
8
0
10
203.0894537
20
-66.5561543
11
200.7511851
21
-67.9061543
0
ARC
8
0
10
202.4511851
20
-70.8506406
40
0.2
50
210
51
300
0
ARC
8
0
10
204.7894537
20
-69.5006406
40
0.2
50
300
51
30
0
ARC
8
0
10
203.1894537
20
-66.7293594
40
0.2
50
30
51
120
0
ARC
8
0
10
200.8511851
20
-68.0793594
40
0.2
50
120
51
210
0
LINE
8
0
10
222.17798
20
-68.1793594
11
223.77798
21
-70.9506406
0
LINE
8
0
10
224.0511851
20
-71.0238457
11
226.3894537
21
-69.6738457
0
LINE
8
0
10
226.4626588
20
-69.4006406
11
224.8626588
21
-66.6293594
0
LINE
8
0
10
224.5894537
20
-66.5561543
11
222.2511851
21
-67.9061543
0
ARC
8
0
10
223.9511851
20
-70.8506406
40
0.2
50
210
51
300
0
ARC
8
0
10
226.2894537
20
-69.5006406
40
0.2
50
300
51
30
0
ARC
8
0
10
224.6894537
20
-66.7293594
40
0.2
50
30
51
120
0
ARC
8
0
10
222.3511851
20
-68.0793594
40
0.2
50
120
51
210
0
LINE
8
0
10
157.35
20
-111.53
11
154.15
21
-111.53
0
LINE
8
0
10
153.95
20
-111.73
11
153.95
21
-114.43
0
LINE
8
0
10
154.15
20
-114.63
11
157.35
21
-114.63
0
LINE
8
0
10
157.55
20
-114.43
11
157.55
21
-111.73
0
ARC
8
0
10
154.15
20
-111.73
40
0.2
50
90
51
180
0
ARC
8
0
10
154.15
20
-114.43
40
0.2
50
180
51
270
0
ARC
8
0
10
157.35
20
-114.43
40
0.2
50
270
51
0
0
ARC
8
0
10
157.35
20
-111.73
40
0.2
50
0
51
90
0
LINE
8
0
10
170.02798
20
-89.9493594
11
168.42798
21
-92.7206406
0
LINE
8
0
10
168.5011851
20
-92.9938457
11
170.8394537
21
-94.3438457
0
LINE
8
0
10
171.1126588
20
-94.2706406
11
172.7126588
21
-91.4993594
0
LINE
8
0
10
172.6394537
20
-91.2261543
11
170.3011851
21
-89.8761543
0
ARC
8
0
10
168.6011851
20
-92.8206406
40
0.2
50
150
51
240
0
ARC
8
0
10
170.9394537
20
-94.1706406
40
0.2
50
240
51
330
0
ARC
8
0
10
172.5394537
20
-91.3993594
40
0.2
50
330
51
60
0
ARC
8
0
10
170.2011851
20
-90.0493594
40
0.2
50
60
51
150
0
LINE
8
0
10
178.85
20
-111.53
11
175.65
21
-111.53
0
LINE
8
0
10
175.45
20
-111.73
11
175.45
21
-114.43
0
LINE
8
0
10
175.65
20
-114.63
11
178.85
21
-114.63
0
LINE
8
0
10
179.05
20
-114.43
11
179.05
21
-111.73
0
ARC
8
0
10
175.65
20
-111.73
40
0.2
50
90
51
180
0
ARC
8
0
10
175.65
20
-114.43
40
0.2
50
180
51
270
0
ARC
8
0
10
178.85
20
-114.43
40
0.2
50
270
51
0
0
ARC
8
0
10
178.85
20
-111.73
40
0.2
50
0
51
90
0
LINE
8
0
10
191.52798
20
-89.9493594
11
189.92798
21
-92.7206406
0
LINE
8
0
10
190.0011851
20
-92.9938457
11
192.3394537
21
-94.3438457
0
LINE
8
0
10
192.6126588
20
-94.2706406
11
194.2126588
21
-91.4993594
0
LINE
8
0
10
194.1394537
20
-91.2261543
11
191.8011851
21
-89.8761543
0
ARC
8
0
10
190.1011851
20
-92.8206406
40
0.2
50
150
51
240
0
ARC
8
0
10
192.4394537
20
-94.1706406
40
0.2
50
240
51
330
0
ARC
8
0
10
194.0394537
20
-91.3993594
40
0.2
50
330
51
60
0
ARC
8
0
10
191.7011851
20
-90.0493594
40
0.2
50
60
51
150
0
LINE
8
0
10
213.02798
20
-89.9493594
11
211.42798
21
-92.7206406
0
LINE
8
0
10
211.5011851
20
-92.9938457
11
213.8394537
21
-94.3438457
0
LINE
8
0
10
214.1126588
20
-94.2706406
11
215.7126588
21
-91.4993594
0
LINE
8
0
10
215.6394537
20
-91.2261543
11
213.3011851
21
-89.8761543
0
ARC
8
0
10
211.6011851
20
-92.8206406
40
0.2
50
150
51
240
0
ARC
8
0
10
213.9394537
20
-94.1706406
40
0.2
50
240
51
330
0
ARC
8
0
10
215.5394537
20
-91.3993594
40
0.2
50
330
51
60
0
ARC
8
0
10
213.2011851
20
-90.0493594
40
0.2
50
60
51
150
0
LINE
8
0
10
200.35
20
-111.53
11
197.15
21
-111.53
0
LINE
8
0
10
196.95
20
-111.73
11
196.95
21
-114.43
0
LINE
8
0
10
197.15
20
-114.63
11
200.35
21
-114.63
0
LINE
8
0
10
200.55
20
-114.43
11
200.55
21
-111.73
0
ARC
8
0
10
197.15
20
-111.73
40
0.2
50
90
51
180
0
ARC
8
0
10
197.15
20
-114.43
40
0.2
50
180
51
270
0
ARC
8
0
10
200.35
20
-114.43
40
0.2
50
270
51
0
0
ARC
8
0
10
200.35
20
-111.73
40
0.2
50
0
51
90
0
LINE
8
0
10
229.4
20
-164.5541
11
232.6
21
-164.5541
0
LINE
8
0
10
232.8
20
-164.3541
11
232.8
21
-161.6541
0
LINE
8
0
10
232.6
20
-161.4541
11
229.4
21
-161.4541
0
LINE
8
0
10
229.2
20
-161.6541
11
229.2
21
-164.3541
0
ARC
8
0
10
232.6
20
-164.3541
40
0.2
50
270
51
0
0
ARC
8
0
10
232.6
20
-161.6541
40
0.2
50
0
51
90
0
ARC
8
0
10
229.4
20
-161.6541
40
0.2
50
90
51
180
0
ARC
8
0
10
229.4
20
-164.3541
40
0.2
50
180
51
270
0
LINE
8
0
10
189.6
20
-130.15
11
186.4
21
-130.15
0
LINE
8
0
10
186.2
20
-130.35
11
186.2
21
-133.05
0
LINE
8
0
10
186.4
20
-133.25
11
189.6
21
-133.25
0
LINE
8
0
10
189.8
20
-133.05
11
189.8
21
-130.35
0
ARC
8
0
10
186.4
20
-130.35
40
0.2
50
90
51
180
0
ARC
8
0
10
186.4
20
-133.05
40
0.2
50
180
51
270
0
ARC
8
0
10
189.6
20
-133.05
40
0.2
50
270
51
0
0
ARC
8
0
10
189.6
20
-130.35
40
0.2
50
0
51
90
0
LINE
8
0
10
366.52798
20
-89.9493594
11
364.92798
21
-92.7206406
0
LINE
8
0
10
365.0011851
20
-92.9938457
11
367.3394537
21
-94.3438457
0
LINE
8
0
10
367.6126588
20
-94.2706406
11
369.2126588
21
-91.4993594
0
LINE
8
0
10
369.1394537
20
-91.2261543
11
366.8011851
21
-89.8761543
0
ARC
8
0
10
365.1011851
20
-92.8206406
40
0.2
50
150
51
240
0
ARC
8
0
10
367.4394537
20
-94.1706406
40
0.2
50
240
51
330
0
ARC
8
0
10
369.0394537
20
-91.3993594
40
0.2
50
330
51
60
0
ARC
8
0
10
366.7011851
20
-90.0493594
40
0.2
50
60
51
150
0
LINE
8
0
10
350.65
20
-67.99
11
353.85
21
-67.99
0
LINE
8
0
10
354.05
20
-67.79
11
354.05
21
-65.09
0
LINE
8
0
10
353.85
20
-64.89
11
350.65
21
-64.89
0
LINE
8
0
10
350.45
20
-65.09
11
350.45
21
-67.79
0
ARC
8
0
10
353.85
20
-67.79
40
0.2
50
270
51
0
0
ARC
8
0
10
353.85
20
-65.09
40
0.2
50
0
51
90
0
ARC
8
0
10
350.65
20
-65.09
40
0.2
50
90
51
180
0
ARC
8
0
10
350.65
20
-67.79
40
0.2
50
180
51
270
0
LINE
8
0
10
327.22202
20
-70.9506406
11
328.82202
21
-68.1793594
0
LINE
8
0
10
328.7488149
20
-67.9061543
11
326.4105463
21
-66.5561543
0
LINE
8
0
10
326.1373412
20
-66.6293594
11
324.5373412
21
-69.4006406
0
LINE
8
0
10
324.6105463
20
-69.6738457
11
326.9488149
21
-71.0238457
0
ARC
8
0
10
328.6488149
20
-68.0793594
40
0.2
50
330
51
60
0
ARC
8
0
10
326.3105463
20
-66.7293594
40
0.2
50
60
51
150
0
ARC
8
0
10
324.7105463
20
-69.5006406
40
0.2
50
150
51
240
0
ARC
8
0
10
327.0488149
20
-70.8506406
40
0.2
50
240
51
330
0
LINE
8
0
10
305.72202
20
-70.9506406
11
307.32202
21
-68.1793594
0
LINE
8
0
10
307.2488149
20
-67.9061543
11
304.9105463
21
-66.5561543
0
LINE
8
0
10
304.6373412
20
-66.6293594
11
303.0373412
21
-69.4006406
0
LINE
8
0
10
303.1105463
20
-69.6738457
11
305.4488149
21
-71.0238457
0
ARC
8
0
10
307.1488149
20
-68.0793594
40
0.2
50
330
51
60
0
ARC
8
0
10
304.8105463
20
-66.7293594
40
0.2
50
60
51
150
0
ARC
8
0
10
303.2105463
20
-69.5006406
40
0.2
50
150
51
240
0
ARC
8
0
10
305.5488149
20
-70.8506406
40
0.2
50
240
51
330
0
LINE
8
0
10
284.22202
20
-70.9506406
11
285.82202
21
-68.1793594
0
LINE
8
0
10
285.7488149
20
-67.9061543
11
283.4105463
21
-66.5561543
0
LINE
8
0
10
283.1373412
20
-66.6293594
11
281.5373412
21
-69.4006406
0
LINE
8
0
10
281.6105463
20
-69.6738457
11
283.9488149
21
-71.0238457
0
ARC
8
0
10
285.6488149
20
-68.0793594
40
0.2
50
330
51
60
0
ARC
8
0
10
283.3105463
20
-66.7293594
40
0.2
50
60
51
150
0
ARC
8
0
10
281.7105463
20
-69.5006406
40
0.2
50
150
51
240
0
ARC
8
0
10
284.0488149
20
-70.8506406
40
0.2
50
240
51
330
0
LINE
8
0
10
353.85
20
-111.53
11
350.65
21
-111.53
0
LINE
8
0
10
350.45
20
-111.73
11
350.45
21
-114.43
0
LINE
8
0
10
350.65
20
-114.63
11
353.85
21
-114.63
0
LINE
8
0
10
354.05
20
-114.43
11
354.05
21
-111.73
0
ARC
8
0
10
350.65
20
-111.73
40
0.2
50
90
51
180
0
ARC
8
0
10
350.65
20
-114.43
40
0.2
50
180
51
270
0
ARC
8
0
10
353.85
20
-114.43
40
0.2
50
270
51
0
0
ARC
8
0
10
353.85
20
-111.73
40
0.2
50
0
51
90
0
LINE
8
0
10
339.57202
20
-92.7206406
11
337.97202
21
-89.9493594
0
LINE
8
0
10
337.6988149
20
-89.8761543
11
335.3605463
21
-91.2261543
0
LINE
8
0
10
335.2873412
20
-91.4993594
11
336.8873412
21
-94.2706406
0
LINE
8
0
10
337.1605463
20
-94.3438457
11
339.4988149
21
-92.9938457
0
ARC
8
0
10
337.7988149
20
-90.0493594
40
0.2
50
30
51
120
0
ARC
8
0
10
335.4605463
20
-91.3993594
40
0.2
50
120
51
210
0
ARC
8
0
10
337.0605463
20
-94.1706406
40
0.2
50
210
51
300
0
ARC
8
0
10
339.3988149
20
-92.8206406
40
0.2
50
300
51
30
0
LINE
8
0
10
332.35
20
-111.53
11
329.15
21
-111.53
0
LINE
8
0
10
328.95
20
-111.73
11
328.95
21
-114.43
0
LINE
8
0
10
329.15
20
-114.63
11
332.35
21
-114.63
0
LINE
8
0
10
332.55
20
-114.43
11
332.55
21
-111.73
0
ARC
8
0
10
329.15
20
-111.73
40
0.2
50
90
51
180
0
ARC
8
0
10
329.15
20
-114.43
40
0.2
50
180
51
270
0
ARC
8
0
10
332.35
20
-114.43
40
0.2
50
270
51
0
0
ARC
8
0
10
332.35
20
-111.73
40
0.2
50
0
51
90
0
LINE
8
0
10
318.07202
20
-92.7206406
11
316.47202
21
-89.9493594
0
LINE
8
0
10
316.1988149
20
-89.8761543
11
313.8605463
21
-91.2261543
0
LINE
8
0
10
313.7873412
20
-91.4993594
11
315.3873412
21
-94.2706406
0
LINE
8
0
10
315.6605463
20
-94.3438457
11
317.9988149
21
-92.9938457
0
ARC
8
0
10
316.2988149
20
-90.0493594
40
0.2
50
30
51
120
0
ARC
8
0
10
313.9605463
20
-91.3993594
40
0.2
50
120
51
210
0
ARC
8
0
10
315.5605463
20
-94.1706406
40
0.2
50
210
51
300
0
ARC
8
0
10
317.8988149
20
-92.8206406
40
0.2
50
300
51
30
0
LINE
8
0
10
296.57202
20
-92.7206406
11
294.97202
21
-89.9493594
0
LINE
8
0
10
294.6988149
20
-89.8761543
11
292.3605463
21
-91.2261543
0
LINE
8
0
10
292.2873412
20
-91.4993594
11
293.8873412
21
-94.2706406
0
LINE
8
0
10
294.1605463
20
-94.3438457
11
296.4988149
21
-92.9938457
0
ARC
8
0
10
294.7988149
20
-90.0493594
40
0.2
50
30
51
120
0
ARC
8
0
10
292.4605463
20
-91.3993594
40
0.2
50
120
51
210
0
ARC
8
0
10
294.0605463
20
-94.1706406
40
0.2
50
210
51
300
0
ARC
8
0
10
296.3988149
20
-92.8206406
40
0.2
50
300
51
30
0
LINE
8
0
10
310.85
20
-111.53
11
307.65
21
-111.53
0
LINE
8
0
10
307.45
20
-111.73
11
307.45
21
-114.43
0
LINE
8
0
10
307.65
20
-114.63
11
310.85
21
-114.63
0
LINE
8
0
10
311.05
20
-114.43
11
311.05
21
-111.73
0
ARC
8
0
10
307.65
20
-111.73
40
0.2
50
90
51
180
0
ARC
8
0
10
307.65
20
-114.43
40
0.2
50
180
51
270
0
ARC
8
0
10
310.85
20
-114.43
40
0.2
50
270
51
0
0
ARC
8
0
10
310.85
20
-111.73
40
0.2
50
0
51
90
0
LINE
8
0
10
275.4
20
-164.5541
11
278.6
21
-164.5541
0
LINE
8
0
10
278.8
20
-164.3541
11
278.8
21
-161.6541
0
LINE
8
0
10
278.6
20
-161.4541
11
275.4
21
-161.4541
0
LINE
8
0
10
275.2
20
-161.6541
11
275.2
21
-164.3541
0
ARC
8
0
10
278.6
20
-164.3541
40
0.2
50
270
51
0
0
ARC
8
0
10
278.6
20
-161.6541
40
0.2
50
0
51
90
0
ARC
8
0
10
275.4
20
-161.6541
40
0.2
50
90
51
180
0
ARC
8
0
10
275.4
20
-164.3541
40
0.2
50
180
51
270
0
LINE
8
0
10
321.6
20
-130.15
11
318.4
21
-130.15
0
LINE
8
0
10
318.2
20
-130.35
11
318.2
21
-133.05
0
LINE
8
0
10
318.4
20
-133.25
11
321.6
21
-133.25
0
LINE
8
0
10
321.8
20
-133.05
11
321.8
21
-130.35
0
ARC
8
0
10
318.4
20
-130.35
40
0.2
50
90
51
180
0
ARC
8
0
10
318.4
20
-133.05
40
0.2
50
180
51
270
0
ARC
8
0
10
321.6
20
-133.05
40
0.2
50
270
51
0
0
ARC
8
0
10
321.6
20
-130.35
40
0.2
50
0
51
90
0
LINE
8
0
10
233.73
20
-69.2012833
11
241.57
21
-69.2012833
0
LINE
8
0
10
266.43
20
-69.2012833
11
274.27
21
-69.2012833
0
LINE
8
0
10
277.27
20
-66.2012833
11
277.27
21
-63.2012833
0
LINE
8
0
10
230.73
20
-63.2012833
11
230.73
21
-66.2012833
0
ARC
8
0
10
274.27
20
-66.2012833
40
3
50
270
51
0
0
ARC
8
0
10
233.73
20
-66.2012833
40
3
50
180
51
270
0
LINE
8
0
10
263.43
20
-66.2012833
11
263.43
21
-63.2012833
0
LINE
8
0
10
244.57
20
-63.2012833
11
244.57
21
-66.2012833
0
ARC
8
0
10
241.57
20
-66.2012833
40
3
50
270
51
0
0
ARC
8
0
10
266.43
20
-66.2012833
40
3
50
180
51
270
0
LINE
8
0
10
234.5
20
-112.9833333
11
239.5
21
-112.9833333
0
LINE
8
0
10
240.5
20
-111.9833333
11
240.5
21
-110.9833333
0
LINE
8
0
10
239.5
20
-109.9833333
11
234.5
21
-109.9833333
0
LINE
8
0
10
233.5
20
-110.9833333
11
233.5
21
-111.9833333
0
ARC
8
0
10
239.5
20
-111.9833333
40
1
50
270
51
0
0
ARC
8
0
10
239.5
20
-110.9833333
40
1
50
0
51
90
0
ARC
8
0
10
234.5
20
-110.9833333
40
1
50
90
51
180
0
ARC
8
0
10
234.5
20
-111.9833333
40
1
50
180
51
270
0
ENDSEC
0
EOF