0
SECTION
2
HEADER
9
$INSUNITS
70
4
0
ENDSEC
0
SECTION
2
TABLES
0
TABLE
2
LTYPE
0
LTYPE
72
65
70
64
2
CONTINUOUS
3
______
73
0
40
0
0
ENDTAB
0
TABLE
2
LAYER
0
ENDTAB
0
ENDSEC
0
SECTION
2
ENTITIES
0
LINE
8
0
10
144.595
20
-75.1472648
11
144.595
21
-66.8212446
0
LINE
8
0
10
146.3649685
20
-63.7555328
11
153.8449685
21
-59.4368501
0
LINE
8
0
10
157.3850315
20
-59.4368501
11
164.5951237
21
-63.5996978
0
LINE
8
0
10
168.1351552
20
-63.5997159
11
175.3451519
21
-59.4370224
0
LINE
8
0
10
178.8851203
20
-59.4370041
11
186.0952693
21
-63.5996865
0
LINE
8
0
10
211.1352377
20
-63.5996683
11
218.3451519
21
-59.4370224
0
LINE
8
0
10
221.8851203
20
-59.4370041
11
229.3652093
21
-63.7555327
0
LINE
8
0
10
231.1352409
20
-66.8213174
11
231.1351519
21
-75.4585288
0
LINE
8
0
10
229.3651519
20
-78.5242222
11
222.1551552
21
-82.6869158
0
LINE
8
0
10
142.8249686
20
-101.3071664
11
135.6147906
21
-97.1444671
0
LINE
8
0
10
133.8447591
20
-94.0786826
11
133.8448481
21
-85.4414712
0
LINE
8
0
10
135.6148481
20
-82.3757778
11
142.825
21
-78.2129947
0
LINE
8
0
10
189.6352377
20
-63.5996683
11
196.8451519
21
-59.4370224
0
LINE
8
0
10
200.3851203
20
-59.4370041
11
207.5952693
21
-63.5996865
0
LINE
8
0
10
220.3851551
20
-85.7526821
11
220.3852409
21
-94.0786826
0
LINE
8
0
10
218.6152093
20
-97.1444673
11
211.4050316
21
-101.3071663
0
LINE
8
0
10
209.635
20
-104.3729145
11
209.635
21
-112.6987554
0
LINE
8
0
10
207.8650315
20
-115.7644672
11
200.6549685
21
-119.9272979
0
LINE
8
0
10
164.5949685
20
-115.9203918
11
157.3850315
21
-120.0831499
0
LINE
8
0
10
153.8449685
20
-120.0831499
11
146.3649685
21
-115.7644672
0
LINE
8
0
10
144.595
20
-112.6987554
11
144.595
21
-104.3729144
0
LINE
8
0
10
175.0750315
20
-119.9272979
11
168.1350315
21
-115.9203918
0
LINE
8
0
10
198.885
20
-122.9930097
11
198.885
21
-131.3187554
0
LINE
8
0
10
197.1150315
20
-134.3844672
11
189.6350315
21
-138.7031499
0
LINE
8
0
10
186.0949685
20
-138.7031499
11
178.6149685
21
-134.3844672
0
LINE
8
0
10
176.845
20
-131.3187554
11
176.845
21
-122.9930097
0
LINE
8
0
10
229.0949685
20
-179.719019
11
221.6149685
21
-175.4003363
0
LINE
8
0
10
219.845
20
-172.3346245
11
219.845
21
-163.6971136
0
LINE
8
0
10
221.6149685
20
-160.6314018
11
229.0949685
21
-156.3127191
0
LINE
8
0
10
232.6350315
20
-156.3127191
11
240.1150315
21
-160.6314018
0
LINE
8
0
10
241.885
20
-163.6971136
11
241.885
21
-172.3346245
0
LINE
8
0
10
240.1150315
20
-175.4003363
11
232.6350315
21
-179.719019
0
LINE
8
0
10
343.4048763
20
-63.5996978
11
350.6149685
21
-59.4368501
0
LINE
8
0
10
354.1550315
20
-59.4368501
11
361.6350315
21
-63.7555328
0
LINE
8
0
10
363.405
20
-66.8212446
11
363.405
21
-75.1472648
0
LINE
8
0
10
321.9047307
20
-63.5996865
11
329.1148797
21
-59.4370041
0
LINE
8
0
10
332.6548481
20
-59.4370224
11
339.8648448
21
-63.5997159
0
LINE
8
0
10
285.8448448
20
-82.6869158
11
278.6348481
21
-78.5242222
0
LINE
8
0
10
276.8648481
20
-75.4585288
11
276.8647591
21
-66.8213174
0
LINE
8
0
10
278.6347907
20
-63.7555327
11
286.1148797
21
-59.4370041
0
LINE
8
0
10
289.6548481
20
-59.4370224
11
296.8647623
21
-63.5996683
0
LINE
8
0
10
365.175
20
-78.2129947
11
372.3851519
21
-82.3757778
0
LINE
8
0
10
374.1551519
20
-85.4414712
11
374.1552409
21
-94.0786826
0
LINE
8
0
10
372.3852093
20
-97.1444673
11
365.1750316
21
-101.3071663
0
LINE
8
0
10
300.4047307
20
-63.5996865
11
307.6148797
21
-59.4370041
0
LINE
8
0
10
311.1548481
20
-59.4370224
11
318.3647623
21
-63.5996683
0
LINE
8
0
10
296.5949686
20
-101.3071664
11
289.3847906
21
-97.1444671
0
LINE
8
0
10
287.6147591
20
-94.0786826
11
287.6148449
21
-85.7526821
0
LINE
8
0
10
307.3450315
20
-119.9272979
11
300.1349685
21
-115.7644672
0
LINE
8
0
10
298.365
20
-112.6987554
11
298.365
21
-104.3729144
0
LINE
8
0
10
363.405
20
-104.3729145
11
363.405
21
-112.6987554
0
LINE
8
0
10
361.6350315
20
-115.7644672
11
354.1550315
21
-120.0831499
0
LINE
8
0
10
350.6149685
20
-120.0831499
11
343.4050315
21
-115.9203918
0
LINE
8
0
10
339.8649685
20
-115.9203918
11
332.9249685
21
-119.9272979
0
LINE
8
0
10
331.155
20
-122.9930097
11
331.155
21
-131.3187554
0
LINE
8
0
10
329.3850315
20
-134.3844672
11
321.9050315
21
-138.7031499
0
LINE
8
0
10
318.3649685
20
-138.7031499
11
310.8849685
21
-134.3844672
0
LINE
8
0
10
309.115
20
-131.3187554
11
309.115
21
-122.9930097
0
LINE
8
0
10
275.3649685
20
-179.719019
11
267.8849685
21
-175.4003363
0
LINE
8
0
10
266.115
20
-172.3346245
11
266.115
21
-163.6971136
0
LINE
8
0
10
267.8849685
20
-160.6314018
11
275.3649685
21
-156.3127191
0
LINE
8
0
10
278.9050315
20
-156.3127191
11
286.3850315
21
-160.6314018
0
LINE
8
0
10
288.155
20
-163.6971136
11
288.155
21
-172.3346245
0
LINE
8
0
10
286.3850315
20
-175.4003363
11
278.9050315
21
-179.719019
0
ARC
8
0
10
148.135
20
-66.8212446
40
3.54
50
120.0005878
51
180
0
ARC
8
0
10
155.615
20
-62.5025619
40
3.54
50
59.9994122
51
120.0005878
0
ARC
8
0
10
166.3651552
20
-60.533986
40
3.54
50
239.9994122
51
300.0000001
0
ARC
8
0
10
177.1151519
20
-62.5027523
40
3.54
50
60.0005905
51
120.0000001
0
ARC
8
0
10
187.8652377
20
-60.5339384
40
3.54
50
240.0005905
51
300.0000001
0
ARC
8
0
10
198.6151519
20
-62.5027523
40
3.54
50
60.0005905
51
120.0000001
0
ARC
8
0
10
209.3652377
20
-60.5339384
40
3.54
50
240.0005905
51
300.0000001
0
ARC
8
0
10
220.1151519
20
-62.5027523
40
3.54
50
60.0005905
51
120.0000001
0
ARC
8
0
10
227.5952409
20
-66.8212809
40
3.54
50
359.9994099
51
60.0005905
0
ARC
8
0
10
227.5951519
20
-75.4584923
40
3.54
50
300.0000001
51
359.9994098
0
ARC
8
0
10
223.9251551
20
-85.7526457
40
3.54
50
120.0000001
51
180.0005901
0
ARC
8
0
10
216.8452409
20
-94.0787191
40
3.54
50
299.9994095
51
0.0005902
0
ARC
8
0
10
213.175
20
-104.3729145
40
3.54
50
119.9994095
51
180
0
ARC
8
0
10
206.095
20
-112.6987554
40
3.54
50
300.0005878
51
0
0
ARC
8
0
10
202.425
20
-122.9930097
40
3.54
50
120.0005878
51
180
0
ARC
8
0
10
195.345
20
-131.3187554
40
3.54
50
300.0005878
51
0
0
ARC
8
0
10
187.865
20
-135.6374381
40
3.54
50
239.9994122
51
300.0005878
0
ARC
8
0
10
180.385
20
-131.3187554
40
3.54
50
180
51
239.9994122
0
ARC
8
0
10
173.305
20
-122.9930097
40
3.54
50
0
51
59.9994122
0
ARC
8
0
10
166.365
20
-118.9861036
40
3.54
50
59.9994122
51
120.0005878
0
ARC
8
0
10
155.615
20
-117.0174381
40
3.54
50
239.9994122
51
300.0005878
0
ARC
8
0
10
148.135
20
-112.6987554
40
3.54
50
180
51
239.9994122
0
ARC
8
0
10
141.055
20
-104.3729144
40
3.54
50
0
51
60.0005876
0
ARC
8
0
10
137.3847591
20
-94.078719
40
3.54
50
179.9994099
51
240.0005876
0
ARC
8
0
10
137.3848481
20
-85.4415077
40
3.54
50
120.0000001
51
179.9994098
0
ARC
8
0
10
141.055
20
-75.1472648
40
3.54
50
300.0000001
51
0
0
ARC
8
0
10
352.385
20
-62.5025619
40
3.54
50
59.9994122
51
120.0005878
0
ARC
8
0
10
359.865
20
-66.8212446
40
3.54
50
0
51
59.9994122
0
ARC
8
0
10
366.945
20
-75.1472648
40
3.54
50
180
51
239.9999999
0
ARC
8
0
10
370.6151519
20
-85.4415077
40
3.54
50
0.0005902
51
59.9999999
0
ARC
8
0
10
370.6152409
20
-94.0787191
40
3.54
50
299.9994095
51
0.0005902
0
ARC
8
0
10
366.945
20
-104.3729145
40
3.54
50
119.9994095
51
180
0
ARC
8
0
10
359.865
20
-112.6987554
40
3.54
50
300.0005878
51
0
0
ARC
8
0
10
352.385
20
-117.0174381
40
3.54
50
239.9994122
51
300.0005878
0
ARC
8
0
10
341.635
20
-118.9861036
40
3.54
50
59.9994122
51
120.0005878
0
ARC
8
0
10
334.695
20
-122.9930097
40
3.54
50
120.0005878
51
180
0
ARC
8
0
10
327.615
20
-131.3187554
40
3.54
50
300.0005878
51
0
0
ARC
8
0
10
320.135
20
-135.6374381
40
3.54
50
239.9994122
51
300.0005878
0
ARC
8
0
10
312.655
20
-131.3187554
40
3.54
50
180
51
239.9994122
0
ARC
8
0
10
305.575
20
-122.9930097
40
3.54
50
0
51
59.9994122
0
ARC
8
0
10
301.905
20
-112.6987554
40
3.54
50
180
51
239.9994122
0
ARC
8
0
10
294.825
20
-104.3729144
40
3.54
50
0
51
60.0005876
0
ARC
8
0
10
291.1547591
20
-94.078719
40
3.54
50
179.9994099
51
240.0005876
0
ARC
8
0
10
284.0748449
20
-85.7526457
40
3.54
50
359.9994098
51
59.9999999
0
ARC
8
0
10
280.4048481
20
-75.4584923
40
3.54
50
180.0005902
51
239.9999999
0
ARC
8
0
10
280.4047591
20
-66.8212809
40
3.54
50
119.9994095
51
180.0005901
0
ARC
8
0
10
287.8848481
20
-62.5027523
40
3.54
50
59.9999999
51
119.9994095
0
ARC
8
0
10
298.6347623
20
-60.5339384
40
3.54
50
239.9999999
51
299.9994095
0
ARC
8
0
10
309.3848481
20
-62.5027523
40
3.54
50
59.9999999
51
119.9994095
0
ARC
8
0
10
320.1347623
20
-60.5339384
40
3.54
50
239.9999999
51
299.9994095
0
ARC
8
0
10
330.8848481
20
-62.5027523
40
3.54
50
59.9999999
51
119.9994095
0
ARC
8
0
10
341.6348448
20
-60.533986
40
3.54
50
239.9999999
51
300.0005878
0
ARC
8
0
10
223.385
20
-172.3346245
40
3.54
50
180
51
239.9994122
0
ARC
8
0
10
223.385
20
-163.6971136
40
3.54
50
120.0005878
51
180
0
ARC
8
0
10
230.865
20
-159.3784309
40
3.54
50
59.9994122
51
120.0005878
0
ARC
8
0
10
238.345
20
-163.6971136
40
3.54
50
0
51
59.9994122
0
ARC
8
0
10
238.345
20
-172.3346245
40
3.54
50
300.0005878
51
0
0
ARC
8
0
10
230.865
20
-176.6533072
40
3.54
50
239.9994122
51
300.0005878
0
ARC
8
0
10
269.655
20
-172.3346245
40
3.54
50
180
51
239.9994122
0
ARC
8
0
10
269.655
20
-163.6971136
40
3.54
50
120.0005878
51
180
0
ARC
8
0
10
277.135
20
-159.3784309
40
3.54
50
59.9994122
51
120.0005878
0
ARC
8
0
10
284.615
20
-163.6971136
40
3.54
50
0
51
59.9994122
0
ARC
8
0
10
284.615
20
-172.3346245
40
3.54
50
300.0005878
51
0
0
ARC
8
0
10
277.135
20
-176.6533072
40
3.54
50
239.9994122
51
300.0005878
0
ENDSEC
0
EOF