0
SECTION
2
HEADER
9
$INSUNITS
70
4
0
ENDSEC
0
SECTION
2
TABLES
0
TABLE
2
LTYPE
0
LTYPE
72
65
70
64
2
CONTINUOUS
3
______
73
0
40
0
0
ENDTAB
0
TABLE
2
LAYER
0
ENDTAB
0
ENDSEC
0
SECTION
2
ENTITIES
0
LINE
8
0
10
250.8649467
20
-172.3460666
11
234.0000535
21
-182.0832374
0
LINE
8
0
10
227.7299469
20
-182.0832374
11
187.9999467
21
-159.1445892
0
LINE
8
0
10
184.865
20
-153.7146407
11
184.865
21
-144.7653254
0
LINE
8
0
10
181.7300572
20
-139.3353791
11
134.2499428
21
-111.9220542
0
LINE
8
0
10
131.115
20
-106.4921079
11
131.115
21
-73.0278959
0
LINE
8
0
10
134.2499479
20
-67.5979467
11
163.2299446
21
-50.8659654
0
LINE
8
0
10
169.5000539
20
-50.8659683
11
184.7299428
21
-59.6591631
0
LINE
8
0
10
191.0000572
20
-59.6591631
11
206.2299442
21
-50.8659694
0
LINE
8
0
10
212.5000567
20
-50.8659683
11
226.4763013
21
-58.9353462
0
LINE
8
0
10
281.5236987
20
-58.9353462
11
295.4999433
21
-50.8659683
0
LINE
8
0
10
301.7700558
20
-50.8659694
11
316.9999428
21
-59.6591631
0
LINE
8
0
10
323.2700572
20
-59.6591631
11
338.4999461
21
-50.8659683
0
LINE
8
0
10
344.7700554
20
-50.8659654
11
373.7500521
21
-67.5979467
0
LINE
8
0
10
376.885
20
-73.0278959
11
376.885
21
-106.4921079
0
LINE
8
0
10
373.7500572
20
-111.9220542
11
326.2699428
21
-139.3353791
0
LINE
8
0
10
323.135
20
-144.7653254
11
323.135
21
-153.7146407
0
LINE
8
0
10
320.0000533
20
-159.1445892
11
280.2700531
21
-182.0832374
0
LINE
8
0
10
273.9999465
20
-182.0832374
11
257.1350533
21
-172.3460666
0
LINE
8
0
10
278.3886435
20
-59.7753988
11
229.6113565
21
-59.7753988
0
ARC
8
0
10
230.8650002
20
-176.6532889
40
6.27
50
239.9994378
51
300.0005622
0
ARC
8
0
10
191.135
20
-153.7146407
40
6.27
50
180
51
239.9994378
0
ARC
8
0
10
178.595
20
-144.7653254
40
6.27
50
0
51
59.9993965
0
ARC
8
0
10
137.385
20
-106.4921079
40
6.27
50
180
51
239.9993965
0
ARC
8
0
10
137.385
20
-73.0278959
40
6.27
50
120.0005495
51
180
0
ARC
8
0
10
166.3649967
20
-56.2959146
40
6.27
50
59.9993965
51
120.0005495
0
ARC
8
0
10
187.865
20
-54.2292168
40
6.27
50
239.9993965
51
300.0006035
0
ARC
8
0
10
209.3650014
20
-56.2959157
40
6.27
50
59.9994171
51
120.0006035
0
ARC
8
0
10
229.6113565
20
-53.5053988
40
6.27
50
239.9994171
51
270
0
ARC
8
0
10
278.3886435
20
-53.5053988
40
6.27
50
270
51
300.0005829
0
ARC
8
0
10
298.6349986
20
-56.2959157
40
6.27
50
59.9993965
51
120.0005829
0
ARC
8
0
10
320.135
20
-54.2292168
40
6.27
50
239.9993965
51
300.0006035
0
ARC
8
0
10
341.6350033
20
-56.2959146
40
6.27
50
59.9994505
51
120.0006035
0
ARC
8
0
10
370.615
20
-73.0278959
40
6.27
50
0
51
59.9994505
0
ARC
8
0
10
370.615
20
-106.4921079
40
6.27
50
300.0006035
51
0
0
ARC
8
0
10
329.405
20
-144.7653254
40
6.27
50
120.0006035
51
180
0
ARC
8
0
10
316.865
20
-153.7146407
40
6.27
50
300.0005622
51
0
0
ARC
8
0
10
277.1349998
20
-176.6532889
40
6.27
50
239.9994378
51
300.0005622
0
ARC
8
0
10
254
20
-177.7760151
40
6.27
50
59.9994378
51
120.0005622
0
ENDSEC
0
EOF