0
SECTION
2
HEADER
9
$INSUNITS
70
4
0
ENDSEC
0
SECTION
2
TABLES
0
TABLE
2
LTYPE
0
LTYPE
72
65
70
64
2
CONTINUOUS
3
______
73
0
40
0
0
ENDTAB
0
TABLE
2
LAYER
0
ENDTAB
0
ENDSEC
0
SECTION
2
ENTITIES
0
LINE
8
0
10
239.8450255
20
-174.9326959
11
232.365027
21
-179.2513727
0
LINE
8
0
10
229.3649739
20
-179.2513716
11
221.8849724
21
-174.9326848
0
LINE
8
0
10
197.1149723
20
-160.6313678
11
189.6349724
21
-156.3126819
0
LINE
8
0
10
188.135
20
-153.7146216
11
188.135
21
-140.9894785
0
LINE
8
0
10
186.6350274
20
-138.3914181
11
178.8849726
21
-133.9168128
0
LINE
8
0
10
154.1149732
20
-119.6154985
11
146.6349726
21
-115.2968129
0
LINE
8
0
10
134.385
20
-94.0787558
11
134.385
21
-85.4412443
0
LINE
8
0
10
146.6349724
20
-64.2231858
11
154.1149708
21
-59.9045005
0
LINE
8
0
10
178.6150302
20
-59.9044996
11
186.3649726
21
-64.37904
0
LINE
8
0
10
189.3650274
20
-64.37904
11
197.1149698
21
-59.9044996
0
LINE
8
0
10
221.6150348
20
-59.9044959
11
226.3589483
21
-62.6434598
0
LINE
8
0
10
281.6410517
20
-62.6434598
11
286.3849652
21
-59.9044959
0
LINE
8
0
10
310.8850302
20
-59.9044996
11
318.6349726
21
-64.37904
0
LINE
8
0
10
321.6350274
20
-64.37904
11
329.3849698
21
-59.9044996
0
LINE
8
0
10
353.8850292
20
-59.9045005
11
361.3650276
21
-64.2231858
0
LINE
8
0
10
373.615
20
-85.4412443
11
373.615
21
-94.0787558
0
LINE
8
0
10
361.3650274
20
-115.2968129
11
353.8850268
21
-119.6154985
0
LINE
8
0
10
329.1150274
20
-133.9168128
11
321.3649726
21
-138.3914181
0
LINE
8
0
10
319.865
20
-140.9894785
11
319.865
21
-153.7146216
0
LINE
8
0
10
318.3650276
20
-156.3126819
11
310.8850277
21
-160.6313678
0
LINE
8
0
10
286.1150276
20
-174.9326848
11
278.6350261
21
-179.2513716
0
LINE
8
0
10
275.634973
20
-179.2513727
11
268.1549745
21
-174.9326959
0
LINE
8
0
10
280.1410253
20
-63.0453988
11
227.8589747
21
-63.0453988
0
ARC
8
0
10
230.8650015
20
-176.6533113
40
3
50
239.9993916
51
300.0005622
0
ARC
8
0
10
191.135
20
-153.7146216
40
3
50
180
51
239.9993916
0
ARC
8
0
10
185.135
20
-140.9894785
40
3
50
0
51
59.9993965
0
ARC
8
0
10
187.865
20
-61.7809796
40
3
50
239.9993965
51
300.0006035
0
ARC
8
0
10
227.8589747
20
-60.0453988
40
3
50
239.9994171
51
270
0
ARC
8
0
10
280.1410253
20
-60.0453988
40
3
50
270
51
300.0005829
0
ARC
8
0
10
320.135
20
-61.7809796
40
3
50
239.9993965
51
300.0006035
0
ARC
8
0
10
322.865
20
-140.9894785
40
3
50
120.0006035
51
180
0
ARC
8
0
10
316.865
20
-153.7146216
40
3
50
300.0006084
51
0
0
ARC
8
0
10
277.1349985
20
-176.6533113
40
3
50
239.9994378
51
300.0006084
0
LINE
8
0
10
241.345
20
-172.3346345
11
241.345
21
-163.229463
0
LINE
8
0
10
239.8450274
20
-160.6314026
11
232.0949726
21
-156.1567973
0
LINE
8
0
10
230.595
20
-153.5587369
11
230.595
21
-128.4202624
0
LINE
8
0
10
241.345
20
-120.4815643
11
252.4999768
21
-114.0411025
0
LINE
8
0
10
255.5000232
20
-114.0411025
11
266.655
21
-120.4815643
0
LINE
8
0
10
277.405
20
-153.5587369
11
277.405
21
-128.4202624
0
LINE
8
0
10
275.9050274
20
-156.1567973
11
268.1549726
21
-160.6314026
0
LINE
8
0
10
266.655
20
-163.229463
11
266.655
21
-172.3346345
0
LINE
8
0
10
232.0949749
20
-125.8222007
11
241.345
21
-120.4815769
0
LINE
8
0
10
266.655
20
-120.4815769
11
275.9050251
21
-125.8222007
0
ARC
8
0
10
238.345
20
-163.229463
40
3
50
0
51
59.9993965
0
ARC
8
0
10
233.595
20
-153.5587369
40
3
50
180
51
239.9993965
0
ARC
8
0
10
233.595
20
-128.4202624
40
3
50
120.0005544
51
180
0
ARC
8
0
10
254
20
-116.6391654
40
3
50
59.9994889
51
120.0005111
0
ARC
8
0
10
274.405
20
-128.4202624
40
3
50
0
51
59.9994456
0
ARC
8
0
10
274.405
20
-153.5587369
40
3
50
300.0006035
51
0
0
ARC
8
0
10
269.655
20
-163.229463
40
3
50
120.0006035
51
180
0
LINE
8
0
10
145.135
20
-66.821246
11
145.135
21
-75.770521
0
LINE
8
0
10
143.6350267
20
-78.3685818
11
135.8849733
21
-82.8431835
0
LINE
8
0
10
164.8649733
20
-64.379041
11
157.1150251
21
-59.9044999
0
LINE
8
0
10
175.6149762
20
-59.9044992
11
167.8650267
21
-64.379041
0
LINE
8
0
10
207.8649733
20
-64.379041
11
200.1150238
21
-59.9044992
0
LINE
8
0
10
218.6149817
20
-59.904496
11
210.8650267
21
-64.379041
0
LINE
8
0
10
372.1150267
20
-82.8431835
11
364.3649733
21
-78.3685818
0
LINE
8
0
10
362.865
20
-75.770521
11
362.865
21
-66.821246
0
LINE
8
0
10
340.1349733
20
-64.379041
11
332.3850238
21
-59.9044992
0
LINE
8
0
10
350.8849749
20
-59.9044999
11
343.1350267
21
-64.379041
0
LINE
8
0
10
297.1349733
20
-64.379041
11
289.3850183
21
-59.904496
0
LINE
8
0
10
307.8849762
20
-59.9044992
11
300.1350267
21
-64.379041
0
LINE
8
0
10
135.8849733
20
-96.6768166
11
143.6350267
21
-101.1514183
0
LINE
8
0
10
145.135
20
-103.7494791
11
145.135
21
-112.6987525
0
LINE
8
0
10
157.1150273
20
-119.6154989
11
164.8649733
21
-115.1409591
0
LINE
8
0
10
167.8650267
20
-115.1409591
11
175.8850267
21
-119.7714183
0
LINE
8
0
10
177.385
20
-122.3694791
11
177.385
21
-131.3187524
0
LINE
8
0
10
200.1150265
20
-160.6313683
11
207.8649733
21
-156.1568281
0
LINE
8
0
10
210.8650267
20
-156.1568281
11
218.8850267
21
-160.7872873
0
LINE
8
0
10
220.385
20
-163.3853481
11
220.385
21
-172.3346245
0
LINE
8
0
10
362.865
20
-112.6987525
11
362.865
21
-103.7494791
0
LINE
8
0
10
364.3649733
20
-101.1514183
11
372.1150267
21
-96.6768166
0
LINE
8
0
10
330.615
20
-131.3187524
11
330.615
21
-122.3694791
0
LINE
8
0
10
332.1149733
20
-119.7714183
11
340.1349733
21
-115.1409591
0
LINE
8
0
10
343.1350267
20
-115.1409591
11
350.8849727
21
-119.6154989
0
LINE
8
0
10
287.615
20
-172.3346245
11
287.615
21
-163.3853481
0
LINE
8
0
10
289.1149733
20
-160.7872873
11
297.1349733
21
-156.1568281
0
LINE
8
0
10
300.1350267
20
-156.1568281
11
307.8849735
21
-160.6313683
0
ARC
8
0
10
223.385
20
-172.3346245
40
3
50
180
51
239.9993916
0
ARC
8
0
10
217.385
20
-163.3853481
40
3
50
0
51
59.9994122
0
ARC
8
0
10
209.365
20
-158.7548889
40
3
50
59.9994122
51
120.0005878
0
ARC
8
0
10
198.6149999
20
-158.0333075
40
3
50
239.9993916
51
300.0005878
0
ARC
8
0
10
180.385
20
-131.3187524
40
3
50
180
51
239.9993965
0
ARC
8
0
10
174.385
20
-122.3694791
40
3
50
0
51
59.9994122
0
ARC
8
0
10
166.365
20
-117.7390199
40
3
50
59.9994122
51
120.0005878
0
ARC
8
0
10
155.6150006
20
-117.0174381
40
3
50
239.9993965
51
300.0005878
0
ARC
8
0
10
148.135
20
-112.6987525
40
3
50
180
51
239.9993965
0
ARC
8
0
10
142.135
20
-103.7494791
40
3
50
0
51
59.9994122
0
ARC
8
0
10
137.385
20
-94.0787558
40
3
50
180
51
239.9994122
0
ARC
8
0
10
137.385
20
-85.4412443
40
3
50
120.0005878
51
180
0
ARC
8
0
10
142.135
20
-75.770521
40
3
50
300.0005878
51
0
0
ARC
8
0
10
148.135
20
-66.821246
40
3
50
120.0006084
51
180
0
ARC
8
0
10
155.6149984
20
-62.5025608
40
3
50
59.9994122
51
120.0006084
0
ARC
8
0
10
166.365
20
-61.7809802
40
3
50
239.9994122
51
300.0005878
0
ARC
8
0
10
177.1150029
20
-62.50256
40
3
50
59.9993965
51
120.0005878
0
ARC
8
0
10
198.6149971
20
-62.50256
40
3
50
59.9994122
51
120.0006035
0
ARC
8
0
10
209.365
20
-61.7809802
40
3
50
239.9994122
51
300.0005878
0
ARC
8
0
10
220.1150084
20
-62.5025568
40
3
50
59.9994171
51
120.0005878
0
ARC
8
0
10
287.8849916
20
-62.5025568
40
3
50
59.9994122
51
120.0005829
0
ARC
8
0
10
298.635
20
-61.7809802
40
3
50
239.9994122
51
300.0005878
0
ARC
8
0
10
309.3850029
20
-62.50256
40
3
50
59.9993965
51
120.0005878
0
ARC
8
0
10
330.8849971
20
-62.50256
40
3
50
59.9994122
51
120.0006035
0
ARC
8
0
10
341.635
20
-61.7809802
40
3
50
239.9994122
51
300.0005878
0
ARC
8
0
10
352.3850016
20
-62.5025608
40
3
50
59.9993916
51
120.0005878
0
ARC
8
0
10
359.865
20
-66.821246
40
3
50
0
51
59.9993916
0
ARC
8
0
10
365.865
20
-75.770521
40
3
50
180
51
239.9994122
0
ARC
8
0
10
370.615
20
-85.4412443
40
3
50
0
51
59.9994122
0
ARC
8
0
10
370.615
20
-94.0787558
40
3
50
300.0005878
51
0
0
ARC
8
0
10
365.865
20
-103.7494791
40
3
50
120.0005878
51
180
0
ARC
8
0
10
359.865
20
-112.6987525
40
3
50
300.0006035
51
0
0
ARC
8
0
10
352.3849994
20
-117.0174381
40
3
50
239.9994122
51
300.0006035
0
ARC
8
0
10
341.635
20
-117.7390199
40
3
50
59.9994122
51
120.0005878
0
ARC
8
0
10
333.615
20
-122.3694791
40
3
50
120.0005878
51
180
0
ARC
8
0
10
327.615
20
-131.3187524
40
3
50
300.0006035
51
0
0
ARC
8
0
10
309.3850001
20
-158.0333075
40
3
50
239.9994122
51
300.0006084
0
ARC
8
0
10
298.635
20
-158.7548889
40
3
50
59.9994122
51
120.0005878
0
ARC
8
0
10
290.615
20
-163.3853481
40
3
50
120.0005878
51
180
0
ARC
8
0
10
284.615
20
-172.3346245
40
3
50
300.0006084
51
0
0
ARC
8
0
10
269.655
20
-172.3346345
40
3
50
180
51
239.9994378
0
ARC
8
0
10
238.345
20
-172.3346345
40
3
50
300.0005622
51
0
0
LINE
8
0
10
154.415
20
-68.04
11
156.815
21
-68.04
0
LINE
8
0
10
157.215
20
-67.64
11
157.215
21
-65.24
0
LINE
8
0
10
156.815
20
-64.84
11
154.415
21
-64.84
0
LINE
8
0
10
154.015
20
-65.24
11
154.015
21
-67.64
0
ARC
8
0
10
156.815
20
-67.64
40
0.4
50
270
51
0
0
ARC
8
0
10
156.815
20
-65.24
40
0.4
50
0
51
90
0
ARC
8
0
10
154.415
20
-65.24
40
0.4
50
90
51
180
0
ARC
8
0
10
154.415
20
-67.64
40
0.4
50
180
51
270
0
LINE
8
0
10
179.1996788
20
-68.5507695
11
180.3996788
21
-70.6292305
0
LINE
8
0
10
180.9460889
20
-70.7756406
11
183.0245499
21
-69.5756406
0
LINE
8
0
10
183.17096
20
-69.0292305
11
181.97096
21
-66.9507695
0
LINE
8
0
10
181.4245499
20
-66.8043594
11
179.3460889
21
-68.0043594
0
ARC
8
0
10
180.7460889
20
-70.4292305
40
0.4
50
210
51
300
0
ARC
8
0
10
182.8245499
20
-69.2292305
40
0.4
50
300
51
30
0
ARC
8
0
10
181.6245499
20
-67.1507695
40
0.4
50
30
51
120
0
ARC
8
0
10
179.5460889
20
-68.3507695
40
0.4
50
120
51
210
0
LINE
8
0
10
222.1996788
20
-68.5507695
11
223.3996788
21
-70.6292305
0
LINE
8
0
10
223.9460889
20
-70.7756406
11
226.0245499
21
-69.5756406
0
LINE
8
0
10
226.17096
20
-69.0292305
11
224.97096
21
-66.9507695
0
LINE
8
0
10
224.4245499
20
-66.8043594
11
222.3460889
21
-68.0043594
0
ARC
8
0
10
223.7460889
20
-70.4292305
40
0.4
50
210
51
300
0
ARC
8
0
10
225.8245499
20
-69.2292305
40
0.4
50
300
51
30
0
ARC
8
0
10
224.6245499
20
-67.1507695
40
0.4
50
30
51
120
0
ARC
8
0
10
222.5460889
20
-68.3507695
40
0.4
50
120
51
210
0
LINE
8
0
10
142.7803212
20
-92.3492305
11
141.5803212
21
-90.2707695
0
LINE
8
0
10
141.0339111
20
-90.1243594
11
138.9554501
21
-91.3243594
0
LINE
8
0
10
138.80904
20
-91.8707695
11
140.00904
21
-93.9492305
0
LINE
8
0
10
140.5554501
20
-94.0956406
11
142.6339111
21
-92.8956406
0
ARC
8
0
10
141.2339111
20
-90.4707695
40
0.4
50
30
51
120
0
ARC
8
0
10
139.1554501
20
-91.6707695
40
0.4
50
120
51
210
0
ARC
8
0
10
140.3554501
20
-93.7492305
40
0.4
50
210
51
300
0
ARC
8
0
10
142.4339111
20
-92.5492305
40
0.4
50
300
51
30
0
LINE
8
0
10
200.6996788
20
-68.5507695
11
201.8996788
21
-70.6292305
0
LINE
8
0
10
202.4460889
20
-70.7756406
11
204.5245499
21
-69.5756406
0
LINE
8
0
10
204.67096
20
-69.0292305
11
203.47096
21
-66.9507695
0
LINE
8
0
10
202.9245499
20
-66.8043594
11
200.8460889
21
-68.0043594
0
ARC
8
0
10
202.2460889
20
-70.4292305
40
0.4
50
210
51
300
0
ARC
8
0
10
204.3245499
20
-69.2292305
40
0.4
50
300
51
30
0
ARC
8
0
10
203.1245499
20
-67.1507695
40
0.4
50
30
51
120
0
ARC
8
0
10
201.0460889
20
-68.3507695
40
0.4
50
120
51
210
0
LINE
8
0
10
212.6496788
20
-90.2707695
11
211.4496788
21
-92.3492305
0
LINE
8
0
10
211.5960889
20
-92.8956406
11
213.6745499
21
-94.0956406
0
LINE
8
0
10
214.22096
20
-93.9492305
11
215.42096
21
-91.8707695
0
LINE
8
0
10
215.2745499
20
-91.3243594
11
213.1960889
21
-90.1243594
0
ARC
8
0
10
211.7960889
20
-92.5492305
40
0.4
50
150
51
240
0
ARC
8
0
10
213.8745499
20
-93.7492305
40
0.4
50
240
51
330
0
ARC
8
0
10
215.0745499
20
-91.6707695
40
0.4
50
330
51
60
0
ARC
8
0
10
212.9960889
20
-90.4707695
40
0.4
50
60
51
150
0
LINE
8
0
10
169.6496788
20
-90.2707695
11
168.4496788
21
-92.3492305
0
LINE
8
0
10
168.5960889
20
-92.8956406
11
170.6745499
21
-94.0956406
0
LINE
8
0
10
171.22096
20
-93.9492305
11
172.42096
21
-91.8707695
0
LINE
8
0
10
172.2745499
20
-91.3243594
11
170.1960889
21
-90.1243594
0
ARC
8
0
10
168.7960889
20
-92.5492305
40
0.4
50
150
51
240
0
ARC
8
0
10
170.8745499
20
-93.7492305
40
0.4
50
240
51
330
0
ARC
8
0
10
172.0745499
20
-91.6707695
40
0.4
50
330
51
60
0
ARC
8
0
10
169.9960889
20
-90.4707695
40
0.4
50
60
51
150
0
LINE
8
0
10
191.1496788
20
-90.2707695
11
189.9496788
21
-92.3492305
0
LINE
8
0
10
190.0960889
20
-92.8956406
11
192.1745499
21
-94.0956406
0
LINE
8
0
10
192.72096
20
-93.9492305
11
193.92096
21
-91.8707695
0
LINE
8
0
10
193.7745499
20
-91.3243594
11
191.6960889
21
-90.1243594
0
ARC
8
0
10
190.2960889
20
-92.5492305
40
0.4
50
150
51
240
0
ARC
8
0
10
192.3745499
20
-93.7492305
40
0.4
50
240
51
330
0
ARC
8
0
10
193.5745499
20
-91.6707695
40
0.4
50
330
51
60
0
ARC
8
0
10
191.4960889
20
-90.4707695
40
0.4
50
60
51
150
0
LINE
8
0
10
199.815
20
-111.48
11
197.415
21
-111.48
0
LINE
8
0
10
197.015
20
-111.88
11
197.015
21
-114.28
0
LINE
8
0
10
197.415
20
-114.68
11
199.815
21
-114.68
0
LINE
8
0
10
200.215
20
-114.28
11
200.215
21
-111.88
0
ARC
8
0
10
197.415
20
-111.88
40
0.4
50
90
51
180
0
ARC
8
0
10
197.415
20
-114.28
40
0.4
50
180
51
270
0
ARC
8
0
10
199.815
20
-114.28
40
0.4
50
270
51
0
0
ARC
8
0
10
199.815
20
-111.88
40
0.4
50
0
51
90
0
LINE
8
0
10
156.815
20
-111.48
11
154.415
21
-111.48
0
LINE
8
0
10
154.015
20
-111.88
11
154.015
21
-114.28
0
LINE
8
0
10
154.415
20
-114.68
11
156.815
21
-114.68
0
LINE
8
0
10
157.215
20
-114.28
11
157.215
21
-111.88
0
ARC
8
0
10
154.415
20
-111.88
40
0.4
50
90
51
180
0
ARC
8
0
10
154.415
20
-114.28
40
0.4
50
180
51
270
0
ARC
8
0
10
156.815
20
-114.28
40
0.4
50
270
51
0
0
ARC
8
0
10
156.815
20
-111.88
40
0.4
50
0
51
90
0
LINE
8
0
10
178.315
20
-111.48
11
175.915
21
-111.48
0
LINE
8
0
10
175.515
20
-111.88
11
175.515
21
-114.28
0
LINE
8
0
10
175.915
20
-114.68
11
178.315
21
-114.68
0
LINE
8
0
10
178.715
20
-114.28
11
178.715
21
-111.88
0
ARC
8
0
10
175.915
20
-111.88
40
0.4
50
90
51
180
0
ARC
8
0
10
175.915
20
-114.28
40
0.4
50
180
51
270
0
ARC
8
0
10
178.315
20
-114.28
40
0.4
50
270
51
0
0
ARC
8
0
10
178.315
20
-111.88
40
0.4
50
0
51
90
0
LINE
8
0
10
189.065
20
-130.1
11
186.665
21
-130.1
0
LINE
8
0
10
186.265
20
-130.5
11
186.265
21
-132.9
0
LINE
8
0
10
186.665
20
-133.3
11
189.065
21
-133.3
0
LINE
8
0
10
189.465
20
-132.9
11
189.465
21
-130.5
0
ARC
8
0
10
186.665
20
-130.5
40
0.4
50
90
51
180
0
ARC
8
0
10
186.665
20
-132.9
40
0.4
50
180
51
270
0
ARC
8
0
10
189.065
20
-132.9
40
0.4
50
270
51
0
0
ARC
8
0
10
189.065
20
-130.5
40
0.4
50
0
51
90
0
LINE
8
0
10
229.665
20
-164.915869
11
232.065
21
-164.915869
0
LINE
8
0
10
232.465
20
-164.515869
11
232.465
21
-162.115869
0
LINE
8
0
10
232.065
20
-161.715869
11
229.665
21
-161.715869
0
LINE
8
0
10
229.265
20
-162.115869
11
229.265
21
-164.515869
0
ARC
8
0
10
232.065
20
-164.515869
40
0.4
50
270
51
0
0
ARC
8
0
10
232.065
20
-162.115869
40
0.4
50
0
51
90
0
ARC
8
0
10
229.665
20
-162.115869
40
0.4
50
90
51
180
0
ARC
8
0
10
229.665
20
-164.515869
40
0.4
50
180
51
270
0
LINE
8
0
10
351.185
20
-68.04
11
353.585
21
-68.04
0
LINE
8
0
10
353.985
20
-67.64
11
353.985
21
-65.24
0
LINE
8
0
10
353.585
20
-64.84
11
351.185
21
-64.84
0
LINE
8
0
10
350.785
20
-65.24
11
350.785
21
-67.64
0
ARC
8
0
10
353.585
20
-67.64
40
0.4
50
270
51
0
0
ARC
8
0
10
353.585
20
-65.24
40
0.4
50
0
51
90
0
ARC
8
0
10
351.185
20
-65.24
40
0.4
50
90
51
180
0
ARC
8
0
10
351.185
20
-67.64
40
0.4
50
180
51
270
0
LINE
8
0
10
327.6003212
20
-70.6292305
11
328.8003212
21
-68.5507695
0
LINE
8
0
10
328.6539111
20
-68.0043594
11
326.5754501
21
-66.8043594
0
LINE
8
0
10
326.02904
20
-66.9507695
11
324.82904
21
-69.0292305
0
LINE
8
0
10
324.9754501
20
-69.5756406
11
327.0539111
21
-70.7756406
0
ARC
8
0
10
328.4539111
20
-68.3507695
40
0.4
50
330
51
60
0
ARC
8
0
10
326.3754501
20
-67.1507695
40
0.4
50
60
51
150
0
ARC
8
0
10
325.1754501
20
-69.2292305
40
0.4
50
150
51
240
0
ARC
8
0
10
327.2539111
20
-70.4292305
40
0.4
50
240
51
330
0
LINE
8
0
10
284.6003212
20
-70.6292305
11
285.8003212
21
-68.5507695
0
LINE
8
0
10
285.6539111
20
-68.0043594
11
283.5754501
21
-66.8043594
0
LINE
8
0
10
283.02904
20
-66.9507695
11
281.82904
21
-69.0292305
0
LINE
8
0
10
281.9754501
20
-69.5756406
11
284.0539111
21
-70.7756406
0
ARC
8
0
10
285.4539111
20
-68.3507695
40
0.4
50
330
51
60
0
ARC
8
0
10
283.3754501
20
-67.1507695
40
0.4
50
60
51
150
0
ARC
8
0
10
282.1754501
20
-69.2292305
40
0.4
50
150
51
240
0
ARC
8
0
10
284.2539111
20
-70.4292305
40
0.4
50
240
51
330
0
LINE
8
0
10
366.4196788
20
-90.2707695
11
365.2196788
21
-92.3492305
0
LINE
8
0
10
365.3660889
20
-92.8956406
11
367.4445499
21
-94.0956406
0
LINE
8
0
10
367.99096
20
-93.9492305
11
369.19096
21
-91.8707695
0
LINE
8
0
10
369.0445499
20
-91.3243594
11
366.9660889
21
-90.1243594
0
ARC
8
0
10
365.5660889
20
-92.5492305
40
0.4
50
150
51
240
0
ARC
8
0
10
367.6445499
20
-93.7492305
40
0.4
50
240
51
330
0
ARC
8
0
10
368.8445499
20
-91.6707695
40
0.4
50
330
51
60
0
ARC
8
0
10
366.7660889
20
-90.4707695
40
0.4
50
60
51
150
0
LINE
8
0
10
306.1003212
20
-70.6292305
11
307.3003212
21
-68.5507695
0
LINE
8
0
10
307.1539111
20
-68.0043594
11
305.0754501
21
-66.8043594
0
LINE
8
0
10
304.52904
20
-66.9507695
11
303.32904
21
-69.0292305
0
LINE
8
0
10
303.4754501
20
-69.5756406
11
305.5539111
21
-70.7756406
0
ARC
8
0
10
306.9539111
20
-68.3507695
40
0.4
50
330
51
60
0
ARC
8
0
10
304.8754501
20
-67.1507695
40
0.4
50
60
51
150
0
ARC
8
0
10
303.6754501
20
-69.2292305
40
0.4
50
150
51
240
0
ARC
8
0
10
305.7539111
20
-70.4292305
40
0.4
50
240
51
330
0
LINE
8
0
10
296.5503212
20
-92.3492305
11
295.3503212
21
-90.2707695
0
LINE
8
0
10
294.8039111
20
-90.1243594
11
292.7254501
21
-91.3243594
0
LINE
8
0
10
292.57904
20
-91.8707695
11
293.77904
21
-93.9492305
0
LINE
8
0
10
294.3254501
20
-94.0956406
11
296.4039111
21
-92.8956406
0
ARC
8
0
10
295.0039111
20
-90.4707695
40
0.4
50
30
51
120
0
ARC
8
0
10
292.9254501
20
-91.6707695
40
0.4
50
120
51
210
0
ARC
8
0
10
294.1254501
20
-93.7492305
40
0.4
50
210
51
300
0
ARC
8
0
10
296.2039111
20
-92.5492305
40
0.4
50
300
51
30
0
LINE
8
0
10
339.5503212
20
-92.3492305
11
338.3503212
21
-90.2707695
0
LINE
8
0
10
337.8039111
20
-90.1243594
11
335.7254501
21
-91.3243594
0
LINE
8
0
10
335.57904
20
-91.8707695
11
336.77904
21
-93.9492305
0
LINE
8
0
10
337.3254501
20
-94.0956406
11
339.4039111
21
-92.8956406
0
ARC
8
0
10
338.0039111
20
-90.4707695
40
0.4
50
30
51
120
0
ARC
8
0
10
335.9254501
20
-91.6707695
40
0.4
50
120
51
210
0
ARC
8
0
10
337.1254501
20
-93.7492305
40
0.4
50
210
51
300
0
ARC
8
0
10
339.2039111
20
-92.5492305
40
0.4
50
300
51
30
0
LINE
8
0
10
318.0503212
20
-92.3492305
11
316.8503212
21
-90.2707695
0
LINE
8
0
10
316.3039111
20
-90.1243594
11
314.2254501
21
-91.3243594
0
LINE
8
0
10
314.07904
20
-91.8707695
11
315.27904
21
-93.9492305
0
LINE
8
0
10
315.8254501
20
-94.0956406
11
317.9039111
21
-92.8956406
0
ARC
8
0
10
316.5039111
20
-90.4707695
40
0.4
50
30
51
120
0
ARC
8
0
10
314.4254501
20
-91.6707695
40
0.4
50
120
51
210
0
ARC
8
0
10
315.6254501
20
-93.7492305
40
0.4
50
210
51
300
0
ARC
8
0
10
317.7039111
20
-92.5492305
40
0.4
50
300
51
30
0
LINE
8
0
10
310.585
20
-111.48
11
308.185
21
-111.48
0
LINE
8
0
10
307.785
20
-111.88
11
307.785
21
-114.28
0
LINE
8
0
10
308.185
20
-114.68
11
310.585
21
-114.68
0
LINE
8
0
10
310.985
20
-114.28
11
310.985
21
-111.88
0
ARC
8
0
10
308.185
20
-111.88
40
0.4
50
90
51
180
0
ARC
8
0
10
308.185
20
-114.28
40
0.4
50
180
51
270
0
ARC
8
0
10
310.585
20
-114.28
40
0.4
50
270
51
0
0
ARC
8
0
10
310.585
20
-111.88
40
0.4
50
0
51
90
0
LINE
8
0
10
353.585
20
-111.48
11
351.185
21
-111.48
0
LINE
8
0
10
350.785
20
-111.88
11
350.785
21
-114.28
0
LINE
8
0
10
351.185
20
-114.68
11
353.585
21
-114.68
0
LINE
8
0
10
353.985
20
-114.28
11
353.985
21
-111.88
0
ARC
8
0
10
351.185
20
-111.88
40
0.4
50
90
51
180
0
ARC
8
0
10
351.185
20
-114.28
40
0.4
50
180
51
270
0
ARC
8
0
10
353.585
20
-114.28
40
0.4
50
270
51
0
0
ARC
8
0
10
353.585
20
-111.88
40
0.4
50
0
51
90
0
LINE
8
0
10
332.085
20
-111.48
11
329.685
21
-111.48
0
LINE
8
0
10
329.285
20
-111.88
11
329.285
21
-114.28
0
LINE
8
0
10
329.685
20
-114.68
11
332.085
21
-114.68
0
LINE
8
0
10
332.485
20
-114.28
11
332.485
21
-111.88
0
ARC
8
0
10
329.685
20
-111.88
40
0.4
50
90
51
180
0
ARC
8
0
10
329.685
20
-114.28
40
0.4
50
180
51
270
0
ARC
8
0
10
332.085
20
-114.28
40
0.4
50
270
51
0
0
ARC
8
0
10
332.085
20
-111.88
40
0.4
50
0
51
90
0
LINE
8
0
10
321.335
20
-130.1
11
318.935
21
-130.1
0
LINE
8
0
10
318.535
20
-130.5
11
318.535
21
-132.9
0
LINE
8
0
10
318.935
20
-133.3
11
321.335
21
-133.3
0
LINE
8
0
10
321.735
20
-132.9
11
321.735
21
-130.5
0
ARC
8
0
10
318.935
20
-130.5
40
0.4
50
90
51
180
0
ARC
8
0
10
318.935
20
-132.9
40
0.4
50
180
51
270
0
ARC
8
0
10
321.335
20
-132.9
40
0.4
50
270
51
0
0
ARC
8
0
10
321.335
20
-130.5
40
0.4
50
0
51
90
0
LINE
8
0
10
275.935
20
-164.915869
11
278.335
21
-164.915869
0
LINE
8
0
10
278.735
20
-164.515869
11
278.735
21
-162.115869
0
LINE
8
0
10
278.335
20
-161.715869
11
275.935
21
-161.715869
0
LINE
8
0
10
275.535
20
-162.115869
11
275.535
21
-164.515869
0
ARC
8
0
10
278.335
20
-164.515869
40
0.4
50
270
51
0
0
ARC
8
0
10
278.335
20
-162.115869
40
0.4
50
0
51
90
0
ARC
8
0
10
275.935
20
-162.115869
40
0.4
50
90
51
180
0
ARC
8
0
10
275.935
20
-164.515869
40
0.4
50
180
51
270
0
ENDSEC
0
EOF