0
SECTION
2
HEADER
9
$INSUNITS
70
4
0
ENDSEC
0
SECTION
2
TABLES
0
TABLE
2
LTYPE
0
LTYPE
72
65
70
64
2
CONTINUOUS
3
______
73
0
40
0
0
ENDTAB
0
TABLE
2
LAYER
0
ENDTAB
0
ENDSEC
0
SECTION
2
ENTITIES
0
LINE
8
0
10
239.7100301
20
-175.0885807
11
232.6350291
21
-179.1734273
0
LINE
8
0
10
229.3649715
20
-179.1734261
11
221.8849702
21
-174.8547402
0
LINE
8
0
10
197.1149702
20
-160.5534255
11
189.6349702
21
-156.2347402
0
LINE
8
0
10
188
20
-153.4028543
11
188
21
-141.3012457
0
LINE
8
0
10
186.3650298
20
-138.4693598
11
178.8849702
21
-134.1506402
0
LINE
8
0
10
154.1149702
20
-119.8493255
11
146.6349702
21
-115.5306402
0
LINE
8
0
10
134.25
20
-94.0787543
11
134.25
21
-85.4412458
0
LINE
8
0
10
146.6349702
20
-63.9893599
11
154.1149702
21
-59.6706746
0
LINE
8
0
10
178.8850298
20
-59.6706746
11
186.3649702
21
-63.9893254
0
LINE
8
0
10
189.6350298
20
-63.9893254
11
197.1149702
21
-59.6706746
0
LINE
8
0
10
221.8850284
20
-59.6706702
11
223.3131607
21
-60.4952198
0
LINE
8
0
10
284.6868393
20
-60.4952198
11
286.1149716
21
-59.6706702
0
LINE
8
0
10
310.8850298
20
-59.6706746
11
318.3649702
21
-63.9893254
0
LINE
8
0
10
321.6350298
20
-63.9893254
11
329.1149702
21
-59.6706746
0
LINE
8
0
10
353.8850298
20
-59.6706746
11
361.3650298
21
-63.9893599
0
LINE
8
0
10
373.75
20
-85.4412458
11
373.75
21
-94.0787543
0
LINE
8
0
10
361.3650298
20
-115.5306402
11
353.8850298
21
-119.8493255
0
LINE
8
0
10
329.1150298
20
-134.1506402
11
321.6349702
21
-138.4693598
0
LINE
8
0
10
320
20
-141.3012457
11
320
21
-153.4028543
0
LINE
8
0
10
318.3650298
20
-156.2347402
11
310.8850298
21
-160.5534255
0
LINE
8
0
10
286.1150298
20
-174.8547402
11
278.6350285
21
-179.1734261
0
LINE
8
0
10
275.3649709
20
-179.1734273
11
268.2899699
21
-175.0885807
0
LINE
8
0
10
283.0518104
20
-60.9333333
11
277.27
21
-60.9333333
0
LINE
8
0
10
230.73
20
-60.9333333
11
224.9481896
21
-60.9333333
0
ARC
8
0
10
231.0000013
20
-176.3415403
40
3.27
50
239.9993965
51
300.0005622
0
ARC
8
0
10
191.27
20
-153.4028543
40
3.27
50
180
51
239.9993965
0
ARC
8
0
10
184.73
20
-141.3012457
40
3.27
50
0
51
59.9993965
0
ARC
8
0
10
188
20
-61.1574395
40
3.27
50
239.9993965
51
300.0006035
0
ARC
8
0
10
224.9481896
20
-57.6633333
40
3.27
50
239.9994171
51
270
0
ARC
8
0
10
283.0518104
20
-57.6633333
40
3.27
50
270
51
300.0005829
0
ARC
8
0
10
320
20
-61.1574395
40
3.27
50
239.9993965
51
300.0006035
0
ARC
8
0
10
323.27
20
-141.3012457
40
3.27
50
120.0006035
51
180
0
ARC
8
0
10
316.73
20
-153.4028543
40
3.27
50
300.0006035
51
0
0
ARC
8
0
10
276.9999987
20
-176.3415403
40
3.27
50
239.9994378
51
300.0006035
0
LINE
8
0
10
145
20
-66.8212458
11
145
21
-75.4587543
0
LINE
8
0
10
143.3650298
20
-78.2906402
11
135.8849702
21
-82.6093599
0
LINE
8
0
10
164.8649702
20
-63.9893255
11
157.3850298
21
-59.6706746
0
LINE
8
0
10
175.6149702
20
-59.6706746
11
168.1350298
21
-63.9893255
0
LINE
8
0
10
207.8649702
20
-63.9893255
11
200.3850298
21
-59.6706746
0
LINE
8
0
10
218.6149733
20
-59.6706728
11
211.1350298
21
-63.9893255
0
LINE
8
0
10
372.1150298
20
-82.6093599
11
364.6349702
21
-78.2906402
0
LINE
8
0
10
363
20
-75.4587543
11
363
21
-66.8212458
0
LINE
8
0
10
339.8649702
20
-63.9893255
11
332.3850298
21
-59.6706746
0
LINE
8
0
10
350.6149702
20
-59.6706746
11
343.1350298
21
-63.9893255
0
LINE
8
0
10
296.8649702
20
-63.9893255
11
289.3850267
21
-59.6706728
0
LINE
8
0
10
307.6149702
20
-59.6706746
11
300.1350298
21
-63.9893255
0
LINE
8
0
10
135.8849702
20
-96.9106402
11
143.3650298
21
-101.2293599
0
LINE
8
0
10
145
20
-104.0612458
11
145
21
-112.6987543
0
LINE
8
0
10
157.3850298
20
-119.8493255
11
164.8649702
21
-115.5306746
0
LINE
8
0
10
168.1350298
20
-115.5306746
11
175.6150298
21
-119.8493599
0
LINE
8
0
10
177.25
20
-122.6812458
11
177.25
21
-131.3187543
0
LINE
8
0
10
200.3850298
20
-160.5534255
11
207.8649702
21
-156.2347746
0
LINE
8
0
10
211.1350298
20
-156.2347746
11
218.6150298
21
-160.5534599
0
LINE
8
0
10
220.25
20
-163.3853458
11
220.25
21
-172.0228543
0
LINE
8
0
10
363
20
-112.6987543
11
363
21
-104.0612458
0
LINE
8
0
10
364.6349702
20
-101.2293599
11
372.1150298
21
-96.9106402
0
LINE
8
0
10
330.75
20
-131.3187543
11
330.75
21
-122.6812458
0
LINE
8
0
10
332.3849702
20
-119.8493599
11
339.8649702
21
-115.5306746
0
LINE
8
0
10
343.1350298
20
-115.5306746
11
350.6149702
21
-119.8493255
0
LINE
8
0
10
287.75
20
-172.0228543
11
287.75
21
-163.3853458
0
LINE
8
0
10
289.3849702
20
-160.5534599
11
296.8649702
21
-156.2347746
0
LINE
8
0
10
300.1350298
20
-156.2347746
11
307.6149702
21
-160.5534255
0
ARC
8
0
10
223.52
20
-172.0228543
40
3.27
50
180
51
239.9993965
0
ARC
8
0
10
216.98
20
-163.3853458
40
3.27
50
0
51
59.9993965
0
ARC
8
0
10
209.5
20
-159.0666605
40
3.27
50
59.9993965
51
120.0006035
0
ARC
8
0
10
198.75
20
-157.7215396
40
3.27
50
239.9993965
51
300.0006035
0
ARC
8
0
10
180.52
20
-131.3187543
40
3.27
50
180
51
239.9993965
0
ARC
8
0
10
173.98
20
-122.6812458
40
3.27
50
0
51
59.9993965
0
ARC
8
0
10
166.5
20
-118.3625605
40
3.27
50
59.9993965
51
120.0006035
0
ARC
8
0
10
155.75
20
-117.0174396
40
3.27
50
239.9993965
51
300.0006035
0
ARC
8
0
10
148.27
20
-112.6987543
40
3.27
50
180
51
239.9993965
0
ARC
8
0
10
141.73
20
-104.0612458
40
3.27
50
0
51
59.9993965
0
ARC
8
0
10
137.52
20
-94.0787543
40
3.27
50
180
51
239.9993965
0
ARC
8
0
10
137.52
20
-85.4412458
40
3.27
50
120.0006035
51
180
0
ARC
8
0
10
141.73
20
-75.4587543
40
3.27
50
300.0006035
51
0
0
ARC
8
0
10
148.27
20
-66.8212458
40
3.27
50
120.0006035
51
180
0
ARC
8
0
10
155.75
20
-62.5025605
40
3.27
50
59.9993965
51
120.0006035
0
ARC
8
0
10
166.5
20
-61.1574396
40
3.27
50
239.9993965
51
300.0006035
0
ARC
8
0
10
177.25
20
-62.5025605
40
3.27
50
59.9993965
51
120.0006035
0
ARC
8
0
10
198.75
20
-62.5025605
40
3.27
50
59.9993965
51
120.0006035
0
ARC
8
0
10
209.5
20
-61.1574396
40
3.27
50
239.9993965
51
300.0006035
0
ARC
8
0
10
220.2500031
20
-62.5025587
40
3.27
50
59.9994889
51
120.0006035
0
ARC
8
0
10
287.7499969
20
-62.5025587
40
3.27
50
59.9993965
51
120.0005111
0
ARC
8
0
10
298.5
20
-61.1574396
40
3.27
50
239.9993965
51
300.0006035
0
ARC
8
0
10
309.25
20
-62.5025605
40
3.27
50
59.9993965
51
120.0006035
0
ARC
8
0
10
330.75
20
-62.5025605
40
3.27
50
59.9993965
51
120.0006035
0
ARC
8
0
10
341.5
20
-61.1574396
40
3.27
50
239.9993965
51
300.0006035
0
ARC
8
0
10
352.25
20
-62.5025605
40
3.27
50
59.9993965
51
120.0006035
0
ARC
8
0
10
359.73
20
-66.8212458
40
3.27
50
0
51
59.9993965
0
ARC
8
0
10
366.27
20
-75.4587543
40
3.27
50
180
51
239.9993965
0
ARC
8
0
10
370.48
20
-85.4412458
40
3.27
50
0
51
59.9993965
0
ARC
8
0
10
370.48
20
-94.0787543
40
3.27
50
300.0006035
51
0
0
ARC
8
0
10
366.27
20
-104.0612458
40
3.27
50
120.0006035
51
180
0
ARC
8
0
10
359.73
20
-112.6987543
40
3.27
50
300.0006035
51
0
0
ARC
8
0
10
352.25
20
-117.0174396
40
3.27
50
239.9993965
51
300.0006035
0
ARC
8
0
10
341.5
20
-118.3625605
40
3.27
50
59.9993965
51
120.0006035
0
ARC
8
0
10
334.02
20
-122.6812458
40
3.27
50
120.0006035
51
180
0
ARC
8
0
10
327.48
20
-131.3187543
40
3.27
50
300.0006035
51
0
0
ARC
8
0
10
309.25
20
-157.7215396
40
3.27
50
239.9993965
51
300.0006035
0
ARC
8
0
10
298.5
20
-159.0666605
40
3.27
50
59.9993965
51
120.0006035
0
ARC
8
0
10
291.02
20
-163.3853458
40
3.27
50
120.0006035
51
180
0
ARC
8
0
10
284.48
20
-172.0228543
40
3.27
50
300.0006035
51
0
0
LINE
8
0
10
241.48
20
-172.0228681
11
241.48
21
-163.6971129
0
LINE
8
0
10
239.7100323
20
-160.6314016
11
237.8749677
21
-159.5719007
0
LINE
8
0
10
236.105
20
-156.5061894
11
236.105
21
-152.653219
0
LINE
8
0
10
236.105
20
-149.2883144
11
236.105
21
-147.573219
0
LINE
8
0
10
236.105
20
-144.2083144
11
236.105
21
-142.493219
0
LINE
8
0
10
234.3350323
20
-138.9080683
11
232.4999677
21
-137.8485674
0
LINE
8
0
10
230.73
20
-134.7828561
11
230.73
21
-128.8879125
0
LINE
8
0
10
232.4999702
20
-125.8221998
11
250.5
21
-115.4296441
0
LINE
8
0
10
257.5
20
-115.4296441
11
275.5000298
21
-125.8221998
0
LINE
8
0
10
277.27
20
-128.8879125
11
277.27
21
-134.7828561
0
LINE
8
0
10
275.5000323
20
-137.8485674
11
273.6649677
21
-138.9080683
0
LINE
8
0
10
271.895
20
-152.653219
11
271.895
21
-156.5061894
0
LINE
8
0
10
271.895
20
-147.573219
11
271.895
21
-149.2883144
0
LINE
8
0
10
271.895
20
-142.493219
11
271.895
21
-144.2083144
0
LINE
8
0
10
270.1250323
20
-159.5719007
11
268.2899677
21
-160.6314016
0
LINE
8
0
10
266.52
20
-163.6971129
11
266.52
21
-172.0228681
0
ARC
8
0
10
237.94
20
-163.6971129
40
3.54
50
0
51
59.9993965
0
ARC
8
0
10
239.645
20
-156.5061894
40
3.54
50
180
51
239.9993965
0
ARC
8
0
10
232.565
20
-141.9737796
40
3.54
50
35.7719796
51
59.9993965
0
ARC
8
0
10
234.27
20
-134.7828561
40
3.54
50
180
51
239.9993965
0
ARC
8
0
10
234.27
20
-128.8879125
40
3.54
50
120.0005573
51
180
0
ARC
8
0
10
273.73
20
-128.8879125
40
3.54
50
0
51
59.9994427
0
ARC
8
0
10
273.73
20
-134.7828561
40
3.54
50
300.0006035
51
0
0
ARC
8
0
10
275.435
20
-141.9737796
40
3.54
50
120.0006035
51
144.2280204
0
ARC
8
0
10
268.355
20
-156.5061894
40
3.54
50
300.0006035
51
0
0
ARC
8
0
10
270.06
20
-163.6971129
40
3.54
50
120.0006035
51
180
0
ARC
8
0
10
270.06
20
-172.0228681
40
3.54
50
180
51
239.9994378
0
ARC
8
0
10
237.94
20
-172.0228681
40
3.54
50
300.0005622
51
0
0
LINE
8
0
10
233.73
20
-66.9333333
11
244.57
21
-66.9333333
0
LINE
8
0
10
263.43
20
-66.9333333
11
274.27
21
-66.9333333
0
LINE
8
0
10
277.27
20
-63.9333333
11
277.27
21
-60.9333333
0
LINE
8
0
10
230.73
20
-60.9333333
11
230.73
21
-63.9333333
0
ARC
8
0
10
274.27
20
-63.9333333
40
3
50
270
51
0
0
ARC
8
0
10
233.73
20
-63.9333333
40
3
50
180
51
270
0
LINE
8
0
10
234.5
20
-112.9833333
11
239.5
21
-112.9833333
0
LINE
8
0
10
240.5
20
-111.9833333
11
240.5
21
-105.8733333
0
LINE
8
0
10
233.5
20
-111.9833333
11
233.5
21
-105.8733333
0
ARC
8
0
10
239.5
20
-111.9833333
40
1
50
270
51
0
0
ARC
8
0
10
234.5
20
-111.9833333
40
1
50
180
51
270
0
LINE
8
0
10
287.6276952
20
-132.1681618
11
299.7520508
21
-125.1681618
0
LINE
8
0
10
299.9497045
20
-124.4305081
11
279.9497045
21
-89.7894919
0
LINE
8
0
10
279.2120508
20
-89.5918382
11
267.0876952
21
-96.5918382
0
LINE
8
0
10
266.8900415
20
-97.3294919
11
286.8900415
21
-131.9705081
0
ARC
8
0
10
299.4820508
20
-124.7005081
40
0.54
50
300
51
30
0
ARC
8
0
10
279.4820508
20
-90.0594919
40
0.54
50
30
51
120
0
ARC
8
0
10
267.3576952
20
-97.0594919
40
0.54
50
120
51
210
0
ARC
8
0
10
287.3576952
20
-131.7005081
40
0.54
50
210
51
300
0
LINE
8
0
10
153.3635701
20
-111.95
11
152.05
21
-111.95
0
ARC
8
0
10
151.0685255
20
-111.7584071
40
1
50
259.8073433
51
348.9542416
0
ARC
8
0
10
150.75
20
-113.53
40
0.8
50
79.8073425
51
285.9082215
0
ARC
8
0
10
151.243375
20
-115.2610636
40
1
50
36.2325194
51
105.9082203
0
LINE
8
0
10
152.05
20
-114.67
11
153.3635701
21
-114.67
0
ARC
8
0
10
153.3635701
20
-115.67
40
1
50
54.0959303
51
90
0
LINE
8
0
10
153.95
20
-114.86
11
157.55
21
-114.86
0
ARC
8
0
10
158.1364299
20
-115.67
40
1
50
90
51
125.9040697
0
LINE
8
0
10
158.1364299
20
-114.67
11
159.45
21
-114.67
0
LINE
8
0
10
159.45
20
-114.67
11
159.45
21
-111.95
0
LINE
8
0
10
159.45
20
-111.95
11
158.1364299
21
-111.95
0
ARC
8
0
10
158.1364299
20
-110.95
40
1
50
234.0959303
51
270
0
ARC
8
0
10
158.1305237
20
-110.9457566
40
1
50
132.855336
51
234.5126163
0
ARC
8
0
10
155.75
20
-108.38
40
2.5
50
312.8553366
51
6.1506399
0
ARC
8
0
10
159.2298527
20
-108.005
40
1
50
90
51
186.1506399
0
LINE
8
0
10
159.3363974
20
-107.005
11
159.2298527
21
-107.005
0
ARC
8
0
10
159.3363974
20
-108.005
40
1
50
348.9125106
51
90
0
ARC
8
0
10
161.25
20
-108.38
40
0.95
50
168.9125107
51
11.0871451
0
ARC
8
0
10
163.1634816
20
-108.0043828
40
1
50
91.8376761
51
191.10597
0
ARC
8
0
10
163.125
20
-106.805
40
0.2
50
271.8376714
51
351.6144613
0
ARC
8
0
10
164.312171
20
-106.98
40
1
50
90
51
171.6144613
0
LINE
8
0
10
164.312171
20
-105.98
11
165.625
21
-105.98
0
LINE
8
0
10
165.625
20
-105.98
11
165.625
21
-103.38
0
LINE
8
0
10
165.625
20
-103.38
11
163.8496153
21
-103.38
0
ARC
8
0
10
163.8496153
20
-102.38
40
1
50
205.5028213
51
270
0
ARC
8
0
10
162.225
20
-103.155
40
0.8
50
25.5028228
51
90
0
LINE
8
0
10
159.35
20
-102.355
11
162.225
21
-102.355
0
ARC
8
0
10
159.35
20
-101.255
40
1.1
50
180
51
270
0
LINE
8
0
10
158.25
20
-101.0049727
11
158.25
21
-101.255
0
LINE
8
0
10
157.4000273
20
-100.155
11
158.25
21
-101.0049727
0
LINE
8
0
10
157.4000273
20
-100.155
11
154.3249727
21
-100.155
0
LINE
8
0
10
153.5928659
20
-100.8871068
11
154.3249727
21
-100.155
0
ARC
8
0
10
152.8857591
20
-100.18
40
1
50
270
51
315
0
LINE
8
0
10
152.8857591
20
-101.18
11
150.875
21
-101.18
0
ARC
8
0
10
149.886314
20
-101.03
40
1
50
270
51
351.3730735
0
LINE
8
0
10
149.886314
20
-102.03
11
148.65
21
-102.03
0
LINE
8
0
10
148.65
20
-102.03
11
148.65
21
-106.53
0
ARC
8
0
10
148.5004951
20
-107.518761
40
1
50
333.7900921
51
81.4017642
0
ARC
8
0
10
150.25
20
-108.38
40
0.95
50
153.7900908
51
53.5189398
0
ARC
8
0
10
151.4093862
20
-106.8120958
40
1
50
163.6146708
51
233.5189398
0
LINE
8
0
10
150.45
20
-106.53
11
150.45
21
-104.78
0
ARC
8
0
10
151.45
20
-104.78
40
1
50
90
51
180
0
LINE
8
0
10
151.45
20
-103.78
11
152.8857591
21
-103.78
0
ARC
8
0
10
152.8857591
20
-104.78
40
1
50
45
51
90
0
LINE
8
0
10
154.3249727
20
-104.805
11
153.5928659
21
-104.0728932
0
ARC
8
0
10
153.6727836
20
-105.5630563
40
1
50
306.4050931
51
49.2931447
0
ARC
8
0
10
155.75
20
-108.38
40
2.5
50
126.4050912
51
227.1446634
0
ARC
8
0
10
153.3694763
20
-110.9457566
40
1
50
305.4873837
51
47.144664
0
ARC
8
0
10
153.3635701
20
-110.95
40
1
50
270
51
305.9040697
0
LINE
8
0
10
174.8635701
20
-111.95
11
173.55
21
-111.95
0
ARC
8
0
10
172.5685255
20
-111.7584071
40
1
50
259.8073433
51
348.9542416
0
ARC
8
0
10
172.25
20
-113.53
40
0.8
50
79.8073425
51
285.9082215
0
ARC
8
0
10
172.743375
20
-115.2610636
40
1
50
36.2325194
51
105.9082203
0
LINE
8
0
10
173.55
20
-114.67
11
174.8635701
21
-114.67
0
ARC
8
0
10
174.8635701
20
-115.67
40
1
50
54.0959303
51
90
0
LINE
8
0
10
175.45
20
-114.86
11
179.05
21
-114.86
0
ARC
8
0
10
179.6364299
20
-115.67
40
1
50
90
51
125.9040697
0
LINE
8
0
10
179.6364299
20
-114.67
11
180.95
21
-114.67
0
LINE
8
0
10
180.95
20
-114.67
11
180.95
21
-111.95
0
LINE
8
0
10
180.95
20
-111.95
11
179.6364299
21
-111.95
0
ARC
8
0
10
179.6364299
20
-110.95
40
1
50
234.0959303
51
270
0
ARC
8
0
10
179.6305237
20
-110.9457566
40
1
50
132.855336
51
234.5126163
0
ARC
8
0
10
177.25
20
-108.38
40
2.5
50
312.8553366
51
6.1506399
0
ARC
8
0
10
180.7298527
20
-108.005
40
1
50
90
51
186.1506399
0
LINE
8
0
10
180.8363974
20
-107.005
11
180.7298527
21
-107.005
0
ARC
8
0
10
180.8363974
20
-108.005
40
1
50
348.9125106
51
90
0
ARC
8
0
10
182.75
20
-108.38
40
0.95
50
168.9125107
51
11.0871451
0
ARC
8
0
10
184.6634816
20
-108.0043828
40
1
50
91.8376761
51
191.10597
0
ARC
8
0
10
184.625
20
-106.805
40
0.2
50
271.8376714
51
351.6144613
0
ARC
8
0
10
185.812171
20
-106.98
40
1
50
90
51
171.6144613
0
LINE
8
0
10
185.812171
20
-105.98
11
187.125
21
-105.98
0
LINE
8
0
10
187.125
20
-105.98
11
187.125
21
-103.38
0
LINE
8
0
10
187.125
20
-103.38
11
185.3496153
21
-103.38
0
ARC
8
0
10
185.3496153
20
-102.38
40
1
50
205.5028213
51
270
0
ARC
8
0
10
183.725
20
-103.155
40
0.8
50
25.5028228
51
90
0
LINE
8
0
10
180.85
20
-102.355
11
183.725
21
-102.355
0
ARC
8
0
10
180.85
20
-101.255
40
1.1
50
180
51
270
0
LINE
8
0
10
179.75
20
-101.0049727
11
179.75
21
-101.255
0
LINE
8
0
10
178.9000273
20
-100.155
11
179.75
21
-101.0049727
0
LINE
8
0
10
178.9000273
20
-100.155
11
175.8249727
21
-100.155
0
LINE
8
0
10
175.0928659
20
-100.8871068
11
175.8249727
21
-100.155
0
ARC
8
0
10
174.3857591
20
-100.18
40
1
50
270
51
315
0
LINE
8
0
10
174.3857591
20
-101.18
11
172.375
21
-101.18
0
ARC
8
0
10
171.386314
20
-101.03
40
1
50
270
51
351.3730735
0
LINE
8
0
10
171.386314
20
-102.03
11
170.15
21
-102.03
0
LINE
8
0
10
170.15
20
-102.03
11
170.15
21
-106.53
0
ARC
8
0
10
170.0004951
20
-107.518761
40
1
50
333.7900921
51
81.4017642
0
ARC
8
0
10
171.75
20
-108.38
40
0.95
50
153.7900908
51
53.5189398
0
ARC
8
0
10
172.9093862
20
-106.8120958
40
1
50
163.6146708
51
233.5189398
0
LINE
8
0
10
171.95
20
-106.53
11
171.95
21
-104.78
0
ARC
8
0
10
172.95
20
-104.78
40
1
50
90
51
180
0
LINE
8
0
10
172.95
20
-103.78
11
174.3857591
21
-103.78
0
ARC
8
0
10
174.3857591
20
-104.78
40
1
50
45
51
90
0
LINE
8
0
10
175.8249727
20
-104.805
11
175.0928659
21
-104.0728932
0
ARC
8
0
10
175.1727836
20
-105.5630563
40
1
50
306.4050931
51
49.2931447
0
ARC
8
0
10
177.25
20
-108.38
40
2.5
50
126.4050912
51
227.1446634
0
ARC
8
0
10
174.8694763
20
-110.9457566
40
1
50
305.4873837
51
47.144664
0
ARC
8
0
10
174.8635701
20
-110.95
40
1
50
270
51
305.9040697
0
LINE
8
0
10
196.3635701
20
-111.95
11
195.05
21
-111.95
0
ARC
8
0
10
194.0685255
20
-111.7584071
40
1
50
259.8073433
51
348.9542416
0
ARC
8
0
10
193.75
20
-113.53
40
0.8
50
79.8073425
51
285.9082215
0
ARC
8
0
10
194.243375
20
-115.2610636
40
1
50
36.2325194
51
105.9082203
0
LINE
8
0
10
195.05
20
-114.67
11
196.3635701
21
-114.67
0
ARC
8
0
10
196.3635701
20
-115.67
40
1
50
54.0959303
51
90
0
LINE
8
0
10
196.95
20
-114.86
11
200.55
21
-114.86
0
ARC
8
0
10
201.1364299
20
-115.67
40
1
50
90
51
125.9040697
0
LINE
8
0
10
201.1364299
20
-114.67
11
202.45
21
-114.67
0
LINE
8
0
10
202.45
20
-114.67
11
202.45
21
-111.95
0
LINE
8
0
10
202.45
20
-111.95
11
201.1364299
21
-111.95
0
ARC
8
0
10
201.1364299
20
-110.95
40
1
50
234.0959303
51
270
0
ARC
8
0
10
201.1305237
20
-110.9457566
40
1
50
132.855336
51
234.5126163
0
ARC
8
0
10
198.75
20
-108.38
40
2.5
50
312.8553366
51
6.1506399
0
ARC
8
0
10
202.2298527
20
-108.005
40
1
50
90
51
186.1506399
0
LINE
8
0
10
202.3363974
20
-107.005
11
202.2298527
21
-107.005
0
ARC
8
0
10
202.3363974
20
-108.005
40
1
50
348.9125106
51
90
0
ARC
8
0
10
204.25
20
-108.38
40
0.95
50
168.9125107
51
11.0871451
0
ARC
8
0
10
206.1634816
20
-108.0043828
40
1
50
91.8376761
51
191.10597
0
ARC
8
0
10
206.125
20
-106.805
40
0.2
50
271.8376714
51
351.6144613
0
ARC
8
0
10
207.312171
20
-106.98
40
1
50
90
51
171.6144613
0
LINE
8
0
10
207.312171
20
-105.98
11
208.625
21
-105.98
0
LINE
8
0
10
208.625
20
-105.98
11
208.625
21
-103.38
0
LINE
8
0
10
208.625
20
-103.38
11
206.8496153
21
-103.38
0
ARC
8
0
10
206.8496153
20
-102.38
40
1
50
205.5028213
51
270
0
ARC
8
0
10
205.225
20
-103.155
40
0.8
50
25.5028228
51
90
0
LINE
8
0
10
202.35
20
-102.355
11
205.225
21
-102.355
0
ARC
8
0
10
202.35
20
-101.255
40
1.1
50
180
51
270
0
LINE
8
0
10
201.25
20
-101.0049727
11
201.25
21
-101.255
0
LINE
8
0
10
200.4000273
20
-100.155
11
201.25
21
-101.0049727
0
LINE
8
0
10
200.4000273
20
-100.155
11
197.3249727
21
-100.155
0
LINE
8
0
10
196.5928659
20
-100.8871068
11
197.3249727
21
-100.155
0
ARC
8
0
10
195.8857591
20
-100.18
40
1
50
270
51
315
0
LINE
8
0
10
195.8857591
20
-101.18
11
193.875
21
-101.18
0
ARC
8
0
10
192.886314
20
-101.03
40
1
50
270
51
351.3730735
0
LINE
8
0
10
192.886314
20
-102.03
11
191.65
21
-102.03
0
LINE
8
0
10
191.65
20
-102.03
11
191.65
21
-106.53
0
ARC
8
0
10
191.5004951
20
-107.518761
40
1
50
333.7900921
51
81.4017642
0
ARC
8
0
10
193.25
20
-108.38
40
0.95
50
153.7900908
51
53.5189398
0
ARC
8
0
10
194.4093862
20
-106.8120958
40
1
50
163.6146708
51
233.5189398
0
LINE
8
0
10
193.45
20
-106.53
11
193.45
21
-104.78
0
ARC
8
0
10
194.45
20
-104.78
40
1
50
90
51
180
0
LINE
8
0
10
194.45
20
-103.78
11
195.8857591
21
-103.78
0
ARC
8
0
10
195.8857591
20
-104.78
40
1
50
45
51
90
0
LINE
8
0
10
197.3249727
20
-104.805
11
196.5928659
21
-104.0728932
0
ARC
8
0
10
196.6727836
20
-105.5630563
40
1
50
306.4050931
51
49.2931447
0
ARC
8
0
10
198.75
20
-108.38
40
2.5
50
126.4050912
51
227.1446634
0
ARC
8
0
10
196.3694763
20
-110.9457566
40
1
50
305.4873837
51
47.144664
0
ARC
8
0
10
196.3635701
20
-110.95
40
1
50
270
51
305.9040697
0
LINE
8
0
10
140.7150744
20
-89.4782911
11
140.0582893
21
-88.340706
0
ARC
8
0
10
139.7334764
20
-87.3949277
40
1
50
199.8073433
51
288.9542416
0
ARC
8
0
10
138.0399692
20
-88.004873
40
0.8
50
19.8073425
51
225.9082215
0
ARC
8
0
10
136.7875116
20
-89.2976801
40
1
50
336.2325194
51
45.9082203
0
LINE
8
0
10
137.7027002
20
-89.700706
11
138.3594853
21
-90.8382911
0
ARC
8
0
10
137.4934599
20
-91.3382911
40
1
50
354.0959303
51
30
0
LINE
8
0
10
138.4881554
20
-91.4411543
11
140.2881554
21
-94.5588457
0
ARC
8
0
10
139.8798898
20
-95.4717089
40
1
50
30
51
65.9040697
0
LINE
8
0
10
140.7459152
20
-94.9717089
11
141.4027002
21
-96.109294
0
LINE
8
0
10
141.4027002
20
-96.109294
11
143.7582893
21
-94.749294
0
LINE
8
0
10
143.7582893
20
-94.749294
11
143.1015043
21
-93.6117089
0
ARC
8
0
10
143.9675297
20
-93.1117089
40
1
50
174.0959303
51
210
0
ARC
8
0
10
143.9682515
20
-93.1044723
40
1
50
72.855336
51
174.5126163
0
ARC
8
0
10
145
20
-89.76
40
2.5
50
252.8553366
51
306.1506399
0
ARC
8
0
10
147.0646859
20
-92.5861408
40
1
50
30
51
126.1506399
0
LINE
8
0
10
147.9839836
20
-92.1784113
11
147.9307113
21
-92.0861408
0
ARC
8
0
10
147.1179582
20
-92.6784113
40
1
50
288.9125106
51
30
0
ARC
8
0
10
147.75
20
-94.5231397
40
0.95
50
108.9125107
51
311.0871451
0
ARC
8
0
10
149.0320348
20
-95.9924548
40
1
50
31.8376761
51
131.10597
0
ARC
8
0
10
150.05149
20
-95.3594374
40
0.2
50
211.8376714
51
291.6144613
0
ARC
8
0
10
150.4935211
20
-96.4750576
40
1
50
30
51
111.6144613
0
LINE
8
0
10
151.3595465
20
-95.9750576
11
152.015961
21
-97.1120009
0
LINE
8
0
10
152.015961
20
-97.1120009
11
154.267627
21
-95.8120009
0
LINE
8
0
10
154.267627
20
-95.8120009
11
153.3799347
21
-94.2744726
0
ARC
8
0
10
154.2459601
20
-93.7744726
40
1
50
145.5028213
51
210
0
ARC
8
0
10
152.7624827
20
-92.7550145
40
0.8
50
325.5028228
51
30
0
LINE
8
0
10
152.0178031
20
-89.8651915
11
153.4553031
21
-92.3550145
0
ARC
8
0
10
152.970431
20
-89.3151915
40
1.1
50
120
51
210
0
LINE
8
0
10
152.636961
20
-88.2375499
11
152.420431
21
-88.3625635
0
LINE
8
0
10
152.9480726
20
-87.0764656
11
152.636961
21
-88.2375499
0
LINE
8
0
10
152.9480726
20
-87.0764656
11
151.4105453
21
-84.4133902
0
LINE
8
0
10
150.4104688
20
-84.1454205
11
151.4105453
21
-84.4133902
0
ARC
8
0
10
150.6692879
20
-83.1794946
40
1
50
210
51
255
0
LINE
8
0
10
149.8032625
20
-83.6794946
11
148.7978829
21
-81.9381262
0
ARC
8
0
10
148.4334437
20
-81.006899
40
1
50
210
51
291.3730735
0
LINE
8
0
10
147.5674183
20
-81.506899
11
146.9492613
21
-80.4362196
0
LINE
8
0
10
146.9492613
20
-80.4362196
11
143.052147
21
-82.6862196
0
ARC
8
0
10
142.1211024
20
-83.0511251
40
1
50
273.7900921
51
21.4017642
0
ARC
8
0
10
142.25
20
-84.9968603
40
0.95
50
93.7900908
51
353.5189398
0
ARC
8
0
10
144.187538
20
-85.2169661
40
1
50
103.6146708
51
173.5189398
0
LINE
8
0
10
143.952147
20
-84.2450654
11
145.4676915
21
-83.3700654
0
ARC
8
0
10
145.9676915
20
-84.2360908
40
1
50
30
51
120
0
LINE
8
0
10
146.8337169
20
-83.7360908
11
147.5515964
21
-84.9794946
0
ARC
8
0
10
146.685571
20
-85.4794946
40
1
50
345
51
30
0
LINE
8
0
10
147.3835272
20
-86.7383902
11
147.6514969
21
-85.7383137
0
ARC
8
0
10
146.4009366
20
-86.552606
40
1
50
246.4050931
51
349.2931447
0
ARC
8
0
10
145
20
-89.76
40
2.5
50
66.4050912
51
167.1446634
0
ARC
8
0
10
141.5877278
20
-88.9812843
40
1
50
245.4873837
51
347.144664
0
ARC
8
0
10
141.5810998
20
-88.9782911
40
1
50
210
51
245.9040697
0
LINE
8
0
10
168.3984957
20
-93.6117089
11
167.7417107
21
-94.749294
0
ARC
8
0
10
167.0850491
20
-95.5034794
40
1
50
319.8073433
51
48.9542416
0
ARC
8
0
10
168.4600308
20
-96.665127
40
0.8
50
139.8073425
51
345.9082215
0
ARC
8
0
10
170.2058634
20
-97.1033835
40
1
50
96.2325194
51
165.9082203
0
LINE
8
0
10
170.0972998
20
-96.109294
11
170.7540848
21
-94.9717089
0
ARC
8
0
10
171.6201102
20
-95.4717089
40
1
50
114.0959303
51
150
0
LINE
8
0
10
171.2118446
20
-94.5588457
11
173.0118446
21
-91.4411543
0
ARC
8
0
10
174.0065401
20
-91.3382911
40
1
50
150
51
185.9040697
0
LINE
8
0
10
173.1405147
20
-90.8382911
11
173.7972998
21
-89.700706
0
LINE
8
0
10
173.7972998
20
-89.700706
11
171.4417107
21
-88.340706
0
LINE
8
0
10
171.4417107
20
-88.340706
11
170.7849256
21
-89.4782911
0
ARC
8
0
10
169.9189002
20
-88.9782911
40
1
50
294.0959303
51
330
0
ARC
8
0
10
169.9122722
20
-88.9812843
40
1
50
192.855336
51
294.5126163
0
ARC
8
0
10
166.5
20
-89.76
40
2.5
50
12.8553366
51
66.1506399
0
ARC
8
0
10
167.9151668
20
-86.5588592
40
1
50
150
51
246.1506399
0
LINE
8
0
10
167.1024138
20
-85.9665887
11
167.0491414
21
-86.0588592
0
ARC
8
0
10
167.9684392
20
-86.4665887
40
1
50
48.9125106
51
150
0
ARC
8
0
10
169.25
20
-84.9968603
40
0.95
50
228.9125107
51
71.0871451
0
ARC
8
0
10
169.8814468
20
-83.151928
40
1
50
151.8376761
51
251.10597
0
ARC
8
0
10
168.82351
20
-82.5855626
40
0.2
50
331.8376714
51
51.6144613
0
ARC
8
0
10
169.5686499
20
-81.6449424
40
1
50
150
51
231.6144613
0
LINE
8
0
10
168.7026245
20
-81.1449424
11
169.359039
21
-80.0079991
0
LINE
8
0
10
169.359039
20
-80.0079991
11
167.107373
21
-78.7079991
0
LINE
8
0
10
167.107373
20
-78.7079991
11
166.2196806
21
-80.2455274
0
ARC
8
0
10
165.3536552
20
-79.7455274
40
1
50
265.5028213
51
330
0
ARC
8
0
10
165.2125173
20
-81.5399855
40
0.8
50
85.5028228
51
150
0
LINE
8
0
10
163.0821969
20
-83.6298085
11
164.5196969
21
-81.1399855
0
ARC
8
0
10
162.129569
20
-83.0798085
40
1.1
50
240
51
330
0
LINE
8
0
10
161.363039
20
-83.9074228
11
161.579569
21
-84.0324365
0
LINE
8
0
10
160.2019547
20
-84.2185344
11
161.363039
21
-83.9074228
0
LINE
8
0
10
160.2019547
20
-84.2185344
11
158.6644274
21
-86.8816098
0
LINE
8
0
10
158.9323971
20
-87.8816863
11
158.6644274
21
-86.8816098
0
ARC
8
0
10
157.9664712
20
-88.1405054
40
1
50
330
51
15
0
LINE
8
0
10
158.8324966
20
-88.6405054
11
157.8271171
21
-90.3818738
0
ARC
8
0
10
157.2028703
20
-91.163101
40
1
50
330
51
51.3730735
0
LINE
8
0
10
158.0688957
20
-91.663101
11
157.4507387
21
-92.7337804
0
LINE
8
0
10
157.4507387
20
-92.7337804
11
161.347853
21
-94.9837804
0
ARC
8
0
10
162.1293927
20
-95.6076359
40
1
50
33.7900921
51
141.4017642
0
ARC
8
0
10
163.75
20
-94.5231397
40
0.95
50
213.7900908
51
113.5189398
0
ARC
8
0
10
162.9718482
20
-92.7351297
40
1
50
223.6146708
51
293.5189398
0
LINE
8
0
10
162.247853
20
-93.4249346
11
160.7323085
21
-92.5499346
0
ARC
8
0
10
161.2323085
20
-91.6839092
40
1
50
150
51
240
0
LINE
8
0
10
160.3662831
20
-91.1839092
11
161.0841627
21
-89.9405054
0
ARC
8
0
10
161.9501881
20
-90.4405054
40
1
50
105
51
150
0
LINE
8
0
10
162.6914455
20
-89.2066098
11
161.691369
21
-89.4745795
0
ARC
8
0
10
163.021847
20
-90.1504503
40
1
50
6.4050931
51
109.2931447
0
ARC
8
0
10
166.5
20
-89.76
40
2.5
50
186.4050912
51
287.1446634
0
ARC
8
0
10
167.5317485
20
-93.1044723
40
1
50
5.4873837
51
107.144664
0
ARC
8
0
10
167.5324703
20
-93.1117089
40
1
50
330
51
5.9040697
0
LINE
8
0
10
189.8984957
20
-93.6117089
11
189.2417107
21
-94.749294
0
ARC
8
0
10
188.5850491
20
-95.5034794
40
1
50
319.8073433
51
48.9542416
0
ARC
8
0
10
189.9600308
20
-96.665127
40
0.8
50
139.8073425
51
345.9082215
0
ARC
8
0
10
191.7058634
20
-97.1033835
40
1
50
96.2325194
51
165.9082203
0
LINE
8
0
10
191.5972998
20
-96.109294
11
192.2540848
21
-94.9717089
0
ARC
8
0
10
193.1201102
20
-95.4717089
40
1
50
114.0959303
51
150
0
LINE
8
0
10
192.7118446
20
-94.5588457
11
194.5118446
21
-91.4411543
0
ARC
8
0
10
195.5065401
20
-91.3382911
40
1
50
150
51
185.9040697
0
LINE
8
0
10
194.6405147
20
-90.8382911
11
195.2972998
21
-89.700706
0
LINE
8
0
10
195.2972998
20
-89.700706
11
192.9417107
21
-88.340706
0
LINE
8
0
10
192.9417107
20
-88.340706
11
192.2849256
21
-89.4782911
0
ARC
8
0
10
191.4189002
20
-88.9782911
40
1
50
294.0959303
51
330
0
ARC
8
0
10
191.4122722
20
-88.9812843
40
1
50
192.855336
51
294.5126163
0
ARC
8
0
10
188
20
-89.76
40
2.5
50
12.8553366
51
66.1506399
0
ARC
8
0
10
189.4151668
20
-86.5588592
40
1
50
150
51
246.1506399
0
LINE
8
0
10
188.6024138
20
-85.9665887
11
188.5491414
21
-86.0588592
0
ARC
8
0
10
189.4684392
20
-86.4665887
40
1
50
48.9125106
51
150
0
ARC
8
0
10
190.75
20
-84.9968603
40
0.95
50
228.9125107
51
71.0871451
0
ARC
8
0
10
191.3814468
20
-83.151928
40
1
50
151.8376761
51
251.10597
0
ARC
8
0
10
190.32351
20
-82.5855626
40
0.2
50
331.8376714
51
51.6144613
0
ARC
8
0
10
191.0686499
20
-81.6449424
40
1
50
150
51
231.6144613
0
LINE
8
0
10
190.2026245
20
-81.1449424
11
190.859039
21
-80.0079991
0
LINE
8
0
10
190.859039
20
-80.0079991
11
188.607373
21
-78.7079991
0
LINE
8
0
10
188.607373
20
-78.7079991
11
187.7196806
21
-80.2455274
0
ARC
8
0
10
186.8536552
20
-79.7455274
40
1
50
265.5028213
51
330
0
ARC
8
0
10
186.7125173
20
-81.5399855
40
0.8
50
85.5028228
51
150
0
LINE
8
0
10
184.5821969
20
-83.6298085
11
186.0196969
21
-81.1399855
0
ARC
8
0
10
183.629569
20
-83.0798085
40
1.1
50
240
51
330
0
LINE
8
0
10
182.863039
20
-83.9074228
11
183.079569
21
-84.0324365
0
LINE
8
0
10
181.7019547
20
-84.2185344
11
182.863039
21
-83.9074228
0
LINE
8
0
10
181.7019547
20
-84.2185344
11
180.1644274
21
-86.8816098
0
LINE
8
0
10
180.4323971
20
-87.8816863
11
180.1644274
21
-86.8816098
0
ARC
8
0
10
179.4664712
20
-88.1405054
40
1
50
330
51
15
0
LINE
8
0
10
180.3324966
20
-88.6405054
11
179.3271171
21
-90.3818738
0
ARC
8
0
10
178.7028703
20
-91.163101
40
1
50
330
51
51.3730735
0
LINE
8
0
10
179.5688957
20
-91.663101
11
178.9507387
21
-92.7337804
0
LINE
8
0
10
178.9507387
20
-92.7337804
11
182.847853
21
-94.9837804
0
ARC
8
0
10
183.6293927
20
-95.6076359
40
1
50
33.7900921
51
141.4017642
0
ARC
8
0
10
185.25
20
-94.5231397
40
0.95
50
213.7900908
51
113.5189398
0
ARC
8
0
10
184.4718482
20
-92.7351297
40
1
50
223.6146708
51
293.5189398
0
LINE
8
0
10
183.747853
20
-93.4249346
11
182.2323085
21
-92.5499346
0
ARC
8
0
10
182.7323085
20
-91.6839092
40
1
50
150
51
240
0
LINE
8
0
10
181.8662831
20
-91.1839092
11
182.5841627
21
-89.9405054
0
ARC
8
0
10
183.4501881
20
-90.4405054
40
1
50
105
51
150
0
LINE
8
0
10
184.1914455
20
-89.2066098
11
183.191369
21
-89.4745795
0
ARC
8
0
10
184.521847
20
-90.1504503
40
1
50
6.4050931
51
109.2931447
0
ARC
8
0
10
188
20
-89.76
40
2.5
50
186.4050912
51
287.1446634
0
ARC
8
0
10
189.0317485
20
-93.1044723
40
1
50
5.4873837
51
107.144664
0
ARC
8
0
10
189.0324703
20
-93.1117089
40
1
50
330
51
5.9040697
0
LINE
8
0
10
211.3984957
20
-93.6117089
11
210.7417107
21
-94.749294
0
ARC
8
0
10
210.0850491
20
-95.5034794
40
1
50
319.8073433
51
48.9542416
0
ARC
8
0
10
211.4600308
20
-96.665127
40
0.8
50
139.8073425
51
345.9082215
0
ARC
8
0
10
213.2058634
20
-97.1033835
40
1
50
96.2325194
51
165.9082203
0
LINE
8
0
10
213.0972998
20
-96.109294
11
213.7540848
21
-94.9717089
0
ARC
8
0
10
214.6201102
20
-95.4717089
40
1
50
114.0959303
51
150
0
LINE
8
0
10
214.2118446
20
-94.5588457
11
216.0118446
21
-91.4411543
0
ARC
8
0
10
217.0065401
20
-91.3382911
40
1
50
150
51
185.9040697
0
LINE
8
0
10
216.1405147
20
-90.8382911
11
216.7972998
21
-89.700706
0
LINE
8
0
10
216.7972998
20
-89.700706
11
214.4417107
21
-88.340706
0
LINE
8
0
10
214.4417107
20
-88.340706
11
213.7849256
21
-89.4782911
0
ARC
8
0
10
212.9189002
20
-88.9782911
40
1
50
294.0959303
51
330
0
ARC
8
0
10
212.9122722
20
-88.9812843
40
1
50
192.855336
51
294.5126163
0
ARC
8
0
10
209.5
20
-89.76
40
2.5
50
12.8553366
51
66.1506399
0
ARC
8
0
10
210.9151668
20
-86.5588592
40
1
50
150
51
246.1506399
0
LINE
8
0
10
210.1024138
20
-85.9665887
11
210.0491414
21
-86.0588592
0
ARC
8
0
10
210.9684392
20
-86.4665887
40
1
50
48.9125106
51
150
0
ARC
8
0
10
212.25
20
-84.9968603
40
0.95
50
228.9125107
51
71.0871451
0
ARC
8
0
10
212.8814468
20
-83.151928
40
1
50
151.8376761
51
251.10597
0
ARC
8
0
10
211.82351
20
-82.5855626
40
0.2
50
331.8376714
51
51.6144613
0
ARC
8
0
10
212.5686499
20
-81.6449424
40
1
50
150
51
231.6144613
0
LINE
8
0
10
211.7026245
20
-81.1449424
11
212.359039
21
-80.0079991
0
LINE
8
0
10
212.359039
20
-80.0079991
11
210.107373
21
-78.7079991
0
LINE
8
0
10
210.107373
20
-78.7079991
11
209.2196806
21
-80.2455274
0
ARC
8
0
10
208.3536552
20
-79.7455274
40
1
50
265.5028213
51
330
0
ARC
8
0
10
208.2125173
20
-81.5399855
40
0.8
50
85.5028228
51
150
0
LINE
8
0
10
206.0821969
20
-83.6298085
11
207.5196969
21
-81.1399855
0
ARC
8
0
10
205.129569
20
-83.0798085
40
1.1
50
240
51
330
0
LINE
8
0
10
204.363039
20
-83.9074228
11
204.579569
21
-84.0324365
0
LINE
8
0
10
203.2019547
20
-84.2185344
11
204.363039
21
-83.9074228
0
LINE
8
0
10
203.2019547
20
-84.2185344
11
201.6644274
21
-86.8816098
0
LINE
8
0
10
201.9323971
20
-87.8816863
11
201.6644274
21
-86.8816098
0
ARC
8
0
10
200.9664712
20
-88.1405054
40
1
50
330
51
15
0
LINE
8
0
10
201.8324966
20
-88.6405054
11
200.8271171
21
-90.3818738
0
ARC
8
0
10
200.2028703
20
-91.163101
40
1
50
330
51
51.3730735
0
LINE
8
0
10
201.0688957
20
-91.663101
11
200.4507387
21
-92.7337804
0
LINE
8
0
10
200.4507387
20
-92.7337804
11
204.347853
21
-94.9837804
0
ARC
8
0
10
205.1293927
20
-95.6076359
40
1
50
33.7900921
51
141.4017642
0
ARC
8
0
10
206.75
20
-94.5231397
40
0.95
50
213.7900908
51
113.5189398
0
ARC
8
0
10
205.9718482
20
-92.7351297
40
1
50
223.6146708
51
293.5189398
0
LINE
8
0
10
205.247853
20
-93.4249346
11
203.7323085
21
-92.5499346
0
ARC
8
0
10
204.2323085
20
-91.6839092
40
1
50
150
51
240
0
LINE
8
0
10
203.3662831
20
-91.1839092
11
204.0841627
21
-89.9405054
0
ARC
8
0
10
204.9501881
20
-90.4405054
40
1
50
105
51
150
0
LINE
8
0
10
205.6914455
20
-89.2066098
11
204.691369
21
-89.4745795
0
ARC
8
0
10
206.021847
20
-90.1504503
40
1
50
6.4050931
51
109.2931447
0
ARC
8
0
10
209.5
20
-89.76
40
2.5
50
186.4050912
51
287.1446634
0
ARC
8
0
10
210.5317485
20
-93.1044723
40
1
50
5.4873837
51
107.144664
0
ARC
8
0
10
210.5324703
20
-93.1117089
40
1
50
330
51
5.9040697
0
LINE
8
0
10
158.1364299
20
-67.57
11
159.45
21
-67.57
0
ARC
8
0
10
160.4314745
20
-67.7615929
40
1
50
439.8073433
51
528.9542416
0
ARC
8
0
10
160.75
20
-65.99
40
0.8
50
259.8073425
51
465.9082215
0
ARC
8
0
10
160.256625
20
-64.2589364
40
1
50
216.2325194
51
285.9082203
0
LINE
8
0
10
159.45
20
-64.85
11
158.1364299
21
-64.85
0
ARC
8
0
10
158.1364299
20
-63.85
40
1
50
234.0959303
51
270
0
LINE
8
0
10
157.55
20
-64.66
11
153.95
21
-64.66
0
ARC
8
0
10
153.3635701
20
-63.85
40
1
50
270
51
305.9040697
0
LINE
8
0
10
153.3635701
20
-64.85
11
152.05
21
-64.85
0
LINE
8
0
10
152.05
20
-64.85
11
152.05
21
-67.57
0
LINE
8
0
10
152.05
20
-67.57
11
153.3635701
21
-67.57
0
ARC
8
0
10
153.3635701
20
-68.57
40
1
50
414.0959303
51
90
0
ARC
8
0
10
153.3694763
20
-68.5742434
40
1
50
312.855336
51
414.5126163
0
ARC
8
0
10
155.75
20
-71.14
40
2.5
50
132.8553366
51
186.1506399
0
ARC
8
0
10
152.2701473
20
-71.515
40
1
50
270
51
366.1506399
0
LINE
8
0
10
152.1636026
20
-72.515
11
152.2701473
21
-72.515
0
ARC
8
0
10
152.1636026
20
-71.515
40
1
50
168.9125106
51
270
0
ARC
8
0
10
150.25
20
-71.14
40
0.95
50
348.9125107
51
551.0871451
0
ARC
8
0
10
148.3365184
20
-71.5156172
40
1
50
631.8376761
51
731.10597
0
ARC
8
0
10
148.375
20
-72.715
40
0.2
50
91.8376714
51
171.6144613
0
ARC
8
0
10
147.187829
20
-72.54
40
1
50
270
51
351.6144613
0
LINE
8
0
10
147.187829
20
-73.54
11
145.875
21
-73.54
0
LINE
8
0
10
145.875
20
-73.54
11
145.875
21
-76.14
0
LINE
8
0
10
145.875
20
-76.14
11
147.6503847
21
-76.14
0
ARC
8
0
10
147.6503847
20
-77.14
40
1
50
385.5028213
51
90
0
ARC
8
0
10
149.275
20
-76.365
40
0.8
50
205.5028228
51
270
0
LINE
8
0
10
152.15
20
-77.165
11
149.275
21
-77.165
0
ARC
8
0
10
152.15
20
-78.265
40
1.1
50
0
51
90
0
LINE
8
0
10
153.25
20
-78.5150273
11
153.25
21
-78.265
0
LINE
8
0
10
154.0999727
20
-79.365
11
153.25
21
-78.5150273
0
LINE
8
0
10
154.0999727
20
-79.365
11
157.1750273
21
-79.365
0
LINE
8
0
10
157.9071341
20
-78.6328932
11
157.1750273
21
-79.365
0
ARC
8
0
10
158.6142409
20
-79.34
40
1
50
450
51
135
0
LINE
8
0
10
158.6142409
20
-78.34
11
160.625
21
-78.34
0
ARC
8
0
10
161.613686
20
-78.49
40
1
50
450
51
531.3730735
0
LINE
8
0
10
161.613686
20
-77.49
11
162.85
21
-77.49
0
LINE
8
0
10
162.85
20
-77.49
11
162.85
21
-72.99
0
ARC
8
0
10
162.9995049
20
-72.001239
40
1
50
153.7900921
51
261.4017642
0
ARC
8
0
10
161.25
20
-71.14
40
0.95
50
333.7900908
51
593.5189398
0
ARC
8
0
10
160.0906138
20
-72.7079042
40
1
50
703.6146708
51
773.5189398
0
LINE
8
0
10
161.05
20
-72.99
11
161.05
21
-74.74
0
ARC
8
0
10
160.05
20
-74.74
40
1
50
270
51
0
0
LINE
8
0
10
160.05
20
-75.74
11
158.6142409
21
-75.74
0
ARC
8
0
10
158.6142409
20
-74.74
40
1
50
225
51
270
0
LINE
8
0
10
157.1750273
20
-74.715
11
157.9071341
21
-75.4471068
0
ARC
8
0
10
157.8272164
20
-73.9569437
40
1
50
126.4050931
51
229.2931447
0
ARC
8
0
10
155.75
20
-71.14
40
2.5
50
306.4050912
51
407.1446634
0
ARC
8
0
10
158.1305237
20
-68.5742434
40
1
50
485.4873837
51
587.144664
0
ARC
8
0
10
158.1364299
20
-68.57
40
1
50
450
51
485.9040697
0
LINE
8
0
10
181.5349256
20
-71.4217089
11
182.1917107
21
-72.559294
0
ARC
8
0
10
182.5165236
20
-73.5050723
40
1
50
19.8073433
51
108.9542416
0
ARC
8
0
10
184.2100308
20
-72.895127
40
0.8
50
199.8073425
51
45.9082215
0
ARC
8
0
10
185.4624884
20
-71.6023199
40
1
50
156.2325194
51
225.9082203
0
LINE
8
0
10
184.5472998
20
-71.199294
11
183.8905147
21
-70.0617089
0
ARC
8
0
10
184.7565401
20
-69.5617089
40
1
50
174.0959303
51
210
0
LINE
8
0
10
183.7618446
20
-69.4588457
11
181.9618446
21
-66.3411543
0
ARC
8
0
10
182.3701102
20
-65.4282911
40
1
50
210
51
245.9040697
0
LINE
8
0
10
181.5040848
20
-65.9282911
11
180.8472998
21
-64.790706
0
LINE
8
0
10
180.8472998
20
-64.790706
11
178.4917107
21
-66.150706
0
LINE
8
0
10
178.4917107
20
-66.150706
11
179.1484957
21
-67.2882911
0
ARC
8
0
10
178.2824703
20
-67.7882911
40
1
50
354.0959303
51
30
0
ARC
8
0
10
178.2817485
20
-67.7955277
40
1
50
252.855336
51
354.5126163
0
ARC
8
0
10
177.25
20
-71.14
40
2.5
50
72.8553366
51
126.1506399
0
ARC
8
0
10
175.1853141
20
-68.3138592
40
1
50
210
51
306.1506399
0
LINE
8
0
10
174.2660164
20
-68.7215887
11
174.3192887
21
-68.8138592
0
ARC
8
0
10
175.1320418
20
-68.2215887
40
1
50
108.9125106
51
210
0
ARC
8
0
10
174.5
20
-66.3768603
40
0.95
50
288.9125107
51
131.0871451
0
ARC
8
0
10
173.2179652
20
-64.9075452
40
1
50
211.8376761
51
311.10597
0
ARC
8
0
10
172.19851
20
-65.5405626
40
0.2
50
31.8376714
51
111.6144613
0
ARC
8
0
10
171.7564789
20
-64.4249424
40
1
50
210
51
291.6144613
0
LINE
8
0
10
170.8904535
20
-64.9249424
11
170.234039
21
-63.7879991
0
LINE
8
0
10
170.234039
20
-63.7879991
11
167.982373
21
-65.0879991
0
LINE
8
0
10
167.982373
20
-65.0879991
11
168.8700653
21
-66.6255274
0
ARC
8
0
10
168.0040399
20
-67.1255274
40
1
50
325.5028213
51
30
0
ARC
8
0
10
169.4875173
20
-68.1449855
40
0.8
50
145.5028228
51
210
0
LINE
8
0
10
170.2321969
20
-71.0348085
11
168.7946969
21
-68.5449855
0
ARC
8
0
10
169.279569
20
-71.5848085
40
1.1
50
300
51
30
0
LINE
8
0
10
169.613039
20
-72.6624501
11
169.829569
21
-72.5374365
0
LINE
8
0
10
169.3019274
20
-73.8235344
11
169.613039
21
-72.6624501
0
LINE
8
0
10
169.3019274
20
-73.8235344
11
170.8394547
21
-76.4866098
0
LINE
8
0
10
171.8395312
20
-76.7545795
11
170.8394547
21
-76.4866098
0
ARC
8
0
10
171.5807121
20
-77.7205054
40
1
50
30
51
75
0
LINE
8
0
10
172.4467375
20
-77.2205054
11
173.4521171
21
-78.9618738
0
ARC
8
0
10
173.8165563
20
-79.893101
40
1
50
30
51
111.3730735
0
LINE
8
0
10
174.6825817
20
-79.393101
11
175.3007387
21
-80.4637804
0
LINE
8
0
10
175.3007387
20
-80.4637804
11
179.197853
21
-78.2137804
0
ARC
8
0
10
180.1288976
20
-77.8488749
40
1
50
93.7900921
51
201.4017642
0
ARC
8
0
10
180
20
-75.9031397
40
0.95
50
273.7900908
51
173.5189398
0
ARC
8
0
10
178.062462
20
-75.6830339
40
1
50
283.6146708
51
353.5189398
0
LINE
8
0
10
178.297853
20
-76.6549346
11
176.7823085
21
-77.5299346
0
ARC
8
0
10
176.2823085
20
-76.6639092
40
1
50
210
51
300
0
LINE
8
0
10
175.4162831
20
-77.1639092
11
174.6984036
21
-75.9205054
0
ARC
8
0
10
175.564429
20
-75.4205054
40
1
50
165
51
210
0
LINE
8
0
10
174.8664728
20
-74.1616098
11
174.5985031
21
-75.1616863
0
ARC
8
0
10
175.8490634
20
-74.347394
40
1
50
66.4050931
51
169.2931447
0
ARC
8
0
10
177.25
20
-71.14
40
2.5
50
246.4050912
51
347.1446634
0
ARC
8
0
10
180.6622722
20
-71.9187157
40
1
50
65.4873837
51
167.144664
0
ARC
8
0
10
180.6689002
20
-71.9217089
40
1
50
30
51
65.9040697
0
LINE
8
0
10
203.0349256
20
-71.4217089
11
203.6917107
21
-72.559294
0
ARC
8
0
10
204.0165236
20
-73.5050723
40
1
50
19.8073433
51
108.9542416
0
ARC
8
0
10
205.7100308
20
-72.895127
40
0.8
50
199.8073425
51
45.9082215
0
ARC
8
0
10
206.9624884
20
-71.6023199
40
1
50
156.2325194
51
225.9082203
0
LINE
8
0
10
206.0472998
20
-71.199294
11
205.3905147
21
-70.0617089
0
ARC
8
0
10
206.2565401
20
-69.5617089
40
1
50
174.0959303
51
210
0
LINE
8
0
10
205.2618446
20
-69.4588457
11
203.4618446
21
-66.3411543
0
ARC
8
0
10
203.8701102
20
-65.4282911
40
1
50
210
51
245.9040697
0
LINE
8
0
10
203.0040848
20
-65.9282911
11
202.3472998
21
-64.790706
0
LINE
8
0
10
202.3472998
20
-64.790706
11
199.9917107
21
-66.150706
0
LINE
8
0
10
199.9917107
20
-66.150706
11
200.6484957
21
-67.2882911
0
ARC
8
0
10
199.7824703
20
-67.7882911
40
1
50
354.0959303
51
30
0
ARC
8
0
10
199.7817485
20
-67.7955277
40
1
50
252.855336
51
354.5126163
0
ARC
8
0
10
198.75
20
-71.14
40
2.5
50
72.8553366
51
126.1506399
0
ARC
8
0
10
196.6853141
20
-68.3138592
40
1
50
210
51
306.1506399
0
LINE
8
0
10
195.7660164
20
-68.7215887
11
195.8192887
21
-68.8138592
0
ARC
8
0
10
196.6320418
20
-68.2215887
40
1
50
108.9125106
51
210
0
ARC
8
0
10
196
20
-66.3768603
40
0.95
50
288.9125107
51
131.0871451
0
ARC
8
0
10
194.7179652
20
-64.9075452
40
1
50
211.8376761
51
311.10597
0
ARC
8
0
10
193.69851
20
-65.5405626
40
0.2
50
31.8376714
51
111.6144613
0
ARC
8
0
10
193.2564789
20
-64.4249424
40
1
50
210
51
291.6144613
0
LINE
8
0
10
192.3904535
20
-64.9249424
11
191.734039
21
-63.7879991
0
LINE
8
0
10
191.734039
20
-63.7879991
11
189.482373
21
-65.0879991
0
LINE
8
0
10
189.482373
20
-65.0879991
11
190.3700653
21
-66.6255274
0
ARC
8
0
10
189.5040399
20
-67.1255274
40
1
50
325.5028213
51
30
0
ARC
8
0
10
190.9875173
20
-68.1449855
40
0.8
50
145.5028228
51
210
0
LINE
8
0
10
191.7321969
20
-71.0348085
11
190.2946969
21
-68.5449855
0
ARC
8
0
10
190.779569
20
-71.5848085
40
1.1
50
300
51
30
0
LINE
8
0
10
191.113039
20
-72.6624501
11
191.329569
21
-72.5374365
0
LINE
8
0
10
190.8019274
20
-73.8235344
11
191.113039
21
-72.6624501
0
LINE
8
0
10
190.8019274
20
-73.8235344
11
192.3394547
21
-76.4866098
0
LINE
8
0
10
193.3395312
20
-76.7545795
11
192.3394547
21
-76.4866098
0
ARC
8
0
10
193.0807121
20
-77.7205054
40
1
50
30
51
75
0
LINE
8
0
10
193.9467375
20
-77.2205054
11
194.9521171
21
-78.9618738
0
ARC
8
0
10
195.3165563
20
-79.893101
40
1
50
30
51
111.3730735
0
LINE
8
0
10
196.1825817
20
-79.393101
11
196.8007387
21
-80.4637804
0
LINE
8
0
10
196.8007387
20
-80.4637804
11
200.697853
21
-78.2137804
0
ARC
8
0
10
201.6288976
20
-77.8488749
40
1
50
93.7900921
51
201.4017642
0
ARC
8
0
10
201.5
20
-75.9031397
40
0.95
50
273.7900908
51
173.5189398
0
ARC
8
0
10
199.562462
20
-75.6830339
40
1
50
283.6146708
51
353.5189398
0
LINE
8
0
10
199.797853
20
-76.6549346
11
198.2823085
21
-77.5299346
0
ARC
8
0
10
197.7823085
20
-76.6639092
40
1
50
210
51
300
0
LINE
8
0
10
196.9162831
20
-77.1639092
11
196.1984036
21
-75.9205054
0
ARC
8
0
10
197.064429
20
-75.4205054
40
1
50
165
51
210
0
LINE
8
0
10
196.3664728
20
-74.1616098
11
196.0985031
21
-75.1616863
0
ARC
8
0
10
197.3490634
20
-74.347394
40
1
50
66.4050931
51
169.2931447
0
ARC
8
0
10
198.75
20
-71.14
40
2.5
50
246.4050912
51
347.1446634
0
ARC
8
0
10
202.1622722
20
-71.9187157
40
1
50
65.4873837
51
167.144664
0
ARC
8
0
10
202.1689002
20
-71.9217089
40
1
50
30
51
65.9040697
0
LINE
8
0
10
224.5349256
20
-71.4217089
11
225.1917107
21
-72.559294
0
ARC
8
0
10
225.5165236
20
-73.5050723
40
1
50
19.8073433
51
108.9542416
0
ARC
8
0
10
227.2100308
20
-72.895127
40
0.8
50
199.8073425
51
45.9082215
0
ARC
8
0
10
228.4624884
20
-71.6023199
40
1
50
156.2325194
51
225.9082203
0
LINE
8
0
10
227.5472998
20
-71.199294
11
226.8905147
21
-70.0617089
0
ARC
8
0
10
227.7565401
20
-69.5617089
40
1
50
174.0959303
51
210
0
LINE
8
0
10
226.7618446
20
-69.4588457
11
224.9618446
21
-66.3411543
0
ARC
8
0
10
225.3701102
20
-65.4282911
40
1
50
210
51
245.9040697
0
LINE
8
0
10
224.5040848
20
-65.9282911
11
223.8472998
21
-64.790706
0
LINE
8
0
10
223.8472998
20
-64.790706
11
221.4917107
21
-66.150706
0
LINE
8
0
10
221.4917107
20
-66.150706
11
222.1484957
21
-67.2882911
0
ARC
8
0
10
221.2824703
20
-67.7882911
40
1
50
354.0959303
51
30
0
ARC
8
0
10
221.2817485
20
-67.7955277
40
1
50
252.855336
51
354.5126163
0
ARC
8
0
10
220.25
20
-71.14
40
2.5
50
72.8553366
51
126.1506399
0
ARC
8
0
10
218.1853141
20
-68.3138592
40
1
50
210
51
306.1506399
0
LINE
8
0
10
217.2660164
20
-68.7215887
11
217.3192887
21
-68.8138592
0
ARC
8
0
10
218.1320418
20
-68.2215887
40
1
50
108.9125106
51
210
0
ARC
8
0
10
217.5
20
-66.3768603
40
0.95
50
288.9125107
51
131.0871451
0
ARC
8
0
10
216.2179652
20
-64.9075452
40
1
50
211.8376761
51
311.10597
0
ARC
8
0
10
215.19851
20
-65.5405626
40
0.2
50
31.8376714
51
111.6144613
0
ARC
8
0
10
214.7564789
20
-64.4249424
40
1
50
210
51
291.6144613
0
LINE
8
0
10
213.8904535
20
-64.9249424
11
213.234039
21
-63.7879991
0
LINE
8
0
10
213.234039
20
-63.7879991
11
210.982373
21
-65.0879991
0
LINE
8
0
10
210.982373
20
-65.0879991
11
211.8700653
21
-66.6255274
0
ARC
8
0
10
211.0040399
20
-67.1255274
40
1
50
325.5028213
51
30
0
ARC
8
0
10
212.4875173
20
-68.1449855
40
0.8
50
145.5028228
51
210
0
LINE
8
0
10
213.2321969
20
-71.0348085
11
211.7946969
21
-68.5449855
0
ARC
8
0
10
212.279569
20
-71.5848085
40
1.1
50
300
51
30
0
LINE
8
0
10
212.613039
20
-72.6624501
11
212.829569
21
-72.5374365
0
LINE
8
0
10
212.3019274
20
-73.8235344
11
212.613039
21
-72.6624501
0
LINE
8
0
10
212.3019274
20
-73.8235344
11
213.8394547
21
-76.4866098
0
LINE
8
0
10
214.8395312
20
-76.7545795
11
213.8394547
21
-76.4866098
0
ARC
8
0
10
214.5807121
20
-77.7205054
40
1
50
30
51
75
0
LINE
8
0
10
215.4467375
20
-77.2205054
11
216.4521171
21
-78.9618738
0
ARC
8
0
10
216.8165563
20
-79.893101
40
1
50
30
51
111.3730735
0
LINE
8
0
10
217.6825817
20
-79.393101
11
218.3007387
21
-80.4637804
0
LINE
8
0
10
218.3007387
20
-80.4637804
11
222.197853
21
-78.2137804
0
ARC
8
0
10
223.1288976
20
-77.8488749
40
1
50
93.7900921
51
201.4017642
0
ARC
8
0
10
223
20
-75.9031397
40
0.95
50
273.7900908
51
173.5189398
0
ARC
8
0
10
221.062462
20
-75.6830339
40
1
50
283.6146708
51
353.5189398
0
LINE
8
0
10
221.297853
20
-76.6549346
11
219.7823085
21
-77.5299346
0
ARC
8
0
10
219.2823085
20
-76.6639092
40
1
50
210
51
300
0
LINE
8
0
10
218.4162831
20
-77.1639092
11
217.6984036
21
-75.9205054
0
ARC
8
0
10
218.564429
20
-75.4205054
40
1
50
165
51
210
0
LINE
8
0
10
217.8664728
20
-74.1616098
11
217.5985031
21
-75.1616863
0
ARC
8
0
10
218.8490634
20
-74.347394
40
1
50
66.4050931
51
169.2931447
0
ARC
8
0
10
220.25
20
-71.14
40
2.5
50
246.4050912
51
347.1446634
0
ARC
8
0
10
223.6622722
20
-71.9187157
40
1
50
65.4873837
51
167.144664
0
ARC
8
0
10
223.6689002
20
-71.9217089
40
1
50
30
51
65.9040697
0
LINE
8
0
10
185.6135701
20
-130.57
11
184.3
21
-130.57
0
ARC
8
0
10
183.3185255
20
-130.3784071
40
1
50
259.8073433
51
348.9542416
0
ARC
8
0
10
183
20
-132.15
40
0.8
50
79.8073425
51
285.9082215
0
ARC
8
0
10
183.493375
20
-133.8810636
40
1
50
36.2325194
51
105.9082203
0
LINE
8
0
10
184.3
20
-133.29
11
185.6135701
21
-133.29
0
ARC
8
0
10
185.6135701
20
-134.29
40
1
50
54.0959303
51
90
0
LINE
8
0
10
186.2
20
-133.48
11
189.8
21
-133.48
0
ARC
8
0
10
190.3864299
20
-134.29
40
1
50
90
51
125.9040697
0
LINE
8
0
10
190.3864299
20
-133.29
11
191.7
21
-133.29
0
LINE
8
0
10
191.7
20
-133.29
11
191.7
21
-130.57
0
LINE
8
0
10
191.7
20
-130.57
11
190.3864299
21
-130.57
0
ARC
8
0
10
190.3864299
20
-129.57
40
1
50
234.0959303
51
270
0
ARC
8
0
10
190.3805237
20
-129.5657566
40
1
50
132.855336
51
234.5126163
0
ARC
8
0
10
188
20
-127
40
2.5
50
312.8553366
51
6.1506399
0
ARC
8
0
10
191.4798527
20
-126.625
40
1
50
90
51
186.1506399
0
LINE
8
0
10
191.5863974
20
-125.625
11
191.4798527
21
-125.625
0
ARC
8
0
10
191.5863974
20
-126.625
40
1
50
348.9125106
51
90
0
ARC
8
0
10
193.5
20
-127
40
0.95
50
168.9125107
51
11.0871451
0
ARC
8
0
10
195.4134816
20
-126.6243828
40
1
50
91.8376761
51
191.10597
0
ARC
8
0
10
195.375
20
-125.425
40
0.2
50
271.8376714
51
351.6144613
0
ARC
8
0
10
196.562171
20
-125.6
40
1
50
90
51
171.6144613
0
LINE
8
0
10
196.562171
20
-124.6
11
197.875
21
-124.6
0
LINE
8
0
10
197.875
20
-124.6
11
197.875
21
-122
0
LINE
8
0
10
197.875
20
-122
11
196.0996153
21
-122
0
ARC
8
0
10
196.0996153
20
-121
40
1
50
205.5028213
51
270
0
ARC
8
0
10
194.475
20
-121.775
40
0.8
50
25.5028228
51
90
0
LINE
8
0
10
191.6
20
-120.975
11
194.475
21
-120.975
0
ARC
8
0
10
191.6
20
-119.875
40
1.1
50
180
51
270
0
LINE
8
0
10
190.5
20
-119.6249727
11
190.5
21
-119.875
0
LINE
8
0
10
189.6500273
20
-118.775
11
190.5
21
-119.6249727
0
LINE
8
0
10
189.6500273
20
-118.775
11
186.5749727
21
-118.775
0
LINE
8
0
10
185.8428659
20
-119.5071068
11
186.5749727
21
-118.775
0
ARC
8
0
10
185.1357591
20
-118.8
40
1
50
270
51
315
0
LINE
8
0
10
185.1357591
20
-119.8
11
183.125
21
-119.8
0
ARC
8
0
10
182.136314
20
-119.65
40
1
50
270
51
351.3730735
0
LINE
8
0
10
182.136314
20
-120.65
11
180.9
21
-120.65
0
LINE
8
0
10
180.9
20
-120.65
11
180.9
21
-125.15
0
ARC
8
0
10
180.7504951
20
-126.138761
40
1
50
333.7900921
51
81.4017642
0
ARC
8
0
10
182.5
20
-127
40
0.95
50
153.7900908
51
53.5189398
0
ARC
8
0
10
183.6593862
20
-125.4320958
40
1
50
163.6146708
51
233.5189398
0
LINE
8
0
10
182.7
20
-125.15
11
182.7
21
-123.4
0
ARC
8
0
10
183.7
20
-123.4
40
1
50
90
51
180
0
LINE
8
0
10
183.7
20
-122.4
11
185.1357591
21
-122.4
0
ARC
8
0
10
185.1357591
20
-123.4
40
1
50
45
51
90
0
LINE
8
0
10
186.5749727
20
-123.425
11
185.8428659
21
-122.6928932
0
ARC
8
0
10
185.9227836
20
-124.1830563
40
1
50
306.4050931
51
49.2931447
0
ARC
8
0
10
188
20
-127
40
2.5
50
126.4050912
51
227.1446634
0
ARC
8
0
10
185.6194763
20
-129.5657566
40
1
50
305.4873837
51
47.144664
0
ARC
8
0
10
185.6135701
20
-129.57
40
1
50
270
51
305.9040697
0
LINE
8
0
10
233.3864299
20
-164.1341
11
234.7
21
-164.1341
0
ARC
8
0
10
235.6814745
20
-164.3256929
40
1
50
439.8073433
51
528.9542416
0
ARC
8
0
10
236
20
-162.5541
40
0.8
50
259.8073425
51
465.9082215
0
ARC
8
0
10
235.506625
20
-160.8230364
40
1
50
216.2325194
51
285.9082203
0
LINE
8
0
10
234.7
20
-161.4141
11
233.3864299
21
-161.4141
0
ARC
8
0
10
233.3864299
20
-160.4141
40
1
50
234.0959303
51
270
0
LINE
8
0
10
232.8
20
-161.2241
11
229.2
21
-161.2241
0
ARC
8
0
10
228.6135701
20
-160.4141
40
1
50
270
51
305.9040697
0
LINE
8
0
10
228.6135701
20
-161.4141
11
227.3
21
-161.4141
0
LINE
8
0
10
227.3
20
-161.4141
11
227.3
21
-164.1341
0
LINE
8
0
10
227.3
20
-164.1341
11
228.6135701
21
-164.1341
0
ARC
8
0
10
228.6135701
20
-165.1341
40
1
50
414.0959303
51
90
0
ARC
8
0
10
228.6194763
20
-165.1383434
40
1
50
312.855336
51
414.5126163
0
ARC
8
0
10
231
20
-167.7041
40
2.5
50
132.8553366
51
186.1506399
0
ARC
8
0
10
227.5201473
20
-168.0791
40
1
50
270
51
366.1506399
0
LINE
8
0
10
227.4136026
20
-169.0791
11
227.5201473
21
-169.0791
0
ARC
8
0
10
227.4136026
20
-168.0791
40
1
50
168.9125106
51
270
0
ARC
8
0
10
225.5
20
-167.7041
40
0.95
50
348.9125107
51
551.0871451
0
ARC
8
0
10
223.5865184
20
-168.0797172
40
1
50
631.8376761
51
731.10597
0
ARC
8
0
10
223.625
20
-169.2791
40
0.2
50
91.8376714
51
171.6144613
0
ARC
8
0
10
222.437829
20
-169.1041
40
1
50
270
51
351.6144613
0
LINE
8
0
10
222.437829
20
-170.1041
11
221.125
21
-170.1041
0
LINE
8
0
10
221.125
20
-170.1041
11
221.125
21
-172.7041
0
LINE
8
0
10
221.125
20
-172.7041
11
222.9003847
21
-172.7041
0
ARC
8
0
10
222.9003847
20
-173.7041
40
1
50
385.5028213
51
90
0
ARC
8
0
10
224.525
20
-172.9291
40
0.8
50
205.5028228
51
270
0
LINE
8
0
10
227.4
20
-173.7291
11
224.525
21
-173.7291
0
ARC
8
0
10
227.4
20
-174.8291
40
1.1
50
0
51
90
0
LINE
8
0
10
228.5
20
-175.0791273
11
228.5
21
-174.8291
0
LINE
8
0
10
229.3499727
20
-175.9291
11
228.5
21
-175.0791273
0
LINE
8
0
10
229.3499727
20
-175.9291
11
232.4250273
21
-175.9291
0
LINE
8
0
10
233.1571341
20
-175.1969932
11
232.4250273
21
-175.9291
0
ARC
8
0
10
233.8642409
20
-175.9041
40
1
50
450
51
135
0
LINE
8
0
10
233.8642409
20
-174.9041
11
235.875
21
-174.9041
0
ARC
8
0
10
236.863686
20
-175.0541
40
1
50
450
51
531.3730735
0
LINE
8
0
10
236.863686
20
-174.0541
11
238.1
21
-174.0541
0
LINE
8
0
10
238.1
20
-174.0541
11
238.1
21
-169.5541
0
ARC
8
0
10
238.2495049
20
-168.565339
40
1
50
153.7900921
51
261.4017642
0
ARC
8
0
10
236.5
20
-167.7041
40
0.95
50
333.7900908
51
593.5189398
0
ARC
8
0
10
235.3406138
20
-169.2720042
40
1
50
703.6146708
51
773.5189398
0
LINE
8
0
10
236.3
20
-169.5541
11
236.3
21
-171.3041
0
ARC
8
0
10
235.3
20
-171.3041
40
1
50
270
51
0
0
LINE
8
0
10
235.3
20
-172.3041
11
233.8642409
21
-172.3041
0
ARC
8
0
10
233.8642409
20
-171.3041
40
1
50
225
51
270
0
LINE
8
0
10
232.4250273
20
-171.2791
11
233.1571341
21
-172.0112068
0
ARC
8
0
10
233.0772164
20
-170.5210437
40
1
50
126.4050931
51
229.2931447
0
ARC
8
0
10
231
20
-167.7041
40
2.5
50
306.4050912
51
407.1446634
0
ARC
8
0
10
233.3805237
20
-165.1383434
40
1
50
485.4873837
51
587.144664
0
ARC
8
0
10
233.3864299
20
-165.1341
40
1
50
450
51
485.9040697
0
LINE
8
0
10
349.8635701
20
-111.95
11
348.55
21
-111.95
0
ARC
8
0
10
347.5685255
20
-111.7584071
40
1
50
259.8073433
51
348.9542416
0
ARC
8
0
10
347.25
20
-113.53
40
0.8
50
79.8073425
51
285.9082215
0
ARC
8
0
10
347.743375
20
-115.2610636
40
1
50
36.2325194
51
105.9082203
0
LINE
8
0
10
348.55
20
-114.67
11
349.8635701
21
-114.67
0
ARC
8
0
10
349.8635701
20
-115.67
40
1
50
54.0959303
51
90
0
LINE
8
0
10
350.45
20
-114.86
11
354.05
21
-114.86
0
ARC
8
0
10
354.6364299
20
-115.67
40
1
50
90
51
125.9040697
0
LINE
8
0
10
354.6364299
20
-114.67
11
355.95
21
-114.67
0
LINE
8
0
10
355.95
20
-114.67
11
355.95
21
-111.95
0
LINE
8
0
10
355.95
20
-111.95
11
354.6364299
21
-111.95
0
ARC
8
0
10
354.6364299
20
-110.95
40
1
50
234.0959303
51
270
0
ARC
8
0
10
354.6305237
20
-110.9457566
40
1
50
132.855336
51
234.5126163
0
ARC
8
0
10
352.25
20
-108.38
40
2.5
50
312.8553366
51
6.1506399
0
ARC
8
0
10
355.7298527
20
-108.005
40
1
50
90
51
186.1506399
0
LINE
8
0
10
355.8363974
20
-107.005
11
355.7298527
21
-107.005
0
ARC
8
0
10
355.8363974
20
-108.005
40
1
50
348.9125106
51
90
0
ARC
8
0
10
357.75
20
-108.38
40
0.95
50
168.9125107
51
11.0871451
0
ARC
8
0
10
359.6634816
20
-108.0043828
40
1
50
91.8376761
51
191.10597
0
ARC
8
0
10
359.625
20
-106.805
40
0.2
50
271.8376714
51
351.6144613
0
ARC
8
0
10
360.812171
20
-106.98
40
1
50
90
51
171.6144613
0
LINE
8
0
10
360.812171
20
-105.98
11
362.125
21
-105.98
0
LINE
8
0
10
362.125
20
-105.98
11
362.125
21
-103.38
0
LINE
8
0
10
362.125
20
-103.38
11
360.3496153
21
-103.38
0
ARC
8
0
10
360.3496153
20
-102.38
40
1
50
205.5028213
51
270
0
ARC
8
0
10
358.725
20
-103.155
40
0.8
50
25.5028228
51
90
0
LINE
8
0
10
355.85
20
-102.355
11
358.725
21
-102.355
0
ARC
8
0
10
355.85
20
-101.255
40
1.1
50
180
51
270
0
LINE
8
0
10
354.75
20
-101.0049727
11
354.75
21
-101.255
0
LINE
8
0
10
353.9000273
20
-100.155
11
354.75
21
-101.0049727
0
LINE
8
0
10
353.9000273
20
-100.155
11
350.8249727
21
-100.155
0
LINE
8
0
10
350.0928659
20
-100.8871068
11
350.8249727
21
-100.155
0
ARC
8
0
10
349.3857591
20
-100.18
40
1
50
270
51
315
0
LINE
8
0
10
349.3857591
20
-101.18
11
347.375
21
-101.18
0
ARC
8
0
10
346.386314
20
-101.03
40
1
50
270
51
351.3730735
0
LINE
8
0
10
346.386314
20
-102.03
11
345.15
21
-102.03
0
LINE
8
0
10
345.15
20
-102.03
11
345.15
21
-106.53
0
ARC
8
0
10
345.0004951
20
-107.518761
40
1
50
333.7900921
51
81.4017642
0
ARC
8
0
10
346.75
20
-108.38
40
0.95
50
153.7900908
51
53.5189398
0
ARC
8
0
10
347.9093862
20
-106.8120958
40
1
50
163.6146708
51
233.5189398
0
LINE
8
0
10
346.95
20
-106.53
11
346.95
21
-104.78
0
ARC
8
0
10
347.95
20
-104.78
40
1
50
90
51
180
0
LINE
8
0
10
347.95
20
-103.78
11
349.3857591
21
-103.78
0
ARC
8
0
10
349.3857591
20
-104.78
40
1
50
45
51
90
0
LINE
8
0
10
350.8249727
20
-104.805
11
350.0928659
21
-104.0728932
0
ARC
8
0
10
350.1727836
20
-105.5630563
40
1
50
306.4050931
51
49.2931447
0
ARC
8
0
10
352.25
20
-108.38
40
2.5
50
126.4050912
51
227.1446634
0
ARC
8
0
10
349.8694763
20
-110.9457566
40
1
50
305.4873837
51
47.144664
0
ARC
8
0
10
349.8635701
20
-110.95
40
1
50
270
51
305.9040697
0
LINE
8
0
10
328.3635701
20
-111.95
11
327.05
21
-111.95
0
ARC
8
0
10
326.0685255
20
-111.7584071
40
1
50
259.8073433
51
348.9542416
0
ARC
8
0
10
325.75
20
-113.53
40
0.8
50
79.8073425
51
285.9082215
0
ARC
8
0
10
326.243375
20
-115.2610636
40
1
50
36.2325194
51
105.9082203
0
LINE
8
0
10
327.05
20
-114.67
11
328.3635701
21
-114.67
0
ARC
8
0
10
328.3635701
20
-115.67
40
1
50
54.0959303
51
90
0
LINE
8
0
10
328.95
20
-114.86
11
332.55
21
-114.86
0
ARC
8
0
10
333.1364299
20
-115.67
40
1
50
90
51
125.9040697
0
LINE
8
0
10
333.1364299
20
-114.67
11
334.45
21
-114.67
0
LINE
8
0
10
334.45
20
-114.67
11
334.45
21
-111.95
0
LINE
8
0
10
334.45
20
-111.95
11
333.1364299
21
-111.95
0
ARC
8
0
10
333.1364299
20
-110.95
40
1
50
234.0959303
51
270
0
ARC
8
0
10
333.1305237
20
-110.9457566
40
1
50
132.855336
51
234.5126163
0
ARC
8
0
10
330.75
20
-108.38
40
2.5
50
312.8553366
51
6.1506399
0
ARC
8
0
10
334.2298527
20
-108.005
40
1
50
90
51
186.1506399
0
LINE
8
0
10
334.3363974
20
-107.005
11
334.2298527
21
-107.005
0
ARC
8
0
10
334.3363974
20
-108.005
40
1
50
348.9125106
51
90
0
ARC
8
0
10
336.25
20
-108.38
40
0.95
50
168.9125107
51
11.0871451
0
ARC
8
0
10
338.1634816
20
-108.0043828
40
1
50
91.8376761
51
191.10597
0
ARC
8
0
10
338.125
20
-106.805
40
0.2
50
271.8376714
51
351.6144613
0
ARC
8
0
10
339.312171
20
-106.98
40
1
50
90
51
171.6144613
0
LINE
8
0
10
339.312171
20
-105.98
11
340.625
21
-105.98
0
LINE
8
0
10
340.625
20
-105.98
11
340.625
21
-103.38
0
LINE
8
0
10
340.625
20
-103.38
11
338.8496153
21
-103.38
0
ARC
8
0
10
338.8496153
20
-102.38
40
1
50
205.5028213
51
270
0
ARC
8
0
10
337.225
20
-103.155
40
0.8
50
25.5028228
51
90
0
LINE
8
0
10
334.35
20
-102.355
11
337.225
21
-102.355
0
ARC
8
0
10
334.35
20
-101.255
40
1.1
50
180
51
270
0
LINE
8
0
10
333.25
20
-101.0049727
11
333.25
21
-101.255
0
LINE
8
0
10
332.4000273
20
-100.155
11
333.25
21
-101.0049727
0
LINE
8
0
10
332.4000273
20
-100.155
11
329.3249727
21
-100.155
0
LINE
8
0
10
328.5928659
20
-100.8871068
11
329.3249727
21
-100.155
0
ARC
8
0
10
327.8857591
20
-100.18
40
1
50
270
51
315
0
LINE
8
0
10
327.8857591
20
-101.18
11
325.875
21
-101.18
0
ARC
8
0
10
324.886314
20
-101.03
40
1
50
270
51
351.3730735
0
LINE
8
0
10
324.886314
20
-102.03
11
323.65
21
-102.03
0
LINE
8
0
10
323.65
20
-102.03
11
323.65
21
-106.53
0
ARC
8
0
10
323.5004951
20
-107.518761
40
1
50
333.7900921
51
81.4017642
0
ARC
8
0
10
325.25
20
-108.38
40
0.95
50
153.7900908
51
53.5189398
0
ARC
8
0
10
326.4093862
20
-106.8120958
40
1
50
163.6146708
51
233.5189398
0
LINE
8
0
10
325.45
20
-106.53
11
325.45
21
-104.78
0
ARC
8
0
10
326.45
20
-104.78
40
1
50
90
51
180
0
LINE
8
0
10
326.45
20
-103.78
11
327.8857591
21
-103.78
0
ARC
8
0
10
327.8857591
20
-104.78
40
1
50
45
51
90
0
LINE
8
0
10
329.3249727
20
-104.805
11
328.5928659
21
-104.0728932
0
ARC
8
0
10
328.6727836
20
-105.5630563
40
1
50
306.4050931
51
49.2931447
0
ARC
8
0
10
330.75
20
-108.38
40
2.5
50
126.4050912
51
227.1446634
0
ARC
8
0
10
328.3694763
20
-110.9457566
40
1
50
305.4873837
51
47.144664
0
ARC
8
0
10
328.3635701
20
-110.95
40
1
50
270
51
305.9040697
0
LINE
8
0
10
306.8635701
20
-111.95
11
305.55
21
-111.95
0
ARC
8
0
10
304.5685255
20
-111.7584071
40
1
50
259.8073433
51
348.9542416
0
ARC
8
0
10
304.25
20
-113.53
40
0.8
50
79.8073425
51
285.9082215
0
ARC
8
0
10
304.743375
20
-115.2610636
40
1
50
36.2325194
51
105.9082203
0
LINE
8
0
10
305.55
20
-114.67
11
306.8635701
21
-114.67
0
ARC
8
0
10
306.8635701
20
-115.67
40
1
50
54.0959303
51
90
0
LINE
8
0
10
307.45
20
-114.86
11
311.05
21
-114.86
0
ARC
8
0
10
311.6364299
20
-115.67
40
1
50
90
51
125.9040697
0
LINE
8
0
10
311.6364299
20
-114.67
11
312.95
21
-114.67
0
LINE
8
0
10
312.95
20
-114.67
11
312.95
21
-111.95
0
LINE
8
0
10
312.95
20
-111.95
11
311.6364299
21
-111.95
0
ARC
8
0
10
311.6364299
20
-110.95
40
1
50
234.0959303
51
270
0
ARC
8
0
10
311.6305237
20
-110.9457566
40
1
50
132.855336
51
234.5126163
0
ARC
8
0
10
309.25
20
-108.38
40
2.5
50
312.8553366
51
6.1506399
0
ARC
8
0
10
312.7298527
20
-108.005
40
1
50
90
51
186.1506399
0
LINE
8
0
10
312.8363974
20
-107.005
11
312.7298527
21
-107.005
0
ARC
8
0
10
312.8363974
20
-108.005
40
1
50
348.9125106
51
90
0
ARC
8
0
10
314.75
20
-108.38
40
0.95
50
168.9125107
51
11.0871451
0
ARC
8
0
10
316.6634816
20
-108.0043828
40
1
50
91.8376761
51
191.10597
0
ARC
8
0
10
316.625
20
-106.805
40
0.2
50
271.8376714
51
351.6144613
0
ARC
8
0
10
317.812171
20
-106.98
40
1
50
90
51
171.6144613
0
LINE
8
0
10
317.812171
20
-105.98
11
319.125
21
-105.98
0
LINE
8
0
10
319.125
20
-105.98
11
319.125
21
-103.38
0
LINE
8
0
10
319.125
20
-103.38
11
317.3496153
21
-103.38
0
ARC
8
0
10
317.3496153
20
-102.38
40
1
50
205.5028213
51
270
0
ARC
8
0
10
315.725
20
-103.155
40
0.8
50
25.5028228
51
90
0
LINE
8
0
10
312.85
20
-102.355
11
315.725
21
-102.355
0
ARC
8
0
10
312.85
20
-101.255
40
1.1
50
180
51
270
0
LINE
8
0
10
311.75
20
-101.0049727
11
311.75
21
-101.255
0
LINE
8
0
10
310.9000273
20
-100.155
11
311.75
21
-101.0049727
0
LINE
8
0
10
310.9000273
20
-100.155
11
307.8249727
21
-100.155
0
LINE
8
0
10
307.0928659
20
-100.8871068
11
307.8249727
21
-100.155
0
ARC
8
0
10
306.3857591
20
-100.18
40
1
50
270
51
315
0
LINE
8
0
10
306.3857591
20
-101.18
11
304.375
21
-101.18
0
ARC
8
0
10
303.386314
20
-101.03
40
1
50
270
51
351.3730735
0
LINE
8
0
10
303.386314
20
-102.03
11
302.15
21
-102.03
0
LINE
8
0
10
302.15
20
-102.03
11
302.15
21
-106.53
0
ARC
8
0
10
302.0004951
20
-107.518761
40
1
50
333.7900921
51
81.4017642
0
ARC
8
0
10
303.75
20
-108.38
40
0.95
50
153.7900908
51
53.5189398
0
ARC
8
0
10
304.9093862
20
-106.8120958
40
1
50
163.6146708
51
233.5189398
0
LINE
8
0
10
303.95
20
-106.53
11
303.95
21
-104.78
0
ARC
8
0
10
304.95
20
-104.78
40
1
50
90
51
180
0
LINE
8
0
10
304.95
20
-103.78
11
306.3857591
21
-103.78
0
ARC
8
0
10
306.3857591
20
-104.78
40
1
50
45
51
90
0
LINE
8
0
10
307.8249727
20
-104.805
11
307.0928659
21
-104.0728932
0
ARC
8
0
10
307.1727836
20
-105.5630563
40
1
50
306.4050931
51
49.2931447
0
ARC
8
0
10
309.25
20
-108.38
40
2.5
50
126.4050912
51
227.1446634
0
ARC
8
0
10
306.8694763
20
-110.9457566
40
1
50
305.4873837
51
47.144664
0
ARC
8
0
10
306.8635701
20
-110.95
40
1
50
270
51
305.9040697
0
LINE
8
0
10
364.8984957
20
-93.6117089
11
364.2417107
21
-94.749294
0
ARC
8
0
10
363.5850491
20
-95.5034794
40
1
50
319.8073433
51
48.9542416
0
ARC
8
0
10
364.9600308
20
-96.665127
40
0.8
50
139.8073425
51
345.9082215
0
ARC
8
0
10
366.7058634
20
-97.1033835
40
1
50
96.2325194
51
165.9082203
0
LINE
8
0
10
366.5972998
20
-96.109294
11
367.2540848
21
-94.9717089
0
ARC
8
0
10
368.1201102
20
-95.4717089
40
1
50
114.0959303
51
150
0
LINE
8
0
10
367.7118446
20
-94.5588457
11
369.5118446
21
-91.4411543
0
ARC
8
0
10
370.5065401
20
-91.3382911
40
1
50
150
51
185.9040697
0
LINE
8
0
10
369.6405147
20
-90.8382911
11
370.2972998
21
-89.700706
0
LINE
8
0
10
370.2972998
20
-89.700706
11
367.9417107
21
-88.340706
0
LINE
8
0
10
367.9417107
20
-88.340706
11
367.2849256
21
-89.4782911
0
ARC
8
0
10
366.4189002
20
-88.9782911
40
1
50
294.0959303
51
330
0
ARC
8
0
10
366.4122722
20
-88.9812843
40
1
50
192.855336
51
294.5126163
0
ARC
8
0
10
363
20
-89.76
40
2.5
50
12.8553366
51
66.1506399
0
ARC
8
0
10
364.4151668
20
-86.5588592
40
1
50
150
51
246.1506399
0
LINE
8
0
10
363.6024138
20
-85.9665887
11
363.5491414
21
-86.0588592
0
ARC
8
0
10
364.4684392
20
-86.4665887
40
1
50
48.9125106
51
150
0
ARC
8
0
10
365.75
20
-84.9968603
40
0.95
50
228.9125107
51
71.0871451
0
ARC
8
0
10
366.3814468
20
-83.151928
40
1
50
151.8376761
51
251.10597
0
ARC
8
0
10
365.32351
20
-82.5855626
40
0.2
50
331.8376714
51
51.6144613
0
ARC
8
0
10
366.0686499
20
-81.6449424
40
1
50
150
51
231.6144613
0
LINE
8
0
10
365.2026245
20
-81.1449424
11
365.859039
21
-80.0079991
0
LINE
8
0
10
365.859039
20
-80.0079991
11
363.607373
21
-78.7079991
0
LINE
8
0
10
363.607373
20
-78.7079991
11
362.7196806
21
-80.2455274
0
ARC
8
0
10
361.8536552
20
-79.7455274
40
1
50
265.5028213
51
330
0
ARC
8
0
10
361.7125173
20
-81.5399855
40
0.8
50
85.5028228
51
150
0
LINE
8
0
10
359.5821969
20
-83.6298085
11
361.0196969
21
-81.1399855
0
ARC
8
0
10
358.629569
20
-83.0798085
40
1.1
50
240
51
330
0
LINE
8
0
10
357.863039
20
-83.9074228
11
358.079569
21
-84.0324365
0
LINE
8
0
10
356.7019547
20
-84.2185344
11
357.863039
21
-83.9074228
0
LINE
8
0
10
356.7019547
20
-84.2185344
11
355.1644274
21
-86.8816098
0
LINE
8
0
10
355.4323971
20
-87.8816863
11
355.1644274
21
-86.8816098
0
ARC
8
0
10
354.4664712
20
-88.1405054
40
1
50
330
51
15
0
LINE
8
0
10
355.3324966
20
-88.6405054
11
354.3271171
21
-90.3818738
0
ARC
8
0
10
353.7028703
20
-91.163101
40
1
50
330
51
51.3730735
0
LINE
8
0
10
354.5688957
20
-91.663101
11
353.9507387
21
-92.7337804
0
LINE
8
0
10
353.9507387
20
-92.7337804
11
357.847853
21
-94.9837804
0
ARC
8
0
10
358.6293927
20
-95.6076359
40
1
50
33.7900921
51
141.4017642
0
ARC
8
0
10
360.25
20
-94.5231397
40
0.95
50
213.7900908
51
113.5189398
0
ARC
8
0
10
359.4718482
20
-92.7351297
40
1
50
223.6146708
51
293.5189398
0
LINE
8
0
10
358.747853
20
-93.4249346
11
357.2323085
21
-92.5499346
0
ARC
8
0
10
357.7323085
20
-91.6839092
40
1
50
150
51
240
0
LINE
8
0
10
356.8662831
20
-91.1839092
11
357.5841627
21
-89.9405054
0
ARC
8
0
10
358.4501881
20
-90.4405054
40
1
50
105
51
150
0
LINE
8
0
10
359.1914455
20
-89.2066098
11
358.191369
21
-89.4745795
0
ARC
8
0
10
359.521847
20
-90.1504503
40
1
50
6.4050931
51
109.2931447
0
ARC
8
0
10
363
20
-89.76
40
2.5
50
186.4050912
51
287.1446634
0
ARC
8
0
10
364.0317485
20
-93.1044723
40
1
50
5.4873837
51
107.144664
0
ARC
8
0
10
364.0324703
20
-93.1117089
40
1
50
330
51
5.9040697
0
LINE
8
0
10
337.2150744
20
-89.4782911
11
336.5582893
21
-88.340706
0
ARC
8
0
10
336.2334764
20
-87.3949277
40
1
50
199.8073433
51
288.9542416
0
ARC
8
0
10
334.5399692
20
-88.004873
40
0.8
50
19.8073425
51
225.9082215
0
ARC
8
0
10
333.2875116
20
-89.2976801
40
1
50
336.2325194
51
45.9082203
0
LINE
8
0
10
334.2027002
20
-89.700706
11
334.8594853
21
-90.8382911
0
ARC
8
0
10
333.9934599
20
-91.3382911
40
1
50
354.0959303
51
30
0
LINE
8
0
10
334.9881554
20
-91.4411543
11
336.7881554
21
-94.5588457
0
ARC
8
0
10
336.3798898
20
-95.4717089
40
1
50
30
51
65.9040697
0
LINE
8
0
10
337.2459152
20
-94.9717089
11
337.9027002
21
-96.109294
0
LINE
8
0
10
337.9027002
20
-96.109294
11
340.2582893
21
-94.749294
0
LINE
8
0
10
340.2582893
20
-94.749294
11
339.6015043
21
-93.6117089
0
ARC
8
0
10
340.4675297
20
-93.1117089
40
1
50
174.0959303
51
210
0
ARC
8
0
10
340.4682515
20
-93.1044723
40
1
50
72.855336
51
174.5126163
0
ARC
8
0
10
341.5
20
-89.76
40
2.5
50
252.8553366
51
306.1506399
0
ARC
8
0
10
343.5646859
20
-92.5861408
40
1
50
30
51
126.1506399
0
LINE
8
0
10
344.4839836
20
-92.1784113
11
344.4307113
21
-92.0861408
0
ARC
8
0
10
343.6179582
20
-92.6784113
40
1
50
288.9125106
51
30
0
ARC
8
0
10
344.25
20
-94.5231397
40
0.95
50
108.9125107
51
311.0871451
0
ARC
8
0
10
345.5320348
20
-95.9924548
40
1
50
31.8376761
51
131.10597
0
ARC
8
0
10
346.55149
20
-95.3594374
40
0.2
50
211.8376714
51
291.6144613
0
ARC
8
0
10
346.9935211
20
-96.4750576
40
1
50
30
51
111.6144613
0
LINE
8
0
10
347.8595465
20
-95.9750576
11
348.515961
21
-97.1120009
0
LINE
8
0
10
348.515961
20
-97.1120009
11
350.767627
21
-95.8120009
0
LINE
8
0
10
350.767627
20
-95.8120009
11
349.8799347
21
-94.2744726
0
ARC
8
0
10
350.7459601
20
-93.7744726
40
1
50
145.5028213
51
210
0
ARC
8
0
10
349.2624827
20
-92.7550145
40
0.8
50
325.5028228
51
30
0
LINE
8
0
10
348.5178031
20
-89.8651915
11
349.9553031
21
-92.3550145
0
ARC
8
0
10
349.470431
20
-89.3151915
40
1.1
50
120
51
210
0
LINE
8
0
10
349.136961
20
-88.2375499
11
348.920431
21
-88.3625635
0
LINE
8
0
10
349.4480726
20
-87.0764656
11
349.136961
21
-88.2375499
0
LINE
8
0
10
349.4480726
20
-87.0764656
11
347.9105453
21
-84.4133902
0
LINE
8
0
10
346.9104688
20
-84.1454205
11
347.9105453
21
-84.4133902
0
ARC
8
0
10
347.1692879
20
-83.1794946
40
1
50
210
51
255
0
LINE
8
0
10
346.3032625
20
-83.6794946
11
345.2978829
21
-81.9381262
0
ARC
8
0
10
344.9334437
20
-81.006899
40
1
50
210
51
291.3730735
0
LINE
8
0
10
344.0674183
20
-81.506899
11
343.4492613
21
-80.4362196
0
LINE
8
0
10
343.4492613
20
-80.4362196
11
339.552147
21
-82.6862196
0
ARC
8
0
10
338.6211024
20
-83.0511251
40
1
50
273.7900921
51
21.4017642
0
ARC
8
0
10
338.75
20
-84.9968603
40
0.95
50
93.7900908
51
353.5189398
0
ARC
8
0
10
340.687538
20
-85.2169661
40
1
50
103.6146708
51
173.5189398
0
LINE
8
0
10
340.452147
20
-84.2450654
11
341.9676915
21
-83.3700654
0
ARC
8
0
10
342.4676915
20
-84.2360908
40
1
50
30
51
120
0
LINE
8
0
10
343.3337169
20
-83.7360908
11
344.0515964
21
-84.9794946
0
ARC
8
0
10
343.185571
20
-85.4794946
40
1
50
345
51
30
0
LINE
8
0
10
343.8835272
20
-86.7383902
11
344.1514969
21
-85.7383137
0
ARC
8
0
10
342.9009366
20
-86.552606
40
1
50
246.4050931
51
349.2931447
0
ARC
8
0
10
341.5
20
-89.76
40
2.5
50
66.4050912
51
167.1446634
0
ARC
8
0
10
338.0877278
20
-88.9812843
40
1
50
245.4873837
51
347.144664
0
ARC
8
0
10
338.0810998
20
-88.9782911
40
1
50
210
51
245.9040697
0
LINE
8
0
10
315.7150744
20
-89.4782911
11
315.0582893
21
-88.340706
0
ARC
8
0
10
314.7334764
20
-87.3949277
40
1
50
199.8073433
51
288.9542416
0
ARC
8
0
10
313.0399692
20
-88.004873
40
0.8
50
19.8073425
51
225.9082215
0
ARC
8
0
10
311.7875116
20
-89.2976801
40
1
50
336.2325194
51
45.9082203
0
LINE
8
0
10
312.7027002
20
-89.700706
11
313.3594853
21
-90.8382911
0
ARC
8
0
10
312.4934599
20
-91.3382911
40
1
50
354.0959303
51
30
0
LINE
8
0
10
313.4881554
20
-91.4411543
11
315.2881554
21
-94.5588457
0
ARC
8
0
10
314.8798898
20
-95.4717089
40
1
50
30
51
65.9040697
0
LINE
8
0
10
315.7459152
20
-94.9717089
11
316.4027002
21
-96.109294
0
LINE
8
0
10
316.4027002
20
-96.109294
11
318.7582893
21
-94.749294
0
LINE
8
0
10
318.7582893
20
-94.749294
11
318.1015043
21
-93.6117089
0
ARC
8
0
10
318.9675297
20
-93.1117089
40
1
50
174.0959303
51
210
0
ARC
8
0
10
318.9682515
20
-93.1044723
40
1
50
72.855336
51
174.5126163
0
ARC
8
0
10
320
20
-89.76
40
2.5
50
252.8553366
51
306.1506399
0
ARC
8
0
10
322.0646859
20
-92.5861408
40
1
50
30
51
126.1506399
0
LINE
8
0
10
322.9839836
20
-92.1784113
11
322.9307113
21
-92.0861408
0
ARC
8
0
10
322.1179582
20
-92.6784113
40
1
50
288.9125106
51
30
0
ARC
8
0
10
322.75
20
-94.5231397
40
0.95
50
108.9125107
51
311.0871451
0
ARC
8
0
10
324.0320348
20
-95.9924548
40
1
50
31.8376761
51
131.10597
0
ARC
8
0
10
325.05149
20
-95.3594374
40
0.2
50
211.8376714
51
291.6144613
0
ARC
8
0
10
325.4935211
20
-96.4750576
40
1
50
30
51
111.6144613
0
LINE
8
0
10
326.3595465
20
-95.9750576
11
327.015961
21
-97.1120009
0
LINE
8
0
10
327.015961
20
-97.1120009
11
329.267627
21
-95.8120009
0
LINE
8
0
10
329.267627
20
-95.8120009
11
328.3799347
21
-94.2744726
0
ARC
8
0
10
329.2459601
20
-93.7744726
40
1
50
145.5028213
51
210
0
ARC
8
0
10
327.7624827
20
-92.7550145
40
0.8
50
325.5028228
51
30
0
LINE
8
0
10
327.0178031
20
-89.8651915
11
328.4553031
21
-92.3550145
0
ARC
8
0
10
327.970431
20
-89.3151915
40
1.1
50
120
51
210
0
LINE
8
0
10
327.636961
20
-88.2375499
11
327.420431
21
-88.3625635
0
LINE
8
0
10
327.9480726
20
-87.0764656
11
327.636961
21
-88.2375499
0
LINE
8
0
10
327.9480726
20
-87.0764656
11
326.4105453
21
-84.4133902
0
LINE
8
0
10
325.4104688
20
-84.1454205
11
326.4105453
21
-84.4133902
0
ARC
8
0
10
325.6692879
20
-83.1794946
40
1
50
210
51
255
0
LINE
8
0
10
324.8032625
20
-83.6794946
11
323.7978829
21
-81.9381262
0
ARC
8
0
10
323.4334437
20
-81.006899
40
1
50
210
51
291.3730735
0
LINE
8
0
10
322.5674183
20
-81.506899
11
321.9492613
21
-80.4362196
0
LINE
8
0
10
321.9492613
20
-80.4362196
11
318.052147
21
-82.6862196
0
ARC
8
0
10
317.1211024
20
-83.0511251
40
1
50
273.7900921
51
21.4017642
0
ARC
8
0
10
317.25
20
-84.9968603
40
0.95
50
93.7900908
51
353.5189398
0
ARC
8
0
10
319.187538
20
-85.2169661
40
1
50
103.6146708
51
173.5189398
0
LINE
8
0
10
318.952147
20
-84.2450654
11
320.4676915
21
-83.3700654
0
ARC
8
0
10
320.9676915
20
-84.2360908
40
1
50
30
51
120
0
LINE
8
0
10
321.8337169
20
-83.7360908
11
322.5515964
21
-84.9794946
0
ARC
8
0
10
321.685571
20
-85.4794946
40
1
50
345
51
30
0
LINE
8
0
10
322.3835272
20
-86.7383902
11
322.6514969
21
-85.7383137
0
ARC
8
0
10
321.4009366
20
-86.552606
40
1
50
246.4050931
51
349.2931447
0
ARC
8
0
10
320
20
-89.76
40
2.5
50
66.4050912
51
167.1446634
0
ARC
8
0
10
316.5877278
20
-88.9812843
40
1
50
245.4873837
51
347.144664
0
ARC
8
0
10
316.5810998
20
-88.9782911
40
1
50
210
51
245.9040697
0
LINE
8
0
10
294.2150744
20
-89.4782911
11
293.5582893
21
-88.340706
0
ARC
8
0
10
293.2334764
20
-87.3949277
40
1
50
199.8073433
51
288.9542416
0
ARC
8
0
10
291.5399692
20
-88.004873
40
0.8
50
19.8073425
51
225.9082215
0
ARC
8
0
10
290.2875116
20
-89.2976801
40
1
50
336.2325194
51
45.9082203
0
LINE
8
0
10
291.2027002
20
-89.700706
11
291.8594853
21
-90.8382911
0
ARC
8
0
10
290.9934599
20
-91.3382911
40
1
50
354.0959303
51
30
0
LINE
8
0
10
291.9881554
20
-91.4411543
11
293.7881554
21
-94.5588457
0
ARC
8
0
10
293.3798898
20
-95.4717089
40
1
50
30
51
65.9040697
0
LINE
8
0
10
294.2459152
20
-94.9717089
11
294.9027002
21
-96.109294
0
LINE
8
0
10
294.9027002
20
-96.109294
11
297.2582893
21
-94.749294
0
LINE
8
0
10
297.2582893
20
-94.749294
11
296.6015043
21
-93.6117089
0
ARC
8
0
10
297.4675297
20
-93.1117089
40
1
50
174.0959303
51
210
0
ARC
8
0
10
297.4682515
20
-93.1044723
40
1
50
72.855336
51
174.5126163
0
ARC
8
0
10
298.5
20
-89.76
40
2.5
50
252.8553366
51
306.1506399
0
ARC
8
0
10
300.5646859
20
-92.5861408
40
1
50
30
51
126.1506399
0
LINE
8
0
10
301.4839836
20
-92.1784113
11
301.4307113
21
-92.0861408
0
ARC
8
0
10
300.6179582
20
-92.6784113
40
1
50
288.9125106
51
30
0
ARC
8
0
10
301.25
20
-94.5231397
40
0.95
50
108.9125107
51
311.0871451
0
ARC
8
0
10
302.5320348
20
-95.9924548
40
1
50
31.8376761
51
131.10597
0
ARC
8
0
10
303.55149
20
-95.3594374
40
0.2
50
211.8376714
51
291.6144613
0
ARC
8
0
10
303.9935211
20
-96.4750576
40
1
50
30
51
111.6144613
0
LINE
8
0
10
304.8595465
20
-95.9750576
11
305.515961
21
-97.1120009
0
LINE
8
0
10
305.515961
20
-97.1120009
11
307.767627
21
-95.8120009
0
LINE
8
0
10
307.767627
20
-95.8120009
11
306.8799347
21
-94.2744726
0
ARC
8
0
10
307.7459601
20
-93.7744726
40
1
50
145.5028213
51
210
0
ARC
8
0
10
306.2624827
20
-92.7550145
40
0.8
50
325.5028228
51
30
0
LINE
8
0
10
305.5178031
20
-89.8651915
11
306.9553031
21
-92.3550145
0
ARC
8
0
10
306.470431
20
-89.3151915
40
1.1
50
120
51
210
0
LINE
8
0
10
306.136961
20
-88.2375499
11
305.920431
21
-88.3625635
0
LINE
8
0
10
306.4480726
20
-87.0764656
11
306.136961
21
-88.2375499
0
LINE
8
0
10
306.4480726
20
-87.0764656
11
304.9105453
21
-84.4133902
0
LINE
8
0
10
303.9104688
20
-84.1454205
11
304.9105453
21
-84.4133902
0
ARC
8
0
10
304.1692879
20
-83.1794946
40
1
50
210
51
255
0
LINE
8
0
10
303.3032625
20
-83.6794946
11
302.2978829
21
-81.9381262
0
ARC
8
0
10
301.9334437
20
-81.006899
40
1
50
210
51
291.3730735
0
LINE
8
0
10
301.0674183
20
-81.506899
11
300.4492613
21
-80.4362196
0
LINE
8
0
10
300.4492613
20
-80.4362196
11
296.552147
21
-82.6862196
0
ARC
8
0
10
295.6211024
20
-83.0511251
40
1
50
273.7900921
51
21.4017642
0
ARC
8
0
10
295.75
20
-84.9968603
40
0.95
50
93.7900908
51
353.5189398
0
ARC
8
0
10
297.687538
20
-85.2169661
40
1
50
103.6146708
51
173.5189398
0
LINE
8
0
10
297.452147
20
-84.2450654
11
298.9676915
21
-83.3700654
0
ARC
8
0
10
299.4676915
20
-84.2360908
40
1
50
30
51
120
0
LINE
8
0
10
300.3337169
20
-83.7360908
11
301.0515964
21
-84.9794946
0
ARC
8
0
10
300.185571
20
-85.4794946
40
1
50
345
51
30
0
LINE
8
0
10
300.8835272
20
-86.7383902
11
301.1514969
21
-85.7383137
0
ARC
8
0
10
299.9009366
20
-86.552606
40
1
50
246.4050931
51
349.2931447
0
ARC
8
0
10
298.5
20
-89.76
40
2.5
50
66.4050912
51
167.1446634
0
ARC
8
0
10
295.0877278
20
-88.9812843
40
1
50
245.4873837
51
347.144664
0
ARC
8
0
10
295.0810998
20
-88.9782911
40
1
50
210
51
245.9040697
0
LINE
8
0
10
354.6364299
20
-67.57
11
355.95
21
-67.57
0
ARC
8
0
10
356.9314745
20
-67.7615929
40
1
50
439.8073433
51
528.9542416
0
ARC
8
0
10
357.25
20
-65.99
40
0.8
50
259.8073425
51
465.9082215
0
ARC
8
0
10
356.756625
20
-64.2589364
40
1
50
216.2325194
51
285.9082203
0
LINE
8
0
10
355.95
20
-64.85
11
354.6364299
21
-64.85
0
ARC
8
0
10
354.6364299
20
-63.85
40
1
50
234.0959303
51
270
0
LINE
8
0
10
354.05
20
-64.66
11
350.45
21
-64.66
0
ARC
8
0
10
349.8635701
20
-63.85
40
1
50
270
51
305.9040697
0
LINE
8
0
10
349.8635701
20
-64.85
11
348.55
21
-64.85
0
LINE
8
0
10
348.55
20
-64.85
11
348.55
21
-67.57
0
LINE
8
0
10
348.55
20
-67.57
11
349.8635701
21
-67.57
0
ARC
8
0
10
349.8635701
20
-68.57
40
1
50
414.0959303
51
90
0
ARC
8
0
10
349.8694763
20
-68.5742434
40
1
50
312.855336
51
414.5126163
0
ARC
8
0
10
352.25
20
-71.14
40
2.5
50
132.8553366
51
186.1506399
0
ARC
8
0
10
348.7701473
20
-71.515
40
1
50
270
51
366.1506399
0
LINE
8
0
10
348.6636026
20
-72.515
11
348.7701473
21
-72.515
0
ARC
8
0
10
348.6636026
20
-71.515
40
1
50
168.9125106
51
270
0
ARC
8
0
10
346.75
20
-71.14
40
0.95
50
348.9125107
51
551.0871451
0
ARC
8
0
10
344.8365184
20
-71.5156172
40
1
50
631.8376761
51
731.10597
0
ARC
8
0
10
344.875
20
-72.715
40
0.2
50
91.8376714
51
171.6144613
0
ARC
8
0
10
343.687829
20
-72.54
40
1
50
270
51
351.6144613
0
LINE
8
0
10
343.687829
20
-73.54
11
342.375
21
-73.54
0
LINE
8
0
10
342.375
20
-73.54
11
342.375
21
-76.14
0
LINE
8
0
10
342.375
20
-76.14
11
344.1503847
21
-76.14
0
ARC
8
0
10
344.1503847
20
-77.14
40
1
50
385.5028213
51
90
0
ARC
8
0
10
345.775
20
-76.365
40
0.8
50
205.5028228
51
270
0
LINE
8
0
10
348.65
20
-77.165
11
345.775
21
-77.165
0
ARC
8
0
10
348.65
20
-78.265
40
1.1
50
0
51
90
0
LINE
8
0
10
349.75
20
-78.5150273
11
349.75
21
-78.265
0
LINE
8
0
10
350.5999727
20
-79.365
11
349.75
21
-78.5150273
0
LINE
8
0
10
350.5999727
20
-79.365
11
353.6750273
21
-79.365
0
LINE
8
0
10
354.4071341
20
-78.6328932
11
353.6750273
21
-79.365
0
ARC
8
0
10
355.1142409
20
-79.34
40
1
50
450
51
135
0
LINE
8
0
10
355.1142409
20
-78.34
11
357.125
21
-78.34
0
ARC
8
0
10
358.113686
20
-78.49
40
1
50
450
51
531.3730735
0
LINE
8
0
10
358.113686
20
-77.49
11
359.35
21
-77.49
0
LINE
8
0
10
359.35
20
-77.49
11
359.35
21
-72.99
0
ARC
8
0
10
359.4995049
20
-72.001239
40
1
50
153.7900921
51
261.4017642
0
ARC
8
0
10
357.75
20
-71.14
40
0.95
50
333.7900908
51
593.5189398
0
ARC
8
0
10
356.5906138
20
-72.7079042
40
1
50
703.6146708
51
773.5189398
0
LINE
8
0
10
357.55
20
-72.99
11
357.55
21
-74.74
0
ARC
8
0
10
356.55
20
-74.74
40
1
50
270
51
0
0
LINE
8
0
10
356.55
20
-75.74
11
355.1142409
21
-75.74
0
ARC
8
0
10
355.1142409
20
-74.74
40
1
50
225
51
270
0
LINE
8
0
10
353.6750273
20
-74.715
11
354.4071341
21
-75.4471068
0
ARC
8
0
10
354.3272164
20
-73.9569437
40
1
50
126.4050931
51
229.2931447
0
ARC
8
0
10
352.25
20
-71.14
40
2.5
50
306.4050912
51
407.1446634
0
ARC
8
0
10
354.6305237
20
-68.5742434
40
1
50
485.4873837
51
587.144664
0
ARC
8
0
10
354.6364299
20
-68.57
40
1
50
450
51
485.9040697
0
LINE
8
0
10
328.8515043
20
-67.2882911
11
329.5082893
21
-66.150706
0
ARC
8
0
10
330.1649509
20
-65.3965206
40
1
50
139.8073433
51
228.9542416
0
ARC
8
0
10
328.7899692
20
-64.234873
40
0.8
50
319.8073425
51
165.9082215
0
ARC
8
0
10
327.0441366
20
-63.7966165
40
1
50
276.2325194
51
345.9082203
0
LINE
8
0
10
327.1527002
20
-64.790706
11
326.4959152
21
-65.9282911
0
ARC
8
0
10
325.6298898
20
-65.4282911
40
1
50
294.0959303
51
330
0
LINE
8
0
10
326.0381554
20
-66.3411543
11
324.2381554
21
-69.4588457
0
ARC
8
0
10
323.2434599
20
-69.5617089
40
1
50
330
51
5.9040697
0
LINE
8
0
10
324.1094853
20
-70.0617089
11
323.4527002
21
-71.199294
0
LINE
8
0
10
323.4527002
20
-71.199294
11
325.8082893
21
-72.559294
0
LINE
8
0
10
325.8082893
20
-72.559294
11
326.4650744
21
-71.4217089
0
ARC
8
0
10
327.3310998
20
-71.9217089
40
1
50
114.0959303
51
150
0
ARC
8
0
10
327.3377278
20
-71.9187157
40
1
50
12.855336
51
114.5126163
0
ARC
8
0
10
330.75
20
-71.14
40
2.5
50
192.8553366
51
246.1506399
0
ARC
8
0
10
329.3348332
20
-74.3411408
40
1
50
330
51
66.1506399
0
LINE
8
0
10
330.1475862
20
-74.9334113
11
330.2008586
21
-74.8411408
0
ARC
8
0
10
329.2815608
20
-74.4334113
40
1
50
228.9125106
51
330
0
ARC
8
0
10
328
20
-75.9031397
40
0.95
50
48.9125107
51
251.0871451
0
ARC
8
0
10
327.3685532
20
-77.748072
40
1
50
331.8376761
51
71.10597
0
ARC
8
0
10
328.42649
20
-78.3144374
40
0.2
50
151.8376714
51
231.6144613
0
ARC
8
0
10
327.6813501
20
-79.2550576
40
1
50
330
51
51.6144613
0
LINE
8
0
10
328.5473755
20
-79.7550576
11
327.890961
21
-80.8920009
0
LINE
8
0
10
327.890961
20
-80.8920009
11
330.142627
21
-82.1920009
0
LINE
8
0
10
330.142627
20
-82.1920009
11
331.0303194
21
-80.6544726
0
ARC
8
0
10
331.8963448
20
-81.1544726
40
1
50
85.5028213
51
150
0
ARC
8
0
10
332.0374827
20
-79.3600145
40
0.8
50
265.5028228
51
330
0
LINE
8
0
10
334.1678031
20
-77.2701915
11
332.7303031
21
-79.7600145
0
ARC
8
0
10
335.120431
20
-77.8201915
40
1.1
50
60
51
150
0
LINE
8
0
10
335.886961
20
-76.9925772
11
335.670431
21
-76.8675635
0
LINE
8
0
10
337.0480453
20
-76.6814656
11
335.886961
21
-76.9925772
0
LINE
8
0
10
337.0480453
20
-76.6814656
11
338.5855726
21
-74.0183902
0
LINE
8
0
10
338.3176029
20
-73.0183137
11
338.5855726
21
-74.0183902
0
ARC
8
0
10
339.2835288
20
-72.7594946
40
1
50
150
51
195
0
LINE
8
0
10
338.4175034
20
-72.2594946
11
339.4228829
21
-70.5181262
0
ARC
8
0
10
340.0471297
20
-69.736899
40
1
50
150
51
231.3730735
0
LINE
8
0
10
339.1811043
20
-69.236899
11
339.7992613
21
-68.1662196
0
LINE
8
0
10
339.7992613
20
-68.1662196
11
335.902147
21
-65.9162196
0
ARC
8
0
10
335.1206073
20
-65.2923641
40
1
50
213.7900921
51
321.4017642
0
ARC
8
0
10
333.5
20
-66.3768603
40
0.95
50
33.7900908
51
293.5189398
0
ARC
8
0
10
334.2781518
20
-68.1648703
40
1
50
43.6146708
51
113.5189398
0
LINE
8
0
10
335.002147
20
-67.4750654
11
336.5176915
21
-68.3500654
0
ARC
8
0
10
336.0176915
20
-69.2160908
40
1
50
330
51
60
0
LINE
8
0
10
336.8837169
20
-69.7160908
11
336.1658373
21
-70.9594946
0
ARC
8
0
10
335.2998119
20
-70.4594946
40
1
50
285
51
330
0
LINE
8
0
10
334.5585545
20
-71.6933902
11
335.558631
21
-71.4254205
0
ARC
8
0
10
334.228153
20
-70.7495497
40
1
50
186.4050931
51
289.2931447
0
ARC
8
0
10
330.75
20
-71.14
40
2.5
50
6.4050912
51
107.1446634
0
ARC
8
0
10
329.7182515
20
-67.7955277
40
1
50
185.4873837
51
287.144664
0
ARC
8
0
10
329.7175297
20
-67.7882911
40
1
50
150
51
185.9040697
0
LINE
8
0
10
307.3515043
20
-67.2882911
11
308.0082893
21
-66.150706
0
ARC
8
0
10
308.6649509
20
-65.3965206
40
1
50
139.8073433
51
228.9542416
0
ARC
8
0
10
307.2899692
20
-64.234873
40
0.8
50
319.8073425
51
165.9082215
0
ARC
8
0
10
305.5441366
20
-63.7966165
40
1
50
276.2325194
51
345.9082203
0
LINE
8
0
10
305.6527002
20
-64.790706
11
304.9959152
21
-65.9282911
0
ARC
8
0
10
304.1298898
20
-65.4282911
40
1
50
294.0959303
51
330
0
LINE
8
0
10
304.5381554
20
-66.3411543
11
302.7381554
21
-69.4588457
0
ARC
8
0
10
301.7434599
20
-69.5617089
40
1
50
330
51
5.9040697
0
LINE
8
0
10
302.6094853
20
-70.0617089
11
301.9527002
21
-71.199294
0
LINE
8
0
10
301.9527002
20
-71.199294
11
304.3082893
21
-72.559294
0
LINE
8
0
10
304.3082893
20
-72.559294
11
304.9650744
21
-71.4217089
0
ARC
8
0
10
305.8310998
20
-71.9217089
40
1
50
114.0959303
51
150
0
ARC
8
0
10
305.8377278
20
-71.9187157
40
1
50
12.855336
51
114.5126163
0
ARC
8
0
10
309.25
20
-71.14
40
2.5
50
192.8553366
51
246.1506399
0
ARC
8
0
10
307.8348332
20
-74.3411408
40
1
50
330
51
66.1506399
0
LINE
8
0
10
308.6475862
20
-74.9334113
11
308.7008586
21
-74.8411408
0
ARC
8
0
10
307.7815608
20
-74.4334113
40
1
50
228.9125106
51
330
0
ARC
8
0
10
306.5
20
-75.9031397
40
0.95
50
48.9125107
51
251.0871451
0
ARC
8
0
10
305.8685532
20
-77.748072
40
1
50
331.8376761
51
71.10597
0
ARC
8
0
10
306.92649
20
-78.3144374
40
0.2
50
151.8376714
51
231.6144613
0
ARC
8
0
10
306.1813501
20
-79.2550576
40
1
50
330
51
51.6144613
0
LINE
8
0
10
307.0473755
20
-79.7550576
11
306.390961
21
-80.8920009
0
LINE
8
0
10
306.390961
20
-80.8920009
11
308.642627
21
-82.1920009
0
LINE
8
0
10
308.642627
20
-82.1920009
11
309.5303194
21
-80.6544726
0
ARC
8
0
10
310.3963448
20
-81.1544726
40
1
50
85.5028213
51
150
0
ARC
8
0
10
310.5374827
20
-79.3600145
40
0.8
50
265.5028228
51
330
0
LINE
8
0
10
312.6678031
20
-77.2701915
11
311.2303031
21
-79.7600145
0
ARC
8
0
10
313.620431
20
-77.8201915
40
1.1
50
60
51
150
0
LINE
8
0
10
314.386961
20
-76.9925772
11
314.170431
21
-76.8675635
0
LINE
8
0
10
315.5480453
20
-76.6814656
11
314.386961
21
-76.9925772
0
LINE
8
0
10
315.5480453
20
-76.6814656
11
317.0855726
21
-74.0183902
0
LINE
8
0
10
316.8176029
20
-73.0183137
11
317.0855726
21
-74.0183902
0
ARC
8
0
10
317.7835288
20
-72.7594946
40
1
50
150
51
195
0
LINE
8
0
10
316.9175034
20
-72.2594946
11
317.9228829
21
-70.5181262
0
ARC
8
0
10
318.5471297
20
-69.736899
40
1
50
150
51
231.3730735
0
LINE
8
0
10
317.6811043
20
-69.236899
11
318.2992613
21
-68.1662196
0
LINE
8
0
10
318.2992613
20
-68.1662196
11
314.402147
21
-65.9162196
0
ARC
8
0
10
313.6206073
20
-65.2923641
40
1
50
213.7900921
51
321.4017642
0
ARC
8
0
10
312
20
-66.3768603
40
0.95
50
33.7900908
51
293.5189398
0
ARC
8
0
10
312.7781518
20
-68.1648703
40
1
50
43.6146708
51
113.5189398
0
LINE
8
0
10
313.502147
20
-67.4750654
11
315.0176915
21
-68.3500654
0
ARC
8
0
10
314.5176915
20
-69.2160908
40
1
50
330
51
60
0
LINE
8
0
10
315.3837169
20
-69.7160908
11
314.6658373
21
-70.9594946
0
ARC
8
0
10
313.7998119
20
-70.4594946
40
1
50
285
51
330
0
LINE
8
0
10
313.0585545
20
-71.6933902
11
314.058631
21
-71.4254205
0
ARC
8
0
10
312.728153
20
-70.7495497
40
1
50
186.4050931
51
289.2931447
0
ARC
8
0
10
309.25
20
-71.14
40
2.5
50
6.4050912
51
107.1446634
0
ARC
8
0
10
308.2182515
20
-67.7955277
40
1
50
185.4873837
51
287.144664
0
ARC
8
0
10
308.2175297
20
-67.7882911
40
1
50
150
51
185.9040697
0
LINE
8
0
10
285.8515043
20
-67.2882911
11
286.5082893
21
-66.150706
0
ARC
8
0
10
287.1649509
20
-65.3965206
40
1
50
139.8073433
51
228.9542416
0
ARC
8
0
10
285.7899692
20
-64.234873
40
0.8
50
319.8073425
51
165.9082215
0
ARC
8
0
10
284.0441366
20
-63.7966165
40
1
50
276.2325194
51
345.9082203
0
LINE
8
0
10
284.1527002
20
-64.790706
11
283.4959152
21
-65.9282911
0
ARC
8
0
10
282.6298898
20
-65.4282911
40
1
50
294.0959303
51
330
0
LINE
8
0
10
283.0381554
20
-66.3411543
11
281.2381554
21
-69.4588457
0
ARC
8
0
10
280.2434599
20
-69.5617089
40
1
50
330
51
5.9040697
0
LINE
8
0
10
281.1094853
20
-70.0617089
11
280.4527002
21
-71.199294
0
LINE
8
0
10
280.4527002
20
-71.199294
11
282.8082893
21
-72.559294
0
LINE
8
0
10
282.8082893
20
-72.559294
11
283.4650744
21
-71.4217089
0
ARC
8
0
10
284.3310998
20
-71.9217089
40
1
50
114.0959303
51
150
0
ARC
8
0
10
284.3377278
20
-71.9187157
40
1
50
12.855336
51
114.5126163
0
ARC
8
0
10
287.75
20
-71.14
40
2.5
50
192.8553366
51
246.1506399
0
ARC
8
0
10
286.3348332
20
-74.3411408
40
1
50
330
51
66.1506399
0
LINE
8
0
10
287.1475862
20
-74.9334113
11
287.2008586
21
-74.8411408
0
ARC
8
0
10
286.2815608
20
-74.4334113
40
1
50
228.9125106
51
330
0
ARC
8
0
10
285
20
-75.9031397
40
0.95
50
48.9125107
51
251.0871451
0
ARC
8
0
10
284.3685532
20
-77.748072
40
1
50
331.8376761
51
71.10597
0
ARC
8
0
10
285.42649
20
-78.3144374
40
0.2
50
151.8376714
51
231.6144613
0
ARC
8
0
10
284.6813501
20
-79.2550576
40
1
50
330
51
51.6144613
0
LINE
8
0
10
285.5473755
20
-79.7550576
11
284.890961
21
-80.8920009
0
LINE
8
0
10
284.890961
20
-80.8920009
11
287.142627
21
-82.1920009
0
LINE
8
0
10
287.142627
20
-82.1920009
11
288.0303194
21
-80.6544726
0
ARC
8
0
10
288.8963448
20
-81.1544726
40
1
50
85.5028213
51
150
0
ARC
8
0
10
289.0374827
20
-79.3600145
40
0.8
50
265.5028228
51
330
0
LINE
8
0
10
291.1678031
20
-77.2701915
11
289.7303031
21
-79.7600145
0
ARC
8
0
10
292.120431
20
-77.8201915
40
1.1
50
60
51
150
0
LINE
8
0
10
292.886961
20
-76.9925772
11
292.670431
21
-76.8675635
0
LINE
8
0
10
294.0480453
20
-76.6814656
11
292.886961
21
-76.9925772
0
LINE
8
0
10
294.0480453
20
-76.6814656
11
295.5855726
21
-74.0183902
0
LINE
8
0
10
295.3176029
20
-73.0183137
11
295.5855726
21
-74.0183902
0
ARC
8
0
10
296.2835288
20
-72.7594946
40
1
50
150
51
195
0
LINE
8
0
10
295.4175034
20
-72.2594946
11
296.4228829
21
-70.5181262
0
ARC
8
0
10
297.0471297
20
-69.736899
40
1
50
150
51
231.3730735
0
LINE
8
0
10
296.1811043
20
-69.236899
11
296.7992613
21
-68.1662196
0
LINE
8
0
10
296.7992613
20
-68.1662196
11
292.902147
21
-65.9162196
0
ARC
8
0
10
292.1206073
20
-65.2923641
40
1
50
213.7900921
51
321.4017642
0
ARC
8
0
10
290.5
20
-66.3768603
40
0.95
50
33.7900908
51
293.5189398
0
ARC
8
0
10
291.2781518
20
-68.1648703
40
1
50
43.6146708
51
113.5189398
0
LINE
8
0
10
292.002147
20
-67.4750654
11
293.5176915
21
-68.3500654
0
ARC
8
0
10
293.0176915
20
-69.2160908
40
1
50
330
51
60
0
LINE
8
0
10
293.8837169
20
-69.7160908
11
293.1658373
21
-70.9594946
0
ARC
8
0
10
292.2998119
20
-70.4594946
40
1
50
285
51
330
0
LINE
8
0
10
291.5585545
20
-71.6933902
11
292.558631
21
-71.4254205
0
ARC
8
0
10
291.228153
20
-70.7495497
40
1
50
186.4050931
51
289.2931447
0
ARC
8
0
10
287.75
20
-71.14
40
2.5
50
6.4050912
51
107.1446634
0
ARC
8
0
10
286.7182515
20
-67.7955277
40
1
50
185.4873837
51
287.144664
0
ARC
8
0
10
286.7175297
20
-67.7882911
40
1
50
150
51
185.9040697
0
LINE
8
0
10
317.6135701
20
-130.57
11
316.3
21
-130.57
0
ARC
8
0
10
315.3185255
20
-130.3784071
40
1
50
259.8073433
51
348.9542416
0
ARC
8
0
10
315
20
-132.15
40
0.8
50
79.8073425
51
285.9082215
0
ARC
8
0
10
315.493375
20
-133.8810636
40
1
50
36.2325194
51
105.9082203
0
LINE
8
0
10
316.3
20
-133.29
11
317.6135701
21
-133.29
0
ARC
8
0
10
317.6135701
20
-134.29
40
1
50
54.0959303
51
90
0
LINE
8
0
10
318.2
20
-133.48
11
321.8
21
-133.48
0
ARC
8
0
10
322.3864299
20
-134.29
40
1
50
90
51
125.9040697
0
LINE
8
0
10
322.3864299
20
-133.29
11
323.7
21
-133.29
0
LINE
8
0
10
323.7
20
-133.29
11
323.7
21
-130.57
0
LINE
8
0
10
323.7
20
-130.57
11
322.3864299
21
-130.57
0
ARC
8
0
10
322.3864299
20
-129.57
40
1
50
234.0959303
51
270
0
ARC
8
0
10
322.3805237
20
-129.5657566
40
1
50
132.855336
51
234.5126163
0
ARC
8
0
10
320
20
-127
40
2.5
50
312.8553366
51
6.1506399
0
ARC
8
0
10
323.4798527
20
-126.625
40
1
50
90
51
186.1506399
0
LINE
8
0
10
323.5863974
20
-125.625
11
323.4798527
21
-125.625
0
ARC
8
0
10
323.5863974
20
-126.625
40
1
50
348.9125106
51
90
0
ARC
8
0
10
325.5
20
-127
40
0.95
50
168.9125107
51
11.0871451
0
ARC
8
0
10
327.4134816
20
-126.6243828
40
1
50
91.8376761
51
191.10597
0
ARC
8
0
10
327.375
20
-125.425
40
0.2
50
271.8376714
51
351.6144613
0
ARC
8
0
10
328.562171
20
-125.6
40
1
50
90
51
171.6144613
0
LINE
8
0
10
328.562171
20
-124.6
11
329.875
21
-124.6
0
LINE
8
0
10
329.875
20
-124.6
11
329.875
21
-122
0
LINE
8
0
10
329.875
20
-122
11
328.0996153
21
-122
0
ARC
8
0
10
328.0996153
20
-121
40
1
50
205.5028213
51
270
0
ARC
8
0
10
326.475
20
-121.775
40
0.8
50
25.5028228
51
90
0
LINE
8
0
10
323.6
20
-120.975
11
326.475
21
-120.975
0
ARC
8
0
10
323.6
20
-119.875
40
1.1
50
180
51
270
0
LINE
8
0
10
322.5
20
-119.6249727
11
322.5
21
-119.875
0
LINE
8
0
10
321.6500273
20
-118.775
11
322.5
21
-119.6249727
0
LINE
8
0
10
321.6500273
20
-118.775
11
318.5749727
21
-118.775
0
LINE
8
0
10
317.8428659
20
-119.5071068
11
318.5749727
21
-118.775
0
ARC
8
0
10
317.1357591
20
-118.8
40
1
50
270
51
315
0
LINE
8
0
10
317.1357591
20
-119.8
11
315.125
21
-119.8
0
ARC
8
0
10
314.136314
20
-119.65
40
1
50
270
51
351.3730735
0
LINE
8
0
10
314.136314
20
-120.65
11
312.9
21
-120.65
0
LINE
8
0
10
312.9
20
-120.65
11
312.9
21
-125.15
0
ARC
8
0
10
312.7504951
20
-126.138761
40
1
50
333.7900921
51
81.4017642
0
ARC
8
0
10
314.5
20
-127
40
0.95
50
153.7900908
51
53.5189398
0
ARC
8
0
10
315.6593862
20
-125.4320958
40
1
50
163.6146708
51
233.5189398
0
LINE
8
0
10
314.7
20
-125.15
11
314.7
21
-123.4
0
ARC
8
0
10
315.7
20
-123.4
40
1
50
90
51
180
0
LINE
8
0
10
315.7
20
-122.4
11
317.1357591
21
-122.4
0
ARC
8
0
10
317.1357591
20
-123.4
40
1
50
45
51
90
0
LINE
8
0
10
318.5749727
20
-123.425
11
317.8428659
21
-122.6928932
0
ARC
8
0
10
317.9227836
20
-124.1830563
40
1
50
306.4050931
51
49.2931447
0
ARC
8
0
10
320
20
-127
40
2.5
50
126.4050912
51
227.1446634
0
ARC
8
0
10
317.6194763
20
-129.5657566
40
1
50
305.4873837
51
47.144664
0
ARC
8
0
10
317.6135701
20
-129.57
40
1
50
270
51
305.9040697
0
LINE
8
0
10
279.3864299
20
-164.1341
11
280.7
21
-164.1341
0
ARC
8
0
10
281.6814745
20
-164.3256929
40
1
50
439.8073433
51
528.9542416
0
ARC
8
0
10
282
20
-162.5541
40
0.8
50
259.8073425
51
465.9082215
0
ARC
8
0
10
281.506625
20
-160.8230364
40
1
50
216.2325194
51
285.9082203
0
LINE
8
0
10
280.7
20
-161.4141
11
279.3864299
21
-161.4141
0
ARC
8
0
10
279.3864299
20
-160.4141
40
1
50
234.0959303
51
270
0
LINE
8
0
10
278.8
20
-161.2241
11
275.2
21
-161.2241
0
ARC
8
0
10
274.6135701
20
-160.4141
40
1
50
270
51
305.9040697
0
LINE
8
0
10
274.6135701
20
-161.4141
11
273.3
21
-161.4141
0
LINE
8
0
10
273.3
20
-161.4141
11
273.3
21
-164.1341
0
LINE
8
0
10
273.3
20
-164.1341
11
274.6135701
21
-164.1341
0
ARC
8
0
10
274.6135701
20
-165.1341
40
1
50
414.0959303
51
90
0
ARC
8
0
10
274.6194763
20
-165.1383434
40
1
50
312.855336
51
414.5126163
0
ARC
8
0
10
277
20
-167.7041
40
2.5
50
132.8553366
51
186.1506399
0
ARC
8
0
10
273.5201473
20
-168.0791
40
1
50
270
51
366.1506399
0
LINE
8
0
10
273.4136026
20
-169.0791
11
273.5201473
21
-169.0791
0
ARC
8
0
10
273.4136026
20
-168.0791
40
1
50
168.9125106
51
270
0
ARC
8
0
10
271.5
20
-167.7041
40
0.95
50
348.9125107
51
551.0871451
0
ARC
8
0
10
269.5865184
20
-168.0797172
40
1
50
631.8376761
51
731.10597
0
ARC
8
0
10
269.625
20
-169.2791
40
0.2
50
91.8376714
51
171.6144613
0
ARC
8
0
10
268.437829
20
-169.1041
40
1
50
270
51
351.6144613
0
LINE
8
0
10
268.437829
20
-170.1041
11
267.125
21
-170.1041
0
LINE
8
0
10
267.125
20
-170.1041
11
267.125
21
-172.7041
0
LINE
8
0
10
267.125
20
-172.7041
11
268.9003847
21
-172.7041
0
ARC
8
0
10
268.9003847
20
-173.7041
40
1
50
385.5028213
51
90
0
ARC
8
0
10
270.525
20
-172.9291
40
0.8
50
205.5028228
51
270
0
LINE
8
0
10
273.4
20
-173.7291
11
270.525
21
-173.7291
0
ARC
8
0
10
273.4
20
-174.8291
40
1.1
50
0
51
90
0
LINE
8
0
10
274.5
20
-175.0791273
11
274.5
21
-174.8291
0
LINE
8
0
10
275.3499727
20
-175.9291
11
274.5
21
-175.0791273
0
LINE
8
0
10
275.3499727
20
-175.9291
11
278.4250273
21
-175.9291
0
LINE
8
0
10
279.1571341
20
-175.1969932
11
278.4250273
21
-175.9291
0
ARC
8
0
10
279.8642409
20
-175.9041
40
1
50
450
51
135
0
LINE
8
0
10
279.8642409
20
-174.9041
11
281.875
21
-174.9041
0
ARC
8
0
10
282.863686
20
-175.0541
40
1
50
450
51
531.3730735
0
LINE
8
0
10
282.863686
20
-174.0541
11
284.1
21
-174.0541
0
LINE
8
0
10
284.1
20
-174.0541
11
284.1
21
-169.5541
0
ARC
8
0
10
284.2495049
20
-168.565339
40
1
50
153.7900921
51
261.4017642
0
ARC
8
0
10
282.5
20
-167.7041
40
0.95
50
333.7900908
51
593.5189398
0
ARC
8
0
10
281.3406138
20
-169.2720042
40
1
50
703.6146708
51
773.5189398
0
LINE
8
0
10
282.3
20
-169.5541
11
282.3
21
-171.3041
0
ARC
8
0
10
281.3
20
-171.3041
40
1
50
270
51
0
0
LINE
8
0
10
281.3
20
-172.3041
11
279.8642409
21
-172.3041
0
ARC
8
0
10
279.8642409
20
-171.3041
40
1
50
225
51
270
0
LINE
8
0
10
278.4250273
20
-171.2791
11
279.1571341
21
-172.0112068
0
ARC
8
0
10
279.0772164
20
-170.5210437
40
1
50
126.4050931
51
229.2931447
0
ARC
8
0
10
277
20
-167.7041
40
2.5
50
306.4050912
51
407.1446634
0
ARC
8
0
10
279.3805237
20
-165.1383434
40
1
50
485.4873837
51
587.144664
0
ARC
8
0
10
279.3864299
20
-165.1341
40
1
50
450
51
485.9040697
0
ARC
8
0
10
234
20
-145.8907667
40
1.25
50
55.7509865
51
304.2490135
0
ARC
8
0
10
235.21
20
-147.6679555
40
0.9
50
366.0423065
51
484.2490135
0
ARC
8
0
10
235.21
20
-149.1935779
40
0.9
50
235.750988
51
353.9576935
0
ARC
8
0
10
234
20
-150.9707667
40
1.25
50
55.7509865
51
304.2490135
0
ARC
8
0
10
235.21
20
-152.7479555
40
0.9
50
366.0423065
51
484.2490135
0
ARC
8
0
10
272.79
20
-152.7479555
40
0.9
50
415.750988
51
533.9576935
0
ARC
8
0
10
274
20
-150.9707667
40
1.25
50
235.7509865
51
484.2490135
0
ARC
8
0
10
272.79
20
-149.1935779
40
0.9
50
546.0423065
51
664.2490135
0
ARC
8
0
10
272.79
20
-147.6679555
40
0.9
50
55.750988
51
173.9576935
0
ARC
8
0
10
274
20
-145.8907667
40
1.25
50
235.7509865
51
484.2490135
0
ARC
8
0
10
272.79
20
-144.1135779
40
0.9
50
546.0423065
51
664.2490135
0
ARC
8
0
10
272.79
20
-142.5879555
40
0.9
50
55.750988
51
173.9576935
0
ARC
8
0
10
274
20
-140.8107667
40
1.25
50
235.7509865
51
484.2490135
0
ARC
8
0
10
272.79
20
-139.0335779
40
0.9
50
615.3792184
51
664.2490135
0
ARC
8
0
10
235.21
20
-139.0335779
40
0.9
50
235.750988
51
284.6207816
0
ARC
8
0
10
234
20
-140.8107667
40
1.25
50
55.7509865
51
304.2490135
0
ARC
8
0
10
235.21
20
-142.5879555
40
0.9
50
366.0423065
51
484.2490135
0
ARC
8
0
10
235.21
20
-144.1135779
40
0.9
50
235.7509865
51
353.9576935
0
LINE
8
0
10
229.1
20
-151.3407667
11
230.9
21
-151.3407667
0
LINE
8
0
10
230.9
20
-151.3407667
11
230.9
21
-146.8407667
0
LINE
8
0
10
230.9
20
-146.8407667
11
229.1
21
-146.8407667
0
LINE
8
0
10
229.1
20
-146.8407667
11
229.1
21
-151.3407667
0
LINE
8
0
10
277.1
20
-151.3407667
11
278.9
21
-151.3407667
0
LINE
8
0
10
278.9
20
-151.3407667
11
278.9
21
-146.8407667
0
LINE
8
0
10
278.9
20
-146.8407667
11
277.1
21
-146.8407667
0
LINE
8
0
10
277.1
20
-146.8407667
11
277.1
21
-151.3407667
0
LINE
8
0
10
154.4
20
-84.1783333
11
157.1
21
-84.1783333
0
LINE
8
0
10
157.1
20
-84.1783333
11
157.1
21
-82.9283333
0
LINE
8
0
10
157.1
20
-82.9283333
11
154.4
21
-82.9283333
0
LINE
8
0
10
154.4
20
-82.9283333
11
154.4
21
-84.1783333
0
LINE
8
0
10
197.4
20
-84.1783333
11
200.1
21
-84.1783333
0
LINE
8
0
10
200.1
20
-84.1783333
11
200.1
21
-82.9283333
0
LINE
8
0
10
200.1
20
-82.9283333
11
197.4
21
-82.9283333
0
LINE
8
0
10
197.4
20
-82.9283333
11
197.4
21
-84.1783333
0
LINE
8
0
10
350.9
20
-84.1783333
11
353.6
21
-84.1783333
0
LINE
8
0
10
353.6
20
-84.1783333
11
353.6
21
-82.9283333
0
LINE
8
0
10
353.6
20
-82.9283333
11
350.9
21
-82.9283333
0
LINE
8
0
10
350.9
20
-82.9283333
11
350.9
21
-84.1783333
0
LINE
8
0
10
307.9
20
-84.1783333
11
310.6
21
-84.1783333
0
LINE
8
0
10
310.6
20
-84.1783333
11
310.6
21
-82.9283333
0
LINE
8
0
10
310.6
20
-82.9283333
11
307.9
21
-82.9283333
0
LINE
8
0
10
307.9
20
-82.9283333
11
307.9
21
-84.1783333
0
LINE
8
0
10
186.65
20
-115.2116667
11
189.35
21
-115.2116667
0
LINE
8
0
10
189.35
20
-115.2116667
11
189.35
21
-113.9616667
0
LINE
8
0
10
189.35
20
-113.9616667
11
186.65
21
-113.9616667
0
LINE
8
0
10
186.65
20
-113.9616667
11
186.65
21
-115.2116667
0
LINE
8
0
10
229.65
20
-155.9157667
11
232.35
21
-155.9157667
0
LINE
8
0
10
232.35
20
-155.9157667
11
232.35
21
-154.6657667
0
LINE
8
0
10
232.35
20
-154.6657667
11
229.65
21
-154.6657667
0
LINE
8
0
10
229.65
20
-154.6657667
11
229.65
21
-155.9157667
0
LINE
8
0
10
318.65
20
-115.2116667
11
321.35
21
-115.2116667
0
LINE
8
0
10
321.35
20
-115.2116667
11
321.35
21
-113.9616667
0
LINE
8
0
10
321.35
20
-113.9616667
11
318.65
21
-113.9616667
0
LINE
8
0
10
318.65
20
-113.9616667
11
318.65
21
-115.2116667
0
LINE
8
0
10
275.65
20
-155.9157667
11
278.35
21
-155.9157667
0
LINE
8
0
10
278.35
20
-155.9157667
11
278.35
21
-154.6657667
0
LINE
8
0
10
278.35
20
-154.6657667
11
275.65
21
-154.6657667
0
LINE
8
0
10
275.65
20
-154.6657667
11
275.65
21
-155.9157667
0
LINE
8
0
10
232.75
20
-74.5233333
11
241.25
21
-74.5233333
0
LINE
8
0
10
241.25
20
-74.5233333
11
241.25
21
-68.8233333
0
LINE
8
0
10
241.25
20
-68.8233333
11
232.75
21
-68.8233333
0
LINE
8
0
10
232.75
20
-68.8233333
11
232.75
21
-74.5233333
0
LINE
8
0
10
245.11
20
-94.4933333
11
247.15
21
-94.4933333
0
LINE
8
0
10
260.85
20
-94.4933333
11
262.89
21
-94.4933333
0
LINE
8
0
10
263.43
20
-93.9533333
11
263.43
21
-66.9333333
0
LINE
8
0
10
244.57
20
-66.9333333
11
244.57
21
-93.9533333
0
ARC
8
0
10
262.89
20
-93.9533333
40
0.54
50
270
51
0
0
ARC
8
0
10
245.11
20
-93.9533333
40
0.54
50
180
51
270
0
LINE
8
0
10
247.69
20
-97.5533333
11
260.31
21
-97.5533333
0
LINE
8
0
10
260.85
20
-97.0133333
11
260.85
21
-94.4933333
0
LINE
8
0
10
247.15
20
-94.4933333
11
247.15
21
-97.0133333
0
ARC
8
0
10
260.31
20
-97.0133333
40
0.54
50
270
51
0
0
ARC
8
0
10
247.69
20
-97.0133333
40
0.54
50
180
51
270
0
LINE
8
0
10
248.25
20
-112.08
11
250.5
21
-112.08
0
LINE
8
0
10
257.5
20
-112.08
11
259.75
21
-112.08
0
LINE
8
0
10
259.75
20
-112.08
11
259.75
21
-105.08
0
LINE
8
0
10
259.75
20
-105.08
11
248.25
21
-105.08
0
LINE
8
0
10
248.25
20
-105.08
11
248.25
21
-112.08
0
LINE
8
0
10
257.5
20
-115.4296441
11
257.5
21
-112.08
0
LINE
8
0
10
250.5
20
-112.08
11
250.5
21
-115.4296441
0
LINE
8
0
10
231.25
20
-105.8733333
11
233.5
21
-105.8733333
0
LINE
8
0
10
240.5
20
-105.8733333
11
242.75
21
-105.8733333
0
LINE
8
0
10
242.75
20
-105.8733333
11
242.75
21
-98.8733333
0
LINE
8
0
10
242.75
20
-98.8733333
11
231.25
21
-98.8733333
0
LINE
8
0
10
231.25
20
-98.8733333
11
231.25
21
-105.8733333
0
ENDSEC
0
EOF