0
SECTION
2
HEADER
9
$INSUNITS
70
4
0
ENDSEC
0
SECTION
2
TABLES
0
TABLE
2
LTYPE
0
LTYPE
72
65
70
64
2
CONTINUOUS
3
______
73
0
40
0
0
ENDTAB
0
TABLE
2
LAYER
0
ENDTAB
0
ENDSEC
0
SECTION
2
ENTITIES
0
LINE
8
0
10
239.7100301
20
-175.0885807
11
232.6350291
21
-179.1734273
0
LINE
8
0
10
229.3649715
20
-179.1734261
11
221.8849702
21
-174.8547402
0
LINE
8
0
10
197.1149702
20
-160.5534255
11
189.6349702
21
-156.2347402
0
LINE
8
0
10
188
20
-153.4028543
11
188
21
-141.3012457
0
LINE
8
0
10
186.3650298
20
-138.4693598
11
178.8849702
21
-134.1506402
0
LINE
8
0
10
154.1149702
20
-119.8493255
11
146.6349702
21
-115.5306402
0
LINE
8
0
10
134.25
20
-94.0787543
11
134.25
21
-85.4412458
0
LINE
8
0
10
146.6349702
20
-63.9893599
11
154.1149702
21
-59.6706746
0
LINE
8
0
10
178.8850298
20
-59.6706746
11
186.3649702
21
-63.9893254
0
LINE
8
0
10
189.6350298
20
-63.9893254
11
197.1149702
21
-59.6706746
0
LINE
8
0
10
221.8850289
20
-59.6706721
11
227.2412729
21
-62.7631698
0
LINE
8
0
10
280.7587271
20
-62.7631698
11
286.1149711
21
-59.6706721
0
LINE
8
0
10
310.8850298
20
-59.6706746
11
318.3649702
21
-63.9893254
0
LINE
8
0
10
321.6350298
20
-63.9893254
11
329.1149702
21
-59.6706746
0
LINE
8
0
10
353.8850298
20
-59.6706746
11
361.3650298
21
-63.9893599
0
LINE
8
0
10
373.75
20
-85.4412458
11
373.75
21
-94.0787543
0
LINE
8
0
10
361.3650298
20
-115.5306402
11
353.8850298
21
-119.8493255
0
LINE
8
0
10
329.1150298
20
-134.1506402
11
321.6349702
21
-138.4693598
0
LINE
8
0
10
320
20
-141.3012457
11
320
21
-153.4028543
0
LINE
8
0
10
318.3650298
20
-156.2347402
11
310.8850298
21
-160.5534255
0
LINE
8
0
10
286.1150298
20
-174.8547402
11
278.6350285
21
-179.1734261
0
LINE
8
0
10
275.3649709
20
-179.1734273
11
268.2899699
21
-175.0885807
0
LINE
8
0
10
279.1236983
20
-63.2012833
11
277.27
21
-63.2012833
0
LINE
8
0
10
230.73
20
-63.2012833
11
228.8763017
21
-63.2012833
0
ARC
8
0
10
231.0000013
20
-176.3415403
40
3.27
50
239.9993965
51
300.0005622
0
ARC
8
0
10
191.27
20
-153.4028543
40
3.27
50
180
51
239.9993965
0
ARC
8
0
10
184.73
20
-141.3012457
40
3.27
50
0
51
59.9993965
0
ARC
8
0
10
188
20
-61.1574395
40
3.27
50
239.9993965
51
300.0006035
0
ARC
8
0
10
228.8763017
20
-59.9312833
40
3.27
50
239.9994171
51
270
0
ARC
8
0
10
279.1236983
20
-59.9312833
40
3.27
50
270
51
300.0005829
0
ARC
8
0
10
320
20
-61.1574395
40
3.27
50
239.9993965
51
300.0006035
0
ARC
8
0
10
323.27
20
-141.3012457
40
3.27
50
120.0006035
51
180
0
ARC
8
0
10
316.73
20
-153.4028543
40
3.27
50
300.0006035
51
0
0
ARC
8
0
10
276.9999987
20
-176.3415403
40
3.27
50
239.9994378
51
300.0006035
0
LINE
8
0
10
145
20
-66.8212458
11
145
21
-75.4587543
0
LINE
8
0
10
143.3650298
20
-78.2906402
11
135.8849702
21
-82.6093599
0
LINE
8
0
10
164.8649702
20
-63.9893255
11
157.3850298
21
-59.6706746
0
LINE
8
0
10
175.6149702
20
-59.6706746
11
168.1350298
21
-63.9893255
0
LINE
8
0
10
207.8649702
20
-63.9893255
11
200.3850298
21
-59.6706746
0
LINE
8
0
10
218.6149719
20
-59.6706736
11
211.1350298
21
-63.9893255
0
LINE
8
0
10
372.1150298
20
-82.6093599
11
364.6349702
21
-78.2906402
0
LINE
8
0
10
363
20
-75.4587543
11
363
21
-66.8212458
0
LINE
8
0
10
339.8649702
20
-63.9893255
11
332.3850298
21
-59.6706746
0
LINE
8
0
10
350.6149702
20
-59.6706746
11
343.1350298
21
-63.9893255
0
LINE
8
0
10
296.8649702
20
-63.9893255
11
289.3850281
21
-59.6706736
0
LINE
8
0
10
307.6149702
20
-59.6706746
11
300.1350298
21
-63.9893255
0
LINE
8
0
10
135.8849702
20
-96.9106402
11
143.3650298
21
-101.2293599
0
LINE
8
0
10
145
20
-104.0612458
11
145
21
-112.6987543
0
LINE
8
0
10
157.3850298
20
-119.8493255
11
164.8649702
21
-115.5306746
0
LINE
8
0
10
168.1350298
20
-115.5306746
11
175.6150298
21
-119.8493599
0
LINE
8
0
10
177.25
20
-122.6812458
11
177.25
21
-131.3187543
0
LINE
8
0
10
200.3850298
20
-160.5534255
11
207.8649702
21
-156.2347746
0
LINE
8
0
10
211.1350298
20
-156.2347746
11
218.6150298
21
-160.5534599
0
LINE
8
0
10
220.25
20
-163.3853458
11
220.25
21
-172.0228543
0
LINE
8
0
10
363
20
-112.6987543
11
363
21
-104.0612458
0
LINE
8
0
10
364.6349702
20
-101.2293599
11
372.1150298
21
-96.9106402
0
LINE
8
0
10
330.75
20
-131.3187543
11
330.75
21
-122.6812458
0
LINE
8
0
10
332.3849702
20
-119.8493599
11
339.8649702
21
-115.5306746
0
LINE
8
0
10
343.1350298
20
-115.5306746
11
350.6149702
21
-119.8493255
0
LINE
8
0
10
287.75
20
-172.0228543
11
287.75
21
-163.3853458
0
LINE
8
0
10
289.3849702
20
-160.5534599
11
296.8649702
21
-156.2347746
0
LINE
8
0
10
300.1350298
20
-156.2347746
11
307.6149702
21
-160.5534255
0
ARC
8
0
10
223.52
20
-172.0228543
40
3.27
50
180
51
239.9993965
0
ARC
8
0
10
216.98
20
-163.3853458
40
3.27
50
0
51
59.9993965
0
ARC
8
0
10
209.5
20
-159.0666605
40
3.27
50
59.9993965
51
120.0006035
0
ARC
8
0
10
198.75
20
-157.7215396
40
3.27
50
239.9993965
51
300.0006035
0
ARC
8
0
10
180.52
20
-131.3187543
40
3.27
50
180
51
239.9993965
0
ARC
8
0
10
173.98
20
-122.6812458
40
3.27
50
0
51
59.9993965
0
ARC
8
0
10
166.5
20
-118.3625605
40
3.27
50
59.9993965
51
120.0006035
0
ARC
8
0
10
155.75
20
-117.0174396
40
3.27
50
239.9993965
51
300.0006035
0
ARC
8
0
10
148.27
20
-112.6987543
40
3.27
50
180
51
239.9993965
0
ARC
8
0
10
141.73
20
-104.0612458
40
3.27
50
0
51
59.9993965
0
ARC
8
0
10
137.52
20
-94.0787543
40
3.27
50
180
51
239.9993965
0
ARC
8
0
10
137.52
20
-85.4412458
40
3.27
50
120.0006035
51
180
0
ARC
8
0
10
141.73
20
-75.4587543
40
3.27
50
300.0006035
51
0
0
ARC
8
0
10
148.27
20
-66.8212458
40
3.27
50
120.0006035
51
180
0
ARC
8
0
10
155.75
20
-62.5025605
40
3.27
50
59.9993965
51
120.0006035
0
ARC
8
0
10
166.5
20
-61.1574396
40
3.27
50
239.9993965
51
300.0006035
0
ARC
8
0
10
177.25
20
-62.5025605
40
3.27
50
59.9993965
51
120.0006035
0
ARC
8
0
10
198.75
20
-62.5025605
40
3.27
50
59.9993965
51
120.0006035
0
ARC
8
0
10
209.5
20
-61.1574396
40
3.27
50
239.9993965
51
300.0006035
0
ARC
8
0
10
220.2500017
20
-62.5025595
40
3.27
50
59.9994505
51
120.0006035
0
ARC
8
0
10
287.7499983
20
-62.5025595
40
3.27
50
59.9993965
51
120.0005495
0
ARC
8
0
10
298.5
20
-61.1574396
40
3.27
50
239.9993965
51
300.0006035
0
ARC
8
0
10
309.25
20
-62.5025605
40
3.27
50
59.9993965
51
120.0006035
0
ARC
8
0
10
330.75
20
-62.5025605
40
3.27
50
59.9993965
51
120.0006035
0
ARC
8
0
10
341.5
20
-61.1574396
40
3.27
50
239.9993965
51
300.0006035
0
ARC
8
0
10
352.25
20
-62.5025605
40
3.27
50
59.9993965
51
120.0006035
0
ARC
8
0
10
359.73
20
-66.8212458
40
3.27
50
0
51
59.9993965
0
ARC
8
0
10
366.27
20
-75.4587543
40
3.27
50
180
51
239.9993965
0
ARC
8
0
10
370.48
20
-85.4412458
40
3.27
50
0
51
59.9993965
0
ARC
8
0
10
370.48
20
-94.0787543
40
3.27
50
300.0006035
51
0
0
ARC
8
0
10
366.27
20
-104.0612458
40
3.27
50
120.0006035
51
180
0
ARC
8
0
10
359.73
20
-112.6987543
40
3.27
50
300.0006035
51
0
0
ARC
8
0
10
352.25
20
-117.0174396
40
3.27
50
239.9993965
51
300.0006035
0
ARC
8
0
10
341.5
20
-118.3625605
40
3.27
50
59.9993965
51
120.0006035
0
ARC
8
0
10
334.02
20
-122.6812458
40
3.27
50
120.0006035
51
180
0
ARC
8
0
10
327.48
20
-131.3187543
40
3.27
50
300.0006035
51
0
0
ARC
8
0
10
309.25
20
-157.7215396
40
3.27
50
239.9993965
51
300.0006035
0
ARC
8
0
10
298.5
20
-159.0666605
40
3.27
50
59.9993965
51
120.0006035
0
ARC
8
0
10
291.02
20
-163.3853458
40
3.27
50
120.0006035
51
180
0
ARC
8
0
10
284.48
20
-172.0228543
40
3.27
50
300.0006035
51
0
0
LINE
8
0
10
241.48
20
-172.0228681
11
241.48
21
-163.6971129
0
LINE
8
0
10
232.4999677
20
-156.4685674
11
239.7100323
21
-160.6314016
0
LINE
8
0
10
230.73
20
-153.4028561
11
230.73
21
-128.8879125
0
LINE
8
0
10
232.4999702
20
-125.8221998
11
252.2299702
21
-114.4308229
0
LINE
8
0
10
255.7700298
20
-114.4308229
11
275.5000298
21
-125.8221998
0
LINE
8
0
10
277.27
20
-153.4028561
11
277.27
21
-128.8879125
0
LINE
8
0
10
268.2899677
20
-160.6314016
11
275.5000323
21
-156.4685674
0
LINE
8
0
10
266.52
20
-163.6971129
11
266.52
21
-172.0228681
0
ARC
8
0
10
237.94
20
-163.6971129
40
3.54
50
0
51
59.9993965
0
ARC
8
0
10
234.27
20
-128.8879125
40
3.54
50
120.0005573
51
180
0
ARC
8
0
10
254
20
-117.4965356
40
3.54
50
59.9994427
51
120.0005573
0
ARC
8
0
10
273.73
20
-128.8879125
40
3.54
50
0
51
59.9994427
0
ARC
8
0
10
270.06
20
-163.6971129
40
3.54
50
120.0006035
51
180
0
ARC
8
0
10
270.06
20
-172.0228681
40
3.54
50
180
51
239.9994378
0
ARC
8
0
10
237.94
20
-172.0228681
40
3.54
50
300.0005622
51
0
0
LINE
8
0
10
233.73
20
-69.2012833
11
244.57
21
-69.2012833
0
LINE
8
0
10
263.43
20
-69.2012833
11
274.27
21
-69.2012833
0
LINE
8
0
10
277.27
20
-66.2012833
11
277.27
21
-63.2012833
0
LINE
8
0
10
230.73
20
-63.2012833
11
230.73
21
-66.2012833
0
ARC
8
0
10
274.27
20
-66.2012833
40
3
50
270
51
0
0
ARC
8
0
10
233.73
20
-66.2012833
40
3
50
180
51
270
0
LINE
8
0
10
240.5
20
-112.9833333
11
240.5
21
-110.9833333
0
LINE
8
0
10
239.5
20
-109.9833333
11
234.5
21
-109.9833333
0
LINE
8
0
10
233.5
20
-112.9833333
11
233.5
21
-110.9833333
0
ARC
8
0
10
239.5
20
-110.9833333
40
1
50
0
51
90
0
ARC
8
0
10
234.5
20
-110.9833333
40
1
50
90
51
180
0
ARC
8
0
10
234.27
20
-153.4028561
40
3.54
50
180
51
239.9993965
0
ARC
8
0
10
273.73
20
-153.4028561
40
3.54
50
300.0006035
51
0
0
LINE
8
0
10
161.65
20
-101.48
11
149.85
21
-101.48
0
LINE
8
0
10
149.85
20
-115.28
11
161.65
21
-115.28
0
ARC
8
0
10
149.85
20
-102.48
40
1
50
90
51
180
0
ARC
8
0
10
149.85
20
-114.28
40
1
50
180
51
270
0
ARC
8
0
10
161.65
20
-114.28
40
1
50
270
51
0
0
ARC
8
0
10
161.65
20
-102.48
40
1
50
0
51
90
0
LINE
8
0
10
162.9
20
-102.48
11
162.65
21
-102.48
0
LINE
8
0
10
148.85
20
-102.48
11
148.6
21
-102.48
0
LINE
8
0
10
148.6
20
-102.48
11
148.6
21
-114.28
0
LINE
8
0
10
148.6
20
-114.28
11
148.85
21
-114.28
0
LINE
8
0
10
162.65
20
-114.28
11
162.9
21
-114.28
0
LINE
8
0
10
162.9
20
-114.28
11
162.9
21
-102.48
0
LINE
8
0
10
183.15
20
-101.48
11
171.35
21
-101.48
0
LINE
8
0
10
171.35
20
-115.28
11
183.15
21
-115.28
0
ARC
8
0
10
171.35
20
-102.48
40
1
50
90
51
180
0
ARC
8
0
10
171.35
20
-114.28
40
1
50
180
51
270
0
ARC
8
0
10
183.15
20
-114.28
40
1
50
270
51
0
0
ARC
8
0
10
183.15
20
-102.48
40
1
50
0
51
90
0
LINE
8
0
10
184.4
20
-102.48
11
184.15
21
-102.48
0
LINE
8
0
10
170.35
20
-102.48
11
170.1
21
-102.48
0
LINE
8
0
10
170.1
20
-102.48
11
170.1
21
-114.28
0
LINE
8
0
10
170.1
20
-114.28
11
170.35
21
-114.28
0
LINE
8
0
10
184.15
20
-114.28
11
184.4
21
-114.28
0
LINE
8
0
10
184.4
20
-114.28
11
184.4
21
-102.48
0
LINE
8
0
10
204.65
20
-101.48
11
192.85
21
-101.48
0
LINE
8
0
10
192.85
20
-115.28
11
204.65
21
-115.28
0
ARC
8
0
10
192.85
20
-102.48
40
1
50
90
51
180
0
ARC
8
0
10
192.85
20
-114.28
40
1
50
180
51
270
0
ARC
8
0
10
204.65
20
-114.28
40
1
50
270
51
0
0
ARC
8
0
10
204.65
20
-102.48
40
1
50
0
51
90
0
LINE
8
0
10
205.9
20
-102.48
11
205.65
21
-102.48
0
LINE
8
0
10
191.85
20
-102.48
11
191.6
21
-102.48
0
LINE
8
0
10
191.6
20
-102.48
11
191.6
21
-114.28
0
LINE
8
0
10
191.6
20
-114.28
11
191.85
21
-114.28
0
LINE
8
0
10
205.65
20
-114.28
11
205.9
21
-114.28
0
LINE
8
0
10
205.9
20
-114.28
11
205.9
21
-102.48
0
LINE
8
0
10
153.9255753
20
-91.4195499
11
148.0255753
21
-81.2004501
0
LINE
8
0
10
136.0744247
20
-88.1004501
11
141.9744247
21
-98.3195499
0
ARC
8
0
10
147.1595499
20
-81.7004501
40
1
50
30
51
120
0
ARC
8
0
10
136.9404501
20
-87.6004501
40
1
50
120
51
210
0
ARC
8
0
10
142.8404501
20
-97.8195499
40
1
50
210
51
300
0
ARC
8
0
10
153.0595499
20
-91.9195499
40
1
50
300
51
30
0
LINE
8
0
10
153.6845499
20
-93.0020816
11
153.5595499
21
-92.7855753
0
LINE
8
0
10
146.6595499
20
-80.8344247
11
146.5345499
21
-80.6179184
0
LINE
8
0
10
146.5345499
20
-80.6179184
11
136.3154501
21
-86.5179184
0
LINE
8
0
10
136.3154501
20
-86.5179184
11
136.4404501
21
-86.7344247
0
LINE
8
0
10
143.3404501
20
-98.6855753
11
143.4654501
21
-98.9020816
0
LINE
8
0
10
143.4654501
20
-98.9020816
11
153.6845499
21
-93.0020816
0
LINE
8
0
10
163.4744247
20
-81.2004501
11
157.5744247
21
-91.4195499
0
LINE
8
0
10
169.5255753
20
-98.3195499
11
175.4255753
21
-88.1004501
0
ARC
8
0
10
158.4404501
20
-91.9195499
40
1
50
150
51
240
0
ARC
8
0
10
168.6595499
20
-97.8195499
40
1
50
240
51
330
0
ARC
8
0
10
174.5595499
20
-87.6004501
40
1
50
330
51
60
0
ARC
8
0
10
164.3404501
20
-81.7004501
40
1
50
60
51
150
0
LINE
8
0
10
164.9654501
20
-80.6179184
11
164.8404501
21
-80.8344247
0
LINE
8
0
10
157.9404501
20
-92.7855753
11
157.8154501
21
-93.0020816
0
LINE
8
0
10
157.8154501
20
-93.0020816
11
168.0345499
21
-98.9020816
0
LINE
8
0
10
168.0345499
20
-98.9020816
11
168.1595499
21
-98.6855753
0
LINE
8
0
10
175.0595499
20
-86.7344247
11
175.1845499
21
-86.5179184
0
LINE
8
0
10
175.1845499
20
-86.5179184
11
164.9654501
21
-80.6179184
0
LINE
8
0
10
184.9744247
20
-81.2004501
11
179.0744247
21
-91.4195499
0
LINE
8
0
10
191.0255753
20
-98.3195499
11
196.9255753
21
-88.1004501
0
ARC
8
0
10
179.9404501
20
-91.9195499
40
1
50
150
51
240
0
ARC
8
0
10
190.1595499
20
-97.8195499
40
1
50
240
51
330
0
ARC
8
0
10
196.0595499
20
-87.6004501
40
1
50
330
51
60
0
ARC
8
0
10
185.8404501
20
-81.7004501
40
1
50
60
51
150
0
LINE
8
0
10
186.4654501
20
-80.6179184
11
186.3404501
21
-80.8344247
0
LINE
8
0
10
179.4404501
20
-92.7855753
11
179.3154501
21
-93.0020816
0
LINE
8
0
10
179.3154501
20
-93.0020816
11
189.5345499
21
-98.9020816
0
LINE
8
0
10
189.5345499
20
-98.9020816
11
189.6595499
21
-98.6855753
0
LINE
8
0
10
196.5595499
20
-86.7344247
11
196.6845499
21
-86.5179184
0
LINE
8
0
10
196.6845499
20
-86.5179184
11
186.4654501
21
-80.6179184
0
LINE
8
0
10
206.4744247
20
-81.2004501
11
200.5744247
21
-91.4195499
0
LINE
8
0
10
212.5255753
20
-98.3195499
11
218.4255753
21
-88.1004501
0
ARC
8
0
10
201.4404501
20
-91.9195499
40
1
50
150
51
240
0
ARC
8
0
10
211.6595499
20
-97.8195499
40
1
50
240
51
330
0
ARC
8
0
10
217.5595499
20
-87.6004501
40
1
50
330
51
60
0
ARC
8
0
10
207.3404501
20
-81.7004501
40
1
50
60
51
150
0
LINE
8
0
10
207.9654501
20
-80.6179184
11
207.8404501
21
-80.8344247
0
LINE
8
0
10
200.9404501
20
-92.7855753
11
200.8154501
21
-93.0020816
0
LINE
8
0
10
200.8154501
20
-93.0020816
11
211.0345499
21
-98.9020816
0
LINE
8
0
10
211.0345499
20
-98.9020816
11
211.1595499
21
-98.6855753
0
LINE
8
0
10
218.0595499
20
-86.7344247
11
218.1845499
21
-86.5179184
0
LINE
8
0
10
218.1845499
20
-86.5179184
11
207.9654501
21
-80.6179184
0
LINE
8
0
10
149.85
20
-78.04
11
161.65
21
-78.04
0
LINE
8
0
10
161.65
20
-64.24
11
149.85
21
-64.24
0
ARC
8
0
10
161.65
20
-77.04
40
1
50
270
51
0
0
ARC
8
0
10
161.65
20
-65.24
40
1
50
0
51
90
0
ARC
8
0
10
149.85
20
-65.24
40
1
50
90
51
180
0
ARC
8
0
10
149.85
20
-77.04
40
1
50
180
51
270
0
LINE
8
0
10
148.6
20
-77.04
11
148.85
21
-77.04
0
LINE
8
0
10
162.65
20
-77.04
11
162.9
21
-77.04
0
LINE
8
0
10
162.9
20
-77.04
11
162.9
21
-65.24
0
LINE
8
0
10
162.9
20
-65.24
11
162.65
21
-65.24
0
LINE
8
0
10
148.85
20
-65.24
11
148.6
21
-65.24
0
LINE
8
0
10
148.6
20
-65.24
11
148.6
21
-77.04
0
LINE
8
0
10
168.3244247
20
-69.4804501
11
174.2244247
21
-79.6995499
0
LINE
8
0
10
186.1755753
20
-72.7995499
11
180.2755753
21
-62.5804501
0
ARC
8
0
10
175.0904501
20
-79.1995499
40
1
50
210
51
300
0
ARC
8
0
10
185.3095499
20
-73.2995499
40
1
50
300
51
30
0
ARC
8
0
10
179.4095499
20
-63.0804501
40
1
50
30
51
120
0
ARC
8
0
10
169.1904501
20
-68.9804501
40
1
50
120
51
210
0
LINE
8
0
10
168.5654501
20
-67.8979184
11
168.6904501
21
-68.1144247
0
LINE
8
0
10
175.5904501
20
-80.0655753
11
175.7154501
21
-80.2820816
0
LINE
8
0
10
175.7154501
20
-80.2820816
11
185.9345499
21
-74.3820816
0
LINE
8
0
10
185.9345499
20
-74.3820816
11
185.8095499
21
-74.1655753
0
LINE
8
0
10
178.9095499
20
-62.2144247
11
178.7845499
21
-61.9979184
0
LINE
8
0
10
178.7845499
20
-61.9979184
11
168.5654501
21
-67.8979184
0
LINE
8
0
10
189.8244247
20
-69.4804501
11
195.7244247
21
-79.6995499
0
LINE
8
0
10
207.6755753
20
-72.7995499
11
201.7755753
21
-62.5804501
0
ARC
8
0
10
196.5904501
20
-79.1995499
40
1
50
210
51
300
0
ARC
8
0
10
206.8095499
20
-73.2995499
40
1
50
300
51
30
0
ARC
8
0
10
200.9095499
20
-63.0804501
40
1
50
30
51
120
0
ARC
8
0
10
190.6904501
20
-68.9804501
40
1
50
120
51
210
0
LINE
8
0
10
190.0654501
20
-67.8979184
11
190.1904501
21
-68.1144247
0
LINE
8
0
10
197.0904501
20
-80.0655753
11
197.2154501
21
-80.2820816
0
LINE
8
0
10
197.2154501
20
-80.2820816
11
207.4345499
21
-74.3820816
0
LINE
8
0
10
207.4345499
20
-74.3820816
11
207.3095499
21
-74.1655753
0
LINE
8
0
10
200.4095499
20
-62.2144247
11
200.2845499
21
-61.9979184
0
LINE
8
0
10
200.2845499
20
-61.9979184
11
190.0654501
21
-67.8979184
0
LINE
8
0
10
211.3244247
20
-69.4804501
11
217.2244247
21
-79.6995499
0
LINE
8
0
10
229.1755753
20
-72.7995499
11
223.2755753
21
-62.5804501
0
ARC
8
0
10
218.0904501
20
-79.1995499
40
1
50
210
51
300
0
ARC
8
0
10
228.3095499
20
-73.2995499
40
1
50
300
51
30
0
ARC
8
0
10
222.4095499
20
-63.0804501
40
1
50
30
51
120
0
ARC
8
0
10
212.1904501
20
-68.9804501
40
1
50
120
51
210
0
LINE
8
0
10
211.5654501
20
-67.8979184
11
211.6904501
21
-68.1144247
0
LINE
8
0
10
218.5904501
20
-80.0655753
11
218.7154501
21
-80.2820816
0
LINE
8
0
10
218.7154501
20
-80.2820816
11
228.9345499
21
-74.3820816
0
LINE
8
0
10
228.9345499
20
-74.3820816
11
228.8095499
21
-74.1655753
0
LINE
8
0
10
221.9095499
20
-62.2144247
11
221.7845499
21
-61.9979184
0
LINE
8
0
10
221.7845499
20
-61.9979184
11
211.5654501
21
-67.8979184
0
LINE
8
0
10
193.9
20
-120.1
11
182.1
21
-120.1
0
LINE
8
0
10
182.1
20
-133.9
11
193.9
21
-133.9
0
ARC
8
0
10
182.1
20
-121.1
40
1
50
90
51
180
0
ARC
8
0
10
182.1
20
-132.9
40
1
50
180
51
270
0
ARC
8
0
10
193.9
20
-132.9
40
1
50
270
51
0
0
ARC
8
0
10
193.9
20
-121.1
40
1
50
0
51
90
0
LINE
8
0
10
195.15
20
-121.1
11
194.9
21
-121.1
0
LINE
8
0
10
181.1
20
-121.1
11
180.85
21
-121.1
0
LINE
8
0
10
180.85
20
-121.1
11
180.85
21
-132.9
0
LINE
8
0
10
180.85
20
-132.9
11
181.1
21
-132.9
0
LINE
8
0
10
194.9
20
-132.9
11
195.15
21
-132.9
0
LINE
8
0
10
195.15
20
-132.9
11
195.15
21
-121.1
0
LINE
8
0
10
225.1
20
-174.6041
11
236.9
21
-174.6041
0
LINE
8
0
10
236.9
20
-160.8041
11
225.1
21
-160.8041
0
ARC
8
0
10
236.9
20
-173.6041
40
1
50
270
51
0
0
ARC
8
0
10
236.9
20
-161.8041
40
1
50
0
51
90
0
ARC
8
0
10
225.1
20
-161.8041
40
1
50
90
51
180
0
ARC
8
0
10
225.1
20
-173.6041
40
1
50
180
51
270
0
LINE
8
0
10
223.85
20
-173.6041
11
224.1
21
-173.6041
0
LINE
8
0
10
237.9
20
-173.6041
11
238.15
21
-173.6041
0
LINE
8
0
10
238.15
20
-173.6041
11
238.15
21
-161.8041
0
LINE
8
0
10
238.15
20
-161.8041
11
237.9
21
-161.8041
0
LINE
8
0
10
224.1
20
-161.8041
11
223.85
21
-161.8041
0
LINE
8
0
10
223.85
20
-161.8041
11
223.85
21
-173.6041
0
LINE
8
0
10
358.15
20
-101.48
11
346.35
21
-101.48
0
LINE
8
0
10
346.35
20
-115.28
11
358.15
21
-115.28
0
ARC
8
0
10
346.35
20
-102.48
40
1
50
90
51
180
0
ARC
8
0
10
346.35
20
-114.28
40
1
50
180
51
270
0
ARC
8
0
10
358.15
20
-114.28
40
1
50
270
51
0
0
ARC
8
0
10
358.15
20
-102.48
40
1
50
0
51
90
0
LINE
8
0
10
359.4
20
-102.48
11
359.15
21
-102.48
0
LINE
8
0
10
345.35
20
-102.48
11
345.1
21
-102.48
0
LINE
8
0
10
345.1
20
-102.48
11
345.1
21
-114.28
0
LINE
8
0
10
345.1
20
-114.28
11
345.35
21
-114.28
0
LINE
8
0
10
359.15
20
-114.28
11
359.4
21
-114.28
0
LINE
8
0
10
359.4
20
-114.28
11
359.4
21
-102.48
0
LINE
8
0
10
336.65
20
-101.48
11
324.85
21
-101.48
0
LINE
8
0
10
324.85
20
-115.28
11
336.65
21
-115.28
0
ARC
8
0
10
324.85
20
-102.48
40
1
50
90
51
180
0
ARC
8
0
10
324.85
20
-114.28
40
1
50
180
51
270
0
ARC
8
0
10
336.65
20
-114.28
40
1
50
270
51
0
0
ARC
8
0
10
336.65
20
-102.48
40
1
50
0
51
90
0
LINE
8
0
10
337.9
20
-102.48
11
337.65
21
-102.48
0
LINE
8
0
10
323.85
20
-102.48
11
323.6
21
-102.48
0
LINE
8
0
10
323.6
20
-102.48
11
323.6
21
-114.28
0
LINE
8
0
10
323.6
20
-114.28
11
323.85
21
-114.28
0
LINE
8
0
10
337.65
20
-114.28
11
337.9
21
-114.28
0
LINE
8
0
10
337.9
20
-114.28
11
337.9
21
-102.48
0
LINE
8
0
10
315.15
20
-101.48
11
303.35
21
-101.48
0
LINE
8
0
10
303.35
20
-115.28
11
315.15
21
-115.28
0
ARC
8
0
10
303.35
20
-102.48
40
1
50
90
51
180
0
ARC
8
0
10
303.35
20
-114.28
40
1
50
180
51
270
0
ARC
8
0
10
315.15
20
-114.28
40
1
50
270
51
0
0
ARC
8
0
10
315.15
20
-102.48
40
1
50
0
51
90
0
LINE
8
0
10
316.4
20
-102.48
11
316.15
21
-102.48
0
LINE
8
0
10
302.35
20
-102.48
11
302.1
21
-102.48
0
LINE
8
0
10
302.1
20
-102.48
11
302.1
21
-114.28
0
LINE
8
0
10
302.1
20
-114.28
11
302.35
21
-114.28
0
LINE
8
0
10
316.15
20
-114.28
11
316.4
21
-114.28
0
LINE
8
0
10
316.4
20
-114.28
11
316.4
21
-102.48
0
LINE
8
0
10
359.9744247
20
-81.2004501
11
354.0744247
21
-91.4195499
0
LINE
8
0
10
366.0255753
20
-98.3195499
11
371.9255753
21
-88.1004501
0
ARC
8
0
10
354.9404501
20
-91.9195499
40
1
50
150
51
240
0
ARC
8
0
10
365.1595499
20
-97.8195499
40
1
50
240
51
330
0
ARC
8
0
10
371.0595499
20
-87.6004501
40
1
50
330
51
60
0
ARC
8
0
10
360.8404501
20
-81.7004501
40
1
50
60
51
150
0
LINE
8
0
10
361.4654501
20
-80.6179184
11
361.3404501
21
-80.8344247
0
LINE
8
0
10
354.4404501
20
-92.7855753
11
354.3154501
21
-93.0020816
0
LINE
8
0
10
354.3154501
20
-93.0020816
11
364.5345499
21
-98.9020816
0
LINE
8
0
10
364.5345499
20
-98.9020816
11
364.6595499
21
-98.6855753
0
LINE
8
0
10
371.5595499
20
-86.7344247
11
371.6845499
21
-86.5179184
0
LINE
8
0
10
371.6845499
20
-86.5179184
11
361.4654501
21
-80.6179184
0
LINE
8
0
10
350.4255753
20
-91.4195499
11
344.5255753
21
-81.2004501
0
LINE
8
0
10
332.5744247
20
-88.1004501
11
338.4744247
21
-98.3195499
0
ARC
8
0
10
343.6595499
20
-81.7004501
40
1
50
30
51
120
0
ARC
8
0
10
333.4404501
20
-87.6004501
40
1
50
120
51
210
0
ARC
8
0
10
339.3404501
20
-97.8195499
40
1
50
210
51
300
0
ARC
8
0
10
349.5595499
20
-91.9195499
40
1
50
300
51
30
0
LINE
8
0
10
350.1845499
20
-93.0020816
11
350.0595499
21
-92.7855753
0
LINE
8
0
10
343.1595499
20
-80.8344247
11
343.0345499
21
-80.6179184
0
LINE
8
0
10
343.0345499
20
-80.6179184
11
332.8154501
21
-86.5179184
0
LINE
8
0
10
332.8154501
20
-86.5179184
11
332.9404501
21
-86.7344247
0
LINE
8
0
10
339.8404501
20
-98.6855753
11
339.9654501
21
-98.9020816
0
LINE
8
0
10
339.9654501
20
-98.9020816
11
350.1845499
21
-93.0020816
0
LINE
8
0
10
328.9255753
20
-91.4195499
11
323.0255753
21
-81.2004501
0
LINE
8
0
10
311.0744247
20
-88.1004501
11
316.9744247
21
-98.3195499
0
ARC
8
0
10
322.1595499
20
-81.7004501
40
1
50
30
51
120
0
ARC
8
0
10
311.9404501
20
-87.6004501
40
1
50
120
51
210
0
ARC
8
0
10
317.8404501
20
-97.8195499
40
1
50
210
51
300
0
ARC
8
0
10
328.0595499
20
-91.9195499
40
1
50
300
51
30
0
LINE
8
0
10
328.6845499
20
-93.0020816
11
328.5595499
21
-92.7855753
0
LINE
8
0
10
321.6595499
20
-80.8344247
11
321.5345499
21
-80.6179184
0
LINE
8
0
10
321.5345499
20
-80.6179184
11
311.3154501
21
-86.5179184
0
LINE
8
0
10
311.3154501
20
-86.5179184
11
311.4404501
21
-86.7344247
0
LINE
8
0
10
318.3404501
20
-98.6855753
11
318.4654501
21
-98.9020816
0
LINE
8
0
10
318.4654501
20
-98.9020816
11
328.6845499
21
-93.0020816
0
LINE
8
0
10
307.4255753
20
-91.4195499
11
301.5255753
21
-81.2004501
0
LINE
8
0
10
289.5744247
20
-88.1004501
11
295.4744247
21
-98.3195499
0
ARC
8
0
10
300.6595499
20
-81.7004501
40
1
50
30
51
120
0
ARC
8
0
10
290.4404501
20
-87.6004501
40
1
50
120
51
210
0
ARC
8
0
10
296.3404501
20
-97.8195499
40
1
50
210
51
300
0
ARC
8
0
10
306.5595499
20
-91.9195499
40
1
50
300
51
30
0
LINE
8
0
10
307.1845499
20
-93.0020816
11
307.0595499
21
-92.7855753
0
LINE
8
0
10
300.1595499
20
-80.8344247
11
300.0345499
21
-80.6179184
0
LINE
8
0
10
300.0345499
20
-80.6179184
11
289.8154501
21
-86.5179184
0
LINE
8
0
10
289.8154501
20
-86.5179184
11
289.9404501
21
-86.7344247
0
LINE
8
0
10
296.8404501
20
-98.6855753
11
296.9654501
21
-98.9020816
0
LINE
8
0
10
296.9654501
20
-98.9020816
11
307.1845499
21
-93.0020816
0
LINE
8
0
10
346.35
20
-78.04
11
358.15
21
-78.04
0
LINE
8
0
10
358.15
20
-64.24
11
346.35
21
-64.24
0
ARC
8
0
10
358.15
20
-77.04
40
1
50
270
51
0
0
ARC
8
0
10
358.15
20
-65.24
40
1
50
0
51
90
0
ARC
8
0
10
346.35
20
-65.24
40
1
50
90
51
180
0
ARC
8
0
10
346.35
20
-77.04
40
1
50
180
51
270
0
LINE
8
0
10
345.1
20
-77.04
11
345.35
21
-77.04
0
LINE
8
0
10
359.15
20
-77.04
11
359.4
21
-77.04
0
LINE
8
0
10
359.4
20
-77.04
11
359.4
21
-65.24
0
LINE
8
0
10
359.4
20
-65.24
11
359.15
21
-65.24
0
LINE
8
0
10
345.35
20
-65.24
11
345.1
21
-65.24
0
LINE
8
0
10
345.1
20
-65.24
11
345.1
21
-77.04
0
LINE
8
0
10
333.7755753
20
-79.6995499
11
339.6755753
21
-69.4804501
0
LINE
8
0
10
327.7244247
20
-62.5804501
11
321.8244247
21
-72.7995499
0
ARC
8
0
10
338.8095499
20
-68.9804501
40
1
50
330
51
60
0
ARC
8
0
10
328.5904501
20
-63.0804501
40
1
50
60
51
150
0
ARC
8
0
10
322.6904501
20
-73.2995499
40
1
50
150
51
240
0
ARC
8
0
10
332.9095499
20
-79.1995499
40
1
50
240
51
330
0
LINE
8
0
10
332.2845499
20
-80.2820816
11
332.4095499
21
-80.0655753
0
LINE
8
0
10
339.3095499
20
-68.1144247
11
339.4345499
21
-67.8979184
0
LINE
8
0
10
339.4345499
20
-67.8979184
11
329.2154501
21
-61.9979184
0
LINE
8
0
10
329.2154501
20
-61.9979184
11
329.0904501
21
-62.2144247
0
LINE
8
0
10
322.1904501
20
-74.1655753
11
322.0654501
21
-74.3820816
0
LINE
8
0
10
322.0654501
20
-74.3820816
11
332.2845499
21
-80.2820816
0
LINE
8
0
10
312.2755753
20
-79.6995499
11
318.1755753
21
-69.4804501
0
LINE
8
0
10
306.2244247
20
-62.5804501
11
300.3244247
21
-72.7995499
0
ARC
8
0
10
317.3095499
20
-68.9804501
40
1
50
330
51
60
0
ARC
8
0
10
307.0904501
20
-63.0804501
40
1
50
60
51
150
0
ARC
8
0
10
301.1904501
20
-73.2995499
40
1
50
150
51
240
0
ARC
8
0
10
311.4095499
20
-79.1995499
40
1
50
240
51
330
0
LINE
8
0
10
310.7845499
20
-80.2820816
11
310.9095499
21
-80.0655753
0
LINE
8
0
10
317.8095499
20
-68.1144247
11
317.9345499
21
-67.8979184
0
LINE
8
0
10
317.9345499
20
-67.8979184
11
307.7154501
21
-61.9979184
0
LINE
8
0
10
307.7154501
20
-61.9979184
11
307.5904501
21
-62.2144247
0
LINE
8
0
10
300.6904501
20
-74.1655753
11
300.5654501
21
-74.3820816
0
LINE
8
0
10
300.5654501
20
-74.3820816
11
310.7845499
21
-80.2820816
0
LINE
8
0
10
290.7755753
20
-79.6995499
11
296.6755753
21
-69.4804501
0
LINE
8
0
10
284.7244247
20
-62.5804501
11
278.8244247
21
-72.7995499
0
ARC
8
0
10
295.8095499
20
-68.9804501
40
1
50
330
51
60
0
ARC
8
0
10
285.5904501
20
-63.0804501
40
1
50
60
51
150
0
ARC
8
0
10
279.6904501
20
-73.2995499
40
1
50
150
51
240
0
ARC
8
0
10
289.9095499
20
-79.1995499
40
1
50
240
51
330
0
LINE
8
0
10
289.2845499
20
-80.2820816
11
289.4095499
21
-80.0655753
0
LINE
8
0
10
296.3095499
20
-68.1144247
11
296.4345499
21
-67.8979184
0
LINE
8
0
10
296.4345499
20
-67.8979184
11
286.2154501
21
-61.9979184
0
LINE
8
0
10
286.2154501
20
-61.9979184
11
286.0904501
21
-62.2144247
0
LINE
8
0
10
279.1904501
20
-74.1655753
11
279.0654501
21
-74.3820816
0
LINE
8
0
10
279.0654501
20
-74.3820816
11
289.2845499
21
-80.2820816
0
LINE
8
0
10
325.9
20
-120.1
11
314.1
21
-120.1
0
LINE
8
0
10
314.1
20
-133.9
11
325.9
21
-133.9
0
ARC
8
0
10
314.1
20
-121.1
40
1
50
90
51
180
0
ARC
8
0
10
314.1
20
-132.9
40
1
50
180
51
270
0
ARC
8
0
10
325.9
20
-132.9
40
1
50
270
51
0
0
ARC
8
0
10
325.9
20
-121.1
40
1
50
0
51
90
0
LINE
8
0
10
327.15
20
-121.1
11
326.9
21
-121.1
0
LINE
8
0
10
313.1
20
-121.1
11
312.85
21
-121.1
0
LINE
8
0
10
312.85
20
-121.1
11
312.85
21
-132.9
0
LINE
8
0
10
312.85
20
-132.9
11
313.1
21
-132.9
0
LINE
8
0
10
326.9
20
-132.9
11
327.15
21
-132.9
0
LINE
8
0
10
327.15
20
-132.9
11
327.15
21
-121.1
0
LINE
8
0
10
271.1
20
-174.6041
11
282.9
21
-174.6041
0
LINE
8
0
10
282.9
20
-160.8041
11
271.1
21
-160.8041
0
ARC
8
0
10
282.9
20
-173.6041
40
1
50
270
51
0
0
ARC
8
0
10
282.9
20
-161.8041
40
1
50
0
51
90
0
ARC
8
0
10
271.1
20
-161.8041
40
1
50
90
51
180
0
ARC
8
0
10
271.1
20
-173.6041
40
1
50
180
51
270
0
LINE
8
0
10
269.85
20
-173.6041
11
270.1
21
-173.6041
0
LINE
8
0
10
283.9
20
-173.6041
11
284.15
21
-173.6041
0
LINE
8
0
10
284.15
20
-173.6041
11
284.15
21
-161.8041
0
LINE
8
0
10
284.15
20
-161.8041
11
283.9
21
-161.8041
0
LINE
8
0
10
270.1
20
-161.8041
11
269.85
21
-161.8041
0
LINE
8
0
10
269.85
20
-161.8041
11
269.85
21
-173.6041
0
LINE
8
0
10
245.11
20
-96.7612833
11
248
21
-96.7612833
0
LINE
8
0
10
260
20
-96.7612833
11
262.89
21
-96.7612833
0
LINE
8
0
10
263.43
20
-96.2212833
11
263.43
21
-69.2012833
0
LINE
8
0
10
244.57
20
-69.2012833
11
244.57
21
-96.2212833
0
ARC
8
0
10
262.89
20
-96.2212833
40
0.54
50
270
51
0
0
ARC
8
0
10
245.11
20
-96.2212833
40
0.54
50
180
51
270
0
LINE
8
0
10
248.54
20
-102.7212833
11
259.46
21
-102.7212833
0
LINE
8
0
10
260
20
-102.1812833
11
260
21
-96.7612833
0
LINE
8
0
10
248
20
-96.7612833
11
248
21
-102.1812833
0
ARC
8
0
10
259.46
20
-102.1812833
40
0.54
50
270
51
0
0
ARC
8
0
10
248.54
20
-102.1812833
40
0.54
50
180
51
270
0
LINE
8
0
10
268.5
20
-113.9833333
11
273.5
21
-113.9833333
0
LINE
8
0
10
274.5
20
-112.9833333
11
274.5
21
-111.9833333
0
LINE
8
0
10
273.5
20
-110.9833333
11
268.5
21
-110.9833333
0
LINE
8
0
10
267.5
20
-111.9833333
11
267.5
21
-112.9833333
0
ARC
8
0
10
273.5
20
-112.9833333
40
1
50
270
51
0
0
ARC
8
0
10
273.5
20
-111.9833333
40
1
50
0
51
90
0
ARC
8
0
10
268.5
20
-111.9833333
40
1
50
90
51
180
0
ARC
8
0
10
268.5
20
-112.9833333
40
1
50
180
51
270
0
LINE
8
0
10
234.5
20
-113.9833333
11
239.5
21
-113.9833333
0
ARC
8
0
10
239.5
20
-112.9833333
40
1
50
270
51
0
0
ARC
8
0
10
234.5
20
-112.9833333
40
1
50
180
51
270
0
ENDSEC
0
EOF