0
SECTION
2
HEADER
9
$INSUNITS
70
4
0
ENDSEC
0
SECTION
2
TABLES
0
TABLE
2
LTYPE
0
LTYPE
72
65
70
64
2
CONTINUOUS
3
______
73
0
40
0
0
ENDTAB
0
TABLE
2
LAYER
0
ENDTAB
0
ENDSEC
0
SECTION
2
ENTITIES
0
LINE
8
0
10
239.7100301
20
-175.0885807
11
232.6350291
21
-179.1734273
0
LINE
8
0
10
229.3649715
20
-179.1734261
11
221.8849702
21
-174.8547402
0
LINE
8
0
10
197.1149702
20
-160.5534255
11
189.6349702
21
-156.2347402
0
LINE
8
0
10
188
20
-153.4028543
11
188
21
-141.3012457
0
LINE
8
0
10
186.3650298
20
-138.4693598
11
178.8849702
21
-134.1506402
0
LINE
8
0
10
154.1149702
20
-119.8493255
11
146.6349702
21
-115.5306402
0
LINE
8
0
10
134.25
20
-94.0787543
11
134.25
21
-85.4412458
0
LINE
8
0
10
146.6349702
20
-63.9893599
11
154.1149702
21
-59.6706746
0
LINE
8
0
10
178.8850298
20
-59.6706746
11
186.3649702
21
-63.9893254
0
LINE
8
0
10
189.6350298
20
-63.9893254
11
197.1149702
21
-59.6706746
0
LINE
8
0
10
221.8850284
20
-59.6706702
11
223.3131607
21
-60.4952198
0
LINE
8
0
10
284.6868393
20
-60.4952198
11
286.1149716
21
-59.6706702
0
LINE
8
0
10
310.8850298
20
-59.6706746
11
318.3649702
21
-63.9893254
0
LINE
8
0
10
321.6350298
20
-63.9893254
11
329.1149702
21
-59.6706746
0
LINE
8
0
10
353.8850298
20
-59.6706746
11
361.3650298
21
-63.9893599
0
LINE
8
0
10
373.75
20
-85.4412458
11
373.75
21
-94.0787543
0
LINE
8
0
10
361.3650298
20
-115.5306402
11
353.8850298
21
-119.8493255
0
LINE
8
0
10
329.1150298
20
-134.1506402
11
321.6349702
21
-138.4693598
0
LINE
8
0
10
320
20
-141.3012457
11
320
21
-153.4028543
0
LINE
8
0
10
318.3650298
20
-156.2347402
11
310.8850298
21
-160.5534255
0
LINE
8
0
10
286.1150298
20
-174.8547402
11
278.6350285
21
-179.1734261
0
LINE
8
0
10
275.3649709
20
-179.1734273
11
268.2899699
21
-175.0885807
0
LINE
8
0
10
283.0518104
20
-60.9333333
11
277.27
21
-60.9333333
0
LINE
8
0
10
230.73
20
-60.9333333
11
224.9481896
21
-60.9333333
0
LINE
8
0
10
263.43
20
-60.9333333
11
244.57
21
-60.9333333
0
ARC
8
0
10
231.0000013
20
-176.3415403
40
3.27
50
239.9993965
51
300.0005622
0
ARC
8
0
10
191.27
20
-153.4028543
40
3.27
50
180
51
239.9993965
0
ARC
8
0
10
184.73
20
-141.3012457
40
3.27
50
0
51
59.9993965
0
ARC
8
0
10
188
20
-61.1574395
40
3.27
50
239.9993965
51
300.0006035
0
ARC
8
0
10
224.9481896
20
-57.6633333
40
3.27
50
239.9994171
51
270
0
ARC
8
0
10
283.0518104
20
-57.6633333
40
3.27
50
270
51
300.0005829
0
ARC
8
0
10
320
20
-61.1574395
40
3.27
50
239.9993965
51
300.0006035
0
ARC
8
0
10
323.27
20
-141.3012457
40
3.27
50
120.0006035
51
180
0
ARC
8
0
10
316.73
20
-153.4028543
40
3.27
50
300.0006035
51
0
0
ARC
8
0
10
276.9999987
20
-176.3415403
40
3.27
50
239.9994378
51
300.0006035
0
LINE
8
0
10
145
20
-66.8212458
11
145
21
-75.4587543
0
LINE
8
0
10
143.3650298
20
-78.2906402
11
135.8849702
21
-82.6093599
0
LINE
8
0
10
164.8649702
20
-63.9893255
11
157.3850298
21
-59.6706746
0
LINE
8
0
10
175.6149702
20
-59.6706746
11
168.1350298
21
-63.9893255
0
LINE
8
0
10
207.8649702
20
-63.9893255
11
200.3850298
21
-59.6706746
0
LINE
8
0
10
218.6149733
20
-59.6706728
11
211.1350298
21
-63.9893255
0
LINE
8
0
10
372.1150298
20
-82.6093599
11
364.6349702
21
-78.2906402
0
LINE
8
0
10
363
20
-75.4587543
11
363
21
-66.8212458
0
LINE
8
0
10
339.8649702
20
-63.9893255
11
332.3850298
21
-59.6706746
0
LINE
8
0
10
350.6149702
20
-59.6706746
11
343.1350298
21
-63.9893255
0
LINE
8
0
10
296.8649702
20
-63.9893255
11
289.3850267
21
-59.6706728
0
LINE
8
0
10
307.6149702
20
-59.6706746
11
300.1350298
21
-63.9893255
0
LINE
8
0
10
135.8849702
20
-96.9106402
11
143.3650298
21
-101.2293599
0
LINE
8
0
10
145
20
-104.0612458
11
145
21
-112.6987543
0
LINE
8
0
10
157.3850298
20
-119.8493255
11
164.8649702
21
-115.5306746
0
LINE
8
0
10
168.1350298
20
-115.5306746
11
175.6150298
21
-119.8493599
0
LINE
8
0
10
177.25
20
-122.6812458
11
177.25
21
-131.3187543
0
LINE
8
0
10
200.3850298
20
-160.5534255
11
207.8649702
21
-156.2347746
0
LINE
8
0
10
211.1350298
20
-156.2347746
11
218.6150298
21
-160.5534599
0
LINE
8
0
10
220.25
20
-163.3853458
11
220.25
21
-172.0228543
0
LINE
8
0
10
363
20
-112.6987543
11
363
21
-104.0612458
0
LINE
8
0
10
364.6349702
20
-101.2293599
11
372.1150298
21
-96.9106402
0
LINE
8
0
10
330.75
20
-131.3187543
11
330.75
21
-122.6812458
0
LINE
8
0
10
332.3849702
20
-119.8493599
11
339.8649702
21
-115.5306746
0
LINE
8
0
10
343.1350298
20
-115.5306746
11
350.6149702
21
-119.8493255
0
LINE
8
0
10
287.75
20
-172.0228543
11
287.75
21
-163.3853458
0
LINE
8
0
10
289.3849702
20
-160.5534599
11
296.8649702
21
-156.2347746
0
LINE
8
0
10
300.1350298
20
-156.2347746
11
307.6149702
21
-160.5534255
0
ARC
8
0
10
223.52
20
-172.0228543
40
3.27
50
180
51
239.9993965
0
ARC
8
0
10
216.98
20
-163.3853458
40
3.27
50
0
51
59.9993965
0
ARC
8
0
10
209.5
20
-159.0666605
40
3.27
50
59.9993965
51
120.0006035
0
ARC
8
0
10
198.75
20
-157.7215396
40
3.27
50
239.9993965
51
300.0006035
0
ARC
8
0
10
180.52
20
-131.3187543
40
3.27
50
180
51
239.9993965
0
ARC
8
0
10
173.98
20
-122.6812458
40
3.27
50
0
51
59.9993965
0
ARC
8
0
10
166.5
20
-118.3625605
40
3.27
50
59.9993965
51
120.0006035
0
ARC
8
0
10
155.75
20
-117.0174396
40
3.27
50
239.9993965
51
300.0006035
0
ARC
8
0
10
148.27
20
-112.6987543
40
3.27
50
180
51
239.9993965
0
ARC
8
0
10
141.73
20
-104.0612458
40
3.27
50
0
51
59.9993965
0
ARC
8
0
10
137.52
20
-94.0787543
40
3.27
50
180
51
239.9993965
0
ARC
8
0
10
137.52
20
-85.4412458
40
3.27
50
120.0006035
51
180
0
ARC
8
0
10
141.73
20
-75.4587543
40
3.27
50
300.0006035
51
0
0
ARC
8
0
10
148.27
20
-66.8212458
40
3.27
50
120.0006035
51
180
0
ARC
8
0
10
155.75
20
-62.5025605
40
3.27
50
59.9993965
51
120.0006035
0
ARC
8
0
10
166.5
20
-61.1574396
40
3.27
50
239.9993965
51
300.0006035
0
ARC
8
0
10
177.25
20
-62.5025605
40
3.27
50
59.9993965
51
120.0006035
0
ARC
8
0
10
198.75
20
-62.5025605
40
3.27
50
59.9993965
51
120.0006035
0
ARC
8
0
10
209.5
20
-61.1574396
40
3.27
50
239.9993965
51
300.0006035
0
ARC
8
0
10
220.2500031
20
-62.5025587
40
3.27
50
59.9994889
51
120.0006035
0
ARC
8
0
10
287.7499969
20
-62.5025587
40
3.27
50
59.9993965
51
120.0005111
0
ARC
8
0
10
298.5
20
-61.1574396
40
3.27
50
239.9993965
51
300.0006035
0
ARC
8
0
10
309.25
20
-62.5025605
40
3.27
50
59.9993965
51
120.0006035
0
ARC
8
0
10
330.75
20
-62.5025605
40
3.27
50
59.9993965
51
120.0006035
0
ARC
8
0
10
341.5
20
-61.1574396
40
3.27
50
239.9993965
51
300.0006035
0
ARC
8
0
10
352.25
20
-62.5025605
40
3.27
50
59.9993965
51
120.0006035
0
ARC
8
0
10
359.73
20
-66.8212458
40
3.27
50
0
51
59.9993965
0
ARC
8
0
10
366.27
20
-75.4587543
40
3.27
50
180
51
239.9993965
0
ARC
8
0
10
370.48
20
-85.4412458
40
3.27
50
0
51
59.9993965
0
ARC
8
0
10
370.48
20
-94.0787543
40
3.27
50
300.0006035
51
0
0
ARC
8
0
10
366.27
20
-104.0612458
40
3.27
50
120.0006035
51
180
0
ARC
8
0
10
359.73
20
-112.6987543
40
3.27
50
300.0006035
51
0
0
ARC
8
0
10
352.25
20
-117.0174396
40
3.27
50
239.9993965
51
300.0006035
0
ARC
8
0
10
341.5
20
-118.3625605
40
3.27
50
59.9993965
51
120.0006035
0
ARC
8
0
10
334.02
20
-122.6812458
40
3.27
50
120.0006035
51
180
0
ARC
8
0
10
327.48
20
-131.3187543
40
3.27
50
300.0006035
51
0
0
ARC
8
0
10
309.25
20
-157.7215396
40
3.27
50
239.9993965
51
300.0006035
0
ARC
8
0
10
298.5
20
-159.0666605
40
3.27
50
59.9993965
51
120.0006035
0
ARC
8
0
10
291.02
20
-163.3853458
40
3.27
50
120.0006035
51
180
0
ARC
8
0
10
284.48
20
-172.0228543
40
3.27
50
300.0006035
51
0
0
LINE
8
0
10
241.48
20
-172.0228681
11
241.48
21
-163.6971129
0
LINE
8
0
10
239.7100323
20
-160.6314016
11
237.8749677
21
-159.5719007
0
LINE
8
0
10
236.105
20
-156.5061894
11
236.105
21
-141.9737796
0
LINE
8
0
10
234.3350323
20
-138.9080683
11
232.4999677
21
-137.8485674
0
LINE
8
0
10
230.73
20
-134.7828561
11
230.73
21
-128.8879125
0
LINE
8
0
10
232.4999702
20
-125.8221998
11
252.2299702
21
-114.4308229
0
LINE
8
0
10
255.7700298
20
-114.4308229
11
275.5000298
21
-125.8221998
0
LINE
8
0
10
277.27
20
-128.8879125
11
277.27
21
-134.7828561
0
LINE
8
0
10
275.5000323
20
-137.8485674
11
273.6649677
21
-138.9080683
0
LINE
8
0
10
271.895
20
-141.9737796
11
271.895
21
-156.5061894
0
LINE
8
0
10
270.1250323
20
-159.5719007
11
268.2899677
21
-160.6314016
0
LINE
8
0
10
266.52
20
-163.6971129
11
266.52
21
-172.0228681
0
ARC
8
0
10
237.94
20
-163.6971129
40
3.54
50
0
51
59.9993965
0
ARC
8
0
10
239.645
20
-156.5061894
40
3.54
50
180
51
239.9993965
0
ARC
8
0
10
232.565
20
-141.9737796
40
3.54
50
0
51
59.9993965
0
ARC
8
0
10
234.27
20
-134.7828561
40
3.54
50
180
51
239.9993965
0
ARC
8
0
10
234.27
20
-128.8879125
40
3.54
50
120.0005573
51
180
0
ARC
8
0
10
254
20
-117.4965356
40
3.54
50
59.9994427
51
120.0005573
0
ARC
8
0
10
273.73
20
-128.8879125
40
3.54
50
0
51
59.9994427
0
ARC
8
0
10
273.73
20
-134.7828561
40
3.54
50
300.0006035
51
0
0
ARC
8
0
10
275.435
20
-141.9737796
40
3.54
50
120.0006035
51
180
0
ARC
8
0
10
268.355
20
-156.5061894
40
3.54
50
300.0006035
51
0
0
ARC
8
0
10
270.06
20
-163.6971129
40
3.54
50
120.0006035
51
180
0
ARC
8
0
10
270.06
20
-172.0228681
40
3.54
50
180
51
239.9994378
0
ARC
8
0
10
237.94
20
-172.0228681
40
3.54
50
300.0005622
51
0
0
LINE
8
0
10
233.73
20
-66.9333333
11
241.57
21
-66.9333333
0
LINE
8
0
10
266.43
20
-66.9333333
11
274.27
21
-66.9333333
0
LINE
8
0
10
277.27
20
-63.9333333
11
277.27
21
-60.9333333
0
LINE
8
0
10
230.73
20
-60.9333333
11
230.73
21
-63.9333333
0
ARC
8
0
10
274.27
20
-63.9333333
40
3
50
270
51
0
0
ARC
8
0
10
233.73
20
-63.9333333
40
3
50
180
51
270
0
LINE
8
0
10
263.43
20
-63.9333333
11
263.43
21
-60.9333333
0
LINE
8
0
10
244.57
20
-60.9333333
11
244.57
21
-63.9333333
0
ARC
8
0
10
241.57
20
-63.9333333
40
3
50
270
51
0
0
ARC
8
0
10
266.43
20
-63.9333333
40
3
50
180
51
270
0
LINE
8
0
10
268.5
20
-112.9833333
11
273.5
21
-112.9833333
0
LINE
8
0
10
274.5
20
-111.9833333
11
274.5
21
-110.9833333
0
LINE
8
0
10
273.5
20
-109.9833333
11
268.5
21
-109.9833333
0
LINE
8
0
10
267.5
20
-110.9833333
11
267.5
21
-111.9833333
0
ARC
8
0
10
273.5
20
-111.9833333
40
1
50
270
51
0
0
ARC
8
0
10
273.5
20
-110.9833333
40
1
50
0
51
90
0
ARC
8
0
10
268.5
20
-110.9833333
40
1
50
90
51
180
0
ARC
8
0
10
268.5
20
-111.9833333
40
1
50
180
51
270
0
LINE
8
0
10
208.2479492
20
-125.1681618
11
220.3723048
21
-132.1681618
0
LINE
8
0
10
221.1099585
20
-131.9705081
11
241.1099585
21
-97.3294919
0
LINE
8
0
10
240.9123048
20
-96.5918382
11
228.7879492
21
-89.5918382
0
LINE
8
0
10
228.0502955
20
-89.7894919
11
208.0502955
21
-124.4305081
0
ARC
8
0
10
220.6423048
20
-131.7005081
40
0.54
50
240
51
330
0
ARC
8
0
10
240.6423048
20
-97.0594919
40
0.54
50
330
51
60
0
ARC
8
0
10
228.5179492
20
-90.0594919
40
0.54
50
60
51
150
0
ARC
8
0
10
208.5179492
20
-124.7005081
40
0.54
50
150
51
240
0
LINE
8
0
10
157.35
20
-111.76
11
154.15
21
-111.76
0
LINE
8
0
10
153.95
20
-111.96
11
153.95
21
-114.66
0
LINE
8
0
10
154.15
20
-114.86
11
157.35
21
-114.86
0
LINE
8
0
10
157.55
20
-114.66
11
157.55
21
-111.96
0
ARC
8
0
10
154.15
20
-111.96
40
0.2
50
90
51
180
0
ARC
8
0
10
154.15
20
-114.66
40
0.2
50
180
51
270
0
ARC
8
0
10
157.35
20
-114.66
40
0.2
50
270
51
0
0
ARC
8
0
10
157.35
20
-111.96
40
0.2
50
0
51
90
0
LINE
8
0
10
178.85
20
-111.76
11
175.65
21
-111.76
0
LINE
8
0
10
175.45
20
-111.96
11
175.45
21
-114.66
0
LINE
8
0
10
175.65
20
-114.86
11
178.85
21
-114.86
0
LINE
8
0
10
179.05
20
-114.66
11
179.05
21
-111.96
0
ARC
8
0
10
175.65
20
-111.96
40
0.2
50
90
51
180
0
ARC
8
0
10
175.65
20
-114.66
40
0.2
50
180
51
270
0
ARC
8
0
10
178.85
20
-114.66
40
0.2
50
270
51
0
0
ARC
8
0
10
178.85
20
-111.96
40
0.2
50
0
51
90
0
LINE
8
0
10
200.35
20
-111.76
11
197.15
21
-111.76
0
LINE
8
0
10
196.95
20
-111.96
11
196.95
21
-114.66
0
LINE
8
0
10
197.15
20
-114.86
11
200.35
21
-114.86
0
LINE
8
0
10
200.55
20
-114.66
11
200.55
21
-111.96
0
ARC
8
0
10
197.15
20
-111.96
40
0.2
50
90
51
180
0
ARC
8
0
10
197.15
20
-114.66
40
0.2
50
180
51
270
0
ARC
8
0
10
200.35
20
-114.66
40
0.2
50
270
51
0
0
ARC
8
0
10
200.35
20
-111.96
40
0.2
50
0
51
90
0
LINE
8
0
10
142.8728341
20
-92.8356406
11
141.2728341
21
-90.0643594
0
LINE
8
0
10
140.9996291
20
-89.9911543
11
138.6613605
21
-91.3411543
0
LINE
8
0
10
138.5881554
20
-91.6143594
11
140.1881554
21
-94.3856406
0
LINE
8
0
10
140.4613605
20
-94.4588457
11
142.7996291
21
-93.1088457
0
ARC
8
0
10
141.0996291
20
-90.1643594
40
0.2
50
30
51
120
0
ARC
8
0
10
138.7613605
20
-91.5143594
40
0.2
50
120
51
210
0
ARC
8
0
10
140.3613605
20
-94.2856406
40
0.2
50
210
51
300
0
ARC
8
0
10
142.6996291
20
-92.9356406
40
0.2
50
300
51
30
0
LINE
8
0
10
170.2271659
20
-90.0643594
11
168.6271659
21
-92.8356406
0
LINE
8
0
10
168.7003709
20
-93.1088457
11
171.0386395
21
-94.4588457
0
LINE
8
0
10
171.3118446
20
-94.3856406
11
172.9118446
21
-91.6143594
0
LINE
8
0
10
172.8386395
20
-91.3411543
11
170.5003709
21
-89.9911543
0
ARC
8
0
10
168.8003709
20
-92.9356406
40
0.2
50
150
51
240
0
ARC
8
0
10
171.1386395
20
-94.2856406
40
0.2
50
240
51
330
0
ARC
8
0
10
172.7386395
20
-91.5143594
40
0.2
50
330
51
60
0
ARC
8
0
10
170.4003709
20
-90.1643594
40
0.2
50
60
51
150
0
LINE
8
0
10
191.7271659
20
-90.0643594
11
190.1271659
21
-92.8356406
0
LINE
8
0
10
190.2003709
20
-93.1088457
11
192.5386395
21
-94.4588457
0
LINE
8
0
10
192.8118446
20
-94.3856406
11
194.4118446
21
-91.6143594
0
LINE
8
0
10
194.3386395
20
-91.3411543
11
192.0003709
21
-89.9911543
0
ARC
8
0
10
190.3003709
20
-92.9356406
40
0.2
50
150
51
240
0
ARC
8
0
10
192.6386395
20
-94.2856406
40
0.2
50
240
51
330
0
ARC
8
0
10
194.2386395
20
-91.5143594
40
0.2
50
330
51
60
0
ARC
8
0
10
191.9003709
20
-90.1643594
40
0.2
50
60
51
150
0
LINE
8
0
10
213.2271659
20
-90.0643594
11
211.6271659
21
-92.8356406
0
LINE
8
0
10
211.7003709
20
-93.1088457
11
214.0386395
21
-94.4588457
0
LINE
8
0
10
214.3118446
20
-94.3856406
11
215.9118446
21
-91.6143594
0
LINE
8
0
10
215.8386395
20
-91.3411543
11
213.5003709
21
-89.9911543
0
ARC
8
0
10
211.8003709
20
-92.9356406
40
0.2
50
150
51
240
0
ARC
8
0
10
214.1386395
20
-94.2856406
40
0.2
50
240
51
330
0
ARC
8
0
10
215.7386395
20
-91.5143594
40
0.2
50
330
51
60
0
ARC
8
0
10
213.4003709
20
-90.1643594
40
0.2
50
60
51
150
0
LINE
8
0
10
154.15
20
-67.76
11
157.35
21
-67.76
0
LINE
8
0
10
157.55
20
-67.56
11
157.55
21
-64.86
0
LINE
8
0
10
157.35
20
-64.66
11
154.15
21
-64.66
0
LINE
8
0
10
153.95
20
-64.86
11
153.95
21
-67.56
0
ARC
8
0
10
157.35
20
-67.56
40
0.2
50
270
51
0
0
ARC
8
0
10
157.35
20
-64.86
40
0.2
50
0
51
90
0
ARC
8
0
10
154.15
20
-64.86
40
0.2
50
90
51
180
0
ARC
8
0
10
154.15
20
-67.56
40
0.2
50
180
51
270
0
LINE
8
0
10
179.3771659
20
-68.0643594
11
180.9771659
21
-70.8356406
0
LINE
8
0
10
181.2503709
20
-70.9088457
11
183.5886395
21
-69.5588457
0
LINE
8
0
10
183.6618446
20
-69.2856406
11
182.0618446
21
-66.5143594
0
LINE
8
0
10
181.7886395
20
-66.4411543
11
179.4503709
21
-67.7911543
0
ARC
8
0
10
181.1503709
20
-70.7356406
40
0.2
50
210
51
300
0
ARC
8
0
10
183.4886395
20
-69.3856406
40
0.2
50
300
51
30
0
ARC
8
0
10
181.8886395
20
-66.6143594
40
0.2
50
30
51
120
0
ARC
8
0
10
179.5503709
20
-67.9643594
40
0.2
50
120
51
210
0
LINE
8
0
10
200.8771659
20
-68.0643594
11
202.4771659
21
-70.8356406
0
LINE
8
0
10
202.7503709
20
-70.9088457
11
205.0886395
21
-69.5588457
0
LINE
8
0
10
205.1618446
20
-69.2856406
11
203.5618446
21
-66.5143594
0
LINE
8
0
10
203.2886395
20
-66.4411543
11
200.9503709
21
-67.7911543
0
ARC
8
0
10
202.6503709
20
-70.7356406
40
0.2
50
210
51
300
0
ARC
8
0
10
204.9886395
20
-69.3856406
40
0.2
50
300
51
30
0
ARC
8
0
10
203.3886395
20
-66.6143594
40
0.2
50
30
51
120
0
ARC
8
0
10
201.0503709
20
-67.9643594
40
0.2
50
120
51
210
0
LINE
8
0
10
222.3771659
20
-68.0643594
11
223.9771659
21
-70.8356406
0
LINE
8
0
10
224.2503709
20
-70.9088457
11
226.5886395
21
-69.5588457
0
LINE
8
0
10
226.6618446
20
-69.2856406
11
225.0618446
21
-66.5143594
0
LINE
8
0
10
224.7886395
20
-66.4411543
11
222.4503709
21
-67.7911543
0
ARC
8
0
10
224.1503709
20
-70.7356406
40
0.2
50
210
51
300
0
ARC
8
0
10
226.4886395
20
-69.3856406
40
0.2
50
300
51
30
0
ARC
8
0
10
224.8886395
20
-66.6143594
40
0.2
50
30
51
120
0
ARC
8
0
10
222.5503709
20
-67.9643594
40
0.2
50
120
51
210
0
LINE
8
0
10
189.6
20
-130.38
11
186.4
21
-130.38
0
LINE
8
0
10
186.2
20
-130.58
11
186.2
21
-133.28
0
LINE
8
0
10
186.4
20
-133.48
11
189.6
21
-133.48
0
LINE
8
0
10
189.8
20
-133.28
11
189.8
21
-130.58
0
ARC
8
0
10
186.4
20
-130.58
40
0.2
50
90
51
180
0
ARC
8
0
10
186.4
20
-133.28
40
0.2
50
180
51
270
0
ARC
8
0
10
189.6
20
-133.28
40
0.2
50
270
51
0
0
ARC
8
0
10
189.6
20
-130.58
40
0.2
50
0
51
90
0
LINE
8
0
10
229.4
20
-164.3241
11
232.6
21
-164.3241
0
LINE
8
0
10
232.8
20
-164.1241
11
232.8
21
-161.4241
0
LINE
8
0
10
232.6
20
-161.2241
11
229.4
21
-161.2241
0
LINE
8
0
10
229.2
20
-161.4241
11
229.2
21
-164.1241
0
ARC
8
0
10
232.6
20
-164.1241
40
0.2
50
270
51
0
0
ARC
8
0
10
232.6
20
-161.4241
40
0.2
50
0
51
90
0
ARC
8
0
10
229.4
20
-161.4241
40
0.2
50
90
51
180
0
ARC
8
0
10
229.4
20
-164.1241
40
0.2
50
180
51
270
0
LINE
8
0
10
353.85
20
-111.76
11
350.65
21
-111.76
0
LINE
8
0
10
350.45
20
-111.96
11
350.45
21
-114.66
0
LINE
8
0
10
350.65
20
-114.86
11
353.85
21
-114.86
0
LINE
8
0
10
354.05
20
-114.66
11
354.05
21
-111.96
0
ARC
8
0
10
350.65
20
-111.96
40
0.2
50
90
51
180
0
ARC
8
0
10
350.65
20
-114.66
40
0.2
50
180
51
270
0
ARC
8
0
10
353.85
20
-114.66
40
0.2
50
270
51
0
0
ARC
8
0
10
353.85
20
-111.96
40
0.2
50
0
51
90
0
LINE
8
0
10
332.35
20
-111.76
11
329.15
21
-111.76
0
LINE
8
0
10
328.95
20
-111.96
11
328.95
21
-114.66
0
LINE
8
0
10
329.15
20
-114.86
11
332.35
21
-114.86
0
LINE
8
0
10
332.55
20
-114.66
11
332.55
21
-111.96
0
ARC
8
0
10
329.15
20
-111.96
40
0.2
50
90
51
180
0
ARC
8
0
10
329.15
20
-114.66
40
0.2
50
180
51
270
0
ARC
8
0
10
332.35
20
-114.66
40
0.2
50
270
51
0
0
ARC
8
0
10
332.35
20
-111.96
40
0.2
50
0
51
90
0
LINE
8
0
10
310.85
20
-111.76
11
307.65
21
-111.76
0
LINE
8
0
10
307.45
20
-111.96
11
307.45
21
-114.66
0
LINE
8
0
10
307.65
20
-114.86
11
310.85
21
-114.86
0
LINE
8
0
10
311.05
20
-114.66
11
311.05
21
-111.96
0
ARC
8
0
10
307.65
20
-111.96
40
0.2
50
90
51
180
0
ARC
8
0
10
307.65
20
-114.66
40
0.2
50
180
51
270
0
ARC
8
0
10
310.85
20
-114.66
40
0.2
50
270
51
0
0
ARC
8
0
10
310.85
20
-111.96
40
0.2
50
0
51
90
0
LINE
8
0
10
366.7271659
20
-90.0643594
11
365.1271659
21
-92.8356406
0
LINE
8
0
10
365.2003709
20
-93.1088457
11
367.5386395
21
-94.4588457
0
LINE
8
0
10
367.8118446
20
-94.3856406
11
369.4118446
21
-91.6143594
0
LINE
8
0
10
369.3386395
20
-91.3411543
11
367.0003709
21
-89.9911543
0
ARC
8
0
10
365.3003709
20
-92.9356406
40
0.2
50
150
51
240
0
ARC
8
0
10
367.6386395
20
-94.2856406
40
0.2
50
240
51
330
0
ARC
8
0
10
369.2386395
20
-91.5143594
40
0.2
50
330
51
60
0
ARC
8
0
10
366.9003709
20
-90.1643594
40
0.2
50
60
51
150
0
LINE
8
0
10
339.3728341
20
-92.8356406
11
337.7728341
21
-90.0643594
0
LINE
8
0
10
337.4996291
20
-89.9911543
11
335.1613605
21
-91.3411543
0
LINE
8
0
10
335.0881554
20
-91.6143594
11
336.6881554
21
-94.3856406
0
LINE
8
0
10
336.9613605
20
-94.4588457
11
339.2996291
21
-93.1088457
0
ARC
8
0
10
337.5996291
20
-90.1643594
40
0.2
50
30
51
120
0
ARC
8
0
10
335.2613605
20
-91.5143594
40
0.2
50
120
51
210
0
ARC
8
0
10
336.8613605
20
-94.2856406
40
0.2
50
210
51
300
0
ARC
8
0
10
339.1996291
20
-92.9356406
40
0.2
50
300
51
30
0
LINE
8
0
10
317.8728341
20
-92.8356406
11
316.2728341
21
-90.0643594
0
LINE
8
0
10
315.9996291
20
-89.9911543
11
313.6613605
21
-91.3411543
0
LINE
8
0
10
313.5881554
20
-91.6143594
11
315.1881554
21
-94.3856406
0
LINE
8
0
10
315.4613605
20
-94.4588457
11
317.7996291
21
-93.1088457
0
ARC
8
0
10
316.0996291
20
-90.1643594
40
0.2
50
30
51
120
0
ARC
8
0
10
313.7613605
20
-91.5143594
40
0.2
50
120
51
210
0
ARC
8
0
10
315.3613605
20
-94.2856406
40
0.2
50
210
51
300
0
ARC
8
0
10
317.6996291
20
-92.9356406
40
0.2
50
300
51
30
0
LINE
8
0
10
296.3728341
20
-92.8356406
11
294.7728341
21
-90.0643594
0
LINE
8
0
10
294.4996291
20
-89.9911543
11
292.1613605
21
-91.3411543
0
LINE
8
0
10
292.0881554
20
-91.6143594
11
293.6881554
21
-94.3856406
0
LINE
8
0
10
293.9613605
20
-94.4588457
11
296.2996291
21
-93.1088457
0
ARC
8
0
10
294.5996291
20
-90.1643594
40
0.2
50
30
51
120
0
ARC
8
0
10
292.2613605
20
-91.5143594
40
0.2
50
120
51
210
0
ARC
8
0
10
293.8613605
20
-94.2856406
40
0.2
50
210
51
300
0
ARC
8
0
10
296.1996291
20
-92.9356406
40
0.2
50
300
51
30
0
LINE
8
0
10
350.65
20
-67.76
11
353.85
21
-67.76
0
LINE
8
0
10
354.05
20
-67.56
11
354.05
21
-64.86
0
LINE
8
0
10
353.85
20
-64.66
11
350.65
21
-64.66
0
LINE
8
0
10
350.45
20
-64.86
11
350.45
21
-67.56
0
ARC
8
0
10
353.85
20
-67.56
40
0.2
50
270
51
0
0
ARC
8
0
10
353.85
20
-64.86
40
0.2
50
0
51
90
0
ARC
8
0
10
350.65
20
-64.86
40
0.2
50
90
51
180
0
ARC
8
0
10
350.65
20
-67.56
40
0.2
50
180
51
270
0
LINE
8
0
10
327.0228341
20
-70.8356406
11
328.6228341
21
-68.0643594
0
LINE
8
0
10
328.5496291
20
-67.7911543
11
326.2113605
21
-66.4411543
0
LINE
8
0
10
325.9381554
20
-66.5143594
11
324.3381554
21
-69.2856406
0
LINE
8
0
10
324.4113605
20
-69.5588457
11
326.7496291
21
-70.9088457
0
ARC
8
0
10
328.4496291
20
-67.9643594
40
0.2
50
330
51
60
0
ARC
8
0
10
326.1113605
20
-66.6143594
40
0.2
50
60
51
150
0
ARC
8
0
10
324.5113605
20
-69.3856406
40
0.2
50
150
51
240
0
ARC
8
0
10
326.8496291
20
-70.7356406
40
0.2
50
240
51
330
0
LINE
8
0
10
305.5228341
20
-70.8356406
11
307.1228341
21
-68.0643594
0
LINE
8
0
10
307.0496291
20
-67.7911543
11
304.7113605
21
-66.4411543
0
LINE
8
0
10
304.4381554
20
-66.5143594
11
302.8381554
21
-69.2856406
0
LINE
8
0
10
302.9113605
20
-69.5588457
11
305.2496291
21
-70.9088457
0
ARC
8
0
10
306.9496291
20
-67.9643594
40
0.2
50
330
51
60
0
ARC
8
0
10
304.6113605
20
-66.6143594
40
0.2
50
60
51
150
0
ARC
8
0
10
303.0113605
20
-69.3856406
40
0.2
50
150
51
240
0
ARC
8
0
10
305.3496291
20
-70.7356406
40
0.2
50
240
51
330
0
LINE
8
0
10
284.0228341
20
-70.8356406
11
285.6228341
21
-68.0643594
0
LINE
8
0
10
285.5496291
20
-67.7911543
11
283.2113605
21
-66.4411543
0
LINE
8
0
10
282.9381554
20
-66.5143594
11
281.3381554
21
-69.2856406
0
LINE
8
0
10
281.4113605
20
-69.5588457
11
283.7496291
21
-70.9088457
0
ARC
8
0
10
285.4496291
20
-67.9643594
40
0.2
50
330
51
60
0
ARC
8
0
10
283.1113605
20
-66.6143594
40
0.2
50
60
51
150
0
ARC
8
0
10
281.5113605
20
-69.3856406
40
0.2
50
150
51
240
0
ARC
8
0
10
283.8496291
20
-70.7356406
40
0.2
50
240
51
330
0
LINE
8
0
10
321.6
20
-130.38
11
318.4
21
-130.38
0
LINE
8
0
10
318.2
20
-130.58
11
318.2
21
-133.28
0
LINE
8
0
10
318.4
20
-133.48
11
321.6
21
-133.48
0
LINE
8
0
10
321.8
20
-133.28
11
321.8
21
-130.58
0
ARC
8
0
10
318.4
20
-130.58
40
0.2
50
90
51
180
0
ARC
8
0
10
318.4
20
-133.28
40
0.2
50
180
51
270
0
ARC
8
0
10
321.6
20
-133.28
40
0.2
50
270
51
0
0
ARC
8
0
10
321.6
20
-130.58
40
0.2
50
0
51
90
0
LINE
8
0
10
275.4
20
-164.3241
11
278.6
21
-164.3241
0
LINE
8
0
10
278.8
20
-164.1241
11
278.8
21
-161.4241
0
LINE
8
0
10
278.6
20
-161.2241
11
275.4
21
-161.2241
0
LINE
8
0
10
275.2
20
-161.4241
11
275.2
21
-164.1241
0
ARC
8
0
10
278.6
20
-164.1241
40
0.2
50
270
51
0
0
ARC
8
0
10
278.6
20
-161.4241
40
0.2
50
0
51
90
0
ARC
8
0
10
275.4
20
-161.4241
40
0.2
50
90
51
180
0
ARC
8
0
10
275.4
20
-164.1241
40
0.2
50
180
51
270
0
ENDSEC
0
EOF