0
SECTION
2
HEADER
9
$INSUNITS
70
4
0
ENDSEC
0
SECTION
2
TABLES
0
TABLE
2
LTYPE
0
LTYPE
72
65
70
64
2
CONTINUOUS
3
______
73
0
40
0
0
ENDTAB
0
TABLE
2
LAYER
0
ENDTAB
0
ENDSEC
0
SECTION
2
ENTITIES
0
LINE
8
0
10
259.75
20
-113.43
11
257.75
21
-113.43
0
LINE
8
0
10
257.75
20
-113.43
11
257.75
21
-108.38
0
ARC
8
0
10
257.5
20
-108.38
40
0.25
50
360
51
90
0
LINE
8
0
10
257.5
20
-108.13
11
250.5
21
-108.13
0
ARC
8
0
10
250.5
20
-108.38
40
0.25
50
90
51
180
0
LINE
8
0
10
250.25
20
-108.38
11
250.25
21
-113.43
0
LINE
8
0
10
250.25
20
-113.43
11
248.25
21
-113.43
0
ARC
8
0
10
248.25
20
-113.68
40
0.25
50
90
51
180
0
LINE
8
0
10
248
20
-113.68
11
248
21
-119.8874488
0
LINE
8
0
10
260
20
-119.8874488
11
260
21
-113.68
0
ARC
8
0
10
259.75
20
-113.68
40
0.25
50
360
51
90
0
LINE
8
0
10
222.8354211
20
-92.5685344
11
224.3729484
21
-95.2316098
0
ARC
8
0
10
224.5894547
20
-95.1066098
40
0.25
50
210
51
255
0
LINE
8
0
10
225.5248264
20
-95.616061
11
224.5247499
21
-95.3480913
0
ARC
8
0
10
225.3307121
20
-96.3405054
40
0.75
50
30
51
75
0
LINE
8
0
10
225.9802312
20
-95.9655054
11
226.9856107
21
-97.7068738
0
ARC
8
0
10
227.2021171
20
-97.5818738
40
0.25
50
210
51
291.3730735
0
ARC
8
0
10
227.5665563
20
-98.513101
40
0.75
50
30
51
111.3730735
0
LINE
8
0
10
228.2160753
20
-98.138101
11
228.8342323
21
-99.2087804
0
ARC
8
0
10
229.0507387
20
-99.0837804
40
0.25
50
210
51
300
0
LINE
8
0
10
229.1757387
20
-99.3002867
11
233.072853
21
-97.0502867
0
ARC
8
0
10
232.947853
20
-96.8337804
40
0.25
50
300
51
21.4017716
0
ARC
8
0
10
233.8788976
20
-96.4688749
40
0.75
50
93.7900921
51
201.4017642
0
ARC
8
0
10
233.75
20
-94.5231397
40
1.2
50
273.7900908
51
173.5189398
0
ARC
8
0
10
231.812462
20
-94.3030339
40
0.75
50
283.6146708
51
353.5041426
0
ARC
8
0
10
232.047853
20
-95.2749346
40
0.25
50
103.6146708
51
120
0
LINE
8
0
10
231.922853
20
-95.0584283
11
230.4073085
21
-95.9334283
0
ARC
8
0
10
230.0323085
20
-95.2839092
40
0.75
50
210
51
300
0
LINE
8
0
10
229.3827895
20
-95.6589092
11
228.6649099
21
-94.4155054
0
ARC
8
0
10
229.314429
20
-94.0405054
40
0.75
50
165
51
210
0
LINE
8
0
10
228.8579543
20
-92.8463146
11
228.5899846
21
-93.8463911
0
ARC
8
0
10
228.6164728
20
-92.7816098
40
0.25
50
345
51
349.2931441
0
ARC
8
0
10
229.5990634
20
-92.967394
40
0.75
50
66.4198904
51
169.2931447
0
ARC
8
0
10
231
20
-89.76
40
2.75
50
246.4050912
51
126.1506399
0
ARC
8
0
10
228.9353141
20
-86.9338592
40
0.75
50
210
51
306.1506399
0
LINE
8
0
10
228.2325227
20
-87.2165887
11
228.2857951
21
-87.3088592
0
ARC
8
0
10
228.8820418
20
-86.8415887
40
0.75
50
108.9125106
51
210
0
ARC
8
0
10
228.25
20
-84.9968603
40
1.2
50
288.9125107
51
131.0871451
0
ARC
8
0
10
226.9679652
20
-83.5275452
40
0.75
50
211.8376761
51
311.10597
0
ARC
8
0
10
225.94851
20
-84.1605626
40
0.45
50
31.8376714
51
111.6144613
0
ARC
8
0
10
225.5064789
20
-83.0449424
40
0.75
50
210
51
291.6144613
0
LINE
8
0
10
224.8569599
20
-83.4199424
11
224.2729594
21
-82.4084238
0
LINE
8
0
10
221.6892319
20
-84.1332766
11
222.403559
21
-85.3705274
0
ARC
8
0
10
221.7540399
20
-85.7455274
40
0.75
50
325.5176121
51
30
0
ARC
8
0
10
223.2375173
20
-86.7649855
40
1.05
50
145.5028228
51
210
0
LINE
8
0
10
223.7656906
20
-89.7798085
11
222.3281906
21
-87.2899855
0
ARC
8
0
10
223.029569
20
-90.2048085
40
0.85
50
300
51
30
0
LINE
8
0
10
223.238039
20
-91.0659438
11
223.454569
21
-90.9409301
0
ARC
8
0
10
223.363039
20
-91.2824501
40
0.25
50
120
51
165
0
LINE
8
0
10
222.8104459
20
-92.3788297
11
223.1215575
21
-91.2177454
0
ARC
8
0
10
223.0519274
20
-92.4435344
40
0.25
50
165
51
210
0
CIRCLE
8
0
10
237.9600308
20
-91.515127
40
1.05
0
LINE
8
0
10
213.7354484
20
-102.7135344
11
212.1979211
21
-105.3766098
0
ARC
8
0
10
212.4144274
20
-105.5016098
40
0.25
50
150
51
195
0
LINE
8
0
10
212.4409156
20
-106.5663911
11
212.1729459
21
-105.5663146
0
ARC
8
0
10
211.7164712
20
-106.7605054
40
0.75
50
330
51
15
0
LINE
8
0
10
212.3659903
20
-107.1355054
11
211.3606107
21
-108.8768738
0
ARC
8
0
10
211.5771171
20
-109.0018738
40
0.25
50
150
51
231.3730735
0
ARC
8
0
10
210.9528703
20
-109.783101
40
0.75
50
330
51
51.3730735
0
LINE
8
0
10
211.6023893
20
-110.158101
11
210.9842323
21
-111.2287804
0
ARC
8
0
10
211.2007387
20
-111.3537804
40
0.25
50
150
51
240
0
LINE
8
0
10
211.0757387
20
-111.5702867
11
214.972853
21
-113.8202867
0
ARC
8
0
10
215.097853
20
-113.6037804
40
0.25
50
240
51
321.4017716
0
ARC
8
0
10
215.8793927
20
-114.2276359
40
0.75
50
33.7900921
51
141.4017642
0
ARC
8
0
10
217.5
20
-113.1431397
40
1.2
50
213.7900908
51
113.5189398
0
ARC
8
0
10
216.7218482
20
-111.3551297
40
0.75
50
223.6146708
51
293.5041426
0
ARC
8
0
10
215.997853
20
-112.0449346
40
0.25
50
43.6146708
51
60
0
LINE
8
0
10
216.122853
20
-111.8284283
11
214.6073085
21
-110.9534283
0
ARC
8
0
10
214.9823085
20
-110.3039092
40
0.75
50
150
51
240
0
LINE
8
0
10
214.3327895
20
-109.9289092
11
215.050669
21
-108.6855054
0
ARC
8
0
10
215.7001881
20
-109.0605054
40
0.75
50
105
51
150
0
LINE
8
0
10
216.5061503
20
-108.0680913
11
215.5060738
21
-108.336061
0
ARC
8
0
10
216.4414455
20
-107.8266098
40
0.25
50
285
51
289.2931441
0
ARC
8
0
10
216.771847
20
-108.7704503
40
0.75
50
6.4198904
51
109.2931447
0
ARC
8
0
10
220.25
20
-108.38
40
2.75
50
186.4050912
51
66.1506399
0
ARC
8
0
10
221.6651668
20
-105.1788592
40
0.75
50
150
51
246.1506399
0
LINE
8
0
10
221.0689201
20
-104.7115887
11
221.0156478
21
-104.8038592
0
ARC
8
0
10
221.7184392
20
-105.0865887
40
0.75
50
48.9125106
51
150
0
ARC
8
0
10
223
20
-103.6168603
40
1.2
50
228.9125107
51
71.0871451
0
ARC
8
0
10
223.6314468
20
-101.771928
40
0.75
50
151.8376761
51
251.10597
0
ARC
8
0
10
222.57351
20
-101.2055626
40
0.45
50
331.8376714
51
51.6144613
0
ARC
8
0
10
223.3186499
20
-100.2649424
40
0.75
50
150
51
231.6144613
0
LINE
8
0
10
222.6691309
20
-99.8899424
11
223.3255454
21
-98.7529991
0
ARC
8
0
10
223.109039
20
-98.6279991
40
0.25
50
330
51
60
0
LINE
8
0
10
223.234039
20
-98.4114928
11
220.982373
21
-97.1114928
0
ARC
8
0
10
220.857373
20
-97.3279991
40
0.25
50
60
51
150
0
LINE
8
0
10
220.6408666
20
-97.2029991
11
219.7531743
21
-98.7405274
0
ARC
8
0
10
219.1036552
20
-98.3655274
40
0.75
50
265.5176121
51
330
0
ARC
8
0
10
218.9625173
20
-100.1599855
40
1.05
50
85.5028228
51
150
0
LINE
8
0
10
216.6156906
20
-102.1248085
11
218.0531906
21
-99.6349855
0
ARC
8
0
10
215.879569
20
-101.6998085
40
0.85
50
240
51
330
0
LINE
8
0
10
215.238039
20
-102.3109165
11
215.454569
21
-102.4359301
0
ARC
8
0
10
215.113039
20
-102.5274228
40
0.25
50
60
51
105
0
LINE
8
0
10
213.8872499
20
-102.597053
11
215.0483342
21
-102.2859414
0
ARC
8
0
10
213.9519547
20
-102.8385344
40
0.25
50
105
51
150
0
CIRCLE
8
0
10
222.2100308
20
-115.285127
40
1.05
0
LINE
8
0
10
211.1500273
20
-118.525
11
208.0749727
21
-118.525
0
ARC
8
0
10
208.0749727
20
-118.775
40
0.25
50
90
51
135
0
LINE
8
0
10
207.1660892
20
-119.3303301
11
207.898196
21
-118.5982233
0
ARC
8
0
10
206.6357591
20
-118.8
40
0.75
50
270
51
315
0
LINE
8
0
10
206.6357591
20
-119.55
11
204.625
21
-119.55
0
ARC
8
0
10
204.625
20
-119.8
40
0.25
50
90
51
171.3730735
0
ARC
8
0
10
203.636314
20
-119.65
40
0.75
50
270
51
351.3730735
0
LINE
8
0
10
203.636314
20
-120.4
11
202.4
21
-120.4
0
ARC
8
0
10
202.4
20
-120.65
40
0.25
50
90
51
180
0
LINE
8
0
10
202.15
20
-120.65
11
202.15
21
-125.15
0
ARC
8
0
10
202.4
20
-125.15
40
0.25
50
180
51
261.4017716
0
ARC
8
0
10
202.2504951
20
-126.138761
40
0.75
50
333.7900921
51
81.4017642
0
ARC
8
0
10
204
20
-127
40
1.2
50
153.7900908
51
53.5189398
0
ARC
8
0
10
205.1593862
20
-125.4320958
40
0.75
50
163.6146708
51
233.5041426
0
ARC
8
0
10
204.2
20
-125.15
40
0.25
50
343.6146708
51
360
0
LINE
8
0
10
204.45
20
-125.15
11
204.45
21
-123.4
0
ARC
8
0
10
205.2
20
-123.4
40
0.75
50
90
51
180
0
LINE
8
0
10
205.2
20
-122.65
11
206.6357591
21
-122.65
0
ARC
8
0
10
206.6357591
20
-123.4
40
0.75
50
45
51
90
0
LINE
8
0
10
207.898196
20
-123.6017767
11
207.1660892
21
-122.8696699
0
ARC
8
0
10
208.0749727
20
-123.425
40
0.25
50
225
51
229.2931441
0
ARC
8
0
10
207.4227836
20
-124.1830563
40
0.75
50
306.4198904
51
49.2931447
0
ARC
8
0
10
209.5
20
-127
40
2.75
50
126.4050912
51
6.1506399
0
ARC
8
0
10
212.9798527
20
-126.625
40
0.75
50
90
51
186.1506399
0
LINE
8
0
10
213.0863974
20
-125.875
11
212.9798527
21
-125.875
0
ARC
8
0
10
213.0863974
20
-126.625
40
0.75
50
348.9125106
51
90
0
ARC
8
0
10
215
20
-127
40
1.2
50
168.9125107
51
11.0871451
0
ARC
8
0
10
216.9134816
20
-126.6243828
40
0.75
50
91.8376761
51
191.10597
0
ARC
8
0
10
216.875
20
-125.425
40
0.45
50
271.8376714
51
351.6144613
0
ARC
8
0
10
218.062171
20
-125.6
40
0.75
50
90
51
171.6144613
0
LINE
8
0
10
218.062171
20
-124.85
11
219.375
21
-124.85
0
ARC
8
0
10
219.375
20
-124.6
40
0.25
50
270
51
0
0
LINE
8
0
10
219.625
20
-124.6
11
219.625
21
-122
0
ARC
8
0
10
219.375
20
-122
40
0.25
50
0
51
90
0
LINE
8
0
10
219.375
20
-121.75
11
217.5996153
21
-121.75
0
ARC
8
0
10
217.5996153
20
-121
40
0.75
50
205.5176121
51
270
0
ARC
8
0
10
215.975
20
-121.775
40
1.05
50
25.5028228
51
90
0
LINE
8
0
10
213.1
20
-120.725
11
215.975
21
-120.725
0
ARC
8
0
10
213.1
20
-119.875
40
0.85
50
180
51
270
0
LINE
8
0
10
212.25
20
-119.6249727
11
212.25
21
-119.875
0
ARC
8
0
10
212
20
-119.6249727
40
0.25
50
0
51
45
0
LINE
8
0
10
211.326804
20
-118.5982233
11
212.1767767
21
-119.448196
0
ARC
8
0
10
211.1500273
20
-118.775
40
0.25
50
45
51
90
0
CIRCLE
8
0
10
204.5
20
-132.15
40
1.05
0
LINE
8
0
10
205.2645516
20
-154.7505656
11
206.8020789
21
-152.0874902
0
ARC
8
0
10
206.5855726
20
-151.9624902
40
0.25
50
330
51
15
0
LINE
8
0
10
206.5590844
20
-150.8977089
11
206.8270541
21
-151.8977854
0
ARC
8
0
10
207.2835288
20
-150.7035946
40
0.75
50
150
51
195
0
LINE
8
0
10
206.6340097
20
-150.3285946
11
207.6393893
21
-148.5872262
0
ARC
8
0
10
207.4228829
20
-148.4622262
40
0.25
50
330
51
51.3730735
0
ARC
8
0
10
208.0471297
20
-147.680999
40
0.75
50
150
51
231.3730735
0
LINE
8
0
10
207.3976107
20
-147.305999
11
208.0157677
21
-146.2353196
0
ARC
8
0
10
207.7992613
20
-146.1103196
40
0.25
50
330
51
60
0
LINE
8
0
10
207.9242613
20
-145.8938133
11
204.027147
21
-143.6438133
0
ARC
8
0
10
203.902147
20
-143.8603196
40
0.25
50
60
51
141.4017716
0
ARC
8
0
10
203.1206073
20
-143.2364641
40
0.75
50
213.7900921
51
321.4017642
0
ARC
8
0
10
201.5
20
-144.3209603
40
1.2
50
33.7900908
51
293.5189398
0
ARC
8
0
10
202.2781518
20
-146.1089703
40
0.75
50
43.6146708
51
113.5041426
0
ARC
8
0
10
203.002147
20
-145.4191654
40
0.25
50
223.6146708
51
240
0
LINE
8
0
10
202.877147
20
-145.6356717
11
204.3926915
21
-146.5106717
0
ARC
8
0
10
204.0176915
20
-147.1601908
40
0.75
50
330
51
60
0
LINE
8
0
10
204.6672105
20
-147.5351908
11
203.949331
21
-148.7785946
0
ARC
8
0
10
203.2998119
20
-148.4035946
40
0.75
50
285
51
330
0
LINE
8
0
10
202.4938497
20
-149.3960087
11
203.4939262
21
-149.128039
0
ARC
8
0
10
202.5585545
20
-149.6374902
40
0.25
50
105
51
109.2931441
0
ARC
8
0
10
202.228153
20
-148.6936497
40
0.75
50
186.4198904
51
289.2931447
0
ARC
8
0
10
198.75
20
-149.0841
40
2.75
50
6.4050912
51
246.1506399
0
ARC
8
0
10
197.3348332
20
-152.2852408
40
0.75
50
330
51
66.1506399
0
LINE
8
0
10
197.9310799
20
-152.7525113
11
197.9843522
21
-152.6602408
0
ARC
8
0
10
197.2815608
20
-152.3775113
40
0.75
50
228.9125106
51
330
0
ARC
8
0
10
196
20
-153.8472397
40
1.2
50
48.9125107
51
251.0871451
0
ARC
8
0
10
195.3685532
20
-155.692172
40
0.75
50
331.8376761
51
71.10597
0
ARC
8
0
10
196.42649
20
-156.2585374
40
0.45
50
151.8376714
51
231.6144613
0
ARC
8
0
10
195.6813501
20
-157.1991576
40
0.75
50
330
51
51.6144613
0
LINE
8
0
10
196.3308691
20
-157.5741576
11
195.6744546
21
-158.7111009
0
ARC
8
0
10
195.890961
20
-158.8361009
40
0.25
50
150
51
180.0581438
0
LINE
8
0
10
198.3857095
20
-160.2150697
11
199.2468257
21
-158.7235726
0
ARC
8
0
10
199.8963448
20
-159.0985726
40
0.75
50
85.5176121
51
150
0
ARC
8
0
10
200.0374827
20
-157.3041145
40
1.05
50
265.5028228
51
330
0
LINE
8
0
10
202.3843094
20
-155.3392915
11
200.9468094
21
-157.8291145
0
ARC
8
0
10
203.120431
20
-155.7642915
40
0.85
50
60
51
150
0
LINE
8
0
10
203.761961
20
-155.1531835
11
203.545431
21
-155.0281699
0
ARC
8
0
10
203.886961
20
-154.9366772
40
0.25
50
240
51
285
0
LINE
8
0
10
205.1127501
20
-154.867047
11
203.9516658
21
-155.1781586
0
ARC
8
0
10
205.0480453
20
-154.6255656
40
0.25
50
285
51
330
0
CIRCLE
8
0
10
196.7899692
20
-142.178973
40
1.05
0
LINE
8
0
10
235.2354484
20
-102.7135344
11
233.6979211
21
-105.3766098
0
ARC
8
0
10
233.9144274
20
-105.5016098
40
0.25
50
150
51
195
0
LINE
8
0
10
233.9409156
20
-106.5663911
11
233.6729459
21
-105.5663146
0
ARC
8
0
10
233.2164712
20
-106.7605054
40
0.75
50
330
51
15
0
LINE
8
0
10
233.8659903
20
-107.1355054
11
232.8606107
21
-108.8768738
0
ARC
8
0
10
233.0771171
20
-109.0018738
40
0.25
50
150
51
231.3730735
0
ARC
8
0
10
232.4528703
20
-109.783101
40
0.75
50
330
51
51.3730735
0
LINE
8
0
10
233.1023893
20
-110.158101
11
232.4842323
21
-111.2287804
0
ARC
8
0
10
232.7007387
20
-111.3537804
40
0.25
50
150
51
240
0
LINE
8
0
10
232.5757387
20
-111.5702867
11
236.472853
21
-113.8202867
0
ARC
8
0
10
236.597853
20
-113.6037804
40
0.25
50
240
51
321.4017716
0
ARC
8
0
10
237.3793927
20
-114.2276359
40
0.75
50
33.7900921
51
141.4017642
0
ARC
8
0
10
239
20
-113.1431397
40
1.2
50
213.7900908
51
113.5189398
0
ARC
8
0
10
238.2218482
20
-111.3551297
40
0.75
50
223.6146708
51
293.5041426
0
ARC
8
0
10
237.497853
20
-112.0449346
40
0.25
50
43.6146708
51
60
0
LINE
8
0
10
237.622853
20
-111.8284283
11
236.1073085
21
-110.9534283
0
ARC
8
0
10
236.4823085
20
-110.3039092
40
0.75
50
150
51
240
0
LINE
8
0
10
235.8327895
20
-109.9289092
11
236.550669
21
-108.6855054
0
ARC
8
0
10
237.2001881
20
-109.0605054
40
0.75
50
105
51
150
0
LINE
8
0
10
238.0061503
20
-108.0680913
11
237.0060738
21
-108.336061
0
ARC
8
0
10
237.9414455
20
-107.8266098
40
0.25
50
285
51
289.2931441
0
ARC
8
0
10
238.271847
20
-108.7704503
40
0.75
50
6.4198904
51
109.2931447
0
ARC
8
0
10
241.75
20
-108.38
40
2.75
50
186.4050912
51
66.1506399
0
ARC
8
0
10
243.1651668
20
-105.1788592
40
0.75
50
150
51
246.1506399
0
LINE
8
0
10
242.5689201
20
-104.7115887
11
242.5156478
21
-104.8038592
0
ARC
8
0
10
243.2184392
20
-105.0865887
40
0.75
50
48.9125106
51
150
0
ARC
8
0
10
244.5
20
-103.6168603
40
1.2
50
228.9125107
51
71.0871451
0
ARC
8
0
10
245.1314468
20
-101.771928
40
0.75
50
151.8376761
51
251.10597
0
ARC
8
0
10
244.07351
20
-101.2055626
40
0.45
50
331.8376714
51
51.6144613
0
ARC
8
0
10
244.8186499
20
-100.2649424
40
0.75
50
150
51
231.6144613
0
LINE
8
0
10
244.1691309
20
-99.8899424
11
244.8255454
21
-98.7529991
0
ARC
8
0
10
244.609039
20
-98.6279991
40
0.25
50
330
51
60
0
LINE
8
0
10
244.734039
20
-98.4114928
11
242.482373
21
-97.1114928
0
ARC
8
0
10
242.357373
20
-97.3279991
40
0.25
50
60
51
150
0
LINE
8
0
10
242.1408666
20
-97.2029991
11
241.2531743
21
-98.7405274
0
ARC
8
0
10
240.6036552
20
-98.3655274
40
0.75
50
265.5176121
51
330
0
ARC
8
0
10
240.4625173
20
-100.1599855
40
1.05
50
85.5028228
51
150
0
LINE
8
0
10
238.1156906
20
-102.1248085
11
239.5531906
21
-99.6349855
0
ARC
8
0
10
237.379569
20
-101.6998085
40
0.85
50
240
51
330
0
LINE
8
0
10
236.738039
20
-102.3109165
11
236.954569
21
-102.4359301
0
ARC
8
0
10
236.613039
20
-102.5274228
40
0.25
50
60
51
105
0
LINE
8
0
10
235.3872499
20
-102.597053
11
236.5483342
21
-102.2859414
0
ARC
8
0
10
235.4519547
20
-102.8385344
40
0.25
50
105
51
150
0
CIRCLE
8
0
10
243.7100308
20
-115.285127
40
1.05
0
LINE
8
0
10
224.4854484
20
-121.3335344
11
222.9479211
21
-123.9966098
0
ARC
8
0
10
223.1644274
20
-124.1216098
40
0.25
50
150
51
195
0
LINE
8
0
10
223.1909156
20
-125.1863911
11
222.9229459
21
-124.1863146
0
ARC
8
0
10
222.4664712
20
-125.3805054
40
0.75
50
330
51
15
0
LINE
8
0
10
223.1159903
20
-125.7555054
11
222.1106107
21
-127.4968738
0
ARC
8
0
10
222.3271171
20
-127.6218738
40
0.25
50
150
51
231.3730735
0
ARC
8
0
10
221.7028703
20
-128.403101
40
0.75
50
330
51
51.3730735
0
LINE
8
0
10
222.3523893
20
-128.778101
11
221.7342323
21
-129.8487804
0
ARC
8
0
10
221.9507387
20
-129.9737804
40
0.25
50
150
51
240
0
LINE
8
0
10
221.8257387
20
-130.1902867
11
225.722853
21
-132.4402867
0
ARC
8
0
10
225.847853
20
-132.2237804
40
0.25
50
240
51
321.4017716
0
ARC
8
0
10
226.6293927
20
-132.8476359
40
0.75
50
33.7900921
51
141.4017642
0
ARC
8
0
10
228.25
20
-131.7631397
40
1.2
50
213.7900908
51
113.5189398
0
ARC
8
0
10
227.4718482
20
-129.9751297
40
0.75
50
223.6146708
51
293.5041426
0
ARC
8
0
10
226.747853
20
-130.6649346
40
0.25
50
43.6146708
51
60
0
LINE
8
0
10
226.872853
20
-130.4484283
11
225.3573085
21
-129.5734283
0
ARC
8
0
10
225.7323085
20
-128.9239092
40
0.75
50
150
51
240
0
LINE
8
0
10
225.0827895
20
-128.5489092
11
225.800669
21
-127.3055054
0
ARC
8
0
10
226.4501881
20
-127.6805054
40
0.75
50
105
51
150
0
LINE
8
0
10
227.2561503
20
-126.6880913
11
226.2560738
21
-126.956061
0
ARC
8
0
10
227.1914455
20
-126.4466098
40
0.25
50
285
51
289.2931441
0
ARC
8
0
10
227.521847
20
-127.3904503
40
0.75
50
6.4198904
51
109.2931447
0
ARC
8
0
10
231
20
-127
40
2.75
50
186.4050912
51
66.1506399
0
ARC
8
0
10
232.4151668
20
-123.7988592
40
0.75
50
150
51
246.1506399
0
LINE
8
0
10
231.8189201
20
-123.3315887
11
231.7656478
21
-123.4238592
0
ARC
8
0
10
232.4684392
20
-123.7065887
40
0.75
50
48.9125106
51
150
0
ARC
8
0
10
233.75
20
-122.2368603
40
1.2
50
228.9125107
51
71.0871451
0
ARC
8
0
10
234.3814468
20
-120.391928
40
0.75
50
151.8376761
51
251.10597
0
ARC
8
0
10
233.32351
20
-119.8255626
40
0.45
50
331.8376714
51
51.6144613
0
ARC
8
0
10
234.0686499
20
-118.8849424
40
0.75
50
150
51
231.6144613
0
LINE
8
0
10
233.4191309
20
-118.5099424
11
234.0755454
21
-117.3729991
0
ARC
8
0
10
233.859039
20
-117.2479991
40
0.25
50
330
51
60
0
LINE
8
0
10
233.984039
20
-117.0314928
11
231.732373
21
-115.7314928
0
ARC
8
0
10
231.607373
20
-115.9479991
40
0.25
50
60
51
150
0
LINE
8
0
10
231.3908666
20
-115.8229991
11
230.5031743
21
-117.3605274
0
ARC
8
0
10
229.8536552
20
-116.9855274
40
0.75
50
265.5176121
51
330
0
ARC
8
0
10
229.7125173
20
-118.7799855
40
1.05
50
85.5028228
51
150
0
LINE
8
0
10
227.3656906
20
-120.7448085
11
228.8031906
21
-118.2549855
0
ARC
8
0
10
226.629569
20
-120.3198085
40
0.85
50
240
51
330
0
LINE
8
0
10
225.988039
20
-120.9309165
11
226.204569
21
-121.0559301
0
ARC
8
0
10
225.863039
20
-121.1474228
40
0.25
50
60
51
105
0
LINE
8
0
10
224.6372499
20
-121.217053
11
225.7983342
21
-120.9059414
0
ARC
8
0
10
224.7019547
20
-121.4585344
40
0.25
50
105
51
150
0
CIRCLE
8
0
10
232.9600308
20
-133.905127
40
1.05
0
LINE
8
0
10
218.5999727
20
-157.5591
11
221.6750273
21
-157.5591
0
ARC
8
0
10
221.6750273
20
-157.3091
40
0.25
50
270
51
315
0
LINE
8
0
10
222.5839108
20
-156.7537699
11
221.851804
21
-157.4858767
0
ARC
8
0
10
223.1142409
20
-157.2841
40
0.75
50
90
51
135
0
LINE
8
0
10
223.1142409
20
-156.5341
11
225.125
21
-156.5341
0
ARC
8
0
10
225.125
20
-156.2841
40
0.25
50
270
51
351.3730735
0
ARC
8
0
10
226.113686
20
-156.4341
40
0.75
50
90
51
171.3730735
0
LINE
8
0
10
226.113686
20
-155.6841
11
227.35
21
-155.6841
0
ARC
8
0
10
227.35
20
-155.4341
40
0.25
50
270
51
360
0
LINE
8
0
10
227.6
20
-155.4341
11
227.6
21
-150.9341
0
ARC
8
0
10
227.35
20
-150.9341
40
0.25
50
0
51
81.4017716
0
ARC
8
0
10
227.4995049
20
-149.945339
40
0.75
50
153.7900921
51
261.4017642
0
ARC
8
0
10
225.75
20
-149.0841
40
1.2
50
333.7900908
51
593.5189398
0
ARC
8
0
10
224.5906138
20
-150.6520042
40
0.75
50
343.6146708
51
413.5041426
0
ARC
8
0
10
225.55
20
-150.9341
40
0.25
50
523.6146708
51
540
0
LINE
8
0
10
225.3
20
-150.9341
11
225.3
21
-152.6841
0
ARC
8
0
10
224.55
20
-152.6841
40
0.75
50
270
51
360
0
LINE
8
0
10
224.55
20
-153.4341
11
223.1142409
21
-153.4341
0
ARC
8
0
10
223.1142409
20
-152.6841
40
0.75
50
225
51
270
0
LINE
8
0
10
221.851804
20
-152.4823233
11
222.5839108
21
-153.2144301
0
ARC
8
0
10
221.6750273
20
-152.6591
40
0.25
50
45
51
49.2931441
0
ARC
8
0
10
222.3272164
20
-151.9010437
40
0.75
50
126.4198904
51
229.2931447
0
ARC
8
0
10
220.25
20
-149.0841
40
2.75
50
306.4050912
51
546.1506399
0
ARC
8
0
10
216.7701473
20
-149.4591
40
0.75
50
270
51
366.1506399
0
LINE
8
0
10
216.6636026
20
-150.2091
11
216.7701473
21
-150.2091
0
ARC
8
0
10
216.6636026
20
-149.4591
40
0.75
50
168.9125106
51
270
0
ARC
8
0
10
214.75
20
-149.0841
40
1.2
50
348.9125107
51
551.0871451
0
ARC
8
0
10
212.8365184
20
-149.4597172
40
0.75
50
271.8376761
51
371.10597
0
ARC
8
0
10
212.875
20
-150.6591
40
0.45
50
91.8376714
51
171.6144613
0
ARC
8
0
10
211.687829
20
-150.4841
40
0.75
50
270
51
351.6144613
0
LINE
8
0
10
211.687829
20
-151.2341
11
210.375
21
-151.2341
0
ARC
8
0
10
210.375
20
-151.4841
40
0.25
50
90
51
180
0
LINE
8
0
10
210.125
20
-151.4841
11
210.125
21
-154.0841
0
ARC
8
0
10
210.375
20
-154.0841
40
0.25
50
180
51
270
0
LINE
8
0
10
210.375
20
-154.3341
11
212.1503847
21
-154.3341
0
ARC
8
0
10
212.1503847
20
-155.0841
40
0.75
50
25.5176121
51
90
0
ARC
8
0
10
213.775
20
-154.3091
40
1.05
50
205.5028228
51
270
0
LINE
8
0
10
216.65
20
-155.3591
11
213.775
21
-155.3591
0
ARC
8
0
10
216.65
20
-156.2091
40
0.85
50
0
51
90
0
LINE
8
0
10
217.5
20
-156.4591273
11
217.5
21
-156.2091
0
ARC
8
0
10
217.75
20
-156.4591273
40
0.25
50
180
51
225
0
LINE
8
0
10
218.423196
20
-157.4858767
11
217.5732233
21
-156.635904
0
ARC
8
0
10
218.5999727
20
-157.3091
40
0.25
50
225
51
270
0
CIRCLE
8
0
10
225.25
20
-143.9341
40
1.05
0
LINE
8
0
10
283.5145516
20
-95.4264656
11
285.0520789
21
-92.7633902
0
ARC
8
0
10
284.8355726
20
-92.6383902
40
0.25
50
330
51
15
0
LINE
8
0
10
284.8090844
20
-91.5736089
11
285.0770541
21
-92.5736854
0
ARC
8
0
10
285.5335288
20
-91.3794946
40
0.75
50
150
51
195
0
LINE
8
0
10
284.8840097
20
-91.0044946
11
285.8893893
21
-89.2631262
0
ARC
8
0
10
285.6728829
20
-89.1381262
40
0.25
50
330
51
51.3730735
0
ARC
8
0
10
286.2971297
20
-88.356899
40
0.75
50
150
51
231.3730735
0
LINE
8
0
10
285.6476107
20
-87.981899
11
286.2657677
21
-86.9112196
0
ARC
8
0
10
286.0492613
20
-86.7862196
40
0.25
50
330
51
60
0
LINE
8
0
10
286.1742613
20
-86.5697133
11
282.277147
21
-84.3197133
0
ARC
8
0
10
282.152147
20
-84.5362196
40
0.25
50
60
51
141.4017716
0
ARC
8
0
10
281.3706073
20
-83.9123641
40
0.75
50
213.7900921
51
321.4017642
0
ARC
8
0
10
279.75
20
-84.9968603
40
1.2
50
33.7900908
51
293.5189398
0
ARC
8
0
10
280.5281518
20
-86.7848703
40
0.75
50
43.6146708
51
113.5041426
0
ARC
8
0
10
281.252147
20
-86.0950654
40
0.25
50
223.6146708
51
240
0
LINE
8
0
10
281.127147
20
-86.3115717
11
282.6426915
21
-87.1865717
0
ARC
8
0
10
282.2676915
20
-87.8360908
40
0.75
50
330
51
60
0
LINE
8
0
10
282.9172105
20
-88.2110908
11
282.199331
21
-89.4544946
0
ARC
8
0
10
281.5498119
20
-89.0794946
40
0.75
50
285
51
330
0
LINE
8
0
10
280.7438497
20
-90.0719087
11
281.7439262
21
-89.803939
0
ARC
8
0
10
280.8085545
20
-90.3133902
40
0.25
50
105
51
109.2931441
0
ARC
8
0
10
280.478153
20
-89.3695497
40
0.75
50
186.4198904
51
289.2931447
0
ARC
8
0
10
277
20
-89.76
40
2.75
50
6.4050912
51
246.1506399
0
ARC
8
0
10
275.5848332
20
-92.9611408
40
0.75
50
330
51
66.1506399
0
LINE
8
0
10
276.1810799
20
-93.4284113
11
276.2343522
21
-93.3361408
0
ARC
8
0
10
275.5315608
20
-93.0534113
40
0.75
50
228.9125106
51
330
0
ARC
8
0
10
274.25
20
-94.5231397
40
1.2
50
48.9125107
51
251.0871451
0
ARC
8
0
10
273.6185532
20
-96.368072
40
0.75
50
331.8376761
51
71.10597
0
ARC
8
0
10
274.67649
20
-96.9344374
40
0.45
50
151.8376714
51
231.6144613
0
ARC
8
0
10
273.9313501
20
-97.8750576
40
0.75
50
330
51
51.6144613
0
LINE
8
0
10
274.5808691
20
-98.2500576
11
273.9244546
21
-99.3870009
0
ARC
8
0
10
274.140961
20
-99.5120009
40
0.25
50
150
51
240
0
LINE
8
0
10
274.015961
20
-99.7285072
11
276.267627
21
-101.0285072
0
ARC
8
0
10
276.392627
20
-100.8120009
40
0.25
50
240
51
330
0
LINE
8
0
10
276.6091334
20
-100.9370009
11
277.4968257
21
-99.3994726
0
ARC
8
0
10
278.1463448
20
-99.7744726
40
0.75
50
85.5176121
51
150
0
ARC
8
0
10
278.2874827
20
-97.9800145
40
1.05
50
265.5028228
51
330
0
LINE
8
0
10
280.6343094
20
-96.0151915
11
279.1968094
21
-98.5050145
0
ARC
8
0
10
281.370431
20
-96.4401915
40
0.85
50
60
51
150
0
LINE
8
0
10
282.011961
20
-95.8290835
11
281.795431
21
-95.7040699
0
ARC
8
0
10
282.136961
20
-95.6125772
40
0.25
50
240
51
285
0
LINE
8
0
10
283.3627501
20
-95.542947
11
282.2016658
21
-95.8540586
0
ARC
8
0
10
283.2980453
20
-95.3014656
40
0.25
50
285
51
330
0
CIRCLE
8
0
10
275.0399692
20
-82.854873
40
1.05
0
LINE
8
0
10
295.9145789
20
-105.5714656
11
294.3770516
21
-102.9083902
0
ARC
8
0
10
294.1605453
20
-103.0333902
40
0.25
50
30
51
75
0
LINE
8
0
10
293.2251736
20
-102.523939
11
294.2252501
21
-102.7919087
0
ARC
8
0
10
293.4192879
20
-101.7994946
40
0.75
50
210
51
255
0
LINE
8
0
10
292.7697688
20
-102.1744946
11
291.7643893
21
-100.4331262
0
ARC
8
0
10
291.5478829
20
-100.5581262
40
0.25
50
30
51
111.3730735
0
ARC
8
0
10
291.1834437
20
-99.626899
40
0.75
50
210
51
291.3730735
0
LINE
8
0
10
290.5339247
20
-100.001899
11
289.9157677
21
-98.9312196
0
ARC
8
0
10
289.6992613
20
-99.0562196
40
0.25
50
30
51
120
0
LINE
8
0
10
289.5742613
20
-98.8397133
11
285.677147
21
-101.0897133
0
ARC
8
0
10
285.802147
20
-101.3062196
40
0.25
50
120
51
201.4017716
0
ARC
8
0
10
284.8711024
20
-101.6711251
40
0.75
50
273.7900921
51
21.4017642
0
ARC
8
0
10
285
20
-103.6168603
40
1.2
50
93.7900908
51
353.5189398
0
ARC
8
0
10
286.937538
20
-103.8369661
40
0.75
50
103.6146708
51
173.5041426
0
ARC
8
0
10
286.702147
20
-102.8650654
40
0.25
50
283.6146708
51
300
0
LINE
8
0
10
286.827147
20
-103.0815717
11
288.3426915
21
-102.2065717
0
ARC
8
0
10
288.7176915
20
-102.8560908
40
0.75
50
30
51
120
0
LINE
8
0
10
289.3672105
20
-102.4810908
11
290.0850901
21
-103.7244946
0
ARC
8
0
10
289.435571
20
-104.0994946
40
0.75
50
345
51
30
0
LINE
8
0
10
289.8920457
20
-105.2936854
11
290.1600154
21
-104.2936089
0
ARC
8
0
10
290.1335272
20
-105.3583902
40
0.25
50
165
51
169.2931441
0
ARC
8
0
10
289.1509366
20
-105.172606
40
0.75
50
246.4198904
51
349.2931447
0
ARC
8
0
10
287.75
20
-108.38
40
2.75
50
66.4050912
51
306.1506399
0
ARC
8
0
10
289.8146859
20
-111.2061408
40
0.75
50
30
51
126.1506399
0
LINE
8
0
10
290.5174773
20
-110.9234113
11
290.4642049
21
-110.8311408
0
ARC
8
0
10
289.8679582
20
-111.2984113
40
0.75
50
288.9125106
51
30
0
ARC
8
0
10
290.5
20
-113.1431397
40
1.2
50
108.9125107
51
311.0871451
0
ARC
8
0
10
291.7820348
20
-114.6124548
40
0.75
50
31.8376761
51
131.10597
0
ARC
8
0
10
292.80149
20
-113.9794374
40
0.45
50
211.8376714
51
291.6144613
0
ARC
8
0
10
293.2435211
20
-115.0950576
40
0.75
50
30
51
111.6144613
0
LINE
8
0
10
293.8930401
20
-114.7200576
11
294.5494546
21
-115.8570009
0
ARC
8
0
10
294.765961
20
-115.7320009
40
0.25
50
210
51
300
0
LINE
8
0
10
294.890961
20
-115.9485072
11
297.142627
21
-114.6485072
0
ARC
8
0
10
297.017627
20
-114.4320009
40
0.25
50
300
51
30
0
LINE
8
0
10
297.2341334
20
-114.3070009
11
296.346441
21
-112.7694726
0
ARC
8
0
10
296.9959601
20
-112.3944726
40
0.75
50
145.5176121
51
210
0
ARC
8
0
10
295.5124827
20
-111.3750145
40
1.05
50
325.5028228
51
30
0
LINE
8
0
10
294.9843094
20
-108.3601915
11
296.4218094
21
-110.8500145
0
ARC
8
0
10
295.720431
20
-107.9351915
40
0.85
50
120
51
210
0
LINE
8
0
10
295.511961
20
-107.0740562
11
295.295431
21
-107.1990699
0
ARC
8
0
10
295.386961
20
-106.8575499
40
0.25
50
300
51
345
0
LINE
8
0
10
295.9395541
20
-105.7611703
11
295.6284425
21
-106.9222546
0
ARC
8
0
10
295.6980726
20
-105.6964656
40
0.25
50
345
51
30
0
CIRCLE
8
0
10
280.7899692
20
-106.624873
40
1.05
0
LINE
8
0
10
300.1500273
20
-118.525
11
297.0749727
21
-118.525
0
ARC
8
0
10
297.0749727
20
-118.775
40
0.25
50
90
51
135
0
LINE
8
0
10
296.1660892
20
-119.3303301
11
296.898196
21
-118.5982233
0
ARC
8
0
10
295.6357591
20
-118.8
40
0.75
50
270
51
315
0
LINE
8
0
10
295.6357591
20
-119.55
11
293.625
21
-119.55
0
ARC
8
0
10
293.625
20
-119.8
40
0.25
50
90
51
171.3730735
0
ARC
8
0
10
292.636314
20
-119.65
40
0.75
50
270
51
351.3730735
0
LINE
8
0
10
292.636314
20
-120.4
11
291.4
21
-120.4
0
ARC
8
0
10
291.4
20
-120.65
40
0.25
50
90
51
180
0
LINE
8
0
10
291.15
20
-120.65
11
291.15
21
-125.15
0
ARC
8
0
10
291.4
20
-125.15
40
0.25
50
180
51
261.4017716
0
ARC
8
0
10
291.2504951
20
-126.138761
40
0.75
50
333.7900921
51
81.4017642
0
ARC
8
0
10
293
20
-127
40
1.2
50
153.7900908
51
53.5189398
0
ARC
8
0
10
294.1593862
20
-125.4320958
40
0.75
50
163.6146708
51
233.5041426
0
ARC
8
0
10
293.2
20
-125.15
40
0.25
50
343.6146708
51
360
0
LINE
8
0
10
293.45
20
-125.15
11
293.45
21
-123.4
0
ARC
8
0
10
294.2
20
-123.4
40
0.75
50
90
51
180
0
LINE
8
0
10
294.2
20
-122.65
11
295.6357591
21
-122.65
0
ARC
8
0
10
295.6357591
20
-123.4
40
0.75
50
45
51
90
0
LINE
8
0
10
296.898196
20
-123.6017767
11
296.1660892
21
-122.8696699
0
ARC
8
0
10
297.0749727
20
-123.425
40
0.25
50
225
51
229.2931441
0
ARC
8
0
10
296.4227836
20
-124.1830563
40
0.75
50
306.4198904
51
49.2931447
0
ARC
8
0
10
298.5
20
-127
40
2.75
50
126.4050912
51
6.1506399
0
ARC
8
0
10
301.9798527
20
-126.625
40
0.75
50
90
51
186.1506399
0
LINE
8
0
10
302.0863974
20
-125.875
11
301.9798527
21
-125.875
0
ARC
8
0
10
302.0863974
20
-126.625
40
0.75
50
348.9125106
51
90
0
ARC
8
0
10
304
20
-127
40
1.2
50
168.9125107
51
11.0871451
0
ARC
8
0
10
305.9134816
20
-126.6243828
40
0.75
50
91.8376761
51
191.10597
0
ARC
8
0
10
305.875
20
-125.425
40
0.45
50
271.8376714
51
351.6144613
0
ARC
8
0
10
307.062171
20
-125.6
40
0.75
50
90
51
171.6144613
0
LINE
8
0
10
307.062171
20
-124.85
11
308.23
21
-124.85
0
LINE
8
0
10
308.0282377
20
-121.75
11
306.5996153
21
-121.75
0
ARC
8
0
10
306.5996153
20
-121
40
0.75
50
205.5176121
51
270
0
ARC
8
0
10
304.975
20
-121.775
40
1.05
50
25.5028228
51
90
0
LINE
8
0
10
302.1
20
-120.725
11
304.975
21
-120.725
0
ARC
8
0
10
302.1
20
-119.875
40
0.85
50
180
51
270
0
LINE
8
0
10
301.25
20
-119.6249727
11
301.25
21
-119.875
0
ARC
8
0
10
301
20
-119.6249727
40
0.25
50
0
51
45
0
LINE
8
0
10
300.326804
20
-118.5982233
11
301.1767767
21
-119.448196
0
ARC
8
0
10
300.1500273
20
-118.775
40
0.25
50
45
51
90
0
CIRCLE
8
0
10
293.5
20
-132.15
40
1.05
0
LINE
8
0
10
301.0854211
20
-151.8926344
11
302.6229484
21
-154.5557098
0
ARC
8
0
10
302.8394547
20
-154.4307098
40
0.25
50
210
51
255
0
LINE
8
0
10
303.7748264
20
-154.940161
11
302.7747499
21
-154.6721913
0
ARC
8
0
10
303.5807121
20
-155.6646054
40
0.75
50
30
51
75
0
LINE
8
0
10
304.2302312
20
-155.2896054
11
305.2356107
21
-157.0309738
0
ARC
8
0
10
305.4521171
20
-156.9059738
40
0.25
50
210
51
291.3730735
0
ARC
8
0
10
305.8165563
20
-157.837201
40
0.75
50
30
51
111.3730735
0
LINE
8
0
10
306.4660753
20
-157.462201
11
307.0842323
21
-158.5328804
0
ARC
8
0
10
307.3007387
20
-158.4078804
40
0.25
50
210
51
300
0
LINE
8
0
10
307.4257387
20
-158.6243867
11
311.322853
21
-156.3743867
0
ARC
8
0
10
311.197853
20
-156.1578804
40
0.25
50
300
51
21.4017716
0
ARC
8
0
10
312.1288976
20
-155.7929749
40
0.75
50
93.7900921
51
201.4017642
0
ARC
8
0
10
312
20
-153.8472397
40
1.2
50
273.7900908
51
173.5189398
0
ARC
8
0
10
310.062462
20
-153.6271339
40
0.75
50
283.6146708
51
353.5041426
0
ARC
8
0
10
310.297853
20
-154.5990346
40
0.25
50
103.6146708
51
120
0
LINE
8
0
10
310.172853
20
-154.3825283
11
308.6573085
21
-155.2575283
0
ARC
8
0
10
308.2823085
20
-154.6080092
40
0.75
50
210
51
300
0
LINE
8
0
10
307.6327895
20
-154.9830092
11
306.9149099
21
-153.7396054
0
ARC
8
0
10
307.564429
20
-153.3646054
40
0.75
50
165
51
210
0
LINE
8
0
10
307.1079543
20
-152.1704146
11
306.8399846
21
-153.1704911
0
ARC
8
0
10
306.8664728
20
-152.1057098
40
0.25
50
345
51
349.2931441
0
ARC
8
0
10
307.8490634
20
-152.291494
40
0.75
50
66.4198904
51
169.2931447
0
ARC
8
0
10
309.25
20
-149.0841
40
2.75
50
246.4050912
51
126.1506399
0
ARC
8
0
10
307.1853141
20
-146.2579592
40
0.75
50
210
51
306.1506399
0
LINE
8
0
10
306.4825227
20
-146.5406887
11
306.5357951
21
-146.6329592
0
ARC
8
0
10
307.1320418
20
-146.1656887
40
0.75
50
108.9125106
51
210
0
ARC
8
0
10
306.5
20
-144.3209603
40
1.2
50
288.9125107
51
131.0871451
0
ARC
8
0
10
305.2179652
20
-142.8516452
40
0.75
50
211.8376761
51
311.10597
0
ARC
8
0
10
304.19851
20
-143.4846626
40
0.45
50
31.8376714
51
111.6144613
0
ARC
8
0
10
303.7564789
20
-142.3690424
40
0.75
50
210
51
291.6144613
0
LINE
8
0
10
303.1069599
20
-142.7440424
11
302.4505454
21
-141.6070991
0
ARC
8
0
10
302.234039
20
-141.7320991
40
0.25
50
30
51
120
0
LINE
8
0
10
302.109039
20
-141.5155928
11
299.857373
21
-142.8155928
0
ARC
8
0
10
299.982373
20
-143.0320991
40
0.25
50
120
51
210
0
LINE
8
0
10
299.7658666
20
-143.1570991
11
300.653559
21
-144.6946274
0
ARC
8
0
10
300.0040399
20
-145.0696274
40
0.75
50
325.5176121
51
30
0
ARC
8
0
10
301.4875173
20
-146.0890855
40
1.05
50
145.5028228
51
210
0
LINE
8
0
10
302.0156906
20
-149.1039085
11
300.5781906
21
-146.6140855
0
ARC
8
0
10
301.279569
20
-149.5289085
40
0.85
50
300
51
30
0
LINE
8
0
10
301.488039
20
-150.3900438
11
301.704569
21
-150.2650301
0
ARC
8
0
10
301.613039
20
-150.6065501
40
0.25
50
120
51
165
0
LINE
8
0
10
301.0604459
20
-151.7029297
11
301.3715575
21
-150.5418454
0
ARC
8
0
10
301.3019274
20
-151.7676344
40
0.25
50
165
51
210
0
CIRCLE
8
0
10
316.2100308
20
-150.839227
40
1.05
0
LINE
8
0
10
274.4145789
20
-105.5714656
11
272.8770516
21
-102.9083902
0
ARC
8
0
10
272.6605453
20
-103.0333902
40
0.25
50
30
51
75
0
LINE
8
0
10
271.7251736
20
-102.523939
11
272.7252501
21
-102.7919087
0
ARC
8
0
10
271.9192879
20
-101.7994946
40
0.75
50
210
51
255
0
LINE
8
0
10
271.2697688
20
-102.1744946
11
270.2643893
21
-100.4331262
0
ARC
8
0
10
270.0478829
20
-100.5581262
40
0.25
50
30
51
111.3730735
0
ARC
8
0
10
269.6834437
20
-99.626899
40
0.75
50
210
51
291.3730735
0
LINE
8
0
10
269.0339247
20
-100.001899
11
268.4157677
21
-98.9312196
0
ARC
8
0
10
268.1992613
20
-99.0562196
40
0.25
50
30
51
120
0
LINE
8
0
10
268.0742613
20
-98.8397133
11
264.177147
21
-101.0897133
0
ARC
8
0
10
264.302147
20
-101.3062196
40
0.25
50
120
51
201.4017716
0
ARC
8
0
10
263.3711024
20
-101.6711251
40
0.75
50
273.7900921
51
21.4017642
0
ARC
8
0
10
263.5
20
-103.6168603
40
1.2
50
93.7900908
51
353.5189398
0
ARC
8
0
10
265.437538
20
-103.8369661
40
0.75
50
103.6146708
51
173.5041426
0
ARC
8
0
10
265.202147
20
-102.8650654
40
0.25
50
283.6146708
51
300
0
LINE
8
0
10
265.327147
20
-103.0815717
11
266.8426915
21
-102.2065717
0
ARC
8
0
10
267.2176915
20
-102.8560908
40
0.75
50
30
51
120
0
LINE
8
0
10
267.8672105
20
-102.4810908
11
268.5850901
21
-103.7244946
0
ARC
8
0
10
267.935571
20
-104.0994946
40
0.75
50
345
51
30
0
LINE
8
0
10
268.3920457
20
-105.2936854
11
268.6600154
21
-104.2936089
0
ARC
8
0
10
268.6335272
20
-105.3583902
40
0.25
50
165
51
169.2931441
0
ARC
8
0
10
267.6509366
20
-105.172606
40
0.75
50
246.4198904
51
349.2931447
0
ARC
8
0
10
266.25
20
-108.38
40
2.75
50
66.4050912
51
306.1506399
0
ARC
8
0
10
268.3146859
20
-111.2061408
40
0.75
50
30
51
126.1506399
0
LINE
8
0
10
269.0174773
20
-110.9234113
11
268.9642049
21
-110.8311408
0
ARC
8
0
10
268.3679582
20
-111.2984113
40
0.75
50
288.9125106
51
30
0
ARC
8
0
10
269
20
-113.1431397
40
1.2
50
108.9125107
51
311.0871451
0
ARC
8
0
10
270.2820348
20
-114.6124548
40
0.75
50
31.8376761
51
131.10597
0
ARC
8
0
10
271.30149
20
-113.9794374
40
0.45
50
211.8376714
51
291.6144613
0
ARC
8
0
10
271.7435211
20
-115.0950576
40
0.75
50
30
51
111.6144613
0
LINE
8
0
10
272.3930401
20
-114.7200576
11
273.0494546
21
-115.8570009
0
ARC
8
0
10
273.265961
20
-115.7320009
40
0.25
50
210
51
300
0
LINE
8
0
10
273.390961
20
-115.9485072
11
275.642627
21
-114.6485072
0
ARC
8
0
10
275.517627
20
-114.4320009
40
0.25
50
300
51
30
0
LINE
8
0
10
275.7341334
20
-114.3070009
11
274.846441
21
-112.7694726
0
ARC
8
0
10
275.4959601
20
-112.3944726
40
0.75
50
145.5176121
51
210
0
ARC
8
0
10
274.0124827
20
-111.3750145
40
1.05
50
325.5028228
51
30
0
LINE
8
0
10
273.4843094
20
-108.3601915
11
274.9218094
21
-110.8500145
0
ARC
8
0
10
274.220431
20
-107.9351915
40
0.85
50
120
51
210
0
LINE
8
0
10
274.011961
20
-107.0740562
11
273.795431
21
-107.1990699
0
ARC
8
0
10
273.886961
20
-106.8575499
40
0.25
50
300
51
345
0
LINE
8
0
10
274.4395541
20
-105.7611703
11
274.1284425
21
-106.9222546
0
ARC
8
0
10
274.1980726
20
-105.6964656
40
0.25
50
345
51
30
0
CIRCLE
8
0
10
259.2899692
20
-106.624873
40
1.05
0
LINE
8
0
10
285.1645789
20
-124.1914656
11
283.6270516
21
-121.5283902
0
ARC
8
0
10
283.4105453
20
-121.6533902
40
0.25
50
30
51
75
0
LINE
8
0
10
282.4751736
20
-121.143939
11
283.4752501
21
-121.4119087
0
ARC
8
0
10
282.6692879
20
-120.4194946
40
0.75
50
210
51
255
0
LINE
8
0
10
282.0197688
20
-120.7944946
11
281.0143893
21
-119.0531262
0
ARC
8
0
10
280.7978829
20
-119.1781262
40
0.25
50
30
51
111.3730735
0
ARC
8
0
10
280.4334437
20
-118.246899
40
0.75
50
210
51
291.3730735
0
LINE
8
0
10
279.7839247
20
-118.621899
11
279.1657677
21
-117.5512196
0
ARC
8
0
10
278.9492613
20
-117.6762196
40
0.25
50
30
51
120
0
LINE
8
0
10
278.8242613
20
-117.4597133
11
274.927147
21
-119.7097133
0
ARC
8
0
10
275.052147
20
-119.9262196
40
0.25
50
120
51
201.4017716
0
ARC
8
0
10
274.1211024
20
-120.2911251
40
0.75
50
273.7900921
51
21.4017642
0
ARC
8
0
10
274.25
20
-122.2368603
40
1.2
50
93.7900908
51
353.5189398
0
ARC
8
0
10
276.187538
20
-122.4569661
40
0.75
50
103.6146708
51
173.5041426
0
ARC
8
0
10
275.952147
20
-121.4850654
40
0.25
50
283.6146708
51
300
0
LINE
8
0
10
276.077147
20
-121.7015717
11
277.5926915
21
-120.8265717
0
ARC
8
0
10
277.9676915
20
-121.4760908
40
0.75
50
30
51
120
0
LINE
8
0
10
278.6172105
20
-121.1010908
11
279.3350901
21
-122.3444946
0
ARC
8
0
10
278.685571
20
-122.7194946
40
0.75
50
345
51
30
0
LINE
8
0
10
279.1420457
20
-123.9136854
11
279.4100154
21
-122.9136089
0
ARC
8
0
10
279.3835272
20
-123.9783902
40
0.25
50
165
51
169.2931441
0
ARC
8
0
10
278.4009366
20
-123.792606
40
0.75
50
246.4198904
51
349.2931447
0
ARC
8
0
10
277
20
-127
40
2.75
50
66.4050912
51
306.1506399
0
ARC
8
0
10
279.0646859
20
-129.8261408
40
0.75
50
30
51
126.1506399
0
LINE
8
0
10
279.7674773
20
-129.5434113
11
279.7142049
21
-129.4511408
0
ARC
8
0
10
279.1179582
20
-129.9184113
40
0.75
50
288.9125106
51
30
0
ARC
8
0
10
279.75
20
-131.7631397
40
1.2
50
108.9125107
51
311.0871451
0
ARC
8
0
10
281.0320348
20
-133.2324548
40
0.75
50
31.8376761
51
131.10597
0
ARC
8
0
10
282.05149
20
-132.5994374
40
0.45
50
211.8376714
51
291.6144613
0
ARC
8
0
10
282.4935211
20
-133.7150576
40
0.75
50
30
51
111.6144613
0
LINE
8
0
10
283.1430401
20
-133.3400576
11
283.7994546
21
-134.4770009
0
ARC
8
0
10
284.015961
20
-134.3520009
40
0.25
50
210
51
300
0
LINE
8
0
10
284.140961
20
-134.5685072
11
286.392627
21
-133.2685072
0
ARC
8
0
10
286.267627
20
-133.0520009
40
0.25
50
300
51
30
0
LINE
8
0
10
286.4841334
20
-132.9270009
11
285.596441
21
-131.3894726
0
ARC
8
0
10
286.2459601
20
-131.0144726
40
0.75
50
145.5176121
51
210
0
ARC
8
0
10
284.7624827
20
-129.9950145
40
1.05
50
325.5028228
51
30
0
LINE
8
0
10
284.2343094
20
-126.9801915
11
285.6718094
21
-129.4700145
0
ARC
8
0
10
284.970431
20
-126.5551915
40
0.85
50
120
51
210
0
LINE
8
0
10
284.761961
20
-125.6940562
11
284.545431
21
-125.8190699
0
ARC
8
0
10
284.636961
20
-125.4775499
40
0.25
50
300
51
345
0
LINE
8
0
10
285.1895541
20
-124.3811703
11
284.8784425
21
-125.5422546
0
ARC
8
0
10
284.9480726
20
-124.3164656
40
0.25
50
345
51
30
0
CIRCLE
8
0
10
270.0399692
20
-125.244873
40
1.05
0
LINE
8
0
10
286.0999727
20
-157.5591
11
289.1750273
21
-157.5591
0
ARC
8
0
10
289.1750273
20
-157.3091
40
0.25
50
270
51
315
0
LINE
8
0
10
290.0839108
20
-156.7537699
11
289.351804
21
-157.4858767
0
ARC
8
0
10
290.6142409
20
-157.2841
40
0.75
50
90
51
135
0
LINE
8
0
10
290.6142409
20
-156.5341
11
292.625
21
-156.5341
0
ARC
8
0
10
292.625
20
-156.2841
40
0.25
50
270
51
351.3730735
0
ARC
8
0
10
293.613686
20
-156.4341
40
0.75
50
90
51
171.3730735
0
LINE
8
0
10
293.613686
20
-155.6841
11
294.85
21
-155.6841
0
ARC
8
0
10
294.85
20
-155.4341
40
0.25
50
270
51
360
0
LINE
8
0
10
295.1
20
-155.4341
11
295.1
21
-150.9341
0
ARC
8
0
10
294.85
20
-150.9341
40
0.25
50
0
51
81.4017716
0
ARC
8
0
10
294.9995049
20
-149.945339
40
0.75
50
153.7900921
51
261.4017642
0
ARC
8
0
10
293.25
20
-149.0841
40
1.2
50
333.7900908
51
593.5189398
0
ARC
8
0
10
292.0906138
20
-150.6520042
40
0.75
50
343.6146708
51
413.5041426
0
ARC
8
0
10
293.05
20
-150.9341
40
0.25
50
523.6146708
51
540
0
LINE
8
0
10
292.8
20
-150.9341
11
292.8
21
-152.6841
0
ARC
8
0
10
292.05
20
-152.6841
40
0.75
50
270
51
360
0
LINE
8
0
10
292.05
20
-153.4341
11
290.6142409
21
-153.4341
0
ARC
8
0
10
290.6142409
20
-152.6841
40
0.75
50
225
51
270
0
LINE
8
0
10
289.351804
20
-152.4823233
11
290.0839108
21
-153.2144301
0
ARC
8
0
10
289.1750273
20
-152.6591
40
0.25
50
45
51
49.2931441
0
ARC
8
0
10
289.8272164
20
-151.9010437
40
0.75
50
126.4198904
51
229.2931447
0
ARC
8
0
10
287.75
20
-149.0841
40
2.75
50
306.4050912
51
546.1506399
0
ARC
8
0
10
284.2701473
20
-149.4591
40
0.75
50
270
51
366.1506399
0
LINE
8
0
10
284.1636026
20
-150.2091
11
284.2701473
21
-150.2091
0
ARC
8
0
10
284.1636026
20
-149.4591
40
0.75
50
168.9125106
51
270
0
ARC
8
0
10
282.25
20
-149.0841
40
1.2
50
348.9125107
51
551.0871451
0
ARC
8
0
10
280.3365184
20
-149.4597172
40
0.75
50
271.8376761
51
371.10597
0
ARC
8
0
10
280.375
20
-150.6591
40
0.45
50
91.8376714
51
171.6144613
0
ARC
8
0
10
279.187829
20
-150.4841
40
0.75
50
270
51
351.6144613
0
LINE
8
0
10
279.187829
20
-151.2341
11
278.02
21
-151.2341
0
LINE
8
0
10
278.2217622
20
-154.3341
11
279.6503847
21
-154.3341
0
ARC
8
0
10
279.6503847
20
-155.0841
40
0.75
50
25.5176121
51
90
0
ARC
8
0
10
281.275
20
-154.3091
40
1.05
50
205.5028228
51
270
0
LINE
8
0
10
284.15
20
-155.3591
11
281.275
21
-155.3591
0
ARC
8
0
10
284.15
20
-156.2091
40
0.85
50
0
51
90
0
LINE
8
0
10
285
20
-156.4591273
11
285
21
-156.2091
0
ARC
8
0
10
285.25
20
-156.4591273
40
0.25
50
180
51
225
0
LINE
8
0
10
285.923196
20
-157.4858767
11
285.0732233
21
-156.635904
0
ARC
8
0
10
286.0999727
20
-157.3091
40
0.25
50
225
51
270
0
CIRCLE
8
0
10
292.75
20
-143.9341
40
1.05
0
LINE
8
0
10
248
20
-119.8874488
11
260
21
-119.8874488
0
LINE
8
0
10
278.02
20
-153.4028525
11
278.02
21
-151.2341
0
ARC
8
0
10
280.27
20
-153.4028525
40
2.25
50
180
51
204.4492941
0
LINE
8
0
10
308.23
20
-122.6812477
11
308.23
21
-124.85
0
ARC
8
0
10
305.98
20
-122.6812477
40
2.25
50
0
51
24.4492998
0
LINE
8
0
10
222.3949795
20
-83.4927024
11
224.2729594
21
-82.4084238
0
ARC
8
0
10
223.52
20
-85.4412477
40
2.25
50
120.0006035
51
144.4565285
0
LINE
8
0
10
197.4899771
20
-159.9039104
11
195.6409611
21
-158.8363546
0
ARC
8
0
10
198.75
20
-157.7215396
40
2.52
50
239.9993965
51
261.6882154
0
ENDSEC
0
EOF