0
SECTION
2
HEADER
9
$INSUNITS
70
4
0
ENDSEC
0
SECTION
2
TABLES
0
TABLE
2
LTYPE
0
LTYPE
72
65
70
64
2
CONTINUOUS
3
______
73
0
40
0
0
ENDTAB
0
TABLE
2
LAYER
0
ENDTAB
0
ENDSEC
0
SECTION
2
ENTITIES
0
LINE
8
0
10
259.75
20
-114.43
11
257.75
21
-114.43
0
LINE
8
0
10
257.75
20
-114.43
11
257.75
21
-108.38
0
ARC
8
0
10
257.5
20
-108.38
40
0.25
50
360
51
90
0
LINE
8
0
10
257.5
20
-108.13
11
250.5
21
-108.13
0
ARC
8
0
10
250.5
20
-108.38
40
0.25
50
90
51
180
0
LINE
8
0
10
250.25
20
-108.38
11
250.25
21
-114.43
0
LINE
8
0
10
250.25
20
-114.43
11
248.25
21
-114.43
0
ARC
8
0
10
248.25
20
-114.68
40
0.25
50
90
51
180
0
LINE
8
0
10
248
20
-114.68
11
248
21
-120.68
0
ARC
8
0
10
248.25
20
-120.68
40
0.25
50
180
51
270
0
LINE
8
0
10
248.25
20
-120.93
11
259.75
21
-120.93
0
ARC
8
0
10
259.75
20
-120.68
40
0.25
50
270
51
360
0
LINE
8
0
10
260
20
-120.68
11
260
21
-114.68
0
ARC
8
0
10
259.75
20
-114.68
40
0.25
50
360
51
90
0
LINE
8
0
10
222.8354211
20
-92.5685344
11
224.3729484
21
-95.2316098
0
ARC
8
0
10
224.5894547
20
-95.1066098
40
0.25
50
210
51
255
0
LINE
8
0
10
225.6858342
20
-95.6592029
11
224.5247499
21
-95.3480913
0
ARC
8
0
10
225.750539
20
-95.4177214
40
0.25
50
255
51
281.0360773
0
ARC
8
0
10
225.9419661
20
-96.3992283
40
0.75
50
30
51
101.036079
0
LINE
8
0
10
226.5914851
20
-96.0242283
11
227.1686234
21
-97.0238611
0
ARC
8
0
10
227.3851298
20
-96.8988611
40
0.25
50
210
51
281.0601614
0
ARC
8
0
10
227.5769693
20
-97.8802875
40
0.75
50
28.3301588
51
101.0601522
0
ARC
8
0
10
228.4571969
20
-97.4057359
40
0.25
50
208.3301588
51
210
0
LINE
8
0
10
228.2406906
20
-97.5307359
11
229.0906906
21
-99.0029791
0
ARC
8
0
10
229.3071969
20
-98.8779791
40
0.25
50
210
51
300
0
LINE
8
0
10
229.4321969
20
-99.0944854
11
232.7663947
21
-97.1694854
0
ARC
8
0
10
232.6413947
20
-96.9529791
40
0.25
50
300
51
29.6434574
0
ARC
8
0
10
233.5105147
20
-96.4583779
40
0.75
50
82.9455248
51
209.6434575
0
ARC
8
0
10
233.75
20
-94.5231397
40
1.2
50
262.9455262
51
178.7551808
0
ARC
8
0
10
231.8004602
20
-94.480777
40
0.75
50
269.4805793
51
358.7551808
0
ARC
8
0
10
231.7913947
20
-95.4807359
40
0.25
50
89.4805793
51
120
0
LINE
8
0
10
231.6663947
20
-95.2642296
11
229.9992958
21
-96.2267296
0
ARC
8
0
10
229.6242958
20
-95.5772105
40
0.75
50
210
51
300
0
LINE
8
0
10
228.9747768
20
-95.9522105
11
228.4101385
21
-94.9742283
0
ARC
8
0
10
229.0596575
20
-94.5992283
40
0.75
50
138.963921
51
210
0
ARC
8
0
10
228.3053612
20
-93.9426941
40
0.25
50
318.963921
51
345
0
LINE
8
0
10
228.8579543
20
-92.8463146
11
228.5468427
21
-94.0073989
0
ARC
8
0
10
228.6164728
20
-92.7816098
40
0.25
50
345
51
349.2931441
0
ARC
8
0
10
229.5990634
20
-92.967394
40
0.75
50
66.4198904
51
169.2931447
0
ARC
8
0
10
231
20
-89.76
40
2.75
50
246.4050912
51
126.1506399
0
ARC
8
0
10
228.9353141
20
-86.9338592
40
0.75
50
210
51
306.1506399
0
LINE
8
0
10
228.2325227
20
-87.2165887
11
228.2857951
21
-87.3088592
0
ARC
8
0
10
228.8820418
20
-86.8415887
40
0.75
50
108.9125106
51
210
0
ARC
8
0
10
228.25
20
-84.9968603
40
1.2
50
288.9125107
51
131.0871451
0
ARC
8
0
10
226.9679652
20
-83.5275452
40
0.75
50
211.8376761
51
311.10597
0
ARC
8
0
10
225.94851
20
-84.1605626
40
0.45
50
31.8376714
51
120
0
LINE
8
0
10
225.72351
20
-83.7708512
11
225.4420517
21
-83.9333512
0
ARC
8
0
10
225.0670517
20
-83.2838322
40
0.75
50
210
51
300
0
LINE
8
0
10
224.4175327
20
-83.6588322
11
224.0175327
21
-82.9660118
0
ARC
8
0
10
223.8010263
20
-83.0910118
40
0.25
50
30
51
120
0
LINE
8
0
10
223.6760263
20
-82.8745055
11
222.2903857
21
-83.6745055
0
ARC
8
0
10
222.4153857
20
-83.8910118
40
0.25
50
120
51
210
0
LINE
8
0
10
222.1988793
20
-84.0160118
11
222.7594448
21
-84.9869398
0
ARC
8
0
10
222.1099258
20
-85.3619398
40
0.75
50
308.8027308
51
30
0
ARC
8
0
10
223.2375173
20
-86.7649855
40
1.05
50
128.7879374
51
210
0
LINE
8
0
10
223.7656906
20
-89.7798085
11
222.3281906
21
-87.2899855
0
ARC
8
0
10
223.029569
20
-90.2048085
40
0.85
50
300
51
30
0
LINE
8
0
10
223.238039
20
-91.0659438
11
223.454569
21
-90.9409301
0
ARC
8
0
10
223.363039
20
-91.2824501
40
0.25
50
120
51
165
0
LINE
8
0
10
222.8104459
20
-92.3788297
11
223.1215575
21
-91.2177454
0
ARC
8
0
10
223.0519274
20
-92.4435344
40
0.25
50
165
51
210
0
CIRCLE
8
0
10
237.9600308
20
-91.515127
40
1.05
0
LINE
8
0
10
213.7354484
20
-102.7135344
11
212.1979211
21
-105.3766098
0
ARC
8
0
10
212.4144274
20
-105.5016098
40
0.25
50
150
51
195
0
LINE
8
0
10
212.4840575
20
-106.7273989
11
212.1729459
21
-105.5663146
0
ARC
8
0
10
212.725539
20
-106.6626941
40
0.25
50
195
51
221.0360773
0
ARC
8
0
10
211.9712427
20
-107.3192283
40
0.75
50
330
51
41.036079
0
LINE
8
0
10
212.6207617
20
-107.6942283
11
212.0436234
21
-108.6938611
0
ARC
8
0
10
212.2601298
20
-108.8188611
40
0.25
50
150
51
221.0601614
0
ARC
8
0
10
211.5061094
20
-109.4757122
40
0.75
50
328.3301588
51
41.0601522
0
ARC
8
0
10
212.3571969
20
-110.0007359
40
0.25
50
148.3301588
51
150
0
LINE
8
0
10
212.1406906
20
-109.8757359
11
211.2906906
21
-111.3479791
0
ARC
8
0
10
211.5071969
20
-111.4729791
40
0.25
50
150
51
240
0
LINE
8
0
10
211.3821969
20
-111.6894854
11
214.7163947
21
-113.6144854
0
ARC
8
0
10
214.8413947
20
-113.3979791
40
0.25
50
240
51
329.6434574
0
ARC
8
0
10
215.7042919
20
-113.9033585
40
0.75
50
22.9455248
51
149.6434575
0
ARC
8
0
10
217.5
20
-113.1431397
40
1.2
50
202.9455262
51
118.7551808
0
ARC
8
0
10
216.5619173
20
-111.4336074
40
0.75
50
209.4805793
51
298.7551808
0
ARC
8
0
10
215.6913947
20
-111.9257359
40
0.25
50
29.4805793
51
60
0
LINE
8
0
10
215.8163947
20
-111.7092296
11
214.1492958
21
-110.7467296
0
ARC
8
0
10
214.5242958
20
-110.0972105
40
0.75
50
150
51
240
0
LINE
8
0
10
213.8747768
20
-109.7222105
11
214.4394151
21
-108.7442283
0
ARC
8
0
10
215.0889341
20
-109.1192283
40
0.75
50
78.963921
51
150
0
ARC
8
0
10
215.2803612
20
-108.1377214
40
0.25
50
258.963921
51
285
0
LINE
8
0
10
216.5061503
20
-108.0680913
11
215.345066
21
-108.3792029
0
ARC
8
0
10
216.4414455
20
-107.8266098
40
0.25
50
285
51
289.2931441
0
ARC
8
0
10
216.771847
20
-108.7704503
40
0.75
50
6.4198904
51
109.2931447
0
ARC
8
0
10
220.25
20
-108.38
40
2.75
50
186.4050912
51
66.1506399
0
ARC
8
0
10
221.6651668
20
-105.1788592
40
0.75
50
150
51
246.1506399
0
LINE
8
0
10
221.0689201
20
-104.7115887
11
221.0156478
21
-104.8038592
0
ARC
8
0
10
221.7184392
20
-105.0865887
40
0.75
50
48.9125106
51
150
0
ARC
8
0
10
223
20
-103.6168603
40
1.2
50
228.9125107
51
71.0871451
0
ARC
8
0
10
223.6314468
20
-101.771928
40
0.75
50
151.8376761
51
251.10597
0
ARC
8
0
10
222.57351
20
-101.2055626
40
0.45
50
331.8376714
51
60
0
LINE
8
0
10
222.79851
20
-100.8158512
11
222.5170517
21
-100.6533512
0
ARC
8
0
10
222.8920517
20
-100.0038322
40
0.75
50
150
51
240
0
LINE
8
0
10
222.2425327
20
-99.6288322
11
222.6425327
21
-98.9360118
0
ARC
8
0
10
222.4260263
20
-98.8110118
40
0.25
50
330
51
60
0
LINE
8
0
10
222.5510263
20
-98.5945055
11
221.1653857
21
-97.7945055
0
ARC
8
0
10
221.0403857
20
-98.0110118
40
0.25
50
60
51
150
0
LINE
8
0
10
220.8238793
20
-97.8860118
11
220.2633138
21
-98.8569398
0
ARC
8
0
10
219.6137948
20
-98.4819398
40
0.75
50
248.8027308
51
330
0
ARC
8
0
10
218.9625173
20
-100.1599855
40
1.05
50
68.7879374
51
150
0
LINE
8
0
10
216.6156906
20
-102.1248085
11
218.0531906
21
-99.6349855
0
ARC
8
0
10
215.879569
20
-101.6998085
40
0.85
50
240
51
330
0
LINE
8
0
10
215.238039
20
-102.3109165
11
215.454569
21
-102.4359301
0
ARC
8
0
10
215.113039
20
-102.5274228
40
0.25
50
60
51
105
0
LINE
8
0
10
213.8872499
20
-102.597053
11
215.0483342
21
-102.2859414
0
ARC
8
0
10
213.9519547
20
-102.8385344
40
0.25
50
105
51
150
0
CIRCLE
8
0
10
222.2100308
20
-115.285127
40
1.05
0
LINE
8
0
10
211.1500273
20
-118.525
11
208.0749727
21
-118.525
0
ARC
8
0
10
208.0749727
20
-118.775
40
0.25
50
90
51
135
0
LINE
8
0
10
207.0482233
20
-119.448196
11
207.898196
21
-118.5982233
0
ARC
8
0
10
207.225
20
-119.6249727
40
0.25
50
135
51
161.0360773
0
ARC
8
0
10
206.2792766
20
-119.3
40
0.75
50
270
51
341.036079
0
LINE
8
0
10
206.2792766
20
-120.05
11
205.125
21
-120.05
0
ARC
8
0
10
205.125
20
-120.3
40
0.25
50
90
51
161.0601614
0
ARC
8
0
10
204.1791401
20
-119.9754247
40
0.75
50
268.3301588
51
341.0601522
0
ARC
8
0
10
204.15
20
-120.975
40
0.25
50
88.3301588
51
90
0
LINE
8
0
10
204.15
20
-120.725
11
202.45
21
-120.725
0
ARC
8
0
10
202.45
20
-120.975
40
0.25
50
90
51
180
0
LINE
8
0
10
202.2
20
-120.975
11
202.2
21
-124.825
0
ARC
8
0
10
202.45
20
-124.825
40
0.25
50
180
51
269.6434574
0
ARC
8
0
10
202.4437772
20
-125.8249806
40
0.75
50
322.9455248
51
89.6434575
0
ARC
8
0
10
204
20
-127
40
1.2
50
142.9455262
51
58.7551808
0
ARC
8
0
10
205.0114571
20
-125.3328304
40
0.75
50
149.4805793
51
238.7551808
0
ARC
8
0
10
204.15
20
-124.825
40
0.25
50
329.4805793
51
0
0
LINE
8
0
10
204.4
20
-124.825
11
204.4
21
-122.9
0
ARC
8
0
10
205.15
20
-122.9
40
0.75
50
90
51
180
0
LINE
8
0
10
205.15
20
-122.15
11
206.2792766
21
-122.15
0
ARC
8
0
10
206.2792766
20
-122.9
40
0.75
50
18.963921
51
90
0
ARC
8
0
10
207.225
20
-122.5750273
40
0.25
50
198.963921
51
225
0
LINE
8
0
10
207.898196
20
-123.6017767
11
207.0482233
21
-122.751804
0
ARC
8
0
10
208.0749727
20
-123.425
40
0.25
50
225
51
229.2931441
0
ARC
8
0
10
207.4227836
20
-124.1830563
40
0.75
50
306.4198904
51
49.2931447
0
ARC
8
0
10
209.5
20
-127
40
2.75
50
126.4050912
51
6.1506399
0
ARC
8
0
10
212.9798527
20
-126.625
40
0.75
50
90
51
186.1506399
0
LINE
8
0
10
213.0863974
20
-125.875
11
212.9798527
21
-125.875
0
ARC
8
0
10
213.0863974
20
-126.625
40
0.75
50
348.9125106
51
90
0
ARC
8
0
10
215
20
-127
40
1.2
50
168.9125107
51
11.0871451
0
ARC
8
0
10
216.9134816
20
-126.6243828
40
0.75
50
91.8376761
51
191.10597
0
ARC
8
0
10
216.875
20
-125.425
40
0.45
50
271.8376714
51
0
0
LINE
8
0
10
217.325
20
-125.425
11
217.325
21
-125.1
0
ARC
8
0
10
218.075
20
-125.1
40
0.75
50
90
51
180
0
LINE
8
0
10
218.075
20
-124.35
11
218.875
21
-124.35
0
ARC
8
0
10
218.875
20
-124.1
40
0.25
50
270
51
0
0
LINE
8
0
10
219.125
20
-124.1
11
219.125
21
-122.5
0
ARC
8
0
10
218.875
20
-122.5
40
0.25
50
0
51
90
0
LINE
8
0
10
218.875
20
-122.25
11
217.753869
21
-122.25
0
ARC
8
0
10
217.753869
20
-121.5
40
0.75
50
188.8027308
51
270
0
ARC
8
0
10
215.975
20
-121.775
40
1.05
50
8.7879374
51
90
0
LINE
8
0
10
213.1
20
-120.725
11
215.975
21
-120.725
0
ARC
8
0
10
213.1
20
-119.875
40
0.85
50
180
51
270
0
LINE
8
0
10
212.25
20
-119.6249727
11
212.25
21
-119.875
0
ARC
8
0
10
212
20
-119.6249727
40
0.25
50
0
51
45
0
LINE
8
0
10
211.326804
20
-118.5982233
11
212.1767767
21
-119.448196
0
ARC
8
0
10
211.1500273
20
-118.775
40
0.25
50
45
51
90
0
CIRCLE
8
0
10
204.5
20
-132.15
40
1.05
0
LINE
8
0
10
205.2645516
20
-154.7505656
11
206.8020789
21
-152.0874902
0
ARC
8
0
10
206.5855726
20
-151.9624902
40
0.25
50
330
51
15
0
LINE
8
0
10
206.5159425
20
-150.7367011
11
206.8270541
21
-151.8977854
0
ARC
8
0
10
206.274461
20
-150.8014059
40
0.25
50
15
51
41.0360773
0
ARC
8
0
10
207.0287573
20
-150.1448717
40
0.75
50
150
51
221.036079
0
LINE
8
0
10
206.3792383
20
-149.7698717
11
206.9563766
21
-148.7702389
0
ARC
8
0
10
206.7398702
20
-148.6452389
40
0.25
50
330
51
41.0601614
0
ARC
8
0
10
207.4938906
20
-147.9883878
40
0.75
50
148.3301588
51
221.0601522
0
ARC
8
0
10
206.6428031
20
-147.4633641
40
0.25
50
328.3301588
51
330
0
LINE
8
0
10
206.8593094
20
-147.5883641
11
207.7093094
21
-146.1161209
0
ARC
8
0
10
207.4928031
20
-145.9911209
40
0.25
50
330
51
60
0
LINE
8
0
10
207.6178031
20
-145.7746146
11
204.2836053
21
-143.8496146
0
ARC
8
0
10
204.1586053
20
-144.0661209
40
0.25
50
60
51
149.6434574
0
ARC
8
0
10
203.2957081
20
-143.5607415
40
0.75
50
202.9455248
51
329.6434575
0
ARC
8
0
10
201.5
20
-144.3209603
40
1.2
50
22.9455262
51
298.7551808
0
ARC
8
0
10
202.4380827
20
-146.0304926
40
0.75
50
29.4805793
51
118.7551808
0
ARC
8
0
10
203.3086053
20
-145.5383641
40
0.25
50
209.4805793
51
240
0
LINE
8
0
10
203.1836053
20
-145.7548704
11
204.8507042
21
-146.7173704
0
ARC
8
0
10
204.4757042
20
-147.3668895
40
0.75
50
330
51
60
0
LINE
8
0
10
205.1252232
20
-147.7418895
11
204.5605849
21
-148.7198717
0
ARC
8
0
10
203.9110659
20
-148.3448717
40
0.75
50
258.963921
51
330
0
ARC
8
0
10
203.7196388
20
-149.3263786
40
0.25
50
78.963921
51
105
0
LINE
8
0
10
202.4938497
20
-149.3960087
11
203.654934
21
-149.0848971
0
ARC
8
0
10
202.5585545
20
-149.6374902
40
0.25
50
105
51
109.2931441
0
ARC
8
0
10
202.228153
20
-148.6936497
40
0.75
50
186.4198904
51
289.2931447
0
ARC
8
0
10
198.75
20
-149.0841
40
2.75
50
6.4050912
51
246.1506399
0
ARC
8
0
10
197.3348332
20
-152.2852408
40
0.75
50
330
51
66.1506399
0
LINE
8
0
10
197.9310799
20
-152.7525113
11
197.9843522
21
-152.6602408
0
ARC
8
0
10
197.2815608
20
-152.3775113
40
0.75
50
228.9125106
51
330
0
ARC
8
0
10
196
20
-153.8472397
40
1.2
50
48.9125107
51
251.0871451
0
ARC
8
0
10
195.3685532
20
-155.692172
40
0.75
50
331.8376761
51
71.10597
0
ARC
8
0
10
196.42649
20
-156.2585374
40
0.45
50
151.8376714
51
240
0
LINE
8
0
10
196.20149
20
-156.6482488
11
196.4829483
21
-156.8107488
0
ARC
8
0
10
196.1079483
20
-157.4602678
40
0.75
50
330
51
60
0
LINE
8
0
10
196.7574673
20
-157.8352678
11
196.3574673
21
-158.5280882
0
ARC
8
0
10
196.5739737
20
-158.6530882
40
0.25
50
150
51
240
0
LINE
8
0
10
196.4489737
20
-158.8695945
11
197.8346143
21
-159.6695945
0
ARC
8
0
10
197.9596143
20
-159.4530882
40
0.25
50
240
51
330
0
LINE
8
0
10
198.1761207
20
-159.5780882
11
198.7366862
21
-158.6071602
0
ARC
8
0
10
199.3862052
20
-158.9821602
40
0.75
50
68.8027308
51
150
0
ARC
8
0
10
200.0374827
20
-157.3041145
40
1.05
50
248.7879374
51
330
0
LINE
8
0
10
202.3843094
20
-155.3392915
11
200.9468094
21
-157.8291145
0
ARC
8
0
10
203.120431
20
-155.7642915
40
0.85
50
60
51
150
0
LINE
8
0
10
203.761961
20
-155.1531835
11
203.545431
21
-155.0281699
0
ARC
8
0
10
203.886961
20
-154.9366772
40
0.25
50
240
51
285
0
LINE
8
0
10
205.1127501
20
-154.867047
11
203.9516658
21
-155.1781586
0
ARC
8
0
10
205.0480453
20
-154.6255656
40
0.25
50
285
51
330
0
CIRCLE
8
0
10
196.7899692
20
-142.178973
40
1.05
0
LINE
8
0
10
235.2354484
20
-102.7135344
11
233.6979211
21
-105.3766098
0
ARC
8
0
10
233.9144274
20
-105.5016098
40
0.25
50
150
51
195
0
LINE
8
0
10
233.9840575
20
-106.7273989
11
233.6729459
21
-105.5663146
0
ARC
8
0
10
234.225539
20
-106.6626941
40
0.25
50
195
51
221.0360773
0
ARC
8
0
10
233.4712427
20
-107.3192283
40
0.75
50
330
51
41.036079
0
LINE
8
0
10
234.1207617
20
-107.6942283
11
233.5436234
21
-108.6938611
0
ARC
8
0
10
233.7601298
20
-108.8188611
40
0.25
50
150
51
221.0601614
0
ARC
8
0
10
233.0061094
20
-109.4757122
40
0.75
50
328.3301588
51
41.0601522
0
ARC
8
0
10
233.8571969
20
-110.0007359
40
0.25
50
148.3301588
51
150
0
LINE
8
0
10
233.6406906
20
-109.8757359
11
232.7906906
21
-111.3479791
0
ARC
8
0
10
233.0071969
20
-111.4729791
40
0.25
50
150
51
240
0
LINE
8
0
10
232.8821969
20
-111.6894854
11
236.2163947
21
-113.6144854
0
ARC
8
0
10
236.3413947
20
-113.3979791
40
0.25
50
240
51
329.6434574
0
ARC
8
0
10
237.2042919
20
-113.9033585
40
0.75
50
22.9455248
51
149.6434575
0
ARC
8
0
10
239
20
-113.1431397
40
1.2
50
202.9455262
51
118.7551808
0
ARC
8
0
10
238.0619173
20
-111.4336074
40
0.75
50
209.4805793
51
298.7551808
0
ARC
8
0
10
237.1913947
20
-111.9257359
40
0.25
50
29.4805793
51
60
0
LINE
8
0
10
237.3163947
20
-111.7092296
11
235.6492958
21
-110.7467296
0
ARC
8
0
10
236.0242958
20
-110.0972105
40
0.75
50
150
51
240
0
LINE
8
0
10
235.3747768
20
-109.7222105
11
235.9394151
21
-108.7442283
0
ARC
8
0
10
236.5889341
20
-109.1192283
40
0.75
50
78.963921
51
150
0
ARC
8
0
10
236.7803612
20
-108.1377214
40
0.25
50
258.963921
51
285
0
LINE
8
0
10
238.0061503
20
-108.0680913
11
236.845066
21
-108.3792029
0
ARC
8
0
10
237.9414455
20
-107.8266098
40
0.25
50
285
51
289.2931441
0
ARC
8
0
10
238.271847
20
-108.7704503
40
0.75
50
6.4198904
51
109.2931447
0
ARC
8
0
10
241.75
20
-108.38
40
2.75
50
186.4050912
51
66.1506399
0
ARC
8
0
10
243.1651668
20
-105.1788592
40
0.75
50
150
51
246.1506399
0
LINE
8
0
10
242.5689201
20
-104.7115887
11
242.5156478
21
-104.8038592
0
ARC
8
0
10
243.2184392
20
-105.0865887
40
0.75
50
48.9125106
51
150
0
ARC
8
0
10
244.5
20
-103.6168603
40
1.2
50
228.9125107
51
71.0871451
0
ARC
8
0
10
245.1314468
20
-101.771928
40
0.75
50
151.8376761
51
251.10597
0
ARC
8
0
10
244.07351
20
-101.2055626
40
0.45
50
331.8376714
51
60
0
LINE
8
0
10
244.29851
20
-100.8158512
11
244.0170517
21
-100.6533512
0
ARC
8
0
10
244.3920517
20
-100.0038322
40
0.75
50
150
51
240
0
LINE
8
0
10
243.7425327
20
-99.6288322
11
244.1425327
21
-98.9360118
0
ARC
8
0
10
243.9260263
20
-98.8110118
40
0.25
50
330
51
60
0
LINE
8
0
10
244.0510263
20
-98.5945055
11
242.6653857
21
-97.7945055
0
ARC
8
0
10
242.5403857
20
-98.0110118
40
0.25
50
60
51
150
0
LINE
8
0
10
242.3238793
20
-97.8860118
11
241.7633138
21
-98.8569398
0
ARC
8
0
10
241.1137948
20
-98.4819398
40
0.75
50
248.8027308
51
330
0
ARC
8
0
10
240.4625173
20
-100.1599855
40
1.05
50
68.7879374
51
150
0
LINE
8
0
10
238.1156906
20
-102.1248085
11
239.5531906
21
-99.6349855
0
ARC
8
0
10
237.379569
20
-101.6998085
40
0.85
50
240
51
330
0
LINE
8
0
10
236.738039
20
-102.3109165
11
236.954569
21
-102.4359301
0
ARC
8
0
10
236.613039
20
-102.5274228
40
0.25
50
60
51
105
0
LINE
8
0
10
235.3872499
20
-102.597053
11
236.5483342
21
-102.2859414
0
ARC
8
0
10
235.4519547
20
-102.8385344
40
0.25
50
105
51
150
0
CIRCLE
8
0
10
243.7100308
20
-115.285127
40
1.05
0
LINE
8
0
10
224.4854484
20
-121.3335344
11
222.9479211
21
-123.9966098
0
ARC
8
0
10
223.1644274
20
-124.1216098
40
0.25
50
150
51
195
0
LINE
8
0
10
223.2340575
20
-125.3473989
11
222.9229459
21
-124.1863146
0
ARC
8
0
10
223.475539
20
-125.2826941
40
0.25
50
195
51
221.0360773
0
ARC
8
0
10
222.7212427
20
-125.9392283
40
0.75
50
330
51
41.036079
0
LINE
8
0
10
223.3707617
20
-126.3142283
11
222.7936234
21
-127.3138611
0
ARC
8
0
10
223.0101298
20
-127.4388611
40
0.25
50
150
51
221.0601614
0
ARC
8
0
10
222.2561094
20
-128.0957122
40
0.75
50
328.3301588
51
41.0601522
0
ARC
8
0
10
223.1071969
20
-128.6207359
40
0.25
50
148.3301588
51
150
0
LINE
8
0
10
222.8906906
20
-128.4957359
11
222.0406906
21
-129.9679791
0
ARC
8
0
10
222.2571969
20
-130.0929791
40
0.25
50
150
51
240
0
LINE
8
0
10
222.1321969
20
-130.3094854
11
225.4663947
21
-132.2344854
0
ARC
8
0
10
225.5913947
20
-132.0179791
40
0.25
50
240
51
329.6434574
0
ARC
8
0
10
226.4542919
20
-132.5233585
40
0.75
50
22.9455248
51
149.6434575
0
ARC
8
0
10
228.25
20
-131.7631397
40
1.2
50
202.9455262
51
118.7551808
0
ARC
8
0
10
227.3119173
20
-130.0536074
40
0.75
50
209.4805793
51
298.7551808
0
ARC
8
0
10
226.4413947
20
-130.5457359
40
0.25
50
29.4805793
51
60
0
LINE
8
0
10
226.5663947
20
-130.3292296
11
224.8992958
21
-129.3667296
0
ARC
8
0
10
225.2742958
20
-128.7172105
40
0.75
50
150
51
240
0
LINE
8
0
10
224.6247768
20
-128.3422105
11
225.1894151
21
-127.3642283
0
ARC
8
0
10
225.8389341
20
-127.7392283
40
0.75
50
78.963921
51
150
0
ARC
8
0
10
226.0303612
20
-126.7577214
40
0.25
50
258.963921
51
285
0
LINE
8
0
10
227.2561503
20
-126.6880913
11
226.095066
21
-126.9992029
0
ARC
8
0
10
227.1914455
20
-126.4466098
40
0.25
50
285
51
289.2931441
0
ARC
8
0
10
227.521847
20
-127.3904503
40
0.75
50
6.4198904
51
109.2931447
0
ARC
8
0
10
231
20
-127
40
2.75
50
186.4050912
51
66.1506399
0
ARC
8
0
10
232.4151668
20
-123.7988592
40
0.75
50
150
51
246.1506399
0
LINE
8
0
10
231.8189201
20
-123.3315887
11
231.7656478
21
-123.4238592
0
ARC
8
0
10
232.4684392
20
-123.7065887
40
0.75
50
48.9125106
51
150
0
ARC
8
0
10
233.75
20
-122.2368603
40
1.2
50
228.9125107
51
71.0871451
0
ARC
8
0
10
234.3814468
20
-120.391928
40
0.75
50
151.8376761
51
251.10597
0
ARC
8
0
10
233.32351
20
-119.8255626
40
0.45
50
331.8376714
51
60
0
LINE
8
0
10
233.54851
20
-119.4358512
11
233.2670517
21
-119.2733512
0
ARC
8
0
10
233.6420517
20
-118.6238322
40
0.75
50
150
51
240
0
LINE
8
0
10
232.9925327
20
-118.2488322
11
233.3925327
21
-117.5560118
0
ARC
8
0
10
233.1760263
20
-117.4310118
40
0.25
50
330
51
60
0
LINE
8
0
10
233.3010263
20
-117.2145055
11
231.9153857
21
-116.4145055
0
ARC
8
0
10
231.7903857
20
-116.6310118
40
0.25
50
60
51
150
0
LINE
8
0
10
231.5738793
20
-116.5060118
11
231.0133138
21
-117.4769398
0
ARC
8
0
10
230.3637948
20
-117.1019398
40
0.75
50
248.8027308
51
330
0
ARC
8
0
10
229.7125173
20
-118.7799855
40
1.05
50
68.7879374
51
150
0
LINE
8
0
10
227.3656906
20
-120.7448085
11
228.8031906
21
-118.2549855
0
ARC
8
0
10
226.629569
20
-120.3198085
40
0.85
50
240
51
330
0
LINE
8
0
10
225.988039
20
-120.9309165
11
226.204569
21
-121.0559301
0
ARC
8
0
10
225.863039
20
-121.1474228
40
0.25
50
60
51
105
0
LINE
8
0
10
224.6372499
20
-121.217053
11
225.7983342
21
-120.9059414
0
ARC
8
0
10
224.7019547
20
-121.4585344
40
0.25
50
105
51
150
0
CIRCLE
8
0
10
232.9600308
20
-133.905127
40
1.05
0
LINE
8
0
10
218.5999727
20
-157.5591
11
221.6750273
21
-157.5591
0
ARC
8
0
10
221.6750273
20
-157.3091
40
0.25
50
270
51
315
0
LINE
8
0
10
222.7017767
20
-156.635904
11
221.851804
21
-157.4858767
0
ARC
8
0
10
222.525
20
-156.4591273
40
0.25
50
315
51
341.0360773
0
ARC
8
0
10
223.4707234
20
-156.7841
40
0.75
50
90
51
161.036079
0
LINE
8
0
10
223.4707234
20
-156.0341
11
224.625
21
-156.0341
0
ARC
8
0
10
224.625
20
-155.7841
40
0.25
50
270
51
341.0601614
0
ARC
8
0
10
225.5708599
20
-156.1086753
40
0.75
50
88.3301588
51
161.0601522
0
ARC
8
0
10
225.6
20
-155.1091
40
0.25
50
268.3301588
51
270
0
LINE
8
0
10
225.6
20
-155.3591
11
227.3
21
-155.3591
0
ARC
8
0
10
227.3
20
-155.1091
40
0.25
50
270
51
360
0
LINE
8
0
10
227.55
20
-155.1091
11
227.55
21
-151.2591
0
ARC
8
0
10
227.3
20
-151.2591
40
0.25
50
0
51
89.6434574
0
ARC
8
0
10
227.3062228
20
-150.2591194
40
0.75
50
142.9455248
51
269.6434575
0
ARC
8
0
10
225.75
20
-149.0841
40
1.2
50
322.9455262
51
598.7551808
0
ARC
8
0
10
224.7385429
20
-150.7512696
40
0.75
50
329.4805793
51
418.7551808
0
ARC
8
0
10
225.6
20
-151.2591
40
0.25
50
509.4805793
51
540
0
LINE
8
0
10
225.35
20
-151.2591
11
225.35
21
-153.1841
0
ARC
8
0
10
224.6
20
-153.1841
40
0.75
50
270
51
360
0
LINE
8
0
10
224.6
20
-153.9341
11
223.4707234
21
-153.9341
0
ARC
8
0
10
223.4707234
20
-153.1841
40
0.75
50
198.963921
51
270
0
ARC
8
0
10
222.525
20
-153.5090727
40
0.25
50
378.963921
51
405
0
LINE
8
0
10
221.851804
20
-152.4823233
11
222.7017767
21
-153.332296
0
ARC
8
0
10
221.6750273
20
-152.6591
40
0.25
50
45
51
49.2931441
0
ARC
8
0
10
222.3272164
20
-151.9010437
40
0.75
50
126.4198904
51
229.2931447
0
ARC
8
0
10
220.25
20
-149.0841
40
2.75
50
306.4050912
51
546.1506399
0
ARC
8
0
10
216.7701473
20
-149.4591
40
0.75
50
270
51
366.1506399
0
LINE
8
0
10
216.6636026
20
-150.2091
11
216.7701473
21
-150.2091
0
ARC
8
0
10
216.6636026
20
-149.4591
40
0.75
50
168.9125106
51
270
0
ARC
8
0
10
214.75
20
-149.0841
40
1.2
50
348.9125107
51
551.0871451
0
ARC
8
0
10
212.8365184
20
-149.4597172
40
0.75
50
271.8376761
51
371.10597
0
ARC
8
0
10
212.875
20
-150.6591
40
0.45
50
91.8376714
51
180
0
LINE
8
0
10
212.425
20
-150.6591
11
212.425
21
-150.9841
0
ARC
8
0
10
211.675
20
-150.9841
40
0.75
50
270
51
360
0
LINE
8
0
10
211.675
20
-151.7341
11
210.875
21
-151.7341
0
ARC
8
0
10
210.875
20
-151.9841
40
0.25
50
90
51
180
0
LINE
8
0
10
210.625
20
-151.9841
11
210.625
21
-153.5841
0
ARC
8
0
10
210.875
20
-153.5841
40
0.25
50
180
51
270
0
LINE
8
0
10
210.875
20
-153.8341
11
211.996131
21
-153.8341
0
ARC
8
0
10
211.996131
20
-154.5841
40
0.75
50
8.8027308
51
90
0
ARC
8
0
10
213.775
20
-154.3091
40
1.05
50
188.7879374
51
270
0
LINE
8
0
10
216.65
20
-155.3591
11
213.775
21
-155.3591
0
ARC
8
0
10
216.65
20
-156.2091
40
0.85
50
0
51
90
0
LINE
8
0
10
217.5
20
-156.4591273
11
217.5
21
-156.2091
0
ARC
8
0
10
217.75
20
-156.4591273
40
0.25
50
180
51
225
0
LINE
8
0
10
218.423196
20
-157.4858767
11
217.5732233
21
-156.635904
0
ARC
8
0
10
218.5999727
20
-157.3091
40
0.25
50
225
51
270
0
CIRCLE
8
0
10
225.25
20
-143.9341
40
1.05
0
LINE
8
0
10
283.5145516
20
-95.4264656
11
285.0520789
21
-92.7633902
0
ARC
8
0
10
284.8355726
20
-92.6383902
40
0.25
50
330
51
15
0
LINE
8
0
10
284.7659425
20
-91.4126011
11
285.0770541
21
-92.5736854
0
ARC
8
0
10
284.524461
20
-91.4773059
40
0.25
50
15
51
41.0360773
0
ARC
8
0
10
285.2787573
20
-90.8207717
40
0.75
50
150
51
221.036079
0
LINE
8
0
10
284.6292383
20
-90.4457717
11
285.2063766
21
-89.4461389
0
ARC
8
0
10
284.9898702
20
-89.3211389
40
0.25
50
330
51
41.0601614
0
ARC
8
0
10
285.7438906
20
-88.6642878
40
0.75
50
148.3301588
51
221.0601522
0
ARC
8
0
10
284.8928031
20
-88.1392641
40
0.25
50
328.3301588
51
330
0
LINE
8
0
10
285.1093094
20
-88.2642641
11
285.9593094
21
-86.7920209
0
ARC
8
0
10
285.7428031
20
-86.6670209
40
0.25
50
330
51
60
0
LINE
8
0
10
285.8678031
20
-86.4505146
11
282.5336053
21
-84.5255146
0
ARC
8
0
10
282.4086053
20
-84.7420209
40
0.25
50
60
51
149.6434574
0
ARC
8
0
10
281.5457081
20
-84.2366415
40
0.75
50
202.9455248
51
329.6434575
0
ARC
8
0
10
279.75
20
-84.9968603
40
1.2
50
22.9455262
51
298.7551808
0
ARC
8
0
10
280.6880827
20
-86.7063926
40
0.75
50
29.4805793
51
118.7551808
0
ARC
8
0
10
281.5586053
20
-86.2142641
40
0.25
50
209.4805793
51
240
0
LINE
8
0
10
281.4336053
20
-86.4307704
11
283.1007042
21
-87.3932704
0
ARC
8
0
10
282.7257042
20
-88.0427895
40
0.75
50
330
51
60
0
LINE
8
0
10
283.3752232
20
-88.4177895
11
282.8105849
21
-89.3957717
0
ARC
8
0
10
282.1610659
20
-89.0207717
40
0.75
50
258.963921
51
330
0
ARC
8
0
10
281.9696388
20
-90.0022786
40
0.25
50
78.963921
51
105
0
LINE
8
0
10
280.7438497
20
-90.0719087
11
281.904934
21
-89.7607971
0
ARC
8
0
10
280.8085545
20
-90.3133902
40
0.25
50
105
51
109.2931441
0
ARC
8
0
10
280.478153
20
-89.3695497
40
0.75
50
186.4198904
51
289.2931447
0
ARC
8
0
10
277
20
-89.76
40
2.75
50
6.4050912
51
246.1506399
0
ARC
8
0
10
275.5848332
20
-92.9611408
40
0.75
50
330
51
66.1506399
0
LINE
8
0
10
276.1810799
20
-93.4284113
11
276.2343522
21
-93.3361408
0
ARC
8
0
10
275.5315608
20
-93.0534113
40
0.75
50
228.9125106
51
330
0
ARC
8
0
10
274.25
20
-94.5231397
40
1.2
50
48.9125107
51
251.0871451
0
ARC
8
0
10
273.6185532
20
-96.368072
40
0.75
50
331.8376761
51
71.10597
0
ARC
8
0
10
274.67649
20
-96.9344374
40
0.45
50
151.8376714
51
240
0
LINE
8
0
10
274.45149
20
-97.3241488
11
274.7329483
21
-97.4866488
0
ARC
8
0
10
274.3579483
20
-98.1361678
40
0.75
50
330
51
60
0
LINE
8
0
10
275.0074673
20
-98.5111678
11
274.6074673
21
-99.2039882
0
ARC
8
0
10
274.8239737
20
-99.3289882
40
0.25
50
150
51
240
0
LINE
8
0
10
274.6989737
20
-99.5454945
11
276.0846143
21
-100.3454945
0
ARC
8
0
10
276.2096143
20
-100.1289882
40
0.25
50
240
51
330
0
LINE
8
0
10
276.4261207
20
-100.2539882
11
276.9866862
21
-99.2830602
0
ARC
8
0
10
277.6362052
20
-99.6580602
40
0.75
50
68.8027308
51
150
0
ARC
8
0
10
278.2874827
20
-97.9800145
40
1.05
50
248.7879374
51
330
0
LINE
8
0
10
280.6343094
20
-96.0151915
11
279.1968094
21
-98.5050145
0
ARC
8
0
10
281.370431
20
-96.4401915
40
0.85
50
60
51
150
0
LINE
8
0
10
282.011961
20
-95.8290835
11
281.795431
21
-95.7040699
0
ARC
8
0
10
282.136961
20
-95.6125772
40
0.25
50
240
51
285
0
LINE
8
0
10
283.3627501
20
-95.542947
11
282.2016658
21
-95.8540586
0
ARC
8
0
10
283.2980453
20
-95.3014656
40
0.25
50
285
51
330
0
CIRCLE
8
0
10
275.0399692
20
-82.854873
40
1.05
0
LINE
8
0
10
295.9145789
20
-105.5714656
11
294.3770516
21
-102.9083902
0
ARC
8
0
10
294.1605453
20
-103.0333902
40
0.25
50
30
51
75
0
LINE
8
0
10
293.0641658
20
-102.4807971
11
294.2252501
21
-102.7919087
0
ARC
8
0
10
292.999461
20
-102.7222786
40
0.25
50
75
51
101.0360773
0
ARC
8
0
10
292.8080339
20
-101.7407717
40
0.75
50
210
51
281.036079
0
LINE
8
0
10
292.1585149
20
-102.1157717
11
291.5813766
21
-101.1161389
0
ARC
8
0
10
291.3648702
20
-101.2411389
40
0.25
50
30
51
101.0601614
0
ARC
8
0
10
291.1730307
20
-100.2597125
40
0.75
50
208.3301588
51
281.0601522
0
ARC
8
0
10
290.2928031
20
-100.7342641
40
0.25
50
28.3301588
51
30
0
LINE
8
0
10
290.5093094
20
-100.6092641
11
289.6593094
21
-99.1370209
0
ARC
8
0
10
289.4428031
20
-99.2620209
40
0.25
50
30
51
120
0
LINE
8
0
10
289.3178031
20
-99.0455146
11
285.9836053
21
-100.9705146
0
ARC
8
0
10
286.1086053
20
-101.1870209
40
0.25
50
120
51
209.6434574
0
ARC
8
0
10
285.2394853
20
-101.6816221
40
0.75
50
262.9455248
51
29.6434575
0
ARC
8
0
10
285
20
-103.6168603
40
1.2
50
82.9455262
51
358.7551808
0
ARC
8
0
10
286.9495398
20
-103.659223
40
0.75
50
89.4805793
51
178.7551808
0
ARC
8
0
10
286.9586053
20
-102.6592641
40
0.25
50
269.4805793
51
300
0
LINE
8
0
10
287.0836053
20
-102.8757704
11
288.7507042
21
-101.9132704
0
ARC
8
0
10
289.1257042
20
-102.5627895
40
0.75
50
30
51
120
0
LINE
8
0
10
289.7752232
20
-102.1877895
11
290.3398615
21
-103.1657717
0
ARC
8
0
10
289.6903425
20
-103.5407717
40
0.75
50
318.963921
51
30
0
ARC
8
0
10
290.4446388
20
-104.1973059
40
0.25
50
138.963921
51
165
0
LINE
8
0
10
289.8920457
20
-105.2936854
11
290.2031573
21
-104.1326011
0
ARC
8
0
10
290.1335272
20
-105.3583902
40
0.25
50
165
51
169.2931441
0
ARC
8
0
10
289.1509366
20
-105.172606
40
0.75
50
246.4198904
51
349.2931447
0
ARC
8
0
10
287.75
20
-108.38
40
2.75
50
66.4050912
51
306.1506399
0
ARC
8
0
10
289.8146859
20
-111.2061408
40
0.75
50
30
51
126.1506399
0
LINE
8
0
10
290.5174773
20
-110.9234113
11
290.4642049
21
-110.8311408
0
ARC
8
0
10
289.8679582
20
-111.2984113
40
0.75
50
288.9125106
51
30
0
ARC
8
0
10
290.5
20
-113.1431397
40
1.2
50
108.9125107
51
311.0871451
0
ARC
8
0
10
291.7820348
20
-114.6124548
40
0.75
50
31.8376761
51
131.10597
0
ARC
8
0
10
292.80149
20
-113.9794374
40
0.45
50
211.8376714
51
300
0
LINE
8
0
10
293.02649
20
-114.3691488
11
293.3079483
21
-114.2066488
0
ARC
8
0
10
293.6829483
20
-114.8561678
40
0.75
50
30
51
120
0
LINE
8
0
10
294.3324673
20
-114.4811678
11
294.7324673
21
-115.1739882
0
ARC
8
0
10
294.9489737
20
-115.0489882
40
0.25
50
210
51
300
0
LINE
8
0
10
295.0739737
20
-115.2654945
11
296.4596143
21
-114.4654945
0
ARC
8
0
10
296.3346143
20
-114.2489882
40
0.25
50
300
51
30
0
LINE
8
0
10
296.5511207
20
-114.1239882
11
295.9905552
21
-113.1530602
0
ARC
8
0
10
296.6400742
20
-112.7780602
40
0.75
50
128.8027308
51
210
0
ARC
8
0
10
295.5124827
20
-111.3750145
40
1.05
50
308.7879374
51
30
0
LINE
8
0
10
294.9843094
20
-108.3601915
11
296.4218094
21
-110.8500145
0
ARC
8
0
10
295.720431
20
-107.9351915
40
0.85
50
120
51
210
0
LINE
8
0
10
295.511961
20
-107.0740562
11
295.295431
21
-107.1990699
0
ARC
8
0
10
295.386961
20
-106.8575499
40
0.25
50
300
51
345
0
LINE
8
0
10
295.9395541
20
-105.7611703
11
295.6284425
21
-106.9222546
0
ARC
8
0
10
295.6980726
20
-105.6964656
40
0.25
50
345
51
30
0
CIRCLE
8
0
10
280.7899692
20
-106.624873
40
1.05
0
LINE
8
0
10
300.1500273
20
-118.525
11
297.0749727
21
-118.525
0
ARC
8
0
10
297.0749727
20
-118.775
40
0.25
50
90
51
135
0
LINE
8
0
10
296.0482233
20
-119.448196
11
296.898196
21
-118.5982233
0
ARC
8
0
10
296.225
20
-119.6249727
40
0.25
50
135
51
161.0360773
0
ARC
8
0
10
295.2792766
20
-119.3
40
0.75
50
270
51
341.036079
0
LINE
8
0
10
295.2792766
20
-120.05
11
294.125
21
-120.05
0
ARC
8
0
10
294.125
20
-120.3
40
0.25
50
90
51
161.0601614
0
ARC
8
0
10
293.1791401
20
-119.9754247
40
0.75
50
268.3301588
51
341.0601522
0
ARC
8
0
10
293.15
20
-120.975
40
0.25
50
88.3301588
51
90
0
LINE
8
0
10
293.15
20
-120.725
11
291.45
21
-120.725
0
ARC
8
0
10
291.45
20
-120.975
40
0.25
50
90
51
180
0
LINE
8
0
10
291.2
20
-120.975
11
291.2
21
-124.825
0
ARC
8
0
10
291.45
20
-124.825
40
0.25
50
180
51
269.6434574
0
ARC
8
0
10
291.4437772
20
-125.8249806
40
0.75
50
322.9455248
51
89.6434575
0
ARC
8
0
10
293
20
-127
40
1.2
50
142.9455262
51
58.7551808
0
ARC
8
0
10
294.0114571
20
-125.3328304
40
0.75
50
149.4805793
51
238.7551808
0
ARC
8
0
10
293.15
20
-124.825
40
0.25
50
329.4805793
51
0
0
LINE
8
0
10
293.4
20
-124.825
11
293.4
21
-122.9
0
ARC
8
0
10
294.15
20
-122.9
40
0.75
50
90
51
180
0
LINE
8
0
10
294.15
20
-122.15
11
295.2792766
21
-122.15
0
ARC
8
0
10
295.2792766
20
-122.9
40
0.75
50
18.963921
51
90
0
ARC
8
0
10
296.225
20
-122.5750273
40
0.25
50
198.963921
51
225
0
LINE
8
0
10
296.898196
20
-123.6017767
11
296.0482233
21
-122.751804
0
ARC
8
0
10
297.0749727
20
-123.425
40
0.25
50
225
51
229.2931441
0
ARC
8
0
10
296.4227836
20
-124.1830563
40
0.75
50
306.4198904
51
49.2931447
0
ARC
8
0
10
298.5
20
-127
40
2.75
50
126.4050912
51
6.1506399
0
ARC
8
0
10
301.9798527
20
-126.625
40
0.75
50
90
51
186.1506399
0
LINE
8
0
10
302.0863974
20
-125.875
11
301.9798527
21
-125.875
0
ARC
8
0
10
302.0863974
20
-126.625
40
0.75
50
348.9125106
51
90
0
ARC
8
0
10
304
20
-127
40
1.2
50
168.9125107
51
11.0871451
0
ARC
8
0
10
305.9134816
20
-126.6243828
40
0.75
50
91.8376761
51
191.10597
0
ARC
8
0
10
305.875
20
-125.425
40
0.45
50
271.8376714
51
0
0
LINE
8
0
10
306.325
20
-125.425
11
306.325
21
-125.1
0
ARC
8
0
10
307.075
20
-125.1
40
0.75
50
90
51
180
0
LINE
8
0
10
307.075
20
-124.35
11
307.875
21
-124.35
0
ARC
8
0
10
307.875
20
-124.1
40
0.25
50
270
51
0
0
LINE
8
0
10
308.125
20
-124.1
11
308.125
21
-122.5
0
ARC
8
0
10
307.875
20
-122.5
40
0.25
50
0
51
90
0
LINE
8
0
10
307.875
20
-122.25
11
306.753869
21
-122.25
0
ARC
8
0
10
306.753869
20
-121.5
40
0.75
50
188.8027308
51
270
0
ARC
8
0
10
304.975
20
-121.775
40
1.05
50
8.7879374
51
90
0
LINE
8
0
10
302.1
20
-120.725
11
304.975
21
-120.725
0
ARC
8
0
10
302.1
20
-119.875
40
0.85
50
180
51
270
0
LINE
8
0
10
301.25
20
-119.6249727
11
301.25
21
-119.875
0
ARC
8
0
10
301
20
-119.6249727
40
0.25
50
0
51
45
0
LINE
8
0
10
300.326804
20
-118.5982233
11
301.1767767
21
-119.448196
0
ARC
8
0
10
300.1500273
20
-118.775
40
0.25
50
45
51
90
0
CIRCLE
8
0
10
293.5
20
-132.15
40
1.05
0
LINE
8
0
10
301.0854211
20
-151.8926344
11
302.6229484
21
-154.5557098
0
ARC
8
0
10
302.8394547
20
-154.4307098
40
0.25
50
210
51
255
0
LINE
8
0
10
303.9358342
20
-154.9833029
11
302.7747499
21
-154.6721913
0
ARC
8
0
10
304.000539
20
-154.7418214
40
0.25
50
255
51
281.0360773
0
ARC
8
0
10
304.1919661
20
-155.7233283
40
0.75
50
30
51
101.036079
0
LINE
8
0
10
304.8414851
20
-155.3483283
11
305.4186234
21
-156.3479611
0
ARC
8
0
10
305.6351298
20
-156.2229611
40
0.25
50
210
51
281.0601614
0
ARC
8
0
10
305.8269693
20
-157.2043875
40
0.75
50
28.3301588
51
101.0601522
0
ARC
8
0
10
306.7071969
20
-156.7298359
40
0.25
50
208.3301588
51
210
0
LINE
8
0
10
306.4906906
20
-156.8548359
11
307.3406906
21
-158.3270791
0
ARC
8
0
10
307.5571969
20
-158.2020791
40
0.25
50
210
51
300
0
LINE
8
0
10
307.6821969
20
-158.4185854
11
311.0163947
21
-156.4935854
0
ARC
8
0
10
310.8913947
20
-156.2770791
40
0.25
50
300
51
29.6434574
0
ARC
8
0
10
311.7605147
20
-155.7824779
40
0.75
50
82.9455248
51
209.6434575
0
ARC
8
0
10
312
20
-153.8472397
40
1.2
50
262.9455262
51
178.7551808
0
ARC
8
0
10
310.0504602
20
-153.804877
40
0.75
50
269.4805793
51
358.7551808
0
ARC
8
0
10
310.0413947
20
-154.8048359
40
0.25
50
89.4805793
51
120
0
LINE
8
0
10
309.9163947
20
-154.5883296
11
308.2492958
21
-155.5508296
0
ARC
8
0
10
307.8742958
20
-154.9013105
40
0.75
50
210
51
300
0
LINE
8
0
10
307.2247768
20
-155.2763105
11
306.6601385
21
-154.2983283
0
ARC
8
0
10
307.3096575
20
-153.9233283
40
0.75
50
138.963921
51
210
0
ARC
8
0
10
306.5553612
20
-153.2667941
40
0.25
50
318.963921
51
345
0
LINE
8
0
10
307.1079543
20
-152.1704146
11
306.7968427
21
-153.3314989
0
ARC
8
0
10
306.8664728
20
-152.1057098
40
0.25
50
345
51
349.2931441
0
ARC
8
0
10
307.8490634
20
-152.291494
40
0.75
50
66.4198904
51
169.2931447
0
ARC
8
0
10
309.25
20
-149.0841
40
2.75
50
246.4050912
51
126.1506399
0
ARC
8
0
10
307.1853141
20
-146.2579592
40
0.75
50
210
51
306.1506399
0
LINE
8
0
10
306.4825227
20
-146.5406887
11
306.5357951
21
-146.6329592
0
ARC
8
0
10
307.1320418
20
-146.1656887
40
0.75
50
108.9125106
51
210
0
ARC
8
0
10
306.5
20
-144.3209603
40
1.2
50
288.9125107
51
131.0871451
0
ARC
8
0
10
305.2179652
20
-142.8516452
40
0.75
50
211.8376761
51
311.10597
0
ARC
8
0
10
304.19851
20
-143.4846626
40
0.45
50
31.8376714
51
120
0
LINE
8
0
10
303.97351
20
-143.0949512
11
303.6920517
21
-143.2574512
0
ARC
8
0
10
303.3170517
20
-142.6079322
40
0.75
50
210
51
300
0
LINE
8
0
10
302.6675327
20
-142.9829322
11
302.2675327
21
-142.2901118
0
ARC
8
0
10
302.0510263
20
-142.4151118
40
0.25
50
30
51
120
0
LINE
8
0
10
301.9260263
20
-142.1986055
11
300.5403857
21
-142.9986055
0
ARC
8
0
10
300.6653857
20
-143.2151118
40
0.25
50
120
51
210
0
LINE
8
0
10
300.4488793
20
-143.3401118
11
301.0094448
21
-144.3110398
0
ARC
8
0
10
300.3599258
20
-144.6860398
40
0.75
50
308.8027308
51
30
0
ARC
8
0
10
301.4875173
20
-146.0890855
40
1.05
50
128.7879374
51
210
0
LINE
8
0
10
302.0156906
20
-149.1039085
11
300.5781906
21
-146.6140855
0
ARC
8
0
10
301.279569
20
-149.5289085
40
0.85
50
300
51
30
0
LINE
8
0
10
301.488039
20
-150.3900438
11
301.704569
21
-150.2650301
0
ARC
8
0
10
301.613039
20
-150.6065501
40
0.25
50
120
51
165
0
LINE
8
0
10
301.0604459
20
-151.7029297
11
301.3715575
21
-150.5418454
0
ARC
8
0
10
301.3019274
20
-151.7676344
40
0.25
50
165
51
210
0
CIRCLE
8
0
10
316.2100308
20
-150.839227
40
1.05
0
LINE
8
0
10
274.4145789
20
-105.5714656
11
272.8770516
21
-102.9083902
0
ARC
8
0
10
272.6605453
20
-103.0333902
40
0.25
50
30
51
75
0
LINE
8
0
10
271.5641658
20
-102.4807971
11
272.7252501
21
-102.7919087
0
ARC
8
0
10
271.499461
20
-102.7222786
40
0.25
50
75
51
101.0360773
0
ARC
8
0
10
271.3080339
20
-101.7407717
40
0.75
50
210
51
281.036079
0
LINE
8
0
10
270.6585149
20
-102.1157717
11
270.0813766
21
-101.1161389
0
ARC
8
0
10
269.8648702
20
-101.2411389
40
0.25
50
30
51
101.0601614
0
ARC
8
0
10
269.6730307
20
-100.2597125
40
0.75
50
208.3301588
51
281.0601522
0
ARC
8
0
10
268.7928031
20
-100.7342641
40
0.25
50
28.3301588
51
30
0
LINE
8
0
10
269.0093094
20
-100.6092641
11
268.1593094
21
-99.1370209
0
ARC
8
0
10
267.9428031
20
-99.2620209
40
0.25
50
30
51
120
0
LINE
8
0
10
267.8178031
20
-99.0455146
11
264.4836053
21
-100.9705146
0
ARC
8
0
10
264.6086053
20
-101.1870209
40
0.25
50
120
51
209.6434574
0
ARC
8
0
10
263.7394853
20
-101.6816221
40
0.75
50
262.9455248
51
29.6434575
0
ARC
8
0
10
263.5
20
-103.6168603
40
1.2
50
82.9455262
51
358.7551808
0
ARC
8
0
10
265.4495398
20
-103.659223
40
0.75
50
89.4805793
51
178.7551808
0
ARC
8
0
10
265.4586053
20
-102.6592641
40
0.25
50
269.4805793
51
300
0
LINE
8
0
10
265.5836053
20
-102.8757704
11
267.2507042
21
-101.9132704
0
ARC
8
0
10
267.6257042
20
-102.5627895
40
0.75
50
30
51
120
0
LINE
8
0
10
268.2752232
20
-102.1877895
11
268.8398615
21
-103.1657717
0
ARC
8
0
10
268.1903425
20
-103.5407717
40
0.75
50
318.963921
51
30
0
ARC
8
0
10
268.9446388
20
-104.1973059
40
0.25
50
138.963921
51
165
0
LINE
8
0
10
268.3920457
20
-105.2936854
11
268.7031573
21
-104.1326011
0
ARC
8
0
10
268.6335272
20
-105.3583902
40
0.25
50
165
51
169.2931441
0
ARC
8
0
10
267.6509366
20
-105.172606
40
0.75
50
246.4198904
51
349.2931447
0
ARC
8
0
10
266.25
20
-108.38
40
2.75
50
66.4050912
51
306.1506399
0
ARC
8
0
10
268.3146859
20
-111.2061408
40
0.75
50
30
51
126.1506399
0
LINE
8
0
10
269.0174773
20
-110.9234113
11
268.9642049
21
-110.8311408
0
ARC
8
0
10
268.3679582
20
-111.2984113
40
0.75
50
288.9125106
51
30
0
ARC
8
0
10
269
20
-113.1431397
40
1.2
50
108.9125107
51
311.0871451
0
ARC
8
0
10
270.2820348
20
-114.6124548
40
0.75
50
31.8376761
51
131.10597
0
ARC
8
0
10
271.30149
20
-113.9794374
40
0.45
50
211.8376714
51
300
0
LINE
8
0
10
271.52649
20
-114.3691488
11
271.8079483
21
-114.2066488
0
ARC
8
0
10
272.1829483
20
-114.8561678
40
0.75
50
30
51
120
0
LINE
8
0
10
272.8324673
20
-114.4811678
11
273.2324673
21
-115.1739882
0
ARC
8
0
10
273.4489737
20
-115.0489882
40
0.25
50
210
51
300
0
LINE
8
0
10
273.5739737
20
-115.2654945
11
274.9596143
21
-114.4654945
0
ARC
8
0
10
274.8346143
20
-114.2489882
40
0.25
50
300
51
30
0
LINE
8
0
10
275.0511207
20
-114.1239882
11
274.4905552
21
-113.1530602
0
ARC
8
0
10
275.1400742
20
-112.7780602
40
0.75
50
128.8027308
51
210
0
ARC
8
0
10
274.0124827
20
-111.3750145
40
1.05
50
308.7879374
51
30
0
LINE
8
0
10
273.4843094
20
-108.3601915
11
274.9218094
21
-110.8500145
0
ARC
8
0
10
274.220431
20
-107.9351915
40
0.85
50
120
51
210
0
LINE
8
0
10
274.011961
20
-107.0740562
11
273.795431
21
-107.1990699
0
ARC
8
0
10
273.886961
20
-106.8575499
40
0.25
50
300
51
345
0
LINE
8
0
10
274.4395541
20
-105.7611703
11
274.1284425
21
-106.9222546
0
ARC
8
0
10
274.1980726
20
-105.6964656
40
0.25
50
345
51
30
0
CIRCLE
8
0
10
259.2899692
20
-106.624873
40
1.05
0
LINE
8
0
10
285.1645789
20
-124.1914656
11
283.6270516
21
-121.5283902
0
ARC
8
0
10
283.4105453
20
-121.6533902
40
0.25
50
30
51
75
0
LINE
8
0
10
282.3141658
20
-121.1007971
11
283.4752501
21
-121.4119087
0
ARC
8
0
10
282.249461
20
-121.3422786
40
0.25
50
75
51
101.0360773
0
ARC
8
0
10
282.0580339
20
-120.3607717
40
0.75
50
210
51
281.036079
0
LINE
8
0
10
281.4085149
20
-120.7357717
11
280.8313766
21
-119.7361389
0
ARC
8
0
10
280.6148702
20
-119.8611389
40
0.25
50
30
51
101.0601614
0
ARC
8
0
10
280.4230307
20
-118.8797125
40
0.75
50
208.3301588
51
281.0601522
0
ARC
8
0
10
279.5428031
20
-119.3542641
40
0.25
50
28.3301588
51
30
0
LINE
8
0
10
279.7593094
20
-119.2292641
11
278.9093094
21
-117.7570209
0
ARC
8
0
10
278.6928031
20
-117.8820209
40
0.25
50
30
51
120
0
LINE
8
0
10
278.5678031
20
-117.6655146
11
275.2336053
21
-119.5905146
0
ARC
8
0
10
275.3586053
20
-119.8070209
40
0.25
50
120
51
209.6434574
0
ARC
8
0
10
274.4894853
20
-120.3016221
40
0.75
50
262.9455248
51
29.6434575
0
ARC
8
0
10
274.25
20
-122.2368603
40
1.2
50
82.9455262
51
358.7551808
0
ARC
8
0
10
276.1995398
20
-122.279223
40
0.75
50
89.4805793
51
178.7551808
0
ARC
8
0
10
276.2086053
20
-121.2792641
40
0.25
50
269.4805793
51
300
0
LINE
8
0
10
276.3336053
20
-121.4957704
11
278.0007042
21
-120.5332704
0
ARC
8
0
10
278.3757042
20
-121.1827895
40
0.75
50
30
51
120
0
LINE
8
0
10
279.0252232
20
-120.8077895
11
279.5898615
21
-121.7857717
0
ARC
8
0
10
278.9403425
20
-122.1607717
40
0.75
50
318.963921
51
30
0
ARC
8
0
10
279.6946388
20
-122.8173059
40
0.25
50
138.963921
51
165
0
LINE
8
0
10
279.1420457
20
-123.9136854
11
279.4531573
21
-122.7526011
0
ARC
8
0
10
279.3835272
20
-123.9783902
40
0.25
50
165
51
169.2931441
0
ARC
8
0
10
278.4009366
20
-123.792606
40
0.75
50
246.4198904
51
349.2931447
0
ARC
8
0
10
277
20
-127
40
2.75
50
66.4050912
51
306.1506399
0
ARC
8
0
10
279.0646859
20
-129.8261408
40
0.75
50
30
51
126.1506399
0
LINE
8
0
10
279.7674773
20
-129.5434113
11
279.7142049
21
-129.4511408
0
ARC
8
0
10
279.1179582
20
-129.9184113
40
0.75
50
288.9125106
51
30
0
ARC
8
0
10
279.75
20
-131.7631397
40
1.2
50
108.9125107
51
311.0871451
0
ARC
8
0
10
281.0320348
20
-133.2324548
40
0.75
50
31.8376761
51
131.10597
0
ARC
8
0
10
282.05149
20
-132.5994374
40
0.45
50
211.8376714
51
300
0
LINE
8
0
10
282.27649
20
-132.9891488
11
282.5579483
21
-132.8266488
0
ARC
8
0
10
282.9329483
20
-133.4761678
40
0.75
50
30
51
120
0
LINE
8
0
10
283.5824673
20
-133.1011678
11
283.9824673
21
-133.7939882
0
ARC
8
0
10
284.1989737
20
-133.6689882
40
0.25
50
210
51
300
0
LINE
8
0
10
284.3239737
20
-133.8854945
11
285.7096143
21
-133.0854945
0
ARC
8
0
10
285.5846143
20
-132.8689882
40
0.25
50
300
51
30
0
LINE
8
0
10
285.8011207
20
-132.7439882
11
285.2405552
21
-131.7730602
0
ARC
8
0
10
285.8900742
20
-131.3980602
40
0.75
50
128.8027308
51
210
0
ARC
8
0
10
284.7624827
20
-129.9950145
40
1.05
50
308.7879374
51
30
0
LINE
8
0
10
284.2343094
20
-126.9801915
11
285.6718094
21
-129.4700145
0
ARC
8
0
10
284.970431
20
-126.5551915
40
0.85
50
120
51
210
0
LINE
8
0
10
284.761961
20
-125.6940562
11
284.545431
21
-125.8190699
0
ARC
8
0
10
284.636961
20
-125.4775499
40
0.25
50
300
51
345
0
LINE
8
0
10
285.1895541
20
-124.3811703
11
284.8784425
21
-125.5422546
0
ARC
8
0
10
284.9480726
20
-124.3164656
40
0.25
50
345
51
30
0
CIRCLE
8
0
10
270.0399692
20
-125.244873
40
1.05
0
LINE
8
0
10
286.0999727
20
-157.5591
11
289.1750273
21
-157.5591
0
ARC
8
0
10
289.1750273
20
-157.3091
40
0.25
50
270
51
315
0
LINE
8
0
10
290.2017767
20
-156.635904
11
289.351804
21
-157.4858767
0
ARC
8
0
10
290.025
20
-156.4591273
40
0.25
50
315
51
341.0360773
0
ARC
8
0
10
290.9707234
20
-156.7841
40
0.75
50
90
51
161.036079
0
LINE
8
0
10
290.9707234
20
-156.0341
11
292.125
21
-156.0341
0
ARC
8
0
10
292.125
20
-155.7841
40
0.25
50
270
51
341.0601614
0
ARC
8
0
10
293.0708599
20
-156.1086753
40
0.75
50
88.3301588
51
161.0601522
0
ARC
8
0
10
293.1
20
-155.1091
40
0.25
50
268.3301588
51
270
0
LINE
8
0
10
293.1
20
-155.3591
11
294.8
21
-155.3591
0
ARC
8
0
10
294.8
20
-155.1091
40
0.25
50
270
51
360
0
LINE
8
0
10
295.05
20
-155.1091
11
295.05
21
-151.2591
0
ARC
8
0
10
294.8
20
-151.2591
40
0.25
50
0
51
89.6434574
0
ARC
8
0
10
294.8062228
20
-150.2591194
40
0.75
50
142.9455248
51
269.6434575
0
ARC
8
0
10
293.25
20
-149.0841
40
1.2
50
322.9455262
51
598.7551808
0
ARC
8
0
10
292.2385429
20
-150.7512696
40
0.75
50
329.4805793
51
418.7551808
0
ARC
8
0
10
293.1
20
-151.2591
40
0.25
50
509.4805793
51
540
0
LINE
8
0
10
292.85
20
-151.2591
11
292.85
21
-153.1841
0
ARC
8
0
10
292.1
20
-153.1841
40
0.75
50
270
51
360
0
LINE
8
0
10
292.1
20
-153.9341
11
290.9707234
21
-153.9341
0
ARC
8
0
10
290.9707234
20
-153.1841
40
0.75
50
198.963921
51
270
0
ARC
8
0
10
290.025
20
-153.5090727
40
0.25
50
378.963921
51
405
0
LINE
8
0
10
289.351804
20
-152.4823233
11
290.2017767
21
-153.332296
0
ARC
8
0
10
289.1750273
20
-152.6591
40
0.25
50
45
51
49.2931441
0
ARC
8
0
10
289.8272164
20
-151.9010437
40
0.75
50
126.4198904
51
229.2931447
0
ARC
8
0
10
287.75
20
-149.0841
40
2.75
50
306.4050912
51
546.1506399
0
ARC
8
0
10
284.2701473
20
-149.4591
40
0.75
50
270
51
366.1506399
0
LINE
8
0
10
284.1636026
20
-150.2091
11
284.2701473
21
-150.2091
0
ARC
8
0
10
284.1636026
20
-149.4591
40
0.75
50
168.9125106
51
270
0
ARC
8
0
10
282.25
20
-149.0841
40
1.2
50
348.9125107
51
551.0871451
0
ARC
8
0
10
280.3365184
20
-149.4597172
40
0.75
50
271.8376761
51
371.10597
0
ARC
8
0
10
280.375
20
-150.6591
40
0.45
50
91.8376714
51
180
0
LINE
8
0
10
279.925
20
-150.6591
11
279.925
21
-150.9841
0
ARC
8
0
10
279.175
20
-150.9841
40
0.75
50
270
51
360
0
LINE
8
0
10
279.175
20
-151.7341
11
278.375
21
-151.7341
0
ARC
8
0
10
278.375
20
-151.9841
40
0.25
50
90
51
180
0
LINE
8
0
10
278.125
20
-151.9841
11
278.125
21
-153.5841
0
ARC
8
0
10
278.375
20
-153.5841
40
0.25
50
180
51
270
0
LINE
8
0
10
278.375
20
-153.8341
11
279.496131
21
-153.8341
0
ARC
8
0
10
279.496131
20
-154.5841
40
0.75
50
8.8027308
51
90
0
ARC
8
0
10
281.275
20
-154.3091
40
1.05
50
188.7879374
51
270
0
LINE
8
0
10
284.15
20
-155.3591
11
281.275
21
-155.3591
0
ARC
8
0
10
284.15
20
-156.2091
40
0.85
50
0
51
90
0
LINE
8
0
10
285
20
-156.4591273
11
285
21
-156.2091
0
ARC
8
0
10
285.25
20
-156.4591273
40
0.25
50
180
51
225
0
LINE
8
0
10
285.923196
20
-157.4858767
11
285.0732233
21
-156.635904
0
ARC
8
0
10
286.0999727
20
-157.3091
40
0.25
50
225
51
270
0
CIRCLE
8
0
10
292.75
20
-143.9341
40
1.05
0
ENDSEC
0
EOF