0
SECTION
2
HEADER
9
$INSUNITS
70
4
0
ENDSEC
0
SECTION
2
TABLES
0
TABLE
2
LTYPE
0
LTYPE
72
65
70
64
2
CONTINUOUS
3
______
73
0
40
0
0
ENDTAB
0
TABLE
2
LAYER
0
ENDTAB
0
ENDSEC
0
SECTION
2
ENTITIES
0
LINE
8
0
10
230.73
20
-153.4028525
11
230.73
21
-140.9894785
0
LINE
8
0
10
229.2300274
20
-156.0009129
11
221.6150304
21
-160.3975406
0
LINE
8
0
10
197.1149702
20
-160.5534255
11
189.4999726
21
-156.1567975
0
LINE
8
0
10
188
20
-153.5587371
11
188
21
-144.6094637
0
LINE
8
0
10
189.4999733
20
-142.0114029
11
197.5200267
21
-137.3809129
0
LINE
8
0
10
199.02
20
-134.7828521
11
199.02
21
-122.6812477
0
LINE
8
0
10
200.5199726
20
-120.0831873
11
208.2700274
21
-115.608582
0
LINE
8
0
10
209.77
20
-113.0105216
11
209.77
21
-104.0612477
0
LINE
8
0
10
211.2699726
20
-101.4631873
11
219.0200274
21
-96.988582
0
LINE
8
0
10
220.52
20
-94.3905216
11
220.52
21
-85.4412477
0
LINE
8
0
10
222.0199726
20
-82.8431873
11
229.7700274
21
-78.368582
0
LINE
8
0
10
278.2299726
20
-78.368582
11
285.9800274
21
-82.8431873
0
LINE
8
0
10
287.48
20
-85.4412477
11
287.48
21
-94.3905216
0
LINE
8
0
10
288.9799726
20
-96.988582
11
296.7300274
21
-101.4631873
0
LINE
8
0
10
298.23
20
-104.0612477
11
298.23
21
-113.0105216
0
LINE
8
0
10
299.7299726
20
-115.608582
11
307.4800274
21
-120.0831873
0
LINE
8
0
10
308.98
20
-122.6812477
11
308.98
21
-134.7828521
0
LINE
8
0
10
310.4799733
20
-137.3809129
11
318.5000267
21
-142.0114029
0
LINE
8
0
10
320
20
-144.6094637
11
320
21
-153.5587371
0
LINE
8
0
10
318.5000274
20
-156.1567975
11
310.8850298
21
-160.5534255
0
LINE
8
0
10
286.3849696
20
-160.3975406
11
278.7699726
21
-156.0009129
0
LINE
8
0
10
277.27
20
-153.4028525
11
277.27
21
-140.9894785
0
ARC
8
0
10
227.73
20
-153.4028525
40
3
50
300.0006035
51
0
0
ARC
8
0
10
191
20
-153.5587371
40
3
50
180
51
239.9993965
0
ARC
8
0
10
191
20
-144.6094637
40
3
50
120.0005878
51
180
0
ARC
8
0
10
196.02
20
-134.7828521
40
3
50
300.0005878
51
0
0
ARC
8
0
10
202.02
20
-122.6812477
40
3
50
120.0006035
51
180
0
ARC
8
0
10
206.77
20
-113.0105216
40
3
50
300.0006035
51
0
0
ARC
8
0
10
212.77
20
-104.0612477
40
3
50
120.0006035
51
180
0
ARC
8
0
10
217.52
20
-94.3905216
40
3
50
300.0006035
51
0
0
ARC
8
0
10
223.52
20
-85.4412477
40
3
50
120.0006035
51
180
0
ARC
8
0
10
228.27
20
-75.7705216
40
3
50
300.0006035
51
325.2231556
0
ARC
8
0
10
279.73
20
-75.7705216
40
3
50
214.7768444
51
239.9993965
0
ARC
8
0
10
284.48
20
-85.4412477
40
3
50
0
51
59.9993965
0
ARC
8
0
10
290.48
20
-94.3905216
40
3
50
180
51
239.9993965
0
ARC
8
0
10
295.23
20
-104.0612477
40
3
50
0
51
59.9993965
0
ARC
8
0
10
301.23
20
-113.0105216
40
3
50
180
51
239.9993965
0
ARC
8
0
10
305.98
20
-122.6812477
40
3
50
0
51
59.9993965
0
ARC
8
0
10
311.98
20
-134.7828521
40
3
50
180
51
239.9994122
0
ARC
8
0
10
317
20
-144.6094637
40
3
50
0
51
59.9994122
0
ARC
8
0
10
317
20
-153.5587371
40
3
50
300.0006035
51
0
0
ARC
8
0
10
280.27
20
-153.4028525
40
3
50
180
51
239.9993965
0
LINE
8
0
10
232.2299726
20
-138.3914181
11
239.9800274
21
-133.9168128
0
LINE
8
0
10
241.48
20
-131.3187524
11
241.48
21
-123.6374488
0
LINE
8
0
10
244.48
20
-120.6374488
11
248.25
21
-120.6374488
0
LINE
8
0
10
259.75
20
-120.6374488
11
263.52
21
-120.6374488
0
LINE
8
0
10
266.52
20
-123.6374488
11
266.52
21
-131.3187524
0
LINE
8
0
10
268.0199726
20
-133.9168128
11
275.7700274
21
-138.3914181
0
ARC
8
0
10
274.27
20
-140.9894785
40
3
50
0
51
59.9993965
0
ARC
8
0
10
269.52
20
-131.3187524
40
3
50
180
51
239.9993965
0
ARC
8
0
10
263.52
20
-123.6374488
40
3
50
0
51
90
0
ARC
8
0
10
244.48
20
-123.6374488
40
3
50
90
51
180
0
ARC
8
0
10
238.48
20
-131.3187524
40
3
50
300.0006035
51
0
0
ARC
8
0
10
233.73
20
-140.9894785
40
3
50
120.0006035
51
180
0
LINE
8
0
10
230.7341394
20
-77.4816666
11
244.57
21
-77.4816666
0
LINE
8
0
10
263.43
20
-77.4816666
11
277.2658606
21
-77.4816666
0
LINE
8
0
10
200.3850298
20
-160.5534255
11
207.8649696
21
-156.234775
0
LINE
8
0
10
211.1350302
20
-156.2347754
11
218.3449698
21
-160.3975402
0
LINE
8
0
10
289.6550302
20
-160.3975402
11
296.8649698
21
-156.2347754
0
LINE
8
0
10
300.1350304
20
-156.234775
11
307.6149702
21
-160.5534255
0
ARC
8
0
10
219.9800006
20
-157.5656548
40
3.27
50
239.9993788
51
300.0006035
0
ARC
8
0
10
209.4999994
20
-159.0666608
40
3.27
50
59.9993788
51
120.0006035
0
ARC
8
0
10
198.75
20
-157.7215396
40
3.27
50
239.9993965
51
300.0006035
0
ARC
8
0
10
309.25
20
-157.7215396
40
3.27
50
239.9993965
51
300.0006035
0
ARC
8
0
10
298.5000006
20
-159.0666608
40
3.27
50
59.9993965
51
120.0006212
0
ARC
8
0
10
288.0199994
20
-157.5656548
40
3.27
50
239.9993965
51
300.0006212
0
LINE
8
0
10
245.11
20
-94.4933333
11
248
21
-94.4933333
0
LINE
8
0
10
260
20
-94.4933333
11
262.89
21
-94.4933333
0
LINE
8
0
10
263.43
20
-93.9533333
11
263.43
21
-77.4816666
0
LINE
8
0
10
244.57
20
-77.4816666
11
244.57
21
-93.9533333
0
ARC
8
0
10
262.89
20
-93.9533333
40
0.54
50
270
51
0
0
ARC
8
0
10
245.11
20
-93.9533333
40
0.54
50
180
51
270
0
LINE
8
0
10
248.54
20
-97.4533333
11
259.46
21
-97.4533333
0
LINE
8
0
10
260
20
-96.9133333
11
260
21
-94.4933333
0
LINE
8
0
10
248
20
-94.4933333
11
248
21
-96.9133333
0
ARC
8
0
10
259.46
20
-96.9133333
40
0.54
50
270
51
0
0
ARC
8
0
10
248.54
20
-96.9133333
40
0.54
50
180
51
270
0
LINE
8
0
10
235.3898773
20
-89.8234906
11
236.0149158
21
-90.9060889
0
ARC
8
0
10
236.1992758
20
-91.8889477
40
1
50
11.9863177
51
100.6238244
0
ARC
8
0
10
237.9600308
20
-91.515127
40
0.8
50
191.9863205
51
55.4077548
0
ARC
8
0
10
238.981949
20
-90.0333432
40
1
50
163.3063515
51
235.4077559
0
LINE
8
0
10
238.0240947
20
-89.7460889
11
237.3990563
21
-88.6634906
0
ARC
8
0
10
238.2650817
20
-88.1634906
40
1
50
169.4641967
51
210
0
LINE
8
0
10
237.2819408
20
-87.9806406
11
235.6819408
21
-85.2093594
0
ARC
8
0
10
236.0151586
20
-84.2665094
40
1
50
210
51
250.5358033
0
LINE
8
0
10
235.1491332
20
-84.7665094
11
234.5240947
21
-83.6839111
0
LINE
8
0
10
234.5240947
20
-83.6839111
11
232.5149158
21
-84.8439111
0
LINE
8
0
10
232.5149158
20
-84.8439111
11
233.1399542
21
-85.9265094
0
ARC
8
0
10
232.2739288
20
-86.4265094
40
1
50
349.4641967
51
30
0
ARC
8
0
10
232.2635128
20
-86.4960246
40
1
50
248.8381531
51
353.4924146
0
ARC
8
0
10
231
20
-89.76
40
2.5
50
68.8381528
51
126.1506399
0
ARC
8
0
10
228.9353141
20
-86.9338592
40
1
50
210
51
306.1506399
0
LINE
8
0
10
228.0160164
20
-87.3415887
11
228.0692887
21
-87.4338592
0
ARC
8
0
10
228.8820418
20
-86.8415887
40
1
50
108.9125106
51
210
0
ARC
8
0
10
228.25
20
-84.9968603
40
0.95
50
288.9125107
51
131.0871451
0
ARC
8
0
10
226.9679652
20
-83.5275452
40
1
50
211.8376761
51
311.10597
0
ARC
8
0
10
225.94851
20
-84.1605626
40
0.2
50
31.8376714
51
120
0
LINE
8
0
10
225.84851
20
-83.9873576
11
225.5670517
21
-84.1498576
0
ARC
8
0
10
225.0670517
20
-83.2838322
40
1
50
210
51
300
0
LINE
8
0
10
224.2010263
20
-83.7838322
11
223.8010263
21
-83.0910118
0
LINE
8
0
10
223.8010263
20
-83.0910118
11
222.4153857
21
-83.8910118
0
LINE
8
0
10
222.4153857
20
-83.8910118
11
222.9759512
21
-84.8619398
0
ARC
8
0
10
222.1099258
20
-85.3619398
40
1
50
308.7879392
51
30
0
ARC
8
0
10
223.2375173
20
-86.7649855
40
0.8
50
128.7879374
51
210
0
LINE
8
0
10
223.9821969
20
-89.6548085
11
222.5446969
21
-87.1649855
0
ARC
8
0
10
223.029569
20
-90.2048085
40
1.1
50
300
51
30
0
LINE
8
0
10
223.363039
20
-91.2824501
11
223.579569
21
-91.1574365
0
LINE
8
0
10
223.0519274
20
-92.4435344
11
223.363039
21
-91.2824501
0
LINE
8
0
10
223.0519274
20
-92.4435344
11
224.5894547
21
-95.1066098
0
LINE
8
0
10
225.750539
20
-95.4177214
11
224.5894547
21
-95.1066098
0
ARC
8
0
10
225.9419661
20
-96.3992283
40
1
50
30
51
101.036079
0
LINE
8
0
10
226.8079915
20
-95.8992283
11
227.3851298
21
-96.8988611
0
ARC
8
0
10
227.5769693
20
-97.8802875
40
1
50
28.3301588
51
101.0601522
0
LINE
8
0
10
228.4571969
20
-97.4057359
11
229.3071969
21
-98.8779791
0
LINE
8
0
10
229.3071969
20
-98.8779791
11
232.6413947
21
-96.9529791
0
ARC
8
0
10
233.5105147
20
-96.4583779
40
1
50
82.9455248
51
209.6434575
0
ARC
8
0
10
233.75
20
-94.5231397
40
0.95
50
262.9455262
51
178.7551808
0
ARC
8
0
10
231.8004602
20
-94.480777
40
1
50
269.4805793
51
358.7551808
0
LINE
8
0
10
231.7913947
20
-95.4807359
11
230.1242958
21
-96.4432359
0
ARC
8
0
10
229.6242958
20
-95.5772105
40
1
50
210
51
300
0
LINE
8
0
10
228.7582704
20
-96.0772105
11
228.1936321
21
-95.0992283
0
ARC
8
0
10
229.0596575
20
-94.5992283
40
1
50
138.963921
51
210
0
LINE
8
0
10
228.6164728
20
-92.7816098
11
228.3053612
21
-93.9426941
0
ARC
8
0
10
229.5990634
20
-92.967394
40
1
50
66.4050931
51
169.2931447
0
ARC
8
0
10
231
20
-89.76
40
2.5
50
246.4050912
51
351.1618472
0
ARC
8
0
10
234.458442
20
-90.2977535
40
1
50
66.5075854
51
171.1618469
0
ARC
8
0
10
234.5238519
20
-90.3234906
40
1
50
30
51
70.5358033
0
LINE
8
0
10
222.3899542
20
-112.2134906
11
221.7649158
21
-113.2960889
0
ARC
8
0
10
221.0059151
20
-113.9471788
40
1
50
311.9863177
51
40.6238244
0
ARC
8
0
10
222.2100308
20
-115.285127
40
0.8
50
131.9863205
51
355.4077548
0
ARC
8
0
10
224.0042523
20
-115.4292422
40
1
50
103.3063515
51
175.4077559
0
LINE
8
0
10
223.7740947
20
-114.4560889
11
224.3991332
21
-113.3734906
0
ARC
8
0
10
225.2651586
20
-113.8734906
40
1
50
109.4641967
51
150
0
LINE
8
0
10
224.9319408
20
-112.9306406
11
226.5319408
21
-110.1593594
0
ARC
8
0
10
227.5150817
20
-109.9765094
40
1
50
150
51
190.5358033
0
LINE
8
0
10
226.6490563
20
-109.4765094
11
227.2740947
21
-108.3939111
0
LINE
8
0
10
227.2740947
20
-108.3939111
11
225.2649158
21
-107.2339111
0
LINE
8
0
10
225.2649158
20
-107.2339111
11
224.6398773
21
-108.3165094
0
ARC
8
0
10
223.7738519
20
-107.8165094
40
1
50
289.4641967
51
330
0
ARC
8
0
10
223.708442
20
-107.8422465
40
1
50
188.8381531
51
293.4924146
0
ARC
8
0
10
220.25
20
-108.38
40
2.5
50
8.8381528
51
66.1506399
0
ARC
8
0
10
221.6651668
20
-105.1788592
40
1
50
150
51
246.1506399
0
LINE
8
0
10
220.8524138
20
-104.5865887
11
220.7991414
21
-104.6788592
0
ARC
8
0
10
221.7184392
20
-105.0865887
40
1
50
48.9125106
51
150
0
ARC
8
0
10
223
20
-103.6168603
40
0.95
50
228.9125107
51
71.0871451
0
ARC
8
0
10
223.6314468
20
-101.771928
40
1
50
151.8376761
51
251.10597
0
ARC
8
0
10
222.57351
20
-101.2055626
40
0.2
50
331.8376714
51
60
0
LINE
8
0
10
222.67351
20
-101.0323576
11
222.3920517
21
-100.8698576
0
ARC
8
0
10
222.8920517
20
-100.0038322
40
1
50
150
51
240
0
LINE
8
0
10
222.0260263
20
-99.5038322
11
222.4260263
21
-98.8110118
0
LINE
8
0
10
222.4260263
20
-98.8110118
11
221.0403857
21
-98.0110118
0
LINE
8
0
10
221.0403857
20
-98.0110118
11
220.4798202
21
-98.9819398
0
ARC
8
0
10
219.6137948
20
-98.4819398
40
1
50
248.7879392
51
330
0
ARC
8
0
10
218.9625173
20
-100.1599855
40
0.8
50
68.7879374
51
150
0
LINE
8
0
10
216.8321969
20
-102.2498085
11
218.2696969
21
-99.7599855
0
ARC
8
0
10
215.879569
20
-101.6998085
40
1.1
50
240
51
330
0
LINE
8
0
10
215.113039
20
-102.5274228
11
215.329569
21
-102.6524365
0
LINE
8
0
10
213.9519547
20
-102.8385344
11
215.113039
21
-102.5274228
0
LINE
8
0
10
213.9519547
20
-102.8385344
11
212.4144274
21
-105.5016098
0
LINE
8
0
10
212.725539
20
-106.6626941
11
212.4144274
21
-105.5016098
0
ARC
8
0
10
211.9712427
20
-107.3192283
40
1
50
330
51
41.036079
0
LINE
8
0
10
212.8372681
20
-107.8192283
11
212.2601298
21
-108.8188611
0
ARC
8
0
10
211.5061094
20
-109.4757122
40
1
50
328.3301588
51
41.0601522
0
LINE
8
0
10
212.3571969
20
-110.0007359
11
211.5071969
21
-111.4729791
0
LINE
8
0
10
211.5071969
20
-111.4729791
11
214.8413947
21
-113.3979791
0
ARC
8
0
10
215.7042919
20
-113.9033585
40
1
50
22.9455248
51
149.6434575
0
ARC
8
0
10
217.5
20
-113.1431397
40
0.95
50
202.9455262
51
118.7551808
0
ARC
8
0
10
216.5619173
20
-111.4336074
40
1
50
209.4805793
51
298.7551808
0
LINE
8
0
10
215.6913947
20
-111.9257359
11
214.0242958
21
-110.9632359
0
ARC
8
0
10
214.5242958
20
-110.0972105
40
1
50
150
51
240
0
LINE
8
0
10
213.6582704
20
-109.5972105
11
214.2229087
21
-108.6192283
0
ARC
8
0
10
215.0889341
20
-109.1192283
40
1
50
78.963921
51
150
0
LINE
8
0
10
216.4414455
20
-107.8266098
11
215.2803612
21
-108.1377214
0
ARC
8
0
10
216.771847
20
-108.7704503
40
1
50
6.4050931
51
109.2931447
0
ARC
8
0
10
220.25
20
-108.38
40
2.5
50
186.4050912
51
291.1618472
0
ARC
8
0
10
221.5135128
20
-111.6439754
40
1
50
6.5075854
51
111.1618469
0
ARC
8
0
10
221.5239288
20
-111.7134906
40
1
50
330
51
10.5358033
0
LINE
8
0
10
207.2500769
20
-130.77
11
206
21
-130.77
0
ARC
8
0
10
205.0566393
20
-130.4382311
40
1
50
251.9863177
51
340.6238244
0
ARC
8
0
10
204.5
20
-132.15
40
0.8
50
71.9863205
51
295.4077548
0
ARC
8
0
10
205.2723033
20
-133.775899
40
1
50
43.3063515
51
115.4077559
0
LINE
8
0
10
206
20
-133.09
11
207.2500769
21
-133.09
0
ARC
8
0
10
207.2500769
20
-134.09
40
1
50
49.4641967
51
90
0
LINE
8
0
10
207.9
20
-133.33
11
211.1
21
-133.33
0
ARC
8
0
10
211.7499231
20
-134.09
40
1
50
90
51
130.5358033
0
LINE
8
0
10
211.7499231
20
-133.09
11
213
21
-133.09
0
LINE
8
0
10
213
20
-133.09
11
213
21
-130.77
0
LINE
8
0
10
213
20
-130.77
11
211.7499231
21
-130.77
0
ARC
8
0
10
211.7499231
20
-129.77
40
1
50
229.4641967
51
270
0
ARC
8
0
10
211.6949292
20
-129.7262219
40
1
50
128.8381531
51
233.4924146
0
ARC
8
0
10
209.5
20
-127
40
2.5
50
308.8381528
51
6.1506399
0
ARC
8
0
10
212.9798527
20
-126.625
40
1
50
90
51
186.1506399
0
LINE
8
0
10
213.0863974
20
-125.625
11
212.9798527
21
-125.625
0
ARC
8
0
10
213.0863974
20
-126.625
40
1
50
348.9125106
51
90
0
ARC
8
0
10
215
20
-127
40
0.95
50
168.9125107
51
11.0871451
0
ARC
8
0
10
216.9134816
20
-126.6243828
40
1
50
91.8376761
51
191.10597
0
ARC
8
0
10
216.875
20
-125.425
40
0.2
50
271.8376714
51
0
0
LINE
8
0
10
217.075
20
-125.425
11
217.075
21
-125.1
0
ARC
8
0
10
218.075
20
-125.1
40
1
50
90
51
180
0
LINE
8
0
10
218.075
20
-124.1
11
218.875
21
-124.1
0
LINE
8
0
10
218.875
20
-124.1
11
218.875
21
-122.5
0
LINE
8
0
10
218.875
20
-122.5
11
217.753869
21
-122.5
0
ARC
8
0
10
217.753869
20
-121.5
40
1
50
188.7879392
51
270
0
ARC
8
0
10
215.975
20
-121.775
40
0.8
50
8.7879374
51
90
0
LINE
8
0
10
213.1
20
-120.975
11
215.975
21
-120.975
0
ARC
8
0
10
213.1
20
-119.875
40
1.1
50
180
51
270
0
LINE
8
0
10
212
20
-119.6249727
11
212
21
-119.875
0
LINE
8
0
10
211.1500273
20
-118.775
11
212
21
-119.6249727
0
LINE
8
0
10
211.1500273
20
-118.775
11
208.0749727
21
-118.775
0
LINE
8
0
10
207.225
20
-119.6249727
11
208.0749727
21
-118.775
0
ARC
8
0
10
206.2792766
20
-119.3
40
1
50
270
51
341.036079
0
LINE
8
0
10
206.2792766
20
-120.3
11
205.125
21
-120.3
0
ARC
8
0
10
204.1791401
20
-119.9754247
40
1
50
268.3301588
51
341.0601522
0
LINE
8
0
10
204.15
20
-120.975
11
202.45
21
-120.975
0
LINE
8
0
10
202.45
20
-120.975
11
202.45
21
-124.825
0
ARC
8
0
10
202.4437772
20
-125.8249806
40
1
50
322.9455248
51
89.6434575
0
ARC
8
0
10
204
20
-127
40
0.95
50
142.9455262
51
58.7551808
0
ARC
8
0
10
205.0114571
20
-125.3328304
40
1
50
149.4805793
51
238.7551808
0
LINE
8
0
10
204.15
20
-124.825
11
204.15
21
-122.9
0
ARC
8
0
10
205.15
20
-122.9
40
1
50
90
51
180
0
LINE
8
0
10
205.15
20
-121.9
11
206.2792766
21
-121.9
0
ARC
8
0
10
206.2792766
20
-122.9
40
1
50
18.963921
51
90
0
LINE
8
0
10
208.0749727
20
-123.425
11
207.225
21
-122.5750273
0
ARC
8
0
10
207.4227836
20
-124.1830563
40
1
50
306.4050931
51
49.2931447
0
ARC
8
0
10
209.5
20
-127
40
2.5
50
126.4050912
51
231.1618472
0
ARC
8
0
10
207.3050708
20
-129.7262219
40
1
50
306.5075854
51
51.1618469
0
ARC
8
0
10
207.2500769
20
-129.77
40
1
50
270
51
310.5358033
0
LINE
8
0
10
196.6100458
20
-145.2506094
11
197.2350842
21
-144.1680111
0
ARC
8
0
10
197.9940849
20
-143.5169212
40
1
50
131.9863177
51
220.6238244
0
ARC
8
0
10
196.7899692
20
-142.178973
40
0.8
50
311.9863205
51
175.4077548
0
ARC
8
0
10
194.9957477
20
-142.0348578
40
1
50
283.3063515
51
355.4077559
0
LINE
8
0
10
195.2259053
20
-143.0080111
11
194.6008668
21
-144.0906094
0
ARC
8
0
10
193.7348414
20
-143.5906094
40
1
50
289.4641967
51
330
0
LINE
8
0
10
194.0680592
20
-144.5334594
11
192.4680592
21
-147.3047406
0
ARC
8
0
10
191.4849183
20
-147.4875906
40
1
50
330
51
10.5358033
0
LINE
8
0
10
192.3509437
20
-147.9875906
11
191.7259053
21
-149.0701889
0
LINE
8
0
10
191.7259053
20
-149.0701889
11
193.7350842
21
-150.2301889
0
LINE
8
0
10
193.7350842
20
-150.2301889
11
194.3601227
21
-149.1475906
0
ARC
8
0
10
195.2261481
20
-149.6475906
40
1
50
109.4641967
51
150
0
ARC
8
0
10
195.291558
20
-149.6218535
40
1
50
8.8381531
51
113.4924146
0
ARC
8
0
10
198.75
20
-149.0841
40
2.5
50
188.8381528
51
246.1506399
0
ARC
8
0
10
197.3348332
20
-152.2852408
40
1
50
330
51
66.1506399
0
LINE
8
0
10
198.1475862
20
-152.8775113
11
198.2008586
21
-152.7852408
0
ARC
8
0
10
197.2815608
20
-152.3775113
40
1
50
228.9125106
51
330
0
ARC
8
0
10
196
20
-153.8472397
40
0.95
50
48.9125107
51
251.0871451
0
ARC
8
0
10
195.3685532
20
-155.692172
40
1
50
331.8376761
51
71.10597
0
ARC
8
0
10
196.42649
20
-156.2585374
40
0.2
50
151.8376714
51
240
0
LINE
8
0
10
196.32649
20
-156.4317424
11
196.6079483
21
-156.5942424
0
ARC
8
0
10
196.1079483
20
-157.4602678
40
1
50
330
51
60
0
LINE
8
0
10
196.9739737
20
-157.9602678
11
196.5739737
21
-158.6530882
0
LINE
8
0
10
196.5739737
20
-158.6530882
11
197.9596143
21
-159.4530882
0
LINE
8
0
10
197.9596143
20
-159.4530882
11
198.5201798
21
-158.4821602
0
ARC
8
0
10
199.3862052
20
-158.9821602
40
1
50
68.7879392
51
150
0
ARC
8
0
10
200.0374827
20
-157.3041145
40
0.8
50
248.7879374
51
330
0
LINE
8
0
10
202.1678031
20
-155.2142915
11
200.7303031
21
-157.7041145
0
ARC
8
0
10
203.120431
20
-155.7642915
40
1.1
50
60
51
150
0
LINE
8
0
10
203.886961
20
-154.9366772
11
203.670431
21
-154.8116635
0
LINE
8
0
10
205.0480453
20
-154.6255656
11
203.886961
21
-154.9366772
0
LINE
8
0
10
205.0480453
20
-154.6255656
11
206.5855726
21
-151.9624902
0
LINE
8
0
10
206.274461
20
-150.8014059
11
206.5855726
21
-151.9624902
0
ARC
8
0
10
207.0287573
20
-150.1448717
40
1
50
150
51
221.036079
0
LINE
8
0
10
206.1627319
20
-149.6448717
11
206.7398702
21
-148.6452389
0
ARC
8
0
10
207.4938906
20
-147.9883878
40
1
50
148.3301588
51
221.0601522
0
LINE
8
0
10
206.6428031
20
-147.4633641
11
207.4928031
21
-145.9911209
0
LINE
8
0
10
207.4928031
20
-145.9911209
11
204.1586053
21
-144.0661209
0
ARC
8
0
10
203.2957081
20
-143.5607415
40
1
50
202.9455248
51
329.6434575
0
ARC
8
0
10
201.5
20
-144.3209603
40
0.95
50
22.9455262
51
298.7551808
0
ARC
8
0
10
202.4380827
20
-146.0304926
40
1
50
29.4805793
51
118.7551808
0
LINE
8
0
10
203.3086053
20
-145.5383641
11
204.9757042
21
-146.5008641
0
ARC
8
0
10
204.4757042
20
-147.3668895
40
1
50
330
51
60
0
LINE
8
0
10
205.3417296
20
-147.8668895
11
204.7770913
21
-148.8448717
0
ARC
8
0
10
203.9110659
20
-148.3448717
40
1
50
258.963921
51
330
0
LINE
8
0
10
202.5585545
20
-149.6374902
11
203.7196388
21
-149.3263786
0
ARC
8
0
10
202.228153
20
-148.6936497
40
1
50
186.4050931
51
289.2931447
0
ARC
8
0
10
198.75
20
-149.0841
40
2.5
50
6.4050912
51
111.1618472
0
ARC
8
0
10
197.4864872
20
-145.8201246
40
1
50
186.5075854
51
291.1618469
0
ARC
8
0
10
197.4760712
20
-145.7506094
40
1
50
150
51
190.5358033
0
LINE
8
0
10
243.8899542
20
-112.2134906
11
243.2649158
21
-113.2960889
0
ARC
8
0
10
242.5059151
20
-113.9471788
40
1
50
311.9863177
51
40.6238244
0
ARC
8
0
10
243.7100308
20
-115.285127
40
0.8
50
131.9863205
51
355.4077548
0
ARC
8
0
10
245.5042523
20
-115.4292422
40
1
50
103.3063515
51
175.4077559
0
LINE
8
0
10
245.2740947
20
-114.4560889
11
245.8991332
21
-113.3734906
0
ARC
8
0
10
246.7651586
20
-113.8734906
40
1
50
109.4641967
51
150
0
LINE
8
0
10
246.4319408
20
-112.9306406
11
248.0319408
21
-110.1593594
0
ARC
8
0
10
249.0150817
20
-109.9765094
40
1
50
150
51
190.5358033
0
LINE
8
0
10
248.1490563
20
-109.4765094
11
248.7740947
21
-108.3939111
0
LINE
8
0
10
248.7740947
20
-108.3939111
11
246.7649158
21
-107.2339111
0
LINE
8
0
10
246.7649158
20
-107.2339111
11
246.1398773
21
-108.3165094
0
ARC
8
0
10
245.2738519
20
-107.8165094
40
1
50
289.4641967
51
330
0
ARC
8
0
10
245.208442
20
-107.8422465
40
1
50
188.8381531
51
293.4924146
0
ARC
8
0
10
241.75
20
-108.38
40
2.5
50
8.8381528
51
66.1506399
0
ARC
8
0
10
243.1651668
20
-105.1788592
40
1
50
150
51
246.1506399
0
LINE
8
0
10
242.3524138
20
-104.5865887
11
242.2991414
21
-104.6788592
0
ARC
8
0
10
243.2184392
20
-105.0865887
40
1
50
48.9125106
51
150
0
ARC
8
0
10
244.5
20
-103.6168603
40
0.95
50
228.9125107
51
71.0871451
0
ARC
8
0
10
245.1314468
20
-101.771928
40
1
50
151.8376761
51
251.10597
0
ARC
8
0
10
244.07351
20
-101.2055626
40
0.2
50
331.8376714
51
60
0
LINE
8
0
10
244.17351
20
-101.0323576
11
243.8920517
21
-100.8698576
0
ARC
8
0
10
244.3920517
20
-100.0038322
40
1
50
150
51
240
0
LINE
8
0
10
243.5260263
20
-99.5038322
11
243.9260263
21
-98.8110118
0
LINE
8
0
10
243.9260263
20
-98.8110118
11
242.5403857
21
-98.0110118
0
LINE
8
0
10
242.5403857
20
-98.0110118
11
241.9798202
21
-98.9819398
0
ARC
8
0
10
241.1137948
20
-98.4819398
40
1
50
248.7879392
51
330
0
ARC
8
0
10
240.4625173
20
-100.1599855
40
0.8
50
68.7879374
51
150
0
LINE
8
0
10
238.3321969
20
-102.2498085
11
239.7696969
21
-99.7599855
0
ARC
8
0
10
237.379569
20
-101.6998085
40
1.1
50
240
51
330
0
LINE
8
0
10
236.613039
20
-102.5274228
11
236.829569
21
-102.6524365
0
LINE
8
0
10
235.4519547
20
-102.8385344
11
236.613039
21
-102.5274228
0
LINE
8
0
10
235.4519547
20
-102.8385344
11
233.9144274
21
-105.5016098
0
LINE
8
0
10
234.225539
20
-106.6626941
11
233.9144274
21
-105.5016098
0
ARC
8
0
10
233.4712427
20
-107.3192283
40
1
50
330
51
41.036079
0
LINE
8
0
10
234.3372681
20
-107.8192283
11
233.7601298
21
-108.8188611
0
ARC
8
0
10
233.0061094
20
-109.4757122
40
1
50
328.3301588
51
41.0601522
0
LINE
8
0
10
233.8571969
20
-110.0007359
11
233.0071969
21
-111.4729791
0
LINE
8
0
10
233.0071969
20
-111.4729791
11
236.3413947
21
-113.3979791
0
ARC
8
0
10
237.2042919
20
-113.9033585
40
1
50
22.9455248
51
149.6434575
0
ARC
8
0
10
239
20
-113.1431397
40
0.95
50
202.9455262
51
118.7551808
0
ARC
8
0
10
238.0619173
20
-111.4336074
40
1
50
209.4805793
51
298.7551808
0
LINE
8
0
10
237.1913947
20
-111.9257359
11
235.5242958
21
-110.9632359
0
ARC
8
0
10
236.0242958
20
-110.0972105
40
1
50
150
51
240
0
LINE
8
0
10
235.1582704
20
-109.5972105
11
235.7229087
21
-108.6192283
0
ARC
8
0
10
236.5889341
20
-109.1192283
40
1
50
78.963921
51
150
0
LINE
8
0
10
237.9414455
20
-107.8266098
11
236.7803612
21
-108.1377214
0
ARC
8
0
10
238.271847
20
-108.7704503
40
1
50
6.4050931
51
109.2931447
0
ARC
8
0
10
241.75
20
-108.38
40
2.5
50
186.4050912
51
291.1618472
0
ARC
8
0
10
243.0135128
20
-111.6439754
40
1
50
6.5075854
51
111.1618469
0
ARC
8
0
10
243.0239288
20
-111.7134906
40
1
50
330
51
10.5358033
0
LINE
8
0
10
233.1399542
20
-130.8334906
11
232.5149158
21
-131.9160889
0
ARC
8
0
10
231.7559151
20
-132.5671788
40
1
50
311.9863177
51
40.6238244
0
ARC
8
0
10
232.9600308
20
-133.905127
40
0.8
50
131.9863205
51
355.4077548
0
ARC
8
0
10
234.7542523
20
-134.0492422
40
1
50
103.3063515
51
175.4077559
0
LINE
8
0
10
234.5240947
20
-133.0760889
11
235.1491332
21
-131.9934906
0
ARC
8
0
10
236.0151586
20
-132.4934906
40
1
50
109.4641967
51
150
0
LINE
8
0
10
235.6819408
20
-131.5506406
11
237.2819408
21
-128.7793594
0
ARC
8
0
10
238.2650817
20
-128.5965094
40
1
50
150
51
190.5358033
0
LINE
8
0
10
237.3990563
20
-128.0965094
11
238.0240947
21
-127.0139111
0
LINE
8
0
10
238.0240947
20
-127.0139111
11
236.0149158
21
-125.8539111
0
LINE
8
0
10
236.0149158
20
-125.8539111
11
235.3898773
21
-126.9365094
0
ARC
8
0
10
234.5238519
20
-126.4365094
40
1
50
289.4641967
51
330
0
ARC
8
0
10
234.458442
20
-126.4622465
40
1
50
188.8381531
51
293.4924146
0
ARC
8
0
10
231
20
-127
40
2.5
50
8.8381528
51
66.1506399
0
ARC
8
0
10
232.4151668
20
-123.7988592
40
1
50
150
51
246.1506399
0
LINE
8
0
10
231.6024138
20
-123.2065887
11
231.5491414
21
-123.2988592
0
ARC
8
0
10
232.4684392
20
-123.7065887
40
1
50
48.9125106
51
150
0
ARC
8
0
10
233.75
20
-122.2368603
40
0.95
50
228.9125107
51
71.0871451
0
ARC
8
0
10
234.3814468
20
-120.391928
40
1
50
151.8376761
51
251.10597
0
ARC
8
0
10
233.32351
20
-119.8255626
40
0.2
50
331.8376714
51
60
0
LINE
8
0
10
233.42351
20
-119.6523576
11
233.1420517
21
-119.4898576
0
ARC
8
0
10
233.6420517
20
-118.6238322
40
1
50
150
51
240
0
LINE
8
0
10
232.7760263
20
-118.1238322
11
233.1760263
21
-117.4310118
0
LINE
8
0
10
233.1760263
20
-117.4310118
11
231.7903857
21
-116.6310118
0
LINE
8
0
10
231.7903857
20
-116.6310118
11
231.2298202
21
-117.6019398
0
ARC
8
0
10
230.3637948
20
-117.1019398
40
1
50
248.7879392
51
330
0
ARC
8
0
10
229.7125173
20
-118.7799855
40
0.8
50
68.7879374
51
150
0
LINE
8
0
10
227.5821969
20
-120.8698085
11
229.0196969
21
-118.3799855
0
ARC
8
0
10
226.629569
20
-120.3198085
40
1.1
50
240
51
330
0
LINE
8
0
10
225.863039
20
-121.1474228
11
226.079569
21
-121.2724365
0
LINE
8
0
10
224.7019547
20
-121.4585344
11
225.863039
21
-121.1474228
0
LINE
8
0
10
224.7019547
20
-121.4585344
11
223.1644274
21
-124.1216098
0
LINE
8
0
10
223.475539
20
-125.2826941
11
223.1644274
21
-124.1216098
0
ARC
8
0
10
222.7212427
20
-125.9392283
40
1
50
330
51
41.036079
0
LINE
8
0
10
223.5872681
20
-126.4392283
11
223.0101298
21
-127.4388611
0
ARC
8
0
10
222.2561094
20
-128.0957122
40
1
50
328.3301588
51
41.0601522
0
LINE
8
0
10
223.1071969
20
-128.6207359
11
222.2571969
21
-130.0929791
0
LINE
8
0
10
222.2571969
20
-130.0929791
11
225.5913947
21
-132.0179791
0
ARC
8
0
10
226.4542919
20
-132.5233585
40
1
50
22.9455248
51
149.6434575
0
ARC
8
0
10
228.25
20
-131.7631397
40
0.95
50
202.9455262
51
118.7551808
0
ARC
8
0
10
227.3119173
20
-130.0536074
40
1
50
209.4805793
51
298.7551808
0
LINE
8
0
10
226.4413947
20
-130.5457359
11
224.7742958
21
-129.5832359
0
ARC
8
0
10
225.2742958
20
-128.7172105
40
1
50
150
51
240
0
LINE
8
0
10
224.4082704
20
-128.2172105
11
224.9729087
21
-127.2392283
0
ARC
8
0
10
225.8389341
20
-127.7392283
40
1
50
78.963921
51
150
0
LINE
8
0
10
227.1914455
20
-126.4466098
11
226.0303612
21
-126.7577214
0
ARC
8
0
10
227.521847
20
-127.3904503
40
1
50
6.4050931
51
109.2931447
0
ARC
8
0
10
231
20
-127
40
2.5
50
186.4050912
51
291.1618472
0
ARC
8
0
10
232.2635128
20
-130.2639754
40
1
50
6.5075854
51
111.1618469
0
ARC
8
0
10
232.2739288
20
-130.3334906
40
1
50
330
51
10.5358033
0
LINE
8
0
10
222.4999231
20
-145.3141
11
223.75
21
-145.3141
0
ARC
8
0
10
224.6933607
20
-145.6458689
40
1
50
431.9863177
51
520.6238244
0
ARC
8
0
10
225.25
20
-143.9341
40
0.8
50
251.9863205
51
475.4077548
0
ARC
8
0
10
224.4776967
20
-142.308201
40
1
50
223.3063515
51
295.4077559
0
LINE
8
0
10
223.75
20
-142.9941
11
222.4999231
21
-142.9941
0
ARC
8
0
10
222.4999231
20
-141.9941
40
1
50
229.4641967
51
270
0
LINE
8
0
10
221.85
20
-142.7541
11
218.65
21
-142.7541
0
ARC
8
0
10
218.0000769
20
-141.9941
40
1
50
270
51
310.5358033
0
LINE
8
0
10
218.0000769
20
-142.9941
11
216.75
21
-142.9941
0
LINE
8
0
10
216.75
20
-142.9941
11
216.75
21
-145.3141
0
LINE
8
0
10
216.75
20
-145.3141
11
218.0000769
21
-145.3141
0
ARC
8
0
10
218.0000769
20
-146.3141
40
1
50
409.4641967
51
90
0
ARC
8
0
10
218.0550708
20
-146.3578781
40
1
50
308.8381531
51
413.4924146
0
ARC
8
0
10
220.25
20
-149.0841
40
2.5
50
128.8381528
51
186.1506399
0
ARC
8
0
10
216.7701473
20
-149.4591
40
1
50
270
51
366.1506399
0
LINE
8
0
10
216.6636026
20
-150.4591
11
216.7701473
21
-150.4591
0
ARC
8
0
10
216.6636026
20
-149.4591
40
1
50
168.9125106
51
270
0
ARC
8
0
10
214.75
20
-149.0841
40
0.95
50
348.9125107
51
551.0871451
0
ARC
8
0
10
212.8365184
20
-149.4597172
40
1
50
631.8376761
51
731.10597
0
ARC
8
0
10
212.875
20
-150.6591
40
0.2
50
91.8376714
51
180
0
LINE
8
0
10
212.675
20
-150.6591
11
212.675
21
-150.9841
0
ARC
8
0
10
211.675
20
-150.9841
40
1
50
270
51
0
0
LINE
8
0
10
211.675
20
-151.9841
11
210.875
21
-151.9841
0
LINE
8
0
10
210.875
20
-151.9841
11
210.875
21
-153.5841
0
LINE
8
0
10
210.875
20
-153.5841
11
211.996131
21
-153.5841
0
ARC
8
0
10
211.996131
20
-154.5841
40
1
50
368.7879392
51
90
0
ARC
8
0
10
213.775
20
-154.3091
40
0.8
50
188.7879374
51
270
0
LINE
8
0
10
216.65
20
-155.1091
11
213.775
21
-155.1091
0
ARC
8
0
10
216.65
20
-156.2091
40
1.1
50
0
51
90
0
LINE
8
0
10
217.75
20
-156.4591273
11
217.75
21
-156.2091
0
LINE
8
0
10
218.5999727
20
-157.3091
11
217.75
21
-156.4591273
0
LINE
8
0
10
218.5999727
20
-157.3091
11
221.6750273
21
-157.3091
0
LINE
8
0
10
222.525
20
-156.4591273
11
221.6750273
21
-157.3091
0
ARC
8
0
10
223.4707234
20
-156.7841
40
1
50
450
51
521.036079
0
LINE
8
0
10
223.4707234
20
-155.7841
11
224.625
21
-155.7841
0
ARC
8
0
10
225.5708599
20
-156.1086753
40
1
50
448.3301588
51
521.0601522
0
LINE
8
0
10
225.6
20
-155.1091
11
227.3
21
-155.1091
0
LINE
8
0
10
227.3
20
-155.1091
11
227.3
21
-151.2591
0
ARC
8
0
10
227.3062228
20
-150.2591194
40
1
50
142.9455248
51
269.6434575
0
ARC
8
0
10
225.75
20
-149.0841
40
0.95
50
322.9455262
51
598.7551808
0
ARC
8
0
10
224.7385429
20
-150.7512696
40
1
50
689.4805793
51
778.7551808
0
LINE
8
0
10
225.6
20
-151.2591
11
225.6
21
-153.1841
0
ARC
8
0
10
224.6
20
-153.1841
40
1
50
270
51
0
0
LINE
8
0
10
224.6
20
-154.1841
11
223.4707234
21
-154.1841
0
ARC
8
0
10
223.4707234
20
-153.1841
40
1
50
198.963921
51
270
0
LINE
8
0
10
221.6750273
20
-152.6591
11
222.525
21
-153.5090727
0
ARC
8
0
10
222.3272164
20
-151.9010437
40
1
50
126.4050931
51
229.2931447
0
ARC
8
0
10
220.25
20
-149.0841
40
2.5
50
306.4050912
51
411.1618472
0
ARC
8
0
10
222.4449292
20
-146.3578781
40
1
50
486.5075854
51
591.1618469
0
ARC
8
0
10
222.4999231
20
-146.3141
40
1
50
450
51
490.5358033
0
LINE
8
0
10
274.8600458
20
-85.9265094
11
275.4850842
21
-84.8439111
0
ARC
8
0
10
276.2440849
20
-84.1928212
40
1
50
131.9863177
51
220.6238244
0
ARC
8
0
10
275.0399692
20
-82.854873
40
0.8
50
311.9863205
51
175.4077548
0
ARC
8
0
10
273.2457477
20
-82.7107578
40
1
50
283.3063515
51
355.4077559
0
LINE
8
0
10
273.4759053
20
-83.6839111
11
272.8508668
21
-84.7665094
0
ARC
8
0
10
271.9848414
20
-84.2665094
40
1
50
289.4641967
51
330
0
LINE
8
0
10
272.3180592
20
-85.2093594
11
270.7180592
21
-87.9806406
0
ARC
8
0
10
269.7349183
20
-88.1634906
40
1
50
330
51
10.5358033
0
LINE
8
0
10
270.6009437
20
-88.6634906
11
269.9759053
21
-89.7460889
0
LINE
8
0
10
269.9759053
20
-89.7460889
11
271.9850842
21
-90.9060889
0
LINE
8
0
10
271.9850842
20
-90.9060889
11
272.6101227
21
-89.8234906
0
ARC
8
0
10
273.4761481
20
-90.3234906
40
1
50
109.4641967
51
150
0
ARC
8
0
10
273.541558
20
-90.2977535
40
1
50
8.8381531
51
113.4924146
0
ARC
8
0
10
277
20
-89.76
40
2.5
50
188.8381528
51
246.1506399
0
ARC
8
0
10
275.5848332
20
-92.9611408
40
1
50
330
51
66.1506399
0
LINE
8
0
10
276.3975862
20
-93.5534113
11
276.4508586
21
-93.4611408
0
ARC
8
0
10
275.5315608
20
-93.0534113
40
1
50
228.9125106
51
330
0
ARC
8
0
10
274.25
20
-94.5231397
40
0.95
50
48.9125107
51
251.0871451
0
ARC
8
0
10
273.6185532
20
-96.368072
40
1
50
331.8376761
51
71.10597
0
ARC
8
0
10
274.67649
20
-96.9344374
40
0.2
50
151.8376714
51
240
0
LINE
8
0
10
274.57649
20
-97.1076424
11
274.8579483
21
-97.2701424
0
ARC
8
0
10
274.3579483
20
-98.1361678
40
1
50
330
51
60
0
LINE
8
0
10
275.2239737
20
-98.6361678
11
274.8239737
21
-99.3289882
0
LINE
8
0
10
274.8239737
20
-99.3289882
11
276.2096143
21
-100.1289882
0
LINE
8
0
10
276.2096143
20
-100.1289882
11
276.7701798
21
-99.1580602
0
ARC
8
0
10
277.6362052
20
-99.6580602
40
1
50
68.7879392
51
150
0
ARC
8
0
10
278.2874827
20
-97.9800145
40
0.8
50
248.7879374
51
330
0
LINE
8
0
10
280.4178031
20
-95.8901915
11
278.9803031
21
-98.3800145
0
ARC
8
0
10
281.370431
20
-96.4401915
40
1.1
50
60
51
150
0
LINE
8
0
10
282.136961
20
-95.6125772
11
281.920431
21
-95.4875635
0
LINE
8
0
10
283.2980453
20
-95.3014656
11
282.136961
21
-95.6125772
0
LINE
8
0
10
283.2980453
20
-95.3014656
11
284.8355726
21
-92.6383902
0
LINE
8
0
10
284.524461
20
-91.4773059
11
284.8355726
21
-92.6383902
0
ARC
8
0
10
285.2787573
20
-90.8207717
40
1
50
150
51
221.036079
0
LINE
8
0
10
284.4127319
20
-90.3207717
11
284.9898702
21
-89.3211389
0
ARC
8
0
10
285.7438906
20
-88.6642878
40
1
50
148.3301588
51
221.0601522
0
LINE
8
0
10
284.8928031
20
-88.1392641
11
285.7428031
21
-86.6670209
0
LINE
8
0
10
285.7428031
20
-86.6670209
11
282.4086053
21
-84.7420209
0
ARC
8
0
10
281.5457081
20
-84.2366415
40
1
50
202.9455248
51
329.6434575
0
ARC
8
0
10
279.75
20
-84.9968603
40
0.95
50
22.9455262
51
298.7551808
0
ARC
8
0
10
280.6880827
20
-86.7063926
40
1
50
29.4805793
51
118.7551808
0
LINE
8
0
10
281.5586053
20
-86.2142641
11
283.2257042
21
-87.1767641
0
ARC
8
0
10
282.7257042
20
-88.0427895
40
1
50
330
51
60
0
LINE
8
0
10
283.5917296
20
-88.5427895
11
283.0270913
21
-89.5207717
0
ARC
8
0
10
282.1610659
20
-89.0207717
40
1
50
258.963921
51
330
0
LINE
8
0
10
280.8085545
20
-90.3133902
11
281.9696388
21
-90.0022786
0
ARC
8
0
10
280.478153
20
-89.3695497
40
1
50
186.4050931
51
289.2931447
0
ARC
8
0
10
277
20
-89.76
40
2.5
50
6.4050912
51
111.1618472
0
ARC
8
0
10
275.7364872
20
-86.4960246
40
1
50
186.5075854
51
291.1618469
0
ARC
8
0
10
275.7260712
20
-86.4265094
40
1
50
150
51
190.5358033
0
LINE
8
0
10
283.3601227
20
-108.3165094
11
282.7350842
21
-107.2339111
0
ARC
8
0
10
282.5507242
20
-106.2510523
40
1
50
191.9863177
51
280.6238244
0
ARC
8
0
10
280.7899692
20
-106.624873
40
0.8
50
11.9863205
51
235.4077548
0
ARC
8
0
10
279.768051
20
-108.1066568
40
1
50
343.3063515
51
55.4077559
0
LINE
8
0
10
280.7259053
20
-108.3939111
11
281.3509437
21
-109.4765094
0
ARC
8
0
10
280.4849183
20
-109.9765094
40
1
50
349.4641967
51
30
0
LINE
8
0
10
281.4680592
20
-110.1593594
11
283.0680592
21
-112.9306406
0
ARC
8
0
10
282.7348414
20
-113.8734906
40
1
50
30
51
70.5358033
0
LINE
8
0
10
283.6008668
20
-113.3734906
11
284.2259053
21
-114.4560889
0
LINE
8
0
10
284.2259053
20
-114.4560889
11
286.2350842
21
-113.2960889
0
LINE
8
0
10
286.2350842
20
-113.2960889
11
285.6100458
21
-112.2134906
0
ARC
8
0
10
286.4760712
20
-111.7134906
40
1
50
169.4641967
51
210
0
ARC
8
0
10
286.4864872
20
-111.6439754
40
1
50
68.8381531
51
173.4924146
0
ARC
8
0
10
287.75
20
-108.38
40
2.5
50
248.8381528
51
306.1506399
0
ARC
8
0
10
289.8146859
20
-111.2061408
40
1
50
30
51
126.1506399
0
LINE
8
0
10
290.7339836
20
-110.7984113
11
290.6807113
21
-110.7061408
0
ARC
8
0
10
289.8679582
20
-111.2984113
40
1
50
288.9125106
51
30
0
ARC
8
0
10
290.5
20
-113.1431397
40
0.95
50
108.9125107
51
311.0871451
0
ARC
8
0
10
291.7820348
20
-114.6124548
40
1
50
31.8376761
51
131.10597
0
ARC
8
0
10
292.80149
20
-113.9794374
40
0.2
50
211.8376714
51
300
0
LINE
8
0
10
292.90149
20
-114.1526424
11
293.1829483
21
-113.9901424
0
ARC
8
0
10
293.6829483
20
-114.8561678
40
1
50
30
51
120
0
LINE
8
0
10
294.5489737
20
-114.3561678
11
294.9489737
21
-115.0489882
0
LINE
8
0
10
294.9489737
20
-115.0489882
11
296.3346143
21
-114.2489882
0
LINE
8
0
10
296.3346143
20
-114.2489882
11
295.7740488
21
-113.2780602
0
ARC
8
0
10
296.6400742
20
-112.7780602
40
1
50
128.7879392
51
210
0
ARC
8
0
10
295.5124827
20
-111.3750145
40
0.8
50
308.7879374
51
30
0
LINE
8
0
10
294.7678031
20
-108.4851915
11
296.2053031
21
-110.9750145
0
ARC
8
0
10
295.720431
20
-107.9351915
40
1.1
50
120
51
210
0
LINE
8
0
10
295.386961
20
-106.8575499
11
295.170431
21
-106.9825635
0
LINE
8
0
10
295.6980726
20
-105.6964656
11
295.386961
21
-106.8575499
0
LINE
8
0
10
295.6980726
20
-105.6964656
11
294.1605453
21
-103.0333902
0
LINE
8
0
10
292.999461
20
-102.7222786
11
294.1605453
21
-103.0333902
0
ARC
8
0
10
292.8080339
20
-101.7407717
40
1
50
210
51
281.036079
0
LINE
8
0
10
291.9420085
20
-102.2407717
11
291.3648702
21
-101.2411389
0
ARC
8
0
10
291.1730307
20
-100.2597125
40
1
50
208.3301588
51
281.0601522
0
LINE
8
0
10
290.2928031
20
-100.7342641
11
289.4428031
21
-99.2620209
0
LINE
8
0
10
289.4428031
20
-99.2620209
11
286.1086053
21
-101.1870209
0
ARC
8
0
10
285.2394853
20
-101.6816221
40
1
50
262.9455248
51
29.6434575
0
ARC
8
0
10
285
20
-103.6168603
40
0.95
50
82.9455262
51
358.7551808
0
ARC
8
0
10
286.9495398
20
-103.659223
40
1
50
89.4805793
51
178.7551808
0
LINE
8
0
10
286.9586053
20
-102.6592641
11
288.6257042
21
-101.6967641
0
ARC
8
0
10
289.1257042
20
-102.5627895
40
1
50
30
51
120
0
LINE
8
0
10
289.9917296
20
-102.0627895
11
290.5563679
21
-103.0407717
0
ARC
8
0
10
289.6903425
20
-103.5407717
40
1
50
318.963921
51
30
0
LINE
8
0
10
290.1335272
20
-105.3583902
11
290.4446388
21
-104.1973059
0
ARC
8
0
10
289.1509366
20
-105.172606
40
1
50
246.4050931
51
349.2931447
0
ARC
8
0
10
287.75
20
-108.38
40
2.5
50
66.4050912
51
171.1618472
0
ARC
8
0
10
284.291558
20
-107.8422465
40
1
50
246.5075854
51
351.1618469
0
ARC
8
0
10
284.2261481
20
-107.8165094
40
1
50
210
51
250.5358033
0
LINE
8
0
10
296.2500769
20
-130.77
11
295
21
-130.77
0
ARC
8
0
10
294.0566393
20
-130.4382311
40
1
50
251.9863177
51
340.6238244
0
ARC
8
0
10
293.5
20
-132.15
40
0.8
50
71.9863205
51
295.4077548
0
ARC
8
0
10
294.2723033
20
-133.775899
40
1
50
43.3063515
51
115.4077559
0
LINE
8
0
10
295
20
-133.09
11
296.2500769
21
-133.09
0
ARC
8
0
10
296.2500769
20
-134.09
40
1
50
49.4641967
51
90
0
LINE
8
0
10
296.9
20
-133.33
11
300.1
21
-133.33
0
ARC
8
0
10
300.7499231
20
-134.09
40
1
50
90
51
130.5358033
0
LINE
8
0
10
300.7499231
20
-133.09
11
302
21
-133.09
0
LINE
8
0
10
302
20
-133.09
11
302
21
-130.77
0
LINE
8
0
10
302
20
-130.77
11
300.7499231
21
-130.77
0
ARC
8
0
10
300.7499231
20
-129.77
40
1
50
229.4641967
51
270
0
ARC
8
0
10
300.6949292
20
-129.7262219
40
1
50
128.8381531
51
233.4924146
0
ARC
8
0
10
298.5
20
-127
40
2.5
50
308.8381528
51
6.1506399
0
ARC
8
0
10
301.9798527
20
-126.625
40
1
50
90
51
186.1506399
0
LINE
8
0
10
302.0863974
20
-125.625
11
301.9798527
21
-125.625
0
ARC
8
0
10
302.0863974
20
-126.625
40
1
50
348.9125106
51
90
0
ARC
8
0
10
304
20
-127
40
0.95
50
168.9125107
51
11.0871451
0
ARC
8
0
10
305.9134816
20
-126.6243828
40
1
50
91.8376761
51
191.10597
0
ARC
8
0
10
305.875
20
-125.425
40
0.2
50
271.8376714
51
0
0
LINE
8
0
10
306.075
20
-125.425
11
306.075
21
-125.1
0
ARC
8
0
10
307.075
20
-125.1
40
1
50
90
51
180
0
LINE
8
0
10
307.075
20
-124.1
11
307.875
21
-124.1
0
LINE
8
0
10
307.875
20
-124.1
11
307.875
21
-122.5
0
LINE
8
0
10
307.875
20
-122.5
11
306.753869
21
-122.5
0
ARC
8
0
10
306.753869
20
-121.5
40
1
50
188.7879392
51
270
0
ARC
8
0
10
304.975
20
-121.775
40
0.8
50
8.7879374
51
90
0
LINE
8
0
10
302.1
20
-120.975
11
304.975
21
-120.975
0
ARC
8
0
10
302.1
20
-119.875
40
1.1
50
180
51
270
0
LINE
8
0
10
301
20
-119.6249727
11
301
21
-119.875
0
LINE
8
0
10
300.1500273
20
-118.775
11
301
21
-119.6249727
0
LINE
8
0
10
300.1500273
20
-118.775
11
297.0749727
21
-118.775
0
LINE
8
0
10
296.225
20
-119.6249727
11
297.0749727
21
-118.775
0
ARC
8
0
10
295.2792766
20
-119.3
40
1
50
270
51
341.036079
0
LINE
8
0
10
295.2792766
20
-120.3
11
294.125
21
-120.3
0
ARC
8
0
10
293.1791401
20
-119.9754247
40
1
50
268.3301588
51
341.0601522
0
LINE
8
0
10
293.15
20
-120.975
11
291.45
21
-120.975
0
LINE
8
0
10
291.45
20
-120.975
11
291.45
21
-124.825
0
ARC
8
0
10
291.4437772
20
-125.8249806
40
1
50
322.9455248
51
89.6434575
0
ARC
8
0
10
293
20
-127
40
0.95
50
142.9455262
51
58.7551808
0
ARC
8
0
10
294.0114571
20
-125.3328304
40
1
50
149.4805793
51
238.7551808
0
LINE
8
0
10
293.15
20
-124.825
11
293.15
21
-122.9
0
ARC
8
0
10
294.15
20
-122.9
40
1
50
90
51
180
0
LINE
8
0
10
294.15
20
-121.9
11
295.2792766
21
-121.9
0
ARC
8
0
10
295.2792766
20
-122.9
40
1
50
18.963921
51
90
0
LINE
8
0
10
297.0749727
20
-123.425
11
296.225
21
-122.5750273
0
ARC
8
0
10
296.4227836
20
-124.1830563
40
1
50
306.4050931
51
49.2931447
0
ARC
8
0
10
298.5
20
-127
40
2.5
50
126.4050912
51
231.1618472
0
ARC
8
0
10
296.3050708
20
-129.7262219
40
1
50
306.5075854
51
51.1618469
0
ARC
8
0
10
296.2500769
20
-129.77
40
1
50
270
51
310.5358033
0
LINE
8
0
10
313.6398773
20
-149.1475906
11
314.2649158
21
-150.2301889
0
ARC
8
0
10
314.4492758
20
-151.2130477
40
1
50
11.9863177
51
100.6238244
0
ARC
8
0
10
316.2100308
20
-150.839227
40
0.8
50
191.9863205
51
55.4077548
0
ARC
8
0
10
317.231949
20
-149.3574432
40
1
50
163.3063515
51
235.4077559
0
LINE
8
0
10
316.2740947
20
-149.0701889
11
315.6490563
21
-147.9875906
0
ARC
8
0
10
316.5150817
20
-147.4875906
40
1
50
169.4641967
51
210
0
LINE
8
0
10
315.5319408
20
-147.3047406
11
313.9319408
21
-144.5334594
0
ARC
8
0
10
314.2651586
20
-143.5906094
40
1
50
210
51
250.5358033
0
LINE
8
0
10
313.3991332
20
-144.0906094
11
312.7740947
21
-143.0080111
0
LINE
8
0
10
312.7740947
20
-143.0080111
11
310.7649158
21
-144.1680111
0
LINE
8
0
10
310.7649158
20
-144.1680111
11
311.3899542
21
-145.2506094
0
ARC
8
0
10
310.5239288
20
-145.7506094
40
1
50
349.4641967
51
30
0
ARC
8
0
10
310.5135128
20
-145.8201246
40
1
50
248.8381531
51
353.4924146
0
ARC
8
0
10
309.25
20
-149.0841
40
2.5
50
68.8381528
51
126.1506399
0
ARC
8
0
10
307.1853141
20
-146.2579592
40
1
50
210
51
306.1506399
0
LINE
8
0
10
306.2660164
20
-146.6656887
11
306.3192887
21
-146.7579592
0
ARC
8
0
10
307.1320418
20
-146.1656887
40
1
50
108.9125106
51
210
0
ARC
8
0
10
306.5
20
-144.3209603
40
0.95
50
288.9125107
51
131.0871451
0
ARC
8
0
10
305.2179652
20
-142.8516452
40
1
50
211.8376761
51
311.10597
0
ARC
8
0
10
304.19851
20
-143.4846626
40
0.2
50
31.8376714
51
120
0
LINE
8
0
10
304.09851
20
-143.3114576
11
303.8170517
21
-143.4739576
0
ARC
8
0
10
303.3170517
20
-142.6079322
40
1
50
210
51
300
0
LINE
8
0
10
302.4510263
20
-143.1079322
11
302.0510263
21
-142.4151118
0
LINE
8
0
10
302.0510263
20
-142.4151118
11
300.6653857
21
-143.2151118
0
LINE
8
0
10
300.6653857
20
-143.2151118
11
301.2259512
21
-144.1860398
0
ARC
8
0
10
300.3599258
20
-144.6860398
40
1
50
308.7879392
51
30
0
ARC
8
0
10
301.4875173
20
-146.0890855
40
0.8
50
128.7879374
51
210
0
LINE
8
0
10
302.2321969
20
-148.9789085
11
300.7946969
21
-146.4890855
0
ARC
8
0
10
301.279569
20
-149.5289085
40
1.1
50
300
51
30
0
LINE
8
0
10
301.613039
20
-150.6065501
11
301.829569
21
-150.4815365
0
LINE
8
0
10
301.3019274
20
-151.7676344
11
301.613039
21
-150.6065501
0
LINE
8
0
10
301.3019274
20
-151.7676344
11
302.8394547
21
-154.4307098
0
LINE
8
0
10
304.000539
20
-154.7418214
11
302.8394547
21
-154.4307098
0
ARC
8
0
10
304.1919661
20
-155.7233283
40
1
50
30
51
101.036079
0
LINE
8
0
10
305.0579915
20
-155.2233283
11
305.6351298
21
-156.2229611
0
ARC
8
0
10
305.8269693
20
-157.2043875
40
1
50
28.3301588
51
101.0601522
0
LINE
8
0
10
306.7071969
20
-156.7298359
11
307.5571969
21
-158.2020791
0
LINE
8
0
10
307.5571969
20
-158.2020791
11
310.8913947
21
-156.2770791
0
ARC
8
0
10
311.7605147
20
-155.7824779
40
1
50
82.9455248
51
209.6434575
0
ARC
8
0
10
312
20
-153.8472397
40
0.95
50
262.9455262
51
178.7551808
0
ARC
8
0
10
310.0504602
20
-153.804877
40
1
50
269.4805793
51
358.7551808
0
LINE
8
0
10
310.0413947
20
-154.8048359
11
308.3742958
21
-155.7673359
0
ARC
8
0
10
307.8742958
20
-154.9013105
40
1
50
210
51
300
0
LINE
8
0
10
307.0082704
20
-155.4013105
11
306.4436321
21
-154.4233283
0
ARC
8
0
10
307.3096575
20
-153.9233283
40
1
50
138.963921
51
210
0
LINE
8
0
10
306.8664728
20
-152.1057098
11
306.5553612
21
-153.2667941
0
ARC
8
0
10
307.8490634
20
-152.291494
40
1
50
66.4050931
51
169.2931447
0
ARC
8
0
10
309.25
20
-149.0841
40
2.5
50
246.4050912
51
351.1618472
0
ARC
8
0
10
312.708442
20
-149.6218535
40
1
50
66.5075854
51
171.1618469
0
ARC
8
0
10
312.7738519
20
-149.6475906
40
1
50
30
51
70.5358033
0
LINE
8
0
10
261.8601227
20
-108.3165094
11
261.2350842
21
-107.2339111
0
ARC
8
0
10
261.0507242
20
-106.2510523
40
1
50
191.9863177
51
280.6238244
0
ARC
8
0
10
259.2899692
20
-106.624873
40
0.8
50
11.9863205
51
235.4077548
0
ARC
8
0
10
258.268051
20
-108.1066568
40
1
50
343.3063515
51
55.4077559
0
LINE
8
0
10
259.2259053
20
-108.3939111
11
259.8509437
21
-109.4765094
0
ARC
8
0
10
258.9849183
20
-109.9765094
40
1
50
349.4641967
51
30
0
LINE
8
0
10
259.9680592
20
-110.1593594
11
261.5680592
21
-112.9306406
0
ARC
8
0
10
261.2348414
20
-113.8734906
40
1
50
30
51
70.5358033
0
LINE
8
0
10
262.1008668
20
-113.3734906
11
262.7259053
21
-114.4560889
0
LINE
8
0
10
262.7259053
20
-114.4560889
11
264.7350842
21
-113.2960889
0
LINE
8
0
10
264.7350842
20
-113.2960889
11
264.1100458
21
-112.2134906
0
ARC
8
0
10
264.9760712
20
-111.7134906
40
1
50
169.4641967
51
210
0
ARC
8
0
10
264.9864872
20
-111.6439754
40
1
50
68.8381531
51
173.4924146
0
ARC
8
0
10
266.25
20
-108.38
40
2.5
50
248.8381528
51
306.1506399
0
ARC
8
0
10
268.3146859
20
-111.2061408
40
1
50
30
51
126.1506399
0
LINE
8
0
10
269.2339836
20
-110.7984113
11
269.1807113
21
-110.7061408
0
ARC
8
0
10
268.3679582
20
-111.2984113
40
1
50
288.9125106
51
30
0
ARC
8
0
10
269
20
-113.1431397
40
0.95
50
108.9125107
51
311.0871451
0
ARC
8
0
10
270.2820348
20
-114.6124548
40
1
50
31.8376761
51
131.10597
0
ARC
8
0
10
271.30149
20
-113.9794374
40
0.2
50
211.8376714
51
300
0
LINE
8
0
10
271.40149
20
-114.1526424
11
271.6829483
21
-113.9901424
0
ARC
8
0
10
272.1829483
20
-114.8561678
40
1
50
30
51
120
0
LINE
8
0
10
273.0489737
20
-114.3561678
11
273.4489737
21
-115.0489882
0
LINE
8
0
10
273.4489737
20
-115.0489882
11
274.8346143
21
-114.2489882
0
LINE
8
0
10
274.8346143
20
-114.2489882
11
274.2740488
21
-113.2780602
0
ARC
8
0
10
275.1400742
20
-112.7780602
40
1
50
128.7879392
51
210
0
ARC
8
0
10
274.0124827
20
-111.3750145
40
0.8
50
308.7879374
51
30
0
LINE
8
0
10
273.2678031
20
-108.4851915
11
274.7053031
21
-110.9750145
0
ARC
8
0
10
274.220431
20
-107.9351915
40
1.1
50
120
51
210
0
LINE
8
0
10
273.886961
20
-106.8575499
11
273.670431
21
-106.9825635
0
LINE
8
0
10
274.1980726
20
-105.6964656
11
273.886961
21
-106.8575499
0
LINE
8
0
10
274.1980726
20
-105.6964656
11
272.6605453
21
-103.0333902
0
LINE
8
0
10
271.499461
20
-102.7222786
11
272.6605453
21
-103.0333902
0
ARC
8
0
10
271.3080339
20
-101.7407717
40
1
50
210
51
281.036079
0
LINE
8
0
10
270.4420085
20
-102.2407717
11
269.8648702
21
-101.2411389
0
ARC
8
0
10
269.6730307
20
-100.2597125
40
1
50
208.3301588
51
281.0601522
0
LINE
8
0
10
268.7928031
20
-100.7342641
11
267.9428031
21
-99.2620209
0
LINE
8
0
10
267.9428031
20
-99.2620209
11
264.6086053
21
-101.1870209
0
ARC
8
0
10
263.7394853
20
-101.6816221
40
1
50
262.9455248
51
29.6434575
0
ARC
8
0
10
263.5
20
-103.6168603
40
0.95
50
82.9455262
51
358.7551808
0
ARC
8
0
10
265.4495398
20
-103.659223
40
1
50
89.4805793
51
178.7551808
0
LINE
8
0
10
265.4586053
20
-102.6592641
11
267.1257042
21
-101.6967641
0
ARC
8
0
10
267.6257042
20
-102.5627895
40
1
50
30
51
120
0
LINE
8
0
10
268.4917296
20
-102.0627895
11
269.0563679
21
-103.0407717
0
ARC
8
0
10
268.1903425
20
-103.5407717
40
1
50
318.963921
51
30
0
LINE
8
0
10
268.6335272
20
-105.3583902
11
268.9446388
21
-104.1973059
0
ARC
8
0
10
267.6509366
20
-105.172606
40
1
50
246.4050931
51
349.2931447
0
ARC
8
0
10
266.25
20
-108.38
40
2.5
50
66.4050912
51
171.1618472
0
ARC
8
0
10
262.791558
20
-107.8422465
40
1
50
246.5075854
51
351.1618469
0
ARC
8
0
10
262.7261481
20
-107.8165094
40
1
50
210
51
250.5358033
0
LINE
8
0
10
272.6101227
20
-126.9365094
11
271.9850842
21
-125.8539111
0
ARC
8
0
10
271.8007242
20
-124.8710523
40
1
50
191.9863177
51
280.6238244
0
ARC
8
0
10
270.0399692
20
-125.244873
40
0.8
50
11.9863205
51
235.4077548
0
ARC
8
0
10
269.018051
20
-126.7266568
40
1
50
343.3063515
51
55.4077559
0
LINE
8
0
10
269.9759053
20
-127.0139111
11
270.6009437
21
-128.0965094
0
ARC
8
0
10
269.7349183
20
-128.5965094
40
1
50
349.4641967
51
30
0
LINE
8
0
10
270.7180592
20
-128.7793594
11
272.3180592
21
-131.5506406
0
ARC
8
0
10
271.9848414
20
-132.4934906
40
1
50
30
51
70.5358033
0
LINE
8
0
10
272.8508668
20
-131.9934906
11
273.4759053
21
-133.0760889
0
LINE
8
0
10
273.4759053
20
-133.0760889
11
275.4850842
21
-131.9160889
0
LINE
8
0
10
275.4850842
20
-131.9160889
11
274.8600458
21
-130.8334906
0
ARC
8
0
10
275.7260712
20
-130.3334906
40
1
50
169.4641967
51
210
0
ARC
8
0
10
275.7364872
20
-130.2639754
40
1
50
68.8381531
51
173.4924146
0
ARC
8
0
10
277
20
-127
40
2.5
50
248.8381528
51
306.1506399
0
ARC
8
0
10
279.0646859
20
-129.8261408
40
1
50
30
51
126.1506399
0
LINE
8
0
10
279.9839836
20
-129.4184113
11
279.9307113
21
-129.3261408
0
ARC
8
0
10
279.1179582
20
-129.9184113
40
1
50
288.9125106
51
30
0
ARC
8
0
10
279.75
20
-131.7631397
40
0.95
50
108.9125107
51
311.0871451
0
ARC
8
0
10
281.0320348
20
-133.2324548
40
1
50
31.8376761
51
131.10597
0
ARC
8
0
10
282.05149
20
-132.5994374
40
0.2
50
211.8376714
51
300
0
LINE
8
0
10
282.15149
20
-132.7726424
11
282.4329483
21
-132.6101424
0
ARC
8
0
10
282.9329483
20
-133.4761678
40
1
50
30
51
120
0
LINE
8
0
10
283.7989737
20
-132.9761678
11
284.1989737
21
-133.6689882
0
LINE
8
0
10
284.1989737
20
-133.6689882
11
285.5846143
21
-132.8689882
0
LINE
8
0
10
285.5846143
20
-132.8689882
11
285.0240488
21
-131.8980602
0
ARC
8
0
10
285.8900742
20
-131.3980602
40
1
50
128.7879392
51
210
0
ARC
8
0
10
284.7624827
20
-129.9950145
40
0.8
50
308.7879374
51
30
0
LINE
8
0
10
284.0178031
20
-127.1051915
11
285.4553031
21
-129.5950145
0
ARC
8
0
10
284.970431
20
-126.5551915
40
1.1
50
120
51
210
0
LINE
8
0
10
284.636961
20
-125.4775499
11
284.420431
21
-125.6025635
0
LINE
8
0
10
284.9480726
20
-124.3164656
11
284.636961
21
-125.4775499
0
LINE
8
0
10
284.9480726
20
-124.3164656
11
283.4105453
21
-121.6533902
0
LINE
8
0
10
282.249461
20
-121.3422786
11
283.4105453
21
-121.6533902
0
ARC
8
0
10
282.0580339
20
-120.3607717
40
1
50
210
51
281.036079
0
LINE
8
0
10
281.1920085
20
-120.8607717
11
280.6148702
21
-119.8611389
0
ARC
8
0
10
280.4230307
20
-118.8797125
40
1
50
208.3301588
51
281.0601522
0
LINE
8
0
10
279.5428031
20
-119.3542641
11
278.6928031
21
-117.8820209
0
LINE
8
0
10
278.6928031
20
-117.8820209
11
275.3586053
21
-119.8070209
0
ARC
8
0
10
274.4894853
20
-120.3016221
40
1
50
262.9455248
51
29.6434575
0
ARC
8
0
10
274.25
20
-122.2368603
40
0.95
50
82.9455262
51
358.7551808
0
ARC
8
0
10
276.1995398
20
-122.279223
40
1
50
89.4805793
51
178.7551808
0
LINE
8
0
10
276.2086053
20
-121.2792641
11
277.8757042
21
-120.3167641
0
ARC
8
0
10
278.3757042
20
-121.1827895
40
1
50
30
51
120
0
LINE
8
0
10
279.2417296
20
-120.6827895
11
279.8063679
21
-121.6607717
0
ARC
8
0
10
278.9403425
20
-122.1607717
40
1
50
318.963921
51
30
0
LINE
8
0
10
279.3835272
20
-123.9783902
11
279.6946388
21
-122.8173059
0
ARC
8
0
10
278.4009366
20
-123.792606
40
1
50
246.4050931
51
349.2931447
0
ARC
8
0
10
277
20
-127
40
2.5
50
66.4050912
51
171.1618472
0
ARC
8
0
10
273.541558
20
-126.4622465
40
1
50
246.5075854
51
351.1618469
0
ARC
8
0
10
273.4761481
20
-126.4365094
40
1
50
210
51
250.5358033
0
LINE
8
0
10
289.9999231
20
-145.3141
11
291.25
21
-145.3141
0
ARC
8
0
10
292.1933607
20
-145.6458689
40
1
50
431.9863177
51
520.6238244
0
ARC
8
0
10
292.75
20
-143.9341
40
0.8
50
251.9863205
51
475.4077548
0
ARC
8
0
10
291.9776967
20
-142.308201
40
1
50
223.3063515
51
295.4077559
0
LINE
8
0
10
291.25
20
-142.9941
11
289.9999231
21
-142.9941
0
ARC
8
0
10
289.9999231
20
-141.9941
40
1
50
229.4641967
51
270
0
LINE
8
0
10
289.35
20
-142.7541
11
286.15
21
-142.7541
0
ARC
8
0
10
285.5000769
20
-141.9941
40
1
50
270
51
310.5358033
0
LINE
8
0
10
285.5000769
20
-142.9941
11
284.25
21
-142.9941
0
LINE
8
0
10
284.25
20
-142.9941
11
284.25
21
-145.3141
0
LINE
8
0
10
284.25
20
-145.3141
11
285.5000769
21
-145.3141
0
ARC
8
0
10
285.5000769
20
-146.3141
40
1
50
409.4641967
51
90
0
ARC
8
0
10
285.5550708
20
-146.3578781
40
1
50
308.8381531
51
413.4924146
0
ARC
8
0
10
287.75
20
-149.0841
40
2.5
50
128.8381528
51
186.1506399
0
ARC
8
0
10
284.2701473
20
-149.4591
40
1
50
270
51
366.1506399
0
LINE
8
0
10
284.1636026
20
-150.4591
11
284.2701473
21
-150.4591
0
ARC
8
0
10
284.1636026
20
-149.4591
40
1
50
168.9125106
51
270
0
ARC
8
0
10
282.25
20
-149.0841
40
0.95
50
348.9125107
51
551.0871451
0
ARC
8
0
10
280.3365184
20
-149.4597172
40
1
50
631.8376761
51
731.10597
0
ARC
8
0
10
280.375
20
-150.6591
40
0.2
50
91.8376714
51
180
0
LINE
8
0
10
280.175
20
-150.6591
11
280.175
21
-150.9841
0
ARC
8
0
10
279.175
20
-150.9841
40
1
50
270
51
0
0
LINE
8
0
10
279.175
20
-151.9841
11
278.375
21
-151.9841
0
LINE
8
0
10
278.375
20
-151.9841
11
278.375
21
-153.5841
0
LINE
8
0
10
278.375
20
-153.5841
11
279.496131
21
-153.5841
0
ARC
8
0
10
279.496131
20
-154.5841
40
1
50
368.7879392
51
90
0
ARC
8
0
10
281.275
20
-154.3091
40
0.8
50
188.7879374
51
270
0
LINE
8
0
10
284.15
20
-155.1091
11
281.275
21
-155.1091
0
ARC
8
0
10
284.15
20
-156.2091
40
1.1
50
0
51
90
0
LINE
8
0
10
285.25
20
-156.4591273
11
285.25
21
-156.2091
0
LINE
8
0
10
286.0999727
20
-157.3091
11
285.25
21
-156.4591273
0
LINE
8
0
10
286.0999727
20
-157.3091
11
289.1750273
21
-157.3091
0
LINE
8
0
10
290.025
20
-156.4591273
11
289.1750273
21
-157.3091
0
ARC
8
0
10
290.9707234
20
-156.7841
40
1
50
450
51
521.036079
0
LINE
8
0
10
290.9707234
20
-155.7841
11
292.125
21
-155.7841
0
ARC
8
0
10
293.0708599
20
-156.1086753
40
1
50
448.3301588
51
521.0601522
0
LINE
8
0
10
293.1
20
-155.1091
11
294.8
21
-155.1091
0
LINE
8
0
10
294.8
20
-155.1091
11
294.8
21
-151.2591
0
ARC
8
0
10
294.8062228
20
-150.2591194
40
1
50
142.9455248
51
269.6434575
0
ARC
8
0
10
293.25
20
-149.0841
40
0.95
50
322.9455262
51
598.7551808
0
ARC
8
0
10
292.2385429
20
-150.7512696
40
1
50
689.4805793
51
778.7551808
0
LINE
8
0
10
293.1
20
-151.2591
11
293.1
21
-153.1841
0
ARC
8
0
10
292.1
20
-153.1841
40
1
50
270
51
0
0
LINE
8
0
10
292.1
20
-154.1841
11
290.9707234
21
-154.1841
0
ARC
8
0
10
290.9707234
20
-153.1841
40
1
50
198.963921
51
270
0
LINE
8
0
10
289.1750273
20
-152.6591
11
290.025
21
-153.5090727
0
ARC
8
0
10
289.8272164
20
-151.9010437
40
1
50
126.4050931
51
229.2931447
0
ARC
8
0
10
287.75
20
-149.0841
40
2.5
50
306.4050912
51
411.1618472
0
ARC
8
0
10
289.9449292
20
-146.3578781
40
1
50
486.5075854
51
591.1618469
0
ARC
8
0
10
289.9999231
20
-146.3141
40
1
50
450
51
490.5358033
0
LINE
8
0
10
208.275
20
-139.9133333
11
210.725
21
-139.9133333
0
LINE
8
0
10
210.725
20
-139.9133333
11
210.725
21
-138.9133333
0
LINE
8
0
10
210.725
20
-138.9133333
11
208.275
21
-138.9133333
0
LINE
8
0
10
208.275
20
-138.9133333
11
208.275
21
-139.9133333
0
LINE
8
0
10
229.775
20
-102.6733333
11
232.225
21
-102.6733333
0
LINE
8
0
10
232.225
20
-102.6733333
11
232.225
21
-101.6733333
0
LINE
8
0
10
232.225
20
-101.6733333
11
229.775
21
-101.6733333
0
LINE
8
0
10
229.775
20
-101.6733333
11
229.775
21
-102.6733333
0
LINE
8
0
10
297.275
20
-139.9133333
11
299.725
21
-139.9133333
0
LINE
8
0
10
299.725
20
-139.9133333
11
299.725
21
-138.9133333
0
LINE
8
0
10
299.725
20
-138.9133333
11
297.275
21
-138.9133333
0
LINE
8
0
10
297.275
20
-138.9133333
11
297.275
21
-139.9133333
0
LINE
8
0
10
275.775
20
-102.6733333
11
278.225
21
-102.6733333
0
LINE
8
0
10
278.225
20
-102.6733333
11
278.225
21
-101.6733333
0
LINE
8
0
10
278.225
20
-101.6733333
11
275.775
21
-101.6733333
0
LINE
8
0
10
275.775
20
-101.6733333
11
275.775
21
-102.6733333
0
LINE
8
0
10
259.75
20
-114.68
11
257.5
21
-114.68
0
LINE
8
0
10
250.5
20
-114.68
11
248.25
21
-114.68
0
LINE
8
0
10
248.25
20
-114.68
11
248.25
21
-120.6374488
0
LINE
8
0
10
259.75
20
-120.6374488
11
259.75
21
-114.68
0
LINE
8
0
10
257.5
20
-108.38
11
250.5
21
-108.38
0
LINE
8
0
10
250.5
20
-108.38
11
250.5
21
-114.68
0
LINE
8
0
10
257.5
20
-114.68
11
257.5
21
-108.38
0
ENDSEC
0
EOF