0
SECTION
2
HEADER
9
$INSUNITS
70
4
0
ENDSEC
0
SECTION
2
TABLES
0
TABLE
2
LTYPE
0
LTYPE
72
65
70
64
2
CONTINUOUS
3
______
73
0
40
0
0
ENDTAB
0
TABLE
2
LAYER
0
ENDTAB
0
ENDSEC
0
SECTION
2
ENTITIES
0
LINE
8
0
10
230.73
20
-153.4028525
11
230.73
21
-141.3012438
0
LINE
8
0
10
229.2300274
20
-156.0009129
11
219.98
21
-161.3415489
0
LINE
8
0
10
219.98
20
-161.3415489
11
219.98
21
-161.6533179
0
LINE
8
0
10
219.98
20
-161.6533179
11
211.0000277
21
-166.838037
0
LINE
8
0
10
207.9999721
20
-166.8380375
11
189.4999726
21
-156.1567975
0
LINE
8
0
10
188
20
-153.5587371
11
188
21
-144.6094637
0
LINE
8
0
10
189.4999733
20
-142.0114029
11
197.5200267
21
-137.3809129
0
LINE
8
0
10
199.02
20
-134.7828521
11
199.02
21
-122.6812477
0
LINE
8
0
10
200.5199726
20
-120.0831873
11
208.2700274
21
-115.608582
0
LINE
8
0
10
209.77
20
-113.0105216
11
209.77
21
-104.0612477
0
LINE
8
0
10
211.2699726
20
-101.4631873
11
219.0200274
21
-96.988582
0
LINE
8
0
10
220.52
20
-94.3905216
11
220.52
21
-85.4412477
0
LINE
8
0
10
222.0199726
20
-82.8431873
11
229.7700274
21
-78.368582
0
LINE
8
0
10
231.27
20
-75.7705216
11
231.27
21
-63.9333335
0
LINE
8
0
10
234.27
20
-60.9333335
11
244.57
21
-60.9333333
0
LINE
8
0
10
263.43
20
-60.9333333
11
273.73
21
-60.9333335
0
LINE
8
0
10
276.73
20
-63.9333335
11
276.73
21
-75.7705216
0
LINE
8
0
10
278.2299726
20
-78.368582
11
285.9800274
21
-82.8431873
0
LINE
8
0
10
287.48
20
-85.4412477
11
287.48
21
-94.3905216
0
LINE
8
0
10
288.9799726
20
-96.988582
11
296.7300274
21
-101.4631873
0
LINE
8
0
10
298.23
20
-104.0612477
11
298.23
21
-113.0105216
0
LINE
8
0
10
299.7299726
20
-115.608582
11
307.4800274
21
-120.0831873
0
LINE
8
0
10
308.98
20
-122.6812477
11
308.98
21
-134.7828521
0
LINE
8
0
10
310.4799733
20
-137.3809129
11
318.5000267
21
-142.0114029
0
LINE
8
0
10
320
20
-144.6094637
11
320
21
-153.5587371
0
LINE
8
0
10
318.5000274
20
-156.1567975
11
300.0000279
21
-166.8380375
0
LINE
8
0
10
296.9999723
20
-166.838037
11
288.02
21
-161.6533179
0
LINE
8
0
10
288.02
20
-161.6533179
11
288.02
21
-161.3415489
0
LINE
8
0
10
288.02
20
-161.3415489
11
278.7699726
21
-156.0009129
0
LINE
8
0
10
277.27
20
-153.4028525
11
277.27
21
-141.3012438
0
ARC
8
0
10
227.73
20
-153.4028525
40
3
50
300.0006035
51
0
0
ARC
8
0
10
209.4999995
20
-164.2399771
40
3
50
239.9993965
51
300.0006212
0
ARC
8
0
10
191
20
-153.5587371
40
3
50
180
51
239.9993965
0
ARC
8
0
10
191
20
-144.6094637
40
3
50
120.0005878
51
180
0
ARC
8
0
10
196.02
20
-134.7828521
40
3
50
300.0005878
51
0
0
ARC
8
0
10
202.02
20
-122.6812477
40
3
50
120.0006035
51
180
0
ARC
8
0
10
206.77
20
-113.0105216
40
3
50
300.0006035
51
0
0
ARC
8
0
10
212.77
20
-104.0612477
40
3
50
120.0006035
51
180
0
ARC
8
0
10
217.52
20
-94.3905216
40
3
50
300.0006035
51
0
0
ARC
8
0
10
223.52
20
-85.4412477
40
3
50
120.0006035
51
180
0
ARC
8
0
10
228.27
20
-75.7705216
40
3
50
300.0006035
51
0
0
ARC
8
0
10
234.27
20
-63.9333335
40
3
50
90
51
180
0
ARC
8
0
10
273.73
20
-63.9333335
40
3
50
0
51
90
0
ARC
8
0
10
279.73
20
-75.7705216
40
3
50
180
51
239.9993965
0
ARC
8
0
10
284.48
20
-85.4412477
40
3
50
0
51
59.9993965
0
ARC
8
0
10
290.48
20
-94.3905216
40
3
50
180
51
239.9993965
0
ARC
8
0
10
295.23
20
-104.0612477
40
3
50
0
51
59.9993965
0
ARC
8
0
10
301.23
20
-113.0105216
40
3
50
180
51
239.9993965
0
ARC
8
0
10
305.98
20
-122.6812477
40
3
50
0
51
59.9993965
0
ARC
8
0
10
311.98
20
-134.7828521
40
3
50
180
51
239.9994122
0
ARC
8
0
10
317
20
-144.6094637
40
3
50
0
51
59.9994122
0
ARC
8
0
10
317
20
-153.5587371
40
3
50
300.0006035
51
0
0
ARC
8
0
10
298.5000005
20
-164.2399771
40
3
50
239.9993788
51
300.0006035
0
ARC
8
0
10
280.27
20
-153.4028525
40
3
50
180
51
239.9993965
0
LINE
8
0
10
232.4999677
20
-138.2355325
11
239.7100323
21
-134.0726984
0
LINE
8
0
10
241.48
20
-131.0069871
11
241.48
21
-124.1774488
0
LINE
8
0
10
245.02
20
-120.6374488
11
262.98
21
-120.6374488
0
LINE
8
0
10
266.52
20
-124.1774488
11
266.52
21
-131.0069871
0
LINE
8
0
10
268.2899677
20
-134.0726984
11
275.5000323
21
-138.2355325
0
ARC
8
0
10
273.73
20
-141.3012438
40
3.54
50
0
51
59.9993965
0
ARC
8
0
10
270.06
20
-131.0069871
40
3.54
50
180
51
239.9993965
0
ARC
8
0
10
262.98
20
-124.1774488
40
3.54
50
0
51
90
0
ARC
8
0
10
245.02
20
-124.1774488
40
3.54
50
90
51
180
0
ARC
8
0
10
237.94
20
-131.0069871
40
3.54
50
300.0006035
51
0
0
ARC
8
0
10
234.27
20
-141.3012438
40
3.54
50
120.0006035
51
180
0
LINE
8
0
10
221.9378222
20
-88.0638476
11
227.9378222
21
-98.4561524
0
LINE
8
0
10
229.3038476
20
-98.8221778
11
239.6961524
21
-92.8221778
0
LINE
8
0
10
240.0621778
20
-91.4561524
11
234.0621778
21
-81.0638476
0
LINE
8
0
10
232.6961524
20
-80.6978222
11
222.3038476
21
-86.6978222
0
ARC
8
0
10
228.8038476
20
-97.9561524
40
1
50
210
51
300
0
ARC
8
0
10
239.1961524
20
-91.9561524
40
1
50
300
51
30
0
ARC
8
0
10
233.1961524
20
-81.5638476
40
1
50
30
51
120
0
ARC
8
0
10
222.8038476
20
-87.5638476
40
1
50
120
51
210
0
LINE
8
0
10
217.1878222
20
-99.6838476
11
211.1878222
21
-110.0761524
0
LINE
8
0
10
211.5538476
20
-111.4421778
11
221.9461524
21
-117.4421778
0
LINE
8
0
10
223.3121778
20
-117.0761524
11
229.3121778
21
-106.6838476
0
LINE
8
0
10
228.9461524
20
-105.3178222
11
218.5538476
21
-99.3178222
0
ARC
8
0
10
212.0538476
20
-110.5761524
40
1
50
150
51
240
0
ARC
8
0
10
222.4461524
20
-116.5761524
40
1
50
240
51
330
0
ARC
8
0
10
228.4461524
20
-106.1838476
40
1
50
330
51
60
0
ARC
8
0
10
218.0538476
20
-100.1838476
40
1
50
60
51
150
0
LINE
8
0
10
215.5
20
-120
11
203.5
21
-120
0
LINE
8
0
10
202.5
20
-121
11
202.5
21
-133
0
LINE
8
0
10
203.5
20
-134
11
215.5
21
-134
0
LINE
8
0
10
216.5
20
-133
11
216.5
21
-121
0
ARC
8
0
10
203.5
20
-121
40
1
50
90
51
180
0
ARC
8
0
10
203.5
20
-133
40
1
50
180
51
270
0
ARC
8
0
10
215.5
20
-133
40
1
50
270
51
0
0
ARC
8
0
10
215.5
20
-121
40
1
50
0
51
90
0
LINE
8
0
10
201.8121778
20
-157.7802524
11
207.8121778
21
-147.3879476
0
LINE
8
0
10
207.4461524
20
-146.0219222
11
197.0538476
21
-140.0219222
0
LINE
8
0
10
195.6878222
20
-140.3879476
11
189.6878222
21
-150.7802524
0
LINE
8
0
10
190.0538476
20
-152.1462778
11
200.4461524
21
-158.1462778
0
ARC
8
0
10
206.9461524
20
-146.8879476
40
1
50
330
51
60
0
ARC
8
0
10
196.5538476
20
-140.8879476
40
1
50
60
51
150
0
ARC
8
0
10
190.5538476
20
-151.2802524
40
1
50
150
51
240
0
ARC
8
0
10
200.9461524
20
-157.2802524
40
1
50
240
51
330
0
LINE
8
0
10
238.6878222
20
-99.6838476
11
232.6878222
21
-110.0761524
0
LINE
8
0
10
233.0538476
20
-111.4421778
11
243.4461524
21
-117.4421778
0
LINE
8
0
10
244.8121778
20
-117.0761524
11
250.8121778
21
-106.6838476
0
LINE
8
0
10
250.4461524
20
-105.3178222
11
240.0538476
21
-99.3178222
0
ARC
8
0
10
233.5538476
20
-110.5761524
40
1
50
150
51
240
0
ARC
8
0
10
243.9461524
20
-116.5761524
40
1
50
240
51
330
0
ARC
8
0
10
249.9461524
20
-106.1838476
40
1
50
330
51
60
0
ARC
8
0
10
239.5538476
20
-100.1838476
40
1
50
60
51
150
0
LINE
8
0
10
227.9378222
20
-118.3038476
11
221.9378222
21
-128.6961524
0
LINE
8
0
10
222.3038476
20
-130.0621778
11
232.6961524
21
-136.0621778
0
LINE
8
0
10
234.0621778
20
-135.6961524
11
240.0621778
21
-125.3038476
0
LINE
8
0
10
239.6961524
20
-123.9378222
11
229.3038476
21
-117.9378222
0
ARC
8
0
10
222.8038476
20
-129.1961524
40
1
50
150
51
240
0
ARC
8
0
10
233.1961524
20
-135.1961524
40
1
50
240
51
330
0
ARC
8
0
10
239.1961524
20
-124.8038476
40
1
50
330
51
60
0
ARC
8
0
10
228.8038476
20
-118.8038476
40
1
50
60
51
150
0
LINE
8
0
10
214.25
20
-156.0841
11
226.25
21
-156.0841
0
LINE
8
0
10
227.25
20
-155.0841
11
227.25
21
-143.0841
0
LINE
8
0
10
226.25
20
-142.0841
11
214.25
21
-142.0841
0
LINE
8
0
10
213.25
20
-143.0841
11
213.25
21
-155.0841
0
ARC
8
0
10
226.25
20
-155.0841
40
1
50
270
51
0
0
ARC
8
0
10
226.25
20
-143.0841
40
1
50
0
51
90
0
ARC
8
0
10
214.25
20
-143.0841
40
1
50
90
51
180
0
ARC
8
0
10
214.25
20
-155.0841
40
1
50
180
51
270
0
LINE
8
0
10
280.0621778
20
-98.4561524
11
286.0621778
21
-88.0638476
0
LINE
8
0
10
285.6961524
20
-86.6978222
11
275.3038476
21
-80.6978222
0
LINE
8
0
10
273.9378222
20
-81.0638476
11
267.9378222
21
-91.4561524
0
LINE
8
0
10
268.3038476
20
-92.8221778
11
278.6961524
21
-98.8221778
0
ARC
8
0
10
285.1961524
20
-87.5638476
40
1
50
330
51
60
0
ARC
8
0
10
274.8038476
20
-81.5638476
40
1
50
60
51
150
0
ARC
8
0
10
268.8038476
20
-91.9561524
40
1
50
150
51
240
0
ARC
8
0
10
279.1961524
20
-97.9561524
40
1
50
240
51
330
0
LINE
8
0
10
296.8121778
20
-110.0761524
11
290.8121778
21
-99.6838476
0
LINE
8
0
10
289.4461524
20
-99.3178222
11
279.0538476
21
-105.3178222
0
LINE
8
0
10
278.6878222
20
-106.6838476
11
284.6878222
21
-117.0761524
0
LINE
8
0
10
286.0538476
20
-117.4421778
11
296.4461524
21
-111.4421778
0
ARC
8
0
10
289.9461524
20
-100.1838476
40
1
50
30
51
120
0
ARC
8
0
10
279.5538476
20
-106.1838476
40
1
50
120
51
210
0
ARC
8
0
10
285.5538476
20
-116.5761524
40
1
50
210
51
300
0
ARC
8
0
10
295.9461524
20
-110.5761524
40
1
50
300
51
30
0
LINE
8
0
10
304.5
20
-120
11
292.5
21
-120
0
LINE
8
0
10
291.5
20
-121
11
291.5
21
-133
0
LINE
8
0
10
292.5
20
-134
11
304.5
21
-134
0
LINE
8
0
10
305.5
20
-133
11
305.5
21
-121
0
ARC
8
0
10
292.5
20
-121
40
1
50
90
51
180
0
ARC
8
0
10
292.5
20
-133
40
1
50
180
51
270
0
ARC
8
0
10
304.5
20
-133
40
1
50
270
51
0
0
ARC
8
0
10
304.5
20
-121
40
1
50
0
51
90
0
LINE
8
0
10
300.1878222
20
-147.3879476
11
306.1878222
21
-157.7802524
0
LINE
8
0
10
307.5538476
20
-158.1462778
11
317.9461524
21
-152.1462778
0
LINE
8
0
10
318.3121778
20
-150.7802524
11
312.3121778
21
-140.3879476
0
LINE
8
0
10
310.9461524
20
-140.0219222
11
300.5538476
21
-146.0219222
0
ARC
8
0
10
307.0538476
20
-157.2802524
40
1
50
210
51
300
0
ARC
8
0
10
317.4461524
20
-151.2802524
40
1
50
300
51
30
0
ARC
8
0
10
311.4461524
20
-140.8879476
40
1
50
30
51
120
0
ARC
8
0
10
301.0538476
20
-146.8879476
40
1
50
120
51
210
0
LINE
8
0
10
275.3121778
20
-110.0761524
11
269.3121778
21
-99.6838476
0
LINE
8
0
10
267.9461524
20
-99.3178222
11
257.5538476
21
-105.3178222
0
LINE
8
0
10
257.1878222
20
-106.6838476
11
263.1878222
21
-117.0761524
0
LINE
8
0
10
264.5538476
20
-117.4421778
11
274.9461524
21
-111.4421778
0
ARC
8
0
10
268.4461524
20
-100.1838476
40
1
50
30
51
120
0
ARC
8
0
10
258.0538476
20
-106.1838476
40
1
50
120
51
210
0
ARC
8
0
10
264.0538476
20
-116.5761524
40
1
50
210
51
300
0
ARC
8
0
10
274.4461524
20
-110.5761524
40
1
50
300
51
30
0
LINE
8
0
10
286.0621778
20
-128.6961524
11
280.0621778
21
-118.3038476
0
LINE
8
0
10
278.6961524
20
-117.9378222
11
268.3038476
21
-123.9378222
0
LINE
8
0
10
267.9378222
20
-125.3038476
11
273.9378222
21
-135.6961524
0
LINE
8
0
10
275.3038476
20
-136.0621778
11
285.6961524
21
-130.0621778
0
ARC
8
0
10
279.1961524
20
-118.8038476
40
1
50
30
51
120
0
ARC
8
0
10
268.8038476
20
-124.8038476
40
1
50
120
51
210
0
ARC
8
0
10
274.8038476
20
-135.1961524
40
1
50
210
51
300
0
ARC
8
0
10
285.1961524
20
-129.1961524
40
1
50
300
51
30
0
LINE
8
0
10
281.75
20
-156.0841
11
293.75
21
-156.0841
0
LINE
8
0
10
294.75
20
-155.0841
11
294.75
21
-143.0841
0
LINE
8
0
10
293.75
20
-142.0841
11
281.75
21
-142.0841
0
LINE
8
0
10
280.75
20
-143.0841
11
280.75
21
-155.0841
0
ARC
8
0
10
293.75
20
-155.0841
40
1
50
270
51
0
0
ARC
8
0
10
293.75
20
-143.0841
40
1
50
0
51
90
0
ARC
8
0
10
281.75
20
-143.0841
40
1
50
90
51
180
0
ARC
8
0
10
281.75
20
-155.0841
40
1
50
180
51
270
0
LINE
8
0
10
245.11
20
-94.4933333
11
247.15
21
-94.4933333
0
LINE
8
0
10
260.85
20
-94.4933333
11
262.89
21
-94.4933333
0
LINE
8
0
10
263.43
20
-93.9533333
11
263.43
21
-60.9333333
0
LINE
8
0
10
244.57
20
-60.9333333
11
244.57
21
-93.9533333
0
ARC
8
0
10
262.89
20
-93.9533333
40
0.54
50
270
51
0
0
ARC
8
0
10
245.11
20
-93.9533333
40
0.54
50
180
51
270
0
LINE
8
0
10
247.69
20
-97.5533333
11
260.31
21
-97.5533333
0
LINE
8
0
10
260.85
20
-97.0133333
11
260.85
21
-94.4933333
0
LINE
8
0
10
247.15
20
-94.4933333
11
247.15
21
-97.0133333
0
ARC
8
0
10
260.31
20
-97.0133333
40
0.54
50
270
51
0
0
ARC
8
0
10
247.69
20
-97.0133333
40
0.54
50
180
51
270
0
ENDSEC
0
EOF