0
SECTION
2
HEADER
9
$INSUNITS
70
4
0
ENDSEC
0
SECTION
2
TABLES
0
TABLE
2
LTYPE
0
LTYPE
72
65
70
64
2
CONTINUOUS
3
______
73
0
40
0
0
ENDTAB
0
TABLE
2
LAYER
0
ENDTAB
0
ENDSEC
0
SECTION
2
ENTITIES
0
LINE
8
0
10
209.0947623
20
-75.1472592
11
209.094848
21
-66.8214713
0
LINE
8
0
10
210.864848
20
-63.7557779
11
218.3451519
21
-59.4370224
0
LINE
8
0
10
221.8851203
20
-59.4370041
11
229.3652093
21
-63.7555327
0
LINE
8
0
10
231.1352409
20
-66.8213174
11
231.1351551
21
-75.1471386
0
LINE
8
0
10
232.9051867
20
-78.2129233
11
240.1152093
21
-82.3755327
0
LINE
8
0
10
241.8852409
20
-85.4413174
11
241.8851551
21
-93.7671386
0
LINE
8
0
10
243.6551867
20
-96.8329233
11
250.8652093
21
-100.9955327
0
LINE
8
0
10
252.6352409
20
-104.0613174
11
252.6351519
21
-112.6985288
0
LINE
8
0
10
250.8651519
20
-115.7642222
11
243.6551552
21
-119.9269158
0
LINE
8
0
10
200.1147908
20
-82.3755327
11
207.3247307
21
-78.2129709
0
LINE
8
0
10
198.3448448
20
-93.7670434
11
198.3447591
21
-85.4413173
0
LINE
8
0
10
241.8851551
20
-122.9926821
11
241.8852409
21
-131.3186826
0
LINE
8
0
10
240.1152093
20
-134.3844673
11
232.6351203
21
-138.7029959
0
LINE
8
0
10
229.0951519
20
-138.7029776
11
221.8851552
21
-134.5402841
0
LINE
8
0
10
187.595
20
-112.3869902
11
187.595
21
-104.0612445
0
LINE
8
0
10
189.3649685
20
-100.9955327
11
196.5748762
21
-96.8327916
0
LINE
8
0
10
218.3451237
20
-134.5403022
11
211.1350315
21
-138.7031499
0
LINE
8
0
10
207.5949685
20
-138.7031499
11
200.3850315
21
-134.5403918
0
LINE
8
0
10
218.0750315
20
-160.943167
11
211.1351138
21
-156.9363085
0
LINE
8
0
10
211.1348763
20
-141.8555668
11
218.3449685
21
-137.6927191
0
LINE
8
0
10
221.8850315
20
-137.6927191
11
229.3650315
21
-142.0114018
0
LINE
8
0
10
231.135
20
-145.0771136
11
231.135
21
-153.4028593
0
LINE
8
0
10
196.8449685
20
-134.5403918
11
189.6350315
21
-138.7031499
0
LINE
8
0
10
186.0949685
20
-138.7031499
11
178.6149685
21
-134.3844672
0
LINE
8
0
10
176.845
20
-131.3187554
11
176.845
21
-122.6812445
0
LINE
8
0
10
178.6149685
20
-119.6155327
11
185.8250315
21
-115.452702
0
LINE
8
0
10
207.595114
20
-156.9362721
11
200.3851204
21
-161.0988649
0
LINE
8
0
10
196.8451521
20
-161.0988467
11
189.3648481
21
-156.7800912
0
LINE
8
0
10
187.5948481
20
-153.7143978
11
187.5947591
21
-145.0771864
0
LINE
8
0
10
189.3647907
20
-142.0114017
11
196.8448797
21
-137.6928731
0
LINE
8
0
10
200.3848481
20
-137.6928914
11
207.5948448
21
-141.8555849
0
LINE
8
0
10
229.0949685
20
-179.719019
11
221.6149685
21
-175.4003363
0
LINE
8
0
10
219.845
20
-172.3346245
11
219.845
21
-164.0088788
0
LINE
8
0
10
232.9049685
20
-156.4685711
11
240.1150315
21
-160.6314018
0
LINE
8
0
10
241.885
20
-163.6971136
11
241.885
21
-172.3346245
0
LINE
8
0
10
240.1150315
20
-175.4003363
11
232.6350315
21
-179.719019
0
LINE
8
0
10
276.8648449
20
-75.1471386
11
276.8647591
21
-66.8213174
0
LINE
8
0
10
278.6347907
20
-63.7555327
11
286.1148797
21
-59.4370041
0
LINE
8
0
10
289.6548481
20
-59.4370224
11
297.135152
21
-63.7557779
0
LINE
8
0
10
298.905152
20
-66.8214713
11
298.9052377
21
-75.1472592
0
LINE
8
0
10
266.1148449
20
-93.7671386
11
266.1147591
21
-85.4413174
0
LINE
8
0
10
267.8847907
20
-82.3755327
11
275.0948133
21
-78.2129233
0
LINE
8
0
10
264.3448449
20
-119.9269158
11
257.1348481
21
-115.7642222
0
LINE
8
0
10
255.3648481
20
-112.6985288
11
255.3647591
21
-104.0613174
0
LINE
8
0
10
257.1347907
20
-100.9955327
11
264.3448133
21
-96.8329233
0
LINE
8
0
10
309.6552409
20
-85.4413173
11
309.6551552
21
-93.7670434
0
LINE
8
0
10
300.6752693
20
-78.2129709
11
307.8852092
21
-82.3755327
0
LINE
8
0
10
286.1148448
20
-134.5402841
11
278.9048481
21
-138.7029777
0
LINE
8
0
10
275.3648795
20
-138.7029958
11
267.8847906
21
-134.3844671
0
LINE
8
0
10
266.1147591
20
-131.3186826
11
266.1148449
21
-122.9926821
0
LINE
8
0
10
311.4251238
20
-96.8327916
11
318.6350315
21
-100.9955327
0
LINE
8
0
10
320.405
20
-104.0612445
11
320.405
21
-112.3869902
0
LINE
8
0
10
307.6149685
20
-134.5403918
11
300.4050315
21
-138.7031499
0
LINE
8
0
10
296.8649685
20
-138.7031499
11
289.6548763
21
-134.5403022
0
LINE
8
0
10
276.865
20
-153.4028593
11
276.865
21
-145.0771136
0
LINE
8
0
10
278.6349685
20
-142.0114018
11
286.1149685
21
-137.6927191
0
LINE
8
0
10
289.6550315
20
-137.6927191
11
296.8651237
21
-141.8555668
0
LINE
8
0
10
296.8648862
20
-156.9363085
11
289.9249685
21
-160.943167
0
LINE
8
0
10
322.1749685
20
-115.452702
11
329.3850315
21
-119.6155327
0
LINE
8
0
10
331.155
20
-122.6812445
11
331.155
21
-131.3187554
0
LINE
8
0
10
329.3850315
20
-134.3844672
11
321.9050315
21
-138.7031499
0
LINE
8
0
10
318.3649685
20
-138.7031499
11
311.1550315
21
-134.5403918
0
LINE
8
0
10
300.4051552
20
-141.8555849
11
307.6151519
21
-137.6928914
0
LINE
8
0
10
311.1551203
20
-137.6928731
11
318.6352093
21
-142.0114017
0
LINE
8
0
10
320.4052409
20
-145.0771864
11
320.4051519
21
-153.7143978
0
LINE
8
0
10
318.6351519
20
-156.7800912
11
311.1548479
21
-161.0988467
0
LINE
8
0
10
307.6148796
20
-161.0988649
11
300.404886
21
-156.9362721
0
LINE
8
0
10
275.3649685
20
-179.719019
11
267.8849685
21
-175.4003363
0
LINE
8
0
10
266.115
20
-172.3346245
11
266.115
21
-163.6971136
0
LINE
8
0
10
267.8849685
20
-160.6314018
11
275.0950315
21
-156.4685711
0
LINE
8
0
10
288.155
20
-164.0088788
11
288.155
21
-172.3346245
0
LINE
8
0
10
286.3850315
20
-175.4003363
11
278.9050315
21
-179.719019
0
ARC
8
0
10
212.634848
20
-66.8215078
40
3.54
50
120.0000001
51
179.9994099
0
ARC
8
0
10
220.1151519
20
-62.5027523
40
3.54
50
60.0005905
51
120.0000001
0
ARC
8
0
10
227.5952409
20
-66.8212809
40
3.54
50
359.9994098
51
60.0005905
0
ARC
8
0
10
234.6751551
20
-75.1471751
40
3.54
50
179.9994098
51
240.0005905
0
ARC
8
0
10
238.3452409
20
-85.4412809
40
3.54
50
359.9994099
51
60.0005905
0
ARC
8
0
10
245.4251551
20
-93.7671751
40
3.54
50
179.9994099
51
240.0005905
0
ARC
8
0
10
249.0952409
20
-104.0612809
40
3.54
50
359.9994098
51
60.0005905
0
ARC
8
0
10
249.0951519
20
-112.6984923
40
3.54
50
300.0000001
51
359.9994098
0
ARC
8
0
10
245.4251551
20
-122.9926457
40
3.54
50
120.0000001
51
180.0005902
0
ARC
8
0
10
238.3452409
20
-131.3187191
40
3.54
50
299.9994095
51
0.0005902
0
ARC
8
0
10
230.8651519
20
-135.6372477
40
3.54
50
239.9999999
51
299.9994095
0
ARC
8
0
10
220.1151552
20
-137.606014
40
3.54
50
59.9999999
51
120.0005878
0
ARC
8
0
10
209.365
20
-135.6374381
40
3.54
50
239.9994122
51
300.0005878
0
ARC
8
0
10
198.615
20
-137.6061036
40
3.54
50
59.9994122
51
120.0005878
0
ARC
8
0
10
187.865
20
-135.6374381
40
3.54
50
239.9994122
51
300.0005878
0
ARC
8
0
10
180.385
20
-131.3187554
40
3.54
50
180
51
239.9994122
0
ARC
8
0
10
180.385
20
-122.6812445
40
3.54
50
120.0005878
51
180
0
ARC
8
0
10
184.055
20
-112.3869902
40
3.54
50
300.0005878
51
0
0
ARC
8
0
10
191.135
20
-104.0612445
40
3.54
50
120.0005878
51
180
0
ARC
8
0
10
194.8048448
20
-93.7670798
40
3.54
50
300.0005878
51
0.0005902
0
ARC
8
0
10
201.8847591
20
-85.4412808
40
3.54
50
119.9994095
51
180.0005901
0
ARC
8
0
10
205.5547623
20
-75.1472228
40
3.54
50
299.9994095
51
359.9994098
0
ARC
8
0
10
280.4047591
20
-66.8212809
40
3.54
50
119.9994095
51
180.0005901
0
ARC
8
0
10
287.8848481
20
-62.5027523
40
3.54
50
59.9999999
51
119.9994095
0
ARC
8
0
10
295.365152
20
-66.8215078
40
3.54
50
0.0005902
51
59.9999999
0
ARC
8
0
10
302.4452377
20
-75.1472228
40
3.54
50
180.0005901
51
240.0005905
0
ARC
8
0
10
306.1152409
20
-85.4412808
40
3.54
50
359.9994098
51
60.0005905
0
ARC
8
0
10
313.1951552
20
-93.7670798
40
3.54
50
179.9994099
51
239.9994122
0
ARC
8
0
10
316.865
20
-104.0612445
40
3.54
50
0
51
59.9994122
0
ARC
8
0
10
323.945
20
-112.3869902
40
3.54
50
180
51
239.9994122
0
ARC
8
0
10
327.615
20
-122.6812445
40
3.54
50
0
51
59.9994122
0
ARC
8
0
10
327.615
20
-131.3187554
40
3.54
50
300.0005878
51
0
0
ARC
8
0
10
320.135
20
-135.6374381
40
3.54
50
239.9994122
51
300.0005878
0
ARC
8
0
10
309.385
20
-137.6061036
40
3.54
50
59.9994122
51
120.0005878
0
ARC
8
0
10
298.635
20
-135.6374381
40
3.54
50
239.9994122
51
300.0005878
0
ARC
8
0
10
287.8848448
20
-137.606014
40
3.54
50
59.9994122
51
120.0000001
0
ARC
8
0
10
277.1348481
20
-135.6372478
40
3.54
50
240.0005876
51
300.0000001
0
ARC
8
0
10
269.6547591
20
-131.318719
40
3.54
50
179.9994098
51
240.0005876
0
ARC
8
0
10
262.5748449
20
-122.9926457
40
3.54
50
359.9994098
51
59.9999999
0
ARC
8
0
10
258.9048481
20
-112.6984923
40
3.54
50
180.0005901
51
239.9999999
0
ARC
8
0
10
258.9047591
20
-104.0612809
40
3.54
50
119.9994095
51
180.0005901
0
ARC
8
0
10
262.5748449
20
-93.7671751
40
3.54
50
299.9994095
51
0.0005901
0
ARC
8
0
10
269.6547591
20
-85.4412809
40
3.54
50
119.9994095
51
180.00059
0
ARC
8
0
10
273.3248449
20
-75.1471751
40
3.54
50
299.9994095
51
0.0005901
0
ARC
8
0
10
209.3650824
20
-160.0020203
40
3.54
50
59.9994122
51
119.9994095
0
ARC
8
0
10
198.6151521
20
-158.0331168
40
3.54
50
239.9999999
51
299.9994095
0
ARC
8
0
10
191.1348481
20
-153.7143613
40
3.54
50
180.0005901
51
239.9999999
0
ARC
8
0
10
191.1347591
20
-145.0771499
40
3.54
50
119.9994095
51
180.0005902
0
ARC
8
0
10
198.6148481
20
-140.7586213
40
3.54
50
59.9999999
51
119.9994095
0
ARC
8
0
10
209.3648448
20
-138.789855
40
3.54
50
239.9999999
51
300.0005878
0
ARC
8
0
10
220.115
20
-140.7584309
40
3.54
50
59.9994122
51
120.0005878
0
ARC
8
0
10
227.595
20
-145.0771136
40
3.54
50
0
51
59.9994122
0
ARC
8
0
10
234.675
20
-153.4028593
40
3.54
50
180
51
239.9994122
0
ARC
8
0
10
238.345
20
-163.6971136
40
3.54
50
0
51
59.9994122
0
ARC
8
0
10
238.345
20
-172.3346245
40
3.54
50
300.0005878
51
0
0
ARC
8
0
10
230.865
20
-176.6533072
40
3.54
50
239.9994122
51
300.0005878
0
ARC
8
0
10
223.385
20
-172.3346245
40
3.54
50
180
51
239.9994122
0
ARC
8
0
10
216.305
20
-164.0088788
40
3.54
50
0
51
59.9994122
0
ARC
8
0
10
280.405
20
-145.0771136
40
3.54
50
120.0005878
51
180
0
ARC
8
0
10
287.885
20
-140.7584309
40
3.54
50
59.9994122
51
120.0005878
0
ARC
8
0
10
298.6351552
20
-138.789855
40
3.54
50
239.9994122
51
300.0000001
0
ARC
8
0
10
309.3851519
20
-140.7586213
40
3.54
50
60.0005905
51
120.0000001
0
ARC
8
0
10
316.8652409
20
-145.0771499
40
3.54
50
359.9994099
51
60.0005905
0
ARC
8
0
10
316.8651519
20
-153.7143613
40
3.54
50
300.0000001
51
359.9994099
0
ARC
8
0
10
309.3848479
20
-158.0331168
40
3.54
50
240.0005905
51
300.0000001
0
ARC
8
0
10
298.6349176
20
-160.0020203
40
3.54
50
60.0005905
51
120.0005878
0
ARC
8
0
10
291.695
20
-164.0088788
40
3.54
50
120.0005878
51
180
0
ARC
8
0
10
284.615
20
-172.3346245
40
3.54
50
300.0005878
51
0
0
ARC
8
0
10
277.135
20
-176.6533072
40
3.54
50
239.9994122
51
300.0005878
0
ARC
8
0
10
269.655
20
-172.3346245
40
3.54
50
180
51
239.9994122
0
ARC
8
0
10
269.655
20
-163.6971136
40
3.54
50
120.0005878
51
180
0
ARC
8
0
10
273.325
20
-153.4028593
40
3.54
50
300.0005878
51
0
0
ENDSEC
0
EOF