0
SECTION
2
HEADER
9
$INSUNITS
70
4
0
ENDSEC
0
SECTION
2
TABLES
0
TABLE
2
LTYPE
0
LTYPE
72
65
70
64
2
CONTINUOUS
3
______
73
0
40
0
0
ENDTAB
0
TABLE
2
LAYER
0
ENDTAB
0
ENDSEC
0
SECTION
2
ENTITIES
0
LINE
8
0
10
230.73
20
-153.4028525
11
230.73
21
-140.9894785
0
LINE
8
0
10
229.2300274
20
-156.0009129
11
221.6150304
21
-160.3975406
0
LINE
8
0
10
197.1149702
20
-160.5534255
11
189.4999726
21
-156.1567975
0
LINE
8
0
10
188
20
-153.5587371
11
188
21
-144.6094637
0
LINE
8
0
10
189.4999733
20
-142.0114029
11
197.5200267
21
-137.3809129
0
LINE
8
0
10
199.02
20
-134.7828521
11
199.02
21
-122.6812477
0
LINE
8
0
10
200.5199726
20
-120.0831873
11
208.2700274
21
-115.608582
0
LINE
8
0
10
209.77
20
-113.0105216
11
209.77
21
-104.0612477
0
LINE
8
0
10
211.2699726
20
-101.4631873
11
219.0200274
21
-96.988582
0
LINE
8
0
10
220.52
20
-94.3905216
11
220.52
21
-85.4412477
0
LINE
8
0
10
222.0199726
20
-82.8431873
11
229.7700274
21
-78.368582
0
LINE
8
0
10
278.2299726
20
-78.368582
11
285.9800274
21
-82.8431873
0
LINE
8
0
10
287.48
20
-85.4412477
11
287.48
21
-94.3905216
0
LINE
8
0
10
288.9799726
20
-96.988582
11
296.7300274
21
-101.4631873
0
LINE
8
0
10
298.23
20
-104.0612477
11
298.23
21
-113.0105216
0
LINE
8
0
10
299.7299726
20
-115.608582
11
307.4800274
21
-120.0831873
0
LINE
8
0
10
308.98
20
-122.6812477
11
308.98
21
-134.7828521
0
LINE
8
0
10
310.4799733
20
-137.3809129
11
318.5000267
21
-142.0114029
0
LINE
8
0
10
320
20
-144.6094637
11
320
21
-153.5587371
0
LINE
8
0
10
318.5000274
20
-156.1567975
11
310.8850298
21
-160.5534255
0
LINE
8
0
10
286.3849696
20
-160.3975406
11
278.7699726
21
-156.0009129
0
LINE
8
0
10
277.27
20
-153.4028525
11
277.27
21
-140.9894785
0
ARC
8
0
10
227.73
20
-153.4028525
40
3
50
300.0006035
51
0
0
ARC
8
0
10
191
20
-153.5587371
40
3
50
180
51
239.9993965
0
ARC
8
0
10
191
20
-144.6094637
40
3
50
120.0005878
51
180
0
ARC
8
0
10
196.02
20
-134.7828521
40
3
50
300.0005878
51
0
0
ARC
8
0
10
202.02
20
-122.6812477
40
3
50
120.0006035
51
180
0
ARC
8
0
10
206.77
20
-113.0105216
40
3
50
300.0006035
51
0
0
ARC
8
0
10
212.77
20
-104.0612477
40
3
50
120.0006035
51
180
0
ARC
8
0
10
217.52
20
-94.3905216
40
3
50
300.0006035
51
0
0
ARC
8
0
10
223.52
20
-85.4412477
40
3
50
120.0006035
51
180
0
ARC
8
0
10
228.27
20
-75.7705216
40
3
50
300.0006035
51
325.2231556
0
ARC
8
0
10
279.73
20
-75.7705216
40
3
50
214.7768444
51
239.9993965
0
ARC
8
0
10
284.48
20
-85.4412477
40
3
50
0
51
59.9993965
0
ARC
8
0
10
290.48
20
-94.3905216
40
3
50
180
51
239.9993965
0
ARC
8
0
10
295.23
20
-104.0612477
40
3
50
0
51
59.9993965
0
ARC
8
0
10
301.23
20
-113.0105216
40
3
50
180
51
239.9993965
0
ARC
8
0
10
305.98
20
-122.6812477
40
3
50
0
51
59.9993965
0
ARC
8
0
10
311.98
20
-134.7828521
40
3
50
180
51
239.9994122
0
ARC
8
0
10
317
20
-144.6094637
40
3
50
0
51
59.9994122
0
ARC
8
0
10
317
20
-153.5587371
40
3
50
300.0006035
51
0
0
ARC
8
0
10
280.27
20
-153.4028525
40
3
50
180
51
239.9993965
0
LINE
8
0
10
232.2299726
20
-138.3914181
11
239.9800274
21
-133.9168128
0
LINE
8
0
10
241.48
20
-131.3187524
11
241.48
21
-123.6374488
0
LINE
8
0
10
244.48
20
-120.6374488
11
263.52
21
-120.6374488
0
LINE
8
0
10
266.52
20
-123.6374488
11
266.52
21
-131.3187524
0
LINE
8
0
10
268.0199726
20
-133.9168128
11
275.7700274
21
-138.3914181
0
ARC
8
0
10
274.27
20
-140.9894785
40
3
50
0
51
59.9993965
0
ARC
8
0
10
269.52
20
-131.3187524
40
3
50
180
51
239.9993965
0
ARC
8
0
10
263.52
20
-123.6374488
40
3
50
0
51
90
0
ARC
8
0
10
244.48
20
-123.6374488
40
3
50
90
51
180
0
ARC
8
0
10
238.48
20
-131.3187524
40
3
50
300.0006035
51
0
0
ARC
8
0
10
233.73
20
-140.9894785
40
3
50
120.0006035
51
180
0
LINE
8
0
10
230.7341394
20
-77.4816666
11
244.57
21
-77.4816666
0
LINE
8
0
10
263.43
20
-77.4816666
11
277.2658606
21
-77.4816666
0
LINE
8
0
10
200.3850298
20
-160.5534255
11
207.8649696
21
-156.234775
0
LINE
8
0
10
211.1350302
20
-156.2347754
11
218.3449698
21
-160.3975402
0
LINE
8
0
10
289.6550302
20
-160.3975402
11
296.8649698
21
-156.2347754
0
LINE
8
0
10
300.1350304
20
-156.234775
11
307.6149702
21
-160.5534255
0
ARC
8
0
10
219.9800006
20
-157.5656548
40
3.27
50
239.9993788
51
300.0006035
0
ARC
8
0
10
209.4999994
20
-159.0666608
40
3.27
50
59.9993788
51
120.0006035
0
ARC
8
0
10
198.75
20
-157.7215396
40
3.27
50
239.9993965
51
300.0006035
0
ARC
8
0
10
309.25
20
-157.7215396
40
3.27
50
239.9993965
51
300.0006035
0
ARC
8
0
10
298.5000006
20
-159.0666608
40
3.27
50
59.9993965
51
120.0006212
0
ARC
8
0
10
288.0199994
20
-157.5656548
40
3.27
50
239.9993965
51
300.0006212
0
LINE
8
0
10
195.22202
20
-148.8947406
11
196.82202
21
-146.1234594
0
LINE
8
0
10
196.7488149
20
-145.8502543
11
194.4105463
21
-144.5002543
0
LINE
8
0
10
194.1373412
20
-144.5734594
11
192.5373412
21
-147.3447406
0
LINE
8
0
10
192.6105463
20
-147.6179457
11
194.9488149
21
-148.9679457
0
ARC
8
0
10
196.6488149
20
-146.0234594
40
0.2
50
330
51
60
0
ARC
8
0
10
194.3105463
20
-144.6734594
40
0.2
50
60
51
150
0
ARC
8
0
10
192.7105463
20
-147.4447406
40
0.2
50
150
51
240
0
ARC
8
0
10
195.0488149
20
-148.7947406
40
0.2
50
240
51
330
0
LINE
8
0
10
211.1
20
-130.15
11
207.9
21
-130.15
0
LINE
8
0
10
207.7
20
-130.35
11
207.7
21
-133.05
0
LINE
8
0
10
207.9
20
-133.25
11
211.1
21
-133.25
0
LINE
8
0
10
211.3
20
-133.05
11
211.3
21
-130.35
0
ARC
8
0
10
207.9
20
-130.35
40
0.2
50
90
51
180
0
ARC
8
0
10
207.9
20
-133.05
40
0.2
50
180
51
270
0
ARC
8
0
10
211.1
20
-133.05
40
0.2
50
270
51
0
0
ARC
8
0
10
211.1
20
-130.35
40
0.2
50
0
51
90
0
LINE
8
0
10
223.77798
20
-108.5693594
11
222.17798
21
-111.3406406
0
LINE
8
0
10
222.2511851
20
-111.6138457
11
224.5894537
21
-112.9638457
0
LINE
8
0
10
224.8626588
20
-112.8906406
11
226.4626588
21
-110.1193594
0
LINE
8
0
10
226.3894537
20
-109.8461543
11
224.0511851
21
-108.4961543
0
ARC
8
0
10
222.3511851
20
-111.4406406
40
0.2
50
150
51
240
0
ARC
8
0
10
224.6894537
20
-112.7906406
40
0.2
50
240
51
330
0
ARC
8
0
10
226.2894537
20
-110.0193594
40
0.2
50
330
51
60
0
ARC
8
0
10
223.9511851
20
-108.6693594
40
0.2
50
60
51
150
0
LINE
8
0
10
232.92798
20
-86.7993594
11
234.52798
21
-89.5706406
0
LINE
8
0
10
234.8011851
20
-89.6438457
11
237.1394537
21
-88.2938457
0
LINE
8
0
10
237.2126588
20
-88.0206406
11
235.6126588
21
-85.2493594
0
LINE
8
0
10
235.3394537
20
-85.1761543
11
233.0011851
21
-86.5261543
0
ARC
8
0
10
234.7011851
20
-89.4706406
40
0.2
50
210
51
300
0
ARC
8
0
10
237.0394537
20
-88.1206406
40
0.2
50
300
51
30
0
ARC
8
0
10
235.4394537
20
-85.3493594
40
0.2
50
30
51
120
0
ARC
8
0
10
233.1011851
20
-86.6993594
40
0.2
50
120
51
210
0
LINE
8
0
10
218.65
20
-145.9341
11
221.85
21
-145.9341
0
LINE
8
0
10
222.05
20
-145.7341
11
222.05
21
-143.0341
0
LINE
8
0
10
221.85
20
-142.8341
11
218.65
21
-142.8341
0
LINE
8
0
10
218.45
20
-143.0341
11
218.45
21
-145.7341
0
ARC
8
0
10
221.85
20
-145.7341
40
0.2
50
270
51
0
0
ARC
8
0
10
221.85
20
-143.0341
40
0.2
50
0
51
90
0
ARC
8
0
10
218.65
20
-143.0341
40
0.2
50
90
51
180
0
ARC
8
0
10
218.65
20
-145.7341
40
0.2
50
180
51
270
0
LINE
8
0
10
234.52798
20
-127.1893594
11
232.92798
21
-129.9606406
0
LINE
8
0
10
233.0011851
20
-130.2338457
11
235.3394537
21
-131.5838457
0
LINE
8
0
10
235.6126588
20
-131.5106406
11
237.2126588
21
-128.7393594
0
LINE
8
0
10
237.1394537
20
-128.4661543
11
234.8011851
21
-127.1161543
0
ARC
8
0
10
233.1011851
20
-130.0606406
40
0.2
50
150
51
240
0
ARC
8
0
10
235.4394537
20
-131.4106406
40
0.2
50
240
51
330
0
ARC
8
0
10
237.0394537
20
-128.6393594
40
0.2
50
330
51
60
0
ARC
8
0
10
234.7011851
20
-127.2893594
40
0.2
50
60
51
150
0
LINE
8
0
10
245.27798
20
-108.5693594
11
243.67798
21
-111.3406406
0
LINE
8
0
10
243.7511851
20
-111.6138457
11
246.0894537
21
-112.9638457
0
LINE
8
0
10
246.3626588
20
-112.8906406
11
247.9626588
21
-110.1193594
0
LINE
8
0
10
247.8894537
20
-109.8461543
11
245.5511851
21
-108.4961543
0
ARC
8
0
10
243.8511851
20
-111.4406406
40
0.2
50
150
51
240
0
ARC
8
0
10
246.1894537
20
-112.7906406
40
0.2
50
240
51
330
0
ARC
8
0
10
247.7894537
20
-110.0193594
40
0.2
50
330
51
60
0
ARC
8
0
10
245.4511851
20
-108.6693594
40
0.2
50
60
51
150
0
LINE
8
0
10
311.17798
20
-146.1234594
11
312.77798
21
-148.8947406
0
LINE
8
0
10
313.0511851
20
-148.9679457
11
315.3894537
21
-147.6179457
0
LINE
8
0
10
315.4626588
20
-147.3447406
11
313.8626588
21
-144.5734594
0
LINE
8
0
10
313.5894537
20
-144.5002543
11
311.2511851
21
-145.8502543
0
ARC
8
0
10
312.9511851
20
-148.7947406
40
0.2
50
210
51
300
0
ARC
8
0
10
315.2894537
20
-147.4447406
40
0.2
50
300
51
30
0
ARC
8
0
10
313.6894537
20
-144.6734594
40
0.2
50
30
51
120
0
ARC
8
0
10
311.3511851
20
-146.0234594
40
0.2
50
120
51
210
0
LINE
8
0
10
300.1
20
-130.15
11
296.9
21
-130.15
0
LINE
8
0
10
296.7
20
-130.35
11
296.7
21
-133.05
0
LINE
8
0
10
296.9
20
-133.25
11
300.1
21
-133.25
0
LINE
8
0
10
300.3
20
-133.05
11
300.3
21
-130.35
0
ARC
8
0
10
296.9
20
-130.35
40
0.2
50
90
51
180
0
ARC
8
0
10
296.9
20
-133.05
40
0.2
50
180
51
270
0
ARC
8
0
10
300.1
20
-133.05
40
0.2
50
270
51
0
0
ARC
8
0
10
300.1
20
-130.35
40
0.2
50
0
51
90
0
LINE
8
0
10
285.82202
20
-111.3406406
11
284.22202
21
-108.5693594
0
LINE
8
0
10
283.9488149
20
-108.4961543
11
281.6105463
21
-109.8461543
0
LINE
8
0
10
281.5373412
20
-110.1193594
11
283.1373412
21
-112.8906406
0
LINE
8
0
10
283.4105463
20
-112.9638457
11
285.7488149
21
-111.6138457
0
ARC
8
0
10
284.0488149
20
-108.6693594
40
0.2
50
30
51
120
0
ARC
8
0
10
281.7105463
20
-110.0193594
40
0.2
50
120
51
210
0
ARC
8
0
10
283.3105463
20
-112.7906406
40
0.2
50
210
51
300
0
ARC
8
0
10
285.6488149
20
-111.4406406
40
0.2
50
300
51
30
0
LINE
8
0
10
273.47202
20
-89.5706406
11
275.07202
21
-86.7993594
0
LINE
8
0
10
274.9988149
20
-86.5261543
11
272.6605463
21
-85.1761543
0
LINE
8
0
10
272.3873412
20
-85.2493594
11
270.7873412
21
-88.0206406
0
LINE
8
0
10
270.8605463
20
-88.2938457
11
273.1988149
21
-89.6438457
0
ARC
8
0
10
274.8988149
20
-86.6993594
40
0.2
50
330
51
60
0
ARC
8
0
10
272.5605463
20
-85.3493594
40
0.2
50
60
51
150
0
ARC
8
0
10
270.9605463
20
-88.1206406
40
0.2
50
150
51
240
0
ARC
8
0
10
273.2988149
20
-89.4706406
40
0.2
50
240
51
330
0
LINE
8
0
10
286.15
20
-145.9341
11
289.35
21
-145.9341
0
LINE
8
0
10
289.55
20
-145.7341
11
289.55
21
-143.0341
0
LINE
8
0
10
289.35
20
-142.8341
11
286.15
21
-142.8341
0
LINE
8
0
10
285.95
20
-143.0341
11
285.95
21
-145.7341
0
ARC
8
0
10
289.35
20
-145.7341
40
0.2
50
270
51
0
0
ARC
8
0
10
289.35
20
-143.0341
40
0.2
50
0
51
90
0
ARC
8
0
10
286.15
20
-143.0341
40
0.2
50
90
51
180
0
ARC
8
0
10
286.15
20
-145.7341
40
0.2
50
180
51
270
0
LINE
8
0
10
275.07202
20
-129.9606406
11
273.47202
21
-127.1893594
0
LINE
8
0
10
273.1988149
20
-127.1161543
11
270.8605463
21
-128.4661543
0
LINE
8
0
10
270.7873412
20
-128.7393594
11
272.3873412
21
-131.5106406
0
LINE
8
0
10
272.6605463
20
-131.5838457
11
274.9988149
21
-130.2338457
0
ARC
8
0
10
273.2988149
20
-127.2893594
40
0.2
50
30
51
120
0
ARC
8
0
10
270.9605463
20
-128.6393594
40
0.2
50
120
51
210
0
ARC
8
0
10
272.5605463
20
-131.4106406
40
0.2
50
210
51
300
0
ARC
8
0
10
274.8988149
20
-130.0606406
40
0.2
50
300
51
30
0
LINE
8
0
10
264.32202
20
-111.3406406
11
262.72202
21
-108.5693594
0
LINE
8
0
10
262.4488149
20
-108.4961543
11
260.1105463
21
-109.8461543
0
LINE
8
0
10
260.0373412
20
-110.1193594
11
261.6373412
21
-112.8906406
0
LINE
8
0
10
261.9105463
20
-112.9638457
11
264.2488149
21
-111.6138457
0
ARC
8
0
10
262.5488149
20
-108.6693594
40
0.2
50
30
51
120
0
ARC
8
0
10
260.2105463
20
-110.0193594
40
0.2
50
120
51
210
0
ARC
8
0
10
261.8105463
20
-112.7906406
40
0.2
50
210
51
300
0
ARC
8
0
10
264.1488149
20
-111.4406406
40
0.2
50
300
51
30
0
LINE
8
0
10
245.11
20
-96.7612833
11
262.89
21
-96.7612833
0
LINE
8
0
10
263.43
20
-96.2212833
11
263.43
21
-77.4816666
0
LINE
8
0
10
244.57
20
-77.4816666
11
244.57
21
-96.2212833
0
ARC
8
0
10
262.89
20
-96.2212833
40
0.54
50
270
51
0
0
ARC
8
0
10
245.11
20
-96.2212833
40
0.54
50
180
51
270
0
ENDSEC
0
EOF