0
SECTION
2
HEADER
9
$INSUNITS
70
4
0
ENDSEC
0
SECTION
2
TABLES
0
TABLE
2
LTYPE
0
LTYPE
72
65
70
64
2
CONTINUOUS
3
______
73
0
40
0
0
ENDTAB
0
TABLE
2
LAYER
0
ENDTAB
0
ENDSEC
0
SECTION
2
ENTITIES
0
LINE
8
0
10
230.73
20
-153.4028525
11
230.73
21
-141.1453593
0
LINE
8
0
10
229.2300274
20
-156.0009129
11
219.98
21
-161.3415489
0
LINE
8
0
10
219.98
20
-161.3415489
11
219.98
21
-161.6533179
0
LINE
8
0
10
219.98
20
-161.6533179
11
211.0000277
21
-166.838037
0
LINE
8
0
10
207.9999721
20
-166.8380375
11
189.4999726
21
-156.1567975
0
LINE
8
0
10
188
20
-153.5587371
11
188
21
-144.6094637
0
LINE
8
0
10
189.4999733
20
-142.0114029
11
197.5200267
21
-137.3809129
0
LINE
8
0
10
199.02
20
-134.7828521
11
199.02
21
-122.6812477
0
LINE
8
0
10
200.5199726
20
-120.0831873
11
208.2700274
21
-115.608582
0
LINE
8
0
10
209.77
20
-113.0105216
11
209.77
21
-104.0612477
0
LINE
8
0
10
211.2699726
20
-101.4631873
11
219.0200274
21
-96.988582
0
LINE
8
0
10
220.52
20
-94.3905216
11
220.52
21
-85.4412477
0
LINE
8
0
10
222.0199726
20
-82.8431873
11
229.7700274
21
-78.368582
0
LINE
8
0
10
231.27
20
-75.7705216
11
231.27
21
-66.2012835
0
LINE
8
0
10
234.27
20
-63.2012835
11
244.57
21
-63.2012833
0
LINE
8
0
10
263.43
20
-63.2012833
11
273.73
21
-63.2012835
0
LINE
8
0
10
276.73
20
-66.2012835
11
276.73
21
-75.7705216
0
LINE
8
0
10
278.2299726
20
-78.368582
11
285.9800274
21
-82.8431873
0
LINE
8
0
10
287.48
20
-85.4412477
11
287.48
21
-94.3905216
0
LINE
8
0
10
288.9799726
20
-96.988582
11
296.7300274
21
-101.4631873
0
LINE
8
0
10
298.23
20
-104.0612477
11
298.23
21
-113.0105216
0
LINE
8
0
10
299.7299726
20
-115.608582
11
307.4800274
21
-120.0831873
0
LINE
8
0
10
308.98
20
-122.6812477
11
308.98
21
-134.7828521
0
LINE
8
0
10
310.4799733
20
-137.3809129
11
318.5000267
21
-142.0114029
0
LINE
8
0
10
320
20
-144.6094637
11
320
21
-153.5587371
0
LINE
8
0
10
318.5000274
20
-156.1567975
11
300.0000279
21
-166.8380375
0
LINE
8
0
10
296.9999723
20
-166.838037
11
288.02
21
-161.6533179
0
LINE
8
0
10
288.02
20
-161.6533179
11
288.02
21
-161.3415489
0
LINE
8
0
10
288.02
20
-161.3415489
11
278.7699726
21
-156.0009129
0
LINE
8
0
10
277.27
20
-153.4028525
11
277.27
21
-141.1453593
0
ARC
8
0
10
227.73
20
-153.4028525
40
3
50
300.0006035
51
0
0
ARC
8
0
10
209.4999995
20
-164.2399771
40
3
50
239.9993965
51
300.0006212
0
ARC
8
0
10
191
20
-153.5587371
40
3
50
180
51
239.9993965
0
ARC
8
0
10
191
20
-144.6094637
40
3
50
120.0005878
51
180
0
ARC
8
0
10
196.02
20
-134.7828521
40
3
50
300.0005878
51
0
0
ARC
8
0
10
202.02
20
-122.6812477
40
3
50
120.0006035
51
180
0
ARC
8
0
10
206.77
20
-113.0105216
40
3
50
300.0006035
51
0
0
ARC
8
0
10
212.77
20
-104.0612477
40
3
50
120.0006035
51
180
0
ARC
8
0
10
217.52
20
-94.3905216
40
3
50
300.0006035
51
0
0
ARC
8
0
10
223.52
20
-85.4412477
40
3
50
120.0006035
51
180
0
ARC
8
0
10
228.27
20
-75.7705216
40
3
50
300.0006035
51
0
0
ARC
8
0
10
234.27
20
-66.2012835
40
3
50
90
51
180
0
ARC
8
0
10
273.73
20
-66.2012835
40
3
50
0
51
90
0
ARC
8
0
10
279.73
20
-75.7705216
40
3
50
180
51
239.9993965
0
ARC
8
0
10
284.48
20
-85.4412477
40
3
50
0
51
59.9993965
0
ARC
8
0
10
290.48
20
-94.3905216
40
3
50
180
51
239.9993965
0
ARC
8
0
10
295.23
20
-104.0612477
40
3
50
0
51
59.9993965
0
ARC
8
0
10
301.23
20
-113.0105216
40
3
50
180
51
239.9993965
0
ARC
8
0
10
305.98
20
-122.6812477
40
3
50
0
51
59.9993965
0
ARC
8
0
10
311.98
20
-134.7828521
40
3
50
180
51
239.9994122
0
ARC
8
0
10
317
20
-144.6094637
40
3
50
0
51
59.9994122
0
ARC
8
0
10
317
20
-153.5587371
40
3
50
300.0006035
51
0
0
ARC
8
0
10
298.5000005
20
-164.2399771
40
3
50
239.9993788
51
300.0006035
0
ARC
8
0
10
280.27
20
-153.4028525
40
3
50
180
51
239.9993965
0
LINE
8
0
10
232.4999677
20
-138.079648
11
239.7100323
21
-133.9168139
0
LINE
8
0
10
241.48
20
-130.8511026
11
241.48
21
-124.0215643
0
LINE
8
0
10
245.02
20
-120.4815643
11
262.98
21
-120.4815643
0
LINE
8
0
10
266.52
20
-124.0215643
11
266.52
21
-130.8511026
0
LINE
8
0
10
268.2899677
20
-133.9168139
11
275.5000323
21
-138.079648
0
ARC
8
0
10
273.73
20
-141.1453593
40
3.54
50
0
51
59.9993965
0
ARC
8
0
10
270.06
20
-130.8511026
40
3.54
50
180
51
239.9993965
0
ARC
8
0
10
262.98
20
-124.0215643
40
3.54
50
0
51
90
0
ARC
8
0
10
245.02
20
-124.0215643
40
3.54
50
90
51
180
0
ARC
8
0
10
237.94
20
-130.8511026
40
3.54
50
300.0006035
51
0
0
ARC
8
0
10
234.27
20
-141.1453593
40
3.54
50
120.0006035
51
180
0
LINE
8
0
10
201.5755753
20
-157.99006
11
207.8755753
21
-147.07814
0
LINE
8
0
10
207.65596
20
-146.2585247
11
196.74404
21
-139.9585247
0
LINE
8
0
10
195.9244247
20
-140.17814
11
189.6244247
21
-151.09006
0
LINE
8
0
10
189.84404
20
-151.9096753
11
200.75596
21
-158.2096753
0
ARC
8
0
10
207.35596
20
-146.77814
40
0.6
50
330
51
60
0
ARC
8
0
10
196.44404
20
-140.47814
40
0.6
50
60
51
150
0
ARC
8
0
10
190.14404
20
-151.39006
40
0.6
50
150
51
240
0
ARC
8
0
10
201.05596
20
-157.69006
40
0.6
50
240
51
330
0
LINE
8
0
10
215.8
20
-120.1
11
203.2
21
-120.1
0
LINE
8
0
10
202.6
20
-120.7
11
202.6
21
-133.3
0
LINE
8
0
10
203.2
20
-133.9
11
215.8
21
-133.9
0
LINE
8
0
10
216.4
20
-133.3
11
216.4
21
-120.7
0
ARC
8
0
10
203.2
20
-120.7
40
0.6
50
90
51
180
0
ARC
8
0
10
203.2
20
-133.3
40
0.6
50
180
51
270
0
ARC
8
0
10
215.8
20
-133.3
40
0.6
50
270
51
0
0
ARC
8
0
10
215.8
20
-120.7
40
0.6
50
0
51
90
0
LINE
8
0
10
217.4244247
20
-99.47404
11
211.1244247
21
-110.38596
0
LINE
8
0
10
211.34404
20
-111.2055753
11
222.25596
21
-117.5055753
0
LINE
8
0
10
223.0755753
20
-117.28596
11
229.3755753
21
-106.37404
0
LINE
8
0
10
229.15596
20
-105.5544247
11
218.24404
21
-99.2544247
0
ARC
8
0
10
211.64404
20
-110.68596
40
0.6
50
150
51
240
0
ARC
8
0
10
222.55596
20
-116.98596
40
0.6
50
240
51
330
0
ARC
8
0
10
228.85596
20
-106.07404
40
0.6
50
330
51
60
0
ARC
8
0
10
217.94404
20
-99.77404
40
0.6
50
60
51
150
0
LINE
8
0
10
221.8744247
20
-87.75404
11
228.1744247
21
-98.66596
0
LINE
8
0
10
228.99404
20
-98.8855753
11
239.90596
21
-92.5855753
0
LINE
8
0
10
240.1255753
20
-91.76596
11
233.8255753
21
-80.85404
0
LINE
8
0
10
233.00596
20
-80.6344247
11
222.09404
21
-86.9344247
0
ARC
8
0
10
228.69404
20
-98.36596
40
0.6
50
210
51
300
0
ARC
8
0
10
239.60596
20
-92.06596
40
0.6
50
300
51
30
0
ARC
8
0
10
233.30596
20
-81.15404
40
0.6
50
30
51
120
0
ARC
8
0
10
222.39404
20
-87.45404
40
0.6
50
120
51
210
0
LINE
8
0
10
213.95
20
-155.9841
11
226.55
21
-155.9841
0
LINE
8
0
10
227.15
20
-155.3841
11
227.15
21
-142.7841
0
LINE
8
0
10
226.55
20
-142.1841
11
213.95
21
-142.1841
0
LINE
8
0
10
213.35
20
-142.7841
11
213.35
21
-155.3841
0
ARC
8
0
10
226.55
20
-155.3841
40
0.6
50
270
51
0
0
ARC
8
0
10
226.55
20
-142.7841
40
0.6
50
0
51
90
0
ARC
8
0
10
213.95
20
-142.7841
40
0.6
50
90
51
180
0
ARC
8
0
10
213.95
20
-155.3841
40
0.6
50
180
51
270
0
LINE
8
0
10
228.1744247
20
-118.09404
11
221.8744247
21
-129.00596
0
LINE
8
0
10
222.09404
20
-129.8255753
11
233.00596
21
-136.1255753
0
LINE
8
0
10
233.8255753
20
-135.90596
11
240.1255753
21
-124.99404
0
LINE
8
0
10
239.90596
20
-124.1744247
11
228.99404
21
-117.8744247
0
ARC
8
0
10
222.39404
20
-129.30596
40
0.6
50
150
51
240
0
ARC
8
0
10
233.30596
20
-135.60596
40
0.6
50
240
51
330
0
ARC
8
0
10
239.60596
20
-124.69404
40
0.6
50
330
51
60
0
ARC
8
0
10
228.69404
20
-118.39404
40
0.6
50
60
51
150
0
LINE
8
0
10
238.9244247
20
-99.47404
11
232.6244247
21
-110.38596
0
LINE
8
0
10
232.84404
20
-111.2055753
11
243.75596
21
-117.5055753
0
LINE
8
0
10
244.5755753
20
-117.28596
11
250.8755753
21
-106.37404
0
LINE
8
0
10
250.65596
20
-105.5544247
11
239.74404
21
-99.2544247
0
ARC
8
0
10
233.14404
20
-110.68596
40
0.6
50
150
51
240
0
ARC
8
0
10
244.05596
20
-116.98596
40
0.6
50
240
51
330
0
ARC
8
0
10
250.35596
20
-106.07404
40
0.6
50
330
51
60
0
ARC
8
0
10
239.44404
20
-99.77404
40
0.6
50
60
51
150
0
LINE
8
0
10
300.1244247
20
-147.07814
11
306.4244247
21
-157.99006
0
LINE
8
0
10
307.24404
20
-158.2096753
11
318.15596
21
-151.9096753
0
LINE
8
0
10
318.3755753
20
-151.09006
11
312.0755753
21
-140.17814
0
LINE
8
0
10
311.25596
20
-139.9585247
11
300.34404
21
-146.2585247
0
ARC
8
0
10
306.94404
20
-157.69006
40
0.6
50
210
51
300
0
ARC
8
0
10
317.85596
20
-151.39006
40
0.6
50
300
51
30
0
ARC
8
0
10
311.55596
20
-140.47814
40
0.6
50
30
51
120
0
ARC
8
0
10
300.64404
20
-146.77814
40
0.6
50
120
51
210
0
LINE
8
0
10
304.8
20
-120.1
11
292.2
21
-120.1
0
LINE
8
0
10
291.6
20
-120.7
11
291.6
21
-133.3
0
LINE
8
0
10
292.2
20
-133.9
11
304.8
21
-133.9
0
LINE
8
0
10
305.4
20
-133.3
11
305.4
21
-120.7
0
ARC
8
0
10
292.2
20
-120.7
40
0.6
50
90
51
180
0
ARC
8
0
10
292.2
20
-133.3
40
0.6
50
180
51
270
0
ARC
8
0
10
304.8
20
-133.3
40
0.6
50
270
51
0
0
ARC
8
0
10
304.8
20
-120.7
40
0.6
50
0
51
90
0
LINE
8
0
10
296.8755753
20
-110.38596
11
290.5755753
21
-99.47404
0
LINE
8
0
10
289.75596
20
-99.2544247
11
278.84404
21
-105.5544247
0
LINE
8
0
10
278.6244247
20
-106.37404
11
284.9244247
21
-117.28596
0
LINE
8
0
10
285.74404
20
-117.5055753
11
296.65596
21
-111.2055753
0
ARC
8
0
10
290.05596
20
-99.77404
40
0.6
50
30
51
120
0
ARC
8
0
10
279.14404
20
-106.07404
40
0.6
50
120
51
210
0
ARC
8
0
10
285.44404
20
-116.98596
40
0.6
50
210
51
300
0
ARC
8
0
10
296.35596
20
-110.68596
40
0.6
50
300
51
30
0
LINE
8
0
10
279.8255753
20
-98.66596
11
286.1255753
21
-87.75404
0
LINE
8
0
10
285.90596
20
-86.9344247
11
274.99404
21
-80.6344247
0
LINE
8
0
10
274.1744247
20
-80.85404
11
267.8744247
21
-91.76596
0
LINE
8
0
10
268.09404
20
-92.5855753
11
279.00596
21
-98.8855753
0
ARC
8
0
10
285.60596
20
-87.45404
40
0.6
50
330
51
60
0
ARC
8
0
10
274.69404
20
-81.15404
40
0.6
50
60
51
150
0
ARC
8
0
10
268.39404
20
-92.06596
40
0.6
50
150
51
240
0
ARC
8
0
10
279.30596
20
-98.36596
40
0.6
50
240
51
330
0
LINE
8
0
10
281.45
20
-155.9841
11
294.05
21
-155.9841
0
LINE
8
0
10
294.65
20
-155.3841
11
294.65
21
-142.7841
0
LINE
8
0
10
294.05
20
-142.1841
11
281.45
21
-142.1841
0
LINE
8
0
10
280.85
20
-142.7841
11
280.85
21
-155.3841
0
ARC
8
0
10
294.05
20
-155.3841
40
0.6
50
270
51
0
0
ARC
8
0
10
294.05
20
-142.7841
40
0.6
50
0
51
90
0
ARC
8
0
10
281.45
20
-142.7841
40
0.6
50
90
51
180
0
ARC
8
0
10
281.45
20
-155.3841
40
0.6
50
180
51
270
0
LINE
8
0
10
286.1255753
20
-129.00596
11
279.8255753
21
-118.09404
0
LINE
8
0
10
279.00596
20
-117.8744247
11
268.09404
21
-124.1744247
0
LINE
8
0
10
267.8744247
20
-124.99404
11
274.1744247
21
-135.90596
0
LINE
8
0
10
274.99404
20
-136.1255753
11
285.90596
21
-129.8255753
0
ARC
8
0
10
279.30596
20
-118.39404
40
0.6
50
30
51
120
0
ARC
8
0
10
268.39404
20
-124.69404
40
0.6
50
120
51
210
0
ARC
8
0
10
274.69404
20
-135.60596
40
0.6
50
210
51
300
0
ARC
8
0
10
285.60596
20
-129.30596
40
0.6
50
300
51
30
0
LINE
8
0
10
275.3755753
20
-110.38596
11
269.0755753
21
-99.47404
0
LINE
8
0
10
268.25596
20
-99.2544247
11
257.34404
21
-105.5544247
0
LINE
8
0
10
257.1244247
20
-106.37404
11
263.4244247
21
-117.28596
0
LINE
8
0
10
264.24404
20
-117.5055753
11
275.15596
21
-111.2055753
0
ARC
8
0
10
268.55596
20
-99.77404
40
0.6
50
30
51
120
0
ARC
8
0
10
257.64404
20
-106.07404
40
0.6
50
120
51
210
0
ARC
8
0
10
263.94404
20
-116.98596
40
0.6
50
210
51
300
0
ARC
8
0
10
274.85596
20
-110.68596
40
0.6
50
300
51
30
0
LINE
8
0
10
245.11
20
-96.7612833
11
262.89
21
-96.7612833
0
LINE
8
0
10
263.43
20
-96.2212833
11
263.43
21
-63.2012833
0
LINE
8
0
10
244.57
20
-63.2012833
11
244.57
21
-96.2212833
0
ARC
8
0
10
262.89
20
-96.2212833
40
0.54
50
270
51
0
0
ARC
8
0
10
245.11
20
-96.2212833
40
0.54
50
180
51
270
0
ENDSEC
0
EOF