0
SECTION
2
HEADER
9
$INSUNITS
70
4
0
ENDSEC
0
SECTION
2
TABLES
0
TABLE
2
LTYPE
0
LTYPE
72
65
70
64
2
CONTINUOUS
3
______
73
0
40
0
0
ENDTAB
0
TABLE
2
LAYER
0
ENDTAB
0
ENDSEC
0
SECTION
2
ENTITIES
0
LINE
8
0
10
230.73
20
-153.4028525
11
230.73
21
-140.833594
0
LINE
8
0
10
229.2300274
20
-156.0009129
11
221.6150304
21
-160.3975406
0
LINE
8
0
10
197.1149702
20
-160.5534255
11
189.4999726
21
-156.1567975
0
LINE
8
0
10
188
20
-153.5587371
11
188
21
-144.6094637
0
LINE
8
0
10
189.4999733
20
-142.0114029
11
197.5200267
21
-137.3809129
0
LINE
8
0
10
199.02
20
-134.7828521
11
199.02
21
-122.6812477
0
LINE
8
0
10
200.5199726
20
-120.0831873
11
208.2700274
21
-115.608582
0
LINE
8
0
10
209.77
20
-113.0105216
11
209.77
21
-104.0612477
0
LINE
8
0
10
211.2699726
20
-101.4631873
11
219.0200274
21
-96.988582
0
LINE
8
0
10
220.52
20
-94.3905216
11
220.52
21
-85.4412477
0
LINE
8
0
10
222.0199726
20
-82.8431873
11
229.7700274
21
-78.368582
0
LINE
8
0
10
278.2299726
20
-78.368582
11
285.9800274
21
-82.8431873
0
LINE
8
0
10
287.48
20
-85.4412477
11
287.48
21
-94.3905216
0
LINE
8
0
10
288.9799726
20
-96.988582
11
296.7300274
21
-101.4631873
0
LINE
8
0
10
298.23
20
-104.0612477
11
298.23
21
-113.0105216
0
LINE
8
0
10
299.7299726
20
-115.608582
11
307.4800274
21
-120.0831873
0
LINE
8
0
10
308.98
20
-122.6812477
11
308.98
21
-134.7828521
0
LINE
8
0
10
310.4799733
20
-137.3809129
11
318.5000267
21
-142.0114029
0
LINE
8
0
10
320
20
-144.6094637
11
320
21
-153.5587371
0
LINE
8
0
10
318.5000274
20
-156.1567975
11
310.8850298
21
-160.5534255
0
LINE
8
0
10
286.3849696
20
-160.3975406
11
278.7699726
21
-156.0009129
0
LINE
8
0
10
277.27
20
-153.4028525
11
277.27
21
-140.833594
0
ARC
8
0
10
227.73
20
-153.4028525
40
3
50
300.0006035
51
0
0
ARC
8
0
10
191
20
-153.5587371
40
3
50
180
51
239.9993965
0
ARC
8
0
10
191
20
-144.6094637
40
3
50
120.0005878
51
180
0
ARC
8
0
10
196.02
20
-134.7828521
40
3
50
300.0005878
51
0
0
ARC
8
0
10
202.02
20
-122.6812477
40
3
50
120.0006035
51
180
0
ARC
8
0
10
206.77
20
-113.0105216
40
3
50
300.0006035
51
0
0
ARC
8
0
10
212.77
20
-104.0612477
40
3
50
120.0006035
51
180
0
ARC
8
0
10
217.52
20
-94.3905216
40
3
50
300.0006035
51
0
0
ARC
8
0
10
223.52
20
-85.4412477
40
3
50
120.0006035
51
180
0
ARC
8
0
10
228.27
20
-75.7705216
40
3
50
300.0006035
51
325.2231556
0
ARC
8
0
10
279.73
20
-75.7705216
40
3
50
214.7768444
51
239.9993965
0
ARC
8
0
10
284.48
20
-85.4412477
40
3
50
0
51
59.9993965
0
ARC
8
0
10
290.48
20
-94.3905216
40
3
50
180
51
239.9993965
0
ARC
8
0
10
295.23
20
-104.0612477
40
3
50
0
51
59.9993965
0
ARC
8
0
10
301.23
20
-113.0105216
40
3
50
180
51
239.9993965
0
ARC
8
0
10
305.98
20
-122.6812477
40
3
50
0
51
59.9993965
0
ARC
8
0
10
311.98
20
-134.7828521
40
3
50
180
51
239.9994122
0
ARC
8
0
10
317
20
-144.6094637
40
3
50
0
51
59.9994122
0
ARC
8
0
10
317
20
-153.5587371
40
3
50
300.0006035
51
0
0
ARC
8
0
10
280.27
20
-153.4028525
40
3
50
180
51
239.9993965
0
LINE
8
0
10
232.2299726
20
-138.2355336
11
239.9800274
21
-133.7609283
0
LINE
8
0
10
241.48
20
-131.1628679
11
241.48
21
-122.2135971
0
LINE
8
0
10
242.9799766
20
-119.6155344
11
252.4999766
21
-114.1190451
0
LINE
8
0
10
255.5000234
20
-114.1190451
11
265.0200234
21
-119.6155344
0
LINE
8
0
10
266.52
20
-122.2135971
11
266.52
21
-131.1628679
0
LINE
8
0
10
268.0199726
20
-133.7609283
11
275.7700274
21
-138.2355336
0
ARC
8
0
10
274.27
20
-140.833594
40
3
50
0
51
59.9993965
0
ARC
8
0
10
269.52
20
-131.1628679
40
3
50
180
51
239.9993965
0
ARC
8
0
10
263.52
20
-122.2135971
40
3
50
0
51
59.9994839
0
ARC
8
0
10
254
20
-116.7171078
40
3
50
59.9994839
51
120.0005161
0
ARC
8
0
10
244.48
20
-122.2135971
40
3
50
120.0005161
51
180
0
ARC
8
0
10
238.48
20
-131.1628679
40
3
50
300.0006035
51
0
0
ARC
8
0
10
233.73
20
-140.833594
40
3
50
120.0006035
51
180
0
LINE
8
0
10
230.7341394
20
-77.4816666
11
244.57
21
-77.4816666
0
LINE
8
0
10
263.43
20
-77.4816666
11
277.2658606
21
-77.4816666
0
LINE
8
0
10
200.3850298
20
-160.5534255
11
207.8649696
21
-156.234775
0
LINE
8
0
10
211.1350302
20
-156.2347754
11
218.3449698
21
-160.3975402
0
LINE
8
0
10
289.6550302
20
-160.3975402
11
296.8649698
21
-156.2347754
0
LINE
8
0
10
300.1350304
20
-156.234775
11
307.6149702
21
-160.5534255
0
ARC
8
0
10
219.9800006
20
-157.5656548
40
3.27
50
239.9993788
51
300.0006035
0
ARC
8
0
10
209.4999994
20
-159.0666608
40
3.27
50
59.9993788
51
120.0006035
0
ARC
8
0
10
198.75
20
-157.7215396
40
3.27
50
239.9993965
51
300.0006035
0
ARC
8
0
10
309.25
20
-157.7215396
40
3.27
50
239.9993965
51
300.0006035
0
ARC
8
0
10
298.5000006
20
-159.0666608
40
3.27
50
59.9993965
51
120.0006212
0
ARC
8
0
10
288.0199994
20
-157.5656548
40
3.27
50
239.9993965
51
300.0006212
0
LINE
8
0
10
233.0846788
20
-87.1707695
11
234.2846788
21
-89.2492305
0
LINE
8
0
10
234.8310889
20
-89.3956406
11
236.9095499
21
-88.1956406
0
LINE
8
0
10
237.05596
20
-87.6492305
11
235.85596
21
-85.5707695
0
LINE
8
0
10
235.3095499
20
-85.4243594
11
233.2310889
21
-86.6243594
0
ARC
8
0
10
234.6310889
20
-89.0492305
40
0.4
50
210
51
300
0
ARC
8
0
10
236.7095499
20
-87.8492305
40
0.4
50
300
51
30
0
ARC
8
0
10
235.5095499
20
-85.7707695
40
0.4
50
30
51
120
0
ARC
8
0
10
233.4310889
20
-86.9707695
40
0.4
50
120
51
210
0
LINE
8
0
10
243.8346788
20
-105.7907695
11
245.0346788
21
-107.8692305
0
LINE
8
0
10
245.5810889
20
-108.0156406
11
247.6595499
21
-106.8156406
0
LINE
8
0
10
247.80596
20
-106.2692305
11
246.60596
21
-104.1907695
0
LINE
8
0
10
246.0595499
20
-104.0443594
11
243.9810889
21
-105.2443594
0
ARC
8
0
10
245.3810889
20
-107.6692305
40
0.4
50
210
51
300
0
ARC
8
0
10
247.4595499
20
-106.4692305
40
0.4
50
300
51
30
0
ARC
8
0
10
246.2595499
20
-104.3907695
40
0.4
50
30
51
120
0
ARC
8
0
10
244.1810889
20
-105.5907695
40
0.4
50
120
51
210
0
LINE
8
0
10
223.5346788
20
-108.8907695
11
222.3346788
21
-110.9692305
0
LINE
8
0
10
222.4810889
20
-111.5156406
11
224.5595499
21
-112.7156406
0
LINE
8
0
10
225.10596
20
-112.5692305
11
226.30596
21
-110.4907695
0
LINE
8
0
10
226.1595499
20
-109.9443594
11
224.0810889
21
-108.7443594
0
ARC
8
0
10
222.6810889
20
-111.1692305
40
0.4
50
150
51
240
0
ARC
8
0
10
224.7595499
20
-112.3692305
40
0.4
50
240
51
330
0
ARC
8
0
10
225.9595499
20
-110.2907695
40
0.4
50
330
51
60
0
ARC
8
0
10
223.8810889
20
-109.0907695
40
0.4
50
60
51
150
0
LINE
8
0
10
234.2846788
20
-127.5107695
11
233.0846788
21
-129.5892305
0
LINE
8
0
10
233.2310889
20
-130.1356406
11
235.3095499
21
-131.3356406
0
LINE
8
0
10
235.85596
20
-131.1892305
11
237.05596
21
-129.1107695
0
LINE
8
0
10
236.9095499
20
-128.5643594
11
234.8310889
21
-127.3643594
0
ARC
8
0
10
233.4310889
20
-129.7892305
40
0.4
50
150
51
240
0
ARC
8
0
10
235.5095499
20
-130.9892305
40
0.4
50
240
51
330
0
ARC
8
0
10
236.7095499
20
-128.9107695
40
0.4
50
330
51
60
0
ARC
8
0
10
234.6310889
20
-127.7107695
40
0.4
50
60
51
150
0
LINE
8
0
10
210.7
20
-130.1
11
208.3
21
-130.1
0
LINE
8
0
10
207.9
20
-130.5
11
207.9
21
-132.9
0
LINE
8
0
10
208.3
20
-133.3
11
210.7
21
-133.3
0
LINE
8
0
10
211.1
20
-132.9
11
211.1
21
-130.5
0
ARC
8
0
10
208.3
20
-130.5
40
0.4
50
90
51
180
0
ARC
8
0
10
208.3
20
-132.9
40
0.4
50
180
51
270
0
ARC
8
0
10
210.7
20
-132.9
40
0.4
50
270
51
0
0
ARC
8
0
10
210.7
20
-130.5
40
0.4
50
0
51
90
0
LINE
8
0
10
219.05
20
-145.9841
11
221.45
21
-145.9841
0
LINE
8
0
10
221.85
20
-145.5841
11
221.85
21
-143.1841
0
LINE
8
0
10
221.45
20
-142.7841
11
219.05
21
-142.7841
0
LINE
8
0
10
218.65
20
-143.1841
11
218.65
21
-145.5841
0
ARC
8
0
10
221.45
20
-145.5841
40
0.4
50
270
51
0
0
ARC
8
0
10
221.45
20
-143.1841
40
0.4
50
0
51
90
0
ARC
8
0
10
219.05
20
-143.1841
40
0.4
50
90
51
180
0
ARC
8
0
10
219.05
20
-145.5841
40
0.4
50
180
51
270
0
LINE
8
0
10
195.4653212
20
-148.5733305
11
196.6653212
21
-146.4948695
0
LINE
8
0
10
196.5189111
20
-145.9484594
11
194.4404501
21
-144.7484594
0
LINE
8
0
10
193.89404
20
-144.8948695
11
192.69404
21
-146.9733305
0
LINE
8
0
10
192.8404501
20
-147.5197406
11
194.9189111
21
-148.7197406
0
ARC
8
0
10
196.3189111
20
-146.2948695
40
0.4
50
330
51
60
0
ARC
8
0
10
194.2404501
20
-145.0948695
40
0.4
50
60
51
150
0
ARC
8
0
10
193.0404501
20
-147.1733305
40
0.4
50
150
51
240
0
ARC
8
0
10
195.1189111
20
-148.3733305
40
0.4
50
240
51
330
0
LINE
8
0
10
273.7153212
20
-89.2492305
11
274.9153212
21
-87.1707695
0
LINE
8
0
10
274.7689111
20
-86.6243594
11
272.6904501
21
-85.4243594
0
LINE
8
0
10
272.14404
20
-85.5707695
11
270.94404
21
-87.6492305
0
LINE
8
0
10
271.0904501
20
-88.1956406
11
273.1689111
21
-89.3956406
0
ARC
8
0
10
274.5689111
20
-86.9707695
40
0.4
50
330
51
60
0
ARC
8
0
10
272.4904501
20
-85.7707695
40
0.4
50
60
51
150
0
ARC
8
0
10
271.2904501
20
-87.8492305
40
0.4
50
150
51
240
0
ARC
8
0
10
273.3689111
20
-89.0492305
40
0.4
50
240
51
330
0
LINE
8
0
10
262.9653212
20
-107.8692305
11
264.1653212
21
-105.7907695
0
LINE
8
0
10
264.0189111
20
-105.2443594
11
261.9404501
21
-104.0443594
0
LINE
8
0
10
261.39404
20
-104.1907695
11
260.19404
21
-106.2692305
0
LINE
8
0
10
260.3404501
20
-106.8156406
11
262.4189111
21
-108.0156406
0
ARC
8
0
10
263.8189111
20
-105.5907695
40
0.4
50
330
51
60
0
ARC
8
0
10
261.7404501
20
-104.3907695
40
0.4
50
60
51
150
0
ARC
8
0
10
260.5404501
20
-106.4692305
40
0.4
50
150
51
240
0
ARC
8
0
10
262.6189111
20
-107.6692305
40
0.4
50
240
51
330
0
LINE
8
0
10
285.6653212
20
-110.9692305
11
284.4653212
21
-108.8907695
0
LINE
8
0
10
283.9189111
20
-108.7443594
11
281.8404501
21
-109.9443594
0
LINE
8
0
10
281.69404
20
-110.4907695
11
282.89404
21
-112.5692305
0
LINE
8
0
10
283.4404501
20
-112.7156406
11
285.5189111
21
-111.5156406
0
ARC
8
0
10
284.1189111
20
-109.0907695
40
0.4
50
30
51
120
0
ARC
8
0
10
282.0404501
20
-110.2907695
40
0.4
50
120
51
210
0
ARC
8
0
10
283.2404501
20
-112.3692305
40
0.4
50
210
51
300
0
ARC
8
0
10
285.3189111
20
-111.1692305
40
0.4
50
300
51
30
0
LINE
8
0
10
274.9153212
20
-129.5892305
11
273.7153212
21
-127.5107695
0
LINE
8
0
10
273.1689111
20
-127.3643594
11
271.0904501
21
-128.5643594
0
LINE
8
0
10
270.94404
20
-129.1107695
11
272.14404
21
-131.1892305
0
LINE
8
0
10
272.6904501
20
-131.3356406
11
274.7689111
21
-130.1356406
0
ARC
8
0
10
273.3689111
20
-127.7107695
40
0.4
50
30
51
120
0
ARC
8
0
10
271.2904501
20
-128.9107695
40
0.4
50
120
51
210
0
ARC
8
0
10
272.4904501
20
-130.9892305
40
0.4
50
210
51
300
0
ARC
8
0
10
274.5689111
20
-129.7892305
40
0.4
50
300
51
30
0
LINE
8
0
10
299.7
20
-130.1
11
297.3
21
-130.1
0
LINE
8
0
10
296.9
20
-130.5
11
296.9
21
-132.9
0
LINE
8
0
10
297.3
20
-133.3
11
299.7
21
-133.3
0
LINE
8
0
10
300.1
20
-132.9
11
300.1
21
-130.5
0
ARC
8
0
10
297.3
20
-130.5
40
0.4
50
90
51
180
0
ARC
8
0
10
297.3
20
-132.9
40
0.4
50
180
51
270
0
ARC
8
0
10
299.7
20
-132.9
40
0.4
50
270
51
0
0
ARC
8
0
10
299.7
20
-130.5
40
0.4
50
0
51
90
0
LINE
8
0
10
286.55
20
-145.9841
11
288.95
21
-145.9841
0
LINE
8
0
10
289.35
20
-145.5841
11
289.35
21
-143.1841
0
LINE
8
0
10
288.95
20
-142.7841
11
286.55
21
-142.7841
0
LINE
8
0
10
286.15
20
-143.1841
11
286.15
21
-145.5841
0
ARC
8
0
10
288.95
20
-145.5841
40
0.4
50
270
51
0
0
ARC
8
0
10
288.95
20
-143.1841
40
0.4
50
0
51
90
0
ARC
8
0
10
286.55
20
-143.1841
40
0.4
50
90
51
180
0
ARC
8
0
10
286.55
20
-145.5841
40
0.4
50
180
51
270
0
LINE
8
0
10
311.3346788
20
-146.4948695
11
312.5346788
21
-148.5733305
0
LINE
8
0
10
313.0810889
20
-148.7197406
11
315.1595499
21
-147.5197406
0
LINE
8
0
10
315.30596
20
-146.9733305
11
314.10596
21
-144.8948695
0
LINE
8
0
10
313.5595499
20
-144.7484594
11
311.4810889
21
-145.9484594
0
ARC
8
0
10
312.8810889
20
-148.3733305
40
0.4
50
210
51
300
0
ARC
8
0
10
314.9595499
20
-147.1733305
40
0.4
50
300
51
30
0
ARC
8
0
10
313.7595499
20
-145.0948695
40
0.4
50
30
51
120
0
ARC
8
0
10
311.6810889
20
-146.2948695
40
0.4
50
120
51
210
0
LINE
8
0
10
245.11
20
-96.7612833
11
262.89
21
-96.7612833
0
LINE
8
0
10
263.43
20
-96.2212833
11
263.43
21
-77.4816666
0
LINE
8
0
10
244.57
20
-77.4816666
11
244.57
21
-96.2212833
0
ARC
8
0
10
262.89
20
-96.2212833
40
0.54
50
270
51
0
0
ARC
8
0
10
245.11
20
-96.2212833
40
0.54
50
180
51
270
0
ENDSEC
0
EOF