0
SECTION
2
HEADER
9
$INSUNITS
70
4
0
ENDSEC
0
SECTION
2
TABLES
0
TABLE
2
LTYPE
0
LTYPE
72
65
70
64
2
CONTINUOUS
3
______
73
0
40
0
0
ENDTAB
0
TABLE
2
LAYER
0
ENDTAB
0
ENDSEC
0
SECTION
2
ENTITIES
0
LINE
8
0
10
230.595
20
-153.7146217
11
230.595
21
-140.833594
0
LINE
8
0
10
229.0950278
20
-156.3126819
11
221.6150286
21
-160.6313681
0
LINE
8
0
10
197.1149714
20
-160.6313681
11
189.6349722
21
-156.3126819
0
LINE
8
0
10
188.135
20
-153.7146217
11
188.135
21
-145.0771166
0
LINE
8
0
10
189.6349726
20
-142.4790562
11
197.3850274
21
-138.0044509
0
LINE
8
0
10
198.885
20
-135.4063905
11
198.885
21
-122.6812476
0
LINE
8
0
10
200.3849726
20
-120.0831872
11
208.1350274
21
-115.6085819
0
LINE
8
0
10
209.635
20
-113.0105215
11
209.635
21
-104.0612476
0
LINE
8
0
10
211.1349726
20
-101.4631872
11
218.8850274
21
-96.9885819
0
LINE
8
0
10
220.385
20
-94.3905215
11
220.385
21
-85.4412476
0
LINE
8
0
10
221.8849726
20
-82.8431872
11
229.6350274
21
-78.3685819
0
LINE
8
0
10
278.3649726
20
-78.3685819
11
286.1150274
21
-82.8431872
0
LINE
8
0
10
287.615
20
-85.4412476
11
287.615
21
-94.3905215
0
LINE
8
0
10
289.1149726
20
-96.9885819
11
296.8650274
21
-101.4631872
0
LINE
8
0
10
298.365
20
-104.0612476
11
298.365
21
-113.0105215
0
LINE
8
0
10
299.8649726
20
-115.6085819
11
307.6150274
21
-120.0831872
0
LINE
8
0
10
309.115
20
-122.6812476
11
309.115
21
-135.4063905
0
LINE
8
0
10
310.6149726
20
-138.0044509
11
318.3650274
21
-142.4790562
0
LINE
8
0
10
319.865
20
-145.0771166
11
319.865
21
-153.7146217
0
LINE
8
0
10
318.3650278
20
-156.3126819
11
310.8850286
21
-160.6313681
0
LINE
8
0
10
286.3849714
20
-160.6313681
11
278.9049722
21
-156.3126819
0
LINE
8
0
10
277.405
20
-153.7146217
11
277.405
21
-140.833594
0
ARC
8
0
10
227.595
20
-153.7146217
40
3
50
300.0006134
51
0
0
ARC
8
0
10
191.135
20
-153.7146217
40
3
50
180
51
239.9993866
0
ARC
8
0
10
191.135
20
-145.0771166
40
3
50
120.0006035
51
180
0
ARC
8
0
10
195.885
20
-135.4063905
40
3
50
300.0006035
51
0
0
ARC
8
0
10
201.885
20
-122.6812476
40
3
50
120.0006035
51
180
0
ARC
8
0
10
206.635
20
-113.0105215
40
3
50
300.0006035
51
0
0
ARC
8
0
10
212.635
20
-104.0612476
40
3
50
120.0006035
51
180
0
ARC
8
0
10
217.385
20
-94.3905215
40
3
50
300.0006035
51
0
0
ARC
8
0
10
223.385
20
-85.4412476
40
3
50
120.0006035
51
180
0
ARC
8
0
10
228.135
20
-75.7705215
40
3
50
300.0006035
51
325.2231529
0
ARC
8
0
10
279.865
20
-75.7705215
40
3
50
214.7768471
51
239.9993965
0
ARC
8
0
10
284.615
20
-85.4412476
40
3
50
0
51
59.9993965
0
ARC
8
0
10
290.615
20
-94.3905215
40
3
50
180
51
239.9993965
0
ARC
8
0
10
295.365
20
-104.0612476
40
3
50
0
51
59.9993965
0
ARC
8
0
10
301.365
20
-113.0105215
40
3
50
180
51
239.9993965
0
ARC
8
0
10
306.115
20
-122.6812476
40
3
50
0
51
59.9993965
0
ARC
8
0
10
312.115
20
-135.4063905
40
3
50
180
51
239.9993965
0
ARC
8
0
10
316.865
20
-145.0771166
40
3
50
0
51
59.9993965
0
ARC
8
0
10
316.865
20
-153.7146217
40
3
50
300.0006134
51
0
0
ARC
8
0
10
280.405
20
-153.7146217
40
3
50
180
51
239.9993866
0
LINE
8
0
10
232.0949726
20
-138.2355336
11
239.8450274
21
-133.7609283
0
LINE
8
0
10
241.345
20
-131.1628679
11
241.345
21
-122.2135972
0
LINE
8
0
10
242.8449768
20
-119.6155344
11
252.4999768
21
-114.0411025
0
LINE
8
0
10
255.5000232
20
-114.0411025
11
265.1550232
21
-119.6155344
0
LINE
8
0
10
266.655
20
-122.2135972
11
266.655
21
-131.1628679
0
LINE
8
0
10
268.1549726
20
-133.7609283
11
275.9050274
21
-138.2355336
0
LINE
8
0
10
230.5991393
20
-77.4816666
11
244.61
21
-77.4816666
0
LINE
8
0
10
263.39
20
-77.4816666
11
277.4008607
21
-77.4816666
0
LINE
8
0
10
200.1150258
20
-160.6313687
11
207.8649733
21
-156.1568281
0
LINE
8
0
10
210.8650267
20
-156.1568281
11
218.6149742
21
-160.6313687
0
LINE
8
0
10
289.3850258
20
-160.6313687
11
297.1349733
21
-156.1568281
0
LINE
8
0
10
300.1350267
20
-156.1568281
11
307.8849742
21
-160.6313687
0
ARC
8
0
10
220.1150008
20
-158.0333079
40
3
50
239.9994122
51
300.0006134
0
ARC
8
0
10
209.365
20
-158.7548889
40
3
50
59.9994122
51
120.0005878
0
ARC
8
0
10
198.6149992
20
-158.0333079
40
3
50
239.9993866
51
300.0005878
0
ARC
8
0
10
309.3850008
20
-158.0333079
40
3
50
239.9994122
51
300.0006134
0
ARC
8
0
10
298.635
20
-158.7548889
40
3
50
59.9994122
51
120.0005878
0
ARC
8
0
10
287.8849992
20
-158.0333079
40
3
50
239.9993866
51
300.0005878
0
ARC
8
0
10
274.405
20
-140.833594
40
3
50
0
51
59.9993965
0
ARC
8
0
10
269.655
20
-131.1628679
40
3
50
180
51
239.9993965
0
ARC
8
0
10
263.655
20
-122.2135972
40
3
50
0
51
59.9994889
0
ARC
8
0
10
254
20
-116.6391654
40
3
50
59.9994889
51
120.0005111
0
ARC
8
0
10
244.345
20
-122.2135972
40
3
50
120.0005111
51
180
0
ARC
8
0
10
238.345
20
-131.1628679
40
3
50
300.0006035
51
0
0
ARC
8
0
10
233.595
20
-140.833594
40
3
50
120.0006035
51
180
0
LINE
8
0
10
232.9496788
20
-87.1707695
11
234.1496788
21
-89.2492305
0
LINE
8
0
10
234.6960889
20
-89.3956406
11
236.7745499
21
-88.1956406
0
LINE
8
0
10
236.92096
20
-87.6492305
11
235.72096
21
-85.5707695
0
LINE
8
0
10
235.1745499
20
-85.4243594
11
233.0960889
21
-86.6243594
0
ARC
8
0
10
234.4960889
20
-89.0492305
40
0.4
50
210
51
300
0
ARC
8
0
10
236.5745499
20
-87.8492305
40
0.4
50
300
51
30
0
ARC
8
0
10
235.3745499
20
-85.7707695
40
0.4
50
30
51
120
0
ARC
8
0
10
233.2960889
20
-86.9707695
40
0.4
50
120
51
210
0
LINE
8
0
10
243.6996788
20
-105.7907695
11
244.8996788
21
-107.8692305
0
LINE
8
0
10
245.4460889
20
-108.0156406
11
247.5245499
21
-106.8156406
0
LINE
8
0
10
247.67096
20
-106.2692305
11
246.47096
21
-104.1907695
0
LINE
8
0
10
245.9245499
20
-104.0443594
11
243.8460889
21
-105.2443594
0
ARC
8
0
10
245.2460889
20
-107.6692305
40
0.4
50
210
51
300
0
ARC
8
0
10
247.3245499
20
-106.4692305
40
0.4
50
300
51
30
0
ARC
8
0
10
246.1245499
20
-104.3907695
40
0.4
50
30
51
120
0
ARC
8
0
10
244.0460889
20
-105.5907695
40
0.4
50
120
51
210
0
LINE
8
0
10
223.3996788
20
-108.8907695
11
222.1996788
21
-110.9692305
0
LINE
8
0
10
222.3460889
20
-111.5156406
11
224.4245499
21
-112.7156406
0
LINE
8
0
10
224.97096
20
-112.5692305
11
226.17096
21
-110.4907695
0
LINE
8
0
10
226.0245499
20
-109.9443594
11
223.9460889
21
-108.7443594
0
ARC
8
0
10
222.5460889
20
-111.1692305
40
0.4
50
150
51
240
0
ARC
8
0
10
224.6245499
20
-112.3692305
40
0.4
50
240
51
330
0
ARC
8
0
10
225.8245499
20
-110.2907695
40
0.4
50
330
51
60
0
ARC
8
0
10
223.7460889
20
-109.0907695
40
0.4
50
60
51
150
0
LINE
8
0
10
234.1496788
20
-127.5107695
11
232.9496788
21
-129.5892305
0
LINE
8
0
10
233.0960889
20
-130.1356406
11
235.1745499
21
-131.3356406
0
LINE
8
0
10
235.72096
20
-131.1892305
11
236.92096
21
-129.1107695
0
LINE
8
0
10
236.7745499
20
-128.5643594
11
234.6960889
21
-127.3643594
0
ARC
8
0
10
233.2960889
20
-129.7892305
40
0.4
50
150
51
240
0
ARC
8
0
10
235.3745499
20
-130.9892305
40
0.4
50
240
51
330
0
ARC
8
0
10
236.5745499
20
-128.9107695
40
0.4
50
330
51
60
0
ARC
8
0
10
234.4960889
20
-127.7107695
40
0.4
50
60
51
150
0
LINE
8
0
10
210.565
20
-130.1
11
208.165
21
-130.1
0
LINE
8
0
10
207.765
20
-130.5
11
207.765
21
-132.9
0
LINE
8
0
10
208.165
20
-133.3
11
210.565
21
-133.3
0
LINE
8
0
10
210.965
20
-132.9
11
210.965
21
-130.5
0
ARC
8
0
10
208.165
20
-130.5
40
0.4
50
90
51
180
0
ARC
8
0
10
208.165
20
-132.9
40
0.4
50
180
51
270
0
ARC
8
0
10
210.565
20
-132.9
40
0.4
50
270
51
0
0
ARC
8
0
10
210.565
20
-130.5
40
0.4
50
0
51
90
0
LINE
8
0
10
218.915
20
-146.295869
11
221.315
21
-146.295869
0
LINE
8
0
10
221.715
20
-145.895869
11
221.715
21
-143.495869
0
LINE
8
0
10
221.315
20
-143.095869
11
218.915
21
-143.095869
0
LINE
8
0
10
218.515
20
-143.495869
11
218.515
21
-145.895869
0
ARC
8
0
10
221.315
20
-145.895869
40
0.4
50
270
51
0
0
ARC
8
0
10
221.315
20
-143.495869
40
0.4
50
0
51
90
0
ARC
8
0
10
218.915
20
-143.495869
40
0.4
50
90
51
180
0
ARC
8
0
10
218.915
20
-145.895869
40
0.4
50
180
51
270
0
LINE
8
0
10
195.3303212
20
-148.8850995
11
196.5303212
21
-146.8066385
0
LINE
8
0
10
196.3839111
20
-146.2602284
11
194.3054501
21
-145.0602284
0
LINE
8
0
10
193.75904
20
-145.2066385
11
192.55904
21
-147.2850995
0
LINE
8
0
10
192.7054501
20
-147.8315096
11
194.7839111
21
-149.0315096
0
ARC
8
0
10
196.1839111
20
-146.6066385
40
0.4
50
330
51
60
0
ARC
8
0
10
194.1054501
20
-145.4066385
40
0.4
50
60
51
150
0
ARC
8
0
10
192.9054501
20
-147.4850995
40
0.4
50
150
51
240
0
ARC
8
0
10
194.9839111
20
-148.6850995
40
0.4
50
240
51
330
0
LINE
8
0
10
273.8503212
20
-89.2492305
11
275.0503212
21
-87.1707695
0
LINE
8
0
10
274.9039111
20
-86.6243594
11
272.8254501
21
-85.4243594
0
LINE
8
0
10
272.27904
20
-85.5707695
11
271.07904
21
-87.6492305
0
LINE
8
0
10
271.2254501
20
-88.1956406
11
273.3039111
21
-89.3956406
0
ARC
8
0
10
274.7039111
20
-86.9707695
40
0.4
50
330
51
60
0
ARC
8
0
10
272.6254501
20
-85.7707695
40
0.4
50
60
51
150
0
ARC
8
0
10
271.4254501
20
-87.8492305
40
0.4
50
150
51
240
0
ARC
8
0
10
273.5039111
20
-89.0492305
40
0.4
50
240
51
330
0
LINE
8
0
10
263.1003212
20
-107.8692305
11
264.3003212
21
-105.7907695
0
LINE
8
0
10
264.1539111
20
-105.2443594
11
262.0754501
21
-104.0443594
0
LINE
8
0
10
261.52904
20
-104.1907695
11
260.32904
21
-106.2692305
0
LINE
8
0
10
260.4754501
20
-106.8156406
11
262.5539111
21
-108.0156406
0
ARC
8
0
10
263.9539111
20
-105.5907695
40
0.4
50
330
51
60
0
ARC
8
0
10
261.8754501
20
-104.3907695
40
0.4
50
60
51
150
0
ARC
8
0
10
260.6754501
20
-106.4692305
40
0.4
50
150
51
240
0
ARC
8
0
10
262.7539111
20
-107.6692305
40
0.4
50
240
51
330
0
LINE
8
0
10
285.8003212
20
-110.9692305
11
284.6003212
21
-108.8907695
0
LINE
8
0
10
284.0539111
20
-108.7443594
11
281.9754501
21
-109.9443594
0
LINE
8
0
10
281.82904
20
-110.4907695
11
283.02904
21
-112.5692305
0
LINE
8
0
10
283.5754501
20
-112.7156406
11
285.6539111
21
-111.5156406
0
ARC
8
0
10
284.2539111
20
-109.0907695
40
0.4
50
30
51
120
0
ARC
8
0
10
282.1754501
20
-110.2907695
40
0.4
50
120
51
210
0
ARC
8
0
10
283.3754501
20
-112.3692305
40
0.4
50
210
51
300
0
ARC
8
0
10
285.4539111
20
-111.1692305
40
0.4
50
300
51
30
0
LINE
8
0
10
275.0503212
20
-129.5892305
11
273.8503212
21
-127.5107695
0
LINE
8
0
10
273.3039111
20
-127.3643594
11
271.2254501
21
-128.5643594
0
LINE
8
0
10
271.07904
20
-129.1107695
11
272.27904
21
-131.1892305
0
LINE
8
0
10
272.8254501
20
-131.3356406
11
274.9039111
21
-130.1356406
0
ARC
8
0
10
273.5039111
20
-127.7107695
40
0.4
50
30
51
120
0
ARC
8
0
10
271.4254501
20
-128.9107695
40
0.4
50
120
51
210
0
ARC
8
0
10
272.6254501
20
-130.9892305
40
0.4
50
210
51
300
0
ARC
8
0
10
274.7039111
20
-129.7892305
40
0.4
50
300
51
30
0
LINE
8
0
10
299.835
20
-130.1
11
297.435
21
-130.1
0
LINE
8
0
10
297.035
20
-130.5
11
297.035
21
-132.9
0
LINE
8
0
10
297.435
20
-133.3
11
299.835
21
-133.3
0
LINE
8
0
10
300.235
20
-132.9
11
300.235
21
-130.5
0
ARC
8
0
10
297.435
20
-130.5
40
0.4
50
90
51
180
0
ARC
8
0
10
297.435
20
-132.9
40
0.4
50
180
51
270
0
ARC
8
0
10
299.835
20
-132.9
40
0.4
50
270
51
0
0
ARC
8
0
10
299.835
20
-130.5
40
0.4
50
0
51
90
0
LINE
8
0
10
286.685
20
-146.295869
11
289.085
21
-146.295869
0
LINE
8
0
10
289.485
20
-145.895869
11
289.485
21
-143.495869
0
LINE
8
0
10
289.085
20
-143.095869
11
286.685
21
-143.095869
0
LINE
8
0
10
286.285
20
-143.495869
11
286.285
21
-145.895869
0
ARC
8
0
10
289.085
20
-145.895869
40
0.4
50
270
51
0
0
ARC
8
0
10
289.085
20
-143.495869
40
0.4
50
0
51
90
0
ARC
8
0
10
286.685
20
-143.495869
40
0.4
50
90
51
180
0
ARC
8
0
10
286.685
20
-145.895869
40
0.4
50
180
51
270
0
LINE
8
0
10
311.4696788
20
-146.8066385
11
312.6696788
21
-148.8850995
0
LINE
8
0
10
313.2160889
20
-149.0315096
11
315.2945499
21
-147.8315096
0
LINE
8
0
10
315.44096
20
-147.2850995
11
314.24096
21
-145.2066385
0
LINE
8
0
10
313.6945499
20
-145.0602284
11
311.6160889
21
-146.2602284
0
ARC
8
0
10
313.0160889
20
-148.6850995
40
0.4
50
210
51
300
0
ARC
8
0
10
315.0945499
20
-147.4850995
40
0.4
50
300
51
30
0
ARC
8
0
10
313.8945499
20
-145.4066385
40
0.4
50
30
51
120
0
ARC
8
0
10
311.8160889
20
-146.6066385
40
0.4
50
120
51
210
0
LINE
8
0
10
245.11
20
-96.5653988
11
262.89
21
-96.5653988
0
LINE
8
0
10
263.39
20
-96.0653988
11
263.39
21
-77.4816666
0
LINE
8
0
10
244.61
20
-77.4816666
11
244.61
21
-96.0653988
0
ARC
8
0
10
262.89
20
-96.0653988
40
0.5
50
270
51
0
0
ARC
8
0
10
245.11
20
-96.0653988
40
0.5
50
180
51
270
0
ENDSEC
0
EOF