0
SECTION
2
HEADER
9
$INSUNITS
70
4
0
ENDSEC
0
SECTION
2
TABLES
0
TABLE
2
LTYPE
0
LTYPE
72
65
70
64
2
CONTINUOUS
3
______
73
0
40
0
0
ENDTAB
0
TABLE
2
LAYER
0
ENDTAB
0
ENDSEC
0
SECTION
2
ENTITIES
0
LINE
8
0
10
230.73
20
-153.4028525
11
230.73
21
-141.3012438
0
LINE
8
0
10
229.2300274
20
-156.0009129
11
219.98
21
-161.3415489
0
LINE
8
0
10
219.98
20
-161.3415489
11
219.98
21
-161.6533179
0
LINE
8
0
10
219.98
20
-161.6533179
11
211.0000277
21
-166.838037
0
LINE
8
0
10
207.9999721
20
-166.8380375
11
189.4999726
21
-156.1567975
0
LINE
8
0
10
188
20
-153.5587371
11
188
21
-144.6094637
0
LINE
8
0
10
189.4999733
20
-142.0114029
11
197.5200267
21
-137.3809129
0
LINE
8
0
10
199.02
20
-134.7828521
11
199.02
21
-122.6812477
0
LINE
8
0
10
200.5199726
20
-120.0831873
11
208.2700274
21
-115.608582
0
LINE
8
0
10
209.77
20
-113.0105216
11
209.77
21
-104.0612477
0
LINE
8
0
10
211.2699726
20
-101.4631873
11
219.0200274
21
-96.988582
0
LINE
8
0
10
220.52
20
-94.3905216
11
220.52
21
-85.4412477
0
LINE
8
0
10
222.0199726
20
-82.8431873
11
229.7700274
21
-78.368582
0
LINE
8
0
10
231.27
20
-75.7705216
11
231.27
21
-63.9333335
0
LINE
8
0
10
234.27
20
-60.9333335
11
244.57
21
-60.9333333
0
LINE
8
0
10
263.43
20
-60.9333333
11
273.73
21
-60.9333335
0
LINE
8
0
10
276.73
20
-63.9333335
11
276.73
21
-75.7705216
0
LINE
8
0
10
278.2299726
20
-78.368582
11
285.9800274
21
-82.8431873
0
LINE
8
0
10
287.48
20
-85.4412477
11
287.48
21
-94.3905216
0
LINE
8
0
10
288.9799726
20
-96.988582
11
296.7300274
21
-101.4631873
0
LINE
8
0
10
298.23
20
-104.0612477
11
298.23
21
-113.0105216
0
LINE
8
0
10
299.7299726
20
-115.608582
11
307.4800274
21
-120.0831873
0
LINE
8
0
10
308.98
20
-122.6812477
11
308.98
21
-134.7828521
0
LINE
8
0
10
310.4799733
20
-137.3809129
11
318.5000267
21
-142.0114029
0
LINE
8
0
10
320
20
-144.6094637
11
320
21
-153.5587371
0
LINE
8
0
10
318.5000274
20
-156.1567975
11
300.0000279
21
-166.8380375
0
LINE
8
0
10
296.9999723
20
-166.838037
11
288.02
21
-161.6533179
0
LINE
8
0
10
288.02
20
-161.6533179
11
288.02
21
-161.3415489
0
LINE
8
0
10
288.02
20
-161.3415489
11
278.7699726
21
-156.0009129
0
LINE
8
0
10
277.27
20
-153.4028525
11
277.27
21
-141.3012438
0
ARC
8
0
10
227.73
20
-153.4028525
40
3
50
300.0006035
51
0
0
ARC
8
0
10
209.4999995
20
-164.2399771
40
3
50
239.9993965
51
300.0006212
0
ARC
8
0
10
191
20
-153.5587371
40
3
50
180
51
239.9993965
0
ARC
8
0
10
191
20
-144.6094637
40
3
50
120.0005878
51
180
0
ARC
8
0
10
196.02
20
-134.7828521
40
3
50
300.0005878
51
0
0
ARC
8
0
10
202.02
20
-122.6812477
40
3
50
120.0006035
51
180
0
ARC
8
0
10
206.77
20
-113.0105216
40
3
50
300.0006035
51
0
0
ARC
8
0
10
212.77
20
-104.0612477
40
3
50
120.0006035
51
180
0
ARC
8
0
10
217.52
20
-94.3905216
40
3
50
300.0006035
51
0
0
ARC
8
0
10
223.52
20
-85.4412477
40
3
50
120.0006035
51
180
0
ARC
8
0
10
228.27
20
-75.7705216
40
3
50
300.0006035
51
0
0
ARC
8
0
10
234.27
20
-63.9333335
40
3
50
90
51
180
0
ARC
8
0
10
273.73
20
-63.9333335
40
3
50
0
51
90
0
ARC
8
0
10
279.73
20
-75.7705216
40
3
50
180
51
239.9993965
0
ARC
8
0
10
284.48
20
-85.4412477
40
3
50
0
51
59.9993965
0
ARC
8
0
10
290.48
20
-94.3905216
40
3
50
180
51
239.9993965
0
ARC
8
0
10
295.23
20
-104.0612477
40
3
50
0
51
59.9993965
0
ARC
8
0
10
301.23
20
-113.0105216
40
3
50
180
51
239.9993965
0
ARC
8
0
10
305.98
20
-122.6812477
40
3
50
0
51
59.9993965
0
ARC
8
0
10
311.98
20
-134.7828521
40
3
50
180
51
239.9994122
0
ARC
8
0
10
317
20
-144.6094637
40
3
50
0
51
59.9994122
0
ARC
8
0
10
317
20
-153.5587371
40
3
50
300.0006035
51
0
0
ARC
8
0
10
298.5000005
20
-164.2399771
40
3
50
239.9993788
51
300.0006035
0
ARC
8
0
10
280.27
20
-153.4028525
40
3
50
180
51
239.9993965
0
LINE
8
0
10
232.4999677
20
-138.2355325
11
239.7100323
21
-134.0726984
0
LINE
8
0
10
241.48
20
-131.0069871
11
241.48
21
-124.1774488
0
LINE
8
0
10
245.02
20
-120.6374488
11
262.98
21
-120.6374488
0
LINE
8
0
10
266.52
20
-124.1774488
11
266.52
21
-131.0069871
0
LINE
8
0
10
268.2899677
20
-134.0726984
11
275.5000323
21
-138.2355325
0
ARC
8
0
10
273.73
20
-141.3012438
40
3.54
50
0
51
59.9993965
0
ARC
8
0
10
270.06
20
-131.0069871
40
3.54
50
180
51
239.9993965
0
ARC
8
0
10
262.98
20
-124.1774488
40
3.54
50
0
51
90
0
ARC
8
0
10
245.02
20
-124.1774488
40
3.54
50
90
51
180
0
ARC
8
0
10
237.94
20
-131.0069871
40
3.54
50
300.0006035
51
0
0
ARC
8
0
10
234.27
20
-141.3012438
40
3.54
50
120.0006035
51
180
0
LINE
8
0
10
222.0744247
20
-88.1004501
11
227.9744247
21
-98.3195499
0
LINE
8
0
10
229.3404501
20
-98.6855753
11
239.5595499
21
-92.7855753
0
LINE
8
0
10
239.9255753
20
-91.4195499
11
234.0255753
21
-81.2004501
0
LINE
8
0
10
232.6595499
20
-80.8344247
11
222.4404501
21
-86.7344247
0
ARC
8
0
10
228.8404501
20
-97.8195499
40
1
50
210
51
300
0
ARC
8
0
10
239.0595499
20
-91.9195499
40
1
50
300
51
30
0
ARC
8
0
10
233.1595499
20
-81.7004501
40
1
50
30
51
120
0
ARC
8
0
10
222.9404501
20
-87.6004501
40
1
50
120
51
210
0
LINE
8
0
10
217.2244247
20
-99.8204501
11
211.3244247
21
-110.0395499
0
LINE
8
0
10
211.6904501
20
-111.4055753
11
221.9095499
21
-117.3055753
0
LINE
8
0
10
223.2755753
20
-116.9395499
11
229.1755753
21
-106.7204501
0
LINE
8
0
10
228.8095499
20
-105.3544247
11
218.5904501
21
-99.4544247
0
ARC
8
0
10
212.1904501
20
-110.5395499
40
1
50
150
51
240
0
ARC
8
0
10
222.4095499
20
-116.4395499
40
1
50
240
51
330
0
ARC
8
0
10
228.3095499
20
-106.2204501
40
1
50
330
51
60
0
ARC
8
0
10
218.0904501
20
-100.3204501
40
1
50
60
51
150
0
LINE
8
0
10
215.4
20
-120.1
11
203.6
21
-120.1
0
LINE
8
0
10
202.6
20
-121.1
11
202.6
21
-132.9
0
LINE
8
0
10
203.6
20
-133.9
11
215.4
21
-133.9
0
LINE
8
0
10
216.4
20
-132.9
11
216.4
21
-121.1
0
ARC
8
0
10
203.6
20
-121.1
40
1
50
90
51
180
0
ARC
8
0
10
203.6
20
-132.9
40
1
50
180
51
270
0
ARC
8
0
10
215.4
20
-132.9
40
1
50
270
51
0
0
ARC
8
0
10
215.4
20
-121.1
40
1
50
0
51
90
0
LINE
8
0
10
201.7755753
20
-157.6436499
11
207.6755753
21
-147.4245501
0
LINE
8
0
10
207.3095499
20
-146.0585247
11
197.0904501
21
-140.1585247
0
LINE
8
0
10
195.7244247
20
-140.5245501
11
189.8244247
21
-150.7436499
0
LINE
8
0
10
190.1904501
20
-152.1096753
11
200.4095499
21
-158.0096753
0
ARC
8
0
10
206.8095499
20
-146.9245501
40
1
50
330
51
60
0
ARC
8
0
10
196.5904501
20
-141.0245501
40
1
50
60
51
150
0
ARC
8
0
10
190.6904501
20
-151.2436499
40
1
50
150
51
240
0
ARC
8
0
10
200.9095499
20
-157.1436499
40
1
50
240
51
330
0
LINE
8
0
10
238.7244247
20
-99.8204501
11
232.8244247
21
-110.0395499
0
LINE
8
0
10
233.1904501
20
-111.4055753
11
243.4095499
21
-117.3055753
0
LINE
8
0
10
244.7755753
20
-116.9395499
11
250.6755753
21
-106.7204501
0
LINE
8
0
10
250.3095499
20
-105.3544247
11
240.0904501
21
-99.4544247
0
ARC
8
0
10
233.6904501
20
-110.5395499
40
1
50
150
51
240
0
ARC
8
0
10
243.9095499
20
-116.4395499
40
1
50
240
51
330
0
ARC
8
0
10
249.8095499
20
-106.2204501
40
1
50
330
51
60
0
ARC
8
0
10
239.5904501
20
-100.3204501
40
1
50
60
51
150
0
LINE
8
0
10
227.9744247
20
-118.4404501
11
222.0744247
21
-128.6595499
0
LINE
8
0
10
222.4404501
20
-130.0255753
11
232.6595499
21
-135.9255753
0
LINE
8
0
10
234.0255753
20
-135.5595499
11
239.9255753
21
-125.3404501
0
LINE
8
0
10
239.5595499
20
-123.9744247
11
229.3404501
21
-118.0744247
0
ARC
8
0
10
222.9404501
20
-129.1595499
40
1
50
150
51
240
0
ARC
8
0
10
233.1595499
20
-135.0595499
40
1
50
240
51
330
0
ARC
8
0
10
239.0595499
20
-124.8404501
40
1
50
330
51
60
0
ARC
8
0
10
228.8404501
20
-118.9404501
40
1
50
60
51
150
0
LINE
8
0
10
214.35
20
-155.9841
11
226.15
21
-155.9841
0
LINE
8
0
10
227.15
20
-154.9841
11
227.15
21
-143.1841
0
LINE
8
0
10
226.15
20
-142.1841
11
214.35
21
-142.1841
0
LINE
8
0
10
213.35
20
-143.1841
11
213.35
21
-154.9841
0
ARC
8
0
10
226.15
20
-154.9841
40
1
50
270
51
0
0
ARC
8
0
10
226.15
20
-143.1841
40
1
50
0
51
90
0
ARC
8
0
10
214.35
20
-143.1841
40
1
50
90
51
180
0
ARC
8
0
10
214.35
20
-154.9841
40
1
50
180
51
270
0
LINE
8
0
10
280.0255753
20
-98.3195499
11
285.9255753
21
-88.1004501
0
LINE
8
0
10
285.5595499
20
-86.7344247
11
275.3404501
21
-80.8344247
0
LINE
8
0
10
273.9744247
20
-81.2004501
11
268.0744247
21
-91.4195499
0
LINE
8
0
10
268.4404501
20
-92.7855753
11
278.6595499
21
-98.6855753
0
ARC
8
0
10
285.0595499
20
-87.6004501
40
1
50
330
51
60
0
ARC
8
0
10
274.8404501
20
-81.7004501
40
1
50
60
51
150
0
ARC
8
0
10
268.9404501
20
-91.9195499
40
1
50
150
51
240
0
ARC
8
0
10
279.1595499
20
-97.8195499
40
1
50
240
51
330
0
LINE
8
0
10
296.6755753
20
-110.0395499
11
290.7755753
21
-99.8204501
0
LINE
8
0
10
289.4095499
20
-99.4544247
11
279.1904501
21
-105.3544247
0
LINE
8
0
10
278.8244247
20
-106.7204501
11
284.7244247
21
-116.9395499
0
LINE
8
0
10
286.0904501
20
-117.3055753
11
296.3095499
21
-111.4055753
0
ARC
8
0
10
289.9095499
20
-100.3204501
40
1
50
30
51
120
0
ARC
8
0
10
279.6904501
20
-106.2204501
40
1
50
120
51
210
0
ARC
8
0
10
285.5904501
20
-116.4395499
40
1
50
210
51
300
0
ARC
8
0
10
295.8095499
20
-110.5395499
40
1
50
300
51
30
0
LINE
8
0
10
304.4
20
-120.1
11
292.6
21
-120.1
0
LINE
8
0
10
291.6
20
-121.1
11
291.6
21
-132.9
0
LINE
8
0
10
292.6
20
-133.9
11
304.4
21
-133.9
0
LINE
8
0
10
305.4
20
-132.9
11
305.4
21
-121.1
0
ARC
8
0
10
292.6
20
-121.1
40
1
50
90
51
180
0
ARC
8
0
10
292.6
20
-132.9
40
1
50
180
51
270
0
ARC
8
0
10
304.4
20
-132.9
40
1
50
270
51
0
0
ARC
8
0
10
304.4
20
-121.1
40
1
50
0
51
90
0
LINE
8
0
10
300.3244247
20
-147.4245501
11
306.2244247
21
-157.6436499
0
LINE
8
0
10
307.5904501
20
-158.0096753
11
317.8095499
21
-152.1096753
0
LINE
8
0
10
318.1755753
20
-150.7436499
11
312.2755753
21
-140.5245501
0
LINE
8
0
10
310.9095499
20
-140.1585247
11
300.6904501
21
-146.0585247
0
ARC
8
0
10
307.0904501
20
-157.1436499
40
1
50
210
51
300
0
ARC
8
0
10
317.3095499
20
-151.2436499
40
1
50
300
51
30
0
ARC
8
0
10
311.4095499
20
-141.0245501
40
1
50
30
51
120
0
ARC
8
0
10
301.1904501
20
-146.9245501
40
1
50
120
51
210
0
LINE
8
0
10
275.1755753
20
-110.0395499
11
269.2755753
21
-99.8204501
0
LINE
8
0
10
267.9095499
20
-99.4544247
11
257.6904501
21
-105.3544247
0
LINE
8
0
10
257.3244247
20
-106.7204501
11
263.2244247
21
-116.9395499
0
LINE
8
0
10
264.5904501
20
-117.3055753
11
274.8095499
21
-111.4055753
0
ARC
8
0
10
268.4095499
20
-100.3204501
40
1
50
30
51
120
0
ARC
8
0
10
258.1904501
20
-106.2204501
40
1
50
120
51
210
0
ARC
8
0
10
264.0904501
20
-116.4395499
40
1
50
210
51
300
0
ARC
8
0
10
274.3095499
20
-110.5395499
40
1
50
300
51
30
0
LINE
8
0
10
285.9255753
20
-128.6595499
11
280.0255753
21
-118.4404501
0
LINE
8
0
10
278.6595499
20
-118.0744247
11
268.4404501
21
-123.9744247
0
LINE
8
0
10
268.0744247
20
-125.3404501
11
273.9744247
21
-135.5595499
0
LINE
8
0
10
275.3404501
20
-135.9255753
11
285.5595499
21
-130.0255753
0
ARC
8
0
10
279.1595499
20
-118.9404501
40
1
50
30
51
120
0
ARC
8
0
10
268.9404501
20
-124.8404501
40
1
50
120
51
210
0
ARC
8
0
10
274.8404501
20
-135.0595499
40
1
50
210
51
300
0
ARC
8
0
10
285.0595499
20
-129.1595499
40
1
50
300
51
30
0
LINE
8
0
10
281.85
20
-155.9841
11
293.65
21
-155.9841
0
LINE
8
0
10
294.65
20
-154.9841
11
294.65
21
-143.1841
0
LINE
8
0
10
293.65
20
-142.1841
11
281.85
21
-142.1841
0
LINE
8
0
10
280.85
20
-143.1841
11
280.85
21
-154.9841
0
ARC
8
0
10
293.65
20
-154.9841
40
1
50
270
51
0
0
ARC
8
0
10
293.65
20
-143.1841
40
1
50
0
51
90
0
ARC
8
0
10
281.85
20
-143.1841
40
1
50
90
51
180
0
ARC
8
0
10
281.85
20
-154.9841
40
1
50
180
51
270
0
LINE
8
0
10
245.11
20
-94.4933333
11
247.15
21
-94.4933333
0
LINE
8
0
10
260.85
20
-94.4933333
11
262.89
21
-94.4933333
0
LINE
8
0
10
263.43
20
-93.9533333
11
263.43
21
-60.9333333
0
LINE
8
0
10
244.57
20
-60.9333333
11
244.57
21
-93.9533333
0
ARC
8
0
10
262.89
20
-93.9533333
40
0.54
50
270
51
0
0
ARC
8
0
10
245.11
20
-93.9533333
40
0.54
50
180
51
270
0
LINE
8
0
10
247.69
20
-97.5533333
11
260.31
21
-97.5533333
0
LINE
8
0
10
260.85
20
-97.0133333
11
260.85
21
-94.4933333
0
LINE
8
0
10
247.15
20
-94.4933333
11
247.15
21
-97.0133333
0
ARC
8
0
10
260.31
20
-97.0133333
40
0.54
50
270
51
0
0
ARC
8
0
10
247.69
20
-97.0133333
40
0.54
50
180
51
270
0
ENDSEC
0
EOF