0
SECTION
2
HEADER
9
$INSUNITS
70
4
0
ENDSEC
0
SECTION
2
TABLES
0
TABLE
2
LTYPE
0
LTYPE
72
65
70
64
2
CONTINUOUS
3
______
73
0
40
0
0
ENDTAB
0
TABLE
2
LAYER
0
ENDTAB
0
ENDSEC
0
SECTION
2
ENTITIES
0
LINE
8
0
10
230.73
20
-153.4028525
11
230.73
21
-140.9894785
0
LINE
8
0
10
229.2300274
20
-156.0009129
11
221.6150304
21
-160.3975406
0
LINE
8
0
10
197.1149702
20
-160.5534255
11
189.4999726
21
-156.1567975
0
LINE
8
0
10
188
20
-153.5587371
11
188
21
-144.6094637
0
LINE
8
0
10
189.4999733
20
-142.0114029
11
197.5200267
21
-137.3809129
0
LINE
8
0
10
199.02
20
-134.7828521
11
199.02
21
-122.6812477
0
LINE
8
0
10
200.5199726
20
-120.0831873
11
208.2700274
21
-115.608582
0
LINE
8
0
10
209.77
20
-113.0105216
11
209.77
21
-104.0612477
0
LINE
8
0
10
211.2699726
20
-101.4631873
11
219.0200274
21
-96.988582
0
LINE
8
0
10
220.52
20
-94.3905216
11
220.52
21
-85.4412477
0
LINE
8
0
10
222.0199726
20
-82.8431873
11
229.7700274
21
-78.368582
0
LINE
8
0
10
278.2299726
20
-78.368582
11
285.9800274
21
-82.8431873
0
LINE
8
0
10
287.48
20
-85.4412477
11
287.48
21
-94.3905216
0
LINE
8
0
10
288.9799726
20
-96.988582
11
296.7300274
21
-101.4631873
0
LINE
8
0
10
298.23
20
-104.0612477
11
298.23
21
-113.0105216
0
LINE
8
0
10
299.7299726
20
-115.608582
11
307.4800274
21
-120.0831873
0
LINE
8
0
10
308.98
20
-122.6812477
11
308.98
21
-134.7828521
0
LINE
8
0
10
310.4799733
20
-137.3809129
11
318.5000267
21
-142.0114029
0
LINE
8
0
10
320
20
-144.6094637
11
320
21
-153.5587371
0
LINE
8
0
10
318.5000274
20
-156.1567975
11
310.8850298
21
-160.5534255
0
LINE
8
0
10
286.3849696
20
-160.3975406
11
278.7699726
21
-156.0009129
0
LINE
8
0
10
277.27
20
-153.4028525
11
277.27
21
-140.9894785
0
ARC
8
0
10
227.73
20
-153.4028525
40
3
50
300.0006035
51
0
0
ARC
8
0
10
191
20
-153.5587371
40
3
50
180
51
239.9993965
0
ARC
8
0
10
191
20
-144.6094637
40
3
50
120.0005878
51
180
0
ARC
8
0
10
196.02
20
-134.7828521
40
3
50
300.0005878
51
0
0
ARC
8
0
10
202.02
20
-122.6812477
40
3
50
120.0006035
51
180
0
ARC
8
0
10
206.77
20
-113.0105216
40
3
50
300.0006035
51
0
0
ARC
8
0
10
212.77
20
-104.0612477
40
3
50
120.0006035
51
180
0
ARC
8
0
10
217.52
20
-94.3905216
40
3
50
300.0006035
51
0
0
ARC
8
0
10
223.52
20
-85.4412477
40
3
50
120.0006035
51
180
0
ARC
8
0
10
228.27
20
-75.7705216
40
3
50
300.0006035
51
325.2231556
0
ARC
8
0
10
279.73
20
-75.7705216
40
3
50
214.7768444
51
239.9993965
0
ARC
8
0
10
284.48
20
-85.4412477
40
3
50
0
51
59.9993965
0
ARC
8
0
10
290.48
20
-94.3905216
40
3
50
180
51
239.9993965
0
ARC
8
0
10
295.23
20
-104.0612477
40
3
50
0
51
59.9993965
0
ARC
8
0
10
301.23
20
-113.0105216
40
3
50
180
51
239.9993965
0
ARC
8
0
10
305.98
20
-122.6812477
40
3
50
0
51
59.9993965
0
ARC
8
0
10
311.98
20
-134.7828521
40
3
50
180
51
239.9994122
0
ARC
8
0
10
317
20
-144.6094637
40
3
50
0
51
59.9994122
0
ARC
8
0
10
317
20
-153.5587371
40
3
50
300.0006035
51
0
0
ARC
8
0
10
280.27
20
-153.4028525
40
3
50
180
51
239.9993965
0
LINE
8
0
10
232.2299726
20
-138.3914181
11
239.9800274
21
-133.9168128
0
LINE
8
0
10
241.48
20
-131.3187524
11
241.48
21
-123.6374488
0
LINE
8
0
10
244.48
20
-120.6374488
11
248.25
21
-120.6374488
0
LINE
8
0
10
259.75
20
-120.6374488
11
263.52
21
-120.6374488
0
LINE
8
0
10
266.52
20
-123.6374488
11
266.52
21
-131.3187524
0
LINE
8
0
10
268.0199726
20
-133.9168128
11
275.7700274
21
-138.3914181
0
ARC
8
0
10
274.27
20
-140.9894785
40
3
50
0
51
59.9993965
0
ARC
8
0
10
269.52
20
-131.3187524
40
3
50
180
51
239.9993965
0
ARC
8
0
10
263.52
20
-123.6374488
40
3
50
0
51
90
0
ARC
8
0
10
244.48
20
-123.6374488
40
3
50
90
51
180
0
ARC
8
0
10
238.48
20
-131.3187524
40
3
50
300.0006035
51
0
0
ARC
8
0
10
233.73
20
-140.9894785
40
3
50
120.0006035
51
180
0
LINE
8
0
10
230.7341394
20
-77.4816666
11
244.57
21
-77.4816666
0
LINE
8
0
10
263.43
20
-77.4816666
11
277.2658606
21
-77.4816666
0
LINE
8
0
10
200.3850298
20
-160.5534255
11
207.8649696
21
-156.234775
0
LINE
8
0
10
211.1350302
20
-156.2347754
11
218.3449698
21
-160.3975402
0
LINE
8
0
10
289.6550302
20
-160.3975402
11
296.8649698
21
-156.2347754
0
LINE
8
0
10
300.1350304
20
-156.234775
11
307.6149702
21
-160.5534255
0
ARC
8
0
10
219.9800006
20
-157.5656548
40
3.27
50
239.9993788
51
300.0006035
0
ARC
8
0
10
209.4999994
20
-159.0666608
40
3.27
50
59.9993788
51
120.0006035
0
ARC
8
0
10
198.75
20
-157.7215396
40
3.27
50
239.9993965
51
300.0006035
0
ARC
8
0
10
309.25
20
-157.7215396
40
3.27
50
239.9993965
51
300.0006035
0
ARC
8
0
10
298.5000006
20
-159.0666608
40
3.27
50
59.9993965
51
120.0006212
0
ARC
8
0
10
288.0199994
20
-157.5656548
40
3.27
50
239.9993965
51
300.0006212
0
LINE
8
0
10
245.11
20
-94.4933333
11
247.15
21
-94.4933333
0
LINE
8
0
10
260.85
20
-94.4933333
11
262.89
21
-94.4933333
0
LINE
8
0
10
263.43
20
-93.9533333
11
263.43
21
-77.4816666
0
LINE
8
0
10
244.57
20
-77.4816666
11
244.57
21
-93.9533333
0
ARC
8
0
10
262.89
20
-93.9533333
40
0.54
50
270
51
0
0
ARC
8
0
10
245.11
20
-93.9533333
40
0.54
50
180
51
270
0
LINE
8
0
10
247.69
20
-97.5533333
11
260.31
21
-97.5533333
0
LINE
8
0
10
260.85
20
-97.0133333
11
260.85
21
-94.4933333
0
LINE
8
0
10
247.15
20
-94.4933333
11
247.15
21
-97.0133333
0
ARC
8
0
10
260.31
20
-97.0133333
40
0.54
50
270
51
0
0
ARC
8
0
10
247.69
20
-97.0133333
40
0.54
50
180
51
270
0
LINE
8
0
10
235.2849256
20
-90.0417089
11
235.9417107
21
-91.179294
0
ARC
8
0
10
236.2665236
20
-92.1250723
40
1
50
19.8073433
51
108.9542416
0
ARC
8
0
10
237.9600308
20
-91.515127
40
0.8
50
199.8073425
51
45.9082215
0
ARC
8
0
10
239.2124884
20
-90.2223199
40
1
50
156.2325194
51
225.9082203
0
LINE
8
0
10
238.2972998
20
-89.819294
11
237.6405147
21
-88.6817089
0
ARC
8
0
10
238.5065401
20
-88.1817089
40
1
50
174.0959303
51
210
0
LINE
8
0
10
237.5118446
20
-88.0788457
11
235.7118446
21
-84.9611543
0
ARC
8
0
10
236.1201102
20
-84.0482911
40
1
50
210
51
245.9040697
0
LINE
8
0
10
235.2540848
20
-84.5482911
11
234.5972998
21
-83.410706
0
LINE
8
0
10
234.5972998
20
-83.410706
11
232.2417107
21
-84.770706
0
LINE
8
0
10
232.2417107
20
-84.770706
11
232.8984957
21
-85.9082911
0
ARC
8
0
10
232.0324703
20
-86.4082911
40
1
50
354.0959303
51
30
0
ARC
8
0
10
232.0317485
20
-86.4155277
40
1
50
252.855336
51
354.5126163
0
ARC
8
0
10
231
20
-89.76
40
2.5
50
72.8553366
51
126.1506399
0
ARC
8
0
10
228.9353141
20
-86.9338592
40
1
50
210
51
306.1506399
0
LINE
8
0
10
228.0160164
20
-87.3415887
11
228.0692887
21
-87.4338592
0
ARC
8
0
10
228.8820418
20
-86.8415887
40
1
50
108.9125106
51
210
0
ARC
8
0
10
228.25
20
-84.9968603
40
0.95
50
288.9125107
51
131.0871451
0
ARC
8
0
10
226.9679652
20
-83.5275452
40
1
50
211.8376761
51
311.10597
0
ARC
8
0
10
225.94851
20
-84.1605626
40
0.2
50
31.8376714
51
111.6144613
0
ARC
8
0
10
225.5064789
20
-83.0449424
40
1
50
210
51
291.6144613
0
LINE
8
0
10
224.6404535
20
-83.5449424
11
224.1814543
21
-82.7499324
0
LINE
8
0
10
221.9896455
20
-84.1536083
11
222.6200653
21
-85.2455274
0
ARC
8
0
10
221.7540399
20
-85.7455274
40
1
50
325.5028213
51
30
0
ARC
8
0
10
223.2375173
20
-86.7649855
40
0.8
50
145.5028228
51
210
0
LINE
8
0
10
223.9821969
20
-89.6548085
11
222.5446969
21
-87.1649855
0
ARC
8
0
10
223.029569
20
-90.2048085
40
1.1
50
300
51
30
0
LINE
8
0
10
223.363039
20
-91.2824501
11
223.579569
21
-91.1574365
0
LINE
8
0
10
223.0519274
20
-92.4435344
11
223.363039
21
-91.2824501
0
LINE
8
0
10
223.0519274
20
-92.4435344
11
224.5894547
21
-95.1066098
0
LINE
8
0
10
225.5895312
20
-95.3745795
11
224.5894547
21
-95.1066098
0
ARC
8
0
10
225.3307121
20
-96.3405054
40
1
50
30
51
75
0
LINE
8
0
10
226.1967375
20
-95.8405054
11
227.2021171
21
-97.5818738
0
ARC
8
0
10
227.5665563
20
-98.513101
40
1
50
30
51
111.3730735
0
LINE
8
0
10
228.4325817
20
-98.013101
11
229.0507387
21
-99.0837804
0
LINE
8
0
10
229.0507387
20
-99.0837804
11
232.947853
21
-96.8337804
0
ARC
8
0
10
233.8788976
20
-96.4688749
40
1
50
93.7900921
51
201.4017642
0
ARC
8
0
10
233.75
20
-94.5231397
40
0.95
50
273.7900908
51
173.5189398
0
ARC
8
0
10
231.812462
20
-94.3030339
40
1
50
283.6146708
51
353.5189398
0
LINE
8
0
10
232.047853
20
-95.2749346
11
230.5323085
21
-96.1499346
0
ARC
8
0
10
230.0323085
20
-95.2839092
40
1
50
210
51
300
0
LINE
8
0
10
229.1662831
20
-95.7839092
11
228.4484036
21
-94.5405054
0
ARC
8
0
10
229.314429
20
-94.0405054
40
1
50
165
51
210
0
LINE
8
0
10
228.6164728
20
-92.7816098
11
228.3485031
21
-93.7816863
0
ARC
8
0
10
229.5990634
20
-92.967394
40
1
50
66.4050931
51
169.2931447
0
ARC
8
0
10
231
20
-89.76
40
2.5
50
246.4050912
51
347.1446634
0
ARC
8
0
10
234.4122722
20
-90.5387157
40
1
50
65.4873837
51
167.144664
0
ARC
8
0
10
234.4189002
20
-90.5417089
40
1
50
30
51
65.9040697
0
LINE
8
0
10
222.1484957
20
-112.2317089
11
221.4917107
21
-113.369294
0
ARC
8
0
10
220.8350491
20
-114.1234794
40
1
50
319.8073433
51
48.9542416
0
ARC
8
0
10
222.2100308
20
-115.285127
40
0.8
50
139.8073425
51
345.9082215
0
ARC
8
0
10
223.9558634
20
-115.7233835
40
1
50
96.2325194
51
165.9082203
0
LINE
8
0
10
223.8472998
20
-114.729294
11
224.5040848
21
-113.5917089
0
ARC
8
0
10
225.3701102
20
-114.0917089
40
1
50
114.0959303
51
150
0
LINE
8
0
10
224.9618446
20
-113.1788457
11
226.7618446
21
-110.0611543
0
ARC
8
0
10
227.7565401
20
-109.9582911
40
1
50
150
51
185.9040697
0
LINE
8
0
10
226.8905147
20
-109.4582911
11
227.5472998
21
-108.320706
0
LINE
8
0
10
227.5472998
20
-108.320706
11
225.1917107
21
-106.960706
0
LINE
8
0
10
225.1917107
20
-106.960706
11
224.5349256
21
-108.0982911
0
ARC
8
0
10
223.6689002
20
-107.5982911
40
1
50
294.0959303
51
330
0
ARC
8
0
10
223.6622722
20
-107.6012843
40
1
50
192.855336
51
294.5126163
0
ARC
8
0
10
220.25
20
-108.38
40
2.5
50
12.8553366
51
66.1506399
0
ARC
8
0
10
221.6651668
20
-105.1788592
40
1
50
150
51
246.1506399
0
LINE
8
0
10
220.8524138
20
-104.5865887
11
220.7991414
21
-104.6788592
0
ARC
8
0
10
221.7184392
20
-105.0865887
40
1
50
48.9125106
51
150
0
ARC
8
0
10
223
20
-103.6168603
40
0.95
50
228.9125107
51
71.0871451
0
ARC
8
0
10
223.6314468
20
-101.771928
40
1
50
151.8376761
51
251.10597
0
ARC
8
0
10
222.57351
20
-101.2055626
40
0.2
50
331.8376714
51
51.6144613
0
ARC
8
0
10
223.3186499
20
-100.2649424
40
1
50
150
51
231.6144613
0
LINE
8
0
10
222.4526245
20
-99.7649424
11
223.109039
21
-98.6279991
0
LINE
8
0
10
223.109039
20
-98.6279991
11
220.857373
21
-97.3279991
0
LINE
8
0
10
220.857373
20
-97.3279991
11
219.9696806
21
-98.8655274
0
ARC
8
0
10
219.1036552
20
-98.3655274
40
1
50
265.5028213
51
330
0
ARC
8
0
10
218.9625173
20
-100.1599855
40
0.8
50
85.5028228
51
150
0
LINE
8
0
10
216.8321969
20
-102.2498085
11
218.2696969
21
-99.7599855
0
ARC
8
0
10
215.879569
20
-101.6998085
40
1.1
50
240
51
330
0
LINE
8
0
10
215.113039
20
-102.5274228
11
215.329569
21
-102.6524365
0
LINE
8
0
10
213.9519547
20
-102.8385344
11
215.113039
21
-102.5274228
0
LINE
8
0
10
213.9519547
20
-102.8385344
11
212.4144274
21
-105.5016098
0
LINE
8
0
10
212.6823971
20
-106.5016863
11
212.4144274
21
-105.5016098
0
ARC
8
0
10
211.7164712
20
-106.7605054
40
1
50
330
51
15
0
LINE
8
0
10
212.5824966
20
-107.2605054
11
211.5771171
21
-109.0018738
0
ARC
8
0
10
210.9528703
20
-109.783101
40
1
50
330
51
51.3730735
0
LINE
8
0
10
211.8188957
20
-110.283101
11
211.2007387
21
-111.3537804
0
LINE
8
0
10
211.2007387
20
-111.3537804
11
215.097853
21
-113.6037804
0
ARC
8
0
10
215.8793927
20
-114.2276359
40
1
50
33.7900921
51
141.4017642
0
ARC
8
0
10
217.5
20
-113.1431397
40
0.95
50
213.7900908
51
113.5189398
0
ARC
8
0
10
216.7218482
20
-111.3551297
40
1
50
223.6146708
51
293.5189398
0
LINE
8
0
10
215.997853
20
-112.0449346
11
214.4823085
21
-111.1699346
0
ARC
8
0
10
214.9823085
20
-110.3039092
40
1
50
150
51
240
0
LINE
8
0
10
214.1162831
20
-109.8039092
11
214.8341627
21
-108.5605054
0
ARC
8
0
10
215.7001881
20
-109.0605054
40
1
50
105
51
150
0
LINE
8
0
10
216.4414455
20
-107.8266098
11
215.441369
21
-108.0945795
0
ARC
8
0
10
216.771847
20
-108.7704503
40
1
50
6.4050931
51
109.2931447
0
ARC
8
0
10
220.25
20
-108.38
40
2.5
50
186.4050912
51
287.1446634
0
ARC
8
0
10
221.2817485
20
-111.7244723
40
1
50
5.4873837
51
107.144664
0
ARC
8
0
10
221.2824703
20
-111.7317089
40
1
50
330
51
5.9040697
0
LINE
8
0
10
207.1135701
20
-130.57
11
205.8
21
-130.57
0
ARC
8
0
10
204.8185255
20
-130.3784071
40
1
50
259.8073433
51
348.9542416
0
ARC
8
0
10
204.5
20
-132.15
40
0.8
50
79.8073425
51
285.9082215
0
ARC
8
0
10
204.993375
20
-133.8810636
40
1
50
36.2325194
51
105.9082203
0
LINE
8
0
10
205.8
20
-133.29
11
207.1135701
21
-133.29
0
ARC
8
0
10
207.1135701
20
-134.29
40
1
50
54.0959303
51
90
0
LINE
8
0
10
207.7
20
-133.48
11
211.3
21
-133.48
0
ARC
8
0
10
211.8864299
20
-134.29
40
1
50
90
51
125.9040697
0
LINE
8
0
10
211.8864299
20
-133.29
11
213.2
21
-133.29
0
LINE
8
0
10
213.2
20
-133.29
11
213.2
21
-130.57
0
LINE
8
0
10
213.2
20
-130.57
11
211.8864299
21
-130.57
0
ARC
8
0
10
211.8864299
20
-129.57
40
1
50
234.0959303
51
270
0
ARC
8
0
10
211.8805237
20
-129.5657566
40
1
50
132.855336
51
234.5126163
0
ARC
8
0
10
209.5
20
-127
40
2.5
50
312.8553366
51
6.1506399
0
ARC
8
0
10
212.9798527
20
-126.625
40
1
50
90
51
186.1506399
0
LINE
8
0
10
213.0863974
20
-125.625
11
212.9798527
21
-125.625
0
ARC
8
0
10
213.0863974
20
-126.625
40
1
50
348.9125106
51
90
0
ARC
8
0
10
215
20
-127
40
0.95
50
168.9125107
51
11.0871451
0
ARC
8
0
10
216.9134816
20
-126.6243828
40
1
50
91.8376761
51
191.10597
0
ARC
8
0
10
216.875
20
-125.425
40
0.2
50
271.8376714
51
351.6144613
0
ARC
8
0
10
218.062171
20
-125.6
40
1
50
90
51
171.6144613
0
LINE
8
0
10
218.062171
20
-124.6
11
219.375
21
-124.6
0
LINE
8
0
10
219.375
20
-124.6
11
219.375
21
-122
0
LINE
8
0
10
219.375
20
-122
11
217.5996153
21
-122
0
ARC
8
0
10
217.5996153
20
-121
40
1
50
205.5028213
51
270
0
ARC
8
0
10
215.975
20
-121.775
40
0.8
50
25.5028228
51
90
0
LINE
8
0
10
213.1
20
-120.975
11
215.975
21
-120.975
0
ARC
8
0
10
213.1
20
-119.875
40
1.1
50
180
51
270
0
LINE
8
0
10
212
20
-119.6249727
11
212
21
-119.875
0
LINE
8
0
10
211.1500273
20
-118.775
11
212
21
-119.6249727
0
LINE
8
0
10
211.1500273
20
-118.775
11
208.0749727
21
-118.775
0
LINE
8
0
10
207.3428659
20
-119.5071068
11
208.0749727
21
-118.775
0
ARC
8
0
10
206.6357591
20
-118.8
40
1
50
270
51
315
0
LINE
8
0
10
206.6357591
20
-119.8
11
204.625
21
-119.8
0
ARC
8
0
10
203.636314
20
-119.65
40
1
50
270
51
351.3730735
0
LINE
8
0
10
203.636314
20
-120.65
11
202.4
21
-120.65
0
LINE
8
0
10
202.4
20
-120.65
11
202.4
21
-125.15
0
ARC
8
0
10
202.2504951
20
-126.138761
40
1
50
333.7900921
51
81.4017642
0
ARC
8
0
10
204
20
-127
40
0.95
50
153.7900908
51
53.5189398
0
ARC
8
0
10
205.1593862
20
-125.4320958
40
1
50
163.6146708
51
233.5189398
0
LINE
8
0
10
204.2
20
-125.15
11
204.2
21
-123.4
0
ARC
8
0
10
205.2
20
-123.4
40
1
50
90
51
180
0
LINE
8
0
10
205.2
20
-122.4
11
206.6357591
21
-122.4
0
ARC
8
0
10
206.6357591
20
-123.4
40
1
50
45
51
90
0
LINE
8
0
10
208.0749727
20
-123.425
11
207.3428659
21
-122.6928932
0
ARC
8
0
10
207.4227836
20
-124.1830563
40
1
50
306.4050931
51
49.2931447
0
ARC
8
0
10
209.5
20
-127
40
2.5
50
126.4050912
51
227.1446634
0
ARC
8
0
10
207.1194763
20
-129.5657566
40
1
50
305.4873837
51
47.144664
0
ARC
8
0
10
207.1135701
20
-129.57
40
1
50
270
51
305.9040697
0
LINE
8
0
10
196.8515043
20
-145.2323911
11
197.5082893
21
-144.094806
0
ARC
8
0
10
198.1649509
20
-143.3406206
40
1
50
139.8073433
51
228.9542416
0
ARC
8
0
10
196.7899692
20
-142.178973
40
0.8
50
319.8073425
51
165.9082215
0
ARC
8
0
10
195.0441366
20
-141.7407165
40
1
50
276.2325194
51
345.9082203
0
LINE
8
0
10
195.1527002
20
-142.734806
11
194.4959152
21
-143.8723911
0
ARC
8
0
10
193.6298898
20
-143.3723911
40
1
50
294.0959303
51
330
0
LINE
8
0
10
194.0381554
20
-144.2852543
11
192.2381554
21
-147.4029457
0
ARC
8
0
10
191.2434599
20
-147.5058089
40
1
50
330
51
5.9040697
0
LINE
8
0
10
192.1094853
20
-148.0058089
11
191.4527002
21
-149.143394
0
LINE
8
0
10
191.4527002
20
-149.143394
11
193.8082893
21
-150.503394
0
LINE
8
0
10
193.8082893
20
-150.503394
11
194.4650744
21
-149.3658089
0
ARC
8
0
10
195.3310998
20
-149.8658089
40
1
50
114.0959303
51
150
0
ARC
8
0
10
195.3377278
20
-149.8628157
40
1
50
12.855336
51
114.5126163
0
ARC
8
0
10
198.75
20
-149.0841
40
2.5
50
192.8553366
51
246.1506399
0
ARC
8
0
10
197.3348332
20
-152.2852408
40
1
50
330
51
66.1506399
0
LINE
8
0
10
198.1475862
20
-152.8775113
11
198.2008586
21
-152.7852408
0
ARC
8
0
10
197.2815608
20
-152.3775113
40
1
50
228.9125106
51
330
0
ARC
8
0
10
196
20
-153.8472397
40
0.95
50
48.9125107
51
251.0871451
0
ARC
8
0
10
195.3685532
20
-155.692172
40
1
50
331.8376761
51
71.10597
0
ARC
8
0
10
196.42649
20
-156.2585374
40
0.2
50
151.8376714
51
231.6144613
0
ARC
8
0
10
195.6813501
20
-157.1991576
40
1
50
330
51
51.6144613
0
LINE
8
0
10
196.5473755
20
-157.6991576
11
195.95335
21
-158.7280399
0
LINE
8
0
10
198.257329
20
-159.9374311
11
199.0303194
21
-158.5985726
0
ARC
8
0
10
199.8963448
20
-159.0985726
40
1
50
85.5028213
51
150
0
ARC
8
0
10
200.0374827
20
-157.3041145
40
0.8
50
265.5028228
51
330
0
LINE
8
0
10
202.1678031
20
-155.2142915
11
200.7303031
21
-157.7041145
0
ARC
8
0
10
203.120431
20
-155.7642915
40
1.1
50
60
51
150
0
LINE
8
0
10
203.886961
20
-154.9366772
11
203.670431
21
-154.8116635
0
LINE
8
0
10
205.0480453
20
-154.6255656
11
203.886961
21
-154.9366772
0
LINE
8
0
10
205.0480453
20
-154.6255656
11
206.5855726
21
-151.9624902
0
LINE
8
0
10
206.3176029
20
-150.9624137
11
206.5855726
21
-151.9624902
0
ARC
8
0
10
207.2835288
20
-150.7035946
40
1
50
150
51
195
0
LINE
8
0
10
206.4175034
20
-150.2035946
11
207.4228829
21
-148.4622262
0
ARC
8
0
10
208.0471297
20
-147.680999
40
1
50
150
51
231.3730735
0
LINE
8
0
10
207.1811043
20
-147.180999
11
207.7992613
21
-146.1103196
0
LINE
8
0
10
207.7992613
20
-146.1103196
11
203.902147
21
-143.8603196
0
ARC
8
0
10
203.1206073
20
-143.2364641
40
1
50
213.7900921
51
321.4017642
0
ARC
8
0
10
201.5
20
-144.3209603
40
0.95
50
33.7900908
51
293.5189398
0
ARC
8
0
10
202.2781518
20
-146.1089703
40
1
50
43.6146708
51
113.5189398
0
LINE
8
0
10
203.002147
20
-145.4191654
11
204.5176915
21
-146.2941654
0
ARC
8
0
10
204.0176915
20
-147.1601908
40
1
50
330
51
60
0
LINE
8
0
10
204.8837169
20
-147.6601908
11
204.1658373
21
-148.9035946
0
ARC
8
0
10
203.2998119
20
-148.4035946
40
1
50
285
51
330
0
LINE
8
0
10
202.5585545
20
-149.6374902
11
203.558631
21
-149.3695205
0
ARC
8
0
10
202.228153
20
-148.6936497
40
1
50
186.4050931
51
289.2931447
0
ARC
8
0
10
198.75
20
-149.0841
40
2.5
50
6.4050912
51
107.1446634
0
ARC
8
0
10
197.7182515
20
-145.7396277
40
1
50
185.4873837
51
287.144664
0
ARC
8
0
10
197.7175297
20
-145.7323911
40
1
50
150
51
185.9040697
0
LINE
8
0
10
243.6484957
20
-112.2317089
11
242.9917107
21
-113.369294
0
ARC
8
0
10
242.3350491
20
-114.1234794
40
1
50
319.8073433
51
48.9542416
0
ARC
8
0
10
243.7100308
20
-115.285127
40
0.8
50
139.8073425
51
345.9082215
0
ARC
8
0
10
245.4558634
20
-115.7233835
40
1
50
96.2325194
51
165.9082203
0
LINE
8
0
10
245.3472998
20
-114.729294
11
246.0040848
21
-113.5917089
0
ARC
8
0
10
246.8701102
20
-114.0917089
40
1
50
114.0959303
51
150
0
LINE
8
0
10
246.4618446
20
-113.1788457
11
248.2618446
21
-110.0611543
0
ARC
8
0
10
249.2565401
20
-109.9582911
40
1
50
150
51
185.9040697
0
LINE
8
0
10
248.3905147
20
-109.4582911
11
249.0472998
21
-108.320706
0
LINE
8
0
10
249.0472998
20
-108.320706
11
246.6917107
21
-106.960706
0
LINE
8
0
10
246.6917107
20
-106.960706
11
246.0349256
21
-108.0982911
0
ARC
8
0
10
245.1689002
20
-107.5982911
40
1
50
294.0959303
51
330
0
ARC
8
0
10
245.1622722
20
-107.6012843
40
1
50
192.855336
51
294.5126163
0
ARC
8
0
10
241.75
20
-108.38
40
2.5
50
12.8553366
51
66.1506399
0
ARC
8
0
10
243.1651668
20
-105.1788592
40
1
50
150
51
246.1506399
0
LINE
8
0
10
242.3524138
20
-104.5865887
11
242.2991414
21
-104.6788592
0
ARC
8
0
10
243.2184392
20
-105.0865887
40
1
50
48.9125106
51
150
0
ARC
8
0
10
244.5
20
-103.6168603
40
0.95
50
228.9125107
51
71.0871451
0
ARC
8
0
10
245.1314468
20
-101.771928
40
1
50
151.8376761
51
251.10597
0
ARC
8
0
10
244.07351
20
-101.2055626
40
0.2
50
331.8376714
51
51.6144613
0
ARC
8
0
10
244.8186499
20
-100.2649424
40
1
50
150
51
231.6144613
0
LINE
8
0
10
243.9526245
20
-99.7649424
11
244.609039
21
-98.6279991
0
LINE
8
0
10
244.609039
20
-98.6279991
11
242.357373
21
-97.3279991
0
LINE
8
0
10
242.357373
20
-97.3279991
11
241.4696806
21
-98.8655274
0
ARC
8
0
10
240.6036552
20
-98.3655274
40
1
50
265.5028213
51
330
0
ARC
8
0
10
240.4625173
20
-100.1599855
40
0.8
50
85.5028228
51
150
0
LINE
8
0
10
238.3321969
20
-102.2498085
11
239.7696969
21
-99.7599855
0
ARC
8
0
10
237.379569
20
-101.6998085
40
1.1
50
240
51
330
0
LINE
8
0
10
236.613039
20
-102.5274228
11
236.829569
21
-102.6524365
0
LINE
8
0
10
235.4519547
20
-102.8385344
11
236.613039
21
-102.5274228
0
LINE
8
0
10
235.4519547
20
-102.8385344
11
233.9144274
21
-105.5016098
0
LINE
8
0
10
234.1823971
20
-106.5016863
11
233.9144274
21
-105.5016098
0
ARC
8
0
10
233.2164712
20
-106.7605054
40
1
50
330
51
15
0
LINE
8
0
10
234.0824966
20
-107.2605054
11
233.0771171
21
-109.0018738
0
ARC
8
0
10
232.4528703
20
-109.783101
40
1
50
330
51
51.3730735
0
LINE
8
0
10
233.3188957
20
-110.283101
11
232.7007387
21
-111.3537804
0
LINE
8
0
10
232.7007387
20
-111.3537804
11
236.597853
21
-113.6037804
0
ARC
8
0
10
237.3793927
20
-114.2276359
40
1
50
33.7900921
51
141.4017642
0
ARC
8
0
10
239
20
-113.1431397
40
0.95
50
213.7900908
51
113.5189398
0
ARC
8
0
10
238.2218482
20
-111.3551297
40
1
50
223.6146708
51
293.5189398
0
LINE
8
0
10
237.497853
20
-112.0449346
11
235.9823085
21
-111.1699346
0
ARC
8
0
10
236.4823085
20
-110.3039092
40
1
50
150
51
240
0
LINE
8
0
10
235.6162831
20
-109.8039092
11
236.3341627
21
-108.5605054
0
ARC
8
0
10
237.2001881
20
-109.0605054
40
1
50
105
51
150
0
LINE
8
0
10
237.9414455
20
-107.8266098
11
236.941369
21
-108.0945795
0
ARC
8
0
10
238.271847
20
-108.7704503
40
1
50
6.4050931
51
109.2931447
0
ARC
8
0
10
241.75
20
-108.38
40
2.5
50
186.4050912
51
287.1446634
0
ARC
8
0
10
242.7817485
20
-111.7244723
40
1
50
5.4873837
51
107.144664
0
ARC
8
0
10
242.7824703
20
-111.7317089
40
1
50
330
51
5.9040697
0
LINE
8
0
10
232.8984957
20
-130.8517089
11
232.2417107
21
-131.989294
0
ARC
8
0
10
231.5850491
20
-132.7434794
40
1
50
319.8073433
51
48.9542416
0
ARC
8
0
10
232.9600308
20
-133.905127
40
0.8
50
139.8073425
51
345.9082215
0
ARC
8
0
10
234.7058634
20
-134.3433835
40
1
50
96.2325194
51
165.9082203
0
LINE
8
0
10
234.5972998
20
-133.349294
11
235.2540848
21
-132.2117089
0
ARC
8
0
10
236.1201102
20
-132.7117089
40
1
50
114.0959303
51
150
0
LINE
8
0
10
235.7118446
20
-131.7988457
11
237.5118446
21
-128.6811543
0
ARC
8
0
10
238.5065401
20
-128.5782911
40
1
50
150
51
185.9040697
0
LINE
8
0
10
237.6405147
20
-128.0782911
11
238.2972998
21
-126.940706
0
LINE
8
0
10
238.2972998
20
-126.940706
11
235.9417107
21
-125.580706
0
LINE
8
0
10
235.9417107
20
-125.580706
11
235.2849256
21
-126.7182911
0
ARC
8
0
10
234.4189002
20
-126.2182911
40
1
50
294.0959303
51
330
0
ARC
8
0
10
234.4122722
20
-126.2212843
40
1
50
192.855336
51
294.5126163
0
ARC
8
0
10
231
20
-127
40
2.5
50
12.8553366
51
66.1506399
0
ARC
8
0
10
232.4151668
20
-123.7988592
40
1
50
150
51
246.1506399
0
LINE
8
0
10
231.6024138
20
-123.2065887
11
231.5491414
21
-123.2988592
0
ARC
8
0
10
232.4684392
20
-123.7065887
40
1
50
48.9125106
51
150
0
ARC
8
0
10
233.75
20
-122.2368603
40
0.95
50
228.9125107
51
71.0871451
0
ARC
8
0
10
234.3814468
20
-120.391928
40
1
50
151.8376761
51
251.10597
0
ARC
8
0
10
233.32351
20
-119.8255626
40
0.2
50
331.8376714
51
51.6144613
0
ARC
8
0
10
234.0686499
20
-118.8849424
40
1
50
150
51
231.6144613
0
LINE
8
0
10
233.2026245
20
-118.3849424
11
233.859039
21
-117.2479991
0
LINE
8
0
10
233.859039
20
-117.2479991
11
231.607373
21
-115.9479991
0
LINE
8
0
10
231.607373
20
-115.9479991
11
230.7196806
21
-117.4855274
0
ARC
8
0
10
229.8536552
20
-116.9855274
40
1
50
265.5028213
51
330
0
ARC
8
0
10
229.7125173
20
-118.7799855
40
0.8
50
85.5028228
51
150
0
LINE
8
0
10
227.5821969
20
-120.8698085
11
229.0196969
21
-118.3799855
0
ARC
8
0
10
226.629569
20
-120.3198085
40
1.1
50
240
51
330
0
LINE
8
0
10
225.863039
20
-121.1474228
11
226.079569
21
-121.2724365
0
LINE
8
0
10
224.7019547
20
-121.4585344
11
225.863039
21
-121.1474228
0
LINE
8
0
10
224.7019547
20
-121.4585344
11
223.1644274
21
-124.1216098
0
LINE
8
0
10
223.4323971
20
-125.1216863
11
223.1644274
21
-124.1216098
0
ARC
8
0
10
222.4664712
20
-125.3805054
40
1
50
330
51
15
0
LINE
8
0
10
223.3324966
20
-125.8805054
11
222.3271171
21
-127.6218738
0
ARC
8
0
10
221.7028703
20
-128.403101
40
1
50
330
51
51.3730735
0
LINE
8
0
10
222.5688957
20
-128.903101
11
221.9507387
21
-129.9737804
0
LINE
8
0
10
221.9507387
20
-129.9737804
11
225.847853
21
-132.2237804
0
ARC
8
0
10
226.6293927
20
-132.8476359
40
1
50
33.7900921
51
141.4017642
0
ARC
8
0
10
228.25
20
-131.7631397
40
0.95
50
213.7900908
51
113.5189398
0
ARC
8
0
10
227.4718482
20
-129.9751297
40
1
50
223.6146708
51
293.5189398
0
LINE
8
0
10
226.747853
20
-130.6649346
11
225.2323085
21
-129.7899346
0
ARC
8
0
10
225.7323085
20
-128.9239092
40
1
50
150
51
240
0
LINE
8
0
10
224.8662831
20
-128.4239092
11
225.5841627
21
-127.1805054
0
ARC
8
0
10
226.4501881
20
-127.6805054
40
1
50
105
51
150
0
LINE
8
0
10
227.1914455
20
-126.4466098
11
226.191369
21
-126.7145795
0
ARC
8
0
10
227.521847
20
-127.3904503
40
1
50
6.4050931
51
109.2931447
0
ARC
8
0
10
231
20
-127
40
2.5
50
186.4050912
51
287.1446634
0
ARC
8
0
10
232.0317485
20
-130.3444723
40
1
50
5.4873837
51
107.144664
0
ARC
8
0
10
232.0324703
20
-130.3517089
40
1
50
330
51
5.9040697
0
LINE
8
0
10
222.6364299
20
-145.5141
11
223.95
21
-145.5141
0
ARC
8
0
10
224.9314745
20
-145.7056929
40
1
50
439.8073433
51
528.9542416
0
ARC
8
0
10
225.25
20
-143.9341
40
0.8
50
259.8073425
51
465.9082215
0
ARC
8
0
10
224.756625
20
-142.2030364
40
1
50
216.2325194
51
285.9082203
0
LINE
8
0
10
223.95
20
-142.7941
11
222.6364299
21
-142.7941
0
ARC
8
0
10
222.6364299
20
-141.7941
40
1
50
234.0959303
51
270
0
LINE
8
0
10
222.05
20
-142.6041
11
218.45
21
-142.6041
0
ARC
8
0
10
217.8635701
20
-141.7941
40
1
50
270
51
305.9040697
0
LINE
8
0
10
217.8635701
20
-142.7941
11
216.55
21
-142.7941
0
LINE
8
0
10
216.55
20
-142.7941
11
216.55
21
-145.5141
0
LINE
8
0
10
216.55
20
-145.5141
11
217.8635701
21
-145.5141
0
ARC
8
0
10
217.8635701
20
-146.5141
40
1
50
414.0959303
51
90
0
ARC
8
0
10
217.8694763
20
-146.5183434
40
1
50
312.855336
51
414.5126163
0
ARC
8
0
10
220.25
20
-149.0841
40
2.5
50
132.8553366
51
186.1506399
0
ARC
8
0
10
216.7701473
20
-149.4591
40
1
50
270
51
366.1506399
0
LINE
8
0
10
216.6636026
20
-150.4591
11
216.7701473
21
-150.4591
0
ARC
8
0
10
216.6636026
20
-149.4591
40
1
50
168.9125106
51
270
0
ARC
8
0
10
214.75
20
-149.0841
40
0.95
50
348.9125107
51
551.0871451
0
ARC
8
0
10
212.8365184
20
-149.4597172
40
1
50
631.8376761
51
731.10597
0
ARC
8
0
10
212.875
20
-150.6591
40
0.2
50
91.8376714
51
171.6144613
0
ARC
8
0
10
211.687829
20
-150.4841
40
1
50
270
51
351.6144613
0
LINE
8
0
10
211.687829
20
-151.4841
11
210.375
21
-151.4841
0
LINE
8
0
10
210.375
20
-151.4841
11
210.375
21
-154.0841
0
LINE
8
0
10
210.375
20
-154.0841
11
212.1503847
21
-154.0841
0
ARC
8
0
10
212.1503847
20
-155.0841
40
1
50
385.5028213
51
90
0
ARC
8
0
10
213.775
20
-154.3091
40
0.8
50
205.5028228
51
270
0
LINE
8
0
10
216.65
20
-155.1091
11
213.775
21
-155.1091
0
ARC
8
0
10
216.65
20
-156.2091
40
1.1
50
0
51
90
0
LINE
8
0
10
217.75
20
-156.4591273
11
217.75
21
-156.2091
0
LINE
8
0
10
218.5999727
20
-157.3091
11
217.75
21
-156.4591273
0
LINE
8
0
10
218.5999727
20
-157.3091
11
221.6750273
21
-157.3091
0
LINE
8
0
10
222.4071341
20
-156.5769932
11
221.6750273
21
-157.3091
0
ARC
8
0
10
223.1142409
20
-157.2841
40
1
50
450
51
135
0
LINE
8
0
10
223.1142409
20
-156.2841
11
225.125
21
-156.2841
0
ARC
8
0
10
226.113686
20
-156.4341
40
1
50
450
51
531.3730735
0
LINE
8
0
10
226.113686
20
-155.4341
11
227.35
21
-155.4341
0
LINE
8
0
10
227.35
20
-155.4341
11
227.35
21
-150.9341
0
ARC
8
0
10
227.4995049
20
-149.945339
40
1
50
153.7900921
51
261.4017642
0
ARC
8
0
10
225.75
20
-149.0841
40
0.95
50
333.7900908
51
593.5189398
0
ARC
8
0
10
224.5906138
20
-150.6520042
40
1
50
703.6146708
51
773.5189398
0
LINE
8
0
10
225.55
20
-150.9341
11
225.55
21
-152.6841
0
ARC
8
0
10
224.55
20
-152.6841
40
1
50
270
51
0
0
LINE
8
0
10
224.55
20
-153.6841
11
223.1142409
21
-153.6841
0
ARC
8
0
10
223.1142409
20
-152.6841
40
1
50
225
51
270
0
LINE
8
0
10
221.6750273
20
-152.6591
11
222.4071341
21
-153.3912068
0
ARC
8
0
10
222.3272164
20
-151.9010437
40
1
50
126.4050931
51
229.2931447
0
ARC
8
0
10
220.25
20
-149.0841
40
2.5
50
306.4050912
51
407.1446634
0
ARC
8
0
10
222.6305237
20
-146.5183434
40
1
50
485.4873837
51
587.144664
0
ARC
8
0
10
222.6364299
20
-146.5141
40
1
50
450
51
485.9040697
0
LINE
8
0
10
275.1015043
20
-85.9082911
11
275.7582893
21
-84.770706
0
ARC
8
0
10
276.4149509
20
-84.0165206
40
1
50
139.8073433
51
228.9542416
0
ARC
8
0
10
275.0399692
20
-82.854873
40
0.8
50
319.8073425
51
165.9082215
0
ARC
8
0
10
273.2941366
20
-82.4166165
40
1
50
276.2325194
51
345.9082203
0
LINE
8
0
10
273.4027002
20
-83.410706
11
272.7459152
21
-84.5482911
0
ARC
8
0
10
271.8798898
20
-84.0482911
40
1
50
294.0959303
51
330
0
LINE
8
0
10
272.2881554
20
-84.9611543
11
270.4881554
21
-88.0788457
0
ARC
8
0
10
269.4934599
20
-88.1817089
40
1
50
330
51
5.9040697
0
LINE
8
0
10
270.3594853
20
-88.6817089
11
269.7027002
21
-89.819294
0
LINE
8
0
10
269.7027002
20
-89.819294
11
272.0582893
21
-91.179294
0
LINE
8
0
10
272.0582893
20
-91.179294
11
272.7150744
21
-90.0417089
0
ARC
8
0
10
273.5810998
20
-90.5417089
40
1
50
114.0959303
51
150
0
ARC
8
0
10
273.5877278
20
-90.5387157
40
1
50
12.855336
51
114.5126163
0
ARC
8
0
10
277
20
-89.76
40
2.5
50
192.8553366
51
246.1506399
0
ARC
8
0
10
275.5848332
20
-92.9611408
40
1
50
330
51
66.1506399
0
LINE
8
0
10
276.3975862
20
-93.5534113
11
276.4508586
21
-93.4611408
0
ARC
8
0
10
275.5315608
20
-93.0534113
40
1
50
228.9125106
51
330
0
ARC
8
0
10
274.25
20
-94.5231397
40
0.95
50
48.9125107
51
251.0871451
0
ARC
8
0
10
273.6185532
20
-96.368072
40
1
50
331.8376761
51
71.10597
0
ARC
8
0
10
274.67649
20
-96.9344374
40
0.2
50
151.8376714
51
231.6144613
0
ARC
8
0
10
273.9313501
20
-97.8750576
40
1
50
330
51
51.6144613
0
LINE
8
0
10
274.7973755
20
-98.3750576
11
274.140961
21
-99.5120009
0
LINE
8
0
10
274.140961
20
-99.5120009
11
276.392627
21
-100.8120009
0
LINE
8
0
10
276.392627
20
-100.8120009
11
277.2803194
21
-99.2744726
0
ARC
8
0
10
278.1463448
20
-99.7744726
40
1
50
85.5028213
51
150
0
ARC
8
0
10
278.2874827
20
-97.9800145
40
0.8
50
265.5028228
51
330
0
LINE
8
0
10
280.4178031
20
-95.8901915
11
278.9803031
21
-98.3800145
0
ARC
8
0
10
281.370431
20
-96.4401915
40
1.1
50
60
51
150
0
LINE
8
0
10
282.136961
20
-95.6125772
11
281.920431
21
-95.4875635
0
LINE
8
0
10
283.2980453
20
-95.3014656
11
282.136961
21
-95.6125772
0
LINE
8
0
10
283.2980453
20
-95.3014656
11
284.8355726
21
-92.6383902
0
LINE
8
0
10
284.5676029
20
-91.6383137
11
284.8355726
21
-92.6383902
0
ARC
8
0
10
285.5335288
20
-91.3794946
40
1
50
150
51
195
0
LINE
8
0
10
284.6675034
20
-90.8794946
11
285.6728829
21
-89.1381262
0
ARC
8
0
10
286.2971297
20
-88.356899
40
1
50
150
51
231.3730735
0
LINE
8
0
10
285.4311043
20
-87.856899
11
286.0492613
21
-86.7862196
0
LINE
8
0
10
286.0492613
20
-86.7862196
11
282.152147
21
-84.5362196
0
ARC
8
0
10
281.3706073
20
-83.9123641
40
1
50
213.7900921
51
321.4017642
0
ARC
8
0
10
279.75
20
-84.9968603
40
0.95
50
33.7900908
51
293.5189398
0
ARC
8
0
10
280.5281518
20
-86.7848703
40
1
50
43.6146708
51
113.5189398
0
LINE
8
0
10
281.252147
20
-86.0950654
11
282.7676915
21
-86.9700654
0
ARC
8
0
10
282.2676915
20
-87.8360908
40
1
50
330
51
60
0
LINE
8
0
10
283.1337169
20
-88.3360908
11
282.4158373
21
-89.5794946
0
ARC
8
0
10
281.5498119
20
-89.0794946
40
1
50
285
51
330
0
LINE
8
0
10
280.8085545
20
-90.3133902
11
281.808631
21
-90.0454205
0
ARC
8
0
10
280.478153
20
-89.3695497
40
1
50
186.4050931
51
289.2931447
0
ARC
8
0
10
277
20
-89.76
40
2.5
50
6.4050912
51
107.1446634
0
ARC
8
0
10
275.9682515
20
-86.4155277
40
1
50
185.4873837
51
287.144664
0
ARC
8
0
10
275.9675297
20
-86.4082911
40
1
50
150
51
185.9040697
0
LINE
8
0
10
283.4650744
20
-108.0982911
11
282.8082893
21
-106.960706
0
ARC
8
0
10
282.4834764
20
-106.0149277
40
1
50
199.8073433
51
288.9542416
0
ARC
8
0
10
280.7899692
20
-106.624873
40
0.8
50
19.8073425
51
225.9082215
0
ARC
8
0
10
279.5375116
20
-107.9176801
40
1
50
336.2325194
51
45.9082203
0
LINE
8
0
10
280.4527002
20
-108.320706
11
281.1094853
21
-109.4582911
0
ARC
8
0
10
280.2434599
20
-109.9582911
40
1
50
354.0959303
51
30
0
LINE
8
0
10
281.2381554
20
-110.0611543
11
283.0381554
21
-113.1788457
0
ARC
8
0
10
282.6298898
20
-114.0917089
40
1
50
30
51
65.9040697
0
LINE
8
0
10
283.4959152
20
-113.5917089
11
284.1527002
21
-114.729294
0
LINE
8
0
10
284.1527002
20
-114.729294
11
286.5082893
21
-113.369294
0
LINE
8
0
10
286.5082893
20
-113.369294
11
285.8515043
21
-112.2317089
0
ARC
8
0
10
286.7175297
20
-111.7317089
40
1
50
174.0959303
51
210
0
ARC
8
0
10
286.7182515
20
-111.7244723
40
1
50
72.855336
51
174.5126163
0
ARC
8
0
10
287.75
20
-108.38
40
2.5
50
252.8553366
51
306.1506399
0
ARC
8
0
10
289.8146859
20
-111.2061408
40
1
50
30
51
126.1506399
0
LINE
8
0
10
290.7339836
20
-110.7984113
11
290.6807113
21
-110.7061408
0
ARC
8
0
10
289.8679582
20
-111.2984113
40
1
50
288.9125106
51
30
0
ARC
8
0
10
290.5
20
-113.1431397
40
0.95
50
108.9125107
51
311.0871451
0
ARC
8
0
10
291.7820348
20
-114.6124548
40
1
50
31.8376761
51
131.10597
0
ARC
8
0
10
292.80149
20
-113.9794374
40
0.2
50
211.8376714
51
291.6144613
0
ARC
8
0
10
293.2435211
20
-115.0950576
40
1
50
30
51
111.6144613
0
LINE
8
0
10
294.1095465
20
-114.5950576
11
294.765961
21
-115.7320009
0
LINE
8
0
10
294.765961
20
-115.7320009
11
297.017627
21
-114.4320009
0
LINE
8
0
10
297.017627
20
-114.4320009
11
296.1299347
21
-112.8944726
0
ARC
8
0
10
296.9959601
20
-112.3944726
40
1
50
145.5028213
51
210
0
ARC
8
0
10
295.5124827
20
-111.3750145
40
0.8
50
325.5028228
51
30
0
LINE
8
0
10
294.7678031
20
-108.4851915
11
296.2053031
21
-110.9750145
0
ARC
8
0
10
295.720431
20
-107.9351915
40
1.1
50
120
51
210
0
LINE
8
0
10
295.386961
20
-106.8575499
11
295.170431
21
-106.9825635
0
LINE
8
0
10
295.6980726
20
-105.6964656
11
295.386961
21
-106.8575499
0
LINE
8
0
10
295.6980726
20
-105.6964656
11
294.1605453
21
-103.0333902
0
LINE
8
0
10
293.1604688
20
-102.7654205
11
294.1605453
21
-103.0333902
0
ARC
8
0
10
293.4192879
20
-101.7994946
40
1
50
210
51
255
0
LINE
8
0
10
292.5532625
20
-102.2994946
11
291.5478829
21
-100.5581262
0
ARC
8
0
10
291.1834437
20
-99.626899
40
1
50
210
51
291.3730735
0
LINE
8
0
10
290.3174183
20
-100.126899
11
289.6992613
21
-99.0562196
0
LINE
8
0
10
289.6992613
20
-99.0562196
11
285.802147
21
-101.3062196
0
ARC
8
0
10
284.8711024
20
-101.6711251
40
1
50
273.7900921
51
21.4017642
0
ARC
8
0
10
285
20
-103.6168603
40
0.95
50
93.7900908
51
353.5189398
0
ARC
8
0
10
286.937538
20
-103.8369661
40
1
50
103.6146708
51
173.5189398
0
LINE
8
0
10
286.702147
20
-102.8650654
11
288.2176915
21
-101.9900654
0
ARC
8
0
10
288.7176915
20
-102.8560908
40
1
50
30
51
120
0
LINE
8
0
10
289.5837169
20
-102.3560908
11
290.3015964
21
-103.5994946
0
ARC
8
0
10
289.435571
20
-104.0994946
40
1
50
345
51
30
0
LINE
8
0
10
290.1335272
20
-105.3583902
11
290.4014969
21
-104.3583137
0
ARC
8
0
10
289.1509366
20
-105.172606
40
1
50
246.4050931
51
349.2931447
0
ARC
8
0
10
287.75
20
-108.38
40
2.5
50
66.4050912
51
167.1446634
0
ARC
8
0
10
284.3377278
20
-107.6012843
40
1
50
245.4873837
51
347.144664
0
ARC
8
0
10
284.3310998
20
-107.5982911
40
1
50
210
51
245.9040697
0
LINE
8
0
10
296.1135701
20
-130.57
11
294.8
21
-130.57
0
ARC
8
0
10
293.8185255
20
-130.3784071
40
1
50
259.8073433
51
348.9542416
0
ARC
8
0
10
293.5
20
-132.15
40
0.8
50
79.8073425
51
285.9082215
0
ARC
8
0
10
293.993375
20
-133.8810636
40
1
50
36.2325194
51
105.9082203
0
LINE
8
0
10
294.8
20
-133.29
11
296.1135701
21
-133.29
0
ARC
8
0
10
296.1135701
20
-134.29
40
1
50
54.0959303
51
90
0
LINE
8
0
10
296.7
20
-133.48
11
300.3
21
-133.48
0
ARC
8
0
10
300.8864299
20
-134.29
40
1
50
90
51
125.9040697
0
LINE
8
0
10
300.8864299
20
-133.29
11
302.2
21
-133.29
0
LINE
8
0
10
302.2
20
-133.29
11
302.2
21
-130.57
0
LINE
8
0
10
302.2
20
-130.57
11
300.8864299
21
-130.57
0
ARC
8
0
10
300.8864299
20
-129.57
40
1
50
234.0959303
51
270
0
ARC
8
0
10
300.8805237
20
-129.5657566
40
1
50
132.855336
51
234.5126163
0
ARC
8
0
10
298.5
20
-127
40
2.5
50
312.8553366
51
6.1506399
0
ARC
8
0
10
301.9798527
20
-126.625
40
1
50
90
51
186.1506399
0
LINE
8
0
10
302.0863974
20
-125.625
11
301.9798527
21
-125.625
0
ARC
8
0
10
302.0863974
20
-126.625
40
1
50
348.9125106
51
90
0
ARC
8
0
10
304
20
-127
40
0.95
50
168.9125107
51
11.0871451
0
ARC
8
0
10
305.9134816
20
-126.6243828
40
1
50
91.8376761
51
191.10597
0
ARC
8
0
10
305.875
20
-125.425
40
0.2
50
271.8376714
51
351.6144613
0
ARC
8
0
10
307.062171
20
-125.6
40
1
50
90
51
171.6144613
0
LINE
8
0
10
307.062171
20
-124.6
11
307.98
21
-124.6
0
LINE
8
0
10
307.8603993
20
-122
11
306.5996153
21
-122
0
ARC
8
0
10
306.5996153
20
-121
40
1
50
205.5028213
51
270
0
ARC
8
0
10
304.975
20
-121.775
40
0.8
50
25.5028228
51
90
0
LINE
8
0
10
302.1
20
-120.975
11
304.975
21
-120.975
0
ARC
8
0
10
302.1
20
-119.875
40
1.1
50
180
51
270
0
LINE
8
0
10
301
20
-119.6249727
11
301
21
-119.875
0
LINE
8
0
10
300.1500273
20
-118.775
11
301
21
-119.6249727
0
LINE
8
0
10
300.1500273
20
-118.775
11
297.0749727
21
-118.775
0
LINE
8
0
10
296.3428659
20
-119.5071068
11
297.0749727
21
-118.775
0
ARC
8
0
10
295.6357591
20
-118.8
40
1
50
270
51
315
0
LINE
8
0
10
295.6357591
20
-119.8
11
293.625
21
-119.8
0
ARC
8
0
10
292.636314
20
-119.65
40
1
50
270
51
351.3730735
0
LINE
8
0
10
292.636314
20
-120.65
11
291.4
21
-120.65
0
LINE
8
0
10
291.4
20
-120.65
11
291.4
21
-125.15
0
ARC
8
0
10
291.2504951
20
-126.138761
40
1
50
333.7900921
51
81.4017642
0
ARC
8
0
10
293
20
-127
40
0.95
50
153.7900908
51
53.5189398
0
ARC
8
0
10
294.1593862
20
-125.4320958
40
1
50
163.6146708
51
233.5189398
0
LINE
8
0
10
293.2
20
-125.15
11
293.2
21
-123.4
0
ARC
8
0
10
294.2
20
-123.4
40
1
50
90
51
180
0
LINE
8
0
10
294.2
20
-122.4
11
295.6357591
21
-122.4
0
ARC
8
0
10
295.6357591
20
-123.4
40
1
50
45
51
90
0
LINE
8
0
10
297.0749727
20
-123.425
11
296.3428659
21
-122.6928932
0
ARC
8
0
10
296.4227836
20
-124.1830563
40
1
50
306.4050931
51
49.2931447
0
ARC
8
0
10
298.5
20
-127
40
2.5
50
126.4050912
51
227.1446634
0
ARC
8
0
10
296.1194763
20
-129.5657566
40
1
50
305.4873837
51
47.144664
0
ARC
8
0
10
296.1135701
20
-129.57
40
1
50
270
51
305.9040697
0
LINE
8
0
10
313.5349256
20
-149.3658089
11
314.1917107
21
-150.503394
0
ARC
8
0
10
314.5165236
20
-151.4491723
40
1
50
19.8073433
51
108.9542416
0
ARC
8
0
10
316.2100308
20
-150.839227
40
0.8
50
199.8073425
51
45.9082215
0
ARC
8
0
10
317.4624884
20
-149.5464199
40
1
50
156.2325194
51
225.9082203
0
LINE
8
0
10
316.5472998
20
-149.143394
11
315.8905147
21
-148.0058089
0
ARC
8
0
10
316.7565401
20
-147.5058089
40
1
50
174.0959303
51
210
0
LINE
8
0
10
315.7618446
20
-147.4029457
11
313.9618446
21
-144.2852543
0
ARC
8
0
10
314.3701102
20
-143.3723911
40
1
50
210
51
245.9040697
0
LINE
8
0
10
313.5040848
20
-143.8723911
11
312.8472998
21
-142.734806
0
LINE
8
0
10
312.8472998
20
-142.734806
11
310.4917107
21
-144.094806
0
LINE
8
0
10
310.4917107
20
-144.094806
11
311.1484957
21
-145.2323911
0
ARC
8
0
10
310.2824703
20
-145.7323911
40
1
50
354.0959303
51
30
0
ARC
8
0
10
310.2817485
20
-145.7396277
40
1
50
252.855336
51
354.5126163
0
ARC
8
0
10
309.25
20
-149.0841
40
2.5
50
72.8553366
51
126.1506399
0
ARC
8
0
10
307.1853141
20
-146.2579592
40
1
50
210
51
306.1506399
0
LINE
8
0
10
306.2660164
20
-146.6656887
11
306.3192887
21
-146.7579592
0
ARC
8
0
10
307.1320418
20
-146.1656887
40
1
50
108.9125106
51
210
0
ARC
8
0
10
306.5
20
-144.3209603
40
0.95
50
288.9125107
51
131.0871451
0
ARC
8
0
10
305.2179652
20
-142.8516452
40
1
50
211.8376761
51
311.10597
0
ARC
8
0
10
304.19851
20
-143.4846626
40
0.2
50
31.8376714
51
111.6144613
0
ARC
8
0
10
303.7564789
20
-142.3690424
40
1
50
210
51
291.6144613
0
LINE
8
0
10
302.8904535
20
-142.8690424
11
302.234039
21
-141.7320991
0
LINE
8
0
10
302.234039
20
-141.7320991
11
299.982373
21
-143.0320991
0
LINE
8
0
10
299.982373
20
-143.0320991
11
300.8700653
21
-144.5696274
0
ARC
8
0
10
300.0040399
20
-145.0696274
40
1
50
325.5028213
51
30
0
ARC
8
0
10
301.4875173
20
-146.0890855
40
0.8
50
145.5028228
51
210
0
LINE
8
0
10
302.2321969
20
-148.9789085
11
300.7946969
21
-146.4890855
0
ARC
8
0
10
301.279569
20
-149.5289085
40
1.1
50
300
51
30
0
LINE
8
0
10
301.613039
20
-150.6065501
11
301.829569
21
-150.4815365
0
LINE
8
0
10
301.3019274
20
-151.7676344
11
301.613039
21
-150.6065501
0
LINE
8
0
10
301.3019274
20
-151.7676344
11
302.8394547
21
-154.4307098
0
LINE
8
0
10
303.8395312
20
-154.6986795
11
302.8394547
21
-154.4307098
0
ARC
8
0
10
303.5807121
20
-155.6646054
40
1
50
30
51
75
0
LINE
8
0
10
304.4467375
20
-155.1646054
11
305.4521171
21
-156.9059738
0
ARC
8
0
10
305.8165563
20
-157.837201
40
1
50
30
51
111.3730735
0
LINE
8
0
10
306.6825817
20
-157.337201
11
307.3007387
21
-158.4078804
0
LINE
8
0
10
307.3007387
20
-158.4078804
11
311.197853
21
-156.1578804
0
ARC
8
0
10
312.1288976
20
-155.7929749
40
1
50
93.7900921
51
201.4017642
0
ARC
8
0
10
312
20
-153.8472397
40
0.95
50
273.7900908
51
173.5189398
0
ARC
8
0
10
310.062462
20
-153.6271339
40
1
50
283.6146708
51
353.5189398
0
LINE
8
0
10
310.297853
20
-154.5990346
11
308.7823085
21
-155.4740346
0
ARC
8
0
10
308.2823085
20
-154.6080092
40
1
50
210
51
300
0
LINE
8
0
10
307.4162831
20
-155.1080092
11
306.6984036
21
-153.8646054
0
ARC
8
0
10
307.564429
20
-153.3646054
40
1
50
165
51
210
0
LINE
8
0
10
306.8664728
20
-152.1057098
11
306.5985031
21
-153.1057863
0
ARC
8
0
10
307.8490634
20
-152.291494
40
1
50
66.4050931
51
169.2931447
0
ARC
8
0
10
309.25
20
-149.0841
40
2.5
50
246.4050912
51
347.1446634
0
ARC
8
0
10
312.6622722
20
-149.8628157
40
1
50
65.4873837
51
167.144664
0
ARC
8
0
10
312.6689002
20
-149.8658089
40
1
50
30
51
65.9040697
0
LINE
8
0
10
261.9650744
20
-108.0982911
11
261.3082893
21
-106.960706
0
ARC
8
0
10
260.9834764
20
-106.0149277
40
1
50
199.8073433
51
288.9542416
0
ARC
8
0
10
259.2899692
20
-106.624873
40
0.8
50
19.8073425
51
225.9082215
0
ARC
8
0
10
258.0375116
20
-107.9176801
40
1
50
336.2325194
51
45.9082203
0
LINE
8
0
10
258.9527002
20
-108.320706
11
259.6094853
21
-109.4582911
0
ARC
8
0
10
258.7434599
20
-109.9582911
40
1
50
354.0959303
51
30
0
LINE
8
0
10
259.7381554
20
-110.0611543
11
261.5381554
21
-113.1788457
0
ARC
8
0
10
261.1298898
20
-114.0917089
40
1
50
30
51
65.9040697
0
LINE
8
0
10
261.9959152
20
-113.5917089
11
262.6527002
21
-114.729294
0
LINE
8
0
10
262.6527002
20
-114.729294
11
265.0082893
21
-113.369294
0
LINE
8
0
10
265.0082893
20
-113.369294
11
264.3515043
21
-112.2317089
0
ARC
8
0
10
265.2175297
20
-111.7317089
40
1
50
174.0959303
51
210
0
ARC
8
0
10
265.2182515
20
-111.7244723
40
1
50
72.855336
51
174.5126163
0
ARC
8
0
10
266.25
20
-108.38
40
2.5
50
252.8553366
51
306.1506399
0
ARC
8
0
10
268.3146859
20
-111.2061408
40
1
50
30
51
126.1506399
0
LINE
8
0
10
269.2339836
20
-110.7984113
11
269.1807113
21
-110.7061408
0
ARC
8
0
10
268.3679582
20
-111.2984113
40
1
50
288.9125106
51
30
0
ARC
8
0
10
269
20
-113.1431397
40
0.95
50
108.9125107
51
311.0871451
0
ARC
8
0
10
270.2820348
20
-114.6124548
40
1
50
31.8376761
51
131.10597
0
ARC
8
0
10
271.30149
20
-113.9794374
40
0.2
50
211.8376714
51
291.6144613
0
ARC
8
0
10
271.7435211
20
-115.0950576
40
1
50
30
51
111.6144613
0
LINE
8
0
10
272.6095465
20
-114.5950576
11
273.265961
21
-115.7320009
0
LINE
8
0
10
273.265961
20
-115.7320009
11
275.517627
21
-114.4320009
0
LINE
8
0
10
275.517627
20
-114.4320009
11
274.6299347
21
-112.8944726
0
ARC
8
0
10
275.4959601
20
-112.3944726
40
1
50
145.5028213
51
210
0
ARC
8
0
10
274.0124827
20
-111.3750145
40
0.8
50
325.5028228
51
30
0
LINE
8
0
10
273.2678031
20
-108.4851915
11
274.7053031
21
-110.9750145
0
ARC
8
0
10
274.220431
20
-107.9351915
40
1.1
50
120
51
210
0
LINE
8
0
10
273.886961
20
-106.8575499
11
273.670431
21
-106.9825635
0
LINE
8
0
10
274.1980726
20
-105.6964656
11
273.886961
21
-106.8575499
0
LINE
8
0
10
274.1980726
20
-105.6964656
11
272.6605453
21
-103.0333902
0
LINE
8
0
10
271.6604688
20
-102.7654205
11
272.6605453
21
-103.0333902
0
ARC
8
0
10
271.9192879
20
-101.7994946
40
1
50
210
51
255
0
LINE
8
0
10
271.0532625
20
-102.2994946
11
270.0478829
21
-100.5581262
0
ARC
8
0
10
269.6834437
20
-99.626899
40
1
50
210
51
291.3730735
0
LINE
8
0
10
268.8174183
20
-100.126899
11
268.1992613
21
-99.0562196
0
LINE
8
0
10
268.1992613
20
-99.0562196
11
264.302147
21
-101.3062196
0
ARC
8
0
10
263.3711024
20
-101.6711251
40
1
50
273.7900921
51
21.4017642
0
ARC
8
0
10
263.5
20
-103.6168603
40
0.95
50
93.7900908
51
353.5189398
0
ARC
8
0
10
265.437538
20
-103.8369661
40
1
50
103.6146708
51
173.5189398
0
LINE
8
0
10
265.202147
20
-102.8650654
11
266.7176915
21
-101.9900654
0
ARC
8
0
10
267.2176915
20
-102.8560908
40
1
50
30
51
120
0
LINE
8
0
10
268.0837169
20
-102.3560908
11
268.8015964
21
-103.5994946
0
ARC
8
0
10
267.935571
20
-104.0994946
40
1
50
345
51
30
0
LINE
8
0
10
268.6335272
20
-105.3583902
11
268.9014969
21
-104.3583137
0
ARC
8
0
10
267.6509366
20
-105.172606
40
1
50
246.4050931
51
349.2931447
0
ARC
8
0
10
266.25
20
-108.38
40
2.5
50
66.4050912
51
167.1446634
0
ARC
8
0
10
262.8377278
20
-107.6012843
40
1
50
245.4873837
51
347.144664
0
ARC
8
0
10
262.8310998
20
-107.5982911
40
1
50
210
51
245.9040697
0
LINE
8
0
10
272.7150744
20
-126.7182911
11
272.0582893
21
-125.580706
0
ARC
8
0
10
271.7334764
20
-124.6349277
40
1
50
199.8073433
51
288.9542416
0
ARC
8
0
10
270.0399692
20
-125.244873
40
0.8
50
19.8073425
51
225.9082215
0
ARC
8
0
10
268.7875116
20
-126.5376801
40
1
50
336.2325194
51
45.9082203
0
LINE
8
0
10
269.7027002
20
-126.940706
11
270.3594853
21
-128.0782911
0
ARC
8
0
10
269.4934599
20
-128.5782911
40
1
50
354.0959303
51
30
0
LINE
8
0
10
270.4881554
20
-128.6811543
11
272.2881554
21
-131.7988457
0
ARC
8
0
10
271.8798898
20
-132.7117089
40
1
50
30
51
65.9040697
0
LINE
8
0
10
272.7459152
20
-132.2117089
11
273.4027002
21
-133.349294
0
LINE
8
0
10
273.4027002
20
-133.349294
11
275.7582893
21
-131.989294
0
LINE
8
0
10
275.7582893
20
-131.989294
11
275.1015043
21
-130.8517089
0
ARC
8
0
10
275.9675297
20
-130.3517089
40
1
50
174.0959303
51
210
0
ARC
8
0
10
275.9682515
20
-130.3444723
40
1
50
72.855336
51
174.5126163
0
ARC
8
0
10
277
20
-127
40
2.5
50
252.8553366
51
306.1506399
0
ARC
8
0
10
279.0646859
20
-129.8261408
40
1
50
30
51
126.1506399
0
LINE
8
0
10
279.9839836
20
-129.4184113
11
279.9307113
21
-129.3261408
0
ARC
8
0
10
279.1179582
20
-129.9184113
40
1
50
288.9125106
51
30
0
ARC
8
0
10
279.75
20
-131.7631397
40
0.95
50
108.9125107
51
311.0871451
0
ARC
8
0
10
281.0320348
20
-133.2324548
40
1
50
31.8376761
51
131.10597
0
ARC
8
0
10
282.05149
20
-132.5994374
40
0.2
50
211.8376714
51
291.6144613
0
ARC
8
0
10
282.4935211
20
-133.7150576
40
1
50
30
51
111.6144613
0
LINE
8
0
10
283.3595465
20
-133.2150576
11
284.015961
21
-134.3520009
0
LINE
8
0
10
284.015961
20
-134.3520009
11
286.267627
21
-133.0520009
0
LINE
8
0
10
286.267627
20
-133.0520009
11
285.3799347
21
-131.5144726
0
ARC
8
0
10
286.2459601
20
-131.0144726
40
1
50
145.5028213
51
210
0
ARC
8
0
10
284.7624827
20
-129.9950145
40
0.8
50
325.5028228
51
30
0
LINE
8
0
10
284.0178031
20
-127.1051915
11
285.4553031
21
-129.5950145
0
ARC
8
0
10
284.970431
20
-126.5551915
40
1.1
50
120
51
210
0
LINE
8
0
10
284.636961
20
-125.4775499
11
284.420431
21
-125.6025635
0
LINE
8
0
10
284.9480726
20
-124.3164656
11
284.636961
21
-125.4775499
0
LINE
8
0
10
284.9480726
20
-124.3164656
11
283.4105453
21
-121.6533902
0
LINE
8
0
10
282.4104688
20
-121.3854205
11
283.4105453
21
-121.6533902
0
ARC
8
0
10
282.6692879
20
-120.4194946
40
1
50
210
51
255
0
LINE
8
0
10
281.8032625
20
-120.9194946
11
280.7978829
21
-119.1781262
0
ARC
8
0
10
280.4334437
20
-118.246899
40
1
50
210
51
291.3730735
0
LINE
8
0
10
279.5674183
20
-118.746899
11
278.9492613
21
-117.6762196
0
LINE
8
0
10
278.9492613
20
-117.6762196
11
275.052147
21
-119.9262196
0
ARC
8
0
10
274.1211024
20
-120.2911251
40
1
50
273.7900921
51
21.4017642
0
ARC
8
0
10
274.25
20
-122.2368603
40
0.95
50
93.7900908
51
353.5189398
0
ARC
8
0
10
276.187538
20
-122.4569661
40
1
50
103.6146708
51
173.5189398
0
LINE
8
0
10
275.952147
20
-121.4850654
11
277.4676915
21
-120.6100654
0
ARC
8
0
10
277.9676915
20
-121.4760908
40
1
50
30
51
120
0
LINE
8
0
10
278.8337169
20
-120.9760908
11
279.5515964
21
-122.2194946
0
ARC
8
0
10
278.685571
20
-122.7194946
40
1
50
345
51
30
0
LINE
8
0
10
279.3835272
20
-123.9783902
11
279.6514969
21
-122.9783137
0
ARC
8
0
10
278.4009366
20
-123.792606
40
1
50
246.4050931
51
349.2931447
0
ARC
8
0
10
277
20
-127
40
2.5
50
66.4050912
51
167.1446634
0
ARC
8
0
10
273.5877278
20
-126.2212843
40
1
50
245.4873837
51
347.144664
0
ARC
8
0
10
273.5810998
20
-126.2182911
40
1
50
210
51
245.9040697
0
LINE
8
0
10
290.1364299
20
-145.5141
11
291.45
21
-145.5141
0
ARC
8
0
10
292.4314745
20
-145.7056929
40
1
50
439.8073433
51
528.9542416
0
ARC
8
0
10
292.75
20
-143.9341
40
0.8
50
259.8073425
51
465.9082215
0
ARC
8
0
10
292.256625
20
-142.2030364
40
1
50
216.2325194
51
285.9082203
0
LINE
8
0
10
291.45
20
-142.7941
11
290.1364299
21
-142.7941
0
ARC
8
0
10
290.1364299
20
-141.7941
40
1
50
234.0959303
51
270
0
LINE
8
0
10
289.55
20
-142.6041
11
285.95
21
-142.6041
0
ARC
8
0
10
285.3635701
20
-141.7941
40
1
50
270
51
305.9040697
0
LINE
8
0
10
285.3635701
20
-142.7941
11
284.05
21
-142.7941
0
LINE
8
0
10
284.05
20
-142.7941
11
284.05
21
-145.5141
0
LINE
8
0
10
284.05
20
-145.5141
11
285.3635701
21
-145.5141
0
ARC
8
0
10
285.3635701
20
-146.5141
40
1
50
414.0959303
51
90
0
ARC
8
0
10
285.3694763
20
-146.5183434
40
1
50
312.855336
51
414.5126163
0
ARC
8
0
10
287.75
20
-149.0841
40
2.5
50
132.8553366
51
186.1506399
0
ARC
8
0
10
284.2701473
20
-149.4591
40
1
50
270
51
366.1506399
0
LINE
8
0
10
284.1636026
20
-150.4591
11
284.2701473
21
-150.4591
0
ARC
8
0
10
284.1636026
20
-149.4591
40
1
50
168.9125106
51
270
0
ARC
8
0
10
282.25
20
-149.0841
40
0.95
50
348.9125107
51
551.0871451
0
ARC
8
0
10
280.3365184
20
-149.4597172
40
1
50
631.8376761
51
731.10597
0
ARC
8
0
10
280.375
20
-150.6591
40
0.2
50
91.8376714
51
171.6144613
0
ARC
8
0
10
279.187829
20
-150.4841
40
1
50
270
51
351.6144613
0
LINE
8
0
10
279.187829
20
-151.4841
11
278.27
21
-151.4841
0
LINE
8
0
10
278.3896006
20
-154.0841
11
279.6503847
21
-154.0841
0
ARC
8
0
10
279.6503847
20
-155.0841
40
1
50
385.5028213
51
90
0
ARC
8
0
10
281.275
20
-154.3091
40
0.8
50
205.5028228
51
270
0
LINE
8
0
10
284.15
20
-155.1091
11
281.275
21
-155.1091
0
ARC
8
0
10
284.15
20
-156.2091
40
1.1
50
0
51
90
0
LINE
8
0
10
285.25
20
-156.4591273
11
285.25
21
-156.2091
0
LINE
8
0
10
286.0999727
20
-157.3091
11
285.25
21
-156.4591273
0
LINE
8
0
10
286.0999727
20
-157.3091
11
289.1750273
21
-157.3091
0
LINE
8
0
10
289.9071341
20
-156.5769932
11
289.1750273
21
-157.3091
0
ARC
8
0
10
290.6142409
20
-157.2841
40
1
50
450
51
135
0
LINE
8
0
10
290.6142409
20
-156.2841
11
292.625
21
-156.2841
0
ARC
8
0
10
293.613686
20
-156.4341
40
1
50
450
51
531.3730735
0
LINE
8
0
10
293.613686
20
-155.4341
11
294.85
21
-155.4341
0
LINE
8
0
10
294.85
20
-155.4341
11
294.85
21
-150.9341
0
ARC
8
0
10
294.9995049
20
-149.945339
40
1
50
153.7900921
51
261.4017642
0
ARC
8
0
10
293.25
20
-149.0841
40
0.95
50
333.7900908
51
593.5189398
0
ARC
8
0
10
292.0906138
20
-150.6520042
40
1
50
703.6146708
51
773.5189398
0
LINE
8
0
10
293.05
20
-150.9341
11
293.05
21
-152.6841
0
ARC
8
0
10
292.05
20
-152.6841
40
1
50
270
51
0
0
LINE
8
0
10
292.05
20
-153.6841
11
290.6142409
21
-153.6841
0
ARC
8
0
10
290.6142409
20
-152.6841
40
1
50
225
51
270
0
LINE
8
0
10
289.1750273
20
-152.6591
11
289.9071341
21
-153.3912068
0
ARC
8
0
10
289.8272164
20
-151.9010437
40
1
50
126.4050931
51
229.2931447
0
ARC
8
0
10
287.75
20
-149.0841
40
2.5
50
306.4050912
51
407.1446634
0
ARC
8
0
10
290.1305237
20
-146.5183434
40
1
50
485.4873837
51
587.144664
0
ARC
8
0
10
290.1364299
20
-146.5141
40
1
50
450
51
485.9040697
0
LINE
8
0
10
278.27
20
-153.4028525
11
278.27
21
-151.4841
0
ARC
8
0
10
280.27
20
-153.4028525
40
2
50
180
51
199.9148807
0
LINE
8
0
10
307.98
20
-122.6812477
11
307.98
21
-124.6
0
ARC
8
0
10
305.98
20
-122.6812477
40
2
50
0
51
19.914887
0
LINE
8
0
10
222.5199817
20
-83.7092074
11
224.1814543
21
-82.7499324
0
ARC
8
0
10
223.52
20
-85.4412477
40
2
50
120.0006035
51
139.9227625
0
LINE
8
0
10
197.614592
20
-159.6871817
11
195.95335
21
-158.7280399
0
ARC
8
0
10
198.75
20
-157.7215396
40
2.27
50
239.9993965
51
257.465016
0
LINE
8
0
10
208.15
20
-140.0383333
11
210.85
21
-140.0383333
0
LINE
8
0
10
210.85
20
-140.0383333
11
210.85
21
-138.7883333
0
LINE
8
0
10
210.85
20
-138.7883333
11
208.15
21
-138.7883333
0
LINE
8
0
10
208.15
20
-138.7883333
11
208.15
21
-140.0383333
0
LINE
8
0
10
229.65
20
-102.7983333
11
232.35
21
-102.7983333
0
LINE
8
0
10
232.35
20
-102.7983333
11
232.35
21
-101.5483333
0
LINE
8
0
10
232.35
20
-101.5483333
11
229.65
21
-101.5483333
0
LINE
8
0
10
229.65
20
-101.5483333
11
229.65
21
-102.7983333
0
LINE
8
0
10
297.15
20
-140.0383333
11
299.85
21
-140.0383333
0
LINE
8
0
10
299.85
20
-140.0383333
11
299.85
21
-138.7883333
0
LINE
8
0
10
299.85
20
-138.7883333
11
297.15
21
-138.7883333
0
LINE
8
0
10
297.15
20
-138.7883333
11
297.15
21
-140.0383333
0
LINE
8
0
10
275.65
20
-102.7983333
11
278.35
21
-102.7983333
0
LINE
8
0
10
278.35
20
-102.7983333
11
278.35
21
-101.5483333
0
LINE
8
0
10
278.35
20
-101.5483333
11
275.65
21
-101.5483333
0
LINE
8
0
10
275.65
20
-101.5483333
11
275.65
21
-102.7983333
0
LINE
8
0
10
259.75
20
-113.68
11
257.5
21
-113.68
0
LINE
8
0
10
250.5
20
-113.68
11
248.25
21
-113.68
0
LINE
8
0
10
248.25
20
-113.68
11
248.25
21
-120.6374488
0
LINE
8
0
10
259.75
20
-120.6374488
11
259.75
21
-113.68
0
LINE
8
0
10
257.5
20
-108.38
11
250.5
21
-108.38
0
LINE
8
0
10
250.5
20
-108.38
11
250.5
21
-113.68
0
LINE
8
0
10
257.5
20
-113.68
11
257.5
21
-108.38
0
ENDSEC
0
EOF