0
SECTION
2
HEADER
9
$INSUNITS
70
4
0
ENDSEC
0
SECTION
2
TABLES
0
TABLE
2
LTYPE
0
LTYPE
72
65
70
64
2
CONTINUOUS
3
______
73
0
40
0
0
ENDTAB
0
TABLE
2
LAYER
0
ENDTAB
0
ENDSEC
0
SECTION
2
ENTITIES
0
LINE
8
0
10
275.6349732
20
-156.1568272
11
269.3379988
21
-159.7924692
0
LINE
8
0
10
238.6620012
20
-159.7924692
11
232.3650268
21
-156.1568272
0
LINE
8
0
10
229.364974
20
-156.1568282
11
210.8650276
21
-166.8380375
0
LINE
8
0
10
207.8649724
20
-166.8380373
11
189.6349722
21
-156.3126819
0
LINE
8
0
10
188.135
20
-153.7146217
11
188.135
21
-145.0771166
0
LINE
8
0
10
189.6349726
20
-142.4790562
11
197.3850274
21
-138.0044509
0
LINE
8
0
10
198.885
20
-135.4063905
11
198.885
21
-122.6812476
0
LINE
8
0
10
200.3849726
20
-120.0831872
11
208.1350274
21
-115.6085819
0
LINE
8
0
10
209.635
20
-113.0105215
11
209.635
21
-104.0612476
0
LINE
8
0
10
211.1349726
20
-101.4631872
11
218.8850274
21
-96.9885819
0
LINE
8
0
10
220.385
20
-94.3905215
11
220.385
21
-85.4412476
0
LINE
8
0
10
221.8849726
20
-82.8431872
11
229.6350274
21
-78.3685819
0
LINE
8
0
10
231.135
20
-75.7705215
11
231.135
21
-66.3153989
0
LINE
8
0
10
234.135
20
-63.3153989
11
244.61
21
-63.3153989
0
LINE
8
0
10
263.39
20
-63.3153989
11
273.865
21
-63.3153989
0
LINE
8
0
10
276.865
20
-66.3153989
11
276.865
21
-75.7705215
0
LINE
8
0
10
278.3649726
20
-78.3685819
11
286.1150274
21
-82.8431872
0
LINE
8
0
10
287.615
20
-85.4412476
11
287.615
21
-94.3905215
0
LINE
8
0
10
289.1149726
20
-96.9885819
11
296.8650274
21
-101.4631872
0
LINE
8
0
10
298.365
20
-104.0612476
11
298.365
21
-113.0105215
0
LINE
8
0
10
299.8649726
20
-115.6085819
11
307.6150274
21
-120.0831872
0
LINE
8
0
10
309.115
20
-122.6812476
11
309.115
21
-135.4063905
0
LINE
8
0
10
310.6149726
20
-138.0044509
11
318.3650274
21
-142.4790562
0
LINE
8
0
10
319.865
20
-145.0771166
11
319.865
21
-153.7146217
0
LINE
8
0
10
318.3650278
20
-156.3126819
11
300.1350276
21
-166.8380373
0
LINE
8
0
10
297.1349724
20
-166.8380375
11
278.635026
21
-156.1568282
0
ARC
8
0
10
230.8650014
20
-158.7548886
40
3
50
59.9994378
51
120.0006035
0
ARC
8
0
10
209.3650003
20
-164.2399771
40
3
50
239.9993866
51
300.0006035
0
ARC
8
0
10
191.135
20
-153.7146217
40
3
50
180
51
239.9993866
0
ARC
8
0
10
191.135
20
-145.0771166
40
3
50
120.0006035
51
180
0
ARC
8
0
10
195.885
20
-135.4063905
40
3
50
300.0006035
51
0
0
ARC
8
0
10
201.885
20
-122.6812476
40
3
50
120.0006035
51
180
0
ARC
8
0
10
206.635
20
-113.0105215
40
3
50
300.0006035
51
0
0
ARC
8
0
10
212.635
20
-104.0612476
40
3
50
120.0006035
51
180
0
ARC
8
0
10
217.385
20
-94.3905215
40
3
50
300.0006035
51
0
0
ARC
8
0
10
223.385
20
-85.4412476
40
3
50
120.0006035
51
180
0
ARC
8
0
10
228.135
20
-75.7705215
40
3
50
300.0006035
51
0
0
ARC
8
0
10
234.135
20
-66.3153989
40
3
50
90
51
180
0
ARC
8
0
10
273.865
20
-66.3153989
40
3
50
0
51
90
0
ARC
8
0
10
279.865
20
-75.7705215
40
3
50
180
51
239.9993965
0
ARC
8
0
10
284.615
20
-85.4412476
40
3
50
0
51
59.9993965
0
ARC
8
0
10
290.615
20
-94.3905215
40
3
50
180
51
239.9993965
0
ARC
8
0
10
295.365
20
-104.0612476
40
3
50
0
51
59.9993965
0
ARC
8
0
10
301.365
20
-113.0105215
40
3
50
180
51
239.9993965
0
ARC
8
0
10
306.115
20
-122.6812476
40
3
50
0
51
59.9993965
0
ARC
8
0
10
312.115
20
-135.4063905
40
3
50
180
51
239.9993965
0
ARC
8
0
10
316.865
20
-145.0771166
40
3
50
0
51
59.9993965
0
ARC
8
0
10
316.865
20
-153.7146217
40
3
50
300.0006134
51
0
0
ARC
8
0
10
298.6349997
20
-164.2399771
40
3
50
239.9993965
51
300.0006134
0
ARC
8
0
10
277.1349986
20
-158.7548886
40
3
50
59.9993965
51
120.0005622
0
LINE
8
0
10
221.7394247
20
-87.75404
11
228.0394247
21
-98.66596
0
LINE
8
0
10
228.85904
20
-98.8855753
11
239.77096
21
-92.5855753
0
LINE
8
0
10
239.9905753
20
-91.76596
11
233.6905753
21
-80.85404
0
LINE
8
0
10
232.87096
20
-80.6344247
11
221.95904
21
-86.9344247
0
ARC
8
0
10
228.55904
20
-98.36596
40
0.6
50
210
51
300
0
ARC
8
0
10
239.47096
20
-92.06596
40
0.6
50
300
51
30
0
ARC
8
0
10
233.17096
20
-81.15404
40
0.6
50
30
51
120
0
ARC
8
0
10
222.25904
20
-87.45404
40
0.6
50
120
51
210
0
LINE
8
0
10
232.4894247
20
-106.37404
11
238.7894247
21
-117.28596
0
LINE
8
0
10
239.60904
20
-117.5055753
11
250.52096
21
-111.2055753
0
LINE
8
0
10
250.7405753
20
-110.38596
11
244.4405753
21
-99.47404
0
LINE
8
0
10
243.62096
20
-99.2544247
11
232.70904
21
-105.5544247
0
ARC
8
0
10
239.30904
20
-116.98596
40
0.6
50
210
51
300
0
ARC
8
0
10
250.22096
20
-110.68596
40
0.6
50
300
51
30
0
ARC
8
0
10
243.92096
20
-99.77404
40
0.6
50
30
51
120
0
ARC
8
0
10
233.00904
20
-106.07404
40
0.6
50
120
51
210
0
LINE
8
0
10
217.2894247
20
-99.47404
11
210.9894247
21
-110.38596
0
LINE
8
0
10
211.20904
20
-111.2055753
11
222.12096
21
-117.5055753
0
LINE
8
0
10
222.9405753
20
-117.28596
11
229.2405753
21
-106.37404
0
LINE
8
0
10
229.02096
20
-105.5544247
11
218.10904
21
-99.2544247
0
ARC
8
0
10
211.50904
20
-110.68596
40
0.6
50
150
51
240
0
ARC
8
0
10
222.42096
20
-116.98596
40
0.6
50
240
51
330
0
ARC
8
0
10
228.72096
20
-106.07404
40
0.6
50
330
51
60
0
ARC
8
0
10
217.80904
20
-99.77404
40
0.6
50
60
51
150
0
LINE
8
0
10
228.0394247
20
-118.09404
11
221.7394247
21
-129.00596
0
LINE
8
0
10
221.95904
20
-129.8255753
11
232.87096
21
-136.1255753
0
LINE
8
0
10
233.6905753
20
-135.90596
11
239.9905753
21
-124.99404
0
LINE
8
0
10
239.77096
20
-124.1744247
11
228.85904
21
-117.8744247
0
ARC
8
0
10
222.25904
20
-129.30596
40
0.6
50
150
51
240
0
ARC
8
0
10
233.17096
20
-135.60596
40
0.6
50
240
51
330
0
ARC
8
0
10
239.47096
20
-124.69404
40
0.6
50
330
51
60
0
ARC
8
0
10
228.55904
20
-118.39404
40
0.6
50
60
51
150
0
LINE
8
0
10
215.665
20
-120.1
11
203.065
21
-120.1
0
LINE
8
0
10
202.465
20
-120.7
11
202.465
21
-133.3
0
LINE
8
0
10
203.065
20
-133.9
11
215.665
21
-133.9
0
LINE
8
0
10
216.265
20
-133.3
11
216.265
21
-120.7
0
ARC
8
0
10
203.065
20
-120.7
40
0.6
50
90
51
180
0
ARC
8
0
10
203.065
20
-133.3
40
0.6
50
180
51
270
0
ARC
8
0
10
215.665
20
-133.3
40
0.6
50
270
51
0
0
ARC
8
0
10
215.665
20
-120.7
40
0.6
50
0
51
90
0
LINE
8
0
10
213.815
20
-156.295869
11
226.415
21
-156.295869
0
LINE
8
0
10
227.015
20
-155.695869
11
227.015
21
-143.095869
0
LINE
8
0
10
226.415
20
-142.495869
11
213.815
21
-142.495869
0
LINE
8
0
10
213.215
20
-143.095869
11
213.215
21
-155.695869
0
ARC
8
0
10
226.415
20
-155.695869
40
0.6
50
270
51
0
0
ARC
8
0
10
226.415
20
-143.095869
40
0.6
50
0
51
90
0
ARC
8
0
10
213.815
20
-143.095869
40
0.6
50
90
51
180
0
ARC
8
0
10
213.815
20
-155.695869
40
0.6
50
180
51
270
0
LINE
8
0
10
201.4405753
20
-158.301829
11
207.7405753
21
-147.389909
0
LINE
8
0
10
207.52096
20
-146.5702937
11
196.60904
21
-140.2702937
0
LINE
8
0
10
195.7894247
20
-140.489909
11
189.4894247
21
-151.401829
0
LINE
8
0
10
189.70904
20
-152.2214443
11
200.62096
21
-158.5214443
0
ARC
8
0
10
207.22096
20
-147.089909
40
0.6
50
330
51
60
0
ARC
8
0
10
196.30904
20
-140.789909
40
0.6
50
60
51
150
0
ARC
8
0
10
190.00904
20
-151.701829
40
0.6
50
150
51
240
0
ARC
8
0
10
200.92096
20
-158.001829
40
0.6
50
240
51
330
0
LINE
8
0
10
279.9605753
20
-98.66596
11
286.2605753
21
-87.75404
0
LINE
8
0
10
286.04096
20
-86.9344247
11
275.12904
21
-80.6344247
0
LINE
8
0
10
274.3094247
20
-80.85404
11
268.0094247
21
-91.76596
0
LINE
8
0
10
268.22904
20
-92.5855753
11
279.14096
21
-98.8855753
0
ARC
8
0
10
285.74096
20
-87.45404
40
0.6
50
330
51
60
0
ARC
8
0
10
274.82904
20
-81.15404
40
0.6
50
60
51
150
0
ARC
8
0
10
268.52904
20
-92.06596
40
0.6
50
150
51
240
0
ARC
8
0
10
279.44096
20
-98.36596
40
0.6
50
240
51
330
0
LINE
8
0
10
269.2105753
20
-117.28596
11
275.5105753
21
-106.37404
0
LINE
8
0
10
275.29096
20
-105.5544247
11
264.37904
21
-99.2544247
0
LINE
8
0
10
263.5594247
20
-99.47404
11
257.2594247
21
-110.38596
0
LINE
8
0
10
257.47904
20
-111.2055753
11
268.39096
21
-117.5055753
0
ARC
8
0
10
274.99096
20
-106.07404
40
0.6
50
330
51
60
0
ARC
8
0
10
264.07904
20
-99.77404
40
0.6
50
60
51
150
0
ARC
8
0
10
257.77904
20
-110.68596
40
0.6
50
150
51
240
0
ARC
8
0
10
268.69096
20
-116.98596
40
0.6
50
240
51
330
0
LINE
8
0
10
297.0105753
20
-110.38596
11
290.7105753
21
-99.47404
0
LINE
8
0
10
289.89096
20
-99.2544247
11
278.97904
21
-105.5544247
0
LINE
8
0
10
278.7594247
20
-106.37404
11
285.0594247
21
-117.28596
0
LINE
8
0
10
285.87904
20
-117.5055753
11
296.79096
21
-111.2055753
0
ARC
8
0
10
290.19096
20
-99.77404
40
0.6
50
30
51
120
0
ARC
8
0
10
279.27904
20
-106.07404
40
0.6
50
120
51
210
0
ARC
8
0
10
285.57904
20
-116.98596
40
0.6
50
210
51
300
0
ARC
8
0
10
296.49096
20
-110.68596
40
0.6
50
300
51
30
0
LINE
8
0
10
286.2605753
20
-129.00596
11
279.9605753
21
-118.09404
0
LINE
8
0
10
279.14096
20
-117.8744247
11
268.22904
21
-124.1744247
0
LINE
8
0
10
268.0094247
20
-124.99404
11
274.3094247
21
-135.90596
0
LINE
8
0
10
275.12904
20
-136.1255753
11
286.04096
21
-129.8255753
0
ARC
8
0
10
279.44096
20
-118.39404
40
0.6
50
30
51
120
0
ARC
8
0
10
268.52904
20
-124.69404
40
0.6
50
120
51
210
0
ARC
8
0
10
274.82904
20
-135.60596
40
0.6
50
210
51
300
0
ARC
8
0
10
285.74096
20
-129.30596
40
0.6
50
300
51
30
0
LINE
8
0
10
304.935
20
-120.1
11
292.335
21
-120.1
0
LINE
8
0
10
291.735
20
-120.7
11
291.735
21
-133.3
0
LINE
8
0
10
292.335
20
-133.9
11
304.935
21
-133.9
0
LINE
8
0
10
305.535
20
-133.3
11
305.535
21
-120.7
0
ARC
8
0
10
292.335
20
-120.7
40
0.6
50
90
51
180
0
ARC
8
0
10
292.335
20
-133.3
40
0.6
50
180
51
270
0
ARC
8
0
10
304.935
20
-133.3
40
0.6
50
270
51
0
0
ARC
8
0
10
304.935
20
-120.7
40
0.6
50
0
51
90
0
LINE
8
0
10
281.585
20
-156.295869
11
294.185
21
-156.295869
0
LINE
8
0
10
294.785
20
-155.695869
11
294.785
21
-143.095869
0
LINE
8
0
10
294.185
20
-142.495869
11
281.585
21
-142.495869
0
LINE
8
0
10
280.985
20
-143.095869
11
280.985
21
-155.695869
0
ARC
8
0
10
294.185
20
-155.695869
40
0.6
50
270
51
0
0
ARC
8
0
10
294.185
20
-143.095869
40
0.6
50
0
51
90
0
ARC
8
0
10
281.585
20
-143.095869
40
0.6
50
90
51
180
0
ARC
8
0
10
281.585
20
-155.695869
40
0.6
50
180
51
270
0
LINE
8
0
10
300.2594247
20
-147.389909
11
306.5594247
21
-158.301829
0
LINE
8
0
10
307.37904
20
-158.5214443
11
318.29096
21
-152.2214443
0
LINE
8
0
10
318.5105753
20
-151.401829
11
312.2105753
21
-140.489909
0
LINE
8
0
10
311.39096
20
-140.2702937
11
300.47904
21
-146.5702937
0
ARC
8
0
10
307.07904
20
-158.001829
40
0.6
50
210
51
300
0
ARC
8
0
10
317.99096
20
-151.701829
40
0.6
50
300
51
30
0
ARC
8
0
10
311.69096
20
-140.789909
40
0.6
50
30
51
120
0
ARC
8
0
10
300.77904
20
-147.089909
40
0.6
50
120
51
210
0
LINE
8
0
10
245.11
20
-96.5653988
11
262.89
21
-96.5653988
0
LINE
8
0
10
263.39
20
-96.0653988
11
263.39
21
-63.3153989
0
LINE
8
0
10
244.61
20
-63.3153989
11
244.61
21
-96.0653988
0
ARC
8
0
10
262.89
20
-96.0653988
40
0.5
50
270
51
0
0
ARC
8
0
10
245.11
20
-96.0653988
40
0.5
50
180
51
270
0
ARC
8
0
10
254
20
-151.2838035
40
17.54
50
330.9809319
51
569.0190681
0
ENDSEC
0
EOF