0
SECTION
2
HEADER
9
$INSUNITS
70
4
0
ENDSEC
0
SECTION
2
TABLES
0
TABLE
2
LTYPE
0
LTYPE
72
65
70
64
2
CONTINUOUS
3
______
73
0
40
0
0
ENDTAB
0
TABLE
2
LAYER
0
ENDTAB
0
ENDSEC
0
SECTION
2
ENTITIES
0
LINE
8
0
10
265.2489897
20
-165.9291822
11
257.1350532
21
-170.6138715
0
LINE
8
0
10
250.8649468
20
-170.6138715
11
242.7510103
21
-165.9291822
0
LINE
8
0
10
218.9789908
20
-165.9291935
11
212.5000524
21
-169.6699015
0
LINE
8
0
10
206.2299451
20
-169.6699056
11
187.9999498
21
-159.1445884
0
LINE
8
0
10
184.865
20
-153.7146381
11
184.865
21
-145.0770945
0
LINE
8
0
10
187.9999427
20
-139.6471483
11
197.3850274
21
-134.228535
0
LINE
8
0
10
310.6149726
20
-134.228535
11
320.0000573
21
-139.6471483
0
LINE
8
0
10
323.135
20
-145.0770945
11
323.135
21
-153.7146381
0
LINE
8
0
10
320.0000502
20
-159.1445884
11
301.7700549
21
-169.6699056
0
LINE
8
0
10
295.4999476
20
-169.6699015
11
289.0210092
21
-165.9291935
0
LINE
8
0
10
273.865
20
-59.7753988
11
234.135
21
-59.7753988
0
ARC
8
0
10
254
20
-165.183923
40
6.27
50
239.999439
51
300.000561
0
ARC
8
0
10
209.3649952
20
-164.2399553
40
6.27
50
239.9994712
51
300.0006035
0
ARC
8
0
10
191.135
20
-153.7146381
40
6.27
50
180
51
239.9994704
0
ARC
8
0
10
191.135
20
-145.0770945
40
6.27
50
120.000605
51
180
0
ARC
8
0
10
316.865
20
-145.0770945
40
6.27
50
0
51
59.999395
0
ARC
8
0
10
316.865
20
-153.7146381
40
6.27
50
300.0005296
51
0
0
ARC
8
0
10
298.6350048
20
-164.2399553
40
6.27
50
239.9993965
51
300.0005288
0
ARC
8
0
10
273.865
20
-78.6653988
40
6.27
50
353.5683706
51
353.5700682
0
ARC
8
0
10
273.865
20
-66.0453988
40
6.27
50
26.325586
51
90
0
ARC
8
0
10
234.135
20
-66.0453988
40
6.27
50
90
51
153.674414
0
ARC
8
0
10
234.135
20
-78.6653988
40
6.27
50
186.4299318
51
186.4316294
0
LINE
8
0
10
198.885
20
-131.6304746
11
198.885
21
-122.6812476
0
LINE
8
0
10
200.3849726
20
-120.0831872
11
208.1350274
21
-115.6085819
0
LINE
8
0
10
209.635
20
-113.0105215
11
209.635
21
-104.0612476
0
LINE
8
0
10
211.1349726
20
-101.4631872
11
218.8850274
21
-96.9885819
0
LINE
8
0
10
220.385
20
-94.3905215
11
220.385
21
-85.4412476
0
LINE
8
0
10
221.8849725
20
-82.8431873
11
227.9044619
21
-79.3677486
0
LINE
8
0
10
280.0955381
20
-79.3677486
11
286.1150275
21
-82.8431873
0
LINE
8
0
10
287.615
20
-85.4412476
11
287.615
21
-94.3905215
0
LINE
8
0
10
289.1149726
20
-96.9885819
11
296.8650274
21
-101.4631872
0
LINE
8
0
10
298.365
20
-104.0612476
11
298.365
21
-113.0105215
0
LINE
8
0
10
299.8649726
20
-115.6085819
11
307.6150274
21
-120.0831872
0
LINE
8
0
10
309.115
20
-122.6812476
11
309.115
21
-131.6304746
0
ARC
8
0
10
201.885
20
-122.6812476
40
3
50
120.0006056
51
180
0
ARC
8
0
10
206.635
20
-113.0105215
40
3
50
300.0006056
51
0
0
ARC
8
0
10
212.635
20
-104.0612476
40
3
50
120.0006056
51
180
0
ARC
8
0
10
217.385
20
-94.3905215
40
3
50
300.0006056
51
0
0
ARC
8
0
10
223.385
20
-85.4412476
40
3
50
120.0006056
51
180
0
ARC
8
0
10
284.615
20
-85.4412476
40
3
50
0
51
59.9993944
0
ARC
8
0
10
290.615
20
-94.3905215
40
3
50
180
51
239.9993944
0
ARC
8
0
10
295.365
20
-104.0612476
40
3
50
0
51
59.9993944
0
ARC
8
0
10
301.365
20
-113.0105215
40
3
50
180
51
239.9993944
0
ARC
8
0
10
306.115
20
-122.6812476
40
3
50
0
51
59.9993944
0
ARC
8
0
10
189.4999738
20
-156.5465261
40
3
50
239.9994704
51
239.9994712
0
ARC
8
0
10
189.4999701
20
-142.2452087
40
3
50
120.0006035
51
120.000605
0
ARC
8
0
10
195.885
20
-131.6304746
40
3
50
300.0006056
51
0
0
ARC
8
0
10
312.115
20
-131.6304746
40
3
50
180
51
239.9993944
0
ARC
8
0
10
318.5000299
20
-142.2452087
40
3
50
59.999395
51
59.9993965
0
ARC
8
0
10
318.5000262
20
-156.5465261
40
3
50
300.0005288
51
300.0005296
0
LINE
8
0
10
228.5152712
20
-63.2648326
11
229.3652094
21
-63.7555329
0
LINE
8
0
10
231.1352408
20
-66.8213173
11
231.1351519
21
-75.4585287
0
LINE
8
0
10
229.3651519
20
-78.5242222
11
227.9044411
21
-79.367564
0
ARC
8
0
10
227.5952408
20
-66.821281
40
3.54
50
359.9994122
51
60.0005878
0
ARC
8
0
10
227.5951519
20
-75.4584923
40
3.54
50
300
51
359.9994105
0
LINE
8
0
10
219.845
20
-164.4292034
11
219.845
21
-163.6971136
0
LINE
8
0
10
221.6149685
20
-160.6314018
11
229.0949685
21
-156.3127191
0
LINE
8
0
10
232.6350315
20
-156.3127191
11
240.1150315
21
-160.6314018
0
LINE
8
0
10
241.885
20
-163.6971136
11
241.885
21
-164.4291914
0
ARC
8
0
10
223.385
20
-163.6971136
40
3.54
50
120.0005897
51
180
0
ARC
8
0
10
230.865
20
-159.3784309
40
3.54
50
59.9994122
51
120.0005878
0
ARC
8
0
10
238.345
20
-163.6971136
40
3.54
50
0
51
59.9994103
0
LINE
8
0
10
280.0955589
20
-79.367564
11
278.6348481
21
-78.5242222
0
LINE
8
0
10
276.8648481
20
-75.4585287
11
276.8647592
21
-66.8213173
0
LINE
8
0
10
278.6347906
20
-63.7555329
11
279.4847288
21
-63.2648326
0
ARC
8
0
10
280.4048481
20
-75.4584923
40
3.54
50
180.0005895
51
240
0
ARC
8
0
10
280.4047592
20
-66.821281
40
3.54
50
119.9994122
51
180.0005878
0
LINE
8
0
10
266.115
20
-164.4291914
11
266.115
21
-163.6971136
0
LINE
8
0
10
267.8849685
20
-160.6314018
11
275.3649685
21
-156.3127191
0
LINE
8
0
10
278.9050315
20
-156.3127191
11
286.3850315
21
-160.6314018
0
LINE
8
0
10
288.155
20
-163.6971136
11
288.155
21
-164.4292034
0
ARC
8
0
10
269.655
20
-163.6971136
40
3.54
50
120.0005897
51
180
0
ARC
8
0
10
277.135
20
-159.3784309
40
3.54
50
59.9994122
51
120.0005878
0
ARC
8
0
10
284.615
20
-163.6971136
40
3.54
50
0
51
59.9994103
0
ARC
8
0
10
256.2690135
20
-169.1138808
40
1.73205
50
300.000561
51
300.0005622
0
ARC
8
0
10
251.7309865
20
-169.1138808
40
1.73205
50
239.9994378
51
239.999439
0
ARC
8
0
10
243.61705
20
-164.4291914
40
1.73205
50
180
51
239.9994378
0
ARC
8
0
10
239.2489911
20
-162.1313923
40
1.73205
50
59.9994103
51
59.9994122
0
ARC
8
0
10
222.4810089
20
-162.1313923
40
1.73205
50
120.0005878
51
120.0005897
0
ARC
8
0
10
218.11295
20
-164.4292034
40
1.73205
50
300.0006035
51
0
0
ARC
8
0
10
196.5189866
20
-132.7285448
40
1.73205
50
300.0006035
51
300.0006056
0
ARC
8
0
10
201.2510134
20
-121.5831774
40
1.73205
50
120.0006035
51
120.0006056
0
ARC
8
0
10
207.2689866
20
-114.1085917
40
1.73205
50
300.0006035
51
300.0006056
0
ARC
8
0
10
212.0010134
20
-102.9631774
40
1.73205
50
120.0006035
51
120.0006056
0
ARC
8
0
10
218.0189866
20
-95.4885917
40
1.73205
50
300.0006035
51
300.0006056
0
ARC
8
0
10
222.7510134
20
-84.3431774
40
1.73205
50
120.0006056
51
120.0006084
0
ARC
8
0
10
229.4031019
20
-75.4585109
40
1.73205
50
359.9994098
51
359.9994105
0
ARC
8
0
10
278.5968981
20
-75.4585109
40
1.73205
50
180.0005895
51
180.0005901
0
ARC
8
0
10
285.2489866
20
-84.3431774
40
1.73205
50
59.9993916
51
59.9993944
0
ARC
8
0
10
289.9810134
20
-95.4885917
40
1.73205
50
239.9993944
51
239.9993965
0
ARC
8
0
10
295.9989866
20
-102.9631774
40
1.73205
50
59.9993944
51
59.9993965
0
ARC
8
0
10
300.7310134
20
-114.1085917
40
1.73205
50
239.9993944
51
239.9993965
0
ARC
8
0
10
306.7489866
20
-121.5831774
40
1.73205
50
59.9993944
51
59.9993965
0
ARC
8
0
10
311.4810134
20
-132.7285448
40
1.73205
50
239.9993944
51
239.9993965
0
ARC
8
0
10
289.88705
20
-164.4292034
40
1.73205
50
180
51
239.9993965
0
ARC
8
0
10
285.5189911
20
-162.1313923
40
1.73205
50
59.9994103
51
59.9994122
0
ARC
8
0
10
268.7510089
20
-162.1313923
40
1.73205
50
120.0005878
51
120.0005897
0
ARC
8
0
10
264.38295
20
-164.4291914
40
1.73205
50
300.0005622
51
0
0
ENDSEC
0
EOF