0
SECTION
2
HEADER
9
$INSUNITS
70
4
0
ENDSEC
0
SECTION
2
TABLES
0
TABLE
2
LTYPE
0
LTYPE
72
65
70
64
2
CONTINUOUS
3
______
73
0
40
0
0
ENDTAB
0
TABLE
2
LAYER
0
ENDTAB
0
ENDSEC
0
SECTION
2
ENTITIES
0
LINE
8
0
10
230.96
20
-154.6037202
11
230.96
21
-140.833594
0
LINE
8
0
10
230.96
20
-154.6037202
11
220.21
21
-160.8103869
0
LINE
8
0
10
220.21
20
-160.8103869
11
220.21
21
-161.1221559
0
LINE
8
0
10
220.21
20
-161.1221559
11
211.2300277
21
-166.306875
0
LINE
8
0
10
208.2299721
20
-166.3068755
11
189.7299726
21
-155.6256355
0
LINE
8
0
10
188.23
20
-153.0275751
11
188.23
21
-144.0783017
0
LINE
8
0
10
189.7299733
20
-141.4802409
11
197.7500267
21
-136.8497509
0
LINE
8
0
10
199.25
20
-134.2516901
11
199.25
21
-122.6812477
0
LINE
8
0
10
200.7499726
20
-120.0831873
11
208.5000274
21
-115.608582
0
LINE
8
0
10
210
20
-113.0105216
11
210
21
-104.0612477
0
LINE
8
0
10
211.4999726
20
-101.4631873
11
219.2500274
21
-96.988582
0
LINE
8
0
10
220.75
20
-94.3905216
11
220.75
21
-85.4412477
0
LINE
8
0
10
222.2499726
20
-82.8431873
11
230.0000274
21
-78.368582
0
LINE
8
0
10
231.5
20
-75.7705216
11
231.5
21
-66.4668645
0
LINE
8
0
10
234.5
20
-63.4668645
11
244.57
21
-63.4668643
0
LINE
8
0
10
263.43
20
-63.4668643
11
273.5
21
-63.4668645
0
LINE
8
0
10
276.5
20
-66.4668645
11
276.5
21
-75.7705216
0
LINE
8
0
10
277.9999726
20
-78.368582
11
285.7500274
21
-82.8431873
0
LINE
8
0
10
287.25
20
-85.4412477
11
287.25
21
-94.3905216
0
LINE
8
0
10
288.7499726
20
-96.988582
11
296.5000274
21
-101.4631873
0
LINE
8
0
10
298
20
-104.0612477
11
298
21
-113.0105216
0
LINE
8
0
10
299.4999726
20
-115.608582
11
307.2500274
21
-120.0831873
0
LINE
8
0
10
308.75
20
-122.6812477
11
308.75
21
-134.2516901
0
LINE
8
0
10
310.2499733
20
-136.8497509
11
318.2700267
21
-141.4802409
0
LINE
8
0
10
319.77
20
-144.0783017
11
319.77
21
-153.0275751
0
LINE
8
0
10
318.2700274
20
-155.6256355
11
299.7700279
21
-166.3068755
0
LINE
8
0
10
296.7699723
20
-166.306875
11
287.79
21
-161.1221559
0
LINE
8
0
10
287.79
20
-161.1221559
11
287.79
21
-160.8103869
0
LINE
8
0
10
287.79
20
-160.8103869
11
277.04
21
-154.6037202
0
LINE
8
0
10
277.04
20
-154.6037202
11
277.04
21
-140.833594
0
ARC
8
0
10
209.7299995
20
-163.7088151
40
3
50
239.9993965
51
300.0006212
0
ARC
8
0
10
191.23
20
-153.0275751
40
3
50
180
51
239.9993965
0
ARC
8
0
10
191.23
20
-144.0783017
40
3
50
120.0005878
51
180
0
ARC
8
0
10
196.25
20
-134.2516901
40
3
50
300.0005878
51
0
0
ARC
8
0
10
202.25
20
-122.6812477
40
3
50
120.0006035
51
180
0
ARC
8
0
10
207
20
-113.0105216
40
3
50
300.0006035
51
0
0
ARC
8
0
10
213
20
-104.0612477
40
3
50
120.0006035
51
180
0
ARC
8
0
10
217.75
20
-94.3905216
40
3
50
300.0006035
51
0
0
ARC
8
0
10
223.75
20
-85.4412477
40
3
50
120.0006035
51
180
0
ARC
8
0
10
228.5
20
-75.7705216
40
3
50
300.0006035
51
0
0
ARC
8
0
10
234.5
20
-66.4668645
40
3
50
90
51
180
0
ARC
8
0
10
273.5
20
-66.4668645
40
3
50
0
51
90
0
ARC
8
0
10
279.5
20
-75.7705216
40
3
50
180
51
239.9993965
0
ARC
8
0
10
284.25
20
-85.4412477
40
3
50
0
51
59.9993965
0
ARC
8
0
10
290.25
20
-94.3905216
40
3
50
180
51
239.9993965
0
ARC
8
0
10
295
20
-104.0612477
40
3
50
0
51
59.9993965
0
ARC
8
0
10
301
20
-113.0105216
40
3
50
180
51
239.9993965
0
ARC
8
0
10
305.75
20
-122.6812477
40
3
50
0
51
59.9993965
0
ARC
8
0
10
311.75
20
-134.2516901
40
3
50
180
51
239.9994122
0
ARC
8
0
10
316.77
20
-144.0783017
40
3
50
0
51
59.9994122
0
ARC
8
0
10
316.77
20
-153.0275751
40
3
50
300.0006035
51
0
0
ARC
8
0
10
298.2700005
20
-163.7088151
40
3
50
239.9993788
51
300.0006035
0
LINE
8
0
10
232.4599726
20
-138.2355336
11
240.2100274
21
-133.7609283
0
LINE
8
0
10
241.71
20
-131.1628679
11
241.71
21
-122.2135967
0
LINE
8
0
10
243.209976
20
-119.6155343
11
252.499976
21
-114.2518363
0
LINE
8
0
10
255.500024
20
-114.2518363
11
264.790024
21
-119.6155343
0
LINE
8
0
10
266.29
20
-122.2135967
11
266.29
21
-131.1628679
0
LINE
8
0
10
267.7899726
20
-133.7609283
11
275.5400274
21
-138.2355336
0
ARC
8
0
10
274.04
20
-140.833594
40
3
50
0
51
59.9993965
0
ARC
8
0
10
269.29
20
-131.1628679
40
3
50
180
51
239.9993965
0
ARC
8
0
10
263.29
20
-122.2135967
40
3
50
0
51
59.9994712
0
ARC
8
0
10
254
20
-116.8498986
40
3
50
59.9994712
51
120.0005288
0
ARC
8
0
10
244.71
20
-122.2135967
40
3
50
120.0005288
51
180
0
ARC
8
0
10
238.71
20
-131.1628679
40
3
50
300.0006035
51
0
0
ARC
8
0
10
233.96
20
-140.833594
40
3
50
120.0006035
51
180
0
LINE
8
0
10
222.1044247
20
-87.75404
11
228.4044247
21
-98.66596
0
LINE
8
0
10
229.22404
20
-98.8855753
11
240.13596
21
-92.5855753
0
LINE
8
0
10
240.3555753
20
-91.76596
11
234.0555753
21
-80.85404
0
LINE
8
0
10
233.23596
20
-80.6344247
11
222.32404
21
-86.9344247
0
ARC
8
0
10
228.92404
20
-98.36596
40
0.6
50
210
51
300
0
ARC
8
0
10
239.83596
20
-92.06596
40
0.6
50
300
51
30
0
ARC
8
0
10
233.53596
20
-81.15404
40
0.6
50
30
51
120
0
ARC
8
0
10
222.62404
20
-87.45404
40
0.6
50
120
51
210
0
LINE
8
0
10
232.8544247
20
-106.37404
11
239.1544247
21
-117.28596
0
LINE
8
0
10
239.97404
20
-117.5055753
11
250.88596
21
-111.2055753
0
LINE
8
0
10
251.1055753
20
-110.38596
11
244.8055753
21
-99.47404
0
LINE
8
0
10
243.98596
20
-99.2544247
11
233.07404
21
-105.5544247
0
ARC
8
0
10
239.67404
20
-116.98596
40
0.6
50
210
51
300
0
ARC
8
0
10
250.58596
20
-110.68596
40
0.6
50
300
51
30
0
ARC
8
0
10
244.28596
20
-99.77404
40
0.6
50
30
51
120
0
ARC
8
0
10
233.37404
20
-106.07404
40
0.6
50
120
51
210
0
LINE
8
0
10
217.6544247
20
-99.47404
11
211.3544247
21
-110.38596
0
LINE
8
0
10
211.57404
20
-111.2055753
11
222.48596
21
-117.5055753
0
LINE
8
0
10
223.3055753
20
-117.28596
11
229.6055753
21
-106.37404
0
LINE
8
0
10
229.38596
20
-105.5544247
11
218.47404
21
-99.2544247
0
ARC
8
0
10
211.87404
20
-110.68596
40
0.6
50
150
51
240
0
ARC
8
0
10
222.78596
20
-116.98596
40
0.6
50
240
51
330
0
ARC
8
0
10
229.08596
20
-106.07404
40
0.6
50
330
51
60
0
ARC
8
0
10
218.17404
20
-99.77404
40
0.6
50
60
51
150
0
LINE
8
0
10
228.4044247
20
-118.09404
11
222.1044247
21
-129.00596
0
LINE
8
0
10
222.32404
20
-129.8255753
11
233.23596
21
-136.1255753
0
LINE
8
0
10
234.0555753
20
-135.90596
11
240.3555753
21
-124.99404
0
LINE
8
0
10
240.13596
20
-124.1744247
11
229.22404
21
-117.8744247
0
ARC
8
0
10
222.62404
20
-129.30596
40
0.6
50
150
51
240
0
ARC
8
0
10
233.53596
20
-135.60596
40
0.6
50
240
51
330
0
ARC
8
0
10
239.83596
20
-124.69404
40
0.6
50
330
51
60
0
ARC
8
0
10
228.92404
20
-118.39404
40
0.6
50
60
51
150
0
LINE
8
0
10
216.03
20
-120.1
11
203.43
21
-120.1
0
LINE
8
0
10
202.83
20
-120.7
11
202.83
21
-133.3
0
LINE
8
0
10
203.43
20
-133.9
11
216.03
21
-133.9
0
LINE
8
0
10
216.63
20
-133.3
11
216.63
21
-120.7
0
ARC
8
0
10
203.43
20
-120.7
40
0.6
50
90
51
180
0
ARC
8
0
10
203.43
20
-133.3
40
0.6
50
180
51
270
0
ARC
8
0
10
216.03
20
-133.3
40
0.6
50
270
51
0
0
ARC
8
0
10
216.03
20
-120.7
40
0.6
50
0
51
90
0
LINE
8
0
10
214.18
20
-155.452938
11
226.78
21
-155.452938
0
LINE
8
0
10
227.38
20
-154.852938
11
227.38
21
-142.252938
0
LINE
8
0
10
226.78
20
-141.652938
11
214.18
21
-141.652938
0
LINE
8
0
10
213.58
20
-142.252938
11
213.58
21
-154.852938
0
ARC
8
0
10
226.78
20
-154.852938
40
0.6
50
270
51
0
0
ARC
8
0
10
226.78
20
-142.252938
40
0.6
50
0
51
90
0
ARC
8
0
10
214.18
20
-142.252938
40
0.6
50
90
51
180
0
ARC
8
0
10
214.18
20
-154.852938
40
0.6
50
180
51
270
0
LINE
8
0
10
201.8055753
20
-157.458898
11
208.1055753
21
-146.546978
0
LINE
8
0
10
207.88596
20
-145.7273627
11
196.97404
21
-139.4273627
0
LINE
8
0
10
196.1544247
20
-139.646978
11
189.8544247
21
-150.558898
0
LINE
8
0
10
190.07404
20
-151.3785133
11
200.98596
21
-157.6785133
0
ARC
8
0
10
207.58596
20
-146.246978
40
0.6
50
330
51
60
0
ARC
8
0
10
196.67404
20
-139.946978
40
0.6
50
60
51
150
0
ARC
8
0
10
190.37404
20
-150.858898
40
0.6
50
150
51
240
0
ARC
8
0
10
201.28596
20
-157.158898
40
0.6
50
240
51
330
0
LINE
8
0
10
279.5955753
20
-98.66596
11
285.8955753
21
-87.75404
0
LINE
8
0
10
285.67596
20
-86.9344247
11
274.76404
21
-80.6344247
0
LINE
8
0
10
273.9444247
20
-80.85404
11
267.6444247
21
-91.76596
0
LINE
8
0
10
267.86404
20
-92.5855753
11
278.77596
21
-98.8855753
0
ARC
8
0
10
285.37596
20
-87.45404
40
0.6
50
330
51
60
0
ARC
8
0
10
274.46404
20
-81.15404
40
0.6
50
60
51
150
0
ARC
8
0
10
268.16404
20
-92.06596
40
0.6
50
150
51
240
0
ARC
8
0
10
279.07596
20
-98.36596
40
0.6
50
240
51
330
0
LINE
8
0
10
268.8455753
20
-117.28596
11
275.1455753
21
-106.37404
0
LINE
8
0
10
274.92596
20
-105.5544247
11
264.01404
21
-99.2544247
0
LINE
8
0
10
263.1944247
20
-99.47404
11
256.8944247
21
-110.38596
0
LINE
8
0
10
257.11404
20
-111.2055753
11
268.02596
21
-117.5055753
0
ARC
8
0
10
274.62596
20
-106.07404
40
0.6
50
330
51
60
0
ARC
8
0
10
263.71404
20
-99.77404
40
0.6
50
60
51
150
0
ARC
8
0
10
257.41404
20
-110.68596
40
0.6
50
150
51
240
0
ARC
8
0
10
268.32596
20
-116.98596
40
0.6
50
240
51
330
0
LINE
8
0
10
296.6455753
20
-110.38596
11
290.3455753
21
-99.47404
0
LINE
8
0
10
289.52596
20
-99.2544247
11
278.61404
21
-105.5544247
0
LINE
8
0
10
278.3944247
20
-106.37404
11
284.6944247
21
-117.28596
0
LINE
8
0
10
285.51404
20
-117.5055753
11
296.42596
21
-111.2055753
0
ARC
8
0
10
289.82596
20
-99.77404
40
0.6
50
30
51
120
0
ARC
8
0
10
278.91404
20
-106.07404
40
0.6
50
120
51
210
0
ARC
8
0
10
285.21404
20
-116.98596
40
0.6
50
210
51
300
0
ARC
8
0
10
296.12596
20
-110.68596
40
0.6
50
300
51
30
0
LINE
8
0
10
285.8955753
20
-129.00596
11
279.5955753
21
-118.09404
0
LINE
8
0
10
278.77596
20
-117.8744247
11
267.86404
21
-124.1744247
0
LINE
8
0
10
267.6444247
20
-124.99404
11
273.9444247
21
-135.90596
0
LINE
8
0
10
274.76404
20
-136.1255753
11
285.67596
21
-129.8255753
0
ARC
8
0
10
279.07596
20
-118.39404
40
0.6
50
30
51
120
0
ARC
8
0
10
268.16404
20
-124.69404
40
0.6
50
120
51
210
0
ARC
8
0
10
274.46404
20
-135.60596
40
0.6
50
210
51
300
0
ARC
8
0
10
285.37596
20
-129.30596
40
0.6
50
300
51
30
0
LINE
8
0
10
304.57
20
-120.1
11
291.97
21
-120.1
0
LINE
8
0
10
291.37
20
-120.7
11
291.37
21
-133.3
0
LINE
8
0
10
291.97
20
-133.9
11
304.57
21
-133.9
0
LINE
8
0
10
305.17
20
-133.3
11
305.17
21
-120.7
0
ARC
8
0
10
291.97
20
-120.7
40
0.6
50
90
51
180
0
ARC
8
0
10
291.97
20
-133.3
40
0.6
50
180
51
270
0
ARC
8
0
10
304.57
20
-133.3
40
0.6
50
270
51
0
0
ARC
8
0
10
304.57
20
-120.7
40
0.6
50
0
51
90
0
LINE
8
0
10
281.22
20
-155.452938
11
293.82
21
-155.452938
0
LINE
8
0
10
294.42
20
-154.852938
11
294.42
21
-142.252938
0
LINE
8
0
10
293.82
20
-141.652938
11
281.22
21
-141.652938
0
LINE
8
0
10
280.62
20
-142.252938
11
280.62
21
-154.852938
0
ARC
8
0
10
293.82
20
-154.852938
40
0.6
50
270
51
0
0
ARC
8
0
10
293.82
20
-142.252938
40
0.6
50
0
51
90
0
ARC
8
0
10
281.22
20
-142.252938
40
0.6
50
90
51
180
0
ARC
8
0
10
281.22
20
-154.852938
40
0.6
50
180
51
270
0
LINE
8
0
10
299.8944247
20
-146.546978
11
306.1944247
21
-157.458898
0
LINE
8
0
10
307.01404
20
-157.6785133
11
317.92596
21
-151.3785133
0
LINE
8
0
10
318.1455753
20
-150.558898
11
311.8455753
21
-139.646978
0
LINE
8
0
10
311.02596
20
-139.4273627
11
300.11404
21
-145.7273627
0
ARC
8
0
10
306.71404
20
-157.158898
40
0.6
50
210
51
300
0
ARC
8
0
10
317.62596
20
-150.858898
40
0.6
50
300
51
30
0
ARC
8
0
10
311.32596
20
-139.946978
40
0.6
50
30
51
120
0
ARC
8
0
10
300.41404
20
-146.246978
40
0.6
50
120
51
210
0
LINE
8
0
10
245.11
20
-97.0268643
11
262.89
21
-97.0268643
0
LINE
8
0
10
263.43
20
-96.4868643
11
263.43
21
-63.4668643
0
LINE
8
0
10
244.57
20
-63.4668643
11
244.57
21
-96.4868643
0
ARC
8
0
10
262.89
20
-96.4868643
40
0.54
50
270
51
0
0
ARC
8
0
10
245.11
20
-96.4868643
40
0.54
50
180
51
270
0
ENDSEC
0
EOF