0
SECTION
2
HEADER
9
$INSUNITS
70
4
0
ENDSEC
0
SECTION
2
TABLES
0
TABLE
2
LTYPE
0
LTYPE
72
65
70
64
2
CONTINUOUS
3
______
73
0
40
0
0
ENDTAB
0
TABLE
2
LAYER
0
ENDTAB
0
ENDSEC
0
SECTION
2
ENTITIES
0
LINE
8
0
10
230.73
20
-153.4028525
11
230.73
21
-140.9894785
0
LINE
8
0
10
229.2300274
20
-156.0009129
11
221.6150304
21
-160.3975406
0
LINE
8
0
10
197.1149702
20
-160.5534255
11
189.4999726
21
-156.1567975
0
LINE
8
0
10
188
20
-153.5587371
11
188
21
-144.6094637
0
LINE
8
0
10
189.4999733
20
-142.0114029
11
197.5200267
21
-137.3809129
0
LINE
8
0
10
199.02
20
-134.7828521
11
199.02
21
-122.6812477
0
LINE
8
0
10
200.5199726
20
-120.0831873
11
208.2700274
21
-115.608582
0
LINE
8
0
10
209.77
20
-113.0105216
11
209.77
21
-104.0612477
0
LINE
8
0
10
211.2699726
20
-101.4631873
11
219.0200274
21
-96.988582
0
LINE
8
0
10
220.52
20
-94.3905216
11
220.52
21
-85.4412477
0
LINE
8
0
10
222.0199726
20
-82.8431873
11
229.7700274
21
-78.368582
0
LINE
8
0
10
278.2299726
20
-78.368582
11
285.9800274
21
-82.8431873
0
LINE
8
0
10
287.48
20
-85.4412477
11
287.48
21
-94.3905216
0
LINE
8
0
10
288.9799726
20
-96.988582
11
296.7300274
21
-101.4631873
0
LINE
8
0
10
298.23
20
-104.0612477
11
298.23
21
-113.0105216
0
LINE
8
0
10
299.7299726
20
-115.608582
11
307.4800274
21
-120.0831873
0
LINE
8
0
10
308.98
20
-122.6812477
11
308.98
21
-134.7828521
0
LINE
8
0
10
310.4799733
20
-137.3809129
11
318.5000267
21
-142.0114029
0
LINE
8
0
10
320
20
-144.6094637
11
320
21
-153.5587371
0
LINE
8
0
10
318.5000274
20
-156.1567975
11
310.8850298
21
-160.5534255
0
LINE
8
0
10
286.3849696
20
-160.3975406
11
278.7699726
21
-156.0009129
0
LINE
8
0
10
277.27
20
-153.4028525
11
277.27
21
-140.9894785
0
ARC
8
0
10
227.73
20
-153.4028525
40
3
50
300.0006035
51
0
0
ARC
8
0
10
191
20
-153.5587371
40
3
50
180
51
239.9993965
0
ARC
8
0
10
191
20
-144.6094637
40
3
50
120.0005878
51
180
0
ARC
8
0
10
196.02
20
-134.7828521
40
3
50
300.0005878
51
0
0
ARC
8
0
10
202.02
20
-122.6812477
40
3
50
120.0006035
51
180
0
ARC
8
0
10
206.77
20
-113.0105216
40
3
50
300.0006035
51
0
0
ARC
8
0
10
212.77
20
-104.0612477
40
3
50
120.0006035
51
180
0
ARC
8
0
10
217.52
20
-94.3905216
40
3
50
300.0006035
51
0
0
ARC
8
0
10
223.52
20
-85.4412477
40
3
50
120.0006035
51
180
0
ARC
8
0
10
228.27
20
-75.7705216
40
3
50
300.0006035
51
325.2231556
0
ARC
8
0
10
279.73
20
-75.7705216
40
3
50
214.7768444
51
239.9993965
0
ARC
8
0
10
284.48
20
-85.4412477
40
3
50
0
51
59.9993965
0
ARC
8
0
10
290.48
20
-94.3905216
40
3
50
180
51
239.9993965
0
ARC
8
0
10
295.23
20
-104.0612477
40
3
50
0
51
59.9993965
0
ARC
8
0
10
301.23
20
-113.0105216
40
3
50
180
51
239.9993965
0
ARC
8
0
10
305.98
20
-122.6812477
40
3
50
0
51
59.9993965
0
ARC
8
0
10
311.98
20
-134.7828521
40
3
50
180
51
239.9994122
0
ARC
8
0
10
317
20
-144.6094637
40
3
50
0
51
59.9994122
0
ARC
8
0
10
317
20
-153.5587371
40
3
50
300.0006035
51
0
0
ARC
8
0
10
280.27
20
-153.4028525
40
3
50
180
51
239.9993965
0
LINE
8
0
10
232.2299726
20
-138.3914181
11
239.9800274
21
-133.9168128
0
LINE
8
0
10
241.48
20
-131.3187524
11
241.48
21
-123.6374488
0
LINE
8
0
10
244.48
20
-120.6374488
11
263.52
21
-120.6374488
0
LINE
8
0
10
266.52
20
-123.6374488
11
266.52
21
-131.3187524
0
LINE
8
0
10
268.0199726
20
-133.9168128
11
275.7700274
21
-138.3914181
0
ARC
8
0
10
274.27
20
-140.9894785
40
3
50
0
51
59.9993965
0
ARC
8
0
10
269.52
20
-131.3187524
40
3
50
180
51
239.9993965
0
ARC
8
0
10
263.52
20
-123.6374488
40
3
50
0
51
90
0
ARC
8
0
10
244.48
20
-123.6374488
40
3
50
90
51
180
0
ARC
8
0
10
238.48
20
-131.3187524
40
3
50
300.0006035
51
0
0
ARC
8
0
10
233.73
20
-140.9894785
40
3
50
120.0006035
51
180
0
LINE
8
0
10
230.7341394
20
-77.4816666
11
244.57
21
-77.4816666
0
LINE
8
0
10
263.43
20
-77.4816666
11
277.2658606
21
-77.4816666
0
LINE
8
0
10
200.3850298
20
-160.5534255
11
207.8649696
21
-156.234775
0
LINE
8
0
10
211.1350302
20
-156.2347754
11
218.3449698
21
-160.3975402
0
LINE
8
0
10
289.6550302
20
-160.3975402
11
296.8649698
21
-156.2347754
0
LINE
8
0
10
300.1350304
20
-156.234775
11
307.6149702
21
-160.5534255
0
ARC
8
0
10
219.9800006
20
-157.5656548
40
3.27
50
239.9993788
51
300.0006035
0
ARC
8
0
10
209.4999994
20
-159.0666608
40
3.27
50
59.9993788
51
120.0006035
0
ARC
8
0
10
198.75
20
-157.7215396
40
3.27
50
239.9993965
51
300.0006035
0
ARC
8
0
10
309.25
20
-157.7215396
40
3.27
50
239.9993965
51
300.0006035
0
ARC
8
0
10
298.5000006
20
-159.0666608
40
3.27
50
59.9993965
51
120.0006212
0
ARC
8
0
10
288.0199994
20
-157.5656548
40
3.27
50
239.9993965
51
300.0006212
0
LINE
8
0
10
245.11
20
-94.4933333
11
247.15
21
-94.4933333
0
LINE
8
0
10
260.85
20
-94.4933333
11
262.89
21
-94.4933333
0
LINE
8
0
10
263.43
20
-93.9533333
11
263.43
21
-77.4816666
0
LINE
8
0
10
244.57
20
-77.4816666
11
244.57
21
-93.9533333
0
ARC
8
0
10
262.89
20
-93.9533333
40
0.54
50
270
51
0
0
ARC
8
0
10
245.11
20
-93.9533333
40
0.54
50
180
51
270
0
LINE
8
0
10
247.69
20
-97.5533333
11
260.31
21
-97.5533333
0
LINE
8
0
10
260.85
20
-97.0133333
11
260.85
21
-94.4933333
0
LINE
8
0
10
247.15
20
-94.4933333
11
247.15
21
-97.0133333
0
ARC
8
0
10
260.31
20
-97.0133333
40
0.54
50
270
51
0
0
ARC
8
0
10
247.69
20
-97.0133333
40
0.54
50
180
51
270
0
LINE
8
0
10
233.1271659
20
-86.6843594
11
234.7271659
21
-89.4556406
0
LINE
8
0
10
235.0003709
20
-89.5288457
11
237.3386395
21
-88.1788457
0
LINE
8
0
10
237.4118446
20
-87.9056406
11
235.8118446
21
-85.1343594
0
LINE
8
0
10
235.5386395
20
-85.0611543
11
233.2003709
21
-86.4111543
0
ARC
8
0
10
234.9003709
20
-89.3556406
40
0.2
50
210
51
300
0
ARC
8
0
10
237.2386395
20
-88.0056406
40
0.2
50
300
51
30
0
ARC
8
0
10
235.6386395
20
-85.2343594
40
0.2
50
30
51
120
0
ARC
8
0
10
233.3003709
20
-86.5843594
40
0.2
50
120
51
210
0
LINE
8
0
10
223.9771659
20
-108.6843594
11
222.3771659
21
-111.4556406
0
LINE
8
0
10
222.4503709
20
-111.7288457
11
224.7886395
21
-113.0788457
0
LINE
8
0
10
225.0618446
20
-113.0056406
11
226.6618446
21
-110.2343594
0
LINE
8
0
10
226.5886395
20
-109.9611543
11
224.2503709
21
-108.6111543
0
ARC
8
0
10
222.5503709
20
-111.5556406
40
0.2
50
150
51
240
0
ARC
8
0
10
224.8886395
20
-112.9056406
40
0.2
50
240
51
330
0
ARC
8
0
10
226.4886395
20
-110.1343594
40
0.2
50
330
51
60
0
ARC
8
0
10
224.1503709
20
-108.7843594
40
0.2
50
60
51
150
0
LINE
8
0
10
211.1
20
-130.38
11
207.9
21
-130.38
0
LINE
8
0
10
207.7
20
-130.58
11
207.7
21
-133.28
0
LINE
8
0
10
207.9
20
-133.48
11
211.1
21
-133.48
0
LINE
8
0
10
211.3
20
-133.28
11
211.3
21
-130.58
0
ARC
8
0
10
207.9
20
-130.58
40
0.2
50
90
51
180
0
ARC
8
0
10
207.9
20
-133.28
40
0.2
50
180
51
270
0
ARC
8
0
10
211.1
20
-133.28
40
0.2
50
270
51
0
0
ARC
8
0
10
211.1
20
-130.58
40
0.2
50
0
51
90
0
LINE
8
0
10
195.0228341
20
-148.7797406
11
196.6228341
21
-146.0084594
0
LINE
8
0
10
196.5496291
20
-145.7352543
11
194.2113605
21
-144.3852543
0
LINE
8
0
10
193.9381554
20
-144.4584594
11
192.3381554
21
-147.2297406
0
LINE
8
0
10
192.4113605
20
-147.5029457
11
194.7496291
21
-148.8529457
0
ARC
8
0
10
196.4496291
20
-145.9084594
40
0.2
50
330
51
60
0
ARC
8
0
10
194.1113605
20
-144.5584594
40
0.2
50
60
51
150
0
ARC
8
0
10
192.5113605
20
-147.3297406
40
0.2
50
150
51
240
0
ARC
8
0
10
194.8496291
20
-148.6797406
40
0.2
50
240
51
330
0
LINE
8
0
10
245.4771659
20
-108.6843594
11
243.8771659
21
-111.4556406
0
LINE
8
0
10
243.9503709
20
-111.7288457
11
246.2886395
21
-113.0788457
0
LINE
8
0
10
246.5618446
20
-113.0056406
11
248.1618446
21
-110.2343594
0
LINE
8
0
10
248.0886395
20
-109.9611543
11
245.7503709
21
-108.6111543
0
ARC
8
0
10
244.0503709
20
-111.5556406
40
0.2
50
150
51
240
0
ARC
8
0
10
246.3886395
20
-112.9056406
40
0.2
50
240
51
330
0
ARC
8
0
10
247.9886395
20
-110.1343594
40
0.2
50
330
51
60
0
ARC
8
0
10
245.6503709
20
-108.7843594
40
0.2
50
60
51
150
0
LINE
8
0
10
234.7271659
20
-127.3043594
11
233.1271659
21
-130.0756406
0
LINE
8
0
10
233.2003709
20
-130.3488457
11
235.5386395
21
-131.6988457
0
LINE
8
0
10
235.8118446
20
-131.6256406
11
237.4118446
21
-128.8543594
0
LINE
8
0
10
237.3386395
20
-128.5811543
11
235.0003709
21
-127.2311543
0
ARC
8
0
10
233.3003709
20
-130.1756406
40
0.2
50
150
51
240
0
ARC
8
0
10
235.6386395
20
-131.5256406
40
0.2
50
240
51
330
0
ARC
8
0
10
237.2386395
20
-128.7543594
40
0.2
50
330
51
60
0
ARC
8
0
10
234.9003709
20
-127.4043594
40
0.2
50
60
51
150
0
LINE
8
0
10
218.65
20
-145.7041
11
221.85
21
-145.7041
0
LINE
8
0
10
222.05
20
-145.5041
11
222.05
21
-142.8041
0
LINE
8
0
10
221.85
20
-142.6041
11
218.65
21
-142.6041
0
LINE
8
0
10
218.45
20
-142.8041
11
218.45
21
-145.5041
0
ARC
8
0
10
221.85
20
-145.5041
40
0.2
50
270
51
0
0
ARC
8
0
10
221.85
20
-142.8041
40
0.2
50
0
51
90
0
ARC
8
0
10
218.65
20
-142.8041
40
0.2
50
90
51
180
0
ARC
8
0
10
218.65
20
-145.5041
40
0.2
50
180
51
270
0
LINE
8
0
10
273.2728341
20
-89.4556406
11
274.8728341
21
-86.6843594
0
LINE
8
0
10
274.7996291
20
-86.4111543
11
272.4613605
21
-85.0611543
0
LINE
8
0
10
272.1881554
20
-85.1343594
11
270.5881554
21
-87.9056406
0
LINE
8
0
10
270.6613605
20
-88.1788457
11
272.9996291
21
-89.5288457
0
ARC
8
0
10
274.6996291
20
-86.5843594
40
0.2
50
330
51
60
0
ARC
8
0
10
272.3613605
20
-85.2343594
40
0.2
50
60
51
150
0
ARC
8
0
10
270.7613605
20
-88.0056406
40
0.2
50
150
51
240
0
ARC
8
0
10
273.0996291
20
-89.3556406
40
0.2
50
240
51
330
0
LINE
8
0
10
285.6228341
20
-111.4556406
11
284.0228341
21
-108.6843594
0
LINE
8
0
10
283.7496291
20
-108.6111543
11
281.4113605
21
-109.9611543
0
LINE
8
0
10
281.3381554
20
-110.2343594
11
282.9381554
21
-113.0056406
0
LINE
8
0
10
283.2113605
20
-113.0788457
11
285.5496291
21
-111.7288457
0
ARC
8
0
10
283.8496291
20
-108.7843594
40
0.2
50
30
51
120
0
ARC
8
0
10
281.5113605
20
-110.1343594
40
0.2
50
120
51
210
0
ARC
8
0
10
283.1113605
20
-112.9056406
40
0.2
50
210
51
300
0
ARC
8
0
10
285.4496291
20
-111.5556406
40
0.2
50
300
51
30
0
LINE
8
0
10
300.1
20
-130.38
11
296.9
21
-130.38
0
LINE
8
0
10
296.7
20
-130.58
11
296.7
21
-133.28
0
LINE
8
0
10
296.9
20
-133.48
11
300.1
21
-133.48
0
LINE
8
0
10
300.3
20
-133.28
11
300.3
21
-130.58
0
ARC
8
0
10
296.9
20
-130.58
40
0.2
50
90
51
180
0
ARC
8
0
10
296.9
20
-133.28
40
0.2
50
180
51
270
0
ARC
8
0
10
300.1
20
-133.28
40
0.2
50
270
51
0
0
ARC
8
0
10
300.1
20
-130.58
40
0.2
50
0
51
90
0
LINE
8
0
10
311.3771659
20
-146.0084594
11
312.9771659
21
-148.7797406
0
LINE
8
0
10
313.2503709
20
-148.8529457
11
315.5886395
21
-147.5029457
0
LINE
8
0
10
315.6618446
20
-147.2297406
11
314.0618446
21
-144.4584594
0
LINE
8
0
10
313.7886395
20
-144.3852543
11
311.4503709
21
-145.7352543
0
ARC
8
0
10
313.1503709
20
-148.6797406
40
0.2
50
210
51
300
0
ARC
8
0
10
315.4886395
20
-147.3297406
40
0.2
50
300
51
30
0
ARC
8
0
10
313.8886395
20
-144.5584594
40
0.2
50
30
51
120
0
ARC
8
0
10
311.5503709
20
-145.9084594
40
0.2
50
120
51
210
0
LINE
8
0
10
264.1228341
20
-111.4556406
11
262.5228341
21
-108.6843594
0
LINE
8
0
10
262.2496291
20
-108.6111543
11
259.9113605
21
-109.9611543
0
LINE
8
0
10
259.8381554
20
-110.2343594
11
261.4381554
21
-113.0056406
0
LINE
8
0
10
261.7113605
20
-113.0788457
11
264.0496291
21
-111.7288457
0
ARC
8
0
10
262.3496291
20
-108.7843594
40
0.2
50
30
51
120
0
ARC
8
0
10
260.0113605
20
-110.1343594
40
0.2
50
120
51
210
0
ARC
8
0
10
261.6113605
20
-112.9056406
40
0.2
50
210
51
300
0
ARC
8
0
10
263.9496291
20
-111.5556406
40
0.2
50
300
51
30
0
LINE
8
0
10
274.8728341
20
-130.0756406
11
273.2728341
21
-127.3043594
0
LINE
8
0
10
272.9996291
20
-127.2311543
11
270.6613605
21
-128.5811543
0
LINE
8
0
10
270.5881554
20
-128.8543594
11
272.1881554
21
-131.6256406
0
LINE
8
0
10
272.4613605
20
-131.6988457
11
274.7996291
21
-130.3488457
0
ARC
8
0
10
273.0996291
20
-127.4043594
40
0.2
50
30
51
120
0
ARC
8
0
10
270.7613605
20
-128.7543594
40
0.2
50
120
51
210
0
ARC
8
0
10
272.3613605
20
-131.5256406
40
0.2
50
210
51
300
0
ARC
8
0
10
274.6996291
20
-130.1756406
40
0.2
50
300
51
30
0
LINE
8
0
10
286.15
20
-145.7041
11
289.35
21
-145.7041
0
LINE
8
0
10
289.55
20
-145.5041
11
289.55
21
-142.8041
0
LINE
8
0
10
289.35
20
-142.6041
11
286.15
21
-142.6041
0
LINE
8
0
10
285.95
20
-142.8041
11
285.95
21
-145.5041
0
ARC
8
0
10
289.35
20
-145.5041
40
0.2
50
270
51
0
0
ARC
8
0
10
289.35
20
-142.8041
40
0.2
50
0
51
90
0
ARC
8
0
10
286.15
20
-142.8041
40
0.2
50
90
51
180
0
ARC
8
0
10
286.15
20
-145.5041
40
0.2
50
180
51
270
0
ENDSEC
0
EOF