0
SECTION
2
HEADER
9
$INSUNITS
70
4
0
ENDSEC
0
SECTION
2
TABLES
0
TABLE
2
LTYPE
0
LTYPE
72
65
70
64
2
CONTINUOUS
3
______
73
0
40
0
0
ENDTAB
0
TABLE
2
LAYER
0
ENDTAB
0
ENDSEC
0
SECTION
2
ENTITIES
0
LINE
8
0
10
275.3649683
20
-156.936256
11
255.7700301
21
-168.2496547
0
LINE
8
0
10
252.2299699
20
-168.2496547
11
232.6350317
21
-156.936256
0
LINE
8
0
10
229.0949693
20
-156.9362572
11
211.135032
21
-167.3056846
0
LINE
8
0
10
207.5949678
20
-167.3056847
11
189.3649681
21
-156.7803363
0
LINE
8
0
10
187.595
20
-153.7146247
11
187.595
21
-145.0771128
0
LINE
8
0
10
189.3649677
20
-142.0114015
11
196.5750323
21
-137.8485674
0
LINE
8
0
10
198.345
20
-134.7828561
11
198.345
21
-122.6812438
0
LINE
8
0
10
200.1149677
20
-119.6155325
11
207.3250323
21
-115.4526984
0
LINE
8
0
10
209.095
20
-112.3869871
11
209.095
21
-104.0612438
0
LINE
8
0
10
210.8649677
20
-100.9955325
11
218.0750323
21
-96.8326984
0
LINE
8
0
10
219.845
20
-93.7669871
11
219.845
21
-85.4412438
0
LINE
8
0
10
221.6149677
20
-82.3755325
11
228.8250323
21
-78.2126984
0
LINE
8
0
10
230.595
20
-75.1469871
11
230.595
21
-66.3153988
0
LINE
8
0
10
234.135
20
-62.7753988
11
273.865
21
-62.7753988
0
LINE
8
0
10
277.405
20
-66.3153988
11
277.405
21
-75.1469871
0
LINE
8
0
10
279.1749677
20
-78.2126984
11
286.3850323
21
-82.3755325
0
LINE
8
0
10
288.155
20
-85.4412438
11
288.155
21
-93.7669871
0
LINE
8
0
10
289.9249677
20
-96.8326984
11
297.1350323
21
-100.9955325
0
LINE
8
0
10
298.905
20
-104.0612438
11
298.905
21
-112.3869871
0
LINE
8
0
10
300.6749677
20
-115.4526984
11
307.8850323
21
-119.6155325
0
LINE
8
0
10
309.655
20
-122.6812438
11
309.655
21
-134.7828561
0
LINE
8
0
10
311.4249677
20
-137.8485674
11
318.6350323
21
-142.0114015
0
LINE
8
0
10
320.405
20
-145.0771128
11
320.405
21
-153.7146247
0
LINE
8
0
10
318.6350319
20
-156.7803363
11
300.4050322
21
-167.3056847
0
LINE
8
0
10
296.864968
20
-167.3056846
11
278.9050307
21
-156.9362572
0
ARC
8
0
10
254
20
-165.1839422
40
3.54
50
239.9994378
51
300.0005622
0
ARC
8
0
10
230.8650016
20
-160.0019685
40
3.54
50
59.9994378
51
120.0006035
0
ARC
8
0
10
209.3649997
20
-164.2399732
40
3.54
50
239.9994043
51
300.0006035
0
ARC
8
0
10
191.135
20
-153.7146247
40
3.54
50
180
51
239.9994043
0
ARC
8
0
10
191.135
20
-145.0771128
40
3.54
50
120.0006035
51
180
0
ARC
8
0
10
194.805
20
-134.7828561
40
3.54
50
300.0006035
51
0
0
ARC
8
0
10
201.885
20
-122.6812438
40
3.54
50
120.0006035
51
180
0
ARC
8
0
10
205.555
20
-112.3869871
40
3.54
50
300.0006035
51
0
0
ARC
8
0
10
212.635
20
-104.0612438
40
3.54
50
120.0006035
51
180
0
ARC
8
0
10
216.305
20
-93.7669871
40
3.54
50
300.0006035
51
0
0
ARC
8
0
10
223.385
20
-85.4412438
40
3.54
50
120.0006035
51
180
0
ARC
8
0
10
227.055
20
-75.1469871
40
3.54
50
300.0006035
51
0
0
ARC
8
0
10
234.135
20
-66.3153988
40
3.54
50
90
51
180
0
ARC
8
0
10
273.865
20
-66.3153988
40
3.54
50
0
51
90
0
ARC
8
0
10
280.945
20
-75.1469871
40
3.54
50
180
51
239.9993965
0
ARC
8
0
10
284.615
20
-85.4412438
40
3.54
50
0
51
59.9993965
0
ARC
8
0
10
291.695
20
-93.7669871
40
3.54
50
180
51
239.9993965
0
ARC
8
0
10
295.365
20
-104.0612438
40
3.54
50
0
51
59.9993965
0
ARC
8
0
10
302.445
20
-112.3869871
40
3.54
50
180
51
239.9993965
0
ARC
8
0
10
306.115
20
-122.6812438
40
3.54
50
0
51
59.9993965
0
ARC
8
0
10
313.195
20
-134.7828561
40
3.54
50
180
51
239.9993965
0
ARC
8
0
10
316.865
20
-145.0771128
40
3.54
50
0
51
59.9993965
0
ARC
8
0
10
316.865
20
-153.7146247
40
3.54
50
300.0005957
51
0
0
ARC
8
0
10
298.6350003
20
-164.2399732
40
3.54
50
239.9993965
51
300.0005957
0
ARC
8
0
10
277.1349984
20
-160.0019685
40
3.54
50
59.9993965
51
120.0005622
0
ENDSEC
0
EOF