0
SECTION
2
HEADER
9
$INSUNITS
70
4
0
ENDSEC
0
SECTION
2
TABLES
0
TABLE
2
LTYPE
0
LTYPE
72
65
70
64
2
CONTINUOUS
3
______
73
0
40
0
0
ENDTAB
0
TABLE
2
LAYER
0
ENDTAB
0
ENDSEC
0
SECTION
2
ENTITIES
0
LINE
8
0
10
230.96
20
-154.6037202
11
230.96
21
-140.833594
0
LINE
8
0
10
230.96
20
-154.6037202
11
221.8450304
21
-159.8663786
0
LINE
8
0
10
197.3449702
20
-160.0222635
11
189.7299726
21
-155.6256355
0
LINE
8
0
10
188.23
20
-153.0275751
11
188.23
21
-144.0783017
0
LINE
8
0
10
189.7299733
20
-141.4802409
11
197.7500267
21
-136.8497509
0
LINE
8
0
10
199.25
20
-134.2516901
11
199.25
21
-122.6812477
0
LINE
8
0
10
200.7499726
20
-120.0831873
11
208.5000274
21
-115.608582
0
LINE
8
0
10
210
20
-113.0105216
11
210
21
-104.0612477
0
LINE
8
0
10
211.4999726
20
-101.4631873
11
219.2500274
21
-96.988582
0
LINE
8
0
10
220.75
20
-94.3905216
11
220.75
21
-85.4412477
0
LINE
8
0
10
222.2499726
20
-82.8431873
11
230.0000274
21
-78.368582
0
LINE
8
0
10
277.9999726
20
-78.368582
11
285.7500274
21
-82.8431873
0
LINE
8
0
10
287.25
20
-85.4412477
11
287.25
21
-94.3905216
0
LINE
8
0
10
288.7499726
20
-96.988582
11
296.5000274
21
-101.4631873
0
LINE
8
0
10
298
20
-104.0612477
11
298
21
-113.0105216
0
LINE
8
0
10
299.4999726
20
-115.608582
11
307.2500274
21
-120.0831873
0
LINE
8
0
10
308.75
20
-122.6812477
11
308.75
21
-134.2516901
0
LINE
8
0
10
310.2499733
20
-136.8497509
11
318.2700267
21
-141.4802409
0
LINE
8
0
10
319.77
20
-144.0783017
11
319.77
21
-153.0275751
0
LINE
8
0
10
318.2700274
20
-155.6256355
11
310.6550298
21
-160.0222635
0
LINE
8
0
10
286.1549696
20
-159.8663786
11
277.04
21
-154.6037202
0
LINE
8
0
10
277.04
20
-154.6037202
11
277.04
21
-140.833594
0
ARC
8
0
10
191.23
20
-153.0275751
40
3
50
180
51
239.9993965
0
ARC
8
0
10
191.23
20
-144.0783017
40
3
50
120.0005878
51
180
0
ARC
8
0
10
196.25
20
-134.2516901
40
3
50
300.0005878
51
0
0
ARC
8
0
10
202.25
20
-122.6812477
40
3
50
120.0006035
51
180
0
ARC
8
0
10
207
20
-113.0105216
40
3
50
300.0006035
51
0
0
ARC
8
0
10
213
20
-104.0612477
40
3
50
120.0006035
51
180
0
ARC
8
0
10
217.75
20
-94.3905216
40
3
50
300.0006035
51
0
0
ARC
8
0
10
223.75
20
-85.4412477
40
3
50
120.0006035
51
180
0
ARC
8
0
10
228.5
20
-75.7705216
40
3
50
300.0006035
51
325.2231556
0
ARC
8
0
10
279.5
20
-75.7705216
40
3
50
214.7768444
51
239.9993965
0
ARC
8
0
10
284.25
20
-85.4412477
40
3
50
0
51
59.9993965
0
ARC
8
0
10
290.25
20
-94.3905216
40
3
50
180
51
239.9993965
0
ARC
8
0
10
295
20
-104.0612477
40
3
50
0
51
59.9993965
0
ARC
8
0
10
301
20
-113.0105216
40
3
50
180
51
239.9993965
0
ARC
8
0
10
305.75
20
-122.6812477
40
3
50
0
51
59.9993965
0
ARC
8
0
10
311.75
20
-134.2516901
40
3
50
180
51
239.9994122
0
ARC
8
0
10
316.77
20
-144.0783017
40
3
50
0
51
59.9994122
0
ARC
8
0
10
316.77
20
-153.0275751
40
3
50
300.0006035
51
0
0
LINE
8
0
10
232.4599726
20
-138.2355336
11
240.2100274
21
-133.7609283
0
LINE
8
0
10
241.71
20
-131.1628679
11
241.71
21
-122.2135967
0
LINE
8
0
10
243.209976
20
-119.6155343
11
252.499976
21
-114.2518363
0
LINE
8
0
10
255.500024
20
-114.2518363
11
264.790024
21
-119.6155343
0
LINE
8
0
10
266.29
20
-122.2135967
11
266.29
21
-131.1628679
0
LINE
8
0
10
267.7899726
20
-133.7609283
11
275.5400274
21
-138.2355336
0
ARC
8
0
10
274.04
20
-140.833594
40
3
50
0
51
59.9993965
0
ARC
8
0
10
269.29
20
-131.1628679
40
3
50
180
51
239.9993965
0
ARC
8
0
10
263.29
20
-122.2135967
40
3
50
0
51
59.9994712
0
ARC
8
0
10
254
20
-116.8498986
40
3
50
59.9994712
51
120.0005288
0
ARC
8
0
10
244.71
20
-122.2135967
40
3
50
120.0005288
51
180
0
ARC
8
0
10
238.71
20
-131.1628679
40
3
50
300.0006035
51
0
0
ARC
8
0
10
233.96
20
-140.833594
40
3
50
120.0006035
51
180
0
LINE
8
0
10
230.9641394
20
-77.4816666
11
244.57
21
-77.4816666
0
LINE
8
0
10
263.43
20
-77.4816666
11
277.0358606
21
-77.4816666
0
LINE
8
0
10
200.6150298
20
-160.0222635
11
208.0949696
21
-155.703613
0
LINE
8
0
10
211.3650302
20
-155.7036134
11
218.5749698
21
-159.8663782
0
LINE
8
0
10
289.4250302
20
-159.8663782
11
296.6349698
21
-155.7036134
0
LINE
8
0
10
299.9050304
20
-155.703613
11
307.3849702
21
-160.0222635
0
ARC
8
0
10
220.2100006
20
-157.0344928
40
3.27
50
239.9993788
51
300.0006035
0
ARC
8
0
10
209.7299994
20
-158.5354988
40
3.27
50
59.9993788
51
120.0006035
0
ARC
8
0
10
198.98
20
-157.1903776
40
3.27
50
239.9993965
51
300.0006035
0
ARC
8
0
10
309.02
20
-157.1903776
40
3.27
50
239.9993965
51
300.0006035
0
ARC
8
0
10
298.2700006
20
-158.5354988
40
3.27
50
59.9993965
51
120.0006212
0
ARC
8
0
10
287.7899994
20
-157.0344928
40
3.27
50
239.9993965
51
300.0006212
0
LINE
8
0
10
233.3146788
20
-87.1707695
11
234.5146788
21
-89.2492305
0
LINE
8
0
10
235.0610889
20
-89.3956406
11
237.1395499
21
-88.1956406
0
LINE
8
0
10
237.28596
20
-87.6492305
11
236.08596
21
-85.5707695
0
LINE
8
0
10
235.5395499
20
-85.4243594
11
233.4610889
21
-86.6243594
0
ARC
8
0
10
234.8610889
20
-89.0492305
40
0.4
50
210
51
300
0
ARC
8
0
10
236.9395499
20
-87.8492305
40
0.4
50
300
51
30
0
ARC
8
0
10
235.7395499
20
-85.7707695
40
0.4
50
30
51
120
0
ARC
8
0
10
233.6610889
20
-86.9707695
40
0.4
50
120
51
210
0
LINE
8
0
10
244.0646788
20
-105.7907695
11
245.2646788
21
-107.8692305
0
LINE
8
0
10
245.8110889
20
-108.0156406
11
247.8895499
21
-106.8156406
0
LINE
8
0
10
248.03596
20
-106.2692305
11
246.83596
21
-104.1907695
0
LINE
8
0
10
246.2895499
20
-104.0443594
11
244.2110889
21
-105.2443594
0
ARC
8
0
10
245.6110889
20
-107.6692305
40
0.4
50
210
51
300
0
ARC
8
0
10
247.6895499
20
-106.4692305
40
0.4
50
300
51
30
0
ARC
8
0
10
246.4895499
20
-104.3907695
40
0.4
50
30
51
120
0
ARC
8
0
10
244.4110889
20
-105.5907695
40
0.4
50
120
51
210
0
LINE
8
0
10
223.7646788
20
-108.8907695
11
222.5646788
21
-110.9692305
0
LINE
8
0
10
222.7110889
20
-111.5156406
11
224.7895499
21
-112.7156406
0
LINE
8
0
10
225.33596
20
-112.5692305
11
226.53596
21
-110.4907695
0
LINE
8
0
10
226.3895499
20
-109.9443594
11
224.3110889
21
-108.7443594
0
ARC
8
0
10
222.9110889
20
-111.1692305
40
0.4
50
150
51
240
0
ARC
8
0
10
224.9895499
20
-112.3692305
40
0.4
50
240
51
330
0
ARC
8
0
10
226.1895499
20
-110.2907695
40
0.4
50
330
51
60
0
ARC
8
0
10
224.1110889
20
-109.0907695
40
0.4
50
60
51
150
0
LINE
8
0
10
234.5146788
20
-127.5107695
11
233.3146788
21
-129.5892305
0
LINE
8
0
10
233.4610889
20
-130.1356406
11
235.5395499
21
-131.3356406
0
LINE
8
0
10
236.08596
20
-131.1892305
11
237.28596
21
-129.1107695
0
LINE
8
0
10
237.1395499
20
-128.5643594
11
235.0610889
21
-127.3643594
0
ARC
8
0
10
233.6610889
20
-129.7892305
40
0.4
50
150
51
240
0
ARC
8
0
10
235.7395499
20
-130.9892305
40
0.4
50
240
51
330
0
ARC
8
0
10
236.9395499
20
-128.9107695
40
0.4
50
330
51
60
0
ARC
8
0
10
234.8610889
20
-127.7107695
40
0.4
50
60
51
150
0
LINE
8
0
10
210.93
20
-130.1
11
208.53
21
-130.1
0
LINE
8
0
10
208.13
20
-130.5
11
208.13
21
-132.9
0
LINE
8
0
10
208.53
20
-133.3
11
210.93
21
-133.3
0
LINE
8
0
10
211.33
20
-132.9
11
211.33
21
-130.5
0
ARC
8
0
10
208.53
20
-130.5
40
0.4
50
90
51
180
0
ARC
8
0
10
208.53
20
-132.9
40
0.4
50
180
51
270
0
ARC
8
0
10
210.93
20
-132.9
40
0.4
50
270
51
0
0
ARC
8
0
10
210.93
20
-130.5
40
0.4
50
0
51
90
0
LINE
8
0
10
219.28
20
-145.452938
11
221.68
21
-145.452938
0
LINE
8
0
10
222.08
20
-145.052938
11
222.08
21
-142.652938
0
LINE
8
0
10
221.68
20
-142.252938
11
219.28
21
-142.252938
0
LINE
8
0
10
218.88
20
-142.652938
11
218.88
21
-145.052938
0
ARC
8
0
10
221.68
20
-145.052938
40
0.4
50
270
51
0
0
ARC
8
0
10
221.68
20
-142.652938
40
0.4
50
0
51
90
0
ARC
8
0
10
219.28
20
-142.652938
40
0.4
50
90
51
180
0
ARC
8
0
10
219.28
20
-145.052938
40
0.4
50
180
51
270
0
LINE
8
0
10
195.6953212
20
-148.0421685
11
196.8953212
21
-145.9637075
0
LINE
8
0
10
196.7489111
20
-145.4172974
11
194.6704501
21
-144.2172974
0
LINE
8
0
10
194.12404
20
-144.3637075
11
192.92404
21
-146.4421685
0
LINE
8
0
10
193.0704501
20
-146.9885786
11
195.1489111
21
-148.1885786
0
ARC
8
0
10
196.5489111
20
-145.7637075
40
0.4
50
330
51
60
0
ARC
8
0
10
194.4704501
20
-144.5637075
40
0.4
50
60
51
150
0
ARC
8
0
10
193.2704501
20
-146.6421685
40
0.4
50
150
51
240
0
ARC
8
0
10
195.3489111
20
-147.8421685
40
0.4
50
240
51
330
0
LINE
8
0
10
273.4853212
20
-89.2492305
11
274.6853212
21
-87.1707695
0
LINE
8
0
10
274.5389111
20
-86.6243594
11
272.4604501
21
-85.4243594
0
LINE
8
0
10
271.91404
20
-85.5707695
11
270.71404
21
-87.6492305
0
LINE
8
0
10
270.8604501
20
-88.1956406
11
272.9389111
21
-89.3956406
0
ARC
8
0
10
274.3389111
20
-86.9707695
40
0.4
50
330
51
60
0
ARC
8
0
10
272.2604501
20
-85.7707695
40
0.4
50
60
51
150
0
ARC
8
0
10
271.0604501
20
-87.8492305
40
0.4
50
150
51
240
0
ARC
8
0
10
273.1389111
20
-89.0492305
40
0.4
50
240
51
330
0
LINE
8
0
10
262.7353212
20
-107.8692305
11
263.9353212
21
-105.7907695
0
LINE
8
0
10
263.7889111
20
-105.2443594
11
261.7104501
21
-104.0443594
0
LINE
8
0
10
261.16404
20
-104.1907695
11
259.96404
21
-106.2692305
0
LINE
8
0
10
260.1104501
20
-106.8156406
11
262.1889111
21
-108.0156406
0
ARC
8
0
10
263.5889111
20
-105.5907695
40
0.4
50
330
51
60
0
ARC
8
0
10
261.5104501
20
-104.3907695
40
0.4
50
60
51
150
0
ARC
8
0
10
260.3104501
20
-106.4692305
40
0.4
50
150
51
240
0
ARC
8
0
10
262.3889111
20
-107.6692305
40
0.4
50
240
51
330
0
LINE
8
0
10
285.4353212
20
-110.9692305
11
284.2353212
21
-108.8907695
0
LINE
8
0
10
283.6889111
20
-108.7443594
11
281.6104501
21
-109.9443594
0
LINE
8
0
10
281.46404
20
-110.4907695
11
282.66404
21
-112.5692305
0
LINE
8
0
10
283.2104501
20
-112.7156406
11
285.2889111
21
-111.5156406
0
ARC
8
0
10
283.8889111
20
-109.0907695
40
0.4
50
30
51
120
0
ARC
8
0
10
281.8104501
20
-110.2907695
40
0.4
50
120
51
210
0
ARC
8
0
10
283.0104501
20
-112.3692305
40
0.4
50
210
51
300
0
ARC
8
0
10
285.0889111
20
-111.1692305
40
0.4
50
300
51
30
0
LINE
8
0
10
274.6853212
20
-129.5892305
11
273.4853212
21
-127.5107695
0
LINE
8
0
10
272.9389111
20
-127.3643594
11
270.8604501
21
-128.5643594
0
LINE
8
0
10
270.71404
20
-129.1107695
11
271.91404
21
-131.1892305
0
LINE
8
0
10
272.4604501
20
-131.3356406
11
274.5389111
21
-130.1356406
0
ARC
8
0
10
273.1389111
20
-127.7107695
40
0.4
50
30
51
120
0
ARC
8
0
10
271.0604501
20
-128.9107695
40
0.4
50
120
51
210
0
ARC
8
0
10
272.2604501
20
-130.9892305
40
0.4
50
210
51
300
0
ARC
8
0
10
274.3389111
20
-129.7892305
40
0.4
50
300
51
30
0
LINE
8
0
10
299.47
20
-130.1
11
297.07
21
-130.1
0
LINE
8
0
10
296.67
20
-130.5
11
296.67
21
-132.9
0
LINE
8
0
10
297.07
20
-133.3
11
299.47
21
-133.3
0
LINE
8
0
10
299.87
20
-132.9
11
299.87
21
-130.5
0
ARC
8
0
10
297.07
20
-130.5
40
0.4
50
90
51
180
0
ARC
8
0
10
297.07
20
-132.9
40
0.4
50
180
51
270
0
ARC
8
0
10
299.47
20
-132.9
40
0.4
50
270
51
0
0
ARC
8
0
10
299.47
20
-130.5
40
0.4
50
0
51
90
0
LINE
8
0
10
286.32
20
-145.452938
11
288.72
21
-145.452938
0
LINE
8
0
10
289.12
20
-145.052938
11
289.12
21
-142.652938
0
LINE
8
0
10
288.72
20
-142.252938
11
286.32
21
-142.252938
0
LINE
8
0
10
285.92
20
-142.652938
11
285.92
21
-145.052938
0
ARC
8
0
10
288.72
20
-145.052938
40
0.4
50
270
51
0
0
ARC
8
0
10
288.72
20
-142.652938
40
0.4
50
0
51
90
0
ARC
8
0
10
286.32
20
-142.652938
40
0.4
50
90
51
180
0
ARC
8
0
10
286.32
20
-145.052938
40
0.4
50
180
51
270
0
LINE
8
0
10
311.1046788
20
-145.9637075
11
312.3046788
21
-148.0421685
0
LINE
8
0
10
312.8510889
20
-148.1885786
11
314.9295499
21
-146.9885786
0
LINE
8
0
10
315.07596
20
-146.4421685
11
313.87596
21
-144.3637075
0
LINE
8
0
10
313.3295499
20
-144.2172974
11
311.2510889
21
-145.4172974
0
ARC
8
0
10
312.6510889
20
-147.8421685
40
0.4
50
210
51
300
0
ARC
8
0
10
314.7295499
20
-146.6421685
40
0.4
50
300
51
30
0
ARC
8
0
10
313.5295499
20
-144.5637075
40
0.4
50
30
51
120
0
ARC
8
0
10
311.4510889
20
-145.7637075
40
0.4
50
120
51
210
0
LINE
8
0
10
245.11
20
-97.0268643
11
262.89
21
-97.0268643
0
LINE
8
0
10
263.43
20
-96.4868643
11
263.43
21
-77.4816666
0
LINE
8
0
10
244.57
20
-77.4816666
11
244.57
21
-96.4868643
0
ARC
8
0
10
262.89
20
-96.4868643
40
0.54
50
270
51
0
0
ARC
8
0
10
245.11
20
-96.4868643
40
0.54
50
180
51
270
0
ENDSEC
0
EOF