0
SECTION
2
HEADER
9
$INSUNITS
70
4
0
ENDSEC
0
SECTION
2
TABLES
0
TABLE
2
LTYPE
0
LTYPE
72
65
70
64
2
CONTINUOUS
3
______
73
0
40
0
0
ENDTAB
0
TABLE
2
LAYER
0
ENDTAB
0
ENDSEC
0
SECTION
2
ENTITIES
0
LINE
8
0
10
232.5
20
-133.96
11
275.5
21
-133.96
0
LINE
8
0
10
265.75
20
-122.46
11
265.75
21
-116.21
0
LINE
8
0
10
264.75
20
-115.21
11
243.25
21
-115.21
0
LINE
8
0
10
242.25
20
-116.21
11
242.25
21
-122.46
0
LINE
8
0
10
276.5
20
-132.96
11
276.5
21
-124.46
0
LINE
8
0
10
275.5
20
-123.46
11
266.75
21
-123.46
0
LINE
8
0
10
241.25
20
-123.46
11
232.5
21
-123.46
0
LINE
8
0
10
231.5
20
-124.46
11
231.5
21
-132.96
0
ARC
8
0
10
275.5
20
-132.96
40
1
50
270
51
0
0
ARC
8
0
10
275.5
20
-124.46
40
1
50
0
51
90
0
ARC
8
0
10
266.75
20
-122.46
40
1
50
180
51
270
0
ARC
8
0
10
264.75
20
-116.21
40
1
50
0
51
90
0
ARC
8
0
10
243.25
20
-116.21
40
1
50
90
51
180
0
ARC
8
0
10
241.25
20
-122.46
40
1
50
270
51
0
0
ARC
8
0
10
232.5
20
-124.46
40
1
50
90
51
180
0
ARC
8
0
10
232.5
20
-132.96
40
1
50
180
51
270
0
LINE
8
0
10
249.7
20
-132.96
11
258.3
21
-132.96
0
LINE
8
0
10
258.3
20
-132.96
11
258.3
21
-116.76
0
LINE
8
0
10
258.3
20
-116.76
11
249.7
21
-116.76
0
LINE
8
0
10
249.7
20
-116.76
11
249.7
21
-132.96
0
ENDSEC
0
EOF