  0
SECTION
  2
HEADER
  9
$ANGBASE
  50
0.0
  9
$ANGDIR
  70
1
  9
$MEASUREMENT
  70
1
  0
ENDSEC
  0
SECTION
  2
TABLES
  0
TABLE
  2
LTYPE
  70
4
  0
LTYPE
  5
40F
  2
CONTINUOUS
  70
0
  3
Solid line
  72
65
  73
0
  40
0.0
  0
LTYPE
  5
410
  2
DASHDOT
 70
0
  3
Dash Dot ____ _ ____ _
 72
65
 73
4
 40
2.0
 49
1.25
 49
-0.25
 49
0.25
 49
-0.25
  0
LTYPE
  5
411
  2
DASHED
 70
0
  3
Dashed __ __ __ __ __
 72
65
 73
2
 40
0.75
 49
0.5
 49
-0.25
  0
LTYPE
  5
43B
  2
DOTTED
 70
0
  3
Dotted .  .  .  .
 72
65
 73
2
 40
0.2
 49
0.0
 49
-0.2
  0
ENDTAB
  0
TABLE
  2
STYLE
  70
4
  0
STYLE
  2
KICAD
  70
0
  40
0
  41
1
  42
1
  50
0
  71
0
  3
isocp.shx
  0
STYLE
  2
KICADB
  70
0
  40
0
  41
1
  42
1
  50
0
  71
0
  3
isocp.shx
  0
STYLE
  2
KICADI
  70
0
  40
0
  41
1
  42
1
  50
15
  71
0
  3
isocp.shx
  0
STYLE
  2
KICADBI
  70
0
  40
0
  41
1
  42
1
  50
15
  71
0
  3
isocp.shx
  0
ENDTAB
  0
TABLE
  2
LAYER
  70
1
  0
LAYER
  2
BLACK
  70
0
  62
7
  6
CONTINUOUS
  0
ENDTAB
  0
ENDSEC
  0
SECTION
  2
ENTITIES
0
LINE
8
BLACK
6
CONTINUOUS
10
264.182
20
-119.439
11
264.193
21
-119.441
0
LINE
8
BLACK
6
CONTINUOUS
10
264.193
20
-119.441
11
266.733
21
-121.091
0
LINE
8
BLACK
6
CONTINUOUS
10
266.733
20
-121.091
11
266.736
21
-121.096
0
LINE
8
BLACK
6
CONTINUOUS
10
266.736
20
-121.096
11
266.742
21
-121.099
0
LINE
8
BLACK
6
CONTINUOUS
10
266.742
20
-121.099
11
266.749
21
-121.114
0
LINE
8
BLACK
6
CONTINUOUS
10
266.749
20
-121.114
11
266.759
21
-121.129
0
LINE
8
BLACK
6
CONTINUOUS
10
266.759
20
-121.129
11
266.757
21
-121.135
0
LINE
8
BLACK
6
CONTINUOUS
10
266.757
20
-121.135
11
266.76
21
-121.141
0
LINE
8
BLACK
6
CONTINUOUS
10
266.76
20
-121.141
11
266.76
21
-127.191
0
LINE
8
BLACK
6
CONTINUOUS
10
266.76
20
-127.191
11
266.757
21
-127.199
0
LINE
8
BLACK
6
CONTINUOUS
10
266.757
20
-127.199
11
266.758
21
-127.208
0
LINE
8
BLACK
6
CONTINUOUS
10
266.758
20
-127.208
11
266.748
21
-127.22
0
LINE
8
BLACK
6
CONTINUOUS
10
266.748
20
-127.22
11
266.742
21
-127.233
0
LINE
8
BLACK
6
CONTINUOUS
10
266.742
20
-127.233
11
266.734
21
-127.237
0
LINE
8
BLACK
6
CONTINUOUS
10
266.734
20
-127.237
11
266.729
21
-127.244
0
LINE
8
BLACK
6
CONTINUOUS
10
266.729
20
-127.244
11
261.68
21
-129.977
0
LINE
8
BLACK
6
CONTINUOUS
10
261.68
20
-129.977
11
261.68
21
-131.591
0
LINE
8
BLACK
6
CONTINUOUS
10
261.68
20
-131.591
11
261.677
21
-131.598
0
LINE
8
BLACK
6
CONTINUOUS
10
261.677
20
-131.598
11
261.678
21
-131.606
0
LINE
8
BLACK
6
CONTINUOUS
10
261.678
20
-131.606
11
261.669
21
-131.619
0
LINE
8
BLACK
6
CONTINUOUS
10
261.669
20
-131.619
11
261.662
21
-131.633
0
LINE
8
BLACK
6
CONTINUOUS
10
261.662
20
-131.633
11
261.655
21
-131.636
0
LINE
8
BLACK
6
CONTINUOUS
10
261.655
20
-131.636
11
261.651
21
-131.643
0
LINE
8
BLACK
6
CONTINUOUS
10
261.651
20
-131.643
11
256.571
21
-134.668
0
LINE
8
BLACK
6
CONTINUOUS
10
256.571
20
-134.668
11
256.561
21
-134.669
0
LINE
8
BLACK
6
CONTINUOUS
10
256.561
20
-134.669
11
256.552
21
-134.675
0
LINE
8
BLACK
6
CONTINUOUS
10
256.552
20
-134.675
11
256.539
21
-134.672
0
LINE
8
BLACK
6
CONTINUOUS
10
256.539
20
-134.672
11
256.525
21
-134.674
0
LINE
8
BLACK
6
CONTINUOUS
10
256.525
20
-134.674
11
256.517
21
-134.668
0
LINE
8
BLACK
6
CONTINUOUS
10
256.517
20
-134.668
11
256.507
21
-134.666
0
LINE
8
BLACK
6
CONTINUOUS
10
256.507
20
-134.666
11
254
21
-133.038
0
LINE
8
BLACK
6
CONTINUOUS
10
254
20
-133.038
11
251.493
21
-134.666
0
LINE
8
BLACK
6
CONTINUOUS
10
251.493
20
-134.666
11
251.483
21
-134.668
0
LINE
8
BLACK
6
CONTINUOUS
10
251.483
20
-134.668
11
251.475
21
-134.674
0
LINE
8
BLACK
6
CONTINUOUS
10
251.475
20
-134.674
11
251.461
21
-134.672
0
LINE
8
BLACK
6
CONTINUOUS
10
251.461
20
-134.672
11
251.448
21
-134.675
0
LINE
8
BLACK
6
CONTINUOUS
10
251.448
20
-134.675
11
251.439
21
-134.669
0
LINE
8
BLACK
6
CONTINUOUS
10
251.439
20
-134.669
11
251.429
21
-134.668
0
LINE
8
BLACK
6
CONTINUOUS
10
251.429
20
-134.668
11
246.349
21
-131.643
0
LINE
8
BLACK
6
CONTINUOUS
10
246.349
20
-131.643
11
246.345
21
-131.636
0
LINE
8
BLACK
6
CONTINUOUS
10
246.345
20
-131.636
11
246.338
21
-131.633
0
LINE
8
BLACK
6
CONTINUOUS
10
246.338
20
-131.633
11
246.331
21
-131.619
0
LINE
8
BLACK
6
CONTINUOUS
10
246.331
20
-131.619
11
246.322
21
-131.606
0
LINE
8
BLACK
6
CONTINUOUS
10
246.322
20
-131.606
11
246.323
21
-131.598
0
LINE
8
BLACK
6
CONTINUOUS
10
246.323
20
-131.598
11
246.32
21
-131.591
0
LINE
8
BLACK
6
CONTINUOUS
10
246.32
20
-131.591
11
246.32
21
-129.977
0
LINE
8
BLACK
6
CONTINUOUS
10
246.32
20
-129.977
11
241.271
21
-127.244
0
LINE
8
BLACK
6
CONTINUOUS
10
241.271
20
-127.244
11
241.266
21
-127.237
0
LINE
8
BLACK
6
CONTINUOUS
10
241.266
20
-127.237
11
241.258
21
-127.233
0
LINE
8
BLACK
6
CONTINUOUS
10
241.258
20
-127.233
11
241.252
21
-127.22
0
LINE
8
BLACK
6
CONTINUOUS
10
241.252
20
-127.22
11
241.242
21
-127.208
0
LINE
8
BLACK
6
CONTINUOUS
10
241.242
20
-127.208
11
241.243
21
-127.199
0
LINE
8
BLACK
6
CONTINUOUS
10
241.243
20
-127.199
11
241.24
21
-127.191
0
LINE
8
BLACK
6
CONTINUOUS
10
241.24
20
-127.191
11
241.24
21
-121.141
0
LINE
8
BLACK
6
CONTINUOUS
10
241.24
20
-121.141
11
241.243
21
-121.135
0
LINE
8
BLACK
6
CONTINUOUS
10
241.243
20
-121.135
11
241.241
21
-121.129
0
LINE
8
BLACK
6
CONTINUOUS
10
241.241
20
-121.129
11
241.251
21
-121.114
0
LINE
8
BLACK
6
CONTINUOUS
10
241.251
20
-121.114
11
241.258
21
-121.099
0
LINE
8
BLACK
6
CONTINUOUS
10
241.258
20
-121.099
11
241.264
21
-121.096
0
LINE
8
BLACK
6
CONTINUOUS
10
241.264
20
-121.096
11
241.267
21
-121.091
0
LINE
8
BLACK
6
CONTINUOUS
10
241.267
20
-121.091
11
243.807
21
-119.441
0
LINE
8
BLACK
6
CONTINUOUS
10
243.807
20
-119.441
11
243.818
21
-119.439
0
LINE
8
BLACK
6
CONTINUOUS
10
243.818
20
-119.439
11
243.828
21
-119.432
0
LINE
8
BLACK
6
CONTINUOUS
10
243.828
20
-119.432
11
243.84
21
-119.435
0
LINE
8
BLACK
6
CONTINUOUS
10
243.84
20
-119.435
11
243.852
21
-119.432
0
LINE
8
BLACK
6
CONTINUOUS
10
243.852
20
-119.432
11
243.862
21
-119.439
0
LINE
8
BLACK
6
CONTINUOUS
10
243.862
20
-119.439
11
243.873
21
-119.441
0
LINE
8
BLACK
6
CONTINUOUS
10
243.873
20
-119.441
11
246.38
21
-121.069
0
LINE
8
BLACK
6
CONTINUOUS
10
246.38
20
-121.069
11
248.887
21
-119.441
0
LINE
8
BLACK
6
CONTINUOUS
10
248.887
20
-119.441
11
248.898
21
-119.439
0
LINE
8
BLACK
6
CONTINUOUS
10
248.898
20
-119.439
11
248.908
21
-119.432
0
LINE
8
BLACK
6
CONTINUOUS
10
248.908
20
-119.432
11
248.92
21
-119.435
0
LINE
8
BLACK
6
CONTINUOUS
10
248.92
20
-119.435
11
248.932
21
-119.432
0
LINE
8
BLACK
6
CONTINUOUS
10
248.932
20
-119.432
11
248.942
21
-119.439
0
LINE
8
BLACK
6
CONTINUOUS
10
248.942
20
-119.439
11
248.953
21
-119.441
0
LINE
8
BLACK
6
CONTINUOUS
10
248.953
20
-119.441
11
251.478
21
-121.081
0
LINE
8
BLACK
6
CONTINUOUS
10
251.478
20
-121.081
11
256.522
21
-121.081
0
LINE
8
BLACK
6
CONTINUOUS
10
256.522
20
-121.081
11
259.047
21
-119.441
0
LINE
8
BLACK
6
CONTINUOUS
10
259.047
20
-119.441
11
259.058
21
-119.439
0
LINE
8
BLACK
6
CONTINUOUS
10
259.058
20
-119.439
11
259.068
21
-119.432
0
LINE
8
BLACK
6
CONTINUOUS
10
259.068
20
-119.432
11
259.08
21
-119.435
0
LINE
8
BLACK
6
CONTINUOUS
10
259.08
20
-119.435
11
259.092
21
-119.432
0
LINE
8
BLACK
6
CONTINUOUS
10
259.092
20
-119.432
11
259.102
21
-119.439
0
LINE
8
BLACK
6
CONTINUOUS
10
259.102
20
-119.439
11
259.113
21
-119.441
0
LINE
8
BLACK
6
CONTINUOUS
10
259.113
20
-119.441
11
261.62
21
-121.069
0
LINE
8
BLACK
6
CONTINUOUS
10
261.62
20
-121.069
11
264.127
21
-119.441
0
LINE
8
BLACK
6
CONTINUOUS
10
264.127
20
-119.441
11
264.138
21
-119.439
0
LINE
8
BLACK
6
CONTINUOUS
10
264.138
20
-119.439
11
264.148
21
-119.432
0
LINE
8
BLACK
6
CONTINUOUS
10
264.148
20
-119.432
11
264.16
21
-119.435
0
LINE
8
BLACK
6
CONTINUOUS
10
264.16
20
-119.435
11
264.172
21
-119.432
0
LINE
8
BLACK
6
CONTINUOUS
10
264.172
20
-119.432
11
264.182
21
-119.439
0
LINE
8
BLACK
6
CONTINUOUS
10
261.653
20
-121.191
11
261.642
21
-121.193
0
LINE
8
BLACK
6
CONTINUOUS
10
261.642
20
-121.193
11
261.632
21
-121.2
0
LINE
8
BLACK
6
CONTINUOUS
10
261.632
20
-121.2
11
261.62
21
-121.197
0
LINE
8
BLACK
6
CONTINUOUS
10
261.62
20
-121.197
11
261.608
21
-121.2
0
LINE
8
BLACK
6
CONTINUOUS
10
261.608
20
-121.2
11
261.598
21
-121.193
0
LINE
8
BLACK
6
CONTINUOUS
10
261.598
20
-121.193
11
261.587
21
-121.191
0
LINE
8
BLACK
6
CONTINUOUS
10
261.587
20
-121.191
11
259.08
21
-119.563
0
LINE
8
BLACK
6
CONTINUOUS
10
259.08
20
-119.563
11
256.573
21
-121.191
0
LINE
8
BLACK
6
CONTINUOUS
10
256.573
20
-121.191
11
256.556
21
-121.194
0
LINE
8
BLACK
6
CONTINUOUS
10
256.556
20
-121.194
11
256.54
21
-121.201
0
LINE
8
BLACK
6
CONTINUOUS
10
256.54
20
-121.201
11
251.46
21
-121.201
0
LINE
8
BLACK
6
CONTINUOUS
10
251.46
20
-121.201
11
251.444
21
-121.194
0
LINE
8
BLACK
6
CONTINUOUS
10
251.444
20
-121.194
11
251.427
21
-121.191
0
LINE
8
BLACK
6
CONTINUOUS
10
251.427
20
-121.191
11
248.92
21
-119.563
0
LINE
8
BLACK
6
CONTINUOUS
10
248.92
20
-119.563
11
246.413
21
-121.191
0
LINE
8
BLACK
6
CONTINUOUS
10
246.413
20
-121.191
11
246.402
21
-121.193
0
LINE
8
BLACK
6
CONTINUOUS
10
246.402
20
-121.193
11
246.392
21
-121.2
0
LINE
8
BLACK
6
CONTINUOUS
10
246.392
20
-121.2
11
246.38
21
-121.197
0
LINE
8
BLACK
6
CONTINUOUS
10
246.38
20
-121.197
11
246.368
21
-121.2
0
LINE
8
BLACK
6
CONTINUOUS
10
246.368
20
-121.2
11
246.358
21
-121.193
0
LINE
8
BLACK
6
CONTINUOUS
10
246.358
20
-121.193
11
246.347
21
-121.191
0
LINE
8
BLACK
6
CONTINUOUS
10
246.347
20
-121.191
11
243.84
21
-119.563
0
LINE
8
BLACK
6
CONTINUOUS
10
243.84
20
-119.563
11
241.36
21
-121.174
0
LINE
8
BLACK
6
CONTINUOUS
10
241.36
20
-121.174
11
241.36
21
-127.155
0
LINE
8
BLACK
6
CONTINUOUS
10
241.36
20
-127.155
11
246.409
21
-129.888
0
LINE
8
BLACK
6
CONTINUOUS
10
246.409
20
-129.888
11
246.414
21
-129.895
0
LINE
8
BLACK
6
CONTINUOUS
10
246.414
20
-129.895
11
246.422
21
-129.899
0
LINE
8
BLACK
6
CONTINUOUS
10
246.422
20
-129.899
11
246.428
21
-129.912
0
LINE
8
BLACK
6
CONTINUOUS
10
246.428
20
-129.912
11
246.438
21
-129.924
0
LINE
8
BLACK
6
CONTINUOUS
10
246.438
20
-129.924
11
246.437
21
-129.933
0
LINE
8
BLACK
6
CONTINUOUS
10
246.437
20
-129.933
11
246.44
21
-129.941
0
LINE
8
BLACK
6
CONTINUOUS
10
246.44
20
-129.941
11
246.44
21
-131.557
0
LINE
8
BLACK
6
CONTINUOUS
10
246.44
20
-131.557
11
251.459
21
-134.545
0
LINE
8
BLACK
6
CONTINUOUS
10
251.459
20
-134.545
11
253.967
21
-132.916
0
LINE
8
BLACK
6
CONTINUOUS
10
253.967
20
-132.916
11
253.978
21
-132.914
0
LINE
8
BLACK
6
CONTINUOUS
10
253.978
20
-132.914
11
253.988
21
-132.907
0
LINE
8
BLACK
6
CONTINUOUS
10
253.988
20
-132.907
11
254
21
-132.91
0
LINE
8
BLACK
6
CONTINUOUS
10
254
20
-132.91
11
254.012
21
-132.907
0
LINE
8
BLACK
6
CONTINUOUS
10
254.012
20
-132.907
11
254.022
21
-132.914
0
LINE
8
BLACK
6
CONTINUOUS
10
254.022
20
-132.914
11
254.033
21
-132.916
0
LINE
8
BLACK
6
CONTINUOUS
10
254.033
20
-132.916
11
256.541
21
-134.545
0
LINE
8
BLACK
6
CONTINUOUS
10
256.541
20
-134.545
11
261.56
21
-131.557
0
LINE
8
BLACK
6
CONTINUOUS
10
261.56
20
-131.557
11
261.56
21
-129.941
0
LINE
8
BLACK
6
CONTINUOUS
10
261.56
20
-129.941
11
261.563
21
-129.933
0
LINE
8
BLACK
6
CONTINUOUS
10
261.563
20
-129.933
11
261.562
21
-129.924
0
LINE
8
BLACK
6
CONTINUOUS
10
261.562
20
-129.924
11
261.572
21
-129.912
0
LINE
8
BLACK
6
CONTINUOUS
10
261.572
20
-129.912
11
261.578
21
-129.899
0
LINE
8
BLACK
6
CONTINUOUS
10
261.578
20
-129.899
11
261.586
21
-129.895
0
LINE
8
BLACK
6
CONTINUOUS
10
261.586
20
-129.895
11
261.591
21
-129.888
0
LINE
8
BLACK
6
CONTINUOUS
10
261.591
20
-129.888
11
266.64
21
-127.155
0
LINE
8
BLACK
6
CONTINUOUS
10
266.64
20
-127.155
11
266.64
21
-121.174
0
LINE
8
BLACK
6
CONTINUOUS
10
266.64
20
-121.174
11
264.16
21
-119.563
0
LINE
8
BLACK
6
CONTINUOUS
10
264.16
20
-119.563
11
261.653
21
-121.191
0
LINE
8
BLACK
6
CONTINUOUS
10
250.394
20
-129.774
11
250.582
21
-129.833
0
LINE
8
BLACK
6
CONTINUOUS
10
250.582
20
-129.833
11
250.756
21
-129.927
0
LINE
8
BLACK
6
CONTINUOUS
10
250.756
20
-129.927
11
250.908
21
-130.053
0
LINE
8
BLACK
6
CONTINUOUS
10
250.908
20
-130.053
11
251.033
21
-130.206
0
LINE
8
BLACK
6
CONTINUOUS
10
251.033
20
-130.206
11
251.126
21
-130.38
0
LINE
8
BLACK
6
CONTINUOUS
10
251.126
20
-130.38
11
251.183
21
-130.569
0
LINE
8
BLACK
6
CONTINUOUS
10
251.183
20
-130.569
11
251.197
21
-130.706
0
LINE
8
BLACK
6
CONTINUOUS
10
251.197
20
-130.706
11
251.777
21
-130.706
0
LINE
8
BLACK
6
CONTINUOUS
10
251.777
20
-130.706
11
251.82
21
-130.724
0
LINE
8
BLACK
6
CONTINUOUS
10
251.82
20
-130.724
11
251.837
21
-130.766
0
LINE
8
BLACK
6
CONTINUOUS
10
251.837
20
-130.766
11
251.82
21
-130.808
0
LINE
8
BLACK
6
CONTINUOUS
10
251.82
20
-130.808
11
251.777
21
-130.826
0
LINE
8
BLACK
6
CONTINUOUS
10
251.777
20
-130.826
11
251.198
21
-130.826
0
LINE
8
BLACK
6
CONTINUOUS
10
251.198
20
-130.826
11
251.177
21
-130.99
0
LINE
8
BLACK
6
CONTINUOUS
10
251.177
20
-130.99
11
251.115
21
-131.178
0
LINE
8
BLACK
6
CONTINUOUS
10
251.115
20
-131.178
11
251.017
21
-131.35
0
LINE
8
BLACK
6
CONTINUOUS
10
251.017
20
-131.35
11
250.888
21
-131.499
0
LINE
8
BLACK
6
CONTINUOUS
10
250.888
20
-131.499
11
250.746
21
-131.61
0
LINE
8
BLACK
6
CONTINUOUS
10
250.746
20
-131.61
11
251.036
21
-132.111
0
LINE
8
BLACK
6
CONTINUOUS
10
251.036
20
-132.111
11
251.042
21
-132.157
0
LINE
8
BLACK
6
CONTINUOUS
10
251.042
20
-132.157
11
251.014
21
-132.193
0
LINE
8
BLACK
6
CONTINUOUS
10
251.014
20
-132.193
11
250.968
21
-132.199
0
LINE
8
BLACK
6
CONTINUOUS
10
250.968
20
-132.199
11
250.932
21
-132.171
0
LINE
8
BLACK
6
CONTINUOUS
10
250.932
20
-132.171
11
250.641
21
-131.667
0
LINE
8
BLACK
6
CONTINUOUS
10
250.641
20
-131.667
11
250.556
21
-131.71
0
LINE
8
BLACK
6
CONTINUOUS
10
250.556
20
-131.71
11
250.366
21
-131.763
0
LINE
8
BLACK
6
CONTINUOUS
10
250.366
20
-131.763
11
250.169
21
-131.778
0
LINE
8
BLACK
6
CONTINUOUS
10
250.169
20
-131.778
11
249.973
21
-131.755
0
LINE
8
BLACK
6
CONTINUOUS
10
249.973
20
-131.755
11
249.785
21
-131.694
0
LINE
8
BLACK
6
CONTINUOUS
10
249.785
20
-131.694
11
249.612
21
-131.597
0
LINE
8
BLACK
6
CONTINUOUS
10
249.612
20
-131.597
11
249.462
21
-131.469
0
LINE
8
BLACK
6
CONTINUOUS
10
249.462
20
-131.469
11
249.339
21
-131.315
0
LINE
8
BLACK
6
CONTINUOUS
10
249.339
20
-131.315
11
249.249
21
-131.139
0
LINE
8
BLACK
6
CONTINUOUS
10
249.249
20
-131.139
11
249.194
21
-130.949
0
LINE
8
BLACK
6
CONTINUOUS
10
249.194
20
-130.949
11
249.184
21
-130.826
0
LINE
8
BLACK
6
CONTINUOUS
10
249.184
20
-130.826
11
248.602
21
-130.826
0
LINE
8
BLACK
6
CONTINUOUS
10
248.602
20
-130.826
11
248.56
21
-130.808
0
LINE
8
BLACK
6
CONTINUOUS
10
248.56
20
-130.808
11
248.542
21
-130.766
0
LINE
8
BLACK
6
CONTINUOUS
10
248.542
20
-130.766
11
248.56
21
-130.724
0
LINE
8
BLACK
6
CONTINUOUS
10
248.56
20
-130.724
11
248.602
21
-130.706
0
LINE
8
BLACK
6
CONTINUOUS
10
248.602
20
-130.706
11
249.183
21
-130.706
0
LINE
8
BLACK
6
CONTINUOUS
10
249.183
20
-130.706
11
249.2
21
-130.556
0
LINE
8
BLACK
6
CONTINUOUS
10
249.2
20
-130.556
11
249.259
21
-130.367
0
LINE
8
BLACK
6
CONTINUOUS
10
249.259
20
-130.367
11
249.355
21
-130.194
0
LINE
8
BLACK
6
CONTINUOUS
10
249.355
20
-130.194
11
249.482
21
-130.043
0
LINE
8
BLACK
6
CONTINUOUS
10
249.482
20
-130.043
11
249.636
21
-129.919
0
LINE
8
BLACK
6
CONTINUOUS
10
249.636
20
-129.919
11
249.811
21
-129.827
0
LINE
8
BLACK
6
CONTINUOUS
10
249.811
20
-129.827
11
250
21
-129.771
0
LINE
8
BLACK
6
CONTINUOUS
10
250
20
-129.771
11
250.197
21
-129.754
0
LINE
8
BLACK
6
CONTINUOUS
10
250.197
20
-129.754
11
250.394
21
-129.774
0
LINE
8
BLACK
6
CONTINUOUS
10
250.096
20
-129.874
11
249.913
21
-129.913
0
LINE
8
BLACK
6
CONTINUOUS
10
249.913
20
-129.913
11
249.741
21
-129.989
0
LINE
8
BLACK
6
CONTINUOUS
10
249.741
20
-129.989
11
249.59
21
-130.099
0
LINE
8
BLACK
6
CONTINUOUS
10
249.59
20
-130.099
11
249.464
21
-130.239
0
LINE
8
BLACK
6
CONTINUOUS
10
249.464
20
-130.239
11
249.37
21
-130.401
0
LINE
8
BLACK
6
CONTINUOUS
10
249.37
20
-130.401
11
249.312
21
-130.579
0
LINE
8
BLACK
6
CONTINUOUS
10
249.312
20
-130.579
11
249.294
21
-130.757
0
LINE
8
BLACK
6
CONTINUOUS
10
249.294
20
-130.757
11
249.297
21
-130.766
0
LINE
8
BLACK
6
CONTINUOUS
10
249.297
20
-130.766
11
249.294
21
-130.775
0
LINE
8
BLACK
6
CONTINUOUS
10
249.294
20
-130.775
11
249.312
21
-130.953
0
LINE
8
BLACK
6
CONTINUOUS
10
249.312
20
-130.953
11
249.37
21
-131.131
0
LINE
8
BLACK
6
CONTINUOUS
10
249.37
20
-131.131
11
249.464
21
-131.294
0
LINE
8
BLACK
6
CONTINUOUS
10
249.464
20
-131.294
11
249.59
21
-131.433
0
LINE
8
BLACK
6
CONTINUOUS
10
249.59
20
-131.433
11
249.741
21
-131.543
0
LINE
8
BLACK
6
CONTINUOUS
10
249.741
20
-131.543
11
249.913
21
-131.62
0
LINE
8
BLACK
6
CONTINUOUS
10
249.913
20
-131.62
11
250.096
21
-131.659
0
LINE
8
BLACK
6
CONTINUOUS
10
250.096
20
-131.659
11
250.284
21
-131.659
0
LINE
8
BLACK
6
CONTINUOUS
10
250.284
20
-131.659
11
250.467
21
-131.62
0
LINE
8
BLACK
6
CONTINUOUS
10
250.467
20
-131.62
11
250.63
21
-131.547
0
LINE
8
BLACK
6
CONTINUOUS
10
250.63
20
-131.547
11
250.636
21
-131.539
0
LINE
8
BLACK
6
CONTINUOUS
10
250.636
20
-131.539
11
250.646
21
-131.538
0
LINE
8
BLACK
6
CONTINUOUS
10
250.646
20
-131.538
11
250.79
21
-131.433
0
LINE
8
BLACK
6
CONTINUOUS
10
250.79
20
-131.433
11
250.916
21
-131.294
0
LINE
8
BLACK
6
CONTINUOUS
10
250.916
20
-131.294
11
251.01
21
-131.131
0
LINE
8
BLACK
6
CONTINUOUS
10
251.01
20
-131.131
11
251.068
21
-130.953
0
LINE
8
BLACK
6
CONTINUOUS
10
251.068
20
-130.953
11
251.086
21
-130.775
0
LINE
8
BLACK
6
CONTINUOUS
10
251.086
20
-130.775
11
251.082
21
-130.766
0
LINE
8
BLACK
6
CONTINUOUS
10
251.082
20
-130.766
11
251.086
21
-130.757
0
LINE
8
BLACK
6
CONTINUOUS
10
251.086
20
-130.757
11
251.068
21
-130.579
0
LINE
8
BLACK
6
CONTINUOUS
10
251.068
20
-130.579
11
251.01
21
-130.401
0
LINE
8
BLACK
6
CONTINUOUS
10
251.01
20
-130.401
11
250.916
21
-130.239
0
LINE
8
BLACK
6
CONTINUOUS
10
250.916
20
-130.239
11
250.79
21
-130.099
0
LINE
8
BLACK
6
CONTINUOUS
10
250.79
20
-130.099
11
250.639
21
-129.989
0
LINE
8
BLACK
6
CONTINUOUS
10
250.639
20
-129.989
11
250.467
21
-129.913
0
LINE
8
BLACK
6
CONTINUOUS
10
250.467
20
-129.913
11
250.284
21
-129.874
0
LINE
8
BLACK
6
CONTINUOUS
10
250.284
20
-129.874
11
250.096
21
-129.874
0
LINE
8
BLACK
6
CONTINUOUS
10
258.014
20
-129.774
11
258.202
21
-129.833
0
LINE
8
BLACK
6
CONTINUOUS
10
258.202
20
-129.833
11
258.376
21
-129.927
0
LINE
8
BLACK
6
CONTINUOUS
10
258.376
20
-129.927
11
258.528
21
-130.053
0
LINE
8
BLACK
6
CONTINUOUS
10
258.528
20
-130.053
11
258.653
21
-130.206
0
LINE
8
BLACK
6
CONTINUOUS
10
258.653
20
-130.206
11
258.746
21
-130.38
0
LINE
8
BLACK
6
CONTINUOUS
10
258.746
20
-130.38
11
258.803
21
-130.569
0
LINE
8
BLACK
6
CONTINUOUS
10
258.803
20
-130.569
11
258.817
21
-130.706
0
LINE
8
BLACK
6
CONTINUOUS
10
258.817
20
-130.706
11
259.397
21
-130.706
0
LINE
8
BLACK
6
CONTINUOUS
10
259.397
20
-130.706
11
259.44
21
-130.724
0
LINE
8
BLACK
6
CONTINUOUS
10
259.44
20
-130.724
11
259.457
21
-130.766
0
LINE
8
BLACK
6
CONTINUOUS
10
259.457
20
-130.766
11
259.44
21
-130.808
0
LINE
8
BLACK
6
CONTINUOUS
10
259.44
20
-130.808
11
259.397
21
-130.826
0
LINE
8
BLACK
6
CONTINUOUS
10
259.397
20
-130.826
11
258.818
21
-130.826
0
LINE
8
BLACK
6
CONTINUOUS
10
258.818
20
-130.826
11
258.797
21
-130.99
0
LINE
8
BLACK
6
CONTINUOUS
10
258.797
20
-130.99
11
258.735
21
-131.178
0
LINE
8
BLACK
6
CONTINUOUS
10
258.735
20
-131.178
11
258.637
21
-131.35
0
LINE
8
BLACK
6
CONTINUOUS
10
258.637
20
-131.35
11
258.508
21
-131.499
0
LINE
8
BLACK
6
CONTINUOUS
10
258.508
20
-131.499
11
258.353
21
-131.621
0
LINE
8
BLACK
6
CONTINUOUS
10
258.353
20
-131.621
11
258.176
21
-131.71
0
LINE
8
BLACK
6
CONTINUOUS
10
258.176
20
-131.71
11
257.986
21
-131.763
0
LINE
8
BLACK
6
CONTINUOUS
10
257.986
20
-131.763
11
257.789
21
-131.778
0
LINE
8
BLACK
6
CONTINUOUS
10
257.789
20
-131.778
11
257.593
21
-131.755
0
LINE
8
BLACK
6
CONTINUOUS
10
257.593
20
-131.755
11
257.405
21
-131.694
0
LINE
8
BLACK
6
CONTINUOUS
10
257.405
20
-131.694
11
257.359
21
-131.668
0
LINE
8
BLACK
6
CONTINUOUS
10
257.359
20
-131.668
11
257.068
21
-132.171
0
LINE
8
BLACK
6
CONTINUOUS
10
257.068
20
-132.171
11
257.032
21
-132.199
0
LINE
8
BLACK
6
CONTINUOUS
10
257.032
20
-132.199
11
256.986
21
-132.193
0
LINE
8
BLACK
6
CONTINUOUS
10
256.986
20
-132.193
11
256.958
21
-132.157
0
LINE
8
BLACK
6
CONTINUOUS
10
256.958
20
-132.157
11
256.964
21
-132.111
0
LINE
8
BLACK
6
CONTINUOUS
10
256.964
20
-132.111
11
257.254
21
-131.61
0
LINE
8
BLACK
6
CONTINUOUS
10
257.254
20
-131.61
11
257.232
21
-131.597
0
LINE
8
BLACK
6
CONTINUOUS
10
257.232
20
-131.597
11
257.082
21
-131.469
0
LINE
8
BLACK
6
CONTINUOUS
10
257.082
20
-131.469
11
256.959
21
-131.315
0
LINE
8
BLACK
6
CONTINUOUS
10
256.959
20
-131.315
11
256.869
21
-131.139
0
LINE
8
BLACK
6
CONTINUOUS
10
256.869
20
-131.139
11
256.814
21
-130.949
0
LINE
8
BLACK
6
CONTINUOUS
10
256.814
20
-130.949
11
256.804
21
-130.826
0
LINE
8
BLACK
6
CONTINUOUS
10
256.804
20
-130.826
11
256.222
21
-130.826
0
LINE
8
BLACK
6
CONTINUOUS
10
256.222
20
-130.826
11
256.18
21
-130.808
0
LINE
8
BLACK
6
CONTINUOUS
10
256.18
20
-130.808
11
256.162
21
-130.766
0
LINE
8
BLACK
6
CONTINUOUS
10
256.162
20
-130.766
11
256.18
21
-130.724
0
LINE
8
BLACK
6
CONTINUOUS
10
256.18
20
-130.724
11
256.222
21
-130.706
0
LINE
8
BLACK
6
CONTINUOUS
10
256.222
20
-130.706
11
256.803
21
-130.706
0
LINE
8
BLACK
6
CONTINUOUS
10
256.803
20
-130.706
11
256.82
21
-130.556
0
LINE
8
BLACK
6
CONTINUOUS
10
256.82
20
-130.556
11
256.879
21
-130.367
0
LINE
8
BLACK
6
CONTINUOUS
10
256.879
20
-130.367
11
256.975
21
-130.194
0
LINE
8
BLACK
6
CONTINUOUS
10
256.975
20
-130.194
11
257.102
21
-130.043
0
LINE
8
BLACK
6
CONTINUOUS
10
257.102
20
-130.043
11
257.256
21
-129.919
0
LINE
8
BLACK
6
CONTINUOUS
10
257.256
20
-129.919
11
257.431
21
-129.827
0
LINE
8
BLACK
6
CONTINUOUS
10
257.431
20
-129.827
11
257.62
21
-129.771
0
LINE
8
BLACK
6
CONTINUOUS
10
257.62
20
-129.771
11
257.817
21
-129.754
0
LINE
8
BLACK
6
CONTINUOUS
10
257.817
20
-129.754
11
258.014
21
-129.774
0
LINE
8
BLACK
6
CONTINUOUS
10
257.716
20
-129.874
11
257.533
21
-129.913
0
LINE
8
BLACK
6
CONTINUOUS
10
257.533
20
-129.913
11
257.361
21
-129.989
0
LINE
8
BLACK
6
CONTINUOUS
10
257.361
20
-129.989
11
257.21
21
-130.099
0
LINE
8
BLACK
6
CONTINUOUS
10
257.21
20
-130.099
11
257.084
21
-130.239
0
LINE
8
BLACK
6
CONTINUOUS
10
257.084
20
-130.239
11
256.99
21
-130.401
0
LINE
8
BLACK
6
CONTINUOUS
10
256.99
20
-130.401
11
256.932
21
-130.579
0
LINE
8
BLACK
6
CONTINUOUS
10
256.932
20
-130.579
11
256.914
21
-130.757
0
LINE
8
BLACK
6
CONTINUOUS
10
256.914
20
-130.757
11
256.917
21
-130.766
0
LINE
8
BLACK
6
CONTINUOUS
10
256.917
20
-130.766
11
256.914
21
-130.775
0
LINE
8
BLACK
6
CONTINUOUS
10
256.914
20
-130.775
11
256.932
21
-130.953
0
LINE
8
BLACK
6
CONTINUOUS
10
256.932
20
-130.953
11
256.99
21
-131.131
0
LINE
8
BLACK
6
CONTINUOUS
10
256.99
20
-131.131
11
257.084
21
-131.294
0
LINE
8
BLACK
6
CONTINUOUS
10
257.084
20
-131.294
11
257.21
21
-131.433
0
LINE
8
BLACK
6
CONTINUOUS
10
257.21
20
-131.433
11
257.354
21
-131.538
0
LINE
8
BLACK
6
CONTINUOUS
10
257.354
20
-131.538
11
257.364
21
-131.539
0
LINE
8
BLACK
6
CONTINUOUS
10
257.364
20
-131.539
11
257.37
21
-131.547
0
LINE
8
BLACK
6
CONTINUOUS
10
257.37
20
-131.547
11
257.533
21
-131.62
0
LINE
8
BLACK
6
CONTINUOUS
10
257.533
20
-131.62
11
257.716
21
-131.659
0
LINE
8
BLACK
6
CONTINUOUS
10
257.716
20
-131.659
11
257.904
21
-131.659
0
LINE
8
BLACK
6
CONTINUOUS
10
257.904
20
-131.659
11
258.087
21
-131.62
0
LINE
8
BLACK
6
CONTINUOUS
10
258.087
20
-131.62
11
258.259
21
-131.543
0
LINE
8
BLACK
6
CONTINUOUS
10
258.259
20
-131.543
11
258.41
21
-131.433
0
LINE
8
BLACK
6
CONTINUOUS
10
258.41
20
-131.433
11
258.536
21
-131.294
0
LINE
8
BLACK
6
CONTINUOUS
10
258.536
20
-131.294
11
258.63
21
-131.131
0
LINE
8
BLACK
6
CONTINUOUS
10
258.63
20
-131.131
11
258.688
21
-130.953
0
LINE
8
BLACK
6
CONTINUOUS
10
258.688
20
-130.953
11
258.706
21
-130.775
0
LINE
8
BLACK
6
CONTINUOUS
10
258.706
20
-130.775
11
258.702
21
-130.766
0
LINE
8
BLACK
6
CONTINUOUS
10
258.702
20
-130.766
11
258.706
21
-130.757
0
LINE
8
BLACK
6
CONTINUOUS
10
258.706
20
-130.757
11
258.688
21
-130.579
0
LINE
8
BLACK
6
CONTINUOUS
10
258.688
20
-130.579
11
258.63
21
-130.401
0
LINE
8
BLACK
6
CONTINUOUS
10
258.63
20
-130.401
11
258.536
21
-130.239
0
LINE
8
BLACK
6
CONTINUOUS
10
258.536
20
-130.239
11
258.41
21
-130.099
0
LINE
8
BLACK
6
CONTINUOUS
10
258.41
20
-130.099
11
258.259
21
-129.989
0
LINE
8
BLACK
6
CONTINUOUS
10
258.259
20
-129.989
11
258.087
21
-129.913
0
LINE
8
BLACK
6
CONTINUOUS
10
258.087
20
-129.913
11
257.904
21
-129.874
0
LINE
8
BLACK
6
CONTINUOUS
10
257.904
20
-129.874
11
257.716
21
-129.874
0
LINE
8
BLACK
6
CONTINUOUS
10
247.204
20
-127.139
11
247.232
21
-127.175
0
LINE
8
BLACK
6
CONTINUOUS
10
247.232
20
-127.175
11
247.226
21
-127.221
0
LINE
8
BLACK
6
CONTINUOUS
10
247.226
20
-127.221
11
246.908
21
-127.771
0
LINE
8
BLACK
6
CONTINUOUS
10
246.908
20
-127.771
11
246.872
21
-127.799
0
LINE
8
BLACK
6
CONTINUOUS
10
246.872
20
-127.799
11
246.826
21
-127.793
0
LINE
8
BLACK
6
CONTINUOUS
10
246.826
20
-127.793
11
246.798
21
-127.757
0
LINE
8
BLACK
6
CONTINUOUS
10
246.798
20
-127.757
11
246.804
21
-127.711
0
LINE
8
BLACK
6
CONTINUOUS
10
246.804
20
-127.711
11
247.122
21
-127.161
0
LINE
8
BLACK
6
CONTINUOUS
10
247.122
20
-127.161
11
247.158
21
-127.133
0
LINE
8
BLACK
6
CONTINUOUS
10
247.158
20
-127.133
11
247.204
21
-127.139
0
LINE
8
BLACK
6
CONTINUOUS
10
257.068
20
-124.961
11
257.359
21
-125.465
0
LINE
8
BLACK
6
CONTINUOUS
10
257.359
20
-125.465
11
257.431
21
-125.427
0
LINE
8
BLACK
6
CONTINUOUS
10
257.431
20
-125.427
11
257.62
21
-125.371
0
LINE
8
BLACK
6
CONTINUOUS
10
257.62
20
-125.371
11
257.817
21
-125.354
0
LINE
8
BLACK
6
CONTINUOUS
10
257.817
20
-125.354
11
258.014
21
-125.374
0
LINE
8
BLACK
6
CONTINUOUS
10
258.014
20
-125.374
11
258.202
21
-125.433
0
LINE
8
BLACK
6
CONTINUOUS
10
258.202
20
-125.433
11
258.376
21
-125.527
0
LINE
8
BLACK
6
CONTINUOUS
10
258.376
20
-125.527
11
258.528
21
-125.653
0
LINE
8
BLACK
6
CONTINUOUS
10
258.528
20
-125.653
11
258.653
21
-125.806
0
LINE
8
BLACK
6
CONTINUOUS
10
258.653
20
-125.806
11
258.746
21
-125.98
0
LINE
8
BLACK
6
CONTINUOUS
10
258.746
20
-125.98
11
258.803
21
-126.169
0
LINE
8
BLACK
6
CONTINUOUS
10
258.803
20
-126.169
11
258.822
21
-126.366
0
LINE
8
BLACK
6
CONTINUOUS
10
258.822
20
-126.366
11
258.822
21
-126.394
0
LINE
8
BLACK
6
CONTINUOUS
10
258.822
20
-126.394
11
258.797
21
-126.59
0
LINE
8
BLACK
6
CONTINUOUS
10
258.797
20
-126.59
11
258.735
21
-126.778
0
LINE
8
BLACK
6
CONTINUOUS
10
258.735
20
-126.778
11
258.637
21
-126.95
0
LINE
8
BLACK
6
CONTINUOUS
10
258.637
20
-126.95
11
258.508
21
-127.099
0
LINE
8
BLACK
6
CONTINUOUS
10
258.508
20
-127.099
11
258.366
21
-127.21
0
LINE
8
BLACK
6
CONTINUOUS
10
258.366
20
-127.21
11
258.656
21
-127.711
0
LINE
8
BLACK
6
CONTINUOUS
10
258.656
20
-127.711
11
258.662
21
-127.757
0
LINE
8
BLACK
6
CONTINUOUS
10
258.662
20
-127.757
11
258.634
21
-127.793
0
LINE
8
BLACK
6
CONTINUOUS
10
258.634
20
-127.793
11
258.588
21
-127.799
0
LINE
8
BLACK
6
CONTINUOUS
10
258.588
20
-127.799
11
258.552
21
-127.771
0
LINE
8
BLACK
6
CONTINUOUS
10
258.552
20
-127.771
11
258.261
21
-127.267
0
LINE
8
BLACK
6
CONTINUOUS
10
258.261
20
-127.267
11
258.176
21
-127.31
0
LINE
8
BLACK
6
CONTINUOUS
10
258.176
20
-127.31
11
257.986
21
-127.363
0
LINE
8
BLACK
6
CONTINUOUS
10
257.986
20
-127.363
11
257.789
21
-127.378
0
LINE
8
BLACK
6
CONTINUOUS
10
257.789
20
-127.378
11
257.593
21
-127.355
0
LINE
8
BLACK
6
CONTINUOUS
10
257.593
20
-127.355
11
257.405
21
-127.294
0
LINE
8
BLACK
6
CONTINUOUS
10
257.405
20
-127.294
11
257.359
21
-127.268
0
LINE
8
BLACK
6
CONTINUOUS
10
257.359
20
-127.268
11
257.068
21
-127.771
0
LINE
8
BLACK
6
CONTINUOUS
10
257.068
20
-127.771
11
257.032
21
-127.799
0
LINE
8
BLACK
6
CONTINUOUS
10
257.032
20
-127.799
11
256.986
21
-127.793
0
LINE
8
BLACK
6
CONTINUOUS
10
256.986
20
-127.793
11
256.958
21
-127.757
0
LINE
8
BLACK
6
CONTINUOUS
10
256.958
20
-127.757
11
256.964
21
-127.711
0
LINE
8
BLACK
6
CONTINUOUS
10
256.964
20
-127.711
11
257.254
21
-127.21
0
LINE
8
BLACK
6
CONTINUOUS
10
257.254
20
-127.21
11
257.232
21
-127.197
0
LINE
8
BLACK
6
CONTINUOUS
10
257.232
20
-127.197
11
257.082
21
-127.069
0
LINE
8
BLACK
6
CONTINUOUS
10
257.082
20
-127.069
11
256.959
21
-126.915
0
LINE
8
BLACK
6
CONTINUOUS
10
256.959
20
-126.915
11
256.869
21
-126.739
0
LINE
8
BLACK
6
CONTINUOUS
10
256.869
20
-126.739
11
256.814
21
-126.549
0
LINE
8
BLACK
6
CONTINUOUS
10
256.814
20
-126.549
11
256.804
21
-126.426
0
LINE
8
BLACK
6
CONTINUOUS
10
256.804
20
-126.426
11
256.222
21
-126.426
0
LINE
8
BLACK
6
CONTINUOUS
10
256.222
20
-126.426
11
256.18
21
-126.408
0
LINE
8
BLACK
6
CONTINUOUS
10
256.18
20
-126.408
11
256.162
21
-126.366
0
LINE
8
BLACK
6
CONTINUOUS
10
256.162
20
-126.366
11
256.18
21
-126.324
0
LINE
8
BLACK
6
CONTINUOUS
10
256.18
20
-126.324
11
256.222
21
-126.306
0
LINE
8
BLACK
6
CONTINUOUS
10
256.222
20
-126.306
11
256.803
21
-126.306
0
LINE
8
BLACK
6
CONTINUOUS
10
256.803
20
-126.306
11
256.82
21
-126.156
0
LINE
8
BLACK
6
CONTINUOUS
10
256.82
20
-126.156
11
256.879
21
-125.967
0
LINE
8
BLACK
6
CONTINUOUS
10
256.879
20
-125.967
11
256.975
21
-125.794
0
LINE
8
BLACK
6
CONTINUOUS
10
256.975
20
-125.794
11
257.102
21
-125.643
0
LINE
8
BLACK
6
CONTINUOUS
10
257.102
20
-125.643
11
257.253
21
-125.521
0
LINE
8
BLACK
6
CONTINUOUS
10
257.253
20
-125.521
11
256.964
21
-125.021
0
LINE
8
BLACK
6
CONTINUOUS
10
256.964
20
-125.021
11
256.958
21
-124.975
0
LINE
8
BLACK
6
CONTINUOUS
10
256.958
20
-124.975
11
256.986
21
-124.939
0
LINE
8
BLACK
6
CONTINUOUS
10
256.986
20
-124.939
11
257.032
21
-124.933
0
LINE
8
BLACK
6
CONTINUOUS
10
257.032
20
-124.933
11
257.068
21
-124.961
0
LINE
8
BLACK
6
CONTINUOUS
10
257.716
20
-125.474
11
257.533
21
-125.513
0
LINE
8
BLACK
6
CONTINUOUS
10
257.533
20
-125.513
11
257.37
21
-125.585
0
LINE
8
BLACK
6
CONTINUOUS
10
257.37
20
-125.585
11
257.364
21
-125.593
0
LINE
8
BLACK
6
CONTINUOUS
10
257.364
20
-125.593
11
257.354
21
-125.594
0
LINE
8
BLACK
6
CONTINUOUS
10
257.354
20
-125.594
11
257.21
21
-125.699
0
LINE
8
BLACK
6
CONTINUOUS
10
257.21
20
-125.699
11
257.084
21
-125.839
0
LINE
8
BLACK
6
CONTINUOUS
10
257.084
20
-125.839
11
256.99
21
-126.001
0
LINE
8
BLACK
6
CONTINUOUS
10
256.99
20
-126.001
11
256.932
21
-126.179
0
LINE
8
BLACK
6
CONTINUOUS
10
256.932
20
-126.179
11
256.914
21
-126.357
0
LINE
8
BLACK
6
CONTINUOUS
10
256.914
20
-126.357
11
256.917
21
-126.366
0
LINE
8
BLACK
6
CONTINUOUS
10
256.917
20
-126.366
11
256.914
21
-126.375
0
LINE
8
BLACK
6
CONTINUOUS
10
256.914
20
-126.375
11
256.932
21
-126.553
0
LINE
8
BLACK
6
CONTINUOUS
10
256.932
20
-126.553
11
256.99
21
-126.731
0
LINE
8
BLACK
6
CONTINUOUS
10
256.99
20
-126.731
11
257.084
21
-126.894
0
LINE
8
BLACK
6
CONTINUOUS
10
257.084
20
-126.894
11
257.21
21
-127.033
0
LINE
8
BLACK
6
CONTINUOUS
10
257.21
20
-127.033
11
257.354
21
-127.138
0
LINE
8
BLACK
6
CONTINUOUS
10
257.354
20
-127.138
11
257.364
21
-127.139
0
LINE
8
BLACK
6
CONTINUOUS
10
257.364
20
-127.139
11
257.37
21
-127.147
0
LINE
8
BLACK
6
CONTINUOUS
10
257.37
20
-127.147
11
257.533
21
-127.22
0
LINE
8
BLACK
6
CONTINUOUS
10
257.533
20
-127.22
11
257.716
21
-127.259
0
LINE
8
BLACK
6
CONTINUOUS
10
257.716
20
-127.259
11
257.904
21
-127.259
0
LINE
8
BLACK
6
CONTINUOUS
10
257.904
20
-127.259
11
258.087
21
-127.22
0
LINE
8
BLACK
6
CONTINUOUS
10
258.087
20
-127.22
11
258.25
21
-127.147
0
LINE
8
BLACK
6
CONTINUOUS
10
258.25
20
-127.147
11
258.256
21
-127.139
0
LINE
8
BLACK
6
CONTINUOUS
10
258.256
20
-127.139
11
258.266
21
-127.138
0
LINE
8
BLACK
6
CONTINUOUS
10
258.266
20
-127.138
11
258.41
21
-127.033
0
LINE
8
BLACK
6
CONTINUOUS
10
258.41
20
-127.033
11
258.536
21
-126.894
0
LINE
8
BLACK
6
CONTINUOUS
10
258.536
20
-126.894
11
258.63
21
-126.731
0
LINE
8
BLACK
6
CONTINUOUS
10
258.63
20
-126.731
11
258.688
21
-126.553
0
LINE
8
BLACK
6
CONTINUOUS
10
258.688
20
-126.553
11
258.707
21
-126.366
0
LINE
8
BLACK
6
CONTINUOUS
10
258.707
20
-126.366
11
258.688
21
-126.179
0
LINE
8
BLACK
6
CONTINUOUS
10
258.688
20
-126.179
11
258.63
21
-126.001
0
LINE
8
BLACK
6
CONTINUOUS
10
258.63
20
-126.001
11
258.536
21
-125.839
0
LINE
8
BLACK
6
CONTINUOUS
10
258.536
20
-125.839
11
258.41
21
-125.699
0
LINE
8
BLACK
6
CONTINUOUS
10
258.41
20
-125.699
11
258.259
21
-125.589
0
LINE
8
BLACK
6
CONTINUOUS
10
258.259
20
-125.589
11
258.087
21
-125.513
0
LINE
8
BLACK
6
CONTINUOUS
10
258.087
20
-125.513
11
257.904
21
-125.474
0
LINE
8
BLACK
6
CONTINUOUS
10
257.904
20
-125.474
11
257.716
21
-125.474
0
LINE
8
BLACK
6
CONTINUOUS
10
260.878
20
-127.161
11
261.196
21
-127.711
0
LINE
8
BLACK
6
CONTINUOUS
10
261.196
20
-127.711
11
261.202
21
-127.757
0
LINE
8
BLACK
6
CONTINUOUS
10
261.202
20
-127.757
11
261.174
21
-127.793
0
LINE
8
BLACK
6
CONTINUOUS
10
261.174
20
-127.793
11
261.128
21
-127.799
0
LINE
8
BLACK
6
CONTINUOUS
10
261.128
20
-127.799
11
261.092
21
-127.771
0
LINE
8
BLACK
6
CONTINUOUS
10
261.092
20
-127.771
11
260.774
21
-127.221
0
LINE
8
BLACK
6
CONTINUOUS
10
260.774
20
-127.221
11
260.768
21
-127.175
0
LINE
8
BLACK
6
CONTINUOUS
10
260.768
20
-127.175
11
260.796
21
-127.139
0
LINE
8
BLACK
6
CONTINUOUS
10
260.796
20
-127.139
11
260.842
21
-127.133
0
LINE
8
BLACK
6
CONTINUOUS
10
260.842
20
-127.133
11
260.878
21
-127.161
0
LINE
8
BLACK
6
CONTINUOUS
10
249.2
20
-126.156
11
249.259
21
-125.967
0
LINE
8
BLACK
6
CONTINUOUS
10
249.259
20
-125.967
11
249.355
21
-125.794
0
LINE
8
BLACK
6
CONTINUOUS
10
249.355
20
-125.794
11
249.482
21
-125.643
0
LINE
8
BLACK
6
CONTINUOUS
10
249.482
20
-125.643
11
249.636
21
-125.519
0
LINE
8
BLACK
6
CONTINUOUS
10
249.636
20
-125.519
11
249.811
21
-125.427
0
LINE
8
BLACK
6
CONTINUOUS
10
249.811
20
-125.427
11
250
21
-125.371
0
LINE
8
BLACK
6
CONTINUOUS
10
250
20
-125.371
11
250.197
21
-125.354
0
LINE
8
BLACK
6
CONTINUOUS
10
250.197
20
-125.354
11
250.394
21
-125.374
0
LINE
8
BLACK
6
CONTINUOUS
10
250.394
20
-125.374
11
250.582
21
-125.433
0
LINE
8
BLACK
6
CONTINUOUS
10
250.582
20
-125.433
11
250.641
21
-125.464
0
LINE
8
BLACK
6
CONTINUOUS
10
250.641
20
-125.464
11
250.932
21
-124.961
0
LINE
8
BLACK
6
CONTINUOUS
10
250.932
20
-124.961
11
250.968
21
-124.933
0
LINE
8
BLACK
6
CONTINUOUS
10
250.968
20
-124.933
11
251.014
21
-124.939
0
LINE
8
BLACK
6
CONTINUOUS
10
251.014
20
-124.939
11
251.042
21
-124.975
0
LINE
8
BLACK
6
CONTINUOUS
10
251.042
20
-124.975
11
251.036
21
-125.021
0
LINE
8
BLACK
6
CONTINUOUS
10
251.036
20
-125.021
11
250.747
21
-125.522
0
LINE
8
BLACK
6
CONTINUOUS
10
250.747
20
-125.522
11
250.756
21
-125.527
0
LINE
8
BLACK
6
CONTINUOUS
10
250.756
20
-125.527
11
250.908
21
-125.653
0
LINE
8
BLACK
6
CONTINUOUS
10
250.908
20
-125.653
11
251.033
21
-125.806
0
LINE
8
BLACK
6
CONTINUOUS
10
251.033
20
-125.806
11
251.126
21
-125.98
0
LINE
8
BLACK
6
CONTINUOUS
10
251.126
20
-125.98
11
251.183
21
-126.169
0
LINE
8
BLACK
6
CONTINUOUS
10
251.183
20
-126.169
11
251.197
21
-126.306
0
LINE
8
BLACK
6
CONTINUOUS
10
251.197
20
-126.306
11
251.777
21
-126.306
0
LINE
8
BLACK
6
CONTINUOUS
10
251.777
20
-126.306
11
251.82
21
-126.324
0
LINE
8
BLACK
6
CONTINUOUS
10
251.82
20
-126.324
11
251.837
21
-126.366
0
LINE
8
BLACK
6
CONTINUOUS
10
251.837
20
-126.366
11
251.82
21
-126.408
0
LINE
8
BLACK
6
CONTINUOUS
10
251.82
20
-126.408
11
251.777
21
-126.426
0
LINE
8
BLACK
6
CONTINUOUS
10
251.777
20
-126.426
11
251.198
21
-126.426
0
LINE
8
BLACK
6
CONTINUOUS
10
251.198
20
-126.426
11
251.177
21
-126.59
0
LINE
8
BLACK
6
CONTINUOUS
10
251.177
20
-126.59
11
251.115
21
-126.778
0
LINE
8
BLACK
6
CONTINUOUS
10
251.115
20
-126.778
11
251.017
21
-126.95
0
LINE
8
BLACK
6
CONTINUOUS
10
251.017
20
-126.95
11
250.888
21
-127.099
0
LINE
8
BLACK
6
CONTINUOUS
10
250.888
20
-127.099
11
250.746
21
-127.21
0
LINE
8
BLACK
6
CONTINUOUS
10
250.746
20
-127.21
11
251.036
21
-127.711
0
LINE
8
BLACK
6
CONTINUOUS
10
251.036
20
-127.711
11
251.042
21
-127.757
0
LINE
8
BLACK
6
CONTINUOUS
10
251.042
20
-127.757
11
251.014
21
-127.793
0
LINE
8
BLACK
6
CONTINUOUS
10
251.014
20
-127.793
11
250.968
21
-127.799
0
LINE
8
BLACK
6
CONTINUOUS
10
250.968
20
-127.799
11
250.932
21
-127.771
0
LINE
8
BLACK
6
CONTINUOUS
10
250.932
20
-127.771
11
250.641
21
-127.267
0
LINE
8
BLACK
6
CONTINUOUS
10
250.641
20
-127.267
11
250.556
21
-127.31
0
LINE
8
BLACK
6
CONTINUOUS
10
250.556
20
-127.31
11
250.366
21
-127.363
0
LINE
8
BLACK
6
CONTINUOUS
10
250.366
20
-127.363
11
250.169
21
-127.378
0
LINE
8
BLACK
6
CONTINUOUS
10
250.169
20
-127.378
11
249.973
21
-127.355
0
LINE
8
BLACK
6
CONTINUOUS
10
249.973
20
-127.355
11
249.785
21
-127.294
0
LINE
8
BLACK
6
CONTINUOUS
10
249.785
20
-127.294
11
249.739
21
-127.268
0
LINE
8
BLACK
6
CONTINUOUS
10
249.739
20
-127.268
11
249.448
21
-127.771
0
LINE
8
BLACK
6
CONTINUOUS
10
249.448
20
-127.771
11
249.412
21
-127.799
0
LINE
8
BLACK
6
CONTINUOUS
10
249.412
20
-127.799
11
249.366
21
-127.793
0
LINE
8
BLACK
6
CONTINUOUS
10
249.366
20
-127.793
11
249.338
21
-127.757
0
LINE
8
BLACK
6
CONTINUOUS
10
249.338
20
-127.757
11
249.344
21
-127.711
0
LINE
8
BLACK
6
CONTINUOUS
10
249.344
20
-127.711
11
249.634
21
-127.21
0
LINE
8
BLACK
6
CONTINUOUS
10
249.634
20
-127.21
11
249.612
21
-127.197
0
LINE
8
BLACK
6
CONTINUOUS
10
249.612
20
-127.197
11
249.462
21
-127.069
0
LINE
8
BLACK
6
CONTINUOUS
10
249.462
20
-127.069
11
249.339
21
-126.915
0
LINE
8
BLACK
6
CONTINUOUS
10
249.339
20
-126.915
11
249.249
21
-126.739
0
LINE
8
BLACK
6
CONTINUOUS
10
249.249
20
-126.739
11
249.194
21
-126.549
0
LINE
8
BLACK
6
CONTINUOUS
10
249.194
20
-126.549
11
249.179
21
-126.366
0
LINE
8
BLACK
6
CONTINUOUS
10
249.179
20
-126.366
11
249.178
21
-126.352
0
LINE
8
BLACK
6
CONTINUOUS
10
249.178
20
-126.352
11
249.2
21
-126.156
0
LINE
8
BLACK
6
CONTINUOUS
10
249.37
20
-126.731
11
249.464
21
-126.894
0
LINE
8
BLACK
6
CONTINUOUS
10
249.464
20
-126.894
11
249.59
21
-127.033
0
LINE
8
BLACK
6
CONTINUOUS
10
249.59
20
-127.033
11
249.734
21
-127.138
0
LINE
8
BLACK
6
CONTINUOUS
10
249.734
20
-127.138
11
249.744
21
-127.139
0
LINE
8
BLACK
6
CONTINUOUS
10
249.744
20
-127.139
11
249.75
21
-127.147
0
LINE
8
BLACK
6
CONTINUOUS
10
249.75
20
-127.147
11
249.913
21
-127.22
0
LINE
8
BLACK
6
CONTINUOUS
10
249.913
20
-127.22
11
250.096
21
-127.259
0
LINE
8
BLACK
6
CONTINUOUS
10
250.096
20
-127.259
11
250.284
21
-127.259
0
LINE
8
BLACK
6
CONTINUOUS
10
250.284
20
-127.259
11
250.467
21
-127.22
0
LINE
8
BLACK
6
CONTINUOUS
10
250.467
20
-127.22
11
250.63
21
-127.147
0
LINE
8
BLACK
6
CONTINUOUS
10
250.63
20
-127.147
11
250.636
21
-127.139
0
LINE
8
BLACK
6
CONTINUOUS
10
250.636
20
-127.139
11
250.646
21
-127.138
0
LINE
8
BLACK
6
CONTINUOUS
10
250.646
20
-127.138
11
250.79
21
-127.033
0
LINE
8
BLACK
6
CONTINUOUS
10
250.79
20
-127.033
11
250.916
21
-126.894
0
LINE
8
BLACK
6
CONTINUOUS
10
250.916
20
-126.894
11
251.01
21
-126.731
0
LINE
8
BLACK
6
CONTINUOUS
10
251.01
20
-126.731
11
251.068
21
-126.553
0
LINE
8
BLACK
6
CONTINUOUS
10
251.068
20
-126.553
11
251.086
21
-126.375
0
LINE
8
BLACK
6
CONTINUOUS
10
251.086
20
-126.375
11
251.082
21
-126.366
0
LINE
8
BLACK
6
CONTINUOUS
10
251.082
20
-126.366
11
251.086
21
-126.357
0
LINE
8
BLACK
6
CONTINUOUS
10
251.086
20
-126.357
11
251.068
21
-126.179
0
LINE
8
BLACK
6
CONTINUOUS
10
251.068
20
-126.179
11
251.01
21
-126.001
0
LINE
8
BLACK
6
CONTINUOUS
10
251.01
20
-126.001
11
250.916
21
-125.839
0
LINE
8
BLACK
6
CONTINUOUS
10
250.916
20
-125.839
11
250.79
21
-125.699
0
LINE
8
BLACK
6
CONTINUOUS
10
250.79
20
-125.699
11
250.646
21
-125.594
0
LINE
8
BLACK
6
CONTINUOUS
10
250.646
20
-125.594
11
250.636
21
-125.593
0
LINE
8
BLACK
6
CONTINUOUS
10
250.636
20
-125.593
11
250.63
21
-125.585
0
LINE
8
BLACK
6
CONTINUOUS
10
250.63
20
-125.585
11
250.467
21
-125.513
0
LINE
8
BLACK
6
CONTINUOUS
10
250.467
20
-125.513
11
250.284
21
-125.474
0
LINE
8
BLACK
6
CONTINUOUS
10
250.284
20
-125.474
11
250.096
21
-125.474
0
LINE
8
BLACK
6
CONTINUOUS
10
250.096
20
-125.474
11
249.913
21
-125.513
0
LINE
8
BLACK
6
CONTINUOUS
10
249.913
20
-125.513
11
249.741
21
-125.589
0
LINE
8
BLACK
6
CONTINUOUS
10
249.741
20
-125.589
11
249.59
21
-125.699
0
LINE
8
BLACK
6
CONTINUOUS
10
249.59
20
-125.699
11
249.464
21
-125.839
0
LINE
8
BLACK
6
CONTINUOUS
10
249.464
20
-125.839
11
249.37
21
-126.001
0
LINE
8
BLACK
6
CONTINUOUS
10
249.37
20
-126.001
11
249.312
21
-126.179
0
LINE
8
BLACK
6
CONTINUOUS
10
249.312
20
-126.179
11
249.293
21
-126.366
0
LINE
8
BLACK
6
CONTINUOUS
10
249.293
20
-126.366
11
249.312
21
-126.553
0
LINE
8
BLACK
6
CONTINUOUS
10
249.312
20
-126.553
11
249.37
21
-126.731
0
LINE
8
BLACK
6
CONTINUOUS
10
247.93
20
-123.956
11
247.989
21
-123.767
0
LINE
8
BLACK
6
CONTINUOUS
10
247.989
20
-123.767
11
248.085
21
-123.594
0
LINE
8
BLACK
6
CONTINUOUS
10
248.085
20
-123.594
11
248.212
21
-123.443
0
LINE
8
BLACK
6
CONTINUOUS
10
248.212
20
-123.443
11
248.366
21
-123.319
0
LINE
8
BLACK
6
CONTINUOUS
10
248.366
20
-123.319
11
248.541
21
-123.227
0
LINE
8
BLACK
6
CONTINUOUS
10
248.541
20
-123.227
11
248.73
21
-123.171
0
LINE
8
BLACK
6
CONTINUOUS
10
248.73
20
-123.171
11
248.927
21
-123.154
0
LINE
8
BLACK
6
CONTINUOUS
10
248.927
20
-123.154
11
249.124
21
-123.174
0
LINE
8
BLACK
6
CONTINUOUS
10
249.124
20
-123.174
11
249.312
21
-123.233
0
LINE
8
BLACK
6
CONTINUOUS
10
249.312
20
-123.233
11
249.371
21
-123.264
0
LINE
8
BLACK
6
CONTINUOUS
10
249.371
20
-123.264
11
249.662
21
-122.761
0
LINE
8
BLACK
6
CONTINUOUS
10
249.662
20
-122.761
11
249.698
21
-122.733
0
LINE
8
BLACK
6
CONTINUOUS
10
249.698
20
-122.733
11
249.744
21
-122.739
0
LINE
8
BLACK
6
CONTINUOUS
10
249.744
20
-122.739
11
249.772
21
-122.775
0
LINE
8
BLACK
6
CONTINUOUS
10
249.772
20
-122.775
11
249.766
21
-122.821
0
LINE
8
BLACK
6
CONTINUOUS
10
249.766
20
-122.821
11
249.477
21
-123.322
0
LINE
8
BLACK
6
CONTINUOUS
10
249.477
20
-123.322
11
249.486
21
-123.327
0
LINE
8
BLACK
6
CONTINUOUS
10
249.486
20
-123.327
11
249.638
21
-123.453
0
LINE
8
BLACK
6
CONTINUOUS
10
249.638
20
-123.453
11
249.763
21
-123.606
0
LINE
8
BLACK
6
CONTINUOUS
10
249.763
20
-123.606
11
249.856
21
-123.78
0
LINE
8
BLACK
6
CONTINUOUS
10
249.856
20
-123.78
11
249.913
21
-123.969
0
LINE
8
BLACK
6
CONTINUOUS
10
249.913
20
-123.969
11
249.932
21
-124.166
0
LINE
8
BLACK
6
CONTINUOUS
10
249.932
20
-124.166
11
249.932
21
-124.194
0
LINE
8
BLACK
6
CONTINUOUS
10
249.932
20
-124.194
11
249.907
21
-124.39
0
LINE
8
BLACK
6
CONTINUOUS
10
249.907
20
-124.39
11
249.845
21
-124.578
0
LINE
8
BLACK
6
CONTINUOUS
10
249.845
20
-124.578
11
249.747
21
-124.75
0
LINE
8
BLACK
6
CONTINUOUS
10
249.747
20
-124.75
11
249.618
21
-124.899
0
LINE
8
BLACK
6
CONTINUOUS
10
249.618
20
-124.899
11
249.463
21
-125.021
0
LINE
8
BLACK
6
CONTINUOUS
10
249.463
20
-125.021
11
249.286
21
-125.11
0
LINE
8
BLACK
6
CONTINUOUS
10
249.286
20
-125.11
11
249.096
21
-125.163
0
LINE
8
BLACK
6
CONTINUOUS
10
249.096
20
-125.163
11
248.899
21
-125.178
0
LINE
8
BLACK
6
CONTINUOUS
10
248.899
20
-125.178
11
248.703
21
-125.155
0
LINE
8
BLACK
6
CONTINUOUS
10
248.703
20
-125.155
11
248.515
21
-125.094
0
LINE
8
BLACK
6
CONTINUOUS
10
248.515
20
-125.094
11
248.469
21
-125.068
0
LINE
8
BLACK
6
CONTINUOUS
10
248.469
20
-125.068
11
248.178
21
-125.571
0
LINE
8
BLACK
6
CONTINUOUS
10
248.178
20
-125.571
11
248.142
21
-125.599
0
LINE
8
BLACK
6
CONTINUOUS
10
248.142
20
-125.599
11
248.096
21
-125.593
0
LINE
8
BLACK
6
CONTINUOUS
10
248.096
20
-125.593
11
248.068
21
-125.557
0
LINE
8
BLACK
6
CONTINUOUS
10
248.068
20
-125.557
11
248.074
21
-125.511
0
LINE
8
BLACK
6
CONTINUOUS
10
248.074
20
-125.511
11
248.364
21
-125.01
0
LINE
8
BLACK
6
CONTINUOUS
10
248.364
20
-125.01
11
248.342
21
-124.997
0
LINE
8
BLACK
6
CONTINUOUS
10
248.342
20
-124.997
11
248.192
21
-124.869
0
LINE
8
BLACK
6
CONTINUOUS
10
248.192
20
-124.869
11
248.069
21
-124.715
0
LINE
8
BLACK
6
CONTINUOUS
10
248.069
20
-124.715
11
247.979
21
-124.539
0
LINE
8
BLACK
6
CONTINUOUS
10
247.979
20
-124.539
11
247.924
21
-124.349
0
LINE
8
BLACK
6
CONTINUOUS
10
247.924
20
-124.349
11
247.909
21
-124.166
0
LINE
8
BLACK
6
CONTINUOUS
10
247.909
20
-124.166
11
247.908
21
-124.152
0
LINE
8
BLACK
6
CONTINUOUS
10
247.908
20
-124.152
11
247.93
21
-123.956
0
LINE
8
BLACK
6
CONTINUOUS
10
248.1
20
-124.531
11
248.194
21
-124.694
0
LINE
8
BLACK
6
CONTINUOUS
10
248.194
20
-124.694
11
248.32
21
-124.833
0
LINE
8
BLACK
6
CONTINUOUS
10
248.32
20
-124.833
11
248.464
21
-124.938
0
LINE
8
BLACK
6
CONTINUOUS
10
248.464
20
-124.938
11
248.474
21
-124.939
0
LINE
8
BLACK
6
CONTINUOUS
10
248.474
20
-124.939
11
248.48
21
-124.947
0
LINE
8
BLACK
6
CONTINUOUS
10
248.48
20
-124.947
11
248.643
21
-125.02
0
LINE
8
BLACK
6
CONTINUOUS
10
248.643
20
-125.02
11
248.826
21
-125.059
0
LINE
8
BLACK
6
CONTINUOUS
10
248.826
20
-125.059
11
249.014
21
-125.059
0
LINE
8
BLACK
6
CONTINUOUS
10
249.014
20
-125.059
11
249.197
21
-125.02
0
LINE
8
BLACK
6
CONTINUOUS
10
249.197
20
-125.02
11
249.369
21
-124.943
0
LINE
8
BLACK
6
CONTINUOUS
10
249.369
20
-124.943
11
249.52
21
-124.833
0
LINE
8
BLACK
6
CONTINUOUS
10
249.52
20
-124.833
11
249.646
21
-124.694
0
LINE
8
BLACK
6
CONTINUOUS
10
249.646
20
-124.694
11
249.74
21
-124.531
0
LINE
8
BLACK
6
CONTINUOUS
10
249.74
20
-124.531
11
249.798
21
-124.353
0
LINE
8
BLACK
6
CONTINUOUS
10
249.798
20
-124.353
11
249.817
21
-124.166
0
LINE
8
BLACK
6
CONTINUOUS
10
249.817
20
-124.166
11
249.798
21
-123.979
0
LINE
8
BLACK
6
CONTINUOUS
10
249.798
20
-123.979
11
249.74
21
-123.801
0
LINE
8
BLACK
6
CONTINUOUS
10
249.74
20
-123.801
11
249.646
21
-123.639
0
LINE
8
BLACK
6
CONTINUOUS
10
249.646
20
-123.639
11
249.52
21
-123.499
0
LINE
8
BLACK
6
CONTINUOUS
10
249.52
20
-123.499
11
249.376
21
-123.394
0
LINE
8
BLACK
6
CONTINUOUS
10
249.376
20
-123.394
11
249.366
21
-123.393
0
LINE
8
BLACK
6
CONTINUOUS
10
249.366
20
-123.393
11
249.36
21
-123.385
0
LINE
8
BLACK
6
CONTINUOUS
10
249.36
20
-123.385
11
249.197
21
-123.313
0
LINE
8
BLACK
6
CONTINUOUS
10
249.197
20
-123.313
11
249.014
21
-123.274
0
LINE
8
BLACK
6
CONTINUOUS
10
249.014
20
-123.274
11
248.826
21
-123.274
0
LINE
8
BLACK
6
CONTINUOUS
10
248.826
20
-123.274
11
248.643
21
-123.313
0
LINE
8
BLACK
6
CONTINUOUS
10
248.643
20
-123.313
11
248.471
21
-123.389
0
LINE
8
BLACK
6
CONTINUOUS
10
248.471
20
-123.389
11
248.32
21
-123.499
0
LINE
8
BLACK
6
CONTINUOUS
10
248.32
20
-123.499
11
248.194
21
-123.639
0
LINE
8
BLACK
6
CONTINUOUS
10
248.194
20
-123.639
11
248.1
21
-123.801
0
LINE
8
BLACK
6
CONTINUOUS
10
248.1
20
-123.801
11
248.042
21
-123.979
0
LINE
8
BLACK
6
CONTINUOUS
10
248.042
20
-123.979
11
248.023
21
-124.166
0
LINE
8
BLACK
6
CONTINUOUS
10
248.023
20
-124.166
11
248.042
21
-124.353
0
LINE
8
BLACK
6
CONTINUOUS
10
248.042
20
-124.353
11
248.1
21
-124.531
0
LINE
8
BLACK
6
CONTINUOUS
10
260.63
20
-123.956
11
260.689
21
-123.767
0
LINE
8
BLACK
6
CONTINUOUS
10
260.689
20
-123.767
11
260.785
21
-123.594
0
LINE
8
BLACK
6
CONTINUOUS
10
260.785
20
-123.594
11
260.912
21
-123.443
0
LINE
8
BLACK
6
CONTINUOUS
10
260.912
20
-123.443
11
261.063
21
-123.321
0
LINE
8
BLACK
6
CONTINUOUS
10
261.063
20
-123.321
11
260.774
21
-122.821
0
LINE
8
BLACK
6
CONTINUOUS
10
260.774
20
-122.821
11
260.768
21
-122.775
0
LINE
8
BLACK
6
CONTINUOUS
10
260.768
20
-122.775
11
260.796
21
-122.739
0
LINE
8
BLACK
6
CONTINUOUS
10
260.796
20
-122.739
11
260.842
21
-122.733
0
LINE
8
BLACK
6
CONTINUOUS
10
260.842
20
-122.733
11
260.878
21
-122.761
0
LINE
8
BLACK
6
CONTINUOUS
10
260.878
20
-122.761
11
261.169
21
-123.265
0
LINE
8
BLACK
6
CONTINUOUS
10
261.169
20
-123.265
11
261.241
21
-123.227
0
LINE
8
BLACK
6
CONTINUOUS
10
261.241
20
-123.227
11
261.43
21
-123.171
0
LINE
8
BLACK
6
CONTINUOUS
10
261.43
20
-123.171
11
261.627
21
-123.154
0
LINE
8
BLACK
6
CONTINUOUS
10
261.627
20
-123.154
11
261.824
21
-123.174
0
LINE
8
BLACK
6
CONTINUOUS
10
261.824
20
-123.174
11
262.012
21
-123.233
0
LINE
8
BLACK
6
CONTINUOUS
10
262.012
20
-123.233
11
262.186
21
-123.327
0
LINE
8
BLACK
6
CONTINUOUS
10
262.186
20
-123.327
11
262.338
21
-123.453
0
LINE
8
BLACK
6
CONTINUOUS
10
262.338
20
-123.453
11
262.463
21
-123.606
0
LINE
8
BLACK
6
CONTINUOUS
10
262.463
20
-123.606
11
262.556
21
-123.78
0
LINE
8
BLACK
6
CONTINUOUS
10
262.556
20
-123.78
11
262.613
21
-123.969
0
LINE
8
BLACK
6
CONTINUOUS
10
262.613
20
-123.969
11
262.632
21
-124.166
0
LINE
8
BLACK
6
CONTINUOUS
10
262.632
20
-124.166
11
262.632
21
-124.194
0
LINE
8
BLACK
6
CONTINUOUS
10
262.632
20
-124.194
11
262.607
21
-124.39
0
LINE
8
BLACK
6
CONTINUOUS
10
262.607
20
-124.39
11
262.545
21
-124.578
0
LINE
8
BLACK
6
CONTINUOUS
10
262.545
20
-124.578
11
262.447
21
-124.75
0
LINE
8
BLACK
6
CONTINUOUS
10
262.447
20
-124.75
11
262.318
21
-124.899
0
LINE
8
BLACK
6
CONTINUOUS
10
262.318
20
-124.899
11
262.176
21
-125.01
0
LINE
8
BLACK
6
CONTINUOUS
10
262.176
20
-125.01
11
262.466
21
-125.511
0
LINE
8
BLACK
6
CONTINUOUS
10
262.466
20
-125.511
11
262.472
21
-125.557
0
LINE
8
BLACK
6
CONTINUOUS
10
262.472
20
-125.557
11
262.444
21
-125.593
0
LINE
8
BLACK
6
CONTINUOUS
10
262.444
20
-125.593
11
262.398
21
-125.599
0
LINE
8
BLACK
6
CONTINUOUS
10
262.398
20
-125.599
11
262.362
21
-125.571
0
LINE
8
BLACK
6
CONTINUOUS
10
262.362
20
-125.571
11
262.071
21
-125.067
0
LINE
8
BLACK
6
CONTINUOUS
10
262.071
20
-125.067
11
261.986
21
-125.11
0
LINE
8
BLACK
6
CONTINUOUS
10
261.986
20
-125.11
11
261.796
21
-125.163
0
LINE
8
BLACK
6
CONTINUOUS
10
261.796
20
-125.163
11
261.599
21
-125.178
0
LINE
8
BLACK
6
CONTINUOUS
10
261.599
20
-125.178
11
261.403
21
-125.155
0
LINE
8
BLACK
6
CONTINUOUS
10
261.403
20
-125.155
11
261.215
21
-125.094
0
LINE
8
BLACK
6
CONTINUOUS
10
261.215
20
-125.094
11
261.042
21
-124.997
0
LINE
8
BLACK
6
CONTINUOUS
10
261.042
20
-124.997
11
260.892
21
-124.869
0
LINE
8
BLACK
6
CONTINUOUS
10
260.892
20
-124.869
11
260.769
21
-124.715
0
LINE
8
BLACK
6
CONTINUOUS
10
260.769
20
-124.715
11
260.679
21
-124.539
0
LINE
8
BLACK
6
CONTINUOUS
10
260.679
20
-124.539
11
260.624
21
-124.349
0
LINE
8
BLACK
6
CONTINUOUS
10
260.624
20
-124.349
11
260.609
21
-124.166
0
LINE
8
BLACK
6
CONTINUOUS
10
260.609
20
-124.166
11
260.608
21
-124.152
0
LINE
8
BLACK
6
CONTINUOUS
10
260.608
20
-124.152
11
260.63
21
-123.956
0
LINE
8
BLACK
6
CONTINUOUS
10
260.8
20
-124.531
11
260.894
21
-124.694
0
LINE
8
BLACK
6
CONTINUOUS
10
260.894
20
-124.694
11
261.02
21
-124.833
0
LINE
8
BLACK
6
CONTINUOUS
10
261.02
20
-124.833
11
261.171
21
-124.943
0
LINE
8
BLACK
6
CONTINUOUS
10
261.171
20
-124.943
11
261.343
21
-125.02
0
LINE
8
BLACK
6
CONTINUOUS
10
261.343
20
-125.02
11
261.526
21
-125.059
0
LINE
8
BLACK
6
CONTINUOUS
10
261.526
20
-125.059
11
261.714
21
-125.059
0
LINE
8
BLACK
6
CONTINUOUS
10
261.714
20
-125.059
11
261.897
21
-125.02
0
LINE
8
BLACK
6
CONTINUOUS
10
261.897
20
-125.02
11
262.06
21
-124.947
0
LINE
8
BLACK
6
CONTINUOUS
10
262.06
20
-124.947
11
262.066
21
-124.939
0
LINE
8
BLACK
6
CONTINUOUS
10
262.066
20
-124.939
11
262.076
21
-124.938
0
LINE
8
BLACK
6
CONTINUOUS
10
262.076
20
-124.938
11
262.22
21
-124.833
0
LINE
8
BLACK
6
CONTINUOUS
10
262.22
20
-124.833
11
262.346
21
-124.694
0
LINE
8
BLACK
6
CONTINUOUS
10
262.346
20
-124.694
11
262.44
21
-124.531
0
LINE
8
BLACK
6
CONTINUOUS
10
262.44
20
-124.531
11
262.498
21
-124.353
0
LINE
8
BLACK
6
CONTINUOUS
10
262.498
20
-124.353
11
262.517
21
-124.166
0
LINE
8
BLACK
6
CONTINUOUS
10
262.517
20
-124.166
11
262.498
21
-123.979
0
LINE
8
BLACK
6
CONTINUOUS
10
262.498
20
-123.979
11
262.44
21
-123.801
0
LINE
8
BLACK
6
CONTINUOUS
10
262.44
20
-123.801
11
262.346
21
-123.639
0
LINE
8
BLACK
6
CONTINUOUS
10
262.346
20
-123.639
11
262.22
21
-123.499
0
LINE
8
BLACK
6
CONTINUOUS
10
262.22
20
-123.499
11
262.069
21
-123.389
0
LINE
8
BLACK
6
CONTINUOUS
10
262.069
20
-123.389
11
261.897
21
-123.313
0
LINE
8
BLACK
6
CONTINUOUS
10
261.897
20
-123.313
11
261.714
21
-123.274
0
LINE
8
BLACK
6
CONTINUOUS
10
261.714
20
-123.274
11
261.526
21
-123.274
0
LINE
8
BLACK
6
CONTINUOUS
10
261.526
20
-123.274
11
261.343
21
-123.313
0
LINE
8
BLACK
6
CONTINUOUS
10
261.343
20
-123.313
11
261.18
21
-123.385
0
LINE
8
BLACK
6
CONTINUOUS
10
261.18
20
-123.385
11
261.174
21
-123.393
0
LINE
8
BLACK
6
CONTINUOUS
10
261.174
20
-123.393
11
261.164
21
-123.394
0
LINE
8
BLACK
6
CONTINUOUS
10
261.164
20
-123.394
11
261.02
21
-123.499
0
LINE
8
BLACK
6
CONTINUOUS
10
261.02
20
-123.499
11
260.894
21
-123.639
0
LINE
8
BLACK
6
CONTINUOUS
10
260.894
20
-123.639
11
260.8
21
-123.801
0
LINE
8
BLACK
6
CONTINUOUS
10
260.8
20
-123.801
11
260.742
21
-123.979
0
LINE
8
BLACK
6
CONTINUOUS
10
260.742
20
-123.979
11
260.723
21
-124.166
0
LINE
8
BLACK
6
CONTINUOUS
10
260.723
20
-124.166
11
260.742
21
-124.353
0
LINE
8
BLACK
6
CONTINUOUS
10
260.742
20
-124.353
11
260.8
21
-124.531
0
LINE
8
BLACK
6
CONTINUOUS
10
242.85
20
-123.956
11
242.909
21
-123.767
0
LINE
8
BLACK
6
CONTINUOUS
10
242.909
20
-123.767
11
243.005
21
-123.594
0
LINE
8
BLACK
6
CONTINUOUS
10
243.005
20
-123.594
11
243.132
21
-123.443
0
LINE
8
BLACK
6
CONTINUOUS
10
243.132
20
-123.443
11
243.283
21
-123.321
0
LINE
8
BLACK
6
CONTINUOUS
10
243.283
20
-123.321
11
242.994
21
-122.821
0
LINE
8
BLACK
6
CONTINUOUS
10
242.994
20
-122.821
11
242.988
21
-122.775
0
LINE
8
BLACK
6
CONTINUOUS
10
242.988
20
-122.775
11
243.016
21
-122.739
0
LINE
8
BLACK
6
CONTINUOUS
10
243.016
20
-122.739
11
243.062
21
-122.733
0
LINE
8
BLACK
6
CONTINUOUS
10
243.062
20
-122.733
11
243.098
21
-122.761
0
LINE
8
BLACK
6
CONTINUOUS
10
243.098
20
-122.761
11
243.389
21
-123.265
0
LINE
8
BLACK
6
CONTINUOUS
10
243.389
20
-123.265
11
243.461
21
-123.227
0
LINE
8
BLACK
6
CONTINUOUS
10
243.461
20
-123.227
11
243.65
21
-123.171
0
LINE
8
BLACK
6
CONTINUOUS
10
243.65
20
-123.171
11
243.847
21
-123.154
0
LINE
8
BLACK
6
CONTINUOUS
10
243.847
20
-123.154
11
244.044
21
-123.174
0
LINE
8
BLACK
6
CONTINUOUS
10
244.044
20
-123.174
11
244.232
21
-123.233
0
LINE
8
BLACK
6
CONTINUOUS
10
244.232
20
-123.233
11
244.291
21
-123.264
0
LINE
8
BLACK
6
CONTINUOUS
10
244.291
20
-123.264
11
244.582
21
-122.761
0
LINE
8
BLACK
6
CONTINUOUS
10
244.582
20
-122.761
11
244.618
21
-122.733
0
LINE
8
BLACK
6
CONTINUOUS
10
244.618
20
-122.733
11
244.664
21
-122.739
0
LINE
8
BLACK
6
CONTINUOUS
10
244.664
20
-122.739
11
244.692
21
-122.775
0
LINE
8
BLACK
6
CONTINUOUS
10
244.692
20
-122.775
11
244.686
21
-122.821
0
LINE
8
BLACK
6
CONTINUOUS
10
244.686
20
-122.821
11
244.397
21
-123.322
0
LINE
8
BLACK
6
CONTINUOUS
10
244.397
20
-123.322
11
244.406
21
-123.327
0
LINE
8
BLACK
6
CONTINUOUS
10
244.406
20
-123.327
11
244.558
21
-123.453
0
LINE
8
BLACK
6
CONTINUOUS
10
244.558
20
-123.453
11
244.683
21
-123.606
0
LINE
8
BLACK
6
CONTINUOUS
10
244.683
20
-123.606
11
244.776
21
-123.78
0
LINE
8
BLACK
6
CONTINUOUS
10
244.776
20
-123.78
11
244.833
21
-123.969
0
LINE
8
BLACK
6
CONTINUOUS
10
244.833
20
-123.969
11
244.852
21
-124.166
0
LINE
8
BLACK
6
CONTINUOUS
10
244.852
20
-124.166
11
244.852
21
-124.194
0
LINE
8
BLACK
6
CONTINUOUS
10
244.852
20
-124.194
11
244.827
21
-124.39
0
LINE
8
BLACK
6
CONTINUOUS
10
244.827
20
-124.39
11
244.765
21
-124.578
0
LINE
8
BLACK
6
CONTINUOUS
10
244.765
20
-124.578
11
244.667
21
-124.75
0
LINE
8
BLACK
6
CONTINUOUS
10
244.667
20
-124.75
11
244.538
21
-124.899
0
LINE
8
BLACK
6
CONTINUOUS
10
244.538
20
-124.899
11
244.383
21
-125.021
0
LINE
8
BLACK
6
CONTINUOUS
10
244.383
20
-125.021
11
244.206
21
-125.11
0
LINE
8
BLACK
6
CONTINUOUS
10
244.206
20
-125.11
11
244.016
21
-125.163
0
LINE
8
BLACK
6
CONTINUOUS
10
244.016
20
-125.163
11
243.819
21
-125.178
0
LINE
8
BLACK
6
CONTINUOUS
10
243.819
20
-125.178
11
243.623
21
-125.155
0
LINE
8
BLACK
6
CONTINUOUS
10
243.623
20
-125.155
11
243.435
21
-125.094
0
LINE
8
BLACK
6
CONTINUOUS
10
243.435
20
-125.094
11
243.389
21
-125.068
0
LINE
8
BLACK
6
CONTINUOUS
10
243.389
20
-125.068
11
243.098
21
-125.571
0
LINE
8
BLACK
6
CONTINUOUS
10
243.098
20
-125.571
11
243.062
21
-125.599
0
LINE
8
BLACK
6
CONTINUOUS
10
243.062
20
-125.599
11
243.016
21
-125.593
0
LINE
8
BLACK
6
CONTINUOUS
10
243.016
20
-125.593
11
242.988
21
-125.557
0
LINE
8
BLACK
6
CONTINUOUS
10
242.988
20
-125.557
11
242.994
21
-125.511
0
LINE
8
BLACK
6
CONTINUOUS
10
242.994
20
-125.511
11
243.284
21
-125.01
0
LINE
8
BLACK
6
CONTINUOUS
10
243.284
20
-125.01
11
243.262
21
-124.997
0
LINE
8
BLACK
6
CONTINUOUS
10
243.262
20
-124.997
11
243.112
21
-124.869
0
LINE
8
BLACK
6
CONTINUOUS
10
243.112
20
-124.869
11
242.989
21
-124.715
0
LINE
8
BLACK
6
CONTINUOUS
10
242.989
20
-124.715
11
242.899
21
-124.539
0
LINE
8
BLACK
6
CONTINUOUS
10
242.899
20
-124.539
11
242.844
21
-124.349
0
LINE
8
BLACK
6
CONTINUOUS
10
242.844
20
-124.349
11
242.829
21
-124.166
0
LINE
8
BLACK
6
CONTINUOUS
10
242.829
20
-124.166
11
242.828
21
-124.152
0
LINE
8
BLACK
6
CONTINUOUS
10
242.828
20
-124.152
11
242.85
21
-123.956
0
LINE
8
BLACK
6
CONTINUOUS
10
243.02
20
-124.531
11
243.114
21
-124.694
0
LINE
8
BLACK
6
CONTINUOUS
10
243.114
20
-124.694
11
243.24
21
-124.833
0
LINE
8
BLACK
6
CONTINUOUS
10
243.24
20
-124.833
11
243.384
21
-124.938
0
LINE
8
BLACK
6
CONTINUOUS
10
243.384
20
-124.938
11
243.394
21
-124.939
0
LINE
8
BLACK
6
CONTINUOUS
10
243.394
20
-124.939
11
243.4
21
-124.947
0
LINE
8
BLACK
6
CONTINUOUS
10
243.4
20
-124.947
11
243.563
21
-125.02
0
LINE
8
BLACK
6
CONTINUOUS
10
243.563
20
-125.02
11
243.746
21
-125.059
0
LINE
8
BLACK
6
CONTINUOUS
10
243.746
20
-125.059
11
243.934
21
-125.059
0
LINE
8
BLACK
6
CONTINUOUS
10
243.934
20
-125.059
11
244.117
21
-125.02
0
LINE
8
BLACK
6
CONTINUOUS
10
244.117
20
-125.02
11
244.289
21
-124.943
0
LINE
8
BLACK
6
CONTINUOUS
10
244.289
20
-124.943
11
244.44
21
-124.833
0
LINE
8
BLACK
6
CONTINUOUS
10
244.44
20
-124.833
11
244.566
21
-124.694
0
LINE
8
BLACK
6
CONTINUOUS
10
244.566
20
-124.694
11
244.66
21
-124.531
0
LINE
8
BLACK
6
CONTINUOUS
10
244.66
20
-124.531
11
244.718
21
-124.353
0
LINE
8
BLACK
6
CONTINUOUS
10
244.718
20
-124.353
11
244.737
21
-124.166
0
LINE
8
BLACK
6
CONTINUOUS
10
244.737
20
-124.166
11
244.718
21
-123.979
0
LINE
8
BLACK
6
CONTINUOUS
10
244.718
20
-123.979
11
244.66
21
-123.801
0
LINE
8
BLACK
6
CONTINUOUS
10
244.66
20
-123.801
11
244.566
21
-123.639
0
LINE
8
BLACK
6
CONTINUOUS
10
244.566
20
-123.639
11
244.44
21
-123.499
0
LINE
8
BLACK
6
CONTINUOUS
10
244.44
20
-123.499
11
244.296
21
-123.394
0
LINE
8
BLACK
6
CONTINUOUS
10
244.296
20
-123.394
11
244.286
21
-123.393
0
LINE
8
BLACK
6
CONTINUOUS
10
244.286
20
-123.393
11
244.28
21
-123.385
0
LINE
8
BLACK
6
CONTINUOUS
10
244.28
20
-123.385
11
244.117
21
-123.313
0
LINE
8
BLACK
6
CONTINUOUS
10
244.117
20
-123.313
11
243.934
21
-123.274
0
LINE
8
BLACK
6
CONTINUOUS
10
243.934
20
-123.274
11
243.746
21
-123.274
0
LINE
8
BLACK
6
CONTINUOUS
10
243.746
20
-123.274
11
243.563
21
-123.313
0
LINE
8
BLACK
6
CONTINUOUS
10
243.563
20
-123.313
11
243.4
21
-123.385
0
LINE
8
BLACK
6
CONTINUOUS
10
243.4
20
-123.385
11
243.394
21
-123.393
0
LINE
8
BLACK
6
CONTINUOUS
10
243.394
20
-123.393
11
243.384
21
-123.394
0
LINE
8
BLACK
6
CONTINUOUS
10
243.384
20
-123.394
11
243.24
21
-123.499
0
LINE
8
BLACK
6
CONTINUOUS
10
243.24
20
-123.499
11
243.114
21
-123.639
0
LINE
8
BLACK
6
CONTINUOUS
10
243.114
20
-123.639
11
243.02
21
-123.801
0
LINE
8
BLACK
6
CONTINUOUS
10
243.02
20
-123.801
11
242.962
21
-123.979
0
LINE
8
BLACK
6
CONTINUOUS
10
242.962
20
-123.979
11
242.943
21
-124.166
0
LINE
8
BLACK
6
CONTINUOUS
10
242.943
20
-124.166
11
242.962
21
-124.353
0
LINE
8
BLACK
6
CONTINUOUS
10
242.962
20
-124.353
11
243.02
21
-124.531
0
LINE
8
BLACK
6
CONTINUOUS
10
258.09
20
-123.956
11
258.149
21
-123.767
0
LINE
8
BLACK
6
CONTINUOUS
10
258.149
20
-123.767
11
258.245
21
-123.594
0
LINE
8
BLACK
6
CONTINUOUS
10
258.245
20
-123.594
11
258.372
21
-123.443
0
LINE
8
BLACK
6
CONTINUOUS
10
258.372
20
-123.443
11
258.523
21
-123.321
0
LINE
8
BLACK
6
CONTINUOUS
10
258.523
20
-123.321
11
258.234
21
-122.821
0
LINE
8
BLACK
6
CONTINUOUS
10
258.234
20
-122.821
11
258.228
21
-122.775
0
LINE
8
BLACK
6
CONTINUOUS
10
258.228
20
-122.775
11
258.256
21
-122.739
0
LINE
8
BLACK
6
CONTINUOUS
10
258.256
20
-122.739
11
258.302
21
-122.733
0
LINE
8
BLACK
6
CONTINUOUS
10
258.302
20
-122.733
11
258.338
21
-122.761
0
LINE
8
BLACK
6
CONTINUOUS
10
258.338
20
-122.761
11
258.629
21
-123.265
0
LINE
8
BLACK
6
CONTINUOUS
10
258.629
20
-123.265
11
258.701
21
-123.227
0
LINE
8
BLACK
6
CONTINUOUS
10
258.701
20
-123.227
11
258.89
21
-123.171
0
LINE
8
BLACK
6
CONTINUOUS
10
258.89
20
-123.171
11
259.087
21
-123.154
0
LINE
8
BLACK
6
CONTINUOUS
10
259.087
20
-123.154
11
259.284
21
-123.174
0
LINE
8
BLACK
6
CONTINUOUS
10
259.284
20
-123.174
11
259.472
21
-123.233
0
LINE
8
BLACK
6
CONTINUOUS
10
259.472
20
-123.233
11
259.646
21
-123.327
0
LINE
8
BLACK
6
CONTINUOUS
10
259.646
20
-123.327
11
259.798
21
-123.453
0
LINE
8
BLACK
6
CONTINUOUS
10
259.798
20
-123.453
11
259.923
21
-123.606
0
LINE
8
BLACK
6
CONTINUOUS
10
259.923
20
-123.606
11
260.016
21
-123.78
0
LINE
8
BLACK
6
CONTINUOUS
10
260.016
20
-123.78
11
260.073
21
-123.969
0
LINE
8
BLACK
6
CONTINUOUS
10
260.073
20
-123.969
11
260.092
21
-124.166
0
LINE
8
BLACK
6
CONTINUOUS
10
260.092
20
-124.166
11
260.092
21
-124.194
0
LINE
8
BLACK
6
CONTINUOUS
10
260.092
20
-124.194
11
260.067
21
-124.39
0
LINE
8
BLACK
6
CONTINUOUS
10
260.067
20
-124.39
11
260.005
21
-124.578
0
LINE
8
BLACK
6
CONTINUOUS
10
260.005
20
-124.578
11
259.907
21
-124.75
0
LINE
8
BLACK
6
CONTINUOUS
10
259.907
20
-124.75
11
259.778
21
-124.899
0
LINE
8
BLACK
6
CONTINUOUS
10
259.778
20
-124.899
11
259.636
21
-125.01
0
LINE
8
BLACK
6
CONTINUOUS
10
259.636
20
-125.01
11
259.926
21
-125.511
0
LINE
8
BLACK
6
CONTINUOUS
10
259.926
20
-125.511
11
259.932
21
-125.557
0
LINE
8
BLACK
6
CONTINUOUS
10
259.932
20
-125.557
11
259.904
21
-125.593
0
LINE
8
BLACK
6
CONTINUOUS
10
259.904
20
-125.593
11
259.858
21
-125.599
0
LINE
8
BLACK
6
CONTINUOUS
10
259.858
20
-125.599
11
259.822
21
-125.571
0
LINE
8
BLACK
6
CONTINUOUS
10
259.822
20
-125.571
11
259.531
21
-125.067
0
LINE
8
BLACK
6
CONTINUOUS
10
259.531
20
-125.067
11
259.446
21
-125.11
0
LINE
8
BLACK
6
CONTINUOUS
10
259.446
20
-125.11
11
259.256
21
-125.163
0
LINE
8
BLACK
6
CONTINUOUS
10
259.256
20
-125.163
11
259.059
21
-125.178
0
LINE
8
BLACK
6
CONTINUOUS
10
259.059
20
-125.178
11
258.863
21
-125.155
0
LINE
8
BLACK
6
CONTINUOUS
10
258.863
20
-125.155
11
258.675
21
-125.094
0
LINE
8
BLACK
6
CONTINUOUS
10
258.675
20
-125.094
11
258.502
21
-124.997
0
LINE
8
BLACK
6
CONTINUOUS
10
258.502
20
-124.997
11
258.352
21
-124.869
0
LINE
8
BLACK
6
CONTINUOUS
10
258.352
20
-124.869
11
258.229
21
-124.715
0
LINE
8
BLACK
6
CONTINUOUS
10
258.229
20
-124.715
11
258.139
21
-124.539
0
LINE
8
BLACK
6
CONTINUOUS
10
258.139
20
-124.539
11
258.084
21
-124.349
0
LINE
8
BLACK
6
CONTINUOUS
10
258.084
20
-124.349
11
258.069
21
-124.166
0
LINE
8
BLACK
6
CONTINUOUS
10
258.069
20
-124.166
11
258.068
21
-124.152
0
LINE
8
BLACK
6
CONTINUOUS
10
258.068
20
-124.152
11
258.09
21
-123.956
0
LINE
8
BLACK
6
CONTINUOUS
10
258.26
20
-124.531
11
258.354
21
-124.694
0
LINE
8
BLACK
6
CONTINUOUS
10
258.354
20
-124.694
11
258.48
21
-124.833
0
LINE
8
BLACK
6
CONTINUOUS
10
258.48
20
-124.833
11
258.631
21
-124.943
0
LINE
8
BLACK
6
CONTINUOUS
10
258.631
20
-124.943
11
258.803
21
-125.02
0
LINE
8
BLACK
6
CONTINUOUS
10
258.803
20
-125.02
11
258.986
21
-125.059
0
LINE
8
BLACK
6
CONTINUOUS
10
258.986
20
-125.059
11
259.174
21
-125.059
0
LINE
8
BLACK
6
CONTINUOUS
10
259.174
20
-125.059
11
259.357
21
-125.02
0
LINE
8
BLACK
6
CONTINUOUS
10
259.357
20
-125.02
11
259.52
21
-124.947
0
LINE
8
BLACK
6
CONTINUOUS
10
259.52
20
-124.947
11
259.526
21
-124.939
0
LINE
8
BLACK
6
CONTINUOUS
10
259.526
20
-124.939
11
259.536
21
-124.938
0
LINE
8
BLACK
6
CONTINUOUS
10
259.536
20
-124.938
11
259.68
21
-124.833
0
LINE
8
BLACK
6
CONTINUOUS
10
259.68
20
-124.833
11
259.806
21
-124.694
0
LINE
8
BLACK
6
CONTINUOUS
10
259.806
20
-124.694
11
259.9
21
-124.531
0
LINE
8
BLACK
6
CONTINUOUS
10
259.9
20
-124.531
11
259.958
21
-124.353
0
LINE
8
BLACK
6
CONTINUOUS
10
259.958
20
-124.353
11
259.977
21
-124.166
0
LINE
8
BLACK
6
CONTINUOUS
10
259.977
20
-124.166
11
259.958
21
-123.979
0
LINE
8
BLACK
6
CONTINUOUS
10
259.958
20
-123.979
11
259.9
21
-123.801
0
LINE
8
BLACK
6
CONTINUOUS
10
259.9
20
-123.801
11
259.806
21
-123.639
0
LINE
8
BLACK
6
CONTINUOUS
10
259.806
20
-123.639
11
259.68
21
-123.499
0
LINE
8
BLACK
6
CONTINUOUS
10
259.68
20
-123.499
11
259.529
21
-123.389
0
LINE
8
BLACK
6
CONTINUOUS
10
259.529
20
-123.389
11
259.357
21
-123.313
0
LINE
8
BLACK
6
CONTINUOUS
10
259.357
20
-123.313
11
259.174
21
-123.274
0
LINE
8
BLACK
6
CONTINUOUS
10
259.174
20
-123.274
11
258.986
21
-123.274
0
LINE
8
BLACK
6
CONTINUOUS
10
258.986
20
-123.274
11
258.803
21
-123.313
0
LINE
8
BLACK
6
CONTINUOUS
10
258.803
20
-123.313
11
258.64
21
-123.385
0
LINE
8
BLACK
6
CONTINUOUS
10
258.64
20
-123.385
11
258.634
21
-123.393
0
LINE
8
BLACK
6
CONTINUOUS
10
258.634
20
-123.393
11
258.624
21
-123.394
0
LINE
8
BLACK
6
CONTINUOUS
10
258.624
20
-123.394
11
258.48
21
-123.499
0
LINE
8
BLACK
6
CONTINUOUS
10
258.48
20
-123.499
11
258.354
21
-123.639
0
LINE
8
BLACK
6
CONTINUOUS
10
258.354
20
-123.639
11
258.26
21
-123.801
0
LINE
8
BLACK
6
CONTINUOUS
10
258.26
20
-123.801
11
258.202
21
-123.979
0
LINE
8
BLACK
6
CONTINUOUS
10
258.202
20
-123.979
11
258.183
21
-124.166
0
LINE
8
BLACK
6
CONTINUOUS
10
258.183
20
-124.166
11
258.202
21
-124.353
0
LINE
8
BLACK
6
CONTINUOUS
10
258.202
20
-124.353
11
258.26
21
-124.531
0
LINE
8
BLACK
6
CONTINUOUS
10
263.17
20
-123.956
11
263.229
21
-123.767
0
LINE
8
BLACK
6
CONTINUOUS
10
263.229
20
-123.767
11
263.325
21
-123.594
0
LINE
8
BLACK
6
CONTINUOUS
10
263.325
20
-123.594
11
263.452
21
-123.443
0
LINE
8
BLACK
6
CONTINUOUS
10
263.452
20
-123.443
11
263.603
21
-123.321
0
LINE
8
BLACK
6
CONTINUOUS
10
263.603
20
-123.321
11
263.314
21
-122.821
0
LINE
8
BLACK
6
CONTINUOUS
10
263.314
20
-122.821
11
263.308
21
-122.775
0
LINE
8
BLACK
6
CONTINUOUS
10
263.308
20
-122.775
11
263.336
21
-122.739
0
LINE
8
BLACK
6
CONTINUOUS
10
263.336
20
-122.739
11
263.382
21
-122.733
0
LINE
8
BLACK
6
CONTINUOUS
10
263.382
20
-122.733
11
263.418
21
-122.761
0
LINE
8
BLACK
6
CONTINUOUS
10
263.418
20
-122.761
11
263.709
21
-123.265
0
LINE
8
BLACK
6
CONTINUOUS
10
263.709
20
-123.265
11
263.781
21
-123.227
0
LINE
8
BLACK
6
CONTINUOUS
10
263.781
20
-123.227
11
263.97
21
-123.171
0
LINE
8
BLACK
6
CONTINUOUS
10
263.97
20
-123.171
11
264.167
21
-123.154
0
LINE
8
BLACK
6
CONTINUOUS
10
264.167
20
-123.154
11
264.364
21
-123.174
0
LINE
8
BLACK
6
CONTINUOUS
10
264.364
20
-123.174
11
264.552
21
-123.233
0
LINE
8
BLACK
6
CONTINUOUS
10
264.552
20
-123.233
11
264.611
21
-123.264
0
LINE
8
BLACK
6
CONTINUOUS
10
264.611
20
-123.264
11
264.902
21
-122.761
0
LINE
8
BLACK
6
CONTINUOUS
10
264.902
20
-122.761
11
264.938
21
-122.733
0
LINE
8
BLACK
6
CONTINUOUS
10
264.938
20
-122.733
11
264.984
21
-122.739
0
LINE
8
BLACK
6
CONTINUOUS
10
264.984
20
-122.739
11
265.012
21
-122.775
0
LINE
8
BLACK
6
CONTINUOUS
10
265.012
20
-122.775
11
265.006
21
-122.821
0
LINE
8
BLACK
6
CONTINUOUS
10
265.006
20
-122.821
11
264.717
21
-123.322
0
LINE
8
BLACK
6
CONTINUOUS
10
264.717
20
-123.322
11
264.726
21
-123.327
0
LINE
8
BLACK
6
CONTINUOUS
10
264.726
20
-123.327
11
264.878
21
-123.453
0
LINE
8
BLACK
6
CONTINUOUS
10
264.878
20
-123.453
11
265.003
21
-123.606
0
LINE
8
BLACK
6
CONTINUOUS
10
265.003
20
-123.606
11
265.096
21
-123.78
0
LINE
8
BLACK
6
CONTINUOUS
10
265.096
20
-123.78
11
265.153
21
-123.969
0
LINE
8
BLACK
6
CONTINUOUS
10
265.153
20
-123.969
11
265.173
21
-124.166
0
LINE
8
BLACK
6
CONTINUOUS
10
265.173
20
-124.166
11
265.172
21
-124.194
0
LINE
8
BLACK
6
CONTINUOUS
10
265.172
20
-124.194
11
265.147
21
-124.39
0
LINE
8
BLACK
6
CONTINUOUS
10
265.147
20
-124.39
11
265.085
21
-124.578
0
LINE
8
BLACK
6
CONTINUOUS
10
265.085
20
-124.578
11
264.987
21
-124.75
0
LINE
8
BLACK
6
CONTINUOUS
10
264.987
20
-124.75
11
264.858
21
-124.899
0
LINE
8
BLACK
6
CONTINUOUS
10
264.858
20
-124.899
11
264.716
21
-125.01
0
LINE
8
BLACK
6
CONTINUOUS
10
264.716
20
-125.01
11
265.006
21
-125.511
0
LINE
8
BLACK
6
CONTINUOUS
10
265.006
20
-125.511
11
265.012
21
-125.557
0
LINE
8
BLACK
6
CONTINUOUS
10
265.012
20
-125.557
11
264.984
21
-125.593
0
LINE
8
BLACK
6
CONTINUOUS
10
264.984
20
-125.593
11
264.938
21
-125.599
0
LINE
8
BLACK
6
CONTINUOUS
10
264.938
20
-125.599
11
264.902
21
-125.571
0
LINE
8
BLACK
6
CONTINUOUS
10
264.902
20
-125.571
11
264.611
21
-125.067
0
LINE
8
BLACK
6
CONTINUOUS
10
264.611
20
-125.067
11
264.526
21
-125.11
0
LINE
8
BLACK
6
CONTINUOUS
10
264.526
20
-125.11
11
264.336
21
-125.163
0
LINE
8
BLACK
6
CONTINUOUS
10
264.336
20
-125.163
11
264.139
21
-125.178
0
LINE
8
BLACK
6
CONTINUOUS
10
264.139
20
-125.178
11
263.943
21
-125.155
0
LINE
8
BLACK
6
CONTINUOUS
10
263.943
20
-125.155
11
263.755
21
-125.094
0
LINE
8
BLACK
6
CONTINUOUS
10
263.755
20
-125.094
11
263.582
21
-124.997
0
LINE
8
BLACK
6
CONTINUOUS
10
263.582
20
-124.997
11
263.432
21
-124.869
0
LINE
8
BLACK
6
CONTINUOUS
10
263.432
20
-124.869
11
263.309
21
-124.715
0
LINE
8
BLACK
6
CONTINUOUS
10
263.309
20
-124.715
11
263.219
21
-124.539
0
LINE
8
BLACK
6
CONTINUOUS
10
263.219
20
-124.539
11
263.164
21
-124.349
0
LINE
8
BLACK
6
CONTINUOUS
10
263.164
20
-124.349
11
263.149
21
-124.166
0
LINE
8
BLACK
6
CONTINUOUS
10
263.149
20
-124.166
11
263.148
21
-124.152
0
LINE
8
BLACK
6
CONTINUOUS
10
263.148
20
-124.152
11
263.17
21
-123.956
0
LINE
8
BLACK
6
CONTINUOUS
10
263.34
20
-124.531
11
263.434
21
-124.694
0
LINE
8
BLACK
6
CONTINUOUS
10
263.434
20
-124.694
11
263.56
21
-124.833
0
LINE
8
BLACK
6
CONTINUOUS
10
263.56
20
-124.833
11
263.711
21
-124.943
0
LINE
8
BLACK
6
CONTINUOUS
10
263.711
20
-124.943
11
263.883
21
-125.02
0
LINE
8
BLACK
6
CONTINUOUS
10
263.883
20
-125.02
11
264.066
21
-125.059
0
LINE
8
BLACK
6
CONTINUOUS
10
264.066
20
-125.059
11
264.254
21
-125.059
0
LINE
8
BLACK
6
CONTINUOUS
10
264.254
20
-125.059
11
264.437
21
-125.02
0
LINE
8
BLACK
6
CONTINUOUS
10
264.437
20
-125.02
11
264.6
21
-124.947
0
LINE
8
BLACK
6
CONTINUOUS
10
264.6
20
-124.947
11
264.606
21
-124.939
0
LINE
8
BLACK
6
CONTINUOUS
10
264.606
20
-124.939
11
264.616
21
-124.938
0
LINE
8
BLACK
6
CONTINUOUS
10
264.616
20
-124.938
11
264.76
21
-124.833
0
LINE
8
BLACK
6
CONTINUOUS
10
264.76
20
-124.833
11
264.886
21
-124.694
0
LINE
8
BLACK
6
CONTINUOUS
10
264.886
20
-124.694
11
264.98
21
-124.531
0
LINE
8
BLACK
6
CONTINUOUS
10
264.98
20
-124.531
11
265.038
21
-124.353
0
LINE
8
BLACK
6
CONTINUOUS
10
265.038
20
-124.353
11
265.057
21
-124.166
0
LINE
8
BLACK
6
CONTINUOUS
10
265.057
20
-124.166
11
265.038
21
-123.979
0
LINE
8
BLACK
6
CONTINUOUS
10
265.038
20
-123.979
11
264.98
21
-123.801
0
LINE
8
BLACK
6
CONTINUOUS
10
264.98
20
-123.801
11
264.886
21
-123.639
0
LINE
8
BLACK
6
CONTINUOUS
10
264.886
20
-123.639
11
264.76
21
-123.499
0
LINE
8
BLACK
6
CONTINUOUS
10
264.76
20
-123.499
11
264.616
21
-123.394
0
LINE
8
BLACK
6
CONTINUOUS
10
264.616
20
-123.394
11
264.606
21
-123.393
0
LINE
8
BLACK
6
CONTINUOUS
10
264.606
20
-123.393
11
264.6
21
-123.385
0
LINE
8
BLACK
6
CONTINUOUS
10
264.6
20
-123.385
11
264.437
21
-123.313
0
LINE
8
BLACK
6
CONTINUOUS
10
264.437
20
-123.313
11
264.254
21
-123.274
0
LINE
8
BLACK
6
CONTINUOUS
10
264.254
20
-123.274
11
264.066
21
-123.274
0
LINE
8
BLACK
6
CONTINUOUS
10
264.066
20
-123.274
11
263.883
21
-123.313
0
LINE
8
BLACK
6
CONTINUOUS
10
263.883
20
-123.313
11
263.72
21
-123.385
0
LINE
8
BLACK
6
CONTINUOUS
10
263.72
20
-123.385
11
263.714
21
-123.393
0
LINE
8
BLACK
6
CONTINUOUS
10
263.714
20
-123.393
11
263.704
21
-123.394
0
LINE
8
BLACK
6
CONTINUOUS
10
263.704
20
-123.394
11
263.56
21
-123.499
0
LINE
8
BLACK
6
CONTINUOUS
10
263.56
20
-123.499
11
263.434
21
-123.639
0
LINE
8
BLACK
6
CONTINUOUS
10
263.434
20
-123.639
11
263.34
21
-123.801
0
LINE
8
BLACK
6
CONTINUOUS
10
263.34
20
-123.801
11
263.282
21
-123.979
0
LINE
8
BLACK
6
CONTINUOUS
10
263.282
20
-123.979
11
263.263
21
-124.166
0
LINE
8
BLACK
6
CONTINUOUS
10
263.263
20
-124.166
11
263.282
21
-124.353
0
LINE
8
BLACK
6
CONTINUOUS
10
263.282
20
-124.353
11
263.34
21
-124.531
0
LINE
8
BLACK
6
CONTINUOUS
10
245.39
20
-123.956
11
245.449
21
-123.767
0
LINE
8
BLACK
6
CONTINUOUS
10
245.449
20
-123.767
11
245.545
21
-123.594
0
LINE
8
BLACK
6
CONTINUOUS
10
245.545
20
-123.594
11
245.672
21
-123.443
0
LINE
8
BLACK
6
CONTINUOUS
10
245.672
20
-123.443
11
245.826
21
-123.319
0
LINE
8
BLACK
6
CONTINUOUS
10
245.826
20
-123.319
11
246.001
21
-123.227
0
LINE
8
BLACK
6
CONTINUOUS
10
246.001
20
-123.227
11
246.19
21
-123.171
0
LINE
8
BLACK
6
CONTINUOUS
10
246.19
20
-123.171
11
246.387
21
-123.154
0
LINE
8
BLACK
6
CONTINUOUS
10
246.387
20
-123.154
11
246.584
21
-123.174
0
LINE
8
BLACK
6
CONTINUOUS
10
246.584
20
-123.174
11
246.772
21
-123.233
0
LINE
8
BLACK
6
CONTINUOUS
10
246.772
20
-123.233
11
246.831
21
-123.264
0
LINE
8
BLACK
6
CONTINUOUS
10
246.831
20
-123.264
11
247.122
21
-122.761
0
LINE
8
BLACK
6
CONTINUOUS
10
247.122
20
-122.761
11
247.158
21
-122.733
0
LINE
8
BLACK
6
CONTINUOUS
10
247.158
20
-122.733
11
247.204
21
-122.739
0
LINE
8
BLACK
6
CONTINUOUS
10
247.204
20
-122.739
11
247.232
21
-122.775
0
LINE
8
BLACK
6
CONTINUOUS
10
247.232
20
-122.775
11
247.226
21
-122.821
0
LINE
8
BLACK
6
CONTINUOUS
10
247.226
20
-122.821
11
246.937
21
-123.322
0
LINE
8
BLACK
6
CONTINUOUS
10
246.937
20
-123.322
11
246.946
21
-123.327
0
LINE
8
BLACK
6
CONTINUOUS
10
246.946
20
-123.327
11
247.098
21
-123.453
0
LINE
8
BLACK
6
CONTINUOUS
10
247.098
20
-123.453
11
247.223
21
-123.606
0
LINE
8
BLACK
6
CONTINUOUS
10
247.223
20
-123.606
11
247.316
21
-123.78
0
LINE
8
BLACK
6
CONTINUOUS
10
247.316
20
-123.78
11
247.373
21
-123.969
0
LINE
8
BLACK
6
CONTINUOUS
10
247.373
20
-123.969
11
247.392
21
-124.166
0
LINE
8
BLACK
6
CONTINUOUS
10
247.392
20
-124.166
11
247.392
21
-124.194
0
LINE
8
BLACK
6
CONTINUOUS
10
247.392
20
-124.194
11
247.367
21
-124.39
0
LINE
8
BLACK
6
CONTINUOUS
10
247.367
20
-124.39
11
247.305
21
-124.578
0
LINE
8
BLACK
6
CONTINUOUS
10
247.305
20
-124.578
11
247.207
21
-124.75
0
LINE
8
BLACK
6
CONTINUOUS
10
247.207
20
-124.75
11
247.078
21
-124.899
0
LINE
8
BLACK
6
CONTINUOUS
10
247.078
20
-124.899
11
246.923
21
-125.021
0
LINE
8
BLACK
6
CONTINUOUS
10
246.923
20
-125.021
11
246.746
21
-125.11
0
LINE
8
BLACK
6
CONTINUOUS
10
246.746
20
-125.11
11
246.556
21
-125.163
0
LINE
8
BLACK
6
CONTINUOUS
10
246.556
20
-125.163
11
246.359
21
-125.178
0
LINE
8
BLACK
6
CONTINUOUS
10
246.359
20
-125.178
11
246.163
21
-125.155
0
LINE
8
BLACK
6
CONTINUOUS
10
246.163
20
-125.155
11
245.975
21
-125.094
0
LINE
8
BLACK
6
CONTINUOUS
10
245.975
20
-125.094
11
245.929
21
-125.068
0
LINE
8
BLACK
6
CONTINUOUS
10
245.929
20
-125.068
11
245.638
21
-125.571
0
LINE
8
BLACK
6
CONTINUOUS
10
245.638
20
-125.571
11
245.602
21
-125.599
0
LINE
8
BLACK
6
CONTINUOUS
10
245.602
20
-125.599
11
245.556
21
-125.593
0
LINE
8
BLACK
6
CONTINUOUS
10
245.556
20
-125.593
11
245.528
21
-125.557
0
LINE
8
BLACK
6
CONTINUOUS
10
245.528
20
-125.557
11
245.534
21
-125.511
0
LINE
8
BLACK
6
CONTINUOUS
10
245.534
20
-125.511
11
245.824
21
-125.01
0
LINE
8
BLACK
6
CONTINUOUS
10
245.824
20
-125.01
11
245.802
21
-124.997
0
LINE
8
BLACK
6
CONTINUOUS
10
245.802
20
-124.997
11
245.652
21
-124.869
0
LINE
8
BLACK
6
CONTINUOUS
10
245.652
20
-124.869
11
245.529
21
-124.715
0
LINE
8
BLACK
6
CONTINUOUS
10
245.529
20
-124.715
11
245.439
21
-124.539
0
LINE
8
BLACK
6
CONTINUOUS
10
245.439
20
-124.539
11
245.384
21
-124.349
0
LINE
8
BLACK
6
CONTINUOUS
10
245.384
20
-124.349
11
245.369
21
-124.166
0
LINE
8
BLACK
6
CONTINUOUS
10
245.369
20
-124.166
11
245.368
21
-124.152
0
LINE
8
BLACK
6
CONTINUOUS
10
245.368
20
-124.152
11
245.39
21
-123.956
0
LINE
8
BLACK
6
CONTINUOUS
10
245.56
20
-124.531
11
245.654
21
-124.694
0
LINE
8
BLACK
6
CONTINUOUS
10
245.654
20
-124.694
11
245.78
21
-124.833
0
LINE
8
BLACK
6
CONTINUOUS
10
245.78
20
-124.833
11
245.924
21
-124.938
0
LINE
8
BLACK
6
CONTINUOUS
10
245.924
20
-124.938
11
245.934
21
-124.939
0
LINE
8
BLACK
6
CONTINUOUS
10
245.934
20
-124.939
11
245.94
21
-124.947
0
LINE
8
BLACK
6
CONTINUOUS
10
245.94
20
-124.947
11
246.103
21
-125.02
0
LINE
8
BLACK
6
CONTINUOUS
10
246.103
20
-125.02
11
246.286
21
-125.059
0
LINE
8
BLACK
6
CONTINUOUS
10
246.286
20
-125.059
11
246.474
21
-125.059
0
LINE
8
BLACK
6
CONTINUOUS
10
246.474
20
-125.059
11
246.657
21
-125.02
0
LINE
8
BLACK
6
CONTINUOUS
10
246.657
20
-125.02
11
246.829
21
-124.943
0
LINE
8
BLACK
6
CONTINUOUS
10
246.829
20
-124.943
11
246.98
21
-124.833
0
LINE
8
BLACK
6
CONTINUOUS
10
246.98
20
-124.833
11
247.106
21
-124.694
0
LINE
8
BLACK
6
CONTINUOUS
10
247.106
20
-124.694
11
247.2
21
-124.531
0
LINE
8
BLACK
6
CONTINUOUS
10
247.2
20
-124.531
11
247.258
21
-124.353
0
LINE
8
BLACK
6
CONTINUOUS
10
247.258
20
-124.353
11
247.277
21
-124.166
0
LINE
8
BLACK
6
CONTINUOUS
10
247.277
20
-124.166
11
247.258
21
-123.979
0
LINE
8
BLACK
6
CONTINUOUS
10
247.258
20
-123.979
11
247.2
21
-123.801
0
LINE
8
BLACK
6
CONTINUOUS
10
247.2
20
-123.801
11
247.106
21
-123.639
0
LINE
8
BLACK
6
CONTINUOUS
10
247.106
20
-123.639
11
246.98
21
-123.499
0
LINE
8
BLACK
6
CONTINUOUS
10
246.98
20
-123.499
11
246.836
21
-123.394
0
LINE
8
BLACK
6
CONTINUOUS
10
246.836
20
-123.394
11
246.826
21
-123.393
0
LINE
8
BLACK
6
CONTINUOUS
10
246.826
20
-123.393
11
246.82
21
-123.385
0
LINE
8
BLACK
6
CONTINUOUS
10
246.82
20
-123.385
11
246.657
21
-123.313
0
LINE
8
BLACK
6
CONTINUOUS
10
246.657
20
-123.313
11
246.474
21
-123.274
0
LINE
8
BLACK
6
CONTINUOUS
10
246.474
20
-123.274
11
246.286
21
-123.274
0
LINE
8
BLACK
6
CONTINUOUS
10
246.286
20
-123.274
11
246.103
21
-123.313
0
LINE
8
BLACK
6
CONTINUOUS
10
246.103
20
-123.313
11
245.931
21
-123.389
0
LINE
8
BLACK
6
CONTINUOUS
10
245.931
20
-123.389
11
245.78
21
-123.499
0
LINE
8
BLACK
6
CONTINUOUS
10
245.78
20
-123.499
11
245.654
21
-123.639
0
LINE
8
BLACK
6
CONTINUOUS
10
245.654
20
-123.639
11
245.56
21
-123.801
0
LINE
8
BLACK
6
CONTINUOUS
10
245.56
20
-123.801
11
245.502
21
-123.979
0
LINE
8
BLACK
6
CONTINUOUS
10
245.502
20
-123.979
11
245.483
21
-124.166
0
LINE
8
BLACK
6
CONTINUOUS
10
245.483
20
-124.166
11
245.502
21
-124.353
0
LINE
8
BLACK
6
CONTINUOUS
10
245.502
20
-124.353
11
245.56
21
-124.531
0
LINE
8
BLACK
6
CONTINUOUS
10
255.255
20
-64.4903
11
255.257
21
-64.4898
0
LINE
8
BLACK
6
CONTINUOUS
10
255.257
20
-64.4898
11
255.26
21
-64.4912
0
LINE
8
BLACK
6
CONTINUOUS
10
255.26
20
-64.4912
11
255.276
21
-64.4941
0
LINE
8
BLACK
6
CONTINUOUS
10
255.276
20
-64.4941
11
255.288
21
-64.5046
0
LINE
8
BLACK
6
CONTINUOUS
10
255.288
20
-64.5046
11
255.303
21
-64.5115
0
LINE
8
BLACK
6
CONTINUOUS
10
255.303
20
-64.5115
11
256.803
21
-66.0115
0
LINE
8
BLACK
6
CONTINUOUS
10
256.803
20
-66.0115
11
256.806
21
-66.0153
0
LINE
8
BLACK
6
CONTINUOUS
10
256.806
20
-66.0153
11
256.807
21
-66.0163
0
LINE
8
BLACK
6
CONTINUOUS
10
256.807
20
-66.0163
11
256.809
21
-66.0194
0
LINE
8
BLACK
6
CONTINUOUS
10
256.809
20
-66.0194
11
256.818
21
-66.0328
0
LINE
8
BLACK
6
CONTINUOUS
10
256.818
20
-66.0328
11
256.819
21
-66.0491
0
LINE
8
BLACK
6
CONTINUOUS
10
256.819
20
-66.0491
11
256.825
21
-66.0645
0
LINE
8
BLACK
6
CONTINUOUS
10
256.825
20
-66.0645
11
256.825
21
-68.5645
0
LINE
8
BLACK
6
CONTINUOUS
10
256.825
20
-68.5645
11
256.824
21
-68.5691
0
LINE
8
BLACK
6
CONTINUOUS
10
256.824
20
-68.5691
11
256.825
21
-68.5711
0
LINE
8
BLACK
6
CONTINUOUS
10
256.825
20
-68.5711
11
256.823
21
-68.5741
0
LINE
8
BLACK
6
CONTINUOUS
10
256.823
20
-68.5741
11
256.82
21
-68.5902
0
LINE
8
BLACK
6
CONTINUOUS
10
256.82
20
-68.5902
11
256.81
21
-68.6027
0
LINE
8
BLACK
6
CONTINUOUS
10
256.81
20
-68.6027
11
256.803
21
-68.6176
0
LINE
8
BLACK
6
CONTINUOUS
10
256.803
20
-68.6176
11
255.303
21
-70.1176
0
LINE
8
BLACK
6
CONTINUOUS
10
255.303
20
-70.1176
11
255.299
21
-70.1202
0
LINE
8
BLACK
6
CONTINUOUS
10
255.299
20
-70.1202
11
255.298
21
-70.122
0
LINE
8
BLACK
6
CONTINUOUS
10
255.298
20
-70.122
11
255.295
21
-70.1231
0
LINE
8
BLACK
6
CONTINUOUS
10
255.295
20
-70.1231
11
255.282
21
-70.1325
0
LINE
8
BLACK
6
CONTINUOUS
10
255.282
20
-70.1325
11
255.265
21
-70.1339
0
LINE
8
BLACK
6
CONTINUOUS
10
255.265
20
-70.1339
11
255.25
21
-70.1395
0
LINE
8
BLACK
6
CONTINUOUS
10
255.25
20
-70.1395
11
252.75
21
-70.1395
0
LINE
8
BLACK
6
CONTINUOUS
10
252.75
20
-70.1395
11
252.745
21
-70.1387
0
LINE
8
BLACK
6
CONTINUOUS
10
252.745
20
-70.1387
11
252.743
21
-70.1392
0
LINE
8
BLACK
6
CONTINUOUS
10
252.743
20
-70.1392
11
252.74
21
-70.1379
0
LINE
8
BLACK
6
CONTINUOUS
10
252.74
20
-70.1379
11
252.724
21
-70.135
0
LINE
8
BLACK
6
CONTINUOUS
10
252.724
20
-70.135
11
252.712
21
-70.1245
0
LINE
8
BLACK
6
CONTINUOUS
10
252.712
20
-70.1245
11
252.697
21
-70.1176
0
LINE
8
BLACK
6
CONTINUOUS
10
252.697
20
-70.1176
11
251.197
21
-68.6176
0
LINE
8
BLACK
6
CONTINUOUS
10
251.197
20
-68.6176
11
251.194
21
-68.6138
0
LINE
8
BLACK
6
CONTINUOUS
10
251.194
20
-68.6138
11
251.193
21
-68.6127
0
LINE
8
BLACK
6
CONTINUOUS
10
251.193
20
-68.6127
11
251.191
21
-68.6096
0
LINE
8
BLACK
6
CONTINUOUS
10
251.191
20
-68.6096
11
251.182
21
-68.5962
0
LINE
8
BLACK
6
CONTINUOUS
10
251.182
20
-68.5962
11
251.181
21
-68.5799
0
LINE
8
BLACK
6
CONTINUOUS
10
251.181
20
-68.5799
11
251.175
21
-68.5645
0
LINE
8
BLACK
6
CONTINUOUS
10
251.175
20
-68.5645
11
251.175
21
-66.0645
0
LINE
8
BLACK
6
CONTINUOUS
10
251.175
20
-66.0645
11
251.176
21
-66.0599
0
LINE
8
BLACK
6
CONTINUOUS
10
251.176
20
-66.0599
11
251.175
21
-66.058
0
LINE
8
BLACK
6
CONTINUOUS
10
251.175
20
-66.058
11
251.177
21
-66.055
0
LINE
8
BLACK
6
CONTINUOUS
10
251.177
20
-66.055
11
251.18
21
-66.0389
0
LINE
8
BLACK
6
CONTINUOUS
10
251.18
20
-66.0389
11
251.19
21
-66.0263
0
LINE
8
BLACK
6
CONTINUOUS
10
251.19
20
-66.0263
11
251.197
21
-66.0115
0
LINE
8
BLACK
6
CONTINUOUS
10
251.197
20
-66.0115
11
252.697
21
-64.5115
0
LINE
8
BLACK
6
CONTINUOUS
10
252.697
20
-64.5115
11
252.701
21
-64.5088
0
LINE
8
BLACK
6
CONTINUOUS
10
252.701
20
-64.5088
11
252.702
21
-64.5071
0
LINE
8
BLACK
6
CONTINUOUS
10
252.702
20
-64.5071
11
252.705
21
-64.506
0
LINE
8
BLACK
6
CONTINUOUS
10
252.705
20
-64.506
11
252.718
21
-64.4966
0
LINE
8
BLACK
6
CONTINUOUS
10
252.718
20
-64.4966
11
252.735
21
-64.4951
0
LINE
8
BLACK
6
CONTINUOUS
10
252.735
20
-64.4951
11
252.75
21
-64.4895
0
LINE
8
BLACK
6
CONTINUOUS
10
252.75
20
-64.4895
11
255.25
21
-64.4895
0
LINE
8
BLACK
6
CONTINUOUS
10
255.25
20
-64.4895
11
255.255
21
-64.4903
0
LINE
8
BLACK
6
CONTINUOUS
10
252.781
20
-64.6395
11
251.325
21
-66.0956
0
LINE
8
BLACK
6
CONTINUOUS
10
251.325
20
-66.0956
11
251.325
21
-68.5335
0
LINE
8
BLACK
6
CONTINUOUS
10
251.325
20
-68.5335
11
252.781
21
-69.9895
0
LINE
8
BLACK
6
CONTINUOUS
10
252.781
20
-69.9895
11
255.219
21
-69.9895
0
LINE
8
BLACK
6
CONTINUOUS
10
255.219
20
-69.9895
11
256.675
21
-68.5335
0
LINE
8
BLACK
6
CONTINUOUS
10
256.675
20
-68.5335
11
256.675
21
-66.0956
0
LINE
8
BLACK
6
CONTINUOUS
10
256.675
20
-66.0956
11
255.219
21
-64.6395
0
LINE
8
BLACK
6
CONTINUOUS
10
255.219
20
-64.6395
11
252.781
21
-64.6395
0
CIRCLE
8
BLACK
10
207.979
20
-159.261
40
0.2
0
CIRCLE
8
BLACK
10
208.462
20
-160.428
40
0.2
0
CIRCLE
8
BLACK
10
205.646
20
-159.261
40
0.2
0
CIRCLE
8
BLACK
10
205.162
20
-160.428
40
0.2
0
CIRCLE
8
BLACK
10
205.646
20
-161.595
40
0.2
0
CIRCLE
8
BLACK
10
206.812
20
-160.428
40
1.1
0
CIRCLE
8
BLACK
10
206.812
20
-162.078
40
0.2
0
CIRCLE
8
BLACK
10
207.979
20
-161.595
40
0.2
0
CIRCLE
8
BLACK
10
206.812
20
-158.778
40
0.2
0
CIRCLE
8
BLACK
10
260.35
20
-130.766
40
0.381
0
CIRCLE
8
BLACK
10
262.89
20
-126.366
40
0.381
0
CIRCLE
8
BLACK
10
260.35
20
-126.366
40
0.381
0
CIRCLE
8
BLACK
10
257.81
20
-121.966
40
0.381
0
CIRCLE
8
BLACK
10
260.35
20
-121.966
40
0.381
0
CIRCLE
8
BLACK
10
262.89
20
-121.966
40
0.381
0
CIRCLE
8
BLACK
10
257.81
20
-126.366
40
0.381
0
CIRCLE
8
BLACK
10
255.27
20
-126.366
40
0.381
0
CIRCLE
8
BLACK
10
257.81
20
-130.766
40
0.381
0
CIRCLE
8
BLACK
10
245.11
20
-126.366
40
0.381
0
CIRCLE
8
BLACK
10
247.65
20
-126.366
40
0.381
0
CIRCLE
8
BLACK
10
250.19
20
-126.366
40
0.381
0
CIRCLE
8
BLACK
10
252.73
20
-126.366
40
0.381
0
CIRCLE
8
BLACK
10
250.19
20
-121.966
40
0.381
0
CIRCLE
8
BLACK
10
247.65
20
-121.966
40
0.381
0
CIRCLE
8
BLACK
10
245.11
20
-121.966
40
0.381
0
CIRCLE
8
BLACK
10
247.65
20
-130.766
40
0.381
0
CIRCLE
8
BLACK
10
250.19
20
-130.766
40
0.381
0
CIRCLE
8
BLACK
10
252.73
20
-130.766
40
0.381
0
CIRCLE
8
BLACK
10
255.27
20
-130.766
40
0.381
0
CIRCLE
8
BLACK
10
300.021
20
-159.261
40
0.2
0
CIRCLE
8
BLACK
10
301.188
20
-162.078
40
0.2
0
CIRCLE
8
BLACK
10
302.354
20
-161.595
40
0.2
0
CIRCLE
8
BLACK
10
300.021
20
-161.595
40
0.2
0
CIRCLE
8
BLACK
10
301.188
20
-158.778
40
0.2
0
CIRCLE
8
BLACK
10
301.188
20
-160.428
40
1.1
0
CIRCLE
8
BLACK
10
302.837
20
-160.428
40
0.2
0
CIRCLE
8
BLACK
10
302.354
20
-159.261
40
0.2
0
CIRCLE
8
BLACK
10
299.537
20
-160.428
40
0.2
0
CIRCLE
8
BLACK
10
256.833
20
-140.58
40
0.2
0
CIRCLE
8
BLACK
10
258
20
-139.413
40
1.1
0
CIRCLE
8
BLACK
10
258
20
-137.763
40
0.2
0
CIRCLE
8
BLACK
10
258
20
-141.063
40
0.2
0
CIRCLE
8
BLACK
10
256.833
20
-138.247
40
0.2
0
CIRCLE
8
BLACK
10
259.167
20
-140.58
40
0.2
0
CIRCLE
8
BLACK
10
259.65
20
-139.413
40
0.2
0
CIRCLE
8
BLACK
10
256.35
20
-139.413
40
0.2
0
CIRCLE
8
BLACK
10
259.167
20
-138.247
40
0.2
0
CIRCLE
8
BLACK
10
196
20
-153.847
40
0.8509
0
CIRCLE
8
BLACK
10
201.5
20
-144.321
40
0.8509
0
CIRCLE
8
BLACK
10
198.75
20
-149.084
40
1.7145
0
CIRCLE
8
BLACK
10
199.541
20
-155.314
40
0.635
0
CIRCLE
8
BLACK
10
203.86
20
-152.034
40
0.635
0
CIRCLE
8
BLACK
10
263.5
20
-153.847
40
0.8509
0
CIRCLE
8
BLACK
10
269
20
-144.321
40
0.8509
0
CIRCLE
8
BLACK
10
266.25
20
-149.084
40
1.7145
0
CIRCLE
8
BLACK
10
267.041
20
-155.314
40
0.635
0
CIRCLE
8
BLACK
10
271.36
20
-152.034
40
0.635
0
CIRCLE
8
BLACK
10
250
20
-141.063
40
0.2
0
CIRCLE
8
BLACK
10
251.167
20
-140.58
40
0.2
0
CIRCLE
8
BLACK
10
250
20
-139.413
40
1.1
0
CIRCLE
8
BLACK
10
248.833
20
-140.58
40
0.2
0
CIRCLE
8
BLACK
10
248.35
20
-139.413
40
0.2
0
CIRCLE
8
BLACK
10
250
20
-137.763
40
0.2
0
CIRCLE
8
BLACK
10
248.833
20
-138.247
40
0.2
0
CIRCLE
8
BLACK
10
251.65
20
-139.413
40
0.2
0
CIRCLE
8
BLACK
10
251.167
20
-138.247
40
0.2
0
CIRCLE
8
BLACK
10
279.75
20
-84.9969
40
0.8509
0
CIRCLE
8
BLACK
10
277
20
-89.76
40
1.7145
0
CIRCLE
8
BLACK
10
274.25
20
-94.5231
40
0.8509
0
CIRCLE
8
BLACK
10
277.791
20
-95.9901
40
0.635
0
CIRCLE
8
BLACK
10
282.11
20
-92.71
40
0.635
0
CIRCLE
8
BLACK
10
220.25
20
-149.084
40
1.7145
0
CIRCLE
8
BLACK
10
225.75
20
-149.084
40
0.8509
0
CIRCLE
8
BLACK
10
214.75
20
-149.084
40
0.8509
0
CIRCLE
8
BLACK
10
215.25
20
-152.884
40
0.635
0
CIRCLE
8
BLACK
10
220.25
20
-154.984
40
0.635
0
CIRCLE
8
BLACK
10
241.75
20
-149.084
40
1.7145
0
CIRCLE
8
BLACK
10
244.5
20
-153.847
40
0.8509
0
CIRCLE
8
BLACK
10
239
20
-144.321
40
0.8509
0
CIRCLE
8
BLACK
10
235.959
20
-146.654
40
0.635
0
CIRCLE
8
BLACK
10
236.64
20
-152.034
40
0.635
0
CIRCLE
8
BLACK
10
228.25
20
-131.763
40
0.8509
0
CIRCLE
8
BLACK
10
231
20
-127
40
1.7145
0
CIRCLE
8
BLACK
10
233.75
20
-122.237
40
0.8509
0
CIRCLE
8
BLACK
10
230.209
20
-120.77
40
0.635
0
CIRCLE
8
BLACK
10
225.89
20
-124.05
40
0.635
0
CIRCLE
8
BLACK
10
266.25
20
-108.38
40
1.7145
0
CIRCLE
8
BLACK
10
269
20
-103.617
40
0.8509
0
CIRCLE
8
BLACK
10
263.5
20
-113.143
40
0.8509
0
CIRCLE
8
BLACK
10
267.041
20
-114.61
40
0.635
0
CIRCLE
8
BLACK
10
271.36
20
-111.33
40
0.635
0
CIRCLE
8
BLACK
10
237.896
20
-76.9617
40
0.2
0
CIRCLE
8
BLACK
10
237.896
20
-74.6283
40
0.2
0
CIRCLE
8
BLACK
10
239.062
20
-75.795
40
1.1
0
CIRCLE
8
BLACK
10
240.712
20
-75.795
40
0.2
0
CIRCLE
8
BLACK
10
237.412
20
-75.795
40
0.2
0
CIRCLE
8
BLACK
10
240.229
20
-74.6283
40
0.2
0
CIRCLE
8
BLACK
10
240.229
20
-76.9617
40
0.2
0
CIRCLE
8
BLACK
10
239.062
20
-74.145
40
0.2
0
CIRCLE
8
BLACK
10
239.062
20
-77.445
40
0.2
0
CIRCLE
8
BLACK
10
209.5
20
-127
40
1.7145
0
CIRCLE
8
BLACK
10
215
20
-127
40
0.8509
0
CIRCLE
8
BLACK
10
204
20
-127
40
0.8509
0
CIRCLE
8
BLACK
10
214.5
20
-123.2
40
0.635
0
CIRCLE
8
BLACK
10
209.5
20
-121.1
40
0.635
0
CIRCLE
8
BLACK
10
293
20
-127
40
0.8509
0
CIRCLE
8
BLACK
10
304
20
-127
40
0.8509
0
CIRCLE
8
BLACK
10
298.5
20
-127
40
1.7145
0
CIRCLE
8
BLACK
10
303.5
20
-123.2
40
0.635
0
CIRCLE
8
BLACK
10
298.5
20
-121.1
40
0.635
0
CIRCLE
8
BLACK
10
274.25
20
-122.237
40
0.8509
0
CIRCLE
8
BLACK
10
279.75
20
-131.763
40
0.8509
0
CIRCLE
8
BLACK
10
277
20
-127
40
1.7145
0
CIRCLE
8
BLACK
10
282.791
20
-129.43
40
0.635
0
CIRCLE
8
BLACK
10
282.11
20
-124.05
40
0.635
0
CIRCLE
8
BLACK
10
223
20
-103.617
40
0.8509
0
CIRCLE
8
BLACK
10
217.5
20
-113.143
40
0.8509
0
CIRCLE
8
BLACK
10
220.25
20
-108.38
40
1.7145
0
CIRCLE
8
BLACK
10
219.459
20
-102.15
40
0.635
0
CIRCLE
8
BLACK
10
215.14
20
-105.43
40
0.635
0
CIRCLE
8
BLACK
10
306.5
20
-144.321
40
0.8509
0
CIRCLE
8
BLACK
10
309.25
20
-149.084
40
1.7145
0
CIRCLE
8
BLACK
10
312
20
-153.847
40
0.8509
0
CIRCLE
8
BLACK
10
303.459
20
-146.654
40
0.635
0
CIRCLE
8
BLACK
10
304.14
20
-152.034
40
0.635
0
CIRCLE
8
BLACK
10
287.75
20
-149.084
40
1.7145
0
CIRCLE
8
BLACK
10
282.25
20
-149.084
40
0.8509
0
CIRCLE
8
BLACK
10
293.25
20
-149.084
40
0.8509
0
CIRCLE
8
BLACK
10
282.75
20
-152.884
40
0.635
0
CIRCLE
8
BLACK
10
287.75
20
-154.984
40
0.635
0
CIRCLE
8
BLACK
10
261.62
20
-64.1245
40
0.5461
0
CIRCLE
8
BLACK
10
261.62
20
-66.6645
40
0.5461
0
CIRCLE
8
BLACK
10
261.62
20
-69.2045
40
0.5461
0
CIRCLE
8
BLACK
10
261.62
20
-71.7445
40
0.5461
0
CIRCLE
8
BLACK
10
261.62
20
-74.2845
40
0.5461
0
CIRCLE
8
BLACK
10
261.62
20
-76.8245
40
0.5461
0
CIRCLE
8
BLACK
10
261.62
20
-79.3645
40
0.5461
0
CIRCLE
8
BLACK
10
261.62
20
-81.9045
40
0.5461
0
CIRCLE
8
BLACK
10
261.62
20
-84.4445
40
0.5461
0
CIRCLE
8
BLACK
10
261.62
20
-86.9845
40
0.5461
0
CIRCLE
8
BLACK
10
261.62
20
-89.5245
40
0.5461
0
CIRCLE
8
BLACK
10
261.62
20
-92.0645
40
0.5461
0
CIRCLE
8
BLACK
10
246.38
20
-64.1245
40
0.5461
0
CIRCLE
8
BLACK
10
246.38
20
-66.6645
40
0.5461
0
CIRCLE
8
BLACK
10
246.38
20
-69.2045
40
0.5461
0
CIRCLE
8
BLACK
10
246.38
20
-71.7445
40
0.5461
0
CIRCLE
8
BLACK
10
246.38
20
-74.2845
40
0.5461
0
CIRCLE
8
BLACK
10
246.38
20
-76.8245
40
0.5461
0
CIRCLE
8
BLACK
10
246.38
20
-79.3645
40
0.5461
0
CIRCLE
8
BLACK
10
246.38
20
-81.9045
40
0.5461
0
CIRCLE
8
BLACK
10
246.38
20
-84.4445
40
0.5461
0
CIRCLE
8
BLACK
10
246.38
20
-86.9845
40
0.5461
0
CIRCLE
8
BLACK
10
246.38
20
-89.5245
40
0.5461
0
CIRCLE
8
BLACK
10
246.38
20
-92.0645
40
0.5461
0
CIRCLE
8
BLACK
10
239
20
-103.617
40
0.8509
0
CIRCLE
8
BLACK
10
241.75
20
-108.38
40
1.7145
0
CIRCLE
8
BLACK
10
244.5
20
-113.143
40
0.8509
0
CIRCLE
8
BLACK
10
235.959
20
-105.95
40
0.635
0
CIRCLE
8
BLACK
10
236.64
20
-111.33
40
0.635
0
CIRCLE
8
BLACK
10
285
20
-103.617
40
0.8509
0
CIRCLE
8
BLACK
10
290.5
20
-113.143
40
0.8509
0
CIRCLE
8
BLACK
10
287.75
20
-108.38
40
1.7145
0
CIRCLE
8
BLACK
10
293.541
20
-110.81
40
0.635
0
CIRCLE
8
BLACK
10
292.86
20
-105.43
40
0.635
0
CIRCLE
8
BLACK
10
270.104
20
-76.9617
40
0.2
0
CIRCLE
8
BLACK
10
268.938
20
-74.145
40
0.2
0
CIRCLE
8
BLACK
10
268.938
20
-77.445
40
0.2
0
CIRCLE
8
BLACK
10
268.938
20
-75.795
40
1.1
0
CIRCLE
8
BLACK
10
270.104
20
-74.6283
40
0.2
0
CIRCLE
8
BLACK
10
270.587
20
-75.795
40
0.2
0
CIRCLE
8
BLACK
10
267.771
20
-74.6283
40
0.2
0
CIRCLE
8
BLACK
10
267.287
20
-75.795
40
0.2
0
CIRCLE
8
BLACK
10
267.771
20
-76.9617
40
0.2
0
CIRCLE
8
BLACK
10
231
20
-89.76
40
1.7145
0
CIRCLE
8
BLACK
10
233.75
20
-94.5231
40
0.8509
0
CIRCLE
8
BLACK
10
228.25
20
-84.9969
40
0.8509
0
CIRCLE
8
BLACK
10
225.209
20
-87.3299
40
0.635
0
CIRCLE
8
BLACK
10
225.89
20
-92.71
40
0.635
  0
ENDSEC
  0
EOF
