<svg version="1.1"
     width="1034" height="481"
     xmlns="http://www.w3.org/2000/svg"
     xmlns:xlink="http://www.w3.org/1999/xlink">
<!-- Units:
 Use mm as units. MX: 19x19mm, Hex: 21.5x18.62mm

 Scale factor 4: 19x19 => 76x76   21.5x18.62 => 86x74.5
 Gap around keys:         70x70                 80x69

 MX 10 key width:  190mm x 4 => 760
 Hex 10 key width: 215mm x 4 => 860

 Hexagon coordinates: vertical sections: 69/3 = 23
 -->

<defs>
  <path id="hex"
        d="M0 22.5 a20 20 0 0 1 10 -17.25
           l20 -11.5 a20 20 0 0 1 20 0
           l20 11.5 a20 20 0 0 1 10 17.25
           v23 a20 20 0 0 1 -10 17.25
           l-20 11.5 a20 20 0 0 1 -20 0
           l-20 -11.5 a20 20 0 0 1 -10 -17.25 Z"
        stroke-width="1" stroke="black" stroke-opacity="0.15"/>
  <rect id="square" width="70" height="70" rx="20" ry="20"
        stroke-width="3" stroke="black"/>
  <circle id="home" cx="40" cy="34.5" r="27" fill="black" fill-opacity="0.15"/>
  <g id="col2">
    <use xlink:href="#hex"/>
    <use xlink:href="#hex" x="43" y="74.5"/>
  </g>
  <g id="col3">
    <use xlink:href="#col2"/>
    <use xlink:href="#hex" x="86" y="149"/>
  </g>
  <g id="colh">
    <use xlink:href="#col3"/>
    <use xlink:href="#home" x="43" y="74.5"/>
  </g>
  <g id="halfboard">
    <use xlink:href="#col2" x="0" y="149" fill="navajowhite"/>
    <use xlink:href="#colh" x="43" y="74.5" fill="navajowhite"/>
    <use xlink:href="#colh" x="86" y="0" fill="plum"/>
    <use xlink:href="#hex" x="215" y="223.5" fill="plum"/>
    <use xlink:href="#colh" x="172" y="0" fill="skyblue"/>
    <use xlink:href="#colh" x="258" y="0" fill="palegreen"/>
    <use xlink:href="#hex" x="344" y="0" fill="palegreen"/>

    <use xlink:href="#hex" x="0" y="312" fill="linen"/>
    <use xlink:href="#hex" x="86" y="312" fill="linen"/>
    <use xlink:href="#hex" x="172" y="312" fill="linen"/>
    <use xlink:href="#hex" x="43" y="386.5" fill="linen"/>
    <use xlink:href="#home" x="86" y="312"/>
  </g>
  <filter id="shadow">
    <feGaussianBlur in="SourceAlpha" stdDeviation="3"/>
    <feOffset dx="3" dy="3"/>
  </filter>
</defs>

<g transform="translate(514,10)" filter="url(#shadow)">
  <use xlink:href="#halfboard" x="9"/>
  <use xlink:href="#halfboard" x="9" transform="scale(-1,1)"/>
</g>

<g transform="translate(514,10)">
  <use xlink:href="#halfboard" x="9"/>
  <use xlink:href="#halfboard" x="9" transform="scale(-1,1)"/>
  <g transform="translate(-50,37)">
    <text transform="translate(-344,0)     rotate(30)">J</text>
    <text transform="translate(-258,0)     rotate(30)">Q</text>
    <text transform="translate(-172,0)     rotate(30)">W</text>
    <text transform="translate(-86,0)      rotate(30)">E</text>
    <text transform="translate(-43,74.5)   rotate(30)">R</text>
    <text transform="translate(0,149)      rotate(30)">T</text>

    <text transform="translate(-301,74.5)  rotate(30)">A</text>
    <text transform="translate(-215,74.5)  rotate(30)">S</text>
    <text transform="translate(-129,74.5)  rotate(30)">D</text>
    <text transform="translate(-86,149)    rotate(30)">F</text>
    <text transform="translate(-43,223.5)  rotate(30)">G</text>

    <text transform="translate(-344,149)   rotate(30)">Z</text>
    <text transform="translate(-258,149)   rotate(30)">X</text>
    <text transform="translate(-172,149)   rotate(30)">C</text>
    <text transform="translate(-129,223.5) rotate(30)">V</text>
  </g>
  <g transform="translate(50,37)">
    <text transform="translate(0,149)     rotate(-30)">Y</text>
    <text transform="translate(43,74.5)   rotate(-30)">U</text>
    <text transform="translate(86,0)      rotate(-30)">I</text>
    <text transform="translate(172,0)     rotate(-30)">O</text>
    <text transform="translate(258,0)     rotate(-30)">P</text>
    <g    transform="translate(344,0)     rotate(-30)">
      <text y="-12">"</text>
      <text y="20">'</text>
    </g>

    <text transform="translate(43,223.5)  rotate(-30)">H</text>
    <text transform="translate(86,149)    rotate(-30)">N</text>
    <text transform="translate(129,74.5)  rotate(-30)">K</text>
    <text transform="translate(215,74.5)  rotate(-30)">L</text>
    <text transform="translate(301,74.5)  rotate(-30)">B</text>

    <text transform="translate(129,223.5) rotate(-30)">M</text>
    <g    transform="translate(172,149)   rotate(-30)">
      <text y="-20">&lt;</text>
      <text y="12">,</text>
    </g>
    <g    transform="translate(258,149)   rotate(-30)">
      <text y="-20">&gt;</text>
      <text y="12">.</text>
    </g>
    <g    transform="translate(344,149)   rotate(-30)">
      <text y="-16">?</text>
      <text y="16">/</text>
    </g>
  </g>
</g>

<style>
    <![CDATA[
      text{
        text-anchor: middle;
	dominant-baseline: middle;
        font: 32px Verdana, Helvetica, Arial, sans-serif;
      }
    ]]>
</style>
</svg>
