<?xml version="1.0" encoding="UTF-8" standalone="no"?>
<!-- Created with Inkscape (http://www.inkscape.org/) -->

<svg
   width="210mm"
   height="297mm"
   viewBox="0 0 210 297"
   version="1.1"
   id="svg5"
   inkscape:version="1.1.2 (0a00cf5339, 2022-02-04)"
   sodipodi:docname="mantis_photo_bw_gaps.svg"
   xmlns:inkscape="http://www.inkscape.org/namespaces/inkscape"
   xmlns:sodipodi="http://sodipodi.sourceforge.net/DTD/sodipodi-0.dtd"
   xmlns="http://www.w3.org/2000/svg"
   xmlns:svg="http://www.w3.org/2000/svg">
  <sodipodi:namedview
     id="namedview7"
     pagecolor="#ffffff"
     bordercolor="#666666"
     borderopacity="1.0"
     inkscape:pageshadow="2"
     inkscape:pageopacity="0.0"
     inkscape:pagecheckerboard="0"
     inkscape:document-units="mm"
     showgrid="false"
     inkscape:zoom="0.64052329"
     inkscape:cx="396.55076"
     inkscape:cy="561.25984"
     inkscape:window-width="1920"
     inkscape:window-height="1136"
     inkscape:window-x="0"
     inkscape:window-y="27"
     inkscape:window-maximized="1"
     inkscape:current-layer="layer1" />
  <defs
     id="defs2" />
  <g
     inkscape:label="Ebene 1"
     inkscape:groupmode="layer"
     id="layer1">
    <path
       style="fill:#000000;stroke-width:0.105833"
       d="m 130.61511,282.15365 c 2.32472,-6.21158 -8.94916,1.86269 -4.03038,-3.84516 6.80446,-3.61347 -5.17647,-5.24931 1.83566,-10.4706 -1.34849,-3.71626 2.78904,-18.34617 2.94189,-7.72254 1.14236,6.95539 -2.33211,16.53785 4.62887,20.13248 1.65353,2.67551 -4.28233,1.58633 -5.37604,1.90582 z m 19.94078,-13.98477 c -5.12852,-4.67119 -5.02551,-8.17327 -10.77378,-8.79539 -11.25247,-1.11722 -5.15607,-13.28508 -1.20247,-17.93358 4.62892,0.59079 9.52895,0.0813 14.48925,-0.44789 -4.03886,3.51264 2.90846,1.37071 3.20522,3.19972 4.40134,0.0194 5.72846,0.0294 11.29402,-2.13124 2.15793,-1.20346 -8.67114,-0.97557 -1.53309,-3.49243 6.04355,2.23858 4.97138,4.30384 12.01835,2.60683 2.34993,-1.50886 2.56998,-7.5387 5.90934,-4.6471 4.50115,1.75334 20.63191,-5.70325 10.17245,-6.90119 -6.5649,-2.12955 12.71395,-9.39596 -0.44595,-6.18578 -8.09462,0.42479 -23.29399,-1.11671 -26.63148,2.32137 -3.56434,-4.40614 -12.44609,0.15618 -17.58775,-3.70692 1.26038,-8.90256 9.16376,-18.56362 12.07803,-28.14887 1.79422,-5.15469 10.29653,-20.20794 0.37915,-18.29841 0.0602,4.97034 2.94263,2.78387 0.32705,9.29923 -3.35354,9.46712 -8.19454,18.27862 -11.38209,27.81319 -1.98384,9.62091 -10.72339,9.63808 -16.52763,3.46257 -8.17764,-1.02555 1.0559,-14.27805 -9.86189,-10.01707 -9.72102,-1.2176 12.55486,-6.01031 8.91294,3.79448 -3.85198,5.37504 11.2527,12.88419 13.19251,6.40176 5.09186,-9.6432 8.74208,-19.82274 13.19572,-29.78819 -0.8152,-5.33823 -12.55563,5.32932 -17.71197,6.21444 -7.41355,3.49854 -13.88756,9.00894 -21.4506,11.97449 -2.39073,0.0772 -11.23317,9.99749 -11.04024,3.55808 -1.40444,-3.0756 1.24285,6.84458 -3.56468,2.75904 -3.75475,2.42388 4.18023,1.75489 1.79185,5.65223 1.03869,1.60714 7.39813,2.00188 6.71246,5.50786 2.36937,2.09163 3.26598,3.96721 5.67882,7.93208 4.42996,-0.0149 5.34912,5.36776 9.60358,4.26853 5.57064,-0.29639 -1.59755,2.59746 4.53552,3.05265 -0.55438,4.6535 4.87651,-7.77472 7.06737,-10.11323 -1.96725,-2.62907 -7.74653,-3.95457 -0.18088,-2.08283 3.48541,6.67914 -8.18553,14.78477 -8.18724,23.11858 0.57058,11.75578 -9.91039,1.16204 -10.71254,-3.38303 -1.65803,-2.62345 -0.21683,-9.95896 -3.36132,-2.70047 -2.46225,7.33048 -19.317239,-7.26969 -6.73692,-1.06873 6.9434,5.56408 8.05411,-6.51408 5.31232,-8.5692 -5.34875,-3.00327 -5.01393,-6.06195 -8.76128,-10.61393 -3.95284,-2.2634 -4.11892,-7.12829 -5.8895,-1.40628 -5.877619,0.42412 -6.868649,-6.62534 -7.432969,-11.31604 -0.85808,-9.11731 0.73189,-17.68162 1.46435,-27.19916 -0.67036,-4.64847 -9.18493,6.96131 -14.27376,6.29598 -8.22263,0.50821 -16.52114,-3.25274 -24.02378,-6.76643 -8.64302,-0.80158 -17.5044,-7.42241 -25.52805,-5.07177 5.21082,5.16769 0.18619,4.97507 -1.87339,-0.33106 3.41738,-7.74782 9.78204,0.82878 13.49551,-4.10012 3.87083,-1.06262 -10.02559,-3.90941 -12.87637,0.66139 -4.92359,4.02055 -13.50588,-9.11081 -4.06812,-1.45456 8.28942,-2.15468 17.86986,-3.60722 26.5642,1.65372 9.13578,1.93079 19.24119,5.94175 27.24778,8.29275 7.60975,-5.23175 -11.58145,-6.81196 -1.90026,-15.37257 3.26957,-6.73811 9.89368,-12.59648 15.07871,-18.4354 6.316449,-7.51661 0.4603,-18.19774 0.1783,-26.82121 -1.99087,-6.7308 -6.059,10.67116 -9.96054,13.851 -2.15402,2.73185 -9.23951,10.96936 -12.5377,5.28239 -0.003,-5.44784 3.1941,-19.13315 -1.9324,-6.78072 -8.39692,-3.13657 -4.39654,10.97612 -13.28411,5.72433 -5.34985,-5.02888 -10.31242,-12.34469 -16.6834,-14.3991 3.18726,5.15321 9.2099,9.42488 9.50271,15.66775 -5.82032,0.79065 -6.79413,-11.64684 -13.13417,-13.73421 -7.06572,-6.82621 -10.82888,-4.63833 -16.2888,-12.53025 -4.19502,-7.72029 -7.48479,-16.421723 -8.35415,-25.16281 7.02685,-11.372188 17.29022,3.307121 22.74954,8.945907 1.98403,3.694223 16.24635,12.066383 5.73911,11.443893 1.14106,7.1114 -9.33419,-5.74477 -1.93555,-2.36234 6.51568,-1.02594 -7.23069,-8.399663 -8.64754,-12.179193 -2.83102,-9.154299 -21.0037897,-13.385513 -15.53213,0.21088 -1.08306,8.445413 8.42742,4.25211 5.67337,11.269643 -6.30448,-1.68884 10.49251,18.95296 2.22829,6.0233 5.7221,3.26272 -2.1851,-7.82126 -1.96771,-11.04268 -1.47976,-1.080583 -3.07946,-10.658955 -3.06227,-2.602683 -6.45116,-6.280961 2.48699,-6.26962 6.26486,-2.84962 -3.02672,2.80969 0.70715,4.27875 3.26464,3.28029 4.64574,4.877933 -2.79682,7.829953 3.52068,9.813383 -3.24246,4.66441 7.20891,-1.24056 8.56698,3.79163 2.36243,5.42968 -6.95891,4.99067 0.97704,6.92663 2.95443,7.79819 11.30117,7.69213 17.46652,8.88136 3.4679,-4.07575 -2.49394,-6.69493 -3.17005,-9.97026 -1.19418,3.71474 6.60827,10.92082 -1.02626,4.36626 -7.76952,-5.77935 3.90326,-3.64687 -4.82977,-10.2028 -9.00056,-9.52314 7.44386,4.47184 9.42818,8.1693 5.08329,3.78128 -0.41921,15.47588 5.00426,4.88784 2.59648,-6.8028 5.5335,-12.97585 6.7596,-20.00849 1.99004,-4.85641 3.0374,-9.468043 6.55491,-13.636346 2.35756,0.614989 3.47364,7.667703 4.98351,0.443808 1.59599,-0.879047 7.92592,8.099458 5.84076,-0.0739 5.51665,-1.971148 -8.54887,-1.174666 -3.61187,-4.413162 4.69031,-4.538274 -0.90488,-8.811929 -1.55041,-13.048196 -5.30977,-9.998733 -3.59267,12.348376 0.27652,7.500532 -3.74517,-7.160295 6.28088,2.781106 -0.21284,2.097575 1.0679,7.462078 -5.7642,-6.825241 -2.3506,2.605992 4.23773,9.863084 -5.3313,-4.189893 -3.95414,-7.6469 -1.58708,-3.690805 0.0384,-9.064374 -3.52116,-11.24154 -5.81064,-2.686344 -22.45643,-7.80529 -10.90029,-15.797829 15.97881,2.370443 2.01043,-13.743227 -3.90333,-17.857793 -4.58063,-4.959526 -12.07347,-6.00132 -18.09693,-3.943219 0.15089,-2.71243 14.64464,-3.919798 18.30971,1.989014 7.25379,4.862378 12.07137,15.323724 17.06738,18.845307 8.73032,-1.035512 7.51522,-13.902513 15.40542,-18.019655 6.33042,-6.116215 11.459869,-15.347276 19.976389,-18.032372 -3.56964,3.347186 -9.9583,7.514549 -13.162879,12.476773 -4.16096,5.860078 -16.78588,15.460912 -12.85432,21.554703 8.02704,-8.608541 19.641789,4.510064 7.55936,9.740942 -4.10667,6.130363 8.36759,17.184898 3.15777,23.770505 -1.64419,-4.958585 -1.18389,-16.438188 -6.60949,-22.103813 1.39031,-5.176162 14.220839,-8.377663 3.93214,-13.470799 -5.72959,4.068834 -11.1993,0.110613 -11.52531,2.916653 -1.2547,4.107606 -10.69539,2.531911 -10.54226,0.0026 1.1769,4.735276 -16.54059,2.066135 -9.19886,6.950383 3.60388,-3.089888 5.65235,5.496587 8.44804,-0.07305 2.37754,5.941416 7.82501,-3.79506 8.46909,-0.05074 -3.46429,0.191182 -1.7019,4.488001 -2.55315,5.446986 6.03405,-3.22841 8.31402,-0.104012 4.18346,6.326076 3.15392,1.244505 1.9033,-1.962877 4.5796,-3.73785 -1.35366,-4.976116 2.7869,-4.355002 1.16734,0.623613 2.54945,5.991631 5.17653,4.291515 5.78766,8.131225 -0.5692,7.720019 -3.39616,-4.970957 -3.59016,0.952808 3.73009,3.760718 2.30972,5.414091 1.32356,7.082262 3.58005,1.019543 7.34346,7.241104 2.2169,10.998574 -2.94201,4.54414 -8.83099,16.886243 -1.50012,6.75916 3.44563,-5.94239 4.68094,-3.99311 1.40288,1.017163 -2.38526,6.04365 -1.86204,13.63284 -5.1865,16.61824 0.56879,2.59915 -4.03154,9.66433 0.42322,7.69758 -0.99871,4.40762 -0.0127,6.96555 1.91381,-0.43445 3.89135,-2.28862 7.95181,-11.4875 5.7733,-15.67679 4.3336,-4.46366 2.80096,6.47572 5.74077,10.87877 4.782929,5.30515 -0.1801,23.74387 8.391909,13.49175 0.59468,-1.76371 -3.17503,-16.55973 0.9347,-5.57678 2.17544,-0.13408 -5.59365,-10.34076 2.08689,-2.17505 6.03626,3.39135 -0.59234,7.0812 0.0325,8.31392 5.80766,0.13675 4.16522,-9.47703 -0.12483,-12.51646 -7.22513,-3.51506 -7.13875,-17.42859 -10.828989,-18.76084 0.273209,-2.555133 3.680219,-8.078793 1.321189,-9.634283 0.37248,-2.475754 5.71123,-3.044531 6.03317,-10.685637 5.00323,-8.134293 -7.740269,-7.325905 -8.997319,0.887224 -3.52951,6.90755 -6.48516,2.455412 -1.99946,1.060118 1.919,-3.442202 6.107269,-11.643434 11.653939,-8.673041 5.09497,6.08216 -3.15256,12.576012 -4.41532,19.238726 -3.25713,7.939353 0.62994,18.410743 6.80817,23.966073 7.20464,6.48645 5.86467,13.35472 2.49315,20.1602 4.79039,8.9104 0.65302,18.98869 2.42243,28.83077 -2.27897,9.67915 3.17182,19.53638 2.38385,28.8112 -1.75784,-7.60741 -5.13485,-19.40093 -3.74977,-28.83811 -1.47015,-10.06344 2.24501,-20.29292 -2.61877,-29.16074 -2.86505,-1.1013 -6.83834,9.07505 -8.32661,1.03887 -6.054649,4.52651 0.49586,6.98107 0.53813,12.33136 -1.40139,2.9504 -0.93771,6.54744 -2.75539,10.7225 1.81136,3.51399 -11.732739,4.62775 -5.136809,1.42874 2.87487,-3.57851 7.006389,-17.0387 0.38866,-6.79651 -2.39813,4.1172 -13.13188,12.28406 -2.86274,8.67501 -3.22485,4.33567 7.589069,0.0661 5.68169,4.93968 -1.47788,5.29898 3.771899,7.23104 2.379279,10.93534 -0.38988,14.18953 0.85884,-6.73949 5.73536,-9.62013 -2.69314,-4.37822 1.59511,0.46332 2.48221,-2.5467 1.39499,5.49987 1.26828,7.18949 -2.03888,3.57444 -2.96592,4.44903 -0.14682,7.96694 -2.21343,9.79161 4.15805,3.29212 -1.23913,3.43856 -1.01178,7.01978 5.8198,3.12504 1.15431,1.27117 0.24014,4.39793 0.75207,2.23055 -5.788649,11.7613 -1.21779,9.51592 2.83766,-1.39587 1.25822,-2.68143 4.47147,-3.48405 3.76648,2.65088 3.97595,-11.44127 1.83803,-1.62985 -4.41124,-6.76894 3.89802,-8.46682 2.61915,0.33039 -2.83138,4.08393 5.87492,-2.2198 8.44105,-3.65544 13.49071,-6.17606 26.44581,-13.36603 39.50585,-20.40782 8.83965,-5.87531 10.66161,8.14809 5.46799,12.98406 -3.9047,11.36919 -9.91357,21.85853 -14.71113,32.82308 7.00107,3.36392 16.67998,1.72004 24.67606,1.85779 7.84566,-1.36852 15.84177,-0.96243 23.74269,-1.8197 5.73018,4.27147 -7.39329,6.90789 1.20025,9.75062 -4.3337,9.79259 -18.03735,8.48835 -26.28275,14.00295 -8.25259,1.81493 -16.15523,4.56018 -24.60502,2.17103 -10.81075,-2.78167 -2.99489,14.90194 0.007,18.66279 1.00616,0.51765 4.65449,3.2807 1.06707,2.84692 z m -6.24219,-9.1331 c -0.8986,-10.71397 -3.81858,-7.31342 0,0 z m -3.06665,-0.74866 c 0.0309,-5.88949 -3.23072,-19.04432 -6.04052,-6.32032 -2.72499,7.30368 3.29726,0.007 6.04052,6.32032 z m -10.80861,-7.08969 c 6.64814,-5.78961 -1.30291,-15.50332 -6.67788,-11.78305 -2.53609,4.57656 3.09784,12.52547 6.67788,11.78305 z m 12.56651,-5.12672 c -0.77716,-1.84321 -0.15728,2.02667 0,0 z m -28.77036,-17.10737 c -0.70448,-1.8482 -0.21549,0.907 0,0 z m -13.18421,-11.62387 c 1.93324,-4.13649 -5.406209,-2.45108 0,0 z m 2.75452,-1.31104 c 0.95467,-2.25455 -1.4186,-0.23181 -1e-5,0 z m -2.6847,-6.73831 c 0.28541,-1.11262 -1.125419,1.0106 0,0 z m 0.79807,-0.99074 c 6.24047,-6.21414 -2.971039,-2.41973 0,0 z m 8.35094,-2.54 c 1.21806,-1.49873 -1.6581,1.44267 0,0 z m 1.11125,-0.86681 c -0.72244,-0.0905 0.002,0.42489 0,0 z m 3.26083,-0.36215 c 1.37081,-2.26141 -2.65265,-0.31237 0,0 z m 6.48109,-0.94334 c 3.44665,-2.30114 -2.19248,0.34302 0,0 z m 2.83104,-1.57385 c 6.63604,-3.36303 3.9852,-5.23938 -0.7633,0.057 z m -7.62739,-0.6259 c -0.66156,-0.29562 -0.008,0.52223 0,0 z m 5.32293,-1.02682 c 2.76947,-2.40246 4.29571,-4.10213 0.006,-1.50267 0.64855,1.55903 -2.99408,1.49461 -0.006,1.50267 z m -1.6961,-0.77461 c -1.03377,-0.0432 -1.17544,1.07081 0,0 z m -18.67234,-0.0845 c 0.72192,-1.57769 -1.13543,1.15787 0,0 z m 29.37634,-1.67166 c 0.57516,-1.02146 -2.10277,0.92997 0,0 z m -2.70204,-0.77515 c 0.006,-2.64877 -1.29553,1.34261 0,0 z m -1.39411,-0.53755 c -1.05882,-3.4571 -5.6773,1.08991 0,0 z m -24.19695,-0.25103 c -0.52088,-1.03765 -0.52739,0.87034 0,0 z m 0.33674,-0.95767 c -0.28276,-1.13989 -0.60752,0.66945 0,0 z m 28.31204,-0.29524 c -1.72645,-0.43498 -0.6767,-0.20978 0,0 z m -3.8196,-0.12091 c 0.84545,-2.46425 -1.67489,0.87845 0,0 z m -23.70437,-2.67732 c 3.69404,-2.10811 -4.378469,0.90567 0,0 z m 30.90464,-0.0257 c 0.69883,-1.57059 -1.23703,1.11481 0,0 z m 9.76503,-1.89255 c 7.24937,-1.19655 4.48361,-6.33771 0.67651,-6.03796 -3.39934,2.33263 -3.99598,6.13825 0.0806,4.72719 0.15881,1.13458 -4.09432,2.27573 -0.75713,1.31077 z m 2.96149,-2.59659 c -0.0347,-0.68309 0.56969,0.16842 0,0 z m -2.54557,-0.80586 c -0.43022,-1.84184 2.8311,0.1915 0,0 z m -3.56037,2.2607 c -0.45743,-0.84062 -0.78047,0.62237 0,0 z M 80.530041,186.4448 c -0.73605,-0.92471 -0.78027,0.91057 0,0 z m 61.224579,-0.073 c -0.93374,-0.14283 -0.0678,0.42185 0,0 z m -59.073699,-0.22679 c -0.37584,-0.64949 -0.36586,0.73864 0,0 z m 1.96906,-0.13107 c 0.65595,-1.63398 -1.50738,0.4339 0,0 z m 2.59675,-1.41424 c -0.68716,-4.48385 -3.61588,1.43709 0,0 z m 70.679219,-1.22526 c 0.95599,-2.71938 -4.93407,-2.00187 -0.83699,0.45172 l 0.837,-0.45172 z m -77.506769,-0.065 c -2.33687,-0.52359 -0.40546,-0.21805 0,0 z m 10.86355,-0.30536 c 7.07591,-4.40312 2.69404,-9.5058 -1.63417,-5.07391 2.54462,0.92126 -5.33941,4.854 1.0944,5.16697 l 0.53977,-0.0931 z m -2.80919,-1.92736 c -0.20898,-2.6217 2.37877,0.77938 0,0 z m 10.60379,-0.17178 c 0.953199,-3.44975 -2.3126,1.37184 0,0 z m -30.34771,0.36273 c 0.35569,-1.0817 -1.51945,0.45342 0,0 z m -1.86435,-0.35922 c 0.81864,-5.20884 -4.12106,-2.66978 -6.32793,-4.43312 0.35859,3.49939 3.91115,3.32544 6.32793,4.43312 z m 86.848519,-1.02527 c -0.10289,-0.59075 -0.40548,0.57818 0,0 z m 1.50813,-0.77333 c 0.68087,-0.93722 -1.32343,0.61109 0,0 z M 53.739201,178.61313 c -0.88744,-3.12232 -2.26358,-1.29522 1.40427,-4.1284 -9.13793,-6.13327 -9.62825,5.06094 -1.40427,4.1284 z m 103.353169,-0.20192 c 11.94098,-4.63581 -2.64099,-0.80384 0,0 z m -71.217749,-0.28057 c -0.32717,-0.57214 -0.18806,0.71829 0,0 z m -26.69117,-1.70826 c 0.56801,-1.20095 -2.10739,0.39233 0,0 z m -1.24883,-0.47321 c -1.61545,-1.76686 -3.46434,0.0145 0,0 z m 23.28334,-2.83284 c 0.64622,-5.95661 -3.82426,-2.53241 0,0 z m 7.50502,-0.33253 c -1.13905,-3.99686 -0.21843,-4.89977 -4.70605,-3.12825 -1.62584,-1.01603 4.05741,4.11454 4.70605,3.12825 z m -2.09626,-2.30627 c 0.0281,-1.53973 1.82761,0.3161 0,0 z m 3.3754,2.26185 c -0.637,-0.36241 -0.17049,0.44629 0,0 z m 3.58629,-0.16748 c 0.98594,-4.84217 -2.94545,0.003 0,0 z m -2.26337,-3.9071 c -1.37256,-1.1188 -1.51323,1.08553 0,0 z m -8.98366,-1.06476 c -0.85833,0.45263 -0.0691,-0.17022 0,0 z m 2.58074,-0.2182 c -0.52561,-0.57395 -0.26158,0.87418 0,0 z m 4.90505,-5.80678 c 3.14783,-2.29136 7.33067,-6.3915 1.86829,-4.49078 4.46678,-9.14063 -8.71986,1.4942 -1.17169,1.36764 2.36208,-0.003 -2.93612,3.12185 -0.6966,3.12314 z m 2.5162,-2.84304 c 0.1149,-0.90197 0.46396,0.49314 0,0 z m 2.84297,-2.89327 c -0.58323,-1.04745 -0.0611,1.24497 0,0 z m -19.05796,-17.69974 c 1.77815,-2.81724 4.54696,3.28151 5.09845,-3.99536 1.88221,-2.96697 -2.80323,-3.21758 -2.22983,-3.47281 -2.58162,0.0369 -4.65728,9.15872 -2.86862,7.46817 z m 32.699809,-1.113 c -1.21813,0.58905 0.0442,0.42853 0,0 z m -25.926779,-0.81629 c 0.25567,-1.35489 -1.13116,1.15782 0,0 z m 26.468209,0.0301 c -0.71428,-1.35555 -0.12425,0.84458 0,0 z M 56.368811,135.7723 c 6.43087,-3.34657 -10.64319,-4.98536 0,0 z m -9.75836,-1.12921 c -0.0287,-0.62638 -0.74569,0.19121 0,0 z m -0.70256,-0.69164 c -0.48043,-0.58923 0.15228,0.57127 0,0 z m 37.01996,0.0441 c 4.03393,0.16851 -2.66271,-3.06101 0,0 z m -22.77307,-0.97471 c 4.4232,-1.32738 -0.69202,-2.54842 0,0 z m 24.7031,-0.98301 c 0.57464,-1.93054 -1.34587,0.78942 0,0 z m 26.140849,-0.0719 c 0.2267,-0.8883 -0.93273,0.77684 0,0 z m -53.096539,-0.95128 c 1.89738,-3.22564 -2.1802,1.40079 0,0 z m 5.42993,0.0177 c -0.35697,-1.02254 -0.35891,1.11188 0,0 z m -19.92438,-0.27593 c -0.64017,-0.5409 0.18504,0.59825 0,0 z m 20.46051,-0.56565 c 3.87183,-2.97894 0.45495,-5.10309 0,0 z m -7.62696,-0.35811 c -3.87765,-3.65691 -8.1205,1.79858 0,0 z m 19.43513,-0.77344 c 0.85315,-2.54129 -1.23492,2.04365 0,0 z m 35.969529,0.49993 c 0.81756,-1.02602 -1.85246,-0.31013 0,0 z m -32.520739,-1.92217 c 0.61063,-5.65576 3.99907,-13.71265 4.4899,-18.39779 -3.08099,2.14957 -2.85849,13.22506 -5.53193,18.43825 l -0.25192,0.61125 1.29392,-0.65171 z m -15.61433,-0.1966 c 0.49618,-1.12365 -1.09256,0.87163 0,0 z m -23.35626,-0.31505 c -1.05892,-0.73682 0.1581,0.74357 0,0 z m 36.29745,-0.57375 c 4.66558,-10.38997 -3.27097,0.0344 0,0 z m -9.59672,-0.56591 c 3.6245,-7.89877 -4.32935,0.50642 0,0 z m -29.28651,-1.69537 c -3.57937,-4.20402 -5.44203,-1.11327 0,0 z m 27.56245,0.25507 c -0.38526,-0.54831 -0.45473,0.21344 0,0 z m -25.03824,-2.67012 c 0.6998,-4.38209 -3.92676,0.69305 0,0 z m 26.52204,-0.5604 c 5.87079,-1.57431 -3.43729,-5.06719 0,0 z m 11.00979,-0.27766 c 6.07372,-7.01874 -2.84854,-9.25663 0,0 z m -44.87859,-0.58279 c -0.50547,-1.34268 -0.54213,1.08733 1.5e-4,-3e-5 z m 4.95507,-0.61351 c -0.80443,-1.49811 -0.53539,1.50361 0,0 z m -5.11881,-0.6451 c -2.97735,-1.55677 -2.52994,0.42935 0,0 z m -3.17138,-0.75111 c -2.54436,-1.90887 -1.78751,0.22999 0,0 z m 40.22736,-1.54487 c -0.1418,-1.80399 -0.8747,2.23215 0,0 z m -38.26808,0.0842 c -1.14321,-1.59884 -2.47377,0.27966 0,0 z m 4.1275,-1.01189 c 8.19196,-1.50923 -6.70737,-3.91902 0,0 z m -9.31333,-0.52853 c -0.54915,-1.31883 -0.85456,0.83444 0,0 z m 4.39928,-0.43745 c -2.03515,-5.8958 -4.33843,1.11322 0,0 z m 2.23268,0.0999 c -0.87415,-0.32463 -0.37608,-0.15382 0,0 z m 35.90825,-0.60143 c 2.42153,-6.17846 -2.57148,1.85191 0,0 z m 1.59229,-0.28481 c -0.64122,-1.00081 -0.18789,0.7933 0,0 z m -38.16166,-1.17693 c 1.51135,-2.64 -3.4526,0.8366 0,0 z m 46.99119,-0.90063 c 4.20488,-4.54269 -0.61135,-10.60058 -0.69653,-1.02702 -0.38606,0.27625 0.14716,1.66444 0.69653,1.02702 z m -8.56766,-3.74426 c 2.41296,-7.97693 -1.07671,-1.54354 0,0 z m -44.66574,-0.35446 c -0.80129,-2.84047 -1.26479,0.74366 0,0 z m 59.64387,-0.44455 c -0.30883,-0.91508 -0.23527,0.91181 0,0 z m -4.2409,-4.43719 c 1.1898,-3.888593 -2.29831,1.2036 0,0 z m -54.72943,0.12977 c 0.2744,-4.012683 -3.8795,0.45954 0,0 z m 55.98799,-2.86717 c -0.0695,-5.234713 -2.03485,1.87043 0,0 z m 0.8838,-4.377653 c 0.40942,-2.42129 -1.66694,0.50296 0,0 z m -0.65312,-1.72984 c -0.12805,-0.38694 -0.26104,0.37699 0,0 z m 8.4561,-4.495981 c 0.94394,-3.689336 -7.50868,-0.882563 0,0 z m -6.24416,-1.273856 c 0.40972,-1.980471 -1.53981,1.513536 0,0 z m 5.19525,-2.007542 c 0.28391,-2.452926 -0.9548,0.71708 0,0 z m -2.32719,-0.623417 c 0.18735,-3.256722 -1.07926,2.137068 0,0 z m -9.47912,-4.960666 c -0.69566,-4.990254 -0.77033,0.136855 0,0 z m 10.76724,-1.418695 c 0.64749,-1.043516 -1.04387,0.702665 0,0 z m -13.10281,-5.759194 c 0.98661,-2.082277 -1.55337,0.707711 0,0 z m 10.22719,-2.337121 c -1.00118,-2.233933 -1.29127,0.02428 0,0 z m -1.2707,-1.332906 c -1.28482,-3.66707 -3.67073,-1.311471 0,0 z m 0.8313,-1.247554 c -1.17687,-1.21049 0.84707,1.612851 0,0 z m -10.68476,-0.934446 c -1.11482,-0.572071 -0.25298,-0.206138 0,0 z m -2.47543,-1.813208 c -0.89277,-0.929123 -0.63964,0.853893 0,0 z m 3.39602,-1.084256 c -0.53995,0.340788 0.37431,0.372612 0,0 z m -3.18812,-0.274468 c 0.35297,-3.654603 -0.27513,1.394324 0,0 z m -7.2925,-2.339339 c 0.50571,-1.345813 -2.41811,0.506262 0,0 z m -2.06998,-0.647155 c -1.14002,-4.058335 -5.6143,-1.417069 -10e-6,-2e-6 z m 0.40535,-3.407073 c -0.0945,-2.896804 -1.40769,1.582743 0,0 z M 159.0461,242.96597 c -0.21021,-1.3823 1.67481,0.28681 0,0 z m -4.11523,-0.35155 c -1.67856,-1.62589 2.13819,-1.03798 0,0 z m 7.63641,-0.11275 c -0.48165,-2.11185 2.21312,0.66389 0,0 z m -4.40438,-0.96296 c -0.0126,-1.697 1.68489,0.72245 0,0 z m -4.51172,-0.15353 c 0.3284,-1.12384 0.79713,0.55524 0,0 z m -6.56938,-0.39399 c -10.88679,-4.28096 6.70071,-3.38195 1.55824,-0.56814 -0.93228,-0.83467 -0.58712,1.4844 -1.55824,0.56814 z m -4.58898,-0.36292 c -0.25184,-0.90212 0.91636,0.25383 0,0 z m 14.39597,-0.15556 c -0.75163,-2.86288 3.12836,0.67437 0,0 z m -5.84998,0.0414 c 0.0425,-2.82218 3.49068,-0.10697 0,0 z m 24.40799,-0.20301 c 0.11446,-0.85788 0.76991,0.54776 0,0 z m -15.89101,-0.0712 c 0.69028,-2.21101 4.04565,0.59093 0,0 z m 13.87179,-0.5303 c -1.12569,-2.18349 2.83769,-0.44713 0,0 z m -19.07317,-0.44719 c -0.17713,-1.76317 1.50027,0.68943 0,0 z m 21.18222,-0.0808 c -0.27177,-3.17696 2.4162,-0.17678 0,0 z m -19.75309,-0.31988 c -0.51695,-2.59477 2.45872,0.75615 0,0 z m 13.59359,-0.0823 c -0.43379,-2.23403 2.46561,0.69512 0,0 z m -18.89126,-0.001 c -2.09127,-2.46522 2.11928,-0.55403 0,0 z m 14.1023,-0.21872 c -1.44396,-1.75078 2.4801,0.20053 0,0 z m 12.3623,-0.32301 c -1.18732,-4.51662 2.60762,1.15872 0,0 z m -19.38871,-0.25138 c 0.22342,-1.21459 1.02407,0.55581 0,0 z m 15.32029,-0.19766 c -2.84272,-2.2905 3.84062,-0.3935 0,0 z m -13.26459,-0.12728 c 0.094,-1.94489 1.71691,0.92296 0,0 z m 8.37787,-0.0344 c -0.611,-2.17309 2.01096,1.05781 0,0 z m -4.86237,-0.40261 c -2.58444,-2.6112 2.60778,-0.58142 0,0 z m -11.68608,-0.36081 c -1.20576,-2.00019 2.24101,0.43857 0,0 z m 23.47676,-0.14653 c -0.0129,-2.41419 2.32279,1.00091 0,0 z m -4.31904,-0.40555 c 1.19293,-1.12084 0.3048,-0.44187 0,0 z m -17.47062,-0.0306 c -0.94024,-1.56999 2.40303,0.23977 0,0 z m 30.80113,-0.66553 c 1.5629,-2.50843 3.68503,-0.61665 0,0 z m -42.70965,-0.27413 c 0.4056,-0.56951 0.4056,0.56951 0,0 z m 29.10417,-0.10583 c 0.0916,-0.55902 0.25119,0.5553 0,0 z m -26.64884,-0.17992 c -0.50008,-2.56354 2.03608,0.56765 0,0 z m -27.90372,-0.39716 c -1.96602,-1.47763 2.35748,0.46879 0,0 z m 18.88672,-0.37542 c 0.2869,-0.49156 0.2869,0.49156 0,0 z m 43.76001,0.0496 c -0.21858,-0.66505 1.19647,0.27296 0,0 z m -48.82365,-0.58975 c -0.93498,-2.28104 2.1517,0.23425 0,0 z m 33.85583,0.0177 c -0.15052,-1.36923 0.74583,0.41999 0,0 z m -37.14953,-0.78866 c -2.69726,-4.85707 3.44939,2.43523 0,0 z m -11.71245,0.35938 c 0.0298,-0.89273 0.86304,0.53732 0,0 z m 13.42678,-0.82114 c -5.64149,-3.1983 -3.42969,-6.82698 1.58823,-0.50254 0.70171,0.38145 -1.89786,0.73715 -1.58823,0.50254 z m -3.55226,-0.0439 c -0.4718,-1.18762 1.31099,0.23008 0,0 z m -9.57694,-0.42422 c 0.77737,-0.68607 0.70183,0.60632 0,0 z m 49.16595,-0.31933 c -2.87159,-1.61421 2.19054,-0.29028 0,0 z m -34.14784,-0.0753 c -0.26867,-2.24167 2.15557,0.55669 0,0 z m 30.84202,-0.38273 c -5.161,-0.6964 -11.9036,-2.74925 -2.2225,-1.55851 0.82504,-0.55067 6.87023,1.71644 2.2225,1.55851 z m -27.35792,-0.42115 c 0.28327,-2.5969 1.39557,1.3763 0,0 z m 39.57643,0.0466 c 3.04623,-2.29661 6.61966,1.11099 0,0 z m -0.68268,-0.15244 c 0.27042,-0.37966 0.27037,0.37968 0,0 z m -43.8011,-0.37235 c 0.11243,-1.65304 1.18354,0.7817 0,0 z m 36.27993,-1.41437 c -2.80876,-3.12728 4.57229,-1.09864 0,0 z m -18.03362,-0.26278 c -3.20683,-2.58551 2.8814,-0.58458 0,0 z m 26.93514,0.046 c 0.44961,-0.67732 0.23499,0.44726 0,0 z m 3.96424,-0.21124 c -4.90749,-2.64467 5.0805,-0.74547 0,0 z m 4.82297,-0.0682 c -0.50601,-1.83866 1.77673,0.52499 0,0 z m -72.05735,-0.91848 c -8.78372,-8.2809 1.17114,-3.63188 0,0 z m 47.44466,0.0807 c -0.14024,-1.22793 1.05736,0.42044 0,0 z m 16.2443,-0.10555 c -9.15693,-1.0397 6.4605,-2.45781 0,0 z m -11.8017,-0.094 c -1.38155,-0.91201 2.02049,0.0539 0,0 z m -42.58023,-0.1541 c -0.3278,-2.46716 2.13051,0.74556 0,0 z m 39.33331,-0.35621 c -3.26904,-5.15337 7.7486,0.18383 0,3e-5 z m -37.5823,-0.31808 c -0.44726,-1.60152 1.50898,0.11989 0,0 z m 4.07311,-0.82726 c -2.59285,-2.37014 2.95928,-1.10809 0,0 z m 43.89339,-0.0332 c 0.2045,-1.05287 1.32963,0.44633 0,0 z m -51.26038,-0.87404 c -3.68424,-3.81416 4.20222,0.42724 0,0 z m 38.23793,-0.0914 c 0.16406,-1.2315 1.36601,0.89947 0,0 z m -7.5112,-0.21674 c 0.28208,-2.56487 2.93222,0.8323 0,0 z m -29.03028,-0.0319 c 0.0763,-1.97865 1.12394,1.00811 0,0 z m -0.37539,-1.00875 c -0.56196,-1.15452 1.24285,0.0838 0,0 z m 2.71047,-0.58641 c -0.44665,-1.46521 1.52085,0.10812 0,0 z m -6.63257,-0.24565 c -1.71263,-2.45779 2.76555,-0.79589 0,0 z m 3.6634,-1.31627 c -0.71058,-1.78148 1.74181,0.13922 0,0 z m 11.54213,-0.17805 c 1.01313,-3.06869 2.73184,0.9093 0,0 z m -13.50892,-0.13731 c -0.28725,-1.44526 1.3848,0.15791 0,0 z m 12.22365,-0.49086 c -3.27949,-3.34426 -10.03894,-8.06229 -1.63259,-2.61915 1.18264,-1.22537 3.57889,4.41146 1.63259,2.61915 z m -14.07901,-0.4498 c 0.2624,-0.55763 0.2624,0.55763 0,0 z m -1.05833,-1.905 c -4.27529,-3.06493 3.75131,0.36851 0,0 z m -3.01173,-0.6806 c -0.11888,-0.40856 0.4104,0.0665 0,0 z m 0.86199,-0.92233 c -0.21113,-0.82531 0.78592,0.10835 0,0 z m -0.16189,-1.41939 c -0.98569,-2.50953 3.03384,1.02605 0,0 z m -3.76623,-1.53606 c -0.49581,-1.47594 1.44771,0.28573 0,0 z m 3.98236,-0.9132 c -0.58211,-1.94274 1.66571,0.23076 0,0 z m 15.76421,-0.74578 c -0.45529,-1.2512 1.49093,0.18458 0,0 z m -2.02704,-1.41236 c -4.04622,-3.54641 4.59243,-2.31071 0,0 z m -23.70667,-7.33945 c 0.18807,-0.7183 0.32719,0.57214 0,0 z m 0.25035,-0.79892 c 0.1971,-2.07335 0.9406,0.74698 0,0 z m 4.57263,-3.71279 c -0.4081,-1.55713 1.53635,0.45332 0,0 z m -2.1365,-1.0446 c -0.49558,-1.77522 1.88787,0.75129 0,0 z m 3.13435,-0.17117 c 0.30483,-0.20176 0.24697,0.36352 0,0 z m 7.47602,-1.44303 c -0.1683,-0.5697 0.68312,0.0348 0,0 z m -9.81171,-0.41168 c 0.23952,-1.84014 1.57603,0.69201 0,0 z m 6.31086,-2.13426 c -0.83416,-5.77821 -2.75961,-5.50536 -3.88636,-4.46656 1.95042,-4.85041 1.85646,-13.45011 2.76993,-2.62244 -0.84411,1.35258 3.39831,8.12531 1.11643,7.089 z m -4.52786,-11.72692 c -0.016,-0.99159 1.27233,0.30111 0,0 z m -7.49783,-6.38157 c 0.55357,-5.3946 5.36535,-1.76971 0,0 z m 4.39188,-3.23982 c -3.85188,-4.32937 2.07447,-2.37911 0,0 z m -2.15819,-8.4654 c 2.2751,-3.22467 3.21053,0.0296 0,0 z m 5.18183,-5.93483 c 1.01513,-6.55323 2.85964,0.55506 0,0 z m -3.46112,-3.17666 c -0.13715,-1.43254 1.4802,0.27347 0,0 z m -0.293,-3.03771 c -1.46631,-11.21737 5.58033,-2.47416 0,0 z m 2.09342,-5.79291 c -1.66335,-3.08065 3.64452,-0.71937 0,0 z m -3.28701,-3.03489 c -0.34708,-1.50217 1.63348,0.29578 0,0 z M 71.975401,132.5052 c -1.27062,-1.6475 1.9103,-0.52441 0,0 z m 14.39758,-7.24524 c -0.19865,-2.14871 1.63443,-0.01 0,0 z m -33.90657,-1.15919 c 0.25006,-1.15609 0.96526,0.67949 0,0 z m 52.739199,-0.0266 c -0.59732,-3.28346 2.39529,0.89747 0,0 z m -18.166819,-0.12396 c 0.26102,-0.37699 0.12807,0.38692 0,0 z m 16.091499,-0.89376 c -0.31422,-2.04451 1.92601,0.60986 0,0 z m -15.509419,-1.01124 c 0.72061,-3.1607 1.12077,1.44523 0,0 z m 1.42875,-0.25577 c 0.27372,-0.63115 0.20663,0.50831 0,0 z m -38.68267,-0.16851 c 0.0819,-1.63177 1.46959,0.59013 0,0 z m 38.92946,-0.58934 c 0.25006,-1.15609 0.96526,0.6795 0,0 z m -3.2659,-0.0494 c 0.14132,-1.32324 1.1107,0.7237 0,0 z m 3.1549,-1.49895 c -1.8552,-4.25476 3.88201,-0.35116 0,0 z m 0.6756,-2.80031 c -0.069,-1.94096 1.50507,0.20975 0,0 z m 11.715489,-0.0875 c 0.0298,-0.89273 0.86303,0.53731 0,0 z m -11.421029,-2.32556 c -0.27108,-4.11002 2.78619,1.45912 0,0 z m -55.6485,-4.6745 c -0.62705,-2.85708 3.13409,1.0673 0,0 z m 66.705349,-0.0303 c -0.81784,-2.63029 2.77557,0.91888 0,0 z m -9.833059,-1.04027 c -1.7174,-3.94693 4.34281,1.19275 0,0 z m 1.06655,-2.22378 c -2.56868,-3.26774 2.59496,-1.18258 0,0 z m 6.36573,-0.20126 c -1.06171,-1.82671 1.733289,-0.29011 0,0 z m -2.14966,-1.25563 c -3.52125,-2.94906 2.7403,-0.83767 0,0 z m 1.50562,-0.18166 c -1.60294,-2.57329 3.164539,-1.52707 0,0 z m 0.41217,-2.13738 c -0.11592,-2.45551 1.601949,-0.0429 0,0 z m -1.58041,-0.15519 c -0.46203,-1.21358 1.34062,-0.12405 0,0 z m -1.09693,-0.44145 c -0.69632,-3.493863 2.31443,0.0392 0,0 z m 1.54271,-1.64156 c 0.5945,-2.500413 1.0749,0.75589 0,0 z m -67.74675,-0.381963 c -0.48503,-1.23983 1.46644,0.372393 0,0 z m 62.35869,-0.33427 c 0.25453,-1.87193 1.22553,0.41841 0,0 z m -63.78215,-1.34638 c -0.53128,-2.0934 1.78842,0.52261 0,0 z m 69.80599,-0.35833 c -1.1885,-3.04124 3.939959,1.33817 -4e-5,10e-6 z m -3.91058,-0.315 c -0.687,-3.76697 1.49983,0.71356 0,0 z m 1.61744,-1.61125 c -0.24377,-1.2457 1.04486,-0.12435 0,0 z m 3.48242,-0.51908 c -0.30427,-2.13321 1.460219,0.36894 0,0 z m -2.07131,-1.84453 c 0.39753,-0.74784 0.39749,0.74786 0,0 z m 4.824939,-4.641254 c 0.15778,-1.154182 0.79135,0.408581 0,0 z m -4.091469,-2.299738 c -0.36444,-1.481849 1.52322,0.347337 0,0 z m -4.83742,-1.902129 c -0.86677,-1.757818 1.8154,0.225265 0,0 z m 10.983119,-2.316087 c 0.20082,-0.532915 0.32872,0.383822 0,0 z M 92.073431,81.34474 c -0.46196,-2.11709 2.00296,0.556956 0,0 z m 13.274529,-1.400023 c 0.9033,-1.399646 0.91092,0.842281 0,0 z M 91.272121,77.806883 c -1.11144,-2.908423 2.48433,0.90403 0,0 z m -2.0469,-8.756901 c -0.23506,-0.638589 1.16661,0.186815 0,0 z m -1.58671,-3.061154 c -0.65864,-1.590452 0.8147,0.0121 0,0 z m -0.98284,-2.728958 c 0.0395,-1.13113 0.83873,0.50782 0,0 z m 0.27207,-1.281359 c -0.27102,-0.924291 1.1096,0.14475 0,0 z m -5.18062,-0.146213 c -0.1238,-3.529796 3.53215,-1.700184 0,0 z m 4.77845,-3.446864 c -5.74668,-0.912272 -6.09223,-0.547884 -2.36212,-4.12268 0.59907,-4.986539 7.86845,3.535489 2.3618,4.122692 z m -20.85057,-1.506363 c -0.10674,-1.154444 0.85222,0.509018 0,0 z m 2.56982,-1.840197 c 0.0889,-0.786312 0.8229,0.318327 0,0 z m 15.16323,-0.265501 c -0.0347,-0.683085 0.56973,0.168392 0,0 z m 9.0835,-1.517228 c -0.50491,-3.817365 2.8498,0.192284 0,0 z m -5.43159,-0.129593 c -0.58209,-1.942777 1.66569,0.23079 0,0 z m 1.29605,-0.623055 c 0.20358,-0.920139 0.8248,0.470718 0,0 z m -59.07284,-9.753903 c -2.7309,-6.595446 14.69185,-17.596468 3.8803,-7.646457 -1.81228,1.989005 -1.02154,7.348838 -3.8803,7.646457 z M 123.87926,26.168927 c 2.6324,-3.951286 -7.91489,-15.242157 -0.39058,-8.674998 1.01401,1.97082 3.10656,7.739974 0.39058,8.674998 z M 110.8022,15.581121 c -0.70111,-2.937271 2.80727,0.482677 0,0 z m 7.77492,-0.104649 c -4.58955,-2.758809 4.5167,-0.54986 0,0 z m -6.15876,-0.508126 c -0.75185,-2.581559 2.81687,0.485504 0,0 z m 3.52929,-0.196243 c -1.24035,-2.107045 2.47785,-0.132904 0,0 z m -1.68853,-0.168882 c -0.26343,-2.262498 1.75482,0.665614 0,0 z"
       id="path436" />
  </g>
</svg>
