0
SECTION
2
HEADER
9
$INSUNITS
70
4
0
ENDSEC
0
SECTION
2
TABLES
0
TABLE
2
LTYPE
0
LTYPE
72
65
70
64
2
CONTINUOUS
3
______
73
0
40
0
0
ENDTAB
0
TABLE
2
LAYER
0
ENDTAB
0
ENDSEC
0
SECTION
2
ENTITIES
0
LINE
8
0
10
275.4999733
20
-155.8450582
11
255.5000255
21
-167.3922962
0
LINE
8
0
10
252.4999745
20
-167.3922962
11
232.5000267
21
-155.8450582
0
LINE
8
0
10
229.4999739
20
-155.8450593
11
211.0000276
21
-166.5262685
0
LINE
8
0
10
207.9999724
20
-166.5262683
11
189.7699722
21
-156.0009129
0
LINE
8
0
10
188.27
20
-153.4028527
11
188.27
21
-153.1924333
0
LINE
8
0
10
188.27
20
-144.9757667
11
188.27
21
-144.7653476
0
LINE
8
0
10
189.7699726
20
-142.1672872
11
197.5200274
21
-137.6926819
0
LINE
8
0
10
199.02
20
-135.0946215
11
199.02
21
-122.6812476
0
LINE
8
0
10
200.5199726
20
-120.0831872
11
208.2700274
21
-115.6085819
0
LINE
8
0
10
209.77
20
-113.0105215
11
209.77
21
-104.0612476
0
LINE
8
0
10
211.2699726
20
-101.4631872
11
219.0200274
21
-96.9885819
0
LINE
8
0
10
220.52
20
-94.3905215
11
220.52
21
-85.4412476
0
LINE
8
0
10
222.0199726
20
-82.8431872
11
229.7700274
21
-78.3685819
0
LINE
8
0
10
231.27
20
-75.7705215
11
231.27
21
-63.3145334
0
LINE
8
0
10
234.27
20
-60.3145334
11
244.61
21
-60.3145333
0
LINE
8
0
10
263.39
20
-60.3145333
11
273.73
21
-60.3145334
0
LINE
8
0
10
276.73
20
-63.3145334
11
276.73
21
-75.7705215
0
LINE
8
0
10
278.2299726
20
-78.3685819
11
285.9800274
21
-82.8431872
0
LINE
8
0
10
287.48
20
-85.4412476
11
287.48
21
-94.3905215
0
LINE
8
0
10
288.9799726
20
-96.9885819
11
296.7300274
21
-101.4631872
0
LINE
8
0
10
298.23
20
-104.0612476
11
298.23
21
-113.0105215
0
LINE
8
0
10
299.7299726
20
-115.6085819
11
307.4800274
21
-120.0831872
0
LINE
8
0
10
308.98
20
-122.6812476
11
308.98
21
-135.0946215
0
LINE
8
0
10
310.4799726
20
-137.6926819
11
318.2300274
21
-142.1672872
0
LINE
8
0
10
319.73
20
-144.7653476
11
319.73
21
-144.9757667
0
LINE
8
0
10
319.73
20
-153.1924333
11
319.73
21
-153.4028527
0
LINE
8
0
10
318.2300278
20
-156.0009129
11
300.0000276
21
-166.5262683
0
LINE
8
0
10
296.9999724
20
-166.5262685
11
278.5000261
21
-155.8450593
0
ARC
8
0
10
254
20
-164.7942347
40
3
50
239.9994378
51
300.0005622
0
ARC
8
0
10
231.0000012
20
-158.4431197
40
3
50
59.9994378
51
120.0006035
0
ARC
8
0
10
209.5000003
20
-163.9282081
40
3
50
239.9993866
51
300.0006035
0
ARC
8
0
10
191.27
20
-153.4028527
40
3
50
180
51
239.9993866
0
ARC
8
0
10
191.27
20
-144.7653476
40
3
50
120.0006035
51
180
0
ARC
8
0
10
196.02
20
-135.0946215
40
3
50
300.0006035
51
0
0
ARC
8
0
10
202.02
20
-122.6812476
40
3
50
120.0006035
51
180
0
ARC
8
0
10
206.77
20
-113.0105215
40
3
50
300.0006035
51
0
0
ARC
8
0
10
212.77
20
-104.0612476
40
3
50
120.0006035
51
180
0
ARC
8
0
10
217.52
20
-94.3905215
40
3
50
300.0006035
51
0
0
ARC
8
0
10
223.52
20
-85.4412476
40
3
50
120.0006035
51
180
0
ARC
8
0
10
228.27
20
-75.7705215
40
3
50
300.0006035
51
0
0
ARC
8
0
10
234.27
20
-63.3145334
40
3
50
90
51
180
0
ARC
8
0
10
273.73
20
-63.3145334
40
3
50
0
51
90
0
ARC
8
0
10
279.73
20
-75.7705215
40
3
50
180
51
239.9993965
0
ARC
8
0
10
284.48
20
-85.4412476
40
3
50
0
51
59.9993965
0
ARC
8
0
10
290.48
20
-94.3905215
40
3
50
180
51
239.9993965
0
ARC
8
0
10
295.23
20
-104.0612476
40
3
50
0
51
59.9993965
0
ARC
8
0
10
301.23
20
-113.0105215
40
3
50
180
51
239.9993965
0
ARC
8
0
10
305.98
20
-122.6812476
40
3
50
0
51
59.9993965
0
ARC
8
0
10
311.98
20
-135.0946215
40
3
50
180
51
239.9993965
0
ARC
8
0
10
316.73
20
-144.7653476
40
3
50
0
51
59.9993965
0
ARC
8
0
10
316.73
20
-153.4028527
40
3
50
300.0006134
51
0
0
ARC
8
0
10
298.4999997
20
-163.9282081
40
3
50
239.9993965
51
300.0006134
0
ARC
8
0
10
276.9999988
20
-158.4431197
40
3
50
59.9993965
51
120.0005622
0
LINE
8
0
10
245.11
20
-93.8345333
11
262.89
21
-93.8345333
0
LINE
8
0
10
263.39
20
-93.3345333
11
263.39
21
-60.3145333
0
LINE
8
0
10
244.61
20
-60.3145333
11
244.61
21
-93.3345333
0
ARC
8
0
10
262.89
20
-93.3345333
40
0.5
50
270
51
0
0
ARC
8
0
10
245.11
20
-93.3345333
40
0.5
50
180
51
270
0
LINE
8
0
10
261.6895354
20
-134.7828322
11
246.3104646
21
-134.7828322
0
LINE
8
0
10
241.25
20
-126.7499012
11
241.25
21
-120.4492179
0
LINE
8
0
10
242.25
20
-119.4492179
11
265.75
21
-119.4492179
0
LINE
8
0
10
266.75
20
-120.4492179
11
266.75
21
-126.7499012
0
LINE
8
0
10
245.4444392
20
-134.2828322
11
241.3839746
21
-127.2499012
0
LINE
8
0
10
266.6160254
20
-127.2499012
11
262.5555608
21
-134.2828322
0
ARC
8
0
10
246.3104646
20
-133.7828322
40
1
50
210.0000001
51
270
0
ARC
8
0
10
242.25
20
-126.7499012
40
1
50
180
51
210.0000001
0
ARC
8
0
10
242.25
20
-120.4492179
40
1
50
90
51
180
0
ARC
8
0
10
265.75
20
-120.4492179
40
1
50
0
51
90
0
ARC
8
0
10
265.75
20
-126.7499012
40
1
50
329.9999999
51
0
0
ARC
8
0
10
261.6895354
20
-133.7828322
40
1
50
270
51
329.9999999
0
LINE
8
0
10
213.6657069
20
-112.1758968
11
223.2660254
21
-128.8041362
0
LINE
8
0
10
226.8292931
20
-104.5758968
11
237.5842931
21
-123.2041032
0
ARC
8
0
10
220.25
20
-108.3802269
40
7.6
50
30.0376946
51
209.9623054
0
ARC
8
0
10
231
20
-126.9997731
40
7.6
50
360.035984
51
29.9623054
0
LINE
8
0
10
224.4157069
20
-93.5558968
11
235.1707069
21
-112.1841032
0
LINE
8
0
10
237.5792931
20
-85.9558968
11
248.3342931
21
-104.5841032
0
ARC
8
0
10
231
20
-89.7602269
40
7.6
50
30.0376946
51
209.9623054
0
ARC
8
0
10
241.75
20
-108.3797731
40
7.6
50
210.0376946
51
29.9623054
0
LINE
8
0
10
202.9157069
20
-134.2599968
11
213.6707069
21
-152.8882032
0
LINE
8
0
10
217.2339746
20
-128.6599638
11
226.8342931
21
-145.2882032
0
ARC
8
0
10
209.5
20
-130.4643269
40
7.6
50
180.035984
51
209.9623054
0
ARC
8
0
10
220.25
20
-149.0838731
40
7.6
50
210.0376946
51
29.9623054
0
LINE
8
0
10
224.4157069
20
-134.2599968
11
235.1707069
21
-152.8882032
0
LINE
8
0
10
238.7339746
20
-128.6599638
11
248.3342931
21
-145.2882032
0
ARC
8
0
10
231
20
-130.4643269
40
7.6
50
180.035984
51
209.9623054
0
ARC
8
0
10
241.75
20
-149.0838731
40
7.6
50
210.0376946
51
29.9623054
0
LINE
8
0
10
284.7339746
20
-128.8041362
11
294.3342931
21
-112.1758968
0
LINE
8
0
10
270.4157069
20
-123.2041032
11
281.1707069
21
-104.5758968
0
ARC
8
0
10
277
20
-126.9997731
40
7.6
50
150.0376946
51
179.964016
0
ARC
8
0
10
287.75
20
-108.3802269
40
7.6
50
330.0376946
51
149.9623054
0
LINE
8
0
10
272.8292931
20
-112.1841032
11
283.5842931
21
-93.5558968
0
LINE
8
0
10
259.6657069
20
-104.5841032
11
270.4207069
21
-85.9558968
0
ARC
8
0
10
266.25
20
-108.3797731
40
7.6
50
150.0376946
51
329.9623054
0
ARC
8
0
10
277
20
-89.7602269
40
7.6
50
330.0376946
51
149.9623054
0
LINE
8
0
10
294.3292931
20
-152.8882032
11
305.0842931
21
-134.2599968
0
LINE
8
0
10
281.1657069
20
-145.2882032
11
290.7660254
21
-128.6599638
0
ARC
8
0
10
287.75
20
-149.0838731
40
7.6
50
150.0376946
51
329.9623054
0
ARC
8
0
10
298.5
20
-130.4643269
40
7.6
50
330.0376946
51
359.964016
0
LINE
8
0
10
272.8292931
20
-152.8882032
11
283.5842931
21
-134.2599968
0
LINE
8
0
10
259.6657069
20
-145.2882032
11
269.2660254
21
-128.6599638
0
ARC
8
0
10
266.25
20
-149.0838731
40
7.6
50
150.0376946
51
329.9623054
0
ARC
8
0
10
277
20
-130.4643269
40
7.6
50
330.0376946
51
359.964016
0
LINE
8
0
10
201.9
20
-130.4691
11
201.9
21
-126.995
0
LINE
8
0
10
217.1
20
-126.995
11
217.1
21
-128.1599638
0
ARC
8
0
10
209.5
20
-127
40
7.6
50
0.0376946
51
179.9623054
0
LINE
8
0
10
223.4
20
-130.4691
11
223.4
21
-129.3041362
0
LINE
8
0
10
238.6
20
-128.1599638
11
238.6
21
-126.995
0
LINE
8
0
10
290.9
20
-126.995
11
290.9
21
-128.1599638
0
LINE
8
0
10
306.1
20
-130.4691
11
306.1
21
-126.995
0
ARC
8
0
10
298.5
20
-127
40
7.6
50
0.0376946
51
179.9623054
0
LINE
8
0
10
269.4
20
-128.1599638
11
269.4
21
-126.995
0
LINE
8
0
10
284.6
20
-130.4691
11
284.6
21
-129.3041362
0
ARC
8
0
10
268.4
20
-128.1599638
40
1
50
329.9999999
51
0
0
ARC
8
0
10
285.6
20
-129.3041362
40
1
50
149.9999999
51
180
0
ARC
8
0
10
222.4
20
-129.3041362
40
1
50
0
51
30.0000001
0
ARC
8
0
10
239.6
20
-128.1599638
40
1
50
180
51
210.0000001
0
ARC
8
0
10
289.9
20
-128.1599638
40
1
50
329.9999999
51
0
0
ARC
8
0
10
218.1
20
-128.1599638
40
1
50
180
51
210.0000001
0
ARC
8
0
10
198.75
20
-149.0841
40
7.6
50
206.6010033
51
153.3989967
0
ARC
8
0
10
309.25
20
-149.0841
40
7.6
50
26.6010033
51
333.3989967
0
LINE
8
0
10
189.845
20
-151.6174333
11
190.5462068
21
-151.6174333
0
LINE
8
0
10
190.5462068
20
-146.5507667
11
189.845
21
-146.5507667
0
LINE
8
0
10
317.4537932
20
-151.6174333
11
318.155
21
-151.6174333
0
LINE
8
0
10
318.155
20
-146.5507667
11
317.4537932
21
-146.5507667
0
ARC
8
0
10
190.5462068
20
-144.9757667
40
1.575
50
270
51
333.3989967
0
ARC
8
0
10
189.845
20
-144.9757667
40
1.575
50
180
51
270
0
ARC
8
0
10
189.845
20
-153.1924333
40
1.575
50
90
51
180
0
ARC
8
0
10
190.5462068
20
-153.1924333
40
1.575
50
26.6010033
51
90
0
ARC
8
0
10
317.4537932
20
-153.1924333
40
1.575
50
90
51
153.3989967
0
ARC
8
0
10
318.155
20
-153.1924333
40
1.575
50
0
51
90
0
ARC
8
0
10
318.155
20
-144.9757667
40
1.575
50
270
51
0
0
ARC
8
0
10
317.4537932
20
-144.9757667
40
1.575
50
206.6010033
51
270
0
CIRCLE
8
0
10
206.8125
20
-160.427931
40
1.6
0
CIRCLE
8
0
10
250
20
-139.4133333
40
1.6
0
CIRCLE
8
0
10
239.0625
20
-75.795
40
1.6
0
CIRCLE
8
0
10
301.1875
20
-160.427931
40
1.6
0
CIRCLE
8
0
10
258
20
-139.4133333
40
1.6
0
CIRCLE
8
0
10
268.9375
20
-75.795
40
1.6
0
ENDSEC
0
EOF