0
SECTION
2
HEADER
9
$INSUNITS
70
4
0
ENDSEC
0
SECTION
2
TABLES
0
TABLE
2
LTYPE
0
LTYPE
72
65
70
64
2
CONTINUOUS
3
______
73
0
40
0
0
ENDTAB
0
TABLE
2
LAYER
0
ENDTAB
0
ENDSEC
0
SECTION
2
ENTITIES
0
LINE
8
0
10
251.3649552
20
-170.6688534
11
233.6350454
21
-180.9054545
0
LINE
8
0
10
228.3649549
20
-180.9054539
11
188.6349542
21
-157.9667936
0
LINE
8
0
10
186
20
-153.4028662
11
186
21
-143.6106322
0
LINE
8
0
10
183.3650481
20
-139.046706
11
145.6349519
21
-117.262694
0
LINE
8
0
10
143
20
-112.6987678
11
143
21
-66.8212354
0
LINE
8
0
10
145.6349562
20
-62.2573068
11
163.8649534
21
-51.7319787
0
LINE
8
0
10
169.1350453
20
-51.7319812
11
185.3649519
21
-61.1025505
0
LINE
8
0
10
190.6350481
20
-61.1025505
11
206.8649531
21
-51.7319821
0
LINE
8
0
10
212.1350476
20
-51.7319812
11
225.7771885
21
-59.6084604
0
LINE
8
0
10
244.61
20
-60.3145333
11
228.412235
21
-60.3145333
0
ARC
8
0
10
231.0000007
20
-176.3415265
40
5.27
50
239.999425
51
300.0005622
0
ARC
8
0
10
191.27
20
-153.4028662
40
5.27
50
180
51
239.999425
0
ARC
8
0
10
180.73
20
-143.6106322
40
5.27
50
0
51
59.9993965
0
ARC
8
0
10
148.27
20
-112.6987678
40
5.27
50
180
51
239.9993965
0
ARC
8
0
10
148.27
20
-66.8212354
40
5.27
50
120.0005495
51
180
0
ARC
8
0
10
166.4999972
20
-56.2959073
40
5.27
50
59.9993965
51
120.0005495
0
ARC
8
0
10
188
20
-56.5386243
40
5.27
50
239.9993965
51
300.0006035
0
ARC
8
0
10
209.5000012
20
-56.2959083
40
5.27
50
59.9994171
51
120.0006035
0
ARC
8
0
10
228.412235
20
-55.0445333
40
5.27
50
239.9994171
51
270
0
ARC
8
0
10
254
20
-175.2327815
40
5.27
50
90
51
120.0005622
0
LINE
8
0
10
179.3346788
20
-68.5507695
11
180.5346788
21
-70.6292305
0
LINE
8
0
10
181.0810889
20
-70.7756406
11
183.1595499
21
-69.5756406
0
LINE
8
0
10
183.30596
20
-69.0292305
11
182.10596
21
-66.9507695
0
LINE
8
0
10
181.5595499
20
-66.8043594
11
179.4810889
21
-68.0043594
0
ARC
8
0
10
180.8810889
20
-70.4292305
40
0.4
50
210
51
300
0
ARC
8
0
10
182.9595499
20
-69.2292305
40
0.4
50
300
51
30
0
ARC
8
0
10
181.7595499
20
-67.1507695
40
0.4
50
30
51
120
0
ARC
8
0
10
179.6810889
20
-68.3507695
40
0.4
50
120
51
210
0
LINE
8
0
10
200.8346788
20
-68.5507695
11
202.0346788
21
-70.6292305
0
LINE
8
0
10
202.5810889
20
-70.7756406
11
204.6595499
21
-69.5756406
0
LINE
8
0
10
204.80596
20
-69.0292305
11
203.60596
21
-66.9507695
0
LINE
8
0
10
203.0595499
20
-66.8043594
11
200.9810889
21
-68.0043594
0
ARC
8
0
10
202.3810889
20
-70.4292305
40
0.4
50
210
51
300
0
ARC
8
0
10
204.4595499
20
-69.2292305
40
0.4
50
300
51
30
0
ARC
8
0
10
203.2595499
20
-67.1507695
40
0.4
50
30
51
120
0
ARC
8
0
10
201.1810889
20
-68.3507695
40
0.4
50
120
51
210
0
LINE
8
0
10
222.3346788
20
-68.5507695
11
223.5346788
21
-70.6292305
0
LINE
8
0
10
224.0810889
20
-70.7756406
11
226.1595499
21
-69.5756406
0
LINE
8
0
10
226.30596
20
-69.0292305
11
225.10596
21
-66.9507695
0
LINE
8
0
10
224.5595499
20
-66.8043594
11
222.4810889
21
-68.0043594
0
ARC
8
0
10
223.8810889
20
-70.4292305
40
0.4
50
210
51
300
0
ARC
8
0
10
225.9595499
20
-69.2292305
40
0.4
50
300
51
30
0
ARC
8
0
10
224.7595499
20
-67.1507695
40
0.4
50
30
51
120
0
ARC
8
0
10
222.6810889
20
-68.3507695
40
0.4
50
120
51
210
0
LINE
8
0
10
169.7846788
20
-90.2707695
11
168.5846788
21
-92.3492305
0
LINE
8
0
10
168.7310889
20
-92.8956406
11
170.8095499
21
-94.0956406
0
LINE
8
0
10
171.35596
20
-93.9492305
11
172.55596
21
-91.8707695
0
LINE
8
0
10
172.4095499
20
-91.3243594
11
170.3310889
21
-90.1243594
0
ARC
8
0
10
168.9310889
20
-92.5492305
40
0.4
50
150
51
240
0
ARC
8
0
10
171.0095499
20
-93.7492305
40
0.4
50
240
51
330
0
ARC
8
0
10
172.2095499
20
-91.6707695
40
0.4
50
330
51
60
0
ARC
8
0
10
170.1310889
20
-90.4707695
40
0.4
50
60
51
150
0
LINE
8
0
10
191.2846788
20
-90.2707695
11
190.0846788
21
-92.3492305
0
LINE
8
0
10
190.2310889
20
-92.8956406
11
192.3095499
21
-94.0956406
0
LINE
8
0
10
192.85596
20
-93.9492305
11
194.05596
21
-91.8707695
0
LINE
8
0
10
193.9095499
20
-91.3243594
11
191.8310889
21
-90.1243594
0
ARC
8
0
10
190.4310889
20
-92.5492305
40
0.4
50
150
51
240
0
ARC
8
0
10
192.5095499
20
-93.7492305
40
0.4
50
240
51
330
0
ARC
8
0
10
193.7095499
20
-91.6707695
40
0.4
50
330
51
60
0
ARC
8
0
10
191.6310889
20
-90.4707695
40
0.4
50
60
51
150
0
LINE
8
0
10
212.7846788
20
-90.2707695
11
211.5846788
21
-92.3492305
0
LINE
8
0
10
211.7310889
20
-92.8956406
11
213.8095499
21
-94.0956406
0
LINE
8
0
10
214.35596
20
-93.9492305
11
215.55596
21
-91.8707695
0
LINE
8
0
10
215.4095499
20
-91.3243594
11
213.3310889
21
-90.1243594
0
ARC
8
0
10
211.9310889
20
-92.5492305
40
0.4
50
150
51
240
0
ARC
8
0
10
214.0095499
20
-93.7492305
40
0.4
50
240
51
330
0
ARC
8
0
10
215.2095499
20
-91.6707695
40
0.4
50
330
51
60
0
ARC
8
0
10
213.1310889
20
-90.4707695
40
0.4
50
60
51
150
0
LINE
8
0
10
156.95
20
-111.48
11
154.55
21
-111.48
0
LINE
8
0
10
154.15
20
-111.88
11
154.15
21
-114.28
0
LINE
8
0
10
154.55
20
-114.68
11
156.95
21
-114.68
0
LINE
8
0
10
157.35
20
-114.28
11
157.35
21
-111.88
0
ARC
8
0
10
154.55
20
-111.88
40
0.4
50
90
51
180
0
ARC
8
0
10
154.55
20
-114.28
40
0.4
50
180
51
270
0
ARC
8
0
10
156.95
20
-114.28
40
0.4
50
270
51
0
0
ARC
8
0
10
156.95
20
-111.88
40
0.4
50
0
51
90
0
LINE
8
0
10
178.45
20
-111.48
11
176.05
21
-111.48
0
LINE
8
0
10
175.65
20
-111.88
11
175.65
21
-114.28
0
LINE
8
0
10
176.05
20
-114.68
11
178.45
21
-114.68
0
LINE
8
0
10
178.85
20
-114.28
11
178.85
21
-111.88
0
ARC
8
0
10
176.05
20
-111.88
40
0.4
50
90
51
180
0
ARC
8
0
10
176.05
20
-114.28
40
0.4
50
180
51
270
0
ARC
8
0
10
178.45
20
-114.28
40
0.4
50
270
51
0
0
ARC
8
0
10
178.45
20
-111.88
40
0.4
50
0
51
90
0
LINE
8
0
10
199.95
20
-111.48
11
197.55
21
-111.48
0
LINE
8
0
10
197.15
20
-111.88
11
197.15
21
-114.28
0
LINE
8
0
10
197.55
20
-114.68
11
199.95
21
-114.68
0
LINE
8
0
10
200.35
20
-114.28
11
200.35
21
-111.88
0
ARC
8
0
10
197.55
20
-111.88
40
0.4
50
90
51
180
0
ARC
8
0
10
197.55
20
-114.28
40
0.4
50
180
51
270
0
ARC
8
0
10
199.95
20
-114.28
40
0.4
50
270
51
0
0
ARC
8
0
10
199.95
20
-111.88
40
0.4
50
0
51
90
0
LINE
8
0
10
154.55
20
-68.04
11
156.95
21
-68.04
0
LINE
8
0
10
157.35
20
-67.64
11
157.35
21
-65.24
0
LINE
8
0
10
156.95
20
-64.84
11
154.55
21
-64.84
0
LINE
8
0
10
154.15
20
-65.24
11
154.15
21
-67.64
0
ARC
8
0
10
156.95
20
-67.64
40
0.4
50
270
51
0
0
ARC
8
0
10
156.95
20
-65.24
40
0.4
50
0
51
90
0
ARC
8
0
10
154.55
20
-65.24
40
0.4
50
90
51
180
0
ARC
8
0
10
154.55
20
-67.64
40
0.4
50
180
51
270
0
LINE
8
0
10
189.2
20
-130.1
11
186.8
21
-130.1
0
LINE
8
0
10
186.4
20
-130.5
11
186.4
21
-132.9
0
LINE
8
0
10
186.8
20
-133.3
11
189.2
21
-133.3
0
LINE
8
0
10
189.6
20
-132.9
11
189.6
21
-130.5
0
ARC
8
0
10
186.8
20
-130.5
40
0.4
50
90
51
180
0
ARC
8
0
10
186.8
20
-132.9
40
0.4
50
180
51
270
0
ARC
8
0
10
189.2
20
-132.9
40
0.4
50
270
51
0
0
ARC
8
0
10
189.2
20
-130.5
40
0.4
50
0
51
90
0
LINE
8
0
10
229.8
20
-164.6041
11
232.2
21
-164.6041
0
LINE
8
0
10
232.6
20
-164.2041
11
232.6
21
-161.8041
0
LINE
8
0
10
232.2
20
-161.4041
11
229.8
21
-161.4041
0
LINE
8
0
10
229.4
20
-161.8041
11
229.4
21
-164.2041
0
ARC
8
0
10
232.2
20
-164.2041
40
0.4
50
270
51
0
0
ARC
8
0
10
232.2
20
-161.8041
40
0.4
50
0
51
90
0
ARC
8
0
10
229.8
20
-161.8041
40
0.4
50
90
51
180
0
ARC
8
0
10
229.8
20
-164.2041
40
0.4
50
180
51
270
0
LINE
8
0
10
245.11
20
-93.8345333
11
254
21
-93.8345333
0
LINE
8
0
10
244.61
20
-60.3145333
11
244.61
21
-93.3345333
0
ARC
8
0
10
245.11
20
-93.3345333
40
0.5
50
180
51
270
0
CIRCLE
8
0
10
231
20
-89.76
40
7.6
0
CIRCLE
8
0
10
220.25
20
-108.38
40
7.6
0
CIRCLE
8
0
10
209.5
20
-127
40
7.6
0
CIRCLE
8
0
10
241.75
20
-149.0841
40
7.6
0
CIRCLE
8
0
10
198.75
20
-149.0841
40
7.6
0
CIRCLE
8
0
10
220.25
20
-149.0841
40
7.6
0
LINE
8
0
10
254
20
-169.9627815
11
254
21
-93.8345333
0
ENDSEC
0
EOF