0
SECTION
2
HEADER
9
$INSUNITS
70
4
0
ENDSEC
0
SECTION
2
TABLES
0
TABLE
2
LTYPE
0
LTYPE
72
65
70
64
2
CONTINUOUS
3
______
73
0
40
0
0
ENDTAB
0
TABLE
2
LAYER
0
ENDTAB
0
ENDSEC
0
SECTION
2
ENTITIES
0
LINE
8
0
10
275.4999733
20
-155.8450582
11
255.5000255
21
-167.3922962
0
LINE
8
0
10
252.4999745
20
-167.3922962
11
232.5000267
21
-155.8450582
0
LINE
8
0
10
229.4999739
20
-155.8450593
11
211.0000276
21
-166.5262685
0
LINE
8
0
10
207.9999724
20
-166.5262683
11
189.7699722
21
-156.0009129
0
LINE
8
0
10
188.27
20
-153.4028527
11
188.27
21
-144.7653476
0
LINE
8
0
10
189.7699726
20
-142.1672872
11
197.5200274
21
-137.6926819
0
LINE
8
0
10
199.02
20
-135.0946215
11
199.02
21
-122.6812476
0
LINE
8
0
10
200.5199726
20
-120.0831872
11
208.2700274
21
-115.6085819
0
LINE
8
0
10
209.77
20
-113.0105215
11
209.77
21
-104.0612476
0
LINE
8
0
10
211.2699726
20
-101.4631872
11
219.0200274
21
-96.9885819
0
LINE
8
0
10
220.52
20
-94.3905215
11
220.52
21
-85.4412476
0
LINE
8
0
10
222.0199726
20
-82.8431872
11
229.7700274
21
-78.3685819
0
LINE
8
0
10
231.27
20
-75.7705215
11
231.27
21
-63.3145334
0
LINE
8
0
10
234.27
20
-60.3145334
11
244.61
21
-60.3145333
0
LINE
8
0
10
263.39
20
-60.3145333
11
273.73
21
-60.3145334
0
LINE
8
0
10
276.73
20
-63.3145334
11
276.73
21
-75.7705215
0
LINE
8
0
10
278.2299726
20
-78.3685819
11
285.9800274
21
-82.8431872
0
LINE
8
0
10
287.48
20
-85.4412476
11
287.48
21
-94.3905215
0
LINE
8
0
10
288.9799726
20
-96.9885819
11
296.7300274
21
-101.4631872
0
LINE
8
0
10
298.23
20
-104.0612476
11
298.23
21
-113.0105215
0
LINE
8
0
10
299.7299726
20
-115.6085819
11
307.4800274
21
-120.0831872
0
LINE
8
0
10
308.98
20
-122.6812476
11
308.98
21
-135.0946215
0
LINE
8
0
10
310.4799726
20
-137.6926819
11
318.2300274
21
-142.1672872
0
LINE
8
0
10
319.73
20
-144.7653476
11
319.73
21
-153.4028527
0
LINE
8
0
10
318.2300278
20
-156.0009129
11
300.0000276
21
-166.5262683
0
LINE
8
0
10
296.9999724
20
-166.5262685
11
278.5000261
21
-155.8450593
0
ARC
8
0
10
254
20
-164.7942347
40
3
50
239.9994378
51
300.0005622
0
ARC
8
0
10
231.0000012
20
-158.4431197
40
3
50
59.9994378
51
120.0006035
0
ARC
8
0
10
209.5000003
20
-163.9282081
40
3
50
239.9993866
51
300.0006035
0
ARC
8
0
10
191.27
20
-153.4028527
40
3
50
180
51
239.9993866
0
ARC
8
0
10
191.27
20
-144.7653476
40
3
50
120.0006035
51
180
0
ARC
8
0
10
196.02
20
-135.0946215
40
3
50
300.0006035
51
0
0
ARC
8
0
10
202.02
20
-122.6812476
40
3
50
120.0006035
51
180
0
ARC
8
0
10
206.77
20
-113.0105215
40
3
50
300.0006035
51
0
0
ARC
8
0
10
212.77
20
-104.0612476
40
3
50
120.0006035
51
180
0
ARC
8
0
10
217.52
20
-94.3905215
40
3
50
300.0006035
51
0
0
ARC
8
0
10
223.52
20
-85.4412476
40
3
50
120.0006035
51
180
0
ARC
8
0
10
228.27
20
-75.7705215
40
3
50
300.0006035
51
0
0
ARC
8
0
10
234.27
20
-63.3145334
40
3
50
90
51
180
0
ARC
8
0
10
273.73
20
-63.3145334
40
3
50
0
51
90
0
ARC
8
0
10
279.73
20
-75.7705215
40
3
50
180
51
239.9993965
0
ARC
8
0
10
284.48
20
-85.4412476
40
3
50
0
51
59.9993965
0
ARC
8
0
10
290.48
20
-94.3905215
40
3
50
180
51
239.9993965
0
ARC
8
0
10
295.23
20
-104.0612476
40
3
50
0
51
59.9993965
0
ARC
8
0
10
301.23
20
-113.0105215
40
3
50
180
51
239.9993965
0
ARC
8
0
10
305.98
20
-122.6812476
40
3
50
0
51
59.9993965
0
ARC
8
0
10
311.98
20
-135.0946215
40
3
50
180
51
239.9993965
0
ARC
8
0
10
316.73
20
-144.7653476
40
3
50
0
51
59.9993965
0
ARC
8
0
10
316.73
20
-153.4028527
40
3
50
300.0006134
51
0
0
ARC
8
0
10
298.4999997
20
-163.9282081
40
3
50
239.9993965
51
300.0006134
0
ARC
8
0
10
276.9999988
20
-158.4431197
40
3
50
59.9993965
51
120.0005622
0
LINE
8
0
10
221.7744247
20
-87.5808349
11
228.2744247
21
-98.8391651
0
LINE
8
0
10
228.8208349
20
-98.9855753
11
240.0791651
21
-92.4855753
0
LINE
8
0
10
240.2255753
20
-91.9391651
11
233.7255753
21
-80.6808349
0
LINE
8
0
10
233.1791651
20
-80.5344247
11
221.9208349
21
-87.0344247
0
ARC
8
0
10
228.6208349
20
-98.6391651
40
0.4
50
210
51
300
0
ARC
8
0
10
239.8791651
20
-92.1391651
40
0.4
50
300
51
30
0
ARC
8
0
10
233.3791651
20
-80.8808349
40
0.4
50
30
51
120
0
ARC
8
0
10
222.1208349
20
-87.3808349
40
0.4
50
120
51
210
0
LINE
8
0
10
232.5244247
20
-106.2008349
11
239.0244247
21
-117.4591651
0
LINE
8
0
10
239.5708349
20
-117.6055753
11
250.8291651
21
-111.1055753
0
LINE
8
0
10
250.9755753
20
-110.5591651
11
244.4755753
21
-99.3008349
0
LINE
8
0
10
243.9291651
20
-99.1544247
11
232.6708349
21
-105.6544247
0
ARC
8
0
10
239.3708349
20
-117.2591651
40
0.4
50
210
51
300
0
ARC
8
0
10
250.6291651
20
-110.7591651
40
0.4
50
300
51
30
0
ARC
8
0
10
244.1291651
20
-99.5008349
40
0.4
50
30
51
120
0
ARC
8
0
10
232.8708349
20
-106.0008349
40
0.4
50
120
51
210
0
LINE
8
0
10
217.5244247
20
-99.3008349
11
211.0244247
21
-110.5591651
0
LINE
8
0
10
211.1708349
20
-111.1055753
11
222.4291651
21
-117.6055753
0
LINE
8
0
10
222.9755753
20
-117.4591651
11
229.4755753
21
-106.2008349
0
LINE
8
0
10
229.3291651
20
-105.6544247
11
218.0708349
21
-99.1544247
0
ARC
8
0
10
211.3708349
20
-110.7591651
40
0.4
50
150
51
240
0
ARC
8
0
10
222.6291651
20
-117.2591651
40
0.4
50
240
51
330
0
ARC
8
0
10
229.1291651
20
-106.0008349
40
0.4
50
330
51
60
0
ARC
8
0
10
217.8708349
20
-99.5008349
40
0.4
50
60
51
150
0
LINE
8
0
10
228.2744247
20
-117.9208349
11
221.7744247
21
-129.1791651
0
LINE
8
0
10
221.9208349
20
-129.7255753
11
233.1791651
21
-136.2255753
0
LINE
8
0
10
233.7255753
20
-136.0791651
11
240.2255753
21
-124.8208349
0
LINE
8
0
10
240.0791651
20
-124.2744247
11
228.8208349
21
-117.7744247
0
ARC
8
0
10
222.1208349
20
-129.3791651
40
0.4
50
150
51
240
0
ARC
8
0
10
233.3791651
20
-135.8791651
40
0.4
50
240
51
330
0
ARC
8
0
10
239.8791651
20
-124.6208349
40
0.4
50
330
51
60
0
ARC
8
0
10
228.6208349
20
-118.1208349
40
0.4
50
60
51
150
0
LINE
8
0
10
216
20
-120.1
11
203
21
-120.1
0
LINE
8
0
10
202.6
20
-120.5
11
202.6
21
-133.5
0
LINE
8
0
10
203
20
-133.9
11
216
21
-133.9
0
LINE
8
0
10
216.4
20
-133.5
11
216.4
21
-120.5
0
ARC
8
0
10
203
20
-120.5
40
0.4
50
90
51
180
0
ARC
8
0
10
203
20
-133.5
40
0.4
50
180
51
270
0
ARC
8
0
10
216
20
-133.5
40
0.4
50
270
51
0
0
ARC
8
0
10
216
20
-120.5
40
0.4
50
0
51
90
0
LINE
8
0
10
232.5244247
20
-146.9049349
11
239.0244247
21
-158.1632651
0
LINE
8
0
10
239.5708349
20
-158.3096753
11
250.8291651
21
-151.8096753
0
LINE
8
0
10
250.9755753
20
-151.2632651
11
244.4755753
21
-140.0049349
0
LINE
8
0
10
243.9291651
20
-139.8585247
11
232.6708349
21
-146.3585247
0
ARC
8
0
10
239.3708349
20
-157.9632651
40
0.4
50
210
51
300
0
ARC
8
0
10
250.6291651
20
-151.4632651
40
0.4
50
300
51
30
0
ARC
8
0
10
244.1291651
20
-140.2049349
40
0.4
50
30
51
120
0
ARC
8
0
10
232.8708349
20
-146.7049349
40
0.4
50
120
51
210
0
LINE
8
0
10
201.4755753
20
-158.1632651
11
207.9755753
21
-146.9049349
0
LINE
8
0
10
207.8291651
20
-146.3585247
11
196.5708349
21
-139.8585247
0
LINE
8
0
10
196.0244247
20
-140.0049349
11
189.5244247
21
-151.2632651
0
LINE
8
0
10
189.6708349
20
-151.8096753
11
200.9291651
21
-158.3096753
0
ARC
8
0
10
207.6291651
20
-146.7049349
40
0.4
50
330
51
60
0
ARC
8
0
10
196.3708349
20
-140.2049349
40
0.4
50
60
51
150
0
ARC
8
0
10
189.8708349
20
-151.4632651
40
0.4
50
150
51
240
0
ARC
8
0
10
201.1291651
20
-157.9632651
40
0.4
50
240
51
330
0
LINE
8
0
10
213.75
20
-155.9841
11
226.75
21
-155.9841
0
LINE
8
0
10
227.15
20
-155.5841
11
227.15
21
-142.5841
0
LINE
8
0
10
226.75
20
-142.1841
11
213.75
21
-142.1841
0
LINE
8
0
10
213.35
20
-142.5841
11
213.35
21
-155.5841
0
ARC
8
0
10
226.75
20
-155.5841
40
0.4
50
270
51
0
0
ARC
8
0
10
226.75
20
-142.5841
40
0.4
50
0
51
90
0
ARC
8
0
10
213.75
20
-142.5841
40
0.4
50
90
51
180
0
ARC
8
0
10
213.75
20
-155.5841
40
0.4
50
180
51
270
0
LINE
8
0
10
279.7255753
20
-98.8391651
11
286.2255753
21
-87.5808349
0
LINE
8
0
10
286.0791651
20
-87.0344247
11
274.8208349
21
-80.5344247
0
LINE
8
0
10
274.2744247
20
-80.6808349
11
267.7744247
21
-91.9391651
0
LINE
8
0
10
267.9208349
20
-92.4855753
11
279.1791651
21
-98.9855753
0
ARC
8
0
10
285.8791651
20
-87.3808349
40
0.4
50
330
51
60
0
ARC
8
0
10
274.6208349
20
-80.8808349
40
0.4
50
60
51
150
0
ARC
8
0
10
268.1208349
20
-92.1391651
40
0.4
50
150
51
240
0
ARC
8
0
10
279.3791651
20
-98.6391651
40
0.4
50
240
51
330
0
LINE
8
0
10
268.9755753
20
-117.4591651
11
275.4755753
21
-106.2008349
0
LINE
8
0
10
275.3291651
20
-105.6544247
11
264.0708349
21
-99.1544247
0
LINE
8
0
10
263.5244247
20
-99.3008349
11
257.0244247
21
-110.5591651
0
LINE
8
0
10
257.1708349
20
-111.1055753
11
268.4291651
21
-117.6055753
0
ARC
8
0
10
275.1291651
20
-106.0008349
40
0.4
50
330
51
60
0
ARC
8
0
10
263.8708349
20
-99.5008349
40
0.4
50
60
51
150
0
ARC
8
0
10
257.3708349
20
-110.7591651
40
0.4
50
150
51
240
0
ARC
8
0
10
268.6291651
20
-117.2591651
40
0.4
50
240
51
330
0
LINE
8
0
10
296.9755753
20
-110.5591651
11
290.4755753
21
-99.3008349
0
LINE
8
0
10
289.9291651
20
-99.1544247
11
278.6708349
21
-105.6544247
0
LINE
8
0
10
278.5244247
20
-106.2008349
11
285.0244247
21
-117.4591651
0
LINE
8
0
10
285.5708349
20
-117.6055753
11
296.8291651
21
-111.1055753
0
ARC
8
0
10
290.1291651
20
-99.5008349
40
0.4
50
30
51
120
0
ARC
8
0
10
278.8708349
20
-106.0008349
40
0.4
50
120
51
210
0
ARC
8
0
10
285.3708349
20
-117.2591651
40
0.4
50
210
51
300
0
ARC
8
0
10
296.6291651
20
-110.7591651
40
0.4
50
300
51
30
0
LINE
8
0
10
286.2255753
20
-129.1791651
11
279.7255753
21
-117.9208349
0
LINE
8
0
10
279.1791651
20
-117.7744247
11
267.9208349
21
-124.2744247
0
LINE
8
0
10
267.7744247
20
-124.8208349
11
274.2744247
21
-136.0791651
0
LINE
8
0
10
274.8208349
20
-136.2255753
11
286.0791651
21
-129.7255753
0
ARC
8
0
10
279.3791651
20
-118.1208349
40
0.4
50
30
51
120
0
ARC
8
0
10
268.1208349
20
-124.6208349
40
0.4
50
120
51
210
0
ARC
8
0
10
274.6208349
20
-135.8791651
40
0.4
50
210
51
300
0
ARC
8
0
10
285.8791651
20
-129.3791651
40
0.4
50
300
51
30
0
LINE
8
0
10
305
20
-120.1
11
292
21
-120.1
0
LINE
8
0
10
291.6
20
-120.5
11
291.6
21
-133.5
0
LINE
8
0
10
292
20
-133.9
11
305
21
-133.9
0
LINE
8
0
10
305.4
20
-133.5
11
305.4
21
-120.5
0
ARC
8
0
10
292
20
-120.5
40
0.4
50
90
51
180
0
ARC
8
0
10
292
20
-133.5
40
0.4
50
180
51
270
0
ARC
8
0
10
305
20
-133.5
40
0.4
50
270
51
0
0
ARC
8
0
10
305
20
-120.5
40
0.4
50
0
51
90
0
LINE
8
0
10
268.9755753
20
-158.1632651
11
275.4755753
21
-146.9049349
0
LINE
8
0
10
275.3291651
20
-146.3585247
11
264.0708349
21
-139.8585247
0
LINE
8
0
10
263.5244247
20
-140.0049349
11
257.0244247
21
-151.2632651
0
LINE
8
0
10
257.1708349
20
-151.8096753
11
268.4291651
21
-158.3096753
0
ARC
8
0
10
275.1291651
20
-146.7049349
40
0.4
50
330
51
60
0
ARC
8
0
10
263.8708349
20
-140.2049349
40
0.4
50
60
51
150
0
ARC
8
0
10
257.3708349
20
-151.4632651
40
0.4
50
150
51
240
0
ARC
8
0
10
268.6291651
20
-157.9632651
40
0.4
50
240
51
330
0
LINE
8
0
10
300.0244247
20
-146.9049349
11
306.5244247
21
-158.1632651
0
LINE
8
0
10
307.0708349
20
-158.3096753
11
318.3291651
21
-151.8096753
0
LINE
8
0
10
318.4755753
20
-151.2632651
11
311.9755753
21
-140.0049349
0
LINE
8
0
10
311.4291651
20
-139.8585247
11
300.1708349
21
-146.3585247
0
ARC
8
0
10
306.8708349
20
-157.9632651
40
0.4
50
210
51
300
0
ARC
8
0
10
318.1291651
20
-151.4632651
40
0.4
50
300
51
30
0
ARC
8
0
10
311.6291651
20
-140.2049349
40
0.4
50
30
51
120
0
ARC
8
0
10
300.3708349
20
-146.7049349
40
0.4
50
120
51
210
0
LINE
8
0
10
281.25
20
-155.9841
11
294.25
21
-155.9841
0
LINE
8
0
10
294.65
20
-155.5841
11
294.65
21
-142.5841
0
LINE
8
0
10
294.25
20
-142.1841
11
281.25
21
-142.1841
0
LINE
8
0
10
280.85
20
-142.5841
11
280.85
21
-155.5841
0
ARC
8
0
10
294.25
20
-155.5841
40
0.4
50
270
51
0
0
ARC
8
0
10
294.25
20
-142.5841
40
0.4
50
0
51
90
0
ARC
8
0
10
281.25
20
-142.5841
40
0.4
50
90
51
180
0
ARC
8
0
10
281.25
20
-155.5841
40
0.4
50
180
51
270
0
LINE
8
0
10
245.11
20
-93.8345333
11
262.89
21
-93.8345333
0
LINE
8
0
10
263.39
20
-93.3345333
11
263.39
21
-60.3145333
0
LINE
8
0
10
244.61
20
-60.3145333
11
244.61
21
-93.3345333
0
ARC
8
0
10
262.89
20
-93.3345333
40
0.5
50
270
51
0
0
ARC
8
0
10
245.11
20
-93.3345333
40
0.5
50
180
51
270
0
LINE
8
0
10
261.6895354
20
-134.7828322
11
246.3104646
21
-134.7828322
0
LINE
8
0
10
242.02
20
-128.0835804
11
242.02
21
-121.9492179
0
LINE
8
0
10
243.02
20
-120.9492179
11
264.98
21
-120.9492179
0
LINE
8
0
10
265.98
20
-121.9492179
11
265.98
21
-128.0835804
0
LINE
8
0
10
245.4444392
20
-134.2828322
11
242.1539746
21
-128.5835804
0
LINE
8
0
10
265.8460254
20
-128.5835804
11
262.5555608
21
-134.2828322
0
ARC
8
0
10
246.3104646
20
-133.7828322
40
1
50
210.0000001
51
270
0
ARC
8
0
10
243.02
20
-128.0835804
40
1
50
180
51
210.0000001
0
ARC
8
0
10
243.02
20
-121.9492179
40
1
50
90
51
180
0
ARC
8
0
10
264.98
20
-121.9492179
40
1
50
0
51
90
0
ARC
8
0
10
264.98
20
-128.0835804
40
1
50
329.9999999
51
0
0
ARC
8
0
10
261.6895354
20
-133.7828322
40
1
50
270
51
329.9999999
0
LINE
8
0
10
206.3117075
20
-162.5681868
11
205.2117075
21
-161.9317582
0
LINE
8
0
10
204.7125
20
-161.0661909
11
204.7125
21
-159.7896711
0
LINE
8
0
10
205.2117075
20
-158.9241038
11
206.3117075
21
-158.2876752
0
LINE
8
0
10
207.3132925
20
-158.2876752
11
208.4132925
21
-158.9241038
0
LINE
8
0
10
208.9125
20
-159.7896711
11
208.9125
21
-161.0661909
0
LINE
8
0
10
208.4132925
20
-161.9317582
11
207.3132925
21
-162.5681868
0
ARC
8
0
10
205.7125
20
-161.0661909
40
1
50
180
51
239.9475527
0
ARC
8
0
10
205.7125
20
-159.7896711
40
1
50
120.0524473
51
180
0
ARC
8
0
10
206.8125
20
-159.1532425
40
1
50
59.9475527
51
120.0524473
0
ARC
8
0
10
207.9125
20
-159.7896711
40
1
50
0
51
59.9475527
0
ARC
8
0
10
207.9125
20
-161.0661909
40
1
50
300.0524473
51
0
0
ARC
8
0
10
206.8125
20
-161.7026195
40
1
50
239.9475527
51
300.0524473
0
LINE
8
0
10
249.4992075
20
-141.5535891
11
248.3992075
21
-140.9171605
0
LINE
8
0
10
247.9
20
-140.0515932
11
247.9
21
-138.7750734
0
LINE
8
0
10
248.3992075
20
-137.9095061
11
249.4992075
21
-137.2730775
0
LINE
8
0
10
250.5007925
20
-137.2730775
11
251.6007925
21
-137.9095061
0
LINE
8
0
10
252.1
20
-138.7750734
11
252.1
21
-140.0515932
0
LINE
8
0
10
251.6007925
20
-140.9171605
11
250.5007925
21
-141.5535891
0
ARC
8
0
10
248.9
20
-140.0515932
40
1
50
180
51
239.9475527
0
ARC
8
0
10
248.9
20
-138.7750734
40
1
50
120.0524473
51
180
0
ARC
8
0
10
250
20
-138.1386448
40
1
50
59.9475527
51
120.0524473
0
ARC
8
0
10
251.1
20
-138.7750734
40
1
50
0
51
59.9475527
0
ARC
8
0
10
251.1
20
-140.0515932
40
1
50
300.0524473
51
0
0
ARC
8
0
10
250
20
-140.6880218
40
1
50
239.9475527
51
300.0524473
0
LINE
8
0
10
238.5617075
20
-77.9352558
11
237.4617075
21
-77.2988272
0
LINE
8
0
10
236.9625
20
-76.4332599
11
236.9625
21
-75.1567401
0
LINE
8
0
10
237.4617075
20
-74.2911728
11
238.5617075
21
-73.6547442
0
LINE
8
0
10
239.5632925
20
-73.6547442
11
240.6632925
21
-74.2911728
0
LINE
8
0
10
241.1625
20
-75.1567401
11
241.1625
21
-76.4332599
0
LINE
8
0
10
240.6632925
20
-77.2988272
11
239.5632925
21
-77.9352558
0
ARC
8
0
10
237.9625
20
-76.4332599
40
1
50
180
51
239.9475527
0
ARC
8
0
10
237.9625
20
-75.1567401
40
1
50
120.0524473
51
180
0
ARC
8
0
10
239.0625
20
-74.5203115
40
1
50
59.9475527
51
120.0524473
0
ARC
8
0
10
240.1625
20
-75.1567401
40
1
50
0
51
59.9475527
0
ARC
8
0
10
240.1625
20
-76.4332599
40
1
50
300.0524473
51
0
0
ARC
8
0
10
239.0625
20
-77.0696885
40
1
50
239.9475527
51
300.0524473
0
LINE
8
0
10
300.6867075
20
-162.5681868
11
299.5867075
21
-161.9317582
0
LINE
8
0
10
299.0875
20
-161.0661909
11
299.0875
21
-159.7896711
0
LINE
8
0
10
299.5867075
20
-158.9241038
11
300.6867075
21
-158.2876752
0
LINE
8
0
10
301.6882925
20
-158.2876752
11
302.7882925
21
-158.9241038
0
LINE
8
0
10
303.2875
20
-159.7896711
11
303.2875
21
-161.0661909
0
LINE
8
0
10
302.7882925
20
-161.9317582
11
301.6882925
21
-162.5681868
0
ARC
8
0
10
300.0875
20
-161.0661909
40
1
50
180
51
239.9475527
0
ARC
8
0
10
300.0875
20
-159.7896711
40
1
50
120.0524473
51
180
0
ARC
8
0
10
301.1875
20
-159.1532425
40
1
50
59.9475527
51
120.0524473
0
ARC
8
0
10
302.2875
20
-159.7896711
40
1
50
0
51
59.9475527
0
ARC
8
0
10
302.2875
20
-161.0661909
40
1
50
300.0524473
51
0
0
ARC
8
0
10
301.1875
20
-161.7026195
40
1
50
239.9475527
51
300.0524473
0
LINE
8
0
10
257.4992075
20
-141.5535891
11
256.3992075
21
-140.9171605
0
LINE
8
0
10
255.9
20
-140.0515932
11
255.9
21
-138.7750734
0
LINE
8
0
10
256.3992075
20
-137.9095061
11
257.4992075
21
-137.2730775
0
LINE
8
0
10
258.5007925
20
-137.2730775
11
259.6007925
21
-137.9095061
0
LINE
8
0
10
260.1
20
-138.7750734
11
260.1
21
-140.0515932
0
LINE
8
0
10
259.6007925
20
-140.9171605
11
258.5007925
21
-141.5535891
0
ARC
8
0
10
256.9
20
-140.0515932
40
1
50
180
51
239.9475527
0
ARC
8
0
10
256.9
20
-138.7750734
40
1
50
120.0524473
51
180
0
ARC
8
0
10
258
20
-138.1386448
40
1
50
59.9475527
51
120.0524473
0
ARC
8
0
10
259.1
20
-138.7750734
40
1
50
0
51
59.9475527
0
ARC
8
0
10
259.1
20
-140.0515932
40
1
50
300.0524473
51
0
0
ARC
8
0
10
258
20
-140.6880218
40
1
50
239.9475527
51
300.0524473
0
LINE
8
0
10
268.4367075
20
-77.9352558
11
267.3367075
21
-77.2988272
0
LINE
8
0
10
266.8375
20
-76.4332599
11
266.8375
21
-75.1567401
0
LINE
8
0
10
267.3367075
20
-74.2911728
11
268.4367075
21
-73.6547442
0
LINE
8
0
10
269.4382925
20
-73.6547442
11
270.5382925
21
-74.2911728
0
LINE
8
0
10
271.0375
20
-75.1567401
11
271.0375
21
-76.4332599
0
LINE
8
0
10
270.5382925
20
-77.2988272
11
269.4382925
21
-77.9352558
0
ARC
8
0
10
267.8375
20
-76.4332599
40
1
50
180
51
239.9475527
0
ARC
8
0
10
267.8375
20
-75.1567401
40
1
50
120.0524473
51
180
0
ARC
8
0
10
268.9375
20
-74.5203115
40
1
50
59.9475527
51
120.0524473
0
ARC
8
0
10
270.0375
20
-75.1567401
40
1
50
0
51
59.9475527
0
ARC
8
0
10
270.0375
20
-76.4332599
40
1
50
300.0524473
51
0
0
ARC
8
0
10
268.9375
20
-77.0696885
40
1
50
239.9475527
51
300.0524473
0
ENDSEC
0
EOF