0
SECTION
2
HEADER
9
$INSUNITS
70
4
0
ENDSEC
0
SECTION
2
TABLES
0
TABLE
2
LTYPE
0
LTYPE
72
65
70
64
2
CONTINUOUS
3
______
73
0
40
0
0
ENDTAB
0
TABLE
2
LAYER
0
ENDTAB
0
ENDSEC
0
SECTION
2
ENTITIES
0
LINE
8
0
10
275.4999733
20
-155.8450582
11
255.5000255
21
-167.3922962
0
LINE
8
0
10
252.4999745
20
-167.3922962
11
232.5000267
21
-155.8450582
0
LINE
8
0
10
229.4999739
20
-155.8450593
11
211.0000276
21
-166.5262685
0
LINE
8
0
10
207.9999724
20
-166.5262683
11
189.7699722
21
-156.0009129
0
LINE
8
0
10
188.27
20
-153.4028527
11
188.27
21
-144.7653476
0
LINE
8
0
10
189.7699726
20
-142.1672872
11
197.5200274
21
-137.6926819
0
LINE
8
0
10
199.02
20
-135.0946215
11
199.02
21
-122.6812476
0
LINE
8
0
10
200.5199726
20
-120.0831872
11
208.2700274
21
-115.6085819
0
LINE
8
0
10
209.77
20
-113.0105215
11
209.77
21
-104.0612476
0
LINE
8
0
10
211.2699726
20
-101.4631872
11
219.0200274
21
-96.9885819
0
LINE
8
0
10
220.52
20
-94.3905215
11
220.52
21
-85.4412476
0
LINE
8
0
10
222.0199726
20
-82.8431872
11
229.7700274
21
-78.3685819
0
LINE
8
0
10
231.27
20
-75.7705215
11
231.27
21
-63.3145334
0
LINE
8
0
10
234.27
20
-60.3145334
11
273.73
21
-60.3145334
0
LINE
8
0
10
276.73
20
-63.3145334
11
276.73
21
-75.7705215
0
LINE
8
0
10
278.2299726
20
-78.3685819
11
285.9800274
21
-82.8431872
0
LINE
8
0
10
287.48
20
-85.4412476
11
287.48
21
-94.3905215
0
LINE
8
0
10
288.9799726
20
-96.9885819
11
296.7300274
21
-101.4631872
0
LINE
8
0
10
298.23
20
-104.0612476
11
298.23
21
-113.0105215
0
LINE
8
0
10
299.7299726
20
-115.6085819
11
307.4800274
21
-120.0831872
0
LINE
8
0
10
308.98
20
-122.6812476
11
308.98
21
-135.0946215
0
LINE
8
0
10
310.4799726
20
-137.6926819
11
318.2300274
21
-142.1672872
0
LINE
8
0
10
319.73
20
-144.7653476
11
319.73
21
-153.4028527
0
LINE
8
0
10
318.2300278
20
-156.0009129
11
300.0000276
21
-166.5262683
0
LINE
8
0
10
296.9999724
20
-166.5262685
11
278.5000261
21
-155.8450593
0
ARC
8
0
10
254
20
-164.7942347
40
3
50
239.9994378
51
300.0005622
0
ARC
8
0
10
231.0000012
20
-158.4431197
40
3
50
59.9994378
51
120.0006035
0
ARC
8
0
10
209.5000003
20
-163.9282081
40
3
50
239.9993866
51
300.0006035
0
ARC
8
0
10
191.27
20
-153.4028527
40
3
50
180
51
239.9993866
0
ARC
8
0
10
191.27
20
-144.7653476
40
3
50
120.0006035
51
180
0
ARC
8
0
10
196.02
20
-135.0946215
40
3
50
300.0006035
51
0
0
ARC
8
0
10
202.02
20
-122.6812476
40
3
50
120.0006035
51
180
0
ARC
8
0
10
206.77
20
-113.0105215
40
3
50
300.0006035
51
0
0
ARC
8
0
10
212.77
20
-104.0612476
40
3
50
120.0006035
51
180
0
ARC
8
0
10
217.52
20
-94.3905215
40
3
50
300.0006035
51
0
0
ARC
8
0
10
223.52
20
-85.4412476
40
3
50
120.0006035
51
180
0
ARC
8
0
10
228.27
20
-75.7705215
40
3
50
300.0006035
51
0
0
ARC
8
0
10
234.27
20
-63.3145334
40
3
50
90
51
180
0
ARC
8
0
10
273.73
20
-63.3145334
40
3
50
0
51
90
0
ARC
8
0
10
279.73
20
-75.7705215
40
3
50
180
51
239.9993965
0
ARC
8
0
10
284.48
20
-85.4412476
40
3
50
0
51
59.9993965
0
ARC
8
0
10
290.48
20
-94.3905215
40
3
50
180
51
239.9993965
0
ARC
8
0
10
295.23
20
-104.0612476
40
3
50
0
51
59.9993965
0
ARC
8
0
10
301.23
20
-113.0105215
40
3
50
180
51
239.9993965
0
ARC
8
0
10
305.98
20
-122.6812476
40
3
50
0
51
59.9993965
0
ARC
8
0
10
311.98
20
-135.0946215
40
3
50
180
51
239.9993965
0
ARC
8
0
10
316.73
20
-144.7653476
40
3
50
0
51
59.9993965
0
ARC
8
0
10
316.73
20
-153.4028527
40
3
50
300.0006134
51
0
0
ARC
8
0
10
298.4999997
20
-163.9282081
40
3
50
239.9993965
51
300.0006134
0
ARC
8
0
10
276.9999988
20
-158.4431197
40
3
50
59.9993965
51
120.0005622
0
ENDSEC
0
EOF