0
SECTION
2
HEADER
9
$INSUNITS
70
4
0
ENDSEC
0
SECTION
2
TABLES
0
TABLE
2
LTYPE
0
LTYPE
72
65
70
64
2
CONTINUOUS
3
______
73
0
40
0
0
ENDTAB
0
TABLE
2
LAYER
0
ENDTAB
0
ENDSEC
0
SECTION
2
ENTITIES
0
LINE
8
0
10
251.3649552
20
-170.6688534
11
233.6350454
21
-180.9054545
0
LINE
8
0
10
228.3649549
20
-180.9054539
11
188.6349542
21
-157.9667936
0
LINE
8
0
10
186
20
-153.4028662
11
186
21
-143.6106322
0
LINE
8
0
10
183.3650481
20
-139.046706
11
145.6349519
21
-117.262694
0
LINE
8
0
10
143
20
-112.6987678
11
143
21
-66.8212354
0
LINE
8
0
10
145.6349562
20
-62.2573068
11
163.8649534
21
-51.7319787
0
LINE
8
0
10
169.1350453
20
-51.7319812
11
185.3649519
21
-61.1025505
0
LINE
8
0
10
190.6350481
20
-61.1025505
11
206.8649531
21
-51.7319821
0
LINE
8
0
10
212.1350476
20
-51.7319812
11
225.7771885
21
-59.6084604
0
LINE
8
0
10
244.61
20
-60.3145333
11
228.412235
21
-60.3145333
0
ARC
8
0
10
231.0000007
20
-176.3415265
40
5.27
50
239.999425
51
300.0005622
0
ARC
8
0
10
191.27
20
-153.4028662
40
5.27
50
180
51
239.999425
0
ARC
8
0
10
180.73
20
-143.6106322
40
5.27
50
0
51
59.9993965
0
ARC
8
0
10
148.27
20
-112.6987678
40
5.27
50
180
51
239.9993965
0
ARC
8
0
10
148.27
20
-66.8212354
40
5.27
50
120.0005495
51
180
0
ARC
8
0
10
166.4999972
20
-56.2959073
40
5.27
50
59.9993965
51
120.0005495
0
ARC
8
0
10
188
20
-56.5386243
40
5.27
50
239.9993965
51
300.0006035
0
ARC
8
0
10
209.5000012
20
-56.2959083
40
5.27
50
59.9994171
51
120.0006035
0
ARC
8
0
10
228.412235
20
-55.0445333
40
5.27
50
239.9994171
51
270
0
ARC
8
0
10
254
20
-175.2327815
40
5.27
50
90
51
120.0005622
0
LINE
8
0
10
254
20
-169.9627815
11
254
21
-134.7828322
0
LINE
8
0
10
254
20
-119.4492179
11
254
21
-93.8345333
0
LINE
8
0
10
245.11
20
-93.8345333
11
254
21
-93.8345333
0
LINE
8
0
10
244.61
20
-60.3145333
11
244.61
21
-93.3345333
0
ARC
8
0
10
245.11
20
-93.3345333
40
0.5
50
180
51
270
0
LINE
8
0
10
254
20
-134.7828322
11
246.3104646
21
-134.7828322
0
LINE
8
0
10
241.25
20
-126.7499012
11
241.25
21
-120.4492179
0
LINE
8
0
10
242.25
20
-119.4492179
11
254
21
-119.4492179
0
LINE
8
0
10
245.4444392
20
-134.2828322
11
241.3839746
21
-127.2499012
0
ARC
8
0
10
246.3104646
20
-133.7828322
40
1
50
210.0000001
51
270
0
ARC
8
0
10
242.25
20
-126.7499012
40
1
50
180
51
210.0000001
0
ARC
8
0
10
242.25
20
-120.4492179
40
1
50
90
51
180
0
ARC
8
0
10
166.5
20
-77.3466667
40
20.0133333
50
29.9993952
51
150.0006048
0
ARC
8
0
10
166.5
20
-77.3466667
40
4.8133333
50
30.6861594
51
81.1228874
0
LINE
8
0
10
183.8321607
20
-67.340183
11
183.8316695
21
-67.3404666
0
LINE
8
0
10
149.1681341
20
-67.3403531
11
149.1678393
21
-67.340183
0
ARC
8
0
10
209.5
20
-77.3466667
40
20.0133333
50
29.9993952
51
150.0006048
0
ARC
8
0
10
209.5
20
-77.3466667
40
4.8133333
50
30.5328263
51
81.1250755
0
LINE
8
0
10
226.8321607
20
-67.340183
11
226.831866
21
-67.3403532
0
LINE
8
0
10
192.1682323
20
-67.3404098
11
192.1678393
21
-67.340183
0
LINE
8
0
10
149.1657069
20
-74.9358968
11
154.8551332
21
-84.7902721
0
LINE
8
0
10
166.2224319
20
-74.079011
11
173.0842931
21
-85.9641032
0
ARC
8
0
10
155.75
20
-71.1402269
40
7.6
50
150.0010985
51
209.9623054
0
ARC
8
0
10
166.5
20
-89.7597731
40
7.6
50
269.9996163
51
29.9623054
0
LINE
8
0
10
213.6657069
20
-74.9358968
11
224.4207069
21
-93.5641032
0
LINE
8
0
10
226.831866
20
-67.3403532
11
237.5842931
21
-85.9641032
0
ARC
8
0
10
220.25
20
-71.1402269
40
7.6
50
209.6620527
51
209.9623054
0
ARC
8
0
10
231
20
-89.7597731
40
7.6
50
210.0376946
51
29.9623054
0
LINE
8
0
10
175.7312153
20
-120.9498417
11
191.0160254
21
-147.4239093
0
LINE
8
0
10
183.8292931
20
-104.5761237
11
205.3342931
21
-141.8238763
0
ARC
8
0
10
177.25
20
-108.3804538
40
7.6
50
30.0376946
51
149.9964317
0
ARC
8
0
10
198.75
20
-145.6195462
40
7.6
50
360.0342734
51
29.9623054
0
LINE
8
0
10
192.1657069
20
-74.9361237
11
213.6707069
21
-112.1838763
0
LINE
8
0
10
209.222288
20
-74.0789886
11
226.8342931
21
-104.5838763
0
ARC
8
0
10
198.75
20
-71.1404538
40
7.6
50
149.9996171
51
209.9623054
0
ARC
8
0
10
220.25
20
-108.3795462
40
7.6
50
210.0376946
51
29.9623054
0
LINE
8
0
10
170.6657069
20
-74.9363506
11
202.9207069
21
-130.8036494
0
LINE
8
0
10
183.8316695
20
-67.3404666
11
216.0842931
21
-123.2036494
0
ARC
8
0
10
177.25
20
-71.1406807
40
7.6
50
209.5619821
51
209.9623054
0
ARC
8
0
10
209.5
20
-126.9993193
40
7.6
50
210.0376946
51
29.9623054
0
ARC
8
0
10
166.5
20
-102.1733333
40
20.0133333
50
126.5396372
51
293.4588056
0
ARC
8
0
10
166.5
20
-102.1733333
40
4.8133333
50
90.0006042
51
329.9993958
0
LINE
8
0
10
206.35
20
-149.0891
11
206.35
21
-145.615
0
LINE
8
0
10
191.15
20
-149.0891
11
191.15
21
-147.9239093
0
ARC
8
0
10
198.75
20
-149.0841
40
7.6
50
180.0376946
51
359.9623054
0
ARC
8
0
10
231
20
-155.2907667
40
20.0133333
50
150.0006048
51
389.9993952
0
ARC
8
0
10
231
20
-155.2907667
40
4.8133333
50
150.434735
51
389.565265
0
LINE
8
0
10
248.3321607
20
-145.284283
11
248.3319642
21
-145.2843964
0
LINE
8
0
10
213.6680358
20
-145.2843964
11
213.6678393
21
-145.284283
0
ARC
8
0
10
220.25
20
-149.0841
40
7.6
50
329.7236816
51
510.0025802
0
ARC
8
0
10
241.75
20
-149.0841
40
7.6
50
389.9974198
51
570.2763184
0
ARC
8
0
10
153.9891078
20
-85.2902721
40
1
50
306.5396372
51
30.0000001
0
ARC
8
0
10
174.8651899
20
-121.4498417
40
1
50
30.0000001
51
113.4588056
0
ARC
8
0
10
190.15
20
-147.9239093
40
1
50
0
51
30.0000001
0
ARC
8
0
10
167.0884573
20
-73.579011
40
1
50
81.1228874
51
210.0000001
0
ARC
8
0
10
210.0883134
20
-73.5789886
40
1
50
81.1250755
51
210.0000001
0
CIRCLE
8
0
10
147.6875
20
-85.105
40
1.6
0
CIRCLE
8
0
10
171.875
20
-127
40
1.6
0
CIRCLE
8
0
10
187
20
-65.9333333
40
1.6
0
CIRCLE
8
0
10
206.8125
20
-160.427931
40
1.6
0
CIRCLE
8
0
10
250
20
-139.4133333
40
1.6
0
CIRCLE
8
0
10
239.0625
20
-75.795
40
1.6
0
ENDSEC
0
EOF